<svg width="466" height="466" viewBox="0 0 466 466" fill="none" xmlns="http://www.w3.org/2000/svg">
<circle cx="233" cy="233" r="217" stroke="url(#paint0_linear_317_1083)" stroke-width="32"/>
<path d="M158.944 200V174.8H170.248C173.152 174.8 175.384 175.388 176.944 176.564C178.504 177.716 179.284 179.3 179.284 181.316C179.284 182.684 178.972 183.836 178.348 184.772C177.748 185.708 176.932 186.428 175.9 186.932C174.868 187.436 173.752 187.688 172.552 187.688L173.2 186.608C174.64 186.608 175.912 186.86 177.016 187.364C178.12 187.868 178.996 188.612 179.644 189.596C180.292 190.556 180.616 191.756 180.616 193.196C180.616 195.356 179.8 197.036 178.168 198.236C176.56 199.412 174.16 200 170.968 200H158.944ZM162.544 197.084H170.824C172.816 197.084 174.34 196.748 175.396 196.076C176.452 195.404 176.98 194.348 176.98 192.908C176.98 191.444 176.452 190.376 175.396 189.704C174.34 189.032 172.816 188.696 170.824 188.696H162.22V185.78H169.924C171.748 185.78 173.164 185.444 174.172 184.772C175.18 184.1 175.684 183.092 175.684 181.748C175.684 180.404 175.18 179.396 174.172 178.724C173.164 178.052 171.748 177.716 169.924 177.716H162.544V197.084ZM193.714 200.216C192.082 200.216 190.642 199.916 189.394 199.316C188.17 198.716 187.21 197.804 186.514 196.58C185.842 195.332 185.506 193.772 185.506 191.9V180.92H188.962V191.504C188.962 193.376 189.406 194.78 190.294 195.716C191.206 196.652 192.478 197.12 194.11 197.12C195.31 197.12 196.354 196.88 197.242 196.4C198.13 195.896 198.814 195.176 199.294 194.24C199.774 193.28 200.014 192.128 200.014 190.784V180.92H203.47V200H200.194V194.852L200.734 196.22C200.11 197.492 199.174 198.476 197.926 199.172C196.678 199.868 195.274 200.216 193.714 200.216ZM210.049 200V180.92H213.505V200H210.049ZM211.777 177.248C211.105 177.248 210.541 177.032 210.085 176.6C209.653 176.168 209.437 175.64 209.437 175.016C209.437 174.368 209.653 173.828 210.085 173.396C210.541 172.964 211.105 172.748 211.777 172.748C212.449 172.748 213.001 172.964 213.433 173.396C213.889 173.804 214.117 174.32 214.117 174.944C214.117 175.592 213.901 176.144 213.469 176.6C213.037 177.032 212.473 177.248 211.777 177.248ZM220.104 200V173.288H223.56V200H220.104ZM238.043 200.216C236.195 200.216 234.539 199.808 233.075 198.992C231.635 198.176 230.495 197.036 229.655 195.572C228.815 194.108 228.395 192.404 228.395 190.46C228.395 188.516 228.815 186.824 229.655 185.384C230.495 183.92 231.635 182.78 233.075 181.964C234.539 181.148 236.195 180.74 238.043 180.74C239.651 180.74 241.103 181.1 242.399 181.82C243.695 182.54 244.727 183.62 245.495 185.06C246.287 186.5 246.683 188.3 246.683 190.46C246.683 192.62 246.299 194.42 245.531 195.86C244.787 197.3 243.767 198.392 242.471 199.136C241.175 199.856 239.699 200.216 238.043 200.216ZM238.331 197.192C239.531 197.192 240.611 196.916 241.571 196.364C242.555 195.812 243.323 195.032 243.875 194.024C244.451 192.992 244.739 191.804 244.739 190.46C244.739 189.092 244.451 187.916 243.875 186.932C243.323 185.924 242.555 185.144 241.571 184.592C240.611 184.04 239.531 183.764 238.331 183.764C237.107 183.764 236.015 184.04 235.055 184.592C234.095 185.144 233.327 185.924 232.751 186.932C232.175 187.916 231.887 189.092 231.887 190.46C231.887 191.804 232.175 192.992 232.751 194.024C233.327 195.032 234.095 195.812 235.055 196.364C236.015 196.916 237.107 197.192 238.331 197.192ZM244.847 200V194.852L245.063 190.424L244.703 185.996V173.288H248.159V200H244.847ZM254.698 200V180.92H258.154V200H254.698ZM256.426 177.248C255.754 177.248 255.19 177.032 254.734 176.6C254.302 176.168 254.086 175.64 254.086 175.016C254.086 174.368 254.302 173.828 254.734 173.396C255.19 172.964 255.754 172.748 256.426 172.748C257.098 172.748 257.65 172.964 258.082 173.396C258.538 173.804 258.766 174.32 258.766 174.944C258.766 175.592 258.55 176.144 258.118 176.6C257.686 177.032 257.122 177.248 256.426 177.248ZM274.941 180.74C276.501 180.74 277.869 181.04 279.045 181.64C280.245 182.24 281.181 183.152 281.853 184.376C282.525 185.6 282.861 187.148 282.861 189.02V200H279.405V189.416C279.405 187.568 278.949 186.176 278.037 185.24C277.149 184.304 275.889 183.836 274.257 183.836C273.033 183.836 271.965 184.076 271.053 184.556C270.141 185.036 269.433 185.744 268.929 186.68C268.449 187.616 268.209 188.78 268.209 190.172V200H264.753V180.92H268.065V186.068L267.525 184.7C268.149 183.452 269.109 182.48 270.405 181.784C271.701 181.088 273.213 180.74 274.941 180.74ZM297.608 207.2C295.856 207.2 294.152 206.948 292.496 206.444C290.864 205.964 289.532 205.268 288.5 204.356L290.156 201.692C291.044 202.46 292.136 203.06 293.432 203.492C294.728 203.948 296.084 204.176 297.5 204.176C299.756 204.176 301.412 203.648 302.468 202.592C303.524 201.536 304.052 199.928 304.052 197.768V193.736L304.412 189.956L304.232 186.14V180.92H307.508V197.408C307.508 200.768 306.668 203.24 304.988 204.824C303.308 206.408 300.848 207.2 297.608 207.2ZM297.176 199.208C295.328 199.208 293.672 198.824 292.208 198.056C290.768 197.264 289.616 196.172 288.752 194.78C287.912 193.388 287.492 191.78 287.492 189.956C287.492 188.108 287.912 186.5 288.752 185.132C289.616 183.74 290.768 182.66 292.208 181.892C293.672 181.124 295.328 180.74 297.176 180.74C298.808 180.74 300.296 181.076 301.64 181.748C302.984 182.396 304.052 183.404 304.844 184.772C305.66 186.14 306.068 187.868 306.068 189.956C306.068 192.02 305.66 193.736 304.844 195.104C304.052 196.472 302.984 197.504 301.64 198.2C300.296 198.872 298.808 199.208 297.176 199.208ZM297.572 196.184C298.844 196.184 299.972 195.92 300.956 195.392C301.94 194.864 302.708 194.132 303.26 193.196C303.836 192.26 304.124 191.18 304.124 189.956C304.124 188.732 303.836 187.652 303.26 186.716C302.708 185.78 301.94 185.06 300.956 184.556C299.972 184.028 298.844 183.764 297.572 183.764C296.3 183.764 295.16 184.028 294.152 184.556C293.168 185.06 292.388 185.78 291.812 186.716C291.26 187.652 290.984 188.732 290.984 189.956C290.984 191.18 291.26 192.26 291.812 193.196C292.388 194.132 293.168 194.864 294.152 195.392C295.16 195.92 296.3 196.184 297.572 196.184ZM139.901 250V227.932H131.261V224.8H152.105V227.932H143.465V250H139.901ZM162.049 250.216C160.009 250.216 158.209 249.796 156.649 248.956C155.113 248.116 153.913 246.964 153.049 245.5C152.209 244.036 151.789 242.356 151.789 240.46C151.789 238.564 152.197 236.884 153.013 235.42C153.853 233.956 154.993 232.816 156.433 232C157.897 231.16 159.541 230.74 161.365 230.74C163.213 230.74 164.845 231.148 166.261 231.964C167.677 232.78 168.781 233.932 169.573 235.42C170.389 236.884 170.797 238.6 170.797 240.568C170.797 240.712 170.785 240.88 170.761 241.072C170.761 241.264 170.749 241.444 170.725 241.612H154.489V239.128H168.925L167.521 239.992C167.545 238.768 167.293 237.676 166.765 236.716C166.237 235.756 165.505 235.012 164.569 234.484C163.657 233.932 162.589 233.656 161.365 233.656C160.165 233.656 159.097 233.932 158.161 234.484C157.225 235.012 156.493 235.768 155.965 236.752C155.437 237.712 155.173 238.816 155.173 240.064V240.64C155.173 241.912 155.461 243.052 156.037 244.06C156.637 245.044 157.465 245.812 158.521 246.364C159.577 246.916 160.789 247.192 162.157 247.192C163.285 247.192 164.305 247 165.217 246.616C166.153 246.232 166.969 245.656 167.665 244.888L169.573 247.12C168.709 248.128 167.629 248.896 166.333 249.424C165.061 249.952 163.633 250.216 162.049 250.216ZM186.913 250V245.968L186.733 245.212V238.336C186.733 236.872 186.301 235.744 185.437 234.952C184.597 234.136 183.325 233.728 181.621 233.728C180.493 233.728 179.389 233.92 178.309 234.304C177.229 234.664 176.317 235.156 175.573 235.78L174.133 233.188C175.117 232.396 176.293 231.796 177.661 231.388C179.053 230.956 180.505 230.74 182.017 230.74C184.633 230.74 186.649 231.376 188.065 232.648C189.481 233.92 190.189 235.864 190.189 238.48V250H186.913ZM180.649 250.216C179.233 250.216 177.985 249.976 176.905 249.496C175.849 249.016 175.033 248.356 174.457 247.516C173.881 246.652 173.593 245.68 173.593 244.6C173.593 243.568 173.833 242.632 174.313 241.792C174.817 240.952 175.621 240.28 176.725 239.776C177.853 239.272 179.365 239.02 181.261 239.02H187.309V241.504H181.405C179.677 241.504 178.513 241.792 177.913 242.368C177.313 242.944 177.013 243.64 177.013 244.456C177.013 245.392 177.385 246.148 178.129 246.724C178.873 247.276 179.905 247.552 181.225 247.552C182.521 247.552 183.649 247.264 184.609 246.688C185.593 246.112 186.301 245.272 186.733 244.168L187.417 246.544C186.961 247.672 186.157 248.572 185.005 249.244C183.853 249.892 182.401 250.216 180.649 250.216ZM220.453 230.74C221.989 230.74 223.345 231.04 224.521 231.64C225.697 232.24 226.609 233.152 227.257 234.376C227.929 235.6 228.265 237.148 228.265 239.02V250H224.809V239.416C224.809 237.568 224.377 236.176 223.513 235.24C222.649 234.304 221.437 233.836 219.877 233.836C218.725 233.836 217.717 234.076 216.853 234.556C215.989 235.036 215.317 235.744 214.837 236.68C214.381 237.616 214.153 238.78 214.153 240.172V250H210.697V239.416C210.697 237.568 210.265 236.176 209.401 235.24C208.561 234.304 207.349 233.836 205.765 233.836C204.637 233.836 203.641 234.076 202.777 234.556C201.913 235.036 201.241 235.744 200.761 236.68C200.281 237.616 200.041 238.78 200.041 240.172V250H196.585V230.92H199.897V235.996L199.357 234.7C199.957 233.452 200.881 232.48 202.129 231.784C203.377 231.088 204.829 230.74 206.485 230.74C208.309 230.74 209.881 231.196 211.201 232.108C212.521 232.996 213.385 234.352 213.793 236.176L212.389 235.6C212.965 234.136 213.973 232.96 215.413 232.072C216.853 231.184 218.533 230.74 220.453 230.74ZM240.096 250.216C238.512 250.216 237 250 235.56 249.568C234.144 249.136 233.028 248.608 232.212 247.984L233.652 245.248C234.468 245.8 235.476 246.268 236.676 246.652C237.876 247.036 239.1 247.228 240.348 247.228C241.956 247.228 243.108 247 243.804 246.544C244.524 246.088 244.884 245.452 244.884 244.636C244.884 244.036 244.668 243.568 244.236 243.232C243.804 242.896 243.228 242.644 242.508 242.476C241.812 242.308 241.032 242.164 240.168 242.044C239.304 241.9 238.44 241.732 237.576 241.54C236.712 241.324 235.92 241.036 235.2 240.676C234.48 240.292 233.904 239.776 233.472 239.128C233.04 238.456 232.824 237.568 232.824 236.464C232.824 235.312 233.148 234.304 233.796 233.44C234.444 232.576 235.356 231.916 236.532 231.46C237.732 230.98 239.148 230.74 240.78 230.74C242.028 230.74 243.288 230.896 244.56 231.208C245.856 231.496 246.912 231.916 247.728 232.468L246.252 235.204C245.388 234.628 244.488 234.232 243.552 234.016C242.616 233.8 241.68 233.692 240.744 233.692C239.232 233.692 238.104 233.944 237.36 234.448C236.616 234.928 236.244 235.552 236.244 236.32C236.244 236.968 236.46 237.472 236.892 237.832C237.348 238.168 237.924 238.432 238.62 238.624C239.34 238.816 240.132 238.984 240.996 239.128C241.86 239.248 242.724 239.416 243.588 239.632C244.452 239.824 245.232 240.1 245.928 240.46C246.648 240.82 247.224 241.324 247.656 241.972C248.112 242.62 248.34 243.484 248.34 244.564C248.34 245.716 248.004 246.712 247.332 247.552C246.66 248.392 245.712 249.052 244.488 249.532C243.264 249.988 241.8 250.216 240.096 250.216ZM268.879 250.216C266.959 250.216 265.471 249.7 264.415 248.668C263.359 247.636 262.831 246.16 262.831 244.24V226.744H266.287V244.096C266.287 245.128 266.539 245.92 267.043 246.472C267.571 247.024 268.315 247.3 269.275 247.3C270.355 247.3 271.255 247 271.975 246.4L273.055 248.884C272.527 249.34 271.891 249.676 271.147 249.892C270.427 250.108 269.671 250.216 268.879 250.216ZM259.591 233.764V230.92H271.759V233.764H259.591ZM287.421 230.74C288.981 230.74 290.349 231.04 291.525 231.64C292.725 232.24 293.661 233.152 294.333 234.376C295.005 235.6 295.341 237.148 295.341 239.02V250H291.885V239.416C291.885 237.568 291.429 236.176 290.517 235.24C289.629 234.304 288.369 233.836 286.737 233.836C285.513 233.836 284.445 234.076 283.533 234.556C282.621 235.036 281.913 235.744 281.409 236.68C280.929 237.616 280.689 238.78 280.689 240.172V250H277.233V223.288H280.689V236.068L280.005 234.7C280.629 233.452 281.589 232.48 282.885 231.784C284.181 231.088 285.693 230.74 287.421 230.74ZM313.581 250V245.968L313.401 245.212V238.336C313.401 236.872 312.969 235.744 312.105 234.952C311.265 234.136 309.993 233.728 308.289 233.728C307.161 233.728 306.057 233.92 304.977 234.304C303.897 234.664 302.985 235.156 302.241 235.78L300.801 233.188C301.785 232.396 302.961 231.796 304.329 231.388C305.721 230.956 307.173 230.74 308.685 230.74C311.301 230.74 313.317 231.376 314.733 232.648C316.149 233.92 316.857 235.864 316.857 238.48V250H313.581ZM307.317 250.216C305.901 250.216 304.653 249.976 303.573 249.496C302.517 249.016 301.701 248.356 301.125 247.516C300.549 246.652 300.261 245.68 300.261 244.6C300.261 243.568 300.501 242.632 300.981 241.792C301.485 240.952 302.289 240.28 303.393 239.776C304.521 239.272 306.033 239.02 307.929 239.02H313.977V241.504H308.073C306.345 241.504 305.181 241.792 304.581 242.368C303.981 242.944 303.681 243.64 303.681 244.456C303.681 245.392 304.053 246.148 304.797 246.724C305.541 247.276 306.573 247.552 307.893 247.552C309.189 247.552 310.317 247.264 311.277 246.688C312.261 246.112 312.969 245.272 313.401 244.168L314.085 246.544C313.629 247.672 312.825 248.572 311.673 249.244C310.521 249.892 309.069 250.216 307.317 250.216ZM329.805 250.216C327.885 250.216 326.397 249.7 325.341 248.668C324.285 247.636 323.757 246.16 323.757 244.24V226.744H327.213V244.096C327.213 245.128 327.465 245.92 327.969 246.472C328.497 247.024 329.241 247.3 330.201 247.3C331.281 247.3 332.181 247 332.901 246.4L333.981 248.884C333.453 249.34 332.817 249.676 332.073 249.892C331.353 250.108 330.597 250.216 329.805 250.216ZM320.517 233.764V230.92H332.685V233.764H320.517ZM191.024 300V274.8H200.852C203.06 274.8 204.944 275.148 206.504 275.844C208.064 276.54 209.264 277.548 210.104 278.868C210.944 280.188 211.364 281.76 211.364 283.584C211.364 285.408 210.944 286.98 210.104 288.3C209.264 289.596 208.064 290.592 206.504 291.288C204.944 291.984 203.06 292.332 200.852 292.332H193.004L194.624 290.676V300H191.024ZM207.872 300L201.464 290.856H205.316L211.796 300H207.872ZM194.624 291.036L193.004 289.272H200.744C203.048 289.272 204.788 288.78 205.964 287.796C207.164 286.788 207.764 285.384 207.764 283.584C207.764 281.784 207.164 280.392 205.964 279.408C204.788 278.424 203.048 277.932 200.744 277.932H193.004L194.624 276.132V291.036ZM224.848 300.216C222.928 300.216 221.224 299.796 219.736 298.956C218.248 298.116 217.072 296.964 216.208 295.5C215.344 294.012 214.912 292.332 214.912 290.46C214.912 288.564 215.344 286.884 216.208 285.42C217.072 283.956 218.248 282.816 219.736 282C221.224 281.16 222.928 280.74 224.848 280.74C226.744 280.74 228.436 281.16 229.924 282C231.436 282.816 232.612 283.956 233.452 285.42C234.316 286.86 234.748 288.54 234.748 290.46C234.748 292.356 234.316 294.036 233.452 295.5C232.612 296.964 231.436 298.116 229.924 298.956C228.436 299.796 226.744 300.216 224.848 300.216ZM224.848 297.192C226.072 297.192 227.164 296.916 228.124 296.364C229.108 295.812 229.876 295.032 230.428 294.024C230.98 292.992 231.256 291.804 231.256 290.46C231.256 289.092 230.98 287.916 230.428 286.932C229.876 285.924 229.108 285.144 228.124 284.592C227.164 284.04 226.072 283.764 224.848 283.764C223.624 283.764 222.532 284.04 221.572 284.592C220.612 285.144 219.844 285.924 219.268 286.932C218.692 287.916 218.404 289.092 218.404 290.46C218.404 291.804 218.692 292.992 219.268 294.024C219.844 295.032 220.612 295.812 221.572 296.364C222.532 296.916 223.624 297.192 224.848 297.192ZM247.844 300.216C245.9 300.216 244.16 299.796 242.624 298.956C241.112 298.116 239.924 296.964 239.06 295.5C238.196 294.036 237.764 292.356 237.764 290.46C237.764 288.564 238.196 286.884 239.06 285.42C239.924 283.956 241.112 282.816 242.624 282C244.16 281.16 245.9 280.74 247.844 280.74C249.572 280.74 251.108 281.088 252.452 281.784C253.82 282.456 254.876 283.464 255.62 284.808L252.992 286.5C252.368 285.564 251.6 284.88 250.688 284.448C249.8 283.992 248.84 283.764 247.808 283.764C246.56 283.764 245.444 284.04 244.46 284.592C243.476 285.144 242.696 285.924 242.12 286.932C241.544 287.916 241.256 289.092 241.256 290.46C241.256 291.828 241.544 293.016 242.12 294.024C242.696 295.032 243.476 295.812 244.46 296.364C245.444 296.916 246.56 297.192 247.808 297.192C248.84 297.192 249.8 296.976 250.688 296.544C251.6 296.088 252.368 295.392 252.992 294.456L255.62 296.112C254.876 297.432 253.82 298.452 252.452 299.172C251.108 299.868 249.572 300.216 247.844 300.216ZM262.656 295.392L262.728 290.964L273.708 280.92H277.884L269.46 289.2L267.588 290.784L262.656 295.392ZM259.848 300V273.288H263.304V300H259.848ZM274.428 300L266.94 290.712L269.172 287.94L278.676 300H274.428Z" fill="#0198B6"/>
<defs>
<linearGradient id="paint0_linear_317_1083" x1="0" y1="0" x2="508.579" y2="52.3501" gradientUnits="userSpaceOnUse">
<stop stop-color="#70C0B2"/>
<stop offset="0.293999" stop-color="#0198B6"/>
<stop offset="0.817393" stop-color="#007289"/>
</linearGradient>
</defs>
</svg>
