<svg width="466" height="466" viewBox="0 0 466 466" fill="none" xmlns="http://www.w3.org/2000/svg">
<circle opacity="0.5" cx="233" cy="233" r="217" stroke="#2D2D2D" stroke-width="32"/>
<g filter="url(#filter0_d_261_149)">
<path d="M156.043 200V174.8H168.355C171.523 174.8 173.899 175.4 175.483 176.6C177.091 177.8 177.895 179.384 177.895 181.352C177.895 182.672 177.571 183.824 176.923 184.808C176.275 185.768 175.387 186.512 174.259 187.04C173.131 187.568 171.835 187.832 170.371 187.832L171.055 186.356C172.639 186.356 174.043 186.62 175.267 187.148C176.491 187.652 177.439 188.408 178.111 189.416C178.807 190.424 179.155 191.66 179.155 193.124C179.155 195.284 178.303 196.976 176.599 198.2C174.895 199.4 172.387 200 169.075 200H156.043ZM161.839 195.608H168.643C170.155 195.608 171.295 195.368 172.063 194.888C172.855 194.384 173.251 193.592 173.251 192.512C173.251 191.456 172.855 190.676 172.063 190.172C171.295 189.644 170.155 189.38 168.643 189.38H161.407V185.132H167.635C169.051 185.132 170.131 184.892 170.875 184.412C171.643 183.908 172.027 183.152 172.027 182.144C172.027 181.16 171.643 180.428 170.875 179.948C170.131 179.444 169.051 179.192 167.635 179.192H161.839V195.608ZM191.346 200.288C189.738 200.288 188.298 199.976 187.026 199.352C185.778 198.728 184.806 197.78 184.11 196.508C183.414 195.212 183.066 193.568 183.066 191.576V180.632H188.682V190.748C188.682 192.356 189.018 193.544 189.69 194.312C190.386 195.056 191.358 195.428 192.606 195.428C193.47 195.428 194.238 195.248 194.91 194.888C195.582 194.504 196.11 193.928 196.494 193.16C196.878 192.368 197.07 191.384 197.07 190.208V180.632H202.686V200H197.358V194.672L198.33 196.22C197.682 197.564 196.722 198.584 195.45 199.28C194.202 199.952 192.834 200.288 191.346 200.288ZM207.889 200V180.632H213.505V200H207.889ZM210.697 177.932C209.665 177.932 208.825 177.632 208.177 177.032C207.529 176.432 207.205 175.688 207.205 174.8C207.205 173.912 207.529 173.168 208.177 172.568C208.825 171.968 209.665 171.668 210.697 171.668C211.729 171.668 212.569 171.956 213.217 172.532C213.865 173.084 214.189 173.804 214.189 174.692C214.189 175.628 213.865 176.408 213.217 177.032C212.593 177.632 211.753 177.932 210.697 177.932ZM218.717 200V173.288H224.333V200H218.717ZM237.861 200.288C236.037 200.288 234.393 199.88 232.929 199.064C231.465 198.224 230.301 197.06 229.437 195.572C228.597 194.084 228.177 192.332 228.177 190.316C228.177 188.276 228.597 186.512 229.437 185.024C230.301 183.536 231.465 182.384 232.929 181.568C234.393 180.752 236.037 180.344 237.861 180.344C239.493 180.344 240.921 180.704 242.145 181.424C243.369 182.144 244.317 183.236 244.989 184.7C245.661 186.164 245.997 188.036 245.997 190.316C245.997 192.572 245.673 194.444 245.025 195.932C244.377 197.396 243.441 198.488 242.217 199.208C241.017 199.928 239.565 200.288 237.861 200.288ZM238.833 195.68C239.745 195.68 240.573 195.464 241.317 195.032C242.061 194.6 242.649 193.988 243.081 193.196C243.537 192.38 243.765 191.42 243.765 190.316C243.765 189.188 243.537 188.228 243.081 187.436C242.649 186.644 242.061 186.032 241.317 185.6C240.573 185.168 239.745 184.952 238.833 184.952C237.897 184.952 237.057 185.168 236.313 185.6C235.569 186.032 234.969 186.644 234.513 187.436C234.081 188.228 233.865 189.188 233.865 190.316C233.865 191.42 234.081 192.38 234.513 193.196C234.969 193.988 235.569 194.6 236.313 195.032C237.057 195.464 237.897 195.68 238.833 195.68ZM243.909 200V196.04L244.017 190.28L243.657 184.556V173.288H249.273V200H243.909ZM254.471 200V180.632H260.087V200H254.471ZM257.279 177.932C256.247 177.932 255.407 177.632 254.759 177.032C254.111 176.432 253.787 175.688 253.787 174.8C253.787 173.912 254.111 173.168 254.759 172.568C255.407 171.968 256.247 171.668 257.279 171.668C258.311 171.668 259.151 171.956 259.799 172.532C260.447 173.084 260.771 173.804 260.771 174.692C260.771 175.628 260.447 176.408 259.799 177.032C259.175 177.632 258.335 177.932 257.279 177.932ZM277.071 180.344C278.607 180.344 279.975 180.656 281.175 181.28C282.399 181.88 283.359 182.816 284.055 184.088C284.751 185.336 285.099 186.944 285.099 188.912V200H279.483V189.776C279.483 188.216 279.135 187.064 278.439 186.32C277.767 185.576 276.807 185.204 275.559 185.204C274.671 185.204 273.867 185.396 273.147 185.78C272.451 186.14 271.899 186.704 271.491 187.472C271.107 188.24 270.915 189.224 270.915 190.424V200H265.299V180.632H270.663V185.996L269.655 184.376C270.351 183.08 271.347 182.084 272.643 181.388C273.939 180.692 275.415 180.344 277.071 180.344ZM299.438 207.272C297.614 207.272 295.85 207.044 294.146 206.588C292.466 206.156 291.062 205.496 289.934 204.608L292.166 200.576C292.982 201.248 294.014 201.776 295.262 202.16C296.534 202.568 297.782 202.772 299.006 202.772C300.998 202.772 302.438 202.328 303.326 201.44C304.238 200.552 304.694 199.232 304.694 197.48V194.564L305.054 189.704L304.982 184.808V180.632H310.31V196.76C310.31 200.36 309.374 203.012 307.502 204.716C305.63 206.42 302.942 207.272 299.438 207.272ZM298.574 199.064C296.774 199.064 295.142 198.68 293.678 197.912C292.238 197.12 291.074 196.028 290.186 194.636C289.322 193.22 288.89 191.576 288.89 189.704C288.89 187.808 289.322 186.164 290.186 184.772C291.074 183.356 292.238 182.264 293.678 181.496C295.142 180.728 296.774 180.344 298.574 180.344C300.206 180.344 301.646 180.68 302.894 181.352C304.142 182 305.114 183.02 305.81 184.412C306.506 185.78 306.854 187.544 306.854 189.704C306.854 191.84 306.506 193.604 305.81 194.996C305.114 196.364 304.142 197.384 302.894 198.056C301.646 198.728 300.206 199.064 298.574 199.064ZM299.69 194.456C300.674 194.456 301.55 194.264 302.318 193.88C303.086 193.472 303.686 192.908 304.118 192.188C304.55 191.468 304.766 190.64 304.766 189.704C304.766 188.744 304.55 187.916 304.118 187.22C303.686 186.5 303.086 185.948 302.318 185.564C301.55 185.156 300.674 184.952 299.69 184.952C298.706 184.952 297.83 185.156 297.062 185.564C296.294 185.948 295.682 186.5 295.226 187.22C294.794 187.916 294.578 188.744 294.578 189.704C294.578 190.64 294.794 191.468 295.226 192.188C295.682 192.908 296.294 193.472 297.062 193.88C297.83 194.264 298.706 194.456 299.69 194.456ZM136.126 250V229.552H128.062V224.8H150.022V229.552H141.958V250H136.126ZM160.407 250.288C158.199 250.288 156.255 249.856 154.575 248.992C152.919 248.128 151.635 246.952 150.723 245.464C149.811 243.952 149.355 242.236 149.355 240.316C149.355 238.372 149.799 236.656 150.687 235.168C151.599 233.656 152.835 232.48 154.395 231.64C155.955 230.776 157.719 230.344 159.687 230.344C161.583 230.344 163.287 230.752 164.799 231.568C166.335 232.36 167.547 233.512 168.435 235.024C169.323 236.512 169.767 238.3 169.767 240.388C169.767 240.604 169.755 240.856 169.731 241.144C169.707 241.408 169.683 241.66 169.659 241.9H153.927V238.624H166.707L164.547 239.596C164.547 238.588 164.343 237.712 163.935 236.968C163.527 236.224 162.963 235.648 162.243 235.24C161.523 234.808 160.683 234.592 159.723 234.592C158.763 234.592 157.911 234.808 157.167 235.24C156.447 235.648 155.883 236.236 155.475 237.004C155.067 237.748 154.863 238.636 154.863 239.668V240.532C154.863 241.588 155.091 242.524 155.547 243.34C156.027 244.132 156.687 244.744 157.527 245.176C158.391 245.584 159.399 245.788 160.551 245.788C161.583 245.788 162.483 245.632 163.251 245.32C164.043 245.008 164.763 244.54 165.411 243.916L168.399 247.156C167.511 248.164 166.395 248.944 165.051 249.496C163.707 250.024 162.159 250.288 160.407 250.288ZM184.859 250V246.22L184.499 245.392V238.624C184.499 237.424 184.127 236.488 183.383 235.816C182.663 235.144 181.547 234.808 180.035 234.808C179.003 234.808 177.983 234.976 176.975 235.312C175.991 235.624 175.151 236.056 174.455 236.608L172.439 232.684C173.495 231.94 174.767 231.364 176.255 230.956C177.743 230.548 179.255 230.344 180.791 230.344C183.743 230.344 186.035 231.04 187.667 232.432C189.299 233.824 190.115 235.996 190.115 238.948V250H184.859ZM178.955 250.288C177.443 250.288 176.147 250.036 175.067 249.532C173.987 249.004 173.159 248.296 172.583 247.408C172.007 246.52 171.719 245.524 171.719 244.42C171.719 243.268 171.995 242.26 172.547 241.396C173.123 240.532 174.023 239.86 175.247 239.38C176.471 238.876 178.067 238.624 180.035 238.624H185.183V241.9H180.647C179.327 241.9 178.415 242.116 177.911 242.548C177.431 242.98 177.191 243.52 177.191 244.168C177.191 244.888 177.467 245.464 178.019 245.896C178.595 246.304 179.375 246.508 180.359 246.508C181.295 246.508 182.135 246.292 182.879 245.86C183.623 245.404 184.163 244.744 184.499 243.88L185.363 246.472C184.955 247.72 184.211 248.668 183.131 249.316C182.051 249.964 180.659 250.288 178.955 250.288ZM220.001 230.344C221.537 230.344 222.893 230.656 224.069 231.28C225.269 231.88 226.205 232.816 226.877 234.088C227.573 235.336 227.921 236.944 227.921 238.912V250H222.305V239.776C222.305 238.216 221.981 237.064 221.333 236.32C220.685 235.576 219.773 235.204 218.597 235.204C217.781 235.204 217.049 235.396 216.401 235.78C215.753 236.14 215.249 236.692 214.889 237.436C214.529 238.18 214.349 239.128 214.349 240.28V250H208.733V239.776C208.733 238.216 208.409 237.064 207.761 236.32C207.137 235.576 206.237 235.204 205.061 235.204C204.245 235.204 203.513 235.396 202.865 235.78C202.217 236.14 201.713 236.692 201.353 237.436C200.993 238.18 200.813 239.128 200.813 240.28V250H195.197V230.632H200.561V235.924L199.553 234.376C200.225 233.056 201.173 232.06 202.397 231.388C203.645 230.692 205.061 230.344 206.645 230.344C208.421 230.344 209.969 230.8 211.289 231.712C212.633 232.6 213.521 233.968 213.953 235.816L211.973 235.276C212.621 233.764 213.653 232.564 215.069 231.676C216.509 230.788 218.153 230.344 220.001 230.344ZM239.471 250.288C237.815 250.288 236.219 250.096 234.683 249.712C233.171 249.304 231.971 248.8 231.083 248.2L232.955 244.168C233.843 244.72 234.887 245.176 236.087 245.536C237.311 245.872 238.511 246.04 239.687 246.04C240.983 246.04 241.895 245.884 242.423 245.572C242.975 245.26 243.251 244.828 243.251 244.276C243.251 243.82 243.035 243.484 242.603 243.268C242.195 243.028 241.643 242.848 240.947 242.728C240.251 242.608 239.483 242.488 238.643 242.368C237.827 242.248 236.999 242.092 236.159 241.9C235.319 241.684 234.551 241.372 233.855 240.964C233.159 240.556 232.595 240.004 232.163 239.308C231.755 238.612 231.551 237.712 231.551 236.608C231.551 235.384 231.899 234.304 232.595 233.368C233.315 232.432 234.347 231.7 235.691 231.172C237.035 230.62 238.643 230.344 240.515 230.344C241.835 230.344 243.179 230.488 244.547 230.776C245.915 231.064 247.055 231.484 247.967 232.036L246.095 236.032C245.159 235.48 244.211 235.108 243.251 234.916C242.315 234.7 241.403 234.592 240.515 234.592C239.267 234.592 238.355 234.76 237.779 235.096C237.203 235.432 236.915 235.864 236.915 236.392C236.915 236.872 237.119 237.232 237.527 237.472C237.959 237.712 238.523 237.904 239.219 238.048C239.915 238.192 240.671 238.324 241.487 238.444C242.327 238.54 243.167 238.696 244.007 238.912C244.847 239.128 245.603 239.44 246.275 239.848C246.971 240.232 247.535 240.772 247.967 241.468C248.399 242.14 248.615 243.028 248.615 244.132C248.615 245.332 248.255 246.4 247.535 247.336C246.815 248.248 245.771 248.968 244.403 249.496C243.059 250.024 241.415 250.288 239.471 250.288ZM270.196 250.288C267.916 250.288 266.14 249.712 264.868 248.56C263.596 247.384 262.96 245.644 262.96 243.34V226.348H268.576V243.268C268.576 244.084 268.792 244.72 269.224 245.176C269.656 245.608 270.244 245.824 270.988 245.824C271.876 245.824 272.632 245.584 273.256 245.104L274.768 249.064C274.192 249.472 273.496 249.784 272.68 250C271.888 250.192 271.06 250.288 270.196 250.288ZM259.972 235.384V231.064H273.4V235.384H259.972ZM289.692 230.344C291.228 230.344 292.596 230.656 293.796 231.28C295.02 231.88 295.98 232.816 296.676 234.088C297.372 235.336 297.72 236.944 297.72 238.912V250H292.104V239.776C292.104 238.216 291.756 237.064 291.06 236.32C290.388 235.576 289.428 235.204 288.18 235.204C287.292 235.204 286.488 235.396 285.768 235.78C285.072 236.14 284.52 236.704 284.112 237.472C283.728 238.24 283.536 239.224 283.536 240.424V250H277.92V223.288H283.536V235.996L282.276 234.376C282.972 233.08 283.968 232.084 285.264 231.388C286.56 230.692 288.036 230.344 289.692 230.344ZM314.691 250V246.22L314.331 245.392V238.624C314.331 237.424 313.959 236.488 313.215 235.816C312.495 235.144 311.379 234.808 309.867 234.808C308.835 234.808 307.815 234.976 306.807 235.312C305.823 235.624 304.983 236.056 304.287 236.608L302.271 232.684C303.327 231.94 304.599 231.364 306.087 230.956C307.575 230.548 309.087 230.344 310.623 230.344C313.575 230.344 315.867 231.04 317.499 232.432C319.131 233.824 319.947 235.996 319.947 238.948V250H314.691ZM308.787 250.288C307.275 250.288 305.979 250.036 304.899 249.532C303.819 249.004 302.991 248.296 302.415 247.408C301.839 246.52 301.551 245.524 301.551 244.42C301.551 243.268 301.827 242.26 302.379 241.396C302.955 240.532 303.855 239.86 305.079 239.38C306.303 238.876 307.899 238.624 309.867 238.624H315.015V241.9H310.479C309.159 241.9 308.247 242.116 307.743 242.548C307.263 242.98 307.023 243.52 307.023 244.168C307.023 244.888 307.299 245.464 307.851 245.896C308.427 246.304 309.207 246.508 310.191 246.508C311.127 246.508 311.967 246.292 312.711 245.86C313.455 245.404 313.995 244.744 314.331 243.88L315.195 246.472C314.787 247.72 314.043 248.668 312.963 249.316C311.883 249.964 310.491 250.288 308.787 250.288ZM332.95 250.288C330.67 250.288 328.894 249.712 327.622 248.56C326.35 247.384 325.714 245.644 325.714 243.34V226.348H331.33V243.268C331.33 244.084 331.546 244.72 331.978 245.176C332.41 245.608 332.998 245.824 333.742 245.824C334.63 245.824 335.386 245.584 336.01 245.104L337.522 249.064C336.946 249.472 336.25 249.784 335.434 250C334.642 250.192 333.814 250.288 332.95 250.288ZM322.726 235.384V231.064H336.154V235.384H322.726ZM188.492 300V274.8H199.4C201.656 274.8 203.6 275.172 205.232 275.916C206.864 276.636 208.124 277.68 209.012 279.048C209.9 280.416 210.344 282.048 210.344 283.944C210.344 285.816 209.9 287.436 209.012 288.804C208.124 290.148 206.864 291.18 205.232 291.9C203.6 292.62 201.656 292.98 199.4 292.98H191.732L194.324 290.424V300H188.492ZM204.512 300L198.212 290.856H204.44L210.812 300H204.512ZM194.324 291.072L191.732 288.336H199.076C200.876 288.336 202.22 287.952 203.108 287.184C203.996 286.392 204.44 285.312 204.44 283.944C204.44 282.552 203.996 281.472 203.108 280.704C202.22 279.936 200.876 279.552 199.076 279.552H191.732L194.324 276.78V291.072ZM223.785 300.288C221.721 300.288 219.885 299.856 218.277 298.992C216.693 298.128 215.433 296.952 214.497 295.464C213.585 293.952 213.129 292.236 213.129 290.316C213.129 288.372 213.585 286.656 214.497 285.168C215.433 283.656 216.693 282.48 218.277 281.64C219.885 280.776 221.721 280.344 223.785 280.344C225.825 280.344 227.649 280.776 229.257 281.64C230.865 282.48 232.125 283.644 233.037 285.132C233.949 286.62 234.405 288.348 234.405 290.316C234.405 292.236 233.949 293.952 233.037 295.464C232.125 296.952 230.865 298.128 229.257 298.992C227.649 299.856 225.825 300.288 223.785 300.288ZM223.785 295.68C224.721 295.68 225.561 295.464 226.305 295.032C227.049 294.6 227.637 293.988 228.069 293.196C228.501 292.38 228.717 291.42 228.717 290.316C228.717 289.188 228.501 288.228 228.069 287.436C227.637 286.644 227.049 286.032 226.305 285.6C225.561 285.168 224.721 284.952 223.785 284.952C222.849 284.952 222.009 285.168 221.265 285.6C220.521 286.032 219.921 286.644 219.465 287.436C219.033 288.228 218.817 289.188 218.817 290.316C218.817 291.42 219.033 292.38 219.465 293.196C219.921 293.988 220.521 294.6 221.265 295.032C222.009 295.464 222.849 295.68 223.785 295.68ZM247.518 300.288C245.43 300.288 243.57 299.868 241.938 299.028C240.306 298.164 239.022 296.976 238.086 295.464C237.174 293.952 236.718 292.236 236.718 290.316C236.718 288.372 237.174 286.656 238.086 285.168C239.022 283.656 240.306 282.48 241.938 281.64C243.57 280.776 245.43 280.344 247.518 280.344C249.558 280.344 251.334 280.776 252.846 281.64C254.358 282.48 255.474 283.692 256.194 285.276L251.838 287.616C251.334 286.704 250.698 286.032 249.93 285.6C249.186 285.168 248.37 284.952 247.482 284.952C246.522 284.952 245.658 285.168 244.89 285.6C244.122 286.032 243.51 286.644 243.054 287.436C242.622 288.228 242.406 289.188 242.406 290.316C242.406 291.444 242.622 292.404 243.054 293.196C243.51 293.988 244.122 294.6 244.89 295.032C245.658 295.464 246.522 295.68 247.482 295.68C248.37 295.68 249.186 295.476 249.93 295.068C250.698 294.636 251.334 293.952 251.838 293.016L256.194 295.392C255.474 296.952 254.358 298.164 252.846 299.028C251.334 299.868 249.558 300.288 247.518 300.288ZM263.966 296.04L264.11 289.2L273.146 280.632H279.842L271.166 289.452L268.25 291.828L263.966 296.04ZM259.322 300V273.288H264.938V300H259.322ZM273.758 300L267.206 291.864L270.734 287.508L280.562 300H273.758Z" fill="#0198B6"/>
</g>
<defs>
<filter id="filter0_d_261_149" x="124.062" y="171.668" width="217.459" height="136.62" filterUnits="userSpaceOnUse" color-interpolation-filters="sRGB">
<feFlood flood-opacity="0" result="BackgroundImageFix"/>
<feColorMatrix in="SourceAlpha" type="matrix" values="0 0 0 0 0 0 0 0 0 0 0 0 0 0 0 0 0 0 127 0" result="hardAlpha"/>
<feOffset dy="4"/>
<feGaussianBlur stdDeviation="2"/>
<feComposite in2="hardAlpha" operator="out"/>
<feColorMatrix type="matrix" values="0 0 0 0 0 0 0 0 0 0 0 0 0 0 0 0 0 0 0.25 0"/>
<feBlend mode="normal" in2="BackgroundImageFix" result="effect1_dropShadow_261_149"/>
<feBlend mode="normal" in="SourceGraphic" in2="effect1_dropShadow_261_149" result="shape"/>
</filter>
</defs>
</svg>
