<svg width="469" height="281" viewBox="0 0 469 281" fill="none" xmlns="http://www.w3.org/2000/svg">
<path opacity="0.6" d="M328.5 0.499988C251.18 0.499981 188.5 63.1801 188.5 140.5C188.5 217.82 251.18 280.5 328.5 280.5C405.82 280.5 468.5 217.82 468.5 140.5C468.5 63.1801 405.82 0.499995 328.5 0.499988Z" fill="url(#paint0_linear_292_319)"/>
<path opacity="0.6" d="M0.499994 140.5C0.499991 217.82 63.1801 280.5 140.5 280.5C217.82 280.5 280.5 217.82 280.5 140.5C280.5 63.1801 217.82 0.499997 140.5 0.499994C63.1801 0.499991 0.499997 63.1801 0.499994 140.5Z" fill="url(#paint1_linear_292_319)"/>
<g clip-path="url(#clip0_292_319)">
<path d="M247.456 150.354C248.222 149.738 248.605 149.43 248.605 149.43C248.605 149.43 248.588 149.413 248.571 149.396C248.537 149.362 248.504 149.329 248.47 149.278C248.385 149.178 248.25 149.043 248.081 148.875C247.743 148.556 247.27 148.135 246.628 147.698C245.361 146.824 243.502 145.883 241.103 145.681L240.833 148.623C242.59 148.774 243.975 149.463 244.938 150.136C245.412 150.472 245.783 150.791 246.02 151.01C246.138 151.127 246.223 151.211 246.273 151.279C246.307 151.312 246.324 151.329 246.324 151.346C246.324 151.346 246.707 151.038 247.473 150.421L247.456 150.354ZM237.977 170.205C242.742 170.121 247.236 167.18 249.636 163.23C252.086 159.195 252.424 153.934 248.588 149.413L246.324 151.312C249.23 154.724 249.01 158.59 247.101 161.717C245.158 164.927 241.525 167.196 237.926 167.264L237.977 170.205ZM224.51 157.968C224.51 162.759 226.96 165.885 229.85 167.751C232.672 169.566 235.949 170.239 237.977 170.205L237.926 167.264C236.439 167.297 233.753 166.776 231.472 165.297C229.258 163.868 227.484 161.582 227.484 157.985H224.527L224.51 157.968ZM241.086 145.631C240.275 145.564 239.548 146.152 239.481 146.959C239.413 147.766 240.005 148.488 240.816 148.556L241.086 145.614V145.631ZM247.473 150.354L246.324 151.279C246.324 151.279 246.324 151.279 246.341 151.295L247.473 150.337V150.354ZM227.484 157.968C227.484 157.162 226.825 156.489 225.997 156.489C225.169 156.489 224.51 157.145 224.51 157.968H227.467H227.484Z" fill="white"/>
<path d="M227.467 158.355V112.787H224.51V158.338H227.467V158.355ZM227.467 112.804C227.467 111.997 226.808 111.325 225.98 111.325C225.152 111.325 224.493 111.98 224.493 112.804H227.45H227.467ZM224.51 158.355C224.51 159.162 225.169 159.834 225.997 159.834C226.825 159.834 227.484 159.178 227.484 158.355H224.527H224.51Z" fill="white"/>
<path d="M255.414 146.538C256.259 146.023 256.681 145.765 256.681 145.765C256.681 145.765 256.681 145.748 256.665 145.732C256.665 145.698 256.631 145.664 256.597 145.631C256.546 145.547 256.462 145.429 256.36 145.278C256.141 144.992 255.837 144.589 255.414 144.118C254.586 143.177 253.319 141.95 251.613 140.807C248.149 138.47 242.877 136.437 235.561 137.395L235.949 140.319C242.455 139.462 247.017 141.277 249.94 143.244C251.41 144.236 252.491 145.278 253.184 146.068C253.539 146.454 253.792 146.791 253.944 147.009C254.029 147.127 254.079 147.211 254.113 147.261C254.13 147.295 254.147 147.312 254.147 147.312C254.147 147.312 254.569 147.054 255.414 146.538ZM237.791 178.727C245.851 178.424 252.93 174.104 256.817 167.885C260.737 161.633 261.413 153.497 256.681 145.765L254.147 147.295C258.27 154.035 257.661 160.977 254.299 166.322C250.92 171.718 244.736 175.516 237.673 175.768L237.791 178.71V178.727ZM216.197 158.052C215.876 170.793 225.693 179.181 237.791 178.727L237.69 175.785C227.129 176.172 218.901 168.995 219.171 158.12L216.214 158.052H216.197ZM235.527 137.378C234.716 137.479 234.141 138.218 234.26 139.025C234.361 139.832 235.105 140.403 235.916 140.286L235.527 137.361V137.378ZM219.154 158.136C219.171 157.33 218.529 156.64 217.718 156.624C216.907 156.607 216.214 157.245 216.197 158.052L219.154 158.12V158.136Z" fill="white"/>
<path d="M216.924 100.702L212.244 103.391L213.73 105.946L218.428 103.257L216.924 100.702ZM219.137 158.355V101.979H216.18V158.355H219.137ZM212.244 103.391C211.534 103.794 211.297 104.702 211.703 105.408C212.108 106.114 213.021 106.349 213.73 105.946L212.244 103.391ZM217.667 101.979H219.154C219.154 101.458 218.867 100.971 218.411 100.702C217.955 100.433 217.38 100.433 216.924 100.702L217.667 101.979ZM216.18 158.355C216.18 159.162 216.839 159.834 217.667 159.834C218.495 159.834 219.154 159.179 219.154 158.355H216.197H216.18Z" fill="white"/>
<path d="M216.839 103.189L221.655 106.416L223.311 103.979L218.495 100.752L216.839 103.189ZM221.655 106.416C222.331 106.87 223.26 106.685 223.716 106.013C224.172 105.341 223.987 104.416 223.311 103.962L221.655 106.4V106.416ZM218.495 100.752C217.819 100.298 216.89 100.483 216.434 101.155C215.978 101.828 216.163 102.752 216.839 103.206L218.495 100.769V100.752Z" fill="white"/>
<path d="M237.876 160.271C239.462 160.271 240.748 158.992 240.748 157.413C240.748 155.835 239.462 154.556 237.876 154.556C236.289 154.556 235.003 155.835 235.003 157.413C235.003 158.992 236.289 160.271 237.876 160.271Z" fill="#F07F61"/>
</g>
<path d="M293.078 151.5V140.3H298.55C299.958 140.3 301.014 140.567 301.718 141.1C302.433 141.633 302.79 142.337 302.79 143.212C302.79 143.799 302.646 144.311 302.358 144.748C302.07 145.175 301.675 145.505 301.174 145.74C300.673 145.975 300.097 146.092 299.446 146.092L299.75 145.436C300.454 145.436 301.078 145.553 301.622 145.788C302.166 146.012 302.587 146.348 302.886 146.796C303.195 147.244 303.35 147.793 303.35 148.444C303.35 149.404 302.971 150.156 302.214 150.7C301.457 151.233 300.342 151.5 298.87 151.5H293.078ZM295.654 149.548H298.678C299.35 149.548 299.857 149.441 300.198 149.228C300.55 149.004 300.726 148.652 300.726 148.172C300.726 147.703 300.55 147.356 300.198 147.132C299.857 146.897 299.35 146.78 298.678 146.78H295.462V144.892H298.23C298.859 144.892 299.339 144.785 299.67 144.572C300.011 144.348 300.182 144.012 300.182 143.564C300.182 143.127 300.011 142.801 299.67 142.588C299.339 142.364 298.859 142.252 298.23 142.252H295.654V149.548ZM308.768 151.628C308.054 151.628 307.414 151.489 306.848 151.212C306.294 150.935 305.862 150.513 305.552 149.948C305.243 149.372 305.088 148.641 305.088 147.756V142.892H307.584V147.388C307.584 148.103 307.734 148.631 308.032 148.972C308.342 149.303 308.774 149.468 309.328 149.468C309.712 149.468 310.054 149.388 310.352 149.228C310.651 149.057 310.886 148.801 311.056 148.46C311.227 148.108 311.312 147.671 311.312 147.148V142.892H313.808V151.5H311.44V149.132L311.872 149.82C311.584 150.417 311.158 150.871 310.592 151.18C310.038 151.479 309.43 151.628 308.768 151.628ZM319.017 151.628C318.281 151.628 317.571 151.543 316.889 151.372C316.217 151.191 315.683 150.967 315.289 150.7L316.121 148.908C316.515 149.153 316.979 149.356 317.513 149.516C318.057 149.665 318.59 149.74 319.113 149.74C319.689 149.74 320.094 149.671 320.329 149.532C320.574 149.393 320.697 149.201 320.697 148.956C320.697 148.753 320.601 148.604 320.409 148.508C320.227 148.401 319.982 148.321 319.673 148.268C319.363 148.215 319.022 148.161 318.649 148.108C318.286 148.055 317.918 147.985 317.545 147.9C317.171 147.804 316.83 147.665 316.521 147.484C316.211 147.303 315.961 147.057 315.769 146.748C315.587 146.439 315.497 146.039 315.497 145.548C315.497 145.004 315.651 144.524 315.961 144.108C316.281 143.692 316.739 143.367 317.337 143.132C317.934 142.887 318.649 142.764 319.481 142.764C320.067 142.764 320.665 142.828 321.273 142.956C321.881 143.084 322.387 143.271 322.793 143.516L321.961 145.292C321.545 145.047 321.123 144.881 320.697 144.796C320.281 144.7 319.875 144.652 319.481 144.652C318.926 144.652 318.521 144.727 318.265 144.876C318.009 145.025 317.881 145.217 317.881 145.452C317.881 145.665 317.971 145.825 318.153 145.932C318.345 146.039 318.595 146.124 318.905 146.188C319.214 146.252 319.55 146.311 319.913 146.364C320.286 146.407 320.659 146.476 321.033 146.572C321.406 146.668 321.742 146.807 322.041 146.988C322.35 147.159 322.601 147.399 322.793 147.708C322.985 148.007 323.081 148.401 323.081 148.892C323.081 149.425 322.921 149.9 322.601 150.316C322.281 150.721 321.817 151.041 321.209 151.276C320.611 151.511 319.881 151.628 319.017 151.628ZM324.621 151.5V142.892H327.117V151.5H324.621ZM325.869 141.692C325.41 141.692 325.037 141.559 324.749 141.292C324.461 141.025 324.317 140.695 324.317 140.3C324.317 139.905 324.461 139.575 324.749 139.308C325.037 139.041 325.41 138.908 325.869 138.908C326.327 138.908 326.701 139.036 326.989 139.292C327.277 139.537 327.421 139.857 327.421 140.252C327.421 140.668 327.277 141.015 326.989 141.292C326.711 141.559 326.338 141.692 325.869 141.692ZM334.665 142.764C335.348 142.764 335.956 142.903 336.489 143.18C337.033 143.447 337.46 143.863 337.769 144.428C338.079 144.983 338.233 145.697 338.233 146.572V151.5H335.737V146.956C335.737 146.263 335.583 145.751 335.273 145.42C334.975 145.089 334.548 144.924 333.993 144.924C333.599 144.924 333.241 145.009 332.921 145.18C332.612 145.34 332.367 145.591 332.185 145.932C332.015 146.273 331.929 146.711 331.929 147.244V151.5H329.433V142.892H331.817V145.276L331.369 144.556C331.679 143.98 332.121 143.537 332.697 143.228C333.273 142.919 333.929 142.764 334.665 142.764ZM344.83 151.628C343.849 151.628 342.985 151.436 342.238 151.052C341.502 150.668 340.932 150.145 340.526 149.484C340.121 148.812 339.918 148.049 339.918 147.196C339.918 146.332 340.116 145.569 340.51 144.908C340.916 144.236 341.465 143.713 342.158 143.34C342.852 142.956 343.636 142.764 344.51 142.764C345.353 142.764 346.11 142.945 346.782 143.308C347.465 143.66 348.004 144.172 348.398 144.844C348.793 145.505 348.99 146.3 348.99 147.228C348.99 147.324 348.985 147.436 348.974 147.564C348.964 147.681 348.953 147.793 348.942 147.9H341.95V146.444H347.63L346.67 146.876C346.67 146.428 346.58 146.039 346.398 145.708C346.217 145.377 345.966 145.121 345.646 144.94C345.326 144.748 344.953 144.652 344.526 144.652C344.1 144.652 343.721 144.748 343.39 144.94C343.07 145.121 342.82 145.383 342.638 145.724C342.457 146.055 342.366 146.449 342.366 146.908V147.292C342.366 147.761 342.468 148.177 342.67 148.54C342.884 148.892 343.177 149.164 343.55 149.356C343.934 149.537 344.382 149.628 344.894 149.628C345.353 149.628 345.753 149.559 346.094 149.42C346.446 149.281 346.766 149.073 347.054 148.796L348.382 150.236C347.988 150.684 347.492 151.031 346.894 151.276C346.297 151.511 345.609 151.628 344.83 151.628ZM353.548 151.628C352.812 151.628 352.103 151.543 351.42 151.372C350.748 151.191 350.215 150.967 349.82 150.7L350.652 148.908C351.047 149.153 351.511 149.356 352.044 149.516C352.588 149.665 353.121 149.74 353.644 149.74C354.22 149.74 354.625 149.671 354.86 149.532C355.105 149.393 355.228 149.201 355.228 148.956C355.228 148.753 355.132 148.604 354.94 148.508C354.759 148.401 354.513 148.321 354.204 148.268C353.895 148.215 353.553 148.161 353.18 148.108C352.817 148.055 352.449 147.985 352.076 147.9C351.703 147.804 351.361 147.665 351.052 147.484C350.743 147.303 350.492 147.057 350.3 146.748C350.119 146.439 350.028 146.039 350.028 145.548C350.028 145.004 350.183 144.524 350.492 144.108C350.812 143.692 351.271 143.367 351.868 143.132C352.465 142.887 353.18 142.764 354.012 142.764C354.599 142.764 355.196 142.828 355.804 142.956C356.412 143.084 356.919 143.271 357.324 143.516L356.492 145.292C356.076 145.047 355.655 144.881 355.228 144.796C354.812 144.7 354.407 144.652 354.012 144.652C353.457 144.652 353.052 144.727 352.796 144.876C352.54 145.025 352.412 145.217 352.412 145.452C352.412 145.665 352.503 145.825 352.684 145.932C352.876 146.039 353.127 146.124 353.436 146.188C353.745 146.252 354.081 146.311 354.444 146.364C354.817 146.407 355.191 146.476 355.564 146.572C355.937 146.668 356.273 146.807 356.572 146.988C356.881 147.159 357.132 147.399 357.324 147.708C357.516 148.007 357.612 148.401 357.612 148.892C357.612 149.425 357.452 149.9 357.132 150.316C356.812 150.721 356.348 151.041 355.74 151.276C355.143 151.511 354.412 151.628 353.548 151.628ZM362.048 151.628C361.312 151.628 360.603 151.543 359.92 151.372C359.248 151.191 358.715 150.967 358.32 150.7L359.152 148.908C359.547 149.153 360.011 149.356 360.544 149.516C361.088 149.665 361.621 149.74 362.144 149.74C362.72 149.74 363.125 149.671 363.36 149.532C363.605 149.393 363.728 149.201 363.728 148.956C363.728 148.753 363.632 148.604 363.44 148.508C363.259 148.401 363.013 148.321 362.704 148.268C362.395 148.215 362.053 148.161 361.68 148.108C361.317 148.055 360.949 147.985 360.576 147.9C360.203 147.804 359.861 147.665 359.552 147.484C359.243 147.303 358.992 147.057 358.8 146.748C358.619 146.439 358.528 146.039 358.528 145.548C358.528 145.004 358.683 144.524 358.992 144.108C359.312 143.692 359.771 143.367 360.368 143.132C360.965 142.887 361.68 142.764 362.512 142.764C363.099 142.764 363.696 142.828 364.304 142.956C364.912 143.084 365.419 143.271 365.824 143.516L364.992 145.292C364.576 145.047 364.155 144.881 363.728 144.796C363.312 144.7 362.907 144.652 362.512 144.652C361.957 144.652 361.552 144.727 361.296 144.876C361.04 145.025 360.912 145.217 360.912 145.452C360.912 145.665 361.003 145.825 361.184 145.932C361.376 146.039 361.627 146.124 361.936 146.188C362.245 146.252 362.581 146.311 362.944 146.364C363.317 146.407 363.691 146.476 364.064 146.572C364.437 146.668 364.773 146.807 365.072 146.988C365.381 147.159 365.632 147.399 365.824 147.708C366.016 148.007 366.112 148.401 366.112 148.892C366.112 149.425 365.952 149.9 365.632 150.316C365.312 150.721 364.848 151.041 364.24 151.276C363.643 151.511 362.912 151.628 362.048 151.628Z" fill="white"/>
<path d="M118.898 151.5V142.412H115.314V140.3H125.074V142.412H121.49V151.5H118.898ZM131.135 151.5V149.82L130.975 149.452V146.444C130.975 145.911 130.81 145.495 130.479 145.196C130.159 144.897 129.663 144.748 128.991 144.748C128.533 144.748 128.079 144.823 127.631 144.972C127.194 145.111 126.821 145.303 126.511 145.548L125.615 143.804C126.085 143.473 126.65 143.217 127.311 143.036C127.973 142.855 128.645 142.764 129.327 142.764C130.639 142.764 131.658 143.073 132.383 143.692C133.109 144.311 133.471 145.276 133.471 146.588V151.5H131.135ZM128.511 151.628C127.839 151.628 127.263 151.516 126.783 151.292C126.303 151.057 125.935 150.743 125.679 150.348C125.423 149.953 125.295 149.511 125.295 149.02C125.295 148.508 125.418 148.06 125.663 147.676C125.919 147.292 126.319 146.993 126.863 146.78C127.407 146.556 128.117 146.444 128.991 146.444H131.279V147.9H129.263C128.677 147.9 128.271 147.996 128.047 148.188C127.834 148.38 127.727 148.62 127.727 148.908C127.727 149.228 127.85 149.484 128.095 149.676C128.351 149.857 128.698 149.948 129.135 149.948C129.551 149.948 129.925 149.852 130.255 149.66C130.586 149.457 130.826 149.164 130.975 148.78L131.359 149.932C131.178 150.487 130.847 150.908 130.367 151.196C129.887 151.484 129.269 151.628 128.511 151.628ZM135.73 151.5V139.628H138.226V151.5H135.73ZM144.815 151.628C143.833 151.628 142.969 151.436 142.223 151.052C141.487 150.668 140.916 150.145 140.511 149.484C140.105 148.812 139.903 148.049 139.903 147.196C139.903 146.332 140.1 145.569 140.495 144.908C140.9 144.236 141.449 143.713 142.143 143.34C142.836 142.956 143.62 142.764 144.495 142.764C145.337 142.764 146.095 142.945 146.767 143.308C147.449 143.66 147.988 144.172 148.383 144.844C148.777 145.505 148.975 146.3 148.975 147.228C148.975 147.324 148.969 147.436 148.959 147.564C148.948 147.681 148.937 147.793 148.927 147.9H141.935V146.444H147.615L146.655 146.876C146.655 146.428 146.564 146.039 146.383 145.708C146.201 145.377 145.951 145.121 145.631 144.94C145.311 144.748 144.937 144.652 144.511 144.652C144.084 144.652 143.705 144.748 143.375 144.94C143.055 145.121 142.804 145.383 142.623 145.724C142.441 146.055 142.351 146.449 142.351 146.908V147.292C142.351 147.761 142.452 148.177 142.655 148.54C142.868 148.892 143.161 149.164 143.535 149.356C143.919 149.537 144.367 149.628 144.879 149.628C145.337 149.628 145.737 149.559 146.079 149.42C146.431 149.281 146.751 149.073 147.039 148.796L148.367 150.236C147.972 150.684 147.476 151.031 146.879 151.276C146.281 151.511 145.593 151.628 144.815 151.628ZM155.868 142.764C156.551 142.764 157.159 142.903 157.692 143.18C158.236 143.447 158.663 143.863 158.972 144.428C159.282 144.983 159.436 145.697 159.436 146.572V151.5H156.94V146.956C156.94 146.263 156.786 145.751 156.476 145.42C156.178 145.089 155.751 144.924 155.196 144.924C154.802 144.924 154.444 145.009 154.124 145.18C153.815 145.34 153.57 145.591 153.388 145.932C153.218 146.273 153.132 146.711 153.132 147.244V151.5H150.636V142.892H153.02V145.276L152.572 144.556C152.882 143.98 153.324 143.537 153.9 143.228C154.476 142.919 155.132 142.764 155.868 142.764ZM165.219 151.628C164.206 151.628 163.416 151.372 162.851 150.86C162.286 150.337 162.003 149.564 162.003 148.54V140.988H164.499V148.508C164.499 148.871 164.595 149.153 164.787 149.356C164.979 149.548 165.24 149.644 165.571 149.644C165.966 149.644 166.302 149.537 166.579 149.324L167.251 151.084C166.995 151.265 166.686 151.404 166.323 151.5C165.971 151.585 165.603 151.628 165.219 151.628ZM160.675 145.004V143.084H166.643V145.004H160.675Z" fill="white"/>
<defs>
<linearGradient id="paint0_linear_292_319" x1="468.5" y1="280.5" x2="162.916" y2="249.045" gradientUnits="userSpaceOnUse">
<stop stop-color="#70C0B2"/>
<stop offset="0.293999" stop-color="#0198B6"/>
<stop offset="0.817393" stop-color="#007289"/>
</linearGradient>
<linearGradient id="paint1_linear_292_319" x1="280.5" y1="140.5" x2="0.499994" y2="140.5" gradientUnits="userSpaceOnUse">
<stop stop-color="#0198B5"/>
<stop offset="1" stop-color="#F48A5F"/>
</linearGradient>
<clipPath id="clip0_292_319">
<rect width="49" height="79" fill="white" transform="translate(211.5 100.5)"/>
</clipPath>
</defs>
</svg>
