<svg width="33" height="33" viewBox="0 0 33 33" fill="none" xmlns="http://www.w3.org/2000/svg">
<path fill-rule="evenodd" clip-rule="evenodd" d="M0.535298 3.3949C0.100098 4.61776 0.100098 6.21776 0.100098 9.41776V23.132C0.100098 26.332 0.100098 27.932 0.535298 29.1549C0.91913 30.2298 1.53131 31.1036 2.2841 31.6509C3.1401 32.2749 4.2601 32.2749 6.5001 32.2749H25.7001C27.9401 32.2749 29.0601 32.2749 29.9161 31.6509C30.6683 31.1032 31.2799 30.2295 31.6633 29.1549C32.1001 27.932 32.1001 26.332 32.1001 23.132V9.41776C32.1001 6.21776 32.1001 4.61776 31.6633 3.3949C31.2802 2.31949 30.6685 1.44495 29.9161 0.896616C29.0601 0.274902 27.9401 0.274902 25.7001 0.274902H6.5001C4.2601 0.274902 3.1401 0.274902 2.2841 0.896616C1.53106 1.44456 0.918858 2.31914 0.535298 3.3949ZM4.3353 4.84633H27.8649C28.0367 4.84603 28.204 4.92473 28.342 5.07077C28.48 5.21682 28.5815 5.42247 28.6314 5.65729C28.6813 5.89211 28.6769 6.14363 28.619 6.37465C28.5611 6.60566 28.4526 6.80391 28.3097 6.94005L17.5 15C17.2367 15.2516 16.3167 16 16 16C15.6833 16 14.7633 15.2516 14.5 15L3.8905 6.94005C3.74758 6.80391 3.63913 6.60566 3.58119 6.37465C3.52326 6.14363 3.51891 5.89211 3.5688 5.65729C3.61868 5.42247 3.72015 5.21682 3.85819 5.07077C3.99624 4.92473 4.16352 4.84603 4.3353 4.84633Z" fill="white"/>
</svg>
