<svg width="328" height="162" viewBox="0 0 328 162" fill="none" xmlns="http://www.w3.org/2000/svg">
<path d="M44.7537 87V75.8H49.3617C50.3537 75.8 51.2017 75.96 51.9057 76.28C52.6204 76.6 53.1697 77.0587 53.5537 77.656C53.9377 78.2533 54.1297 78.9627 54.1297 79.784C54.1297 80.6053 53.9377 81.3147 53.5537 81.912C53.1697 82.5093 52.6204 82.968 51.9057 83.288C51.2017 83.608 50.3537 83.768 49.3617 83.768H45.9057L46.8337 82.792V87H44.7537ZM46.8337 83.016L45.9057 82.008H49.2657C50.1831 82.008 50.8711 81.816 51.3297 81.432C51.7991 81.0373 52.0337 80.488 52.0337 79.784C52.0337 79.0693 51.7991 78.52 51.3297 78.136C50.8711 77.752 50.1831 77.56 49.2657 77.56H45.9057L46.8337 76.536V83.016ZM56.1711 87V75.128H58.1711V87H56.1711ZM66.0601 87V85.272L65.9481 84.904V81.88C65.9481 81.2933 65.7721 80.84 65.4201 80.52C65.0681 80.1893 64.5348 80.024 63.8201 80.024C63.3401 80.024 62.8655 80.0987 62.3961 80.248C61.9375 80.3973 61.5481 80.6053 61.2281 80.872L60.4441 79.416C60.9028 79.064 61.4468 78.8027 62.0761 78.632C62.7161 78.4507 63.3775 78.36 64.0601 78.36C65.2975 78.36 66.2521 78.6587 66.9241 79.256C67.6068 79.8427 67.9481 80.7547 67.9481 81.992V87L66.0601 87ZM63.3721 87.112C62.7321 87.112 62.1721 87.0053 61.6921 86.792C61.2121 86.568 60.8388 86.264 60.5721 85.88C60.3161 85.4853 60.1881 85.0427 60.1881 84.552C60.1881 84.072 60.3001 83.64 60.5241 83.256C60.7588 82.872 61.1375 82.568 61.6601 82.344C62.1828 82.12 62.8761 82.008 63.7401 82.008L66.2201 82.008V83.336L63.8841 83.336C63.2015 83.336 62.7428 83.448 62.5081 83.672C62.2735 83.8853 62.1561 84.152 62.1561 84.472C62.1561 84.8347 62.3001 85.1227 62.5881 85.336C62.8761 85.5493 63.2761 85.656 63.7881 85.656C64.2788 85.656 64.7161 85.544 65.1001 85.32C65.4948 85.096 65.7775 84.7653 65.9481 84.328L66.2841 85.528C66.0921 86.0293 65.7455 86.4187 65.2441 86.696C64.7535 86.9733 64.1295 87.112 63.3721 87.112ZM75.3629 78.36C76.0455 78.36 76.6535 78.4933 77.1869 78.76C77.7309 79.0267 78.1575 79.4373 78.4669 79.992C78.7762 80.536 78.9309 81.24 78.9309 82.104V87H76.9309V82.36C76.9309 81.6027 76.7495 81.0373 76.3869 80.664C76.0349 80.2907 75.5389 80.104 74.8989 80.104C74.4295 80.104 74.0135 80.2 73.6509 80.392C73.2882 80.584 73.0055 80.872 72.8029 81.256C72.6109 81.6293 72.5149 82.104 72.5149 82.68V87H70.5149V78.456H72.4189V80.76L72.0829 80.056C72.3815 79.512 72.8135 79.096 73.3789 78.808C73.9549 78.5093 74.6162 78.36 75.3629 78.36Z" fill="#0198B5"/>
<path d="M115.315 81C115.315 110.146 91.1947 134 61.1576 134C31.1205 134 7 110.146 7 81C7 51.8544 31.1205 28 61.1576 28C91.1947 28 115.315 51.8544 115.315 81Z" stroke="url(#paint0_linear_974_809)" stroke-width="14"/>
<path d="M163.683 13V4.6H164.571V12.232H169.275V13H163.683ZM175.984 9.844C175.984 9.916 175.972 10.012 175.972 10.108H170.692C170.788 11.428 171.796 12.304 173.176 12.304C173.944 12.304 174.628 12.028 175.108 11.476L175.588 12.028C175.024 12.7 174.148 13.06 173.152 13.06C171.184 13.06 169.84 11.716 169.84 9.844C169.84 7.972 171.148 6.64 172.924 6.64C174.7 6.64 175.984 7.948 175.984 9.844ZM172.924 7.372C171.7 7.372 170.8 8.236 170.692 9.472H175.168C175.06 8.236 174.16 7.372 172.924 7.372ZM182.065 6.688H182.905L180.097 13H179.221L176.425 6.688H177.313L179.677 12.064L182.065 6.688ZM189.437 9.844C189.437 9.916 189.425 10.012 189.425 10.108H184.145C184.241 11.428 185.249 12.304 186.629 12.304C187.397 12.304 188.081 12.028 188.561 11.476L189.041 12.028C188.477 12.7 187.601 13.06 186.605 13.06C184.637 13.06 183.293 11.716 183.293 9.844C183.293 7.972 184.601 6.64 186.377 6.64C188.153 6.64 189.437 7.948 189.437 9.844ZM186.377 7.372C185.153 7.372 184.253 8.236 184.145 9.472H188.621C188.513 8.236 187.613 7.372 186.377 7.372ZM191.987 7.924C192.383 7.084 193.187 6.64 194.351 6.64V7.468C194.279 7.468 194.207 7.456 194.147 7.456C192.827 7.456 192.023 8.296 192.023 9.784V13H191.171V6.688H191.987V7.924ZM198.09 6.64C199.722 6.64 200.646 7.456 200.646 9.088V13H199.83V12.016C199.446 12.664 198.702 13.06 197.658 13.06C196.23 13.06 195.354 12.316 195.354 11.224C195.354 10.252 195.978 9.436 197.79 9.436H199.794V9.052C199.794 7.972 199.182 7.384 198.006 7.384C197.19 7.384 196.422 7.672 195.906 8.128L195.522 7.492C196.158 6.952 197.094 6.64 198.09 6.64ZM197.79 12.388C198.75 12.388 199.458 11.932 199.794 11.104V10.072H197.814C196.59 10.072 196.194 10.552 196.194 11.2C196.194 11.932 196.782 12.388 197.79 12.388ZM208.012 6.688H208.828V12.232C208.828 14.404 207.76 15.388 205.672 15.388C204.52 15.388 203.392 15.04 202.732 14.416L203.164 13.768C203.764 14.308 204.676 14.632 205.648 14.632C207.244 14.632 207.976 13.9 207.976 12.34V11.536C207.448 12.34 206.548 12.76 205.516 12.76C203.716 12.76 202.348 11.5 202.348 9.688C202.348 7.876 203.716 6.64 205.516 6.64C206.572 6.64 207.484 7.072 208.012 7.9V6.688ZM205.6 12.004C206.992 12.004 208 11.056 208 9.688C208 8.32 206.992 7.384 205.6 7.384C204.208 7.384 203.212 8.32 203.212 9.688C203.212 11.056 204.208 12.004 205.6 12.004ZM211.642 5.308C211.294 5.308 211.018 5.032 211.018 4.696C211.018 4.372 211.294 4.096 211.642 4.096C211.99 4.096 212.266 4.36 212.266 4.684C212.266 5.032 212.002 5.308 211.642 5.308ZM211.21 13V6.688H212.062V13H211.21ZM217.649 6.64C219.185 6.64 220.241 7.528 220.241 9.34V13H219.389V9.424C219.389 8.092 218.693 7.408 217.493 7.408C216.137 7.408 215.285 8.248 215.285 9.688V13H214.433V6.688H215.249V7.852C215.705 7.084 216.557 6.64 217.649 6.64ZM227.606 6.688H228.422V12.232C228.422 14.404 227.354 15.388 225.266 15.388C224.114 15.388 222.986 15.04 222.326 14.416L222.758 13.768C223.358 14.308 224.27 14.632 225.242 14.632C226.838 14.632 227.57 13.9 227.57 12.34V11.536C227.042 12.34 226.142 12.76 225.11 12.76C223.31 12.76 221.942 11.5 221.942 9.688C221.942 7.876 223.31 6.64 225.11 6.64C226.166 6.64 227.078 7.072 227.606 7.9V6.688ZM225.194 12.004C226.586 12.004 227.594 11.056 227.594 9.688C227.594 8.32 226.586 7.384 225.194 7.384C223.802 7.384 222.806 8.32 222.806 9.688C222.806 11.056 223.802 12.004 225.194 12.004ZM234.377 5.308C234.029 5.308 233.753 5.032 233.753 4.696C233.753 4.372 234.029 4.096 234.377 4.096C234.725 4.096 235.001 4.36 235.001 4.684C235.001 5.032 234.737 5.308 234.377 5.308ZM233.945 13V6.688H234.797V13H233.945ZM240.383 6.64C241.919 6.64 242.975 7.528 242.975 9.34V13H242.123V9.424C242.123 8.092 241.427 7.408 240.227 7.408C238.871 7.408 238.019 8.248 238.019 9.688V13H237.167V6.688H237.983V7.852C238.439 7.084 239.291 6.64 240.383 6.64ZM250.22 4.096H251.072V13H250.256V11.752C249.74 12.604 248.864 13.06 247.82 13.06C246.02 13.06 244.676 11.752 244.676 9.844C244.676 7.936 246.02 6.64 247.82 6.64C248.828 6.64 249.692 7.072 250.22 7.888V4.096ZM247.892 12.304C249.224 12.304 250.232 11.32 250.232 9.844C250.232 8.368 249.224 7.384 247.892 7.384C246.548 7.384 245.54 8.368 245.54 9.844C245.54 11.32 246.548 12.304 247.892 12.304ZM258.281 6.688H259.133V13H258.317V11.848C257.873 12.616 257.057 13.06 256.049 13.06C254.441 13.06 253.385 12.16 253.385 10.348V6.688H254.237V10.264C254.237 11.608 254.933 12.292 256.133 12.292C257.453 12.292 258.281 11.44 258.281 10V6.688ZM263.211 13.06C262.167 13.06 261.159 12.724 260.643 12.28L261.027 11.608C261.531 12.004 262.383 12.316 263.271 12.316C264.471 12.316 264.963 11.908 264.963 11.284C264.963 9.64 260.871 10.936 260.871 8.44C260.871 7.408 261.759 6.64 263.367 6.64C264.183 6.64 265.071 6.868 265.599 7.228L265.227 7.912C264.675 7.528 264.015 7.372 263.367 7.372C262.227 7.372 261.723 7.816 261.723 8.416C261.723 10.12 265.815 8.836 265.815 11.26C265.815 12.352 264.855 13.06 263.211 13.06ZM270.414 12.004L270.714 12.616C270.378 12.916 269.874 13.06 269.382 13.06C268.194 13.06 267.534 12.388 267.534 11.224V7.408H266.406V6.688H267.534V5.308H268.386V6.688H270.306V7.408H268.386V11.176C268.386 11.92 268.77 12.328 269.478 12.328C269.826 12.328 270.174 12.22 270.414 12.004ZM273.081 7.924C273.477 7.084 274.281 6.64 275.445 6.64V7.468C275.373 7.468 275.301 7.456 275.241 7.456C273.921 7.456 273.117 8.296 273.117 9.784V13H272.265V6.688H273.081V7.924ZM281.721 6.688H282.561L279.405 13.756C278.877 14.992 278.205 15.388 277.305 15.388C276.717 15.388 276.153 15.196 275.769 14.812L276.165 14.176C276.477 14.488 276.861 14.656 277.317 14.656C277.881 14.656 278.265 14.392 278.625 13.6L278.901 12.988L276.081 6.688H276.969L279.345 12.052L281.721 6.688ZM169.011 27.844C169.011 27.916 168.999 28.012 168.999 28.108H163.719C163.815 29.428 164.823 30.304 166.203 30.304C166.971 30.304 167.655 30.028 168.135 29.476L168.615 30.028C168.051 30.7 167.175 31.06 166.179 31.06C164.211 31.06 162.867 29.716 162.867 27.844C162.867 25.972 164.175 24.64 165.951 24.64C167.727 24.64 169.011 25.948 169.011 27.844ZM165.951 25.372C164.727 25.372 163.827 26.236 163.719 27.472H168.195C168.087 26.236 167.187 25.372 165.951 25.372ZM175.562 31H174.59L172.586 28.36L170.57 31H169.61L172.106 27.76L169.73 24.688H170.69L172.586 27.16L174.482 24.688H175.418L173.042 27.76L175.562 31ZM180.232 24.64C182.032 24.64 183.376 25.936 183.376 27.844C183.376 29.764 182.032 31.06 180.232 31.06C179.224 31.06 178.36 30.628 177.832 29.812V33.328H176.98V24.688H177.796V25.936C178.312 25.096 179.188 24.64 180.232 24.64ZM180.172 30.304C181.504 30.304 182.524 29.32 182.524 27.844C182.524 26.38 181.504 25.384 180.172 25.384C178.828 25.384 177.82 26.38 177.82 27.844C177.82 29.32 178.828 30.304 180.172 30.304ZM190.621 27.844C190.621 27.916 190.609 28.012 190.609 28.108H185.329C185.425 29.428 186.433 30.304 187.813 30.304C188.581 30.304 189.265 30.028 189.745 29.476L190.225 30.028C189.661 30.7 188.785 31.06 187.789 31.06C185.821 31.06 184.477 29.716 184.477 27.844C184.477 25.972 185.785 24.64 187.561 24.64C189.337 24.64 190.621 25.948 190.621 27.844ZM187.561 25.372C186.337 25.372 185.437 26.236 185.329 27.472H189.805C189.697 26.236 188.797 25.372 187.561 25.372ZM193.171 25.924C193.567 25.084 194.371 24.64 195.535 24.64V25.468C195.463 25.468 195.391 25.456 195.331 25.456C194.011 25.456 193.207 26.296 193.207 27.784V31H192.355V24.688H193.171V25.924ZM200.371 30.004L200.671 30.616C200.335 30.916 199.831 31.06 199.339 31.06C198.151 31.06 197.491 30.388 197.491 29.224V25.408H196.363V24.688H197.491V23.308H198.343V24.688H200.263V25.408H198.343V29.176C198.343 29.92 198.727 30.328 199.435 30.328C199.783 30.328 200.131 30.22 200.371 30.004ZM202.654 23.308C202.306 23.308 202.03 23.032 202.03 22.696C202.03 22.372 202.306 22.096 202.654 22.096C203.002 22.096 203.278 22.36 203.278 22.684C203.278 23.032 203.014 23.308 202.654 23.308ZM202.222 31V24.688H203.074V31H202.222ZM207.137 31.06C206.093 31.06 205.085 30.724 204.569 30.28L204.953 29.608C205.457 30.004 206.309 30.316 207.197 30.316C208.397 30.316 208.889 29.908 208.889 29.284C208.889 27.64 204.797 28.936 204.797 26.44C204.797 25.408 205.685 24.64 207.293 24.64C208.109 24.64 208.997 24.868 209.525 25.228L209.153 25.912C208.601 25.528 207.941 25.372 207.293 25.372C206.153 25.372 205.649 25.816 205.649 26.416C205.649 28.12 209.741 26.836 209.741 29.26C209.741 30.352 208.781 31.06 207.137 31.06ZM216.824 27.844C216.824 27.916 216.812 28.012 216.812 28.108H211.532C211.628 29.428 212.636 30.304 214.016 30.304C214.784 30.304 215.468 30.028 215.948 29.476L216.428 30.028C215.864 30.7 214.988 31.06 213.992 31.06C212.024 31.06 210.68 29.716 210.68 27.844C210.68 25.972 211.988 24.64 213.764 24.64C215.54 24.64 216.824 25.948 216.824 27.844ZM213.764 25.372C212.54 25.372 211.64 26.236 211.532 27.472H216.008C215.9 26.236 215 25.372 213.764 25.372ZM223.907 24.64C225.539 24.64 226.463 25.456 226.463 27.088V31H225.647V30.016C225.263 30.664 224.519 31.06 223.475 31.06C222.047 31.06 221.171 30.316 221.171 29.224C221.171 28.252 221.795 27.436 223.607 27.436H225.611V27.052C225.611 25.972 224.999 25.384 223.823 25.384C223.007 25.384 222.239 25.672 221.723 26.128L221.339 25.492C221.975 24.952 222.911 24.64 223.907 24.64ZM223.607 30.388C224.567 30.388 225.275 29.932 225.611 29.104V28.072H223.631C222.407 28.072 222.011 28.552 222.011 29.2C222.011 29.932 222.599 30.388 223.607 30.388ZM231.993 24.64C233.529 24.64 234.585 25.528 234.585 27.34V31H233.733V27.424C233.733 26.092 233.037 25.408 231.837 25.408C230.481 25.408 229.629 26.248 229.629 27.688V31H228.777V24.688H229.593V25.852C230.049 25.084 230.901 24.64 231.993 24.64ZM241.829 22.096H242.681V31H241.865V29.752C241.349 30.604 240.473 31.06 239.429 31.06C237.629 31.06 236.285 29.752 236.285 27.844C236.285 25.936 237.629 24.64 239.429 24.64C240.437 24.64 241.301 25.072 241.829 25.888V22.096ZM239.501 30.304C240.833 30.304 241.841 29.32 241.841 27.844C241.841 26.368 240.833 25.384 239.501 25.384C238.157 25.384 237.149 26.368 237.149 27.844C237.149 29.32 238.157 30.304 239.501 30.304ZM256.067 24.64C257.603 24.64 258.611 25.528 258.611 27.34V31H257.759V27.424C257.759 26.092 257.087 25.408 255.947 25.408C254.651 25.408 253.835 26.248 253.835 27.688V31H252.983V27.424C252.983 26.092 252.311 25.408 251.159 25.408C249.875 25.408 249.047 26.248 249.047 27.688V31H248.195V24.688H249.011V25.84C249.455 25.084 250.271 24.64 251.327 24.64C252.371 24.64 253.187 25.084 253.571 25.972C254.027 25.156 254.927 24.64 256.067 24.64ZM263.129 24.64C264.761 24.64 265.685 25.456 265.685 27.088V31H264.869V30.016C264.485 30.664 263.741 31.06 262.697 31.06C261.269 31.06 260.393 30.316 260.393 29.224C260.393 28.252 261.017 27.436 262.829 27.436H264.833V27.052C264.833 25.972 264.221 25.384 263.045 25.384C262.229 25.384 261.461 25.672 260.945 26.128L260.561 25.492C261.197 24.952 262.133 24.64 263.129 24.64ZM262.829 30.388C263.789 30.388 264.497 29.932 264.833 29.104V28.072H262.853C261.629 28.072 261.233 28.552 261.233 29.2C261.233 29.932 261.821 30.388 262.829 30.388ZM268.816 25.924C269.212 25.084 270.016 24.64 271.18 24.64V25.468C271.108 25.468 271.036 25.456 270.976 25.456C269.656 25.456 268.852 26.296 268.852 27.784V31H268V24.688H268.816V25.924ZM277.606 31L275.062 27.832L273.574 29.2V31H272.722V22.096H273.574V28.132L277.342 24.688H278.398L275.698 27.268L278.65 31H277.606ZM285.179 27.844C285.179 27.916 285.167 28.012 285.167 28.108H279.887C279.983 29.428 280.991 30.304 282.371 30.304C283.139 30.304 283.823 30.028 284.303 29.476L284.783 30.028C284.219 30.7 283.343 31.06 282.347 31.06C280.379 31.06 279.035 29.716 279.035 27.844C279.035 25.972 280.343 24.64 282.119 24.64C283.895 24.64 285.179 25.948 285.179 27.844ZM282.119 25.372C280.895 25.372 279.995 26.236 279.887 27.472H284.363C284.255 26.236 283.355 25.372 282.119 25.372ZM289.938 30.004L290.238 30.616C289.902 30.916 289.398 31.06 288.906 31.06C287.718 31.06 287.058 30.388 287.058 29.224V25.408H285.93V24.688H287.058V23.308H287.91V24.688H289.83V25.408H287.91V29.176C287.91 29.92 288.294 30.328 289.002 30.328C289.35 30.328 289.698 30.22 289.938 30.004ZM163.935 41.308C163.587 41.308 163.311 41.032 163.311 40.696C163.311 40.372 163.587 40.096 163.935 40.096C164.283 40.096 164.559 40.36 164.559 40.684C164.559 41.032 164.295 41.308 163.935 41.308ZM163.503 49V42.688H164.355V49H163.503ZM169.942 42.64C171.478 42.64 172.534 43.528 172.534 45.34V49H171.682V45.424C171.682 44.092 170.986 43.408 169.786 43.408C168.43 43.408 167.578 44.248 167.578 45.688V49H166.726V42.688H167.542V43.852C167.998 43.084 168.85 42.64 169.942 42.64ZM176.539 49.06C175.495 49.06 174.487 48.724 173.971 48.28L174.355 47.608C174.859 48.004 175.711 48.316 176.599 48.316C177.799 48.316 178.291 47.908 178.291 47.284C178.291 45.64 174.199 46.936 174.199 44.44C174.199 43.408 175.087 42.64 176.695 42.64C177.511 42.64 178.399 42.868 178.927 43.228L178.555 43.912C178.003 43.528 177.343 43.372 176.695 43.372C175.555 43.372 175.051 43.816 175.051 44.416C175.051 46.12 179.143 44.836 179.143 47.26C179.143 48.352 178.183 49.06 176.539 49.06ZM181.15 41.308C180.802 41.308 180.526 41.032 180.526 40.696C180.526 40.372 180.802 40.096 181.15 40.096C181.498 40.096 181.774 40.36 181.774 40.684C181.774 41.032 181.51 41.308 181.15 41.308ZM180.718 49V42.688H181.57V49H180.718ZM188.969 42.688H189.785V48.232C189.785 50.404 188.717 51.388 186.629 51.388C185.477 51.388 184.349 51.04 183.689 50.416L184.121 49.768C184.721 50.308 185.633 50.632 186.605 50.632C188.201 50.632 188.933 49.9 188.933 48.34V47.536C188.405 48.34 187.505 48.76 186.473 48.76C184.673 48.76 183.305 47.5 183.305 45.688C183.305 43.876 184.673 42.64 186.473 42.64C187.529 42.64 188.441 43.072 188.969 43.9V42.688ZM186.557 48.004C187.949 48.004 188.957 47.056 188.957 45.688C188.957 44.32 187.949 43.384 186.557 43.384C185.165 43.384 184.169 44.32 184.169 45.688C184.169 47.056 185.165 48.004 186.557 48.004ZM195.383 42.64C196.919 42.64 197.975 43.528 197.975 45.34V49H197.123V45.424C197.123 44.092 196.427 43.408 195.227 43.408C193.871 43.408 193.019 44.248 193.019 45.688V49H192.167V40.096H193.019V43.792C193.487 43.06 194.315 42.64 195.383 42.64ZM203.313 48.004L203.613 48.616C203.277 48.916 202.773 49.06 202.281 49.06C201.093 49.06 200.433 48.388 200.433 47.224V43.408H199.305V42.688H200.433V41.308H201.285V42.688H203.205V43.408H201.285V47.176C201.285 47.92 201.669 48.328 202.377 48.328C202.725 48.328 203.073 48.22 203.313 48.004ZM206.856 49.06C205.812 49.06 204.804 48.724 204.288 48.28L204.672 47.608C205.176 48.004 206.028 48.316 206.916 48.316C208.116 48.316 208.608 47.908 208.608 47.284C208.608 45.64 204.516 46.936 204.516 44.44C204.516 43.408 205.404 42.64 207.012 42.64C207.828 42.64 208.716 42.868 209.244 43.228L208.872 43.912C208.32 43.528 207.66 43.372 207.012 43.372C205.872 43.372 205.368 43.816 205.368 44.416C205.368 46.12 209.46 44.836 209.46 47.26C209.46 48.352 208.5 49.06 206.856 49.06ZM211.131 47.752C211.503 47.752 211.767 48.04 211.767 48.4C211.767 48.604 211.719 48.76 211.599 49.096L211.095 50.752H210.519L210.927 49.012C210.675 48.94 210.495 48.712 210.495 48.4C210.495 48.028 210.771 47.752 211.131 47.752ZM225.202 42.688H225.982L223.594 49H222.79L220.798 43.828L218.806 49H218.002L215.626 42.688H216.442L218.422 48.052L220.45 42.688H221.182L223.198 48.052L225.202 42.688ZM232.597 45.844C232.597 45.916 232.585 46.012 232.585 46.108H227.305C227.401 47.428 228.409 48.304 229.789 48.304C230.557 48.304 231.241 48.028 231.721 47.476L232.201 48.028C231.637 48.7 230.761 49.06 229.765 49.06C227.797 49.06 226.453 47.716 226.453 45.844C226.453 43.972 227.761 42.64 229.537 42.64C231.313 42.64 232.597 43.948 232.597 45.844ZM229.537 43.372C228.313 43.372 227.413 44.236 227.305 45.472H231.781C231.673 44.236 230.773 43.372 229.537 43.372ZM242.38 40.096H243.232V49H242.416V47.752C241.9 48.604 241.024 49.06 239.98 49.06C238.18 49.06 236.836 47.752 236.836 45.844C236.836 43.936 238.18 42.64 239.98 42.64C240.988 42.64 241.852 43.072 242.38 43.888V40.096ZM240.052 48.304C241.384 48.304 242.392 47.32 242.392 45.844C242.392 44.368 241.384 43.384 240.052 43.384C238.708 43.384 237.7 44.368 237.7 45.844C237.7 47.32 238.708 48.304 240.052 48.304ZM251.113 45.844C251.113 45.916 251.101 46.012 251.101 46.108H245.821C245.917 47.428 246.925 48.304 248.305 48.304C249.073 48.304 249.757 48.028 250.237 47.476L250.717 48.028C250.153 48.7 249.277 49.06 248.281 49.06C246.313 49.06 244.969 47.716 244.969 45.844C244.969 43.972 246.277 42.64 248.053 42.64C249.829 42.64 251.113 43.948 251.113 45.844ZM248.053 43.372C246.829 43.372 245.929 44.236 245.821 45.472H250.297C250.189 44.236 249.289 43.372 248.053 43.372ZM254.539 49.06C253.495 49.06 252.487 48.724 251.971 48.28L252.355 47.608C252.859 48.004 253.711 48.316 254.599 48.316C255.799 48.316 256.291 47.908 256.291 47.284C256.291 45.64 252.199 46.936 252.199 44.44C252.199 43.408 253.087 42.64 254.695 42.64C255.511 42.64 256.399 42.868 256.927 43.228L256.555 43.912C256.003 43.528 255.343 43.372 254.695 43.372C253.555 43.372 253.051 43.816 253.051 44.416C253.051 46.12 257.143 44.836 257.143 47.26C257.143 48.352 256.183 49.06 254.539 49.06ZM259.15 41.308C258.802 41.308 258.526 41.032 258.526 40.696C258.526 40.372 258.802 40.096 259.15 40.096C259.498 40.096 259.774 40.36 259.774 40.684C259.774 41.032 259.51 41.308 259.15 41.308ZM258.718 49V42.688H259.57V49H258.718ZM266.969 42.688H267.785V48.232C267.785 50.404 266.717 51.388 264.629 51.388C263.477 51.388 262.349 51.04 261.689 50.416L262.121 49.768C262.721 50.308 263.633 50.632 264.605 50.632C266.201 50.632 266.933 49.9 266.933 48.34V47.536C266.405 48.34 265.505 48.76 264.473 48.76C262.673 48.76 261.305 47.5 261.305 45.688C261.305 43.876 262.673 42.64 264.473 42.64C265.529 42.64 266.441 43.072 266.969 43.9V42.688ZM264.557 48.004C265.949 48.004 266.957 47.056 266.957 45.688C266.957 44.32 265.949 43.384 264.557 43.384C263.165 43.384 262.169 44.32 262.169 45.688C262.169 47.056 263.165 48.004 264.557 48.004ZM273.383 42.64C274.919 42.64 275.975 43.528 275.975 45.34V49H275.123V45.424C275.123 44.092 274.427 43.408 273.227 43.408C271.871 43.408 271.019 44.248 271.019 45.688V49H270.167V42.688H270.983V43.852C271.439 43.084 272.291 42.64 273.383 42.64ZM285.065 49V47.74L284.945 47.464V45.208C284.945 44.808 284.821 44.496 284.573 44.272C284.333 44.048 283.961 43.936 283.457 43.936C283.113 43.936 282.773 43.992 282.437 44.104C282.109 44.208 281.829 44.352 281.597 44.536L280.925 43.228C281.277 42.98 281.701 42.788 282.197 42.652C282.693 42.516 283.197 42.448 283.709 42.448C284.693 42.448 285.457 42.68 286.001 43.144C286.545 43.608 286.817 44.332 286.817 45.316V49H285.065ZM283.097 49.096C282.593 49.096 282.161 49.012 281.801 48.844C281.441 48.668 281.165 48.432 280.973 48.136C280.781 47.84 280.685 47.508 280.685 47.14C280.685 46.756 280.777 46.42 280.961 46.132C281.153 45.844 281.453 45.62 281.861 45.46C282.269 45.292 282.801 45.208 283.457 45.208H285.173V46.3H283.661C283.221 46.3 282.917 46.372 282.749 46.516C282.589 46.66 282.509 46.84 282.509 47.056C282.509 47.296 282.601 47.488 282.785 47.632C282.977 47.768 283.237 47.836 283.565 47.836C283.877 47.836 284.157 47.764 284.405 47.62C284.653 47.468 284.833 47.248 284.945 46.96L285.233 47.824C285.097 48.24 284.849 48.556 284.489 48.772C284.129 48.988 283.665 49.096 283.097 49.096ZM292.435 42.448C292.947 42.448 293.403 42.552 293.803 42.76C294.211 42.96 294.531 43.272 294.763 43.696C294.995 44.112 295.111 44.648 295.111 45.304V49H293.239V45.592C293.239 45.072 293.123 44.688 292.891 44.44C292.667 44.192 292.347 44.068 291.931 44.068C291.635 44.068 291.367 44.132 291.127 44.26C290.895 44.38 290.711 44.568 290.575 44.824C290.447 45.08 290.383 45.408 290.383 45.808V49H288.511V42.544H290.299V44.332L289.963 43.792C290.195 43.36 290.527 43.028 290.959 42.796C291.391 42.564 291.883 42.448 292.435 42.448ZM167.139 67V65.74L167.019 65.464V63.208C167.019 62.808 166.895 62.496 166.647 62.272C166.407 62.048 166.035 61.936 165.531 61.936C165.187 61.936 164.847 61.992 164.511 62.104C164.183 62.208 163.903 62.352 163.671 62.536L162.999 61.228C163.351 60.98 163.775 60.788 164.271 60.652C164.767 60.516 165.271 60.448 165.783 60.448C166.767 60.448 167.531 60.68 168.075 61.144C168.619 61.608 168.891 62.332 168.891 63.316V67H167.139ZM165.171 67.096C164.667 67.096 164.235 67.012 163.875 66.844C163.515 66.668 163.239 66.432 163.047 66.136C162.855 65.84 162.759 65.508 162.759 65.14C162.759 64.756 162.851 64.42 163.035 64.132C163.227 63.844 163.527 63.62 163.935 63.46C164.343 63.292 164.875 63.208 165.531 63.208H167.247V64.3H165.735C165.295 64.3 164.991 64.372 164.823 64.516C164.663 64.66 164.583 64.84 164.583 65.056C164.583 65.296 164.675 65.488 164.859 65.632C165.051 65.768 165.311 65.836 165.639 65.836C165.951 65.836 166.231 65.764 166.479 65.62C166.727 65.468 166.907 65.248 167.019 64.96L167.307 65.824C167.171 66.24 166.923 66.556 166.563 66.772C166.203 66.988 165.739 67.096 165.171 67.096ZM173.669 69.424C173.061 69.424 172.473 69.348 171.905 69.196C171.345 69.052 170.877 68.832 170.501 68.536L171.245 67.192C171.517 67.416 171.861 67.592 172.277 67.72C172.701 67.856 173.117 67.924 173.525 67.924C174.189 67.924 174.669 67.776 174.965 67.48C175.269 67.184 175.421 66.744 175.421 66.16V65.188L175.541 63.568L175.517 61.936V60.544H177.293V65.92C177.293 67.12 176.981 68.004 176.357 68.572C175.733 69.14 174.837 69.424 173.669 69.424ZM173.381 66.688C172.781 66.688 172.237 66.56 171.749 66.304C171.269 66.04 170.881 65.676 170.585 65.212C170.297 64.74 170.153 64.192 170.153 63.568C170.153 62.936 170.297 62.388 170.585 61.924C170.881 61.452 171.269 61.088 171.749 60.832C172.237 60.576 172.781 60.448 173.381 60.448C173.925 60.448 174.405 60.56 174.821 60.784C175.237 61 175.561 61.34 175.793 61.804C176.025 62.26 176.141 62.848 176.141 63.568C176.141 64.28 176.025 64.868 175.793 65.332C175.561 65.788 175.237 66.128 174.821 66.352C174.405 66.576 173.925 66.688 173.381 66.688ZM173.753 65.152C174.081 65.152 174.373 65.088 174.629 64.96C174.885 64.824 175.085 64.636 175.229 64.396C175.373 64.156 175.445 63.88 175.445 63.568C175.445 63.248 175.373 62.972 175.229 62.74C175.085 62.5 174.885 62.316 174.629 62.188C174.373 62.052 174.081 61.984 173.753 61.984C173.425 61.984 173.133 62.052 172.877 62.188C172.621 62.316 172.417 62.5 172.265 62.74C172.121 62.972 172.049 63.248 172.049 63.568C172.049 63.88 172.121 64.156 172.265 64.396C172.417 64.636 172.621 64.824 172.877 64.96C173.133 65.088 173.425 65.152 173.753 65.152ZM179.035 67V60.544H180.907V67H179.035ZM179.971 59.644C179.627 59.644 179.347 59.544 179.131 59.344C178.915 59.144 178.807 58.896 178.807 58.6C178.807 58.304 178.915 58.056 179.131 57.856C179.347 57.656 179.627 57.556 179.971 57.556C180.315 57.556 180.595 57.652 180.811 57.844C181.027 58.028 181.135 58.268 181.135 58.564C181.135 58.876 181.027 59.136 180.811 59.344C180.603 59.544 180.323 59.644 179.971 59.644ZM182.644 67V58.096H184.516V67H182.644ZM189.458 67.096C188.722 67.096 188.074 66.952 187.514 66.664C186.962 66.376 186.534 65.984 186.23 65.488C185.926 64.984 185.774 64.412 185.774 63.772C185.774 63.124 185.922 62.552 186.218 62.056C186.522 61.552 186.934 61.16 187.454 60.88C187.974 60.592 188.562 60.448 189.218 60.448C189.85 60.448 190.418 60.584 190.922 60.856C191.434 61.12 191.838 61.504 192.134 62.008C192.43 62.504 192.578 63.1 192.578 63.796C192.578 63.868 192.574 63.952 192.566 64.048C192.558 64.136 192.55 64.22 192.542 64.3H187.298V63.208H191.558L190.838 63.532C190.838 63.196 190.77 62.904 190.634 62.656C190.498 62.408 190.31 62.216 190.07 62.08C189.83 61.936 189.55 61.864 189.23 61.864C188.91 61.864 188.626 61.936 188.378 62.08C188.138 62.216 187.95 62.412 187.814 62.668C187.678 62.916 187.61 63.212 187.61 63.556V63.844C187.61 64.196 187.686 64.508 187.838 64.78C187.998 65.044 188.218 65.248 188.498 65.392C188.786 65.528 189.122 65.596 189.506 65.596C189.85 65.596 190.15 65.544 190.406 65.44C190.67 65.336 190.91 65.18 191.126 64.972L192.122 66.052C191.826 66.388 191.454 66.648 191.006 66.832C190.558 67.008 190.042 67.096 189.458 67.096ZM201.038 67.096C200.494 67.096 200.018 66.976 199.61 66.736C199.202 66.496 198.882 66.132 198.65 65.644C198.426 65.148 198.314 64.524 198.314 63.772C198.314 63.012 198.422 62.388 198.638 61.9C198.854 61.412 199.166 61.048 199.574 60.808C199.982 60.568 200.47 60.448 201.038 60.448C201.646 60.448 202.19 60.588 202.67 60.868C203.158 61.14 203.542 61.524 203.822 62.02C204.11 62.516 204.254 63.1 204.254 63.772C204.254 64.452 204.11 65.04 203.822 65.536C203.542 66.032 203.158 66.416 202.67 66.688C202.19 66.96 201.646 67.096 201.038 67.096ZM197.222 69.328V60.544H199.01V61.864L198.974 63.784L199.094 65.692V69.328H197.222ZM200.714 65.56C201.026 65.56 201.302 65.488 201.542 65.344C201.79 65.2 201.986 64.996 202.13 64.732C202.282 64.46 202.358 64.14 202.358 63.772C202.358 63.396 202.282 63.076 202.13 62.812C201.986 62.548 201.79 62.344 201.542 62.2C201.302 62.056 201.026 61.984 200.714 61.984C200.402 61.984 200.122 62.056 199.874 62.2C199.626 62.344 199.43 62.548 199.286 62.812C199.142 63.076 199.07 63.396 199.07 63.772C199.07 64.14 199.142 64.46 199.286 64.732C199.43 64.996 199.626 65.2 199.874 65.344C200.122 65.488 200.402 65.56 200.714 65.56ZM205.508 67V58.096H207.38V67H205.508ZM213.077 67V65.74L212.957 65.464V63.208C212.957 62.808 212.833 62.496 212.585 62.272C212.345 62.048 211.973 61.936 211.469 61.936C211.125 61.936 210.785 61.992 210.449 62.104C210.121 62.208 209.841 62.352 209.609 62.536L208.937 61.228C209.289 60.98 209.713 60.788 210.209 60.652C210.705 60.516 211.209 60.448 211.721 60.448C212.705 60.448 213.469 60.68 214.013 61.144C214.557 61.608 214.829 62.332 214.829 63.316V67H213.077ZM211.109 67.096C210.605 67.096 210.173 67.012 209.813 66.844C209.453 66.668 209.177 66.432 208.985 66.136C208.793 65.84 208.697 65.508 208.697 65.14C208.697 64.756 208.789 64.42 208.973 64.132C209.165 63.844 209.465 63.62 209.873 63.46C210.281 63.292 210.813 63.208 211.469 63.208H213.185V64.3H211.673C211.233 64.3 210.929 64.372 210.761 64.516C210.601 64.66 210.521 64.84 210.521 65.056C210.521 65.296 210.613 65.488 210.797 65.632C210.989 65.768 211.249 65.836 211.577 65.836C211.889 65.836 212.169 65.764 212.417 65.62C212.665 65.468 212.845 65.248 212.957 64.96L213.245 65.824C213.109 66.24 212.861 66.556 212.501 66.772C212.141 66.988 211.677 67.096 211.109 67.096ZM220.447 60.448C220.959 60.448 221.415 60.552 221.815 60.76C222.223 60.96 222.543 61.272 222.775 61.696C223.007 62.112 223.123 62.648 223.123 63.304V67H221.251V63.592C221.251 63.072 221.135 62.688 220.903 62.44C220.679 62.192 220.359 62.068 219.943 62.068C219.647 62.068 219.379 62.132 219.139 62.26C218.907 62.38 218.723 62.568 218.587 62.824C218.459 63.08 218.395 63.408 218.395 63.808V67H216.523V60.544H218.311V62.332L217.975 61.792C218.207 61.36 218.539 61.028 218.971 60.796C219.403 60.564 219.895 60.448 220.447 60.448ZM230.858 67.096C230.098 67.096 229.506 66.904 229.082 66.52C228.658 66.128 228.446 65.548 228.446 64.78V59.116H230.318V64.756C230.318 65.028 230.39 65.24 230.534 65.392C230.678 65.536 230.874 65.608 231.122 65.608C231.418 65.608 231.67 65.528 231.878 65.368L232.382 66.688C232.19 66.824 231.958 66.928 231.686 67C231.422 67.064 231.146 67.096 230.858 67.096ZM227.45 62.128V60.688H231.926V62.128H227.45ZM237.393 67V65.74L237.273 65.464V63.208C237.273 62.808 237.149 62.496 236.901 62.272C236.661 62.048 236.289 61.936 235.785 61.936C235.441 61.936 235.101 61.992 234.765 62.104C234.437 62.208 234.157 62.352 233.925 62.536L233.253 61.228C233.605 60.98 234.029 60.788 234.525 60.652C235.021 60.516 235.525 60.448 236.037 60.448C237.021 60.448 237.785 60.68 238.329 61.144C238.873 61.608 239.145 62.332 239.145 63.316V67H237.393ZM235.425 67.096C234.921 67.096 234.489 67.012 234.129 66.844C233.769 66.668 233.493 66.432 233.301 66.136C233.109 65.84 233.013 65.508 233.013 65.14C233.013 64.756 233.105 64.42 233.289 64.132C233.481 63.844 233.781 63.62 234.189 63.46C234.597 63.292 235.129 63.208 235.785 63.208H237.501V64.3H235.989C235.549 64.3 235.245 64.372 235.077 64.516C234.917 64.66 234.837 64.84 234.837 65.056C234.837 65.296 234.929 65.488 235.113 65.632C235.305 65.768 235.565 65.836 235.893 65.836C236.205 65.836 236.485 65.764 236.733 65.62C236.981 65.468 237.161 65.248 237.273 64.96L237.561 65.824C237.425 66.24 237.177 66.556 236.817 66.772C236.457 66.988 235.993 67.096 235.425 67.096ZM240.84 67V60.544H242.712V67H240.84ZM241.776 59.644C241.432 59.644 241.152 59.544 240.936 59.344C240.72 59.144 240.612 58.896 240.612 58.6C240.612 58.304 240.72 58.056 240.936 57.856C241.152 57.656 241.432 57.556 241.776 57.556C242.12 57.556 242.4 57.652 242.616 57.844C242.832 58.028 242.94 58.268 242.94 58.564C242.94 58.876 242.832 59.136 242.616 59.344C242.408 59.544 242.128 59.644 241.776 59.644ZM244.449 67V58.096H246.321V67H244.449ZM251.13 67.096C250.442 67.096 249.83 66.952 249.294 66.664C248.766 66.376 248.346 65.984 248.034 65.488C247.73 64.984 247.578 64.412 247.578 63.772C247.578 63.124 247.73 62.552 248.034 62.056C248.346 61.552 248.766 61.16 249.294 60.88C249.83 60.592 250.442 60.448 251.13 60.448C251.81 60.448 252.418 60.592 252.954 60.88C253.49 61.16 253.91 61.548 254.214 62.044C254.518 62.54 254.67 63.116 254.67 63.772C254.67 64.412 254.518 64.984 254.214 65.488C253.91 65.984 253.49 66.376 252.954 66.664C252.418 66.952 251.81 67.096 251.13 67.096ZM251.13 65.56C251.442 65.56 251.722 65.488 251.97 65.344C252.218 65.2 252.414 64.996 252.558 64.732C252.702 64.46 252.774 64.14 252.774 63.772C252.774 63.396 252.702 63.076 252.558 62.812C252.414 62.548 252.218 62.344 251.97 62.2C251.722 62.056 251.442 61.984 251.13 61.984C250.818 61.984 250.538 62.056 250.29 62.2C250.042 62.344 249.842 62.548 249.69 62.812C249.546 63.076 249.474 63.396 249.474 63.772C249.474 64.14 249.546 64.46 249.69 64.732C249.842 64.996 250.042 65.2 250.29 65.344C250.538 65.488 250.818 65.56 251.13 65.56ZM255.922 67V60.544H257.71V62.368L257.458 61.84C257.65 61.384 257.958 61.04 258.382 60.808C258.806 60.568 259.322 60.448 259.93 60.448V62.176C259.85 62.168 259.778 62.164 259.714 62.164C259.65 62.156 259.582 62.152 259.51 62.152C258.998 62.152 258.582 62.3 258.262 62.596C257.95 62.884 257.794 63.336 257.794 63.952V67H255.922ZM264.2 67.096C263.464 67.096 262.816 66.952 262.256 66.664C261.704 66.376 261.276 65.984 260.972 65.488C260.668 64.984 260.516 64.412 260.516 63.772C260.516 63.124 260.664 62.552 260.96 62.056C261.264 61.552 261.676 61.16 262.196 60.88C262.716 60.592 263.304 60.448 263.96 60.448C264.592 60.448 265.16 60.584 265.664 60.856C266.176 61.12 266.58 61.504 266.876 62.008C267.172 62.504 267.32 63.1 267.32 63.796C267.32 63.868 267.316 63.952 267.308 64.048C267.3 64.136 267.292 64.22 267.284 64.3H262.04V63.208H266.3L265.58 63.532C265.58 63.196 265.512 62.904 265.376 62.656C265.24 62.408 265.052 62.216 264.812 62.08C264.572 61.936 264.292 61.864 263.972 61.864C263.652 61.864 263.368 61.936 263.12 62.08C262.88 62.216 262.692 62.412 262.556 62.668C262.42 62.916 262.352 63.212 262.352 63.556V63.844C262.352 64.196 262.428 64.508 262.58 64.78C262.74 65.044 262.96 65.248 263.24 65.392C263.528 65.528 263.864 65.596 264.248 65.596C264.592 65.596 264.892 65.544 265.148 65.44C265.412 65.336 265.652 65.18 265.868 64.972L266.864 66.052C266.568 66.388 266.196 66.648 265.748 66.832C265.3 67.008 264.784 67.096 264.2 67.096ZM271.338 67.096C270.73 67.096 270.182 66.96 269.694 66.688C269.206 66.408 268.818 66.02 268.53 65.524C268.25 65.028 268.11 64.444 268.11 63.772C268.11 63.092 268.25 62.504 268.53 62.008C268.818 61.512 269.206 61.128 269.694 60.856C270.182 60.584 270.73 60.448 271.338 60.448C271.882 60.448 272.358 60.568 272.766 60.808C273.174 61.048 273.49 61.412 273.714 61.9C273.938 62.388 274.05 63.012 274.05 63.772C274.05 64.524 273.942 65.148 273.726 65.644C273.51 66.132 273.198 66.496 272.79 66.736C272.39 66.976 271.906 67.096 271.338 67.096ZM271.662 65.56C271.966 65.56 272.242 65.488 272.49 65.344C272.738 65.2 272.934 64.996 273.078 64.732C273.23 64.46 273.306 64.14 273.306 63.772C273.306 63.396 273.23 63.076 273.078 62.812C272.934 62.548 272.738 62.344 272.49 62.2C272.242 62.056 271.966 61.984 271.662 61.984C271.35 61.984 271.07 62.056 270.822 62.2C270.574 62.344 270.374 62.548 270.222 62.812C270.078 63.076 270.006 63.396 270.006 63.772C270.006 64.14 270.078 64.46 270.222 64.732C270.374 64.996 270.574 65.2 270.822 65.344C271.07 65.488 271.35 65.56 271.662 65.56ZM273.354 67V65.68L273.39 63.76L273.27 61.852V58.096H275.142V67H273.354ZM283.363 66.004L283.663 66.616C283.327 66.916 282.823 67.06 282.331 67.06C281.143 67.06 280.483 66.388 280.483 65.224V61.408H279.355V60.688H280.483V59.308H281.335V60.688H283.255V61.408H281.335V65.176C281.335 65.92 281.719 66.328 282.427 66.328C282.775 66.328 283.123 66.22 283.363 66.004ZM287.572 67.06C285.724 67.06 284.356 65.716 284.356 63.844C284.356 61.972 285.724 60.64 287.572 60.64C289.42 60.64 290.776 61.972 290.776 63.844C290.776 65.716 289.42 67.06 287.572 67.06ZM287.572 66.304C288.916 66.304 289.912 65.32 289.912 63.844C289.912 62.368 288.916 61.384 287.572 61.384C286.228 61.384 285.22 62.368 285.22 63.844C285.22 65.32 286.228 66.304 287.572 66.304ZM300.12 60.688H300.96L297.804 67.756C297.276 68.992 296.604 69.388 295.704 69.388C295.116 69.388 294.552 69.196 294.168 68.812L294.564 68.176C294.876 68.488 295.26 68.656 295.716 68.656C296.28 68.656 296.664 68.392 297.024 67.6L297.3 66.988L294.48 60.688H295.368L297.744 66.052L300.12 60.688ZM304.564 67.06C302.716 67.06 301.348 65.716 301.348 63.844C301.348 61.972 302.716 60.64 304.564 60.64C306.412 60.64 307.768 61.972 307.768 63.844C307.768 65.716 306.412 67.06 304.564 67.06ZM304.564 66.304C305.908 66.304 306.904 65.32 306.904 63.844C306.904 62.368 305.908 61.384 304.564 61.384C303.22 61.384 302.212 62.368 302.212 63.844C302.212 65.32 303.22 66.304 304.564 66.304ZM314.343 60.688H315.195V67H314.379V65.848C313.935 66.616 313.119 67.06 312.111 67.06C310.503 67.06 309.447 66.16 309.447 64.348V60.688H310.299V64.264C310.299 65.608 310.995 66.292 312.195 66.292C313.515 66.292 314.343 65.44 314.343 64V60.688ZM318.398 61.924C318.794 61.084 319.598 60.64 320.762 60.64V61.468C320.69 61.468 320.618 61.456 320.558 61.456C319.238 61.456 318.434 62.296 318.434 63.784V67H317.582V60.688H318.398V61.924ZM166.719 78.64C168.255 78.64 169.311 79.528 169.311 81.34V85H168.459V81.424C168.459 80.092 167.763 79.408 166.563 79.408C165.207 79.408 164.355 80.248 164.355 81.688V85H163.503V76.096H164.355V79.792C164.823 79.06 165.651 78.64 166.719 78.64ZM172.057 77.308C171.709 77.308 171.433 77.032 171.433 76.696C171.433 76.372 171.709 76.096 172.057 76.096C172.405 76.096 172.681 76.36 172.681 76.684C172.681 77.032 172.417 77.308 172.057 77.308ZM171.625 85V78.688H172.477V85H171.625ZM175.663 79.924C176.059 79.084 176.863 78.64 178.027 78.64V79.468C177.955 79.468 177.883 79.456 177.823 79.456C176.503 79.456 175.699 80.296 175.699 81.784V85H174.847V78.688H175.663V79.924ZM180.002 77.308C179.654 77.308 179.378 77.032 179.378 76.696C179.378 76.372 179.654 76.096 180.002 76.096C180.35 76.096 180.626 76.36 180.626 76.684C180.626 77.032 180.362 77.308 180.002 77.308ZM179.57 85V78.688H180.422V85H179.57ZM186.008 78.64C187.544 78.64 188.6 79.528 188.6 81.34V85H187.748V81.424C187.748 80.092 187.052 79.408 185.852 79.408C184.496 79.408 183.644 80.248 183.644 81.688V85H182.792V78.688H183.608V79.852C184.064 79.084 184.916 78.64 186.008 78.64ZM195.965 78.688H196.781V84.232C196.781 86.404 195.713 87.388 193.625 87.388C192.473 87.388 191.345 87.04 190.685 86.416L191.117 85.768C191.717 86.308 192.629 86.632 193.601 86.632C195.197 86.632 195.929 85.9 195.929 84.34V83.536C195.401 84.34 194.501 84.76 193.469 84.76C191.669 84.76 190.301 83.5 190.301 81.688C190.301 79.876 191.669 78.64 193.469 78.64C194.525 78.64 195.437 79.072 195.965 79.9V78.688ZM193.553 84.004C194.945 84.004 195.953 83.056 195.953 81.688C195.953 80.32 194.945 79.384 193.553 79.384C192.161 79.384 191.165 80.32 191.165 81.688C191.165 83.056 192.161 84.004 193.553 84.004ZM204.92 85.06C203.036 85.06 201.668 83.728 201.668 81.844C201.668 79.96 203.036 78.64 204.92 78.64C205.988 78.64 206.888 79.06 207.392 79.888L206.756 80.32C206.324 79.684 205.652 79.384 204.92 79.384C203.54 79.384 202.532 80.368 202.532 81.844C202.532 83.332 203.54 84.304 204.92 84.304C205.652 84.304 206.324 84.016 206.756 83.38L207.392 83.812C206.888 84.628 205.988 85.06 204.92 85.06ZM212.188 78.64C213.724 78.64 214.78 79.528 214.78 81.34V85H213.928V81.424C213.928 80.092 213.232 79.408 212.032 79.408C210.676 79.408 209.824 80.248 209.824 81.688V85H208.972V76.096H209.824V79.792C210.292 79.06 211.12 78.64 212.188 78.64ZM219.301 78.64C220.933 78.64 221.857 79.456 221.857 81.088V85H221.041V84.016C220.657 84.664 219.913 85.06 218.869 85.06C217.441 85.06 216.565 84.316 216.565 83.224C216.565 82.252 217.189 81.436 219.001 81.436H221.005V81.052C221.005 79.972 220.393 79.384 219.217 79.384C218.401 79.384 217.633 79.672 217.117 80.128L216.733 79.492C217.369 78.952 218.305 78.64 219.301 78.64ZM219.001 84.388C219.961 84.388 220.669 83.932 221.005 83.104V82.072H219.025C217.801 82.072 217.405 82.552 217.405 83.2C217.405 83.932 217.993 84.388 219.001 84.388ZM224.171 85V76.096H225.023V85H224.171ZM227.394 85V76.096H228.246V85H227.394ZM236.125 81.844C236.125 81.916 236.113 82.012 236.113 82.108H230.833C230.929 83.428 231.937 84.304 233.317 84.304C234.085 84.304 234.769 84.028 235.249 83.476L235.729 84.028C235.165 84.7 234.289 85.06 233.293 85.06C231.325 85.06 229.981 83.716 229.981 81.844C229.981 79.972 231.289 78.64 233.065 78.64C234.841 78.64 236.125 79.948 236.125 81.844ZM233.065 79.372C231.841 79.372 230.941 80.236 230.833 81.472H235.309C235.201 80.236 234.301 79.372 233.065 79.372ZM241.075 78.64C242.611 78.64 243.667 79.528 243.667 81.34V85H242.815V81.424C242.815 80.092 242.119 79.408 240.919 79.408C239.563 79.408 238.711 80.248 238.711 81.688V85H237.859V78.688H238.675V79.852C239.131 79.084 239.983 78.64 241.075 78.64ZM251.031 78.688H251.847V84.232C251.847 86.404 250.779 87.388 248.691 87.388C247.539 87.388 246.411 87.04 245.751 86.416L246.183 85.768C246.783 86.308 247.695 86.632 248.667 86.632C250.263 86.632 250.995 85.9 250.995 84.34V83.536C250.467 84.34 249.567 84.76 248.535 84.76C246.735 84.76 245.367 83.5 245.367 81.688C245.367 79.876 246.735 78.64 248.535 78.64C249.591 78.64 250.503 79.072 251.031 79.9V78.688ZM248.619 84.004C250.011 84.004 251.019 83.056 251.019 81.688C251.019 80.32 250.011 79.384 248.619 79.384C247.227 79.384 246.231 80.32 246.231 81.688C246.231 83.056 247.227 84.004 248.619 84.004ZM259.738 81.844C259.738 81.916 259.726 82.012 259.726 82.108H254.446C254.542 83.428 255.55 84.304 256.93 84.304C257.698 84.304 258.382 84.028 258.862 83.476L259.342 84.028C258.778 84.7 257.902 85.06 256.906 85.06C254.938 85.06 253.594 83.716 253.594 81.844C253.594 79.972 254.902 78.64 256.678 78.64C258.454 78.64 259.738 79.948 259.738 81.844ZM256.678 79.372C255.454 79.372 254.554 80.236 254.446 81.472H258.922C258.814 80.236 257.914 79.372 256.678 79.372ZM263.164 85.06C262.12 85.06 261.112 84.724 260.596 84.28L260.98 83.608C261.484 84.004 262.336 84.316 263.224 84.316C264.424 84.316 264.916 83.908 264.916 83.284C264.916 81.64 260.824 82.936 260.824 80.44C260.824 79.408 261.712 78.64 263.32 78.64C264.136 78.64 265.024 78.868 265.552 79.228L265.18 79.912C264.628 79.528 263.968 79.372 263.32 79.372C262.18 79.372 261.676 79.816 261.676 80.416C261.676 82.12 265.768 80.836 265.768 83.26C265.768 84.352 264.808 85.06 263.164 85.06ZM267.427 85.06C267.079 85.06 266.791 84.772 266.791 84.4C266.791 84.028 267.079 83.752 267.427 83.752C267.775 83.752 268.075 84.028 268.075 84.4C268.075 84.772 267.775 85.06 267.427 85.06ZM274.839 85V77.368H271.887V76.6H278.679V77.368H275.727V85H274.839ZM283.133 78.64C284.669 78.64 285.725 79.528 285.725 81.34V85H284.873V81.424C284.873 80.092 284.177 79.408 282.977 79.408C281.621 79.408 280.769 80.248 280.769 81.688V85H279.917V76.096H280.769V79.792C281.237 79.06 282.065 78.64 283.133 78.64ZM288.471 77.308C288.123 77.308 287.847 77.032 287.847 76.696C287.847 76.372 288.123 76.096 288.471 76.096C288.819 76.096 289.095 76.36 289.095 76.684C289.095 77.032 288.831 77.308 288.471 77.308ZM288.039 85V78.688H288.891V85H288.039ZM292.953 85.06C291.909 85.06 290.901 84.724 290.385 84.28L290.769 83.608C291.273 84.004 292.125 84.316 293.013 84.316C294.213 84.316 294.705 83.908 294.705 83.284C294.705 81.64 290.613 82.936 290.613 80.44C290.613 79.408 291.501 78.64 293.109 78.64C293.925 78.64 294.813 78.868 295.341 79.228L294.969 79.912C294.417 79.528 293.757 79.372 293.109 79.372C291.969 79.372 291.465 79.816 291.465 80.416C291.465 82.12 295.557 80.836 295.557 83.26C295.557 84.352 294.597 85.06 292.953 85.06ZM166.119 103.06C164.235 103.06 162.867 101.728 162.867 99.844C162.867 97.96 164.235 96.64 166.119 96.64C167.187 96.64 168.087 97.06 168.591 97.888L167.955 98.32C167.523 97.684 166.851 97.384 166.119 97.384C164.739 97.384 163.731 98.368 163.731 99.844C163.731 101.332 164.739 102.304 166.119 102.304C166.851 102.304 167.523 102.016 167.955 101.38L168.591 101.812C168.087 102.628 167.187 103.06 166.119 103.06ZM172.74 103.06C170.892 103.06 169.524 101.716 169.524 99.844C169.524 97.972 170.892 96.64 172.74 96.64C174.588 96.64 175.944 97.972 175.944 99.844C175.944 101.716 174.588 103.06 172.74 103.06ZM172.74 102.304C174.084 102.304 175.08 101.32 175.08 99.844C175.08 98.368 174.084 97.384 172.74 97.384C171.396 97.384 170.388 98.368 170.388 99.844C170.388 101.32 171.396 102.304 172.74 102.304ZM185.555 96.64C187.091 96.64 188.099 97.528 188.099 99.34V103H187.247V99.424C187.247 98.092 186.575 97.408 185.435 97.408C184.139 97.408 183.323 98.248 183.323 99.688V103H182.471V99.424C182.471 98.092 181.799 97.408 180.647 97.408C179.363 97.408 178.535 98.248 178.535 99.688V103H177.683V96.688H178.499V97.84C178.943 97.084 179.759 96.64 180.815 96.64C181.859 96.64 182.675 97.084 183.059 97.972C183.515 97.156 184.415 96.64 185.555 96.64ZM193.662 96.64C195.462 96.64 196.806 97.936 196.806 99.844C196.806 101.764 195.462 103.06 193.662 103.06C192.654 103.06 191.79 102.628 191.262 101.812V105.328H190.41V96.688H191.226V97.936C191.742 97.096 192.618 96.64 193.662 96.64ZM193.602 102.304C194.934 102.304 195.954 101.32 195.954 99.844C195.954 98.38 194.934 97.384 193.602 97.384C192.258 97.384 191.25 98.38 191.25 99.844C191.25 101.32 192.258 102.304 193.602 102.304ZM199.358 97.924C199.754 97.084 200.558 96.64 201.722 96.64V97.468C201.65 97.468 201.578 97.456 201.518 97.456C200.198 97.456 199.394 98.296 199.394 99.784V103H198.542V96.688H199.358V97.924ZM208.715 99.844C208.715 99.916 208.703 100.012 208.703 100.108H203.423C203.519 101.428 204.527 102.304 205.907 102.304C206.675 102.304 207.359 102.028 207.839 101.476L208.319 102.028C207.755 102.7 206.879 103.06 205.883 103.06C203.915 103.06 202.571 101.716 202.571 99.844C202.571 97.972 203.879 96.64 205.655 96.64C207.431 96.64 208.715 97.948 208.715 99.844ZM205.655 97.372C204.431 97.372 203.531 98.236 203.423 99.472H207.899C207.791 98.236 206.891 97.372 205.655 97.372ZM213.665 96.64C215.201 96.64 216.257 97.528 216.257 99.34V103H215.405V99.424C215.405 98.092 214.709 97.408 213.509 97.408C212.153 97.408 211.301 98.248 211.301 99.688V103H210.449V94.096H211.301V97.792C211.769 97.06 212.597 96.64 213.665 96.64ZM224.101 99.844C224.101 99.916 224.089 100.012 224.089 100.108H218.809C218.905 101.428 219.913 102.304 221.293 102.304C222.061 102.304 222.745 102.028 223.225 101.476L223.705 102.028C223.141 102.7 222.265 103.06 221.269 103.06C219.301 103.06 217.957 101.716 217.957 99.844C217.957 97.972 219.265 96.64 221.041 96.64C222.817 96.64 224.101 97.948 224.101 99.844ZM221.041 97.372C219.817 97.372 218.917 98.236 218.809 99.472H223.285C223.177 98.236 222.277 97.372 221.041 97.372ZM229.051 96.64C230.587 96.64 231.643 97.528 231.643 99.34V103H230.791V99.424C230.791 98.092 230.095 97.408 228.895 97.408C227.539 97.408 226.687 98.248 226.687 99.688V103H225.835V96.688H226.651V97.852C227.107 97.084 227.959 96.64 229.051 96.64ZM235.649 103.06C234.605 103.06 233.597 102.724 233.081 102.28L233.465 101.608C233.969 102.004 234.821 102.316 235.709 102.316C236.909 102.316 237.401 101.908 237.401 101.284C237.401 99.64 233.309 100.936 233.309 98.44C233.309 97.408 234.197 96.64 235.805 96.64C236.621 96.64 237.509 96.868 238.037 97.228L237.665 97.912C237.113 97.528 236.453 97.372 235.805 97.372C234.665 97.372 234.161 97.816 234.161 98.416C234.161 100.12 238.253 98.836 238.253 101.26C238.253 102.352 237.293 103.06 235.649 103.06ZM240.26 95.308C239.912 95.308 239.636 95.032 239.636 94.696C239.636 94.372 239.912 94.096 240.26 94.096C240.608 94.096 240.884 94.36 240.884 94.684C240.884 95.032 240.62 95.308 240.26 95.308ZM239.828 103V96.688H240.68V103H239.828ZM247.514 96.688H248.354L245.546 103H244.67L241.874 96.688H242.762L245.126 102.064L247.514 96.688ZM254.886 99.844C254.886 99.916 254.874 100.012 254.874 100.108H249.594C249.69 101.428 250.698 102.304 252.078 102.304C252.846 102.304 253.53 102.028 254.01 101.476L254.49 102.028C253.926 102.7 253.05 103.06 252.054 103.06C250.086 103.06 248.742 101.716 248.742 99.844C248.742 97.972 250.05 96.64 251.826 96.64C253.602 96.64 254.886 97.948 254.886 99.844ZM251.826 97.372C250.602 97.372 249.702 98.236 249.594 99.472H254.07C253.962 98.236 253.062 97.372 251.826 97.372ZM261.453 103.06C260.409 103.06 259.401 102.724 258.885 102.28L259.269 101.608C259.773 102.004 260.625 102.316 261.513 102.316C262.713 102.316 263.205 101.908 263.205 101.284C263.205 99.64 259.113 100.936 259.113 98.44C259.113 97.408 260.001 96.64 261.609 96.64C262.425 96.64 263.313 96.868 263.841 97.228L263.469 97.912C262.917 97.528 262.257 97.372 261.609 97.372C260.469 97.372 259.965 97.816 259.965 98.416C259.965 100.12 264.057 98.836 264.057 101.26C264.057 102.352 263.097 103.06 261.453 103.06ZM268.656 102.004L268.956 102.616C268.62 102.916 268.116 103.06 267.624 103.06C266.436 103.06 265.776 102.388 265.776 101.224V97.408H264.648V96.688H265.776V95.308H266.628V96.688H268.548V97.408H266.628V101.176C266.628 101.92 267.012 102.328 267.72 102.328C268.068 102.328 268.416 102.22 268.656 102.004ZM271.323 97.924C271.719 97.084 272.523 96.64 273.687 96.64V97.468C273.615 97.468 273.543 97.456 273.483 97.456C272.163 97.456 271.359 98.296 271.359 99.784V103H270.507V96.688H271.323V97.924ZM277.426 96.64C279.058 96.64 279.982 97.456 279.982 99.088V103H279.166V102.016C278.782 102.664 278.038 103.06 276.994 103.06C275.566 103.06 274.69 102.316 274.69 101.224C274.69 100.252 275.314 99.436 277.126 99.436H279.13V99.052C279.13 97.972 278.518 97.384 277.342 97.384C276.526 97.384 275.758 97.672 275.242 98.128L274.858 97.492C275.494 96.952 276.43 96.64 277.426 96.64ZM277.126 102.388C278.086 102.388 278.794 101.932 279.13 101.104V100.072H277.15C275.926 100.072 275.53 100.552 275.53 101.2C275.53 101.932 276.118 102.388 277.126 102.388ZM285.32 102.004L285.62 102.616C285.284 102.916 284.78 103.06 284.288 103.06C283.1 103.06 282.44 102.388 282.44 101.224V97.408H281.312V96.688H282.44V95.308H283.292V96.688H285.212V97.408H283.292V101.176C283.292 101.92 283.676 102.328 284.384 102.328C284.732 102.328 285.08 102.22 285.32 102.004ZM292.457 99.844C292.457 99.916 292.445 100.012 292.445 100.108H287.165C287.261 101.428 288.269 102.304 289.649 102.304C290.417 102.304 291.101 102.028 291.581 101.476L292.061 102.028C291.497 102.7 290.621 103.06 289.625 103.06C287.657 103.06 286.313 101.716 286.313 99.844C286.313 97.972 287.621 96.64 289.397 96.64C291.173 96.64 292.457 97.948 292.457 99.844ZM289.397 97.372C288.173 97.372 287.273 98.236 287.165 99.472H291.641C291.533 98.236 290.633 97.372 289.397 97.372ZM299.219 96.688H300.035V102.232C300.035 104.404 298.967 105.388 296.879 105.388C295.727 105.388 294.599 105.04 293.939 104.416L294.371 103.768C294.971 104.308 295.883 104.632 296.855 104.632C298.451 104.632 299.183 103.9 299.183 102.34V101.536C298.655 102.34 297.755 102.76 296.723 102.76C294.923 102.76 293.555 101.5 293.555 99.688C293.555 97.876 294.923 96.64 296.723 96.64C297.779 96.64 298.691 97.072 299.219 97.9V96.688ZM296.807 102.004C298.199 102.004 299.207 101.056 299.207 99.688C299.207 98.32 298.199 97.384 296.807 97.384C295.415 97.384 294.419 98.32 294.419 99.688C294.419 101.056 295.415 102.004 296.807 102.004ZM306.881 96.688H307.721L304.565 103.756C304.037 104.992 303.365 105.388 302.465 105.388C301.877 105.388 301.313 105.196 300.929 104.812L301.325 104.176C301.637 104.488 302.021 104.656 302.477 104.656C303.041 104.656 303.425 104.392 303.785 103.6L304.061 102.988L301.241 96.688H302.129L304.505 102.052L306.881 96.688ZM166.083 121.06C164.235 121.06 162.867 119.716 162.867 117.844C162.867 115.972 164.235 114.64 166.083 114.64C167.931 114.64 169.287 115.972 169.287 117.844C169.287 119.716 167.931 121.06 166.083 121.06ZM166.083 120.304C167.427 120.304 168.423 119.32 168.423 117.844C168.423 116.368 167.427 115.384 166.083 115.384C164.739 115.384 163.731 116.368 163.731 117.844C163.731 119.32 164.739 120.304 166.083 120.304ZM175.863 114.688H176.715V121H175.899V119.848C175.455 120.616 174.639 121.06 173.631 121.06C172.023 121.06 170.967 120.16 170.967 118.348V114.688H171.819V118.264C171.819 119.608 172.515 120.292 173.715 120.292C175.035 120.292 175.863 119.44 175.863 118V114.688ZM182.125 120.004L182.425 120.616C182.089 120.916 181.585 121.06 181.093 121.06C179.905 121.06 179.245 120.388 179.245 119.224V115.408H178.117V114.688H179.245V113.308H180.097V114.688H182.017V115.408H180.097V119.176C180.097 119.92 180.481 120.328 181.189 120.328C181.537 120.328 181.885 120.22 182.125 120.004ZM183.976 121V112.096H184.828V121H183.976ZM187.631 113.308C187.283 113.308 187.007 113.032 187.007 112.696C187.007 112.372 187.283 112.096 187.631 112.096C187.979 112.096 188.255 112.36 188.255 112.684C188.255 113.032 187.991 113.308 187.631 113.308ZM187.199 121V114.688H188.051V121H187.199ZM193.637 114.64C195.173 114.64 196.229 115.528 196.229 117.34V121H195.377V117.424C195.377 116.092 194.681 115.408 193.481 115.408C192.125 115.408 191.273 116.248 191.273 117.688V121H190.421V114.688H191.237V115.852C191.693 115.084 192.545 114.64 193.637 114.64ZM204.074 117.844C204.074 117.916 204.062 118.012 204.062 118.108H198.782C198.878 119.428 199.886 120.304 201.266 120.304C202.034 120.304 202.718 120.028 203.198 119.476L203.678 120.028C203.114 120.7 202.238 121.06 201.242 121.06C199.274 121.06 197.93 119.716 197.93 117.844C197.93 115.972 199.238 114.64 201.014 114.64C202.79 114.64 204.074 115.948 204.074 117.844ZM201.014 115.372C199.79 115.372 198.89 116.236 198.782 117.472H203.258C203.15 116.236 202.25 115.372 201.014 115.372ZM207.5 121.06C206.456 121.06 205.448 120.724 204.932 120.28L205.316 119.608C205.82 120.004 206.672 120.316 207.56 120.316C208.76 120.316 209.252 119.908 209.252 119.284C209.252 117.64 205.16 118.936 205.16 116.44C205.16 115.408 206.048 114.64 207.656 114.64C208.472 114.64 209.36 114.868 209.888 115.228L209.516 115.912C208.964 115.528 208.304 115.372 207.656 115.372C206.516 115.372 206.012 115.816 206.012 116.416C206.012 118.12 210.104 116.836 210.104 119.26C210.104 120.352 209.144 121.06 207.5 121.06ZM218.072 114.64C219.872 114.64 221.216 115.936 221.216 117.844C221.216 119.764 219.872 121.06 218.072 121.06C217.064 121.06 216.2 120.628 215.672 119.812V123.328H214.82V114.688H215.636V115.936C216.152 115.096 217.028 114.64 218.072 114.64ZM218.012 120.304C219.344 120.304 220.364 119.32 220.364 117.844C220.364 116.38 219.344 115.384 218.012 115.384C216.668 115.384 215.66 116.38 215.66 117.844C215.66 119.32 216.668 120.304 218.012 120.304ZM223.769 115.924C224.165 115.084 224.969 114.64 226.133 114.64V115.468C226.061 115.468 225.989 115.456 225.929 115.456C224.609 115.456 223.805 116.296 223.805 117.784V121H222.953V114.688H223.769V115.924ZM233.125 117.844C233.125 117.916 233.113 118.012 233.113 118.108H227.833C227.929 119.428 228.937 120.304 230.317 120.304C231.085 120.304 231.769 120.028 232.249 119.476L232.729 120.028C232.165 120.7 231.289 121.06 230.293 121.06C228.325 121.06 226.981 119.716 226.981 117.844C226.981 115.972 228.289 114.64 230.065 114.64C231.841 114.64 233.125 115.948 233.125 117.844ZM230.065 115.372C228.841 115.372 227.941 116.236 227.833 117.472H232.309C232.201 116.236 231.301 115.372 230.065 115.372ZM237.475 121.06C235.591 121.06 234.223 119.728 234.223 117.844C234.223 115.96 235.591 114.64 237.475 114.64C238.543 114.64 239.443 115.06 239.947 115.888L239.311 116.32C238.879 115.684 238.207 115.384 237.475 115.384C236.095 115.384 235.087 116.368 235.087 117.844C235.087 119.332 236.095 120.304 237.475 120.304C238.207 120.304 238.879 120.016 239.311 119.38L239.947 119.812C239.443 120.628 238.543 121.06 237.475 121.06ZM242.053 113.308C241.705 113.308 241.429 113.032 241.429 112.696C241.429 112.372 241.705 112.096 242.053 112.096C242.401 112.096 242.677 112.36 242.677 112.684C242.677 113.032 242.413 113.308 242.053 113.308ZM241.621 121V114.688H242.473V121H241.621ZM246.535 121.06C245.491 121.06 244.483 120.724 243.967 120.28L244.351 119.608C244.855 120.004 245.707 120.316 246.595 120.316C247.795 120.316 248.287 119.908 248.287 119.284C248.287 117.64 244.195 118.936 244.195 116.44C244.195 115.408 245.083 114.64 246.691 114.64C247.507 114.64 248.395 114.868 248.923 115.228L248.551 115.912C247.999 115.528 247.339 115.372 246.691 115.372C245.551 115.372 245.047 115.816 245.047 116.416C245.047 118.12 249.139 116.836 249.139 119.26C249.139 120.352 248.179 121.06 246.535 121.06ZM256.222 117.844C256.222 117.916 256.21 118.012 256.21 118.108H250.93C251.026 119.428 252.034 120.304 253.414 120.304C254.182 120.304 254.866 120.028 255.346 119.476L255.826 120.028C255.262 120.7 254.386 121.06 253.39 121.06C251.422 121.06 250.078 119.716 250.078 117.844C250.078 115.972 251.386 114.64 253.162 114.64C254.938 114.64 256.222 115.948 256.222 117.844ZM253.162 115.372C251.938 115.372 251.038 116.236 250.93 117.472H255.406C255.298 116.236 254.398 115.372 253.162 115.372ZM262.789 121.06C261.745 121.06 260.737 120.724 260.221 120.28L260.605 119.608C261.109 120.004 261.961 120.316 262.849 120.316C264.049 120.316 264.541 119.908 264.541 119.284C264.541 117.64 260.449 118.936 260.449 116.44C260.449 115.408 261.337 114.64 262.945 114.64C263.761 114.64 264.649 114.868 265.177 115.228L264.805 115.912C264.253 115.528 263.593 115.372 262.945 115.372C261.805 115.372 261.301 115.816 261.301 116.416C261.301 118.12 265.393 116.836 265.393 119.26C265.393 120.352 264.433 121.06 262.789 121.06ZM269.992 120.004L270.292 120.616C269.956 120.916 269.452 121.06 268.96 121.06C267.772 121.06 267.112 120.388 267.112 119.224V115.408H265.984V114.688H267.112V113.308H267.964V114.688H269.884V115.408H267.964V119.176C267.964 119.92 268.348 120.328 269.056 120.328C269.404 120.328 269.752 120.22 269.992 120.004ZM277.129 117.844C277.129 117.916 277.117 118.012 277.117 118.108H271.837C271.933 119.428 272.941 120.304 274.321 120.304C275.089 120.304 275.773 120.028 276.253 119.476L276.733 120.028C276.169 120.7 275.293 121.06 274.297 121.06C272.329 121.06 270.985 119.716 270.985 117.844C270.985 115.972 272.293 114.64 274.069 114.64C275.845 114.64 277.129 115.948 277.129 117.844ZM274.069 115.372C272.845 115.372 271.945 116.236 271.837 117.472H276.313C276.205 116.236 275.305 115.372 274.069 115.372ZM282.115 114.64C283.915 114.64 285.259 115.936 285.259 117.844C285.259 119.764 283.915 121.06 282.115 121.06C281.107 121.06 280.243 120.628 279.715 119.812V123.328H278.863V114.688H279.679V115.936C280.195 115.096 281.071 114.64 282.115 114.64ZM282.055 120.304C283.387 120.304 284.407 119.32 284.407 117.844C284.407 116.38 283.387 115.384 282.055 115.384C280.711 115.384 279.703 116.38 279.703 117.844C279.703 119.32 280.711 120.304 282.055 120.304ZM288.688 121.06C287.644 121.06 286.636 120.724 286.12 120.28L286.504 119.608C287.008 120.004 287.86 120.316 288.748 120.316C289.948 120.316 290.44 119.908 290.44 119.284C290.44 117.64 286.348 118.936 286.348 116.44C286.348 115.408 287.236 114.64 288.844 114.64C289.66 114.64 290.548 114.868 291.076 115.228L290.704 115.912C290.152 115.528 289.492 115.372 288.844 115.372C287.704 115.372 287.2 115.816 287.2 116.416C287.2 118.12 291.292 116.836 291.292 119.26C291.292 120.352 290.332 121.06 288.688 121.06ZM298.215 114.64C299.847 114.64 300.771 115.456 300.771 117.088V121H299.955V120.016C299.571 120.664 298.827 121.06 297.783 121.06C296.355 121.06 295.479 120.316 295.479 119.224C295.479 118.252 296.103 117.436 297.915 117.436H299.919V117.052C299.919 115.972 299.307 115.384 298.131 115.384C297.315 115.384 296.547 115.672 296.031 116.128L295.647 115.492C296.283 114.952 297.219 114.64 298.215 114.64ZM297.915 120.388C298.875 120.388 299.583 119.932 299.919 119.104V118.072H297.939C296.715 118.072 296.319 118.552 296.319 119.2C296.319 119.932 296.907 120.388 297.915 120.388ZM306.301 114.64C307.837 114.64 308.893 115.528 308.893 117.34V121H308.041V117.424C308.041 116.092 307.345 115.408 306.145 115.408C304.789 115.408 303.937 116.248 303.937 117.688V121H303.085V114.688H303.901V115.852C304.357 115.084 305.209 114.64 306.301 114.64ZM316.138 112.096H316.99V121H316.174V119.752C315.658 120.604 314.782 121.06 313.738 121.06C311.938 121.06 310.594 119.752 310.594 117.844C310.594 115.936 311.938 114.64 313.738 114.64C314.746 114.64 315.61 115.072 316.138 115.888V112.096ZM313.81 120.304C315.142 120.304 316.15 119.32 316.15 117.844C316.15 116.368 315.142 115.384 313.81 115.384C312.466 115.384 311.458 116.368 311.458 117.844C311.458 119.32 312.466 120.304 313.81 120.304ZM166.527 138.004L166.827 138.616C166.491 138.916 165.987 139.06 165.495 139.06C164.307 139.06 163.647 138.388 163.647 137.224V133.408H162.519V132.688H163.647V131.308H164.499V132.688H166.419V133.408H164.499V137.176C164.499 137.92 164.883 138.328 165.591 138.328C165.939 138.328 166.287 138.22 166.527 138.004ZM168.81 131.308C168.462 131.308 168.186 131.032 168.186 130.696C168.186 130.372 168.462 130.096 168.81 130.096C169.158 130.096 169.434 130.36 169.434 130.684C169.434 131.032 169.17 131.308 168.81 131.308ZM168.378 139V132.688H169.23V139H168.378ZM179.473 132.64C181.009 132.64 182.017 133.528 182.017 135.34V139H181.165V135.424C181.165 134.092 180.493 133.408 179.353 133.408C178.057 133.408 177.241 134.248 177.241 135.688V139H176.389V135.424C176.389 134.092 175.717 133.408 174.565 133.408C173.281 133.408 172.453 134.248 172.453 135.688V139H171.601V132.688H172.417V133.84C172.861 133.084 173.677 132.64 174.733 132.64C175.777 132.64 176.593 133.084 176.977 133.972C177.433 133.156 178.333 132.64 179.473 132.64ZM189.859 135.844C189.859 135.916 189.847 136.012 189.847 136.108H184.567C184.663 137.428 185.671 138.304 187.051 138.304C187.819 138.304 188.503 138.028 188.983 137.476L189.463 138.028C188.899 138.7 188.023 139.06 187.027 139.06C185.059 139.06 183.715 137.716 183.715 135.844C183.715 133.972 185.023 132.64 186.799 132.64C188.575 132.64 189.859 133.948 189.859 135.844ZM186.799 133.372C185.575 133.372 184.675 134.236 184.567 135.472H189.043C188.935 134.236 188.035 133.372 186.799 133.372ZM191.593 139V130.096H192.445V139H191.593ZM195.248 131.308C194.9 131.308 194.624 131.032 194.624 130.696C194.624 130.372 194.9 130.096 195.248 130.096C195.596 130.096 195.872 130.36 195.872 130.684C195.872 131.032 195.608 131.308 195.248 131.308ZM194.816 139V132.688H195.668V139H194.816ZM201.255 132.64C202.791 132.64 203.847 133.528 203.847 135.34V139H202.995V135.424C202.995 134.092 202.299 133.408 201.099 133.408C199.743 133.408 198.891 134.248 198.891 135.688V139H198.039V132.688H198.855V133.852C199.311 133.084 200.163 132.64 201.255 132.64ZM211.691 135.844C211.691 135.916 211.679 136.012 211.679 136.108H206.399C206.495 137.428 207.503 138.304 208.883 138.304C209.651 138.304 210.335 138.028 210.815 137.476L211.295 138.028C210.731 138.7 209.855 139.06 208.859 139.06C206.891 139.06 205.547 137.716 205.547 135.844C205.547 133.972 206.855 132.64 208.631 132.64C210.407 132.64 211.691 133.948 211.691 135.844ZM208.631 133.372C207.407 133.372 206.507 134.236 206.399 135.472H210.875C210.767 134.236 209.867 133.372 208.631 133.372ZM215.117 139.06C214.073 139.06 213.065 138.724 212.549 138.28L212.933 137.608C213.437 138.004 214.289 138.316 215.177 138.316C216.377 138.316 216.869 137.908 216.869 137.284C216.869 135.64 212.777 136.936 212.777 134.44C212.777 133.408 213.665 132.64 215.273 132.64C216.089 132.64 216.977 132.868 217.505 133.228L217.133 133.912C216.581 133.528 215.921 133.372 215.273 133.372C214.133 133.372 213.629 133.816 213.629 134.416C213.629 136.12 217.721 134.836 217.721 137.26C217.721 138.352 216.761 139.06 215.117 139.06ZM219.392 137.752C219.764 137.752 220.028 138.04 220.028 138.4C220.028 138.604 219.98 138.76 219.86 139.096L219.356 140.752H218.78L219.188 139.012C218.936 138.94 218.756 138.712 218.756 138.4C218.756 138.028 219.032 137.752 219.392 137.752ZM230.008 132.688H230.824V138.232C230.824 140.404 229.756 141.388 227.668 141.388C226.516 141.388 225.388 141.04 224.728 140.416L225.16 139.768C225.76 140.308 226.672 140.632 227.644 140.632C229.24 140.632 229.972 139.9 229.972 138.34V137.536C229.444 138.34 228.544 138.76 227.512 138.76C225.712 138.76 224.344 137.5 224.344 135.688C224.344 133.876 225.712 132.64 227.512 132.64C228.568 132.64 229.48 133.072 230.008 133.9V132.688ZM227.596 138.004C228.988 138.004 229.996 137.056 229.996 135.688C229.996 134.32 228.988 133.384 227.596 133.384C226.204 133.384 225.208 134.32 225.208 135.688C225.208 137.056 226.204 138.004 227.596 138.004ZM238.043 132.688H238.895V139H238.079V137.848C237.635 138.616 236.819 139.06 235.811 139.06C234.203 139.06 233.147 138.16 233.147 136.348V132.688H233.999V136.264C233.999 137.608 234.695 138.292 235.895 138.292C237.215 138.292 238.043 137.44 238.043 136V132.688ZM243.489 132.64C245.121 132.64 246.045 133.456 246.045 135.088V139H245.229V138.016C244.845 138.664 244.101 139.06 243.057 139.06C241.629 139.06 240.753 138.316 240.753 137.224C240.753 136.252 241.377 135.436 243.189 135.436H245.193V135.052C245.193 133.972 244.581 133.384 243.405 133.384C242.589 133.384 241.821 133.672 241.305 134.128L240.921 133.492C241.557 132.952 242.493 132.64 243.489 132.64ZM243.189 138.388C244.149 138.388 244.857 137.932 245.193 137.104V136.072H243.213C241.989 136.072 241.593 136.552 241.593 137.2C241.593 137.932 242.181 138.388 243.189 138.388ZM249.175 133.924C249.571 133.084 250.375 132.64 251.539 132.64V133.468C251.467 133.468 251.395 133.456 251.335 133.456C250.015 133.456 249.211 134.296 249.211 135.784V139H248.359V132.688H249.175V133.924ZM255.278 132.64C256.91 132.64 257.834 133.456 257.834 135.088V139H257.018V138.016C256.634 138.664 255.89 139.06 254.846 139.06C253.418 139.06 252.542 138.316 252.542 137.224C252.542 136.252 253.166 135.436 254.978 135.436H256.982V135.052C256.982 133.972 256.37 133.384 255.194 133.384C254.378 133.384 253.61 133.672 253.094 134.128L252.71 133.492C253.346 132.952 254.282 132.64 255.278 132.64ZM254.978 138.388C255.938 138.388 256.646 137.932 256.982 137.104V136.072H255.002C253.778 136.072 253.382 136.552 253.382 137.2C253.382 137.932 253.97 138.388 254.978 138.388ZM263.364 132.64C264.9 132.64 265.956 133.528 265.956 135.34V139H265.104V135.424C265.104 134.092 264.408 133.408 263.208 133.408C261.852 133.408 261 134.248 261 135.688V139H260.148V132.688H260.964V133.852C261.42 133.084 262.272 132.64 263.364 132.64ZM271.293 138.004L271.593 138.616C271.257 138.916 270.753 139.06 270.261 139.06C269.073 139.06 268.413 138.388 268.413 137.224V133.408H267.285V132.688H268.413V131.308H269.265V132.688H271.185V133.408H269.265V137.176C269.265 137.92 269.649 138.328 270.357 138.328C270.705 138.328 271.053 138.22 271.293 138.004ZM278.429 135.844C278.429 135.916 278.417 136.012 278.417 136.108H273.137C273.233 137.428 274.241 138.304 275.621 138.304C276.389 138.304 277.073 138.028 277.553 137.476L278.033 138.028C277.469 138.7 276.593 139.06 275.597 139.06C273.629 139.06 272.285 137.716 272.285 135.844C272.285 133.972 273.593 132.64 275.369 132.64C277.145 132.64 278.429 133.948 278.429 135.844ZM275.369 133.372C274.145 133.372 273.245 134.236 273.137 135.472H277.613C277.505 134.236 276.605 133.372 275.369 133.372ZM285.672 135.844C285.672 135.916 285.66 136.012 285.66 136.108H280.38C280.476 137.428 281.484 138.304 282.864 138.304C283.632 138.304 284.316 138.028 284.796 137.476L285.276 138.028C284.712 138.7 283.836 139.06 282.84 139.06C280.872 139.06 279.528 137.716 279.528 135.844C279.528 133.972 280.836 132.64 282.612 132.64C284.388 132.64 285.672 133.948 285.672 135.844ZM282.612 133.372C281.388 133.372 280.488 134.236 280.38 135.472H284.856C284.748 134.236 283.848 133.372 282.612 133.372ZM287.838 131.308C287.49 131.308 287.214 131.032 287.214 130.696C287.214 130.372 287.49 130.096 287.838 130.096C288.186 130.096 288.462 130.36 288.462 130.684C288.462 131.032 288.198 131.308 287.838 131.308ZM287.406 139V132.688H288.258V139H287.406ZM293.844 132.64C295.38 132.64 296.436 133.528 296.436 135.34V139H295.584V135.424C295.584 134.092 294.888 133.408 293.688 133.408C292.332 133.408 291.48 134.248 291.48 135.688V139H290.628V132.688H291.444V133.852C291.9 133.084 292.752 132.64 293.844 132.64ZM303.801 132.688H304.617V138.232C304.617 140.404 303.549 141.388 301.461 141.388C300.309 141.388 299.181 141.04 298.521 140.416L298.953 139.768C299.553 140.308 300.465 140.632 301.437 140.632C303.033 140.632 303.765 139.9 303.765 138.34V137.536C303.237 138.34 302.337 138.76 301.305 138.76C299.505 138.76 298.137 137.5 298.137 135.688C298.137 133.876 299.505 132.64 301.305 132.64C302.361 132.64 303.273 133.072 303.801 133.9V132.688ZM301.389 138.004C302.781 138.004 303.789 137.056 303.789 135.688C303.789 134.32 302.781 133.384 301.389 133.384C299.997 133.384 299.001 134.32 299.001 135.688C299.001 137.056 299.997 138.004 301.389 138.004ZM312.348 132.64C313.98 132.64 314.904 133.456 314.904 135.088V139H314.088V138.016C313.704 138.664 312.96 139.06 311.916 139.06C310.488 139.06 309.612 138.316 309.612 137.224C309.612 136.252 310.236 135.436 312.048 135.436H314.052V135.052C314.052 133.972 313.44 133.384 312.264 133.384C311.448 133.384 310.68 133.672 310.164 134.128L309.78 133.492C310.416 132.952 311.352 132.64 312.348 132.64ZM312.048 138.388C313.008 138.388 313.716 137.932 314.052 137.104V136.072H312.072C310.848 136.072 310.452 136.552 310.452 137.2C310.452 137.932 311.04 138.388 312.048 138.388ZM168.531 150.688H169.347V156.232C169.347 158.404 168.279 159.388 166.191 159.388C165.039 159.388 163.911 159.04 163.251 158.416L163.683 157.768C164.283 158.308 165.195 158.632 166.167 158.632C167.763 158.632 168.495 157.9 168.495 156.34V155.536C167.967 156.34 167.067 156.76 166.035 156.76C164.235 156.76 162.867 155.5 162.867 153.688C162.867 151.876 164.235 150.64 166.035 150.64C167.091 150.64 168.003 151.072 168.531 151.9V150.688ZM166.119 156.004C167.511 156.004 168.519 155.056 168.519 153.688C168.519 152.32 167.511 151.384 166.119 151.384C164.727 151.384 163.731 152.32 163.731 153.688C163.731 155.056 164.727 156.004 166.119 156.004ZM173.938 150.64C175.57 150.64 176.494 151.456 176.494 153.088V157H175.678V156.016C175.294 156.664 174.55 157.06 173.506 157.06C172.078 157.06 171.202 156.316 171.202 155.224C171.202 154.252 171.826 153.436 173.638 153.436H175.642V153.052C175.642 151.972 175.03 151.384 173.854 151.384C173.038 151.384 172.27 151.672 171.754 152.128L171.37 151.492C172.006 150.952 172.942 150.64 173.938 150.64ZM173.638 156.388C174.598 156.388 175.306 155.932 175.642 155.104V154.072H173.662C172.438 154.072 172.042 154.552 172.042 155.2C172.042 155.932 172.63 156.388 173.638 156.388ZM186.68 150.64C188.216 150.64 189.224 151.528 189.224 153.34V157H188.372V153.424C188.372 152.092 187.7 151.408 186.56 151.408C185.264 151.408 184.448 152.248 184.448 153.688V157H183.596V153.424C183.596 152.092 182.924 151.408 181.772 151.408C180.488 151.408 179.66 152.248 179.66 153.688V157H178.808V150.688H179.624V151.84C180.068 151.084 180.884 150.64 181.94 150.64C182.984 150.64 183.8 151.084 184.184 151.972C184.64 151.156 185.54 150.64 186.68 150.64ZM197.066 153.844C197.066 153.916 197.054 154.012 197.054 154.108H191.774C191.87 155.428 192.878 156.304 194.258 156.304C195.026 156.304 195.71 156.028 196.19 155.476L196.67 156.028C196.106 156.7 195.23 157.06 194.234 157.06C192.266 157.06 190.922 155.716 190.922 153.844C190.922 151.972 192.23 150.64 194.006 150.64C195.782 150.64 197.066 151.948 197.066 153.844ZM194.006 151.372C192.782 151.372 191.882 152.236 191.774 153.472H196.25C196.142 152.236 195.242 151.372 194.006 151.372ZM198.449 154.12V153.376H201.593V154.12H198.449ZM206.233 157.06C204.349 157.06 202.981 155.728 202.981 153.844C202.981 151.96 204.349 150.64 206.233 150.64C207.301 150.64 208.201 151.06 208.705 151.888L208.069 152.32C207.637 151.684 206.965 151.384 206.233 151.384C204.853 151.384 203.845 152.368 203.845 153.844C203.845 155.332 204.853 156.304 206.233 156.304C206.965 156.304 207.637 156.016 208.069 155.38L208.705 155.812C208.201 156.628 207.301 157.06 206.233 157.06ZM213.501 150.64C215.037 150.64 216.093 151.528 216.093 153.34V157H215.241V153.424C215.241 152.092 214.545 151.408 213.345 151.408C211.989 151.408 211.137 152.248 211.137 153.688V157H210.285V148.096H211.137V151.792C211.605 151.06 212.433 150.64 213.501 150.64ZM220.614 150.64C222.246 150.64 223.17 151.456 223.17 153.088V157H222.354V156.016C221.97 156.664 221.226 157.06 220.182 157.06C218.754 157.06 217.878 156.316 217.878 155.224C217.878 154.252 218.502 153.436 220.314 153.436H222.318V153.052C222.318 151.972 221.706 151.384 220.53 151.384C219.714 151.384 218.946 151.672 218.43 152.128L218.046 151.492C218.682 150.952 219.618 150.64 220.614 150.64ZM220.314 156.388C221.274 156.388 221.982 155.932 222.318 155.104V154.072H220.338C219.114 154.072 218.718 154.552 218.718 155.2C218.718 155.932 219.306 156.388 220.314 156.388ZM228.7 150.64C230.236 150.64 231.292 151.528 231.292 153.34V157H230.44V153.424C230.44 152.092 229.744 151.408 228.544 151.408C227.188 151.408 226.336 152.248 226.336 153.688V157H225.484V150.688H226.3V151.852C226.756 151.084 227.608 150.64 228.7 150.64ZM238.656 150.688H239.472V156.232C239.472 158.404 238.404 159.388 236.316 159.388C235.164 159.388 234.036 159.04 233.376 158.416L233.808 157.768C234.408 158.308 235.32 158.632 236.292 158.632C237.888 158.632 238.62 157.9 238.62 156.34V155.536C238.092 156.34 237.192 156.76 236.16 156.76C234.36 156.76 232.992 155.5 232.992 153.688C232.992 151.876 234.36 150.64 236.16 150.64C237.216 150.64 238.128 151.072 238.656 151.9V150.688ZM236.244 156.004C237.636 156.004 238.644 155.056 238.644 153.688C238.644 152.32 237.636 151.384 236.244 151.384C234.852 151.384 233.856 152.32 233.856 153.688C233.856 155.056 234.852 156.004 236.244 156.004ZM242.287 149.308C241.939 149.308 241.663 149.032 241.663 148.696C241.663 148.372 241.939 148.096 242.287 148.096C242.635 148.096 242.911 148.36 242.911 148.684C242.911 149.032 242.647 149.308 242.287 149.308ZM241.855 157V150.688H242.707V157H241.855ZM248.294 150.64C249.83 150.64 250.886 151.528 250.886 153.34V157H250.034V153.424C250.034 152.092 249.338 151.408 248.138 151.408C246.782 151.408 245.93 152.248 245.93 153.688V157H245.078V150.688H245.894V151.852C246.35 151.084 247.202 150.64 248.294 150.64ZM258.25 150.688H259.066V156.232C259.066 158.404 257.998 159.388 255.91 159.388C254.758 159.388 253.63 159.04 252.97 158.416L253.402 157.768C254.002 158.308 254.914 158.632 255.886 158.632C257.482 158.632 258.214 157.9 258.214 156.34V155.536C257.686 156.34 256.786 156.76 255.754 156.76C253.954 156.76 252.586 155.5 252.586 153.688C252.586 151.876 253.954 150.64 255.754 150.64C256.81 150.64 257.722 151.072 258.25 151.9V150.688ZM255.838 156.004C257.23 156.004 258.238 155.056 258.238 153.688C258.238 152.32 257.23 151.384 255.838 151.384C254.446 151.384 253.45 152.32 253.45 153.688C253.45 155.056 254.446 156.004 255.838 156.004ZM269.497 148.096H270.349V157H269.533V155.752C269.017 156.604 268.141 157.06 267.097 157.06C265.297 157.06 263.953 155.752 263.953 153.844C263.953 151.936 265.297 150.64 267.097 150.64C268.105 150.64 268.969 151.072 269.497 151.888V148.096ZM267.169 156.304C268.501 156.304 269.509 155.32 269.509 153.844C269.509 152.368 268.501 151.384 267.169 151.384C265.825 151.384 264.817 152.368 264.817 153.844C264.817 155.32 265.825 156.304 267.169 156.304ZM278.23 153.844C278.23 153.916 278.218 154.012 278.218 154.108H272.938C273.034 155.428 274.042 156.304 275.422 156.304C276.19 156.304 276.874 156.028 277.354 155.476L277.834 156.028C277.27 156.7 276.394 157.06 275.398 157.06C273.43 157.06 272.086 155.716 272.086 153.844C272.086 151.972 273.394 150.64 275.17 150.64C276.946 150.64 278.23 151.948 278.23 153.844ZM275.17 151.372C273.946 151.372 273.046 152.236 272.938 153.472H277.414C277.306 152.236 276.406 151.372 275.17 151.372ZM279.964 157V148.096H280.816V157H279.964ZM283.619 149.308C283.271 149.308 282.995 149.032 282.995 148.696C282.995 148.372 283.271 148.096 283.619 148.096C283.967 148.096 284.243 148.36 284.243 148.684C284.243 149.032 283.979 149.308 283.619 149.308ZM283.187 157V150.688H284.039V157H283.187ZM290.874 150.688H291.714L288.906 157H288.03L285.234 150.688H286.122L288.486 156.064L290.874 150.688ZM298.246 153.844C298.246 153.916 298.234 154.012 298.234 154.108H292.954C293.05 155.428 294.058 156.304 295.438 156.304C296.206 156.304 296.89 156.028 297.37 155.476L297.85 156.028C297.286 156.7 296.41 157.06 295.414 157.06C293.446 157.06 292.102 155.716 292.102 153.844C292.102 151.972 293.41 150.64 295.186 150.64C296.962 150.64 298.246 151.948 298.246 153.844ZM295.186 151.372C293.962 151.372 293.062 152.236 292.954 153.472H297.43C297.322 152.236 296.422 151.372 295.186 151.372ZM300.796 151.924C301.192 151.084 301.996 150.64 303.16 150.64V151.468C303.088 151.468 303.016 151.456 302.956 151.456C301.636 151.456 300.832 152.296 300.832 153.784V157H299.98V150.688H300.796V151.924ZM309.436 150.688H310.276L307.12 157.756C306.592 158.992 305.92 159.388 305.02 159.388C304.432 159.388 303.868 159.196 303.484 158.812L303.88 158.176C304.192 158.488 304.576 158.656 305.032 158.656C305.596 158.656 305.98 158.392 306.34 157.6L306.616 156.988L303.796 150.688H304.684L307.06 156.052L309.436 150.688ZM311.15 157.06C310.802 157.06 310.514 156.772 310.514 156.4C310.514 156.028 310.802 155.752 311.15 155.752C311.498 155.752 311.798 156.028 311.798 156.4C311.798 156.772 311.498 157.06 311.15 157.06Z" fill="white"/>
<defs>
<linearGradient id="paint0_linear_974_809" x1="0" y1="21" x2="133.437" y2="35.0002" gradientUnits="userSpaceOnUse">
<stop stop-color="#70C0B2"/>
<stop offset="0.293999" stop-color="#0198B6"/>
<stop offset="0.817393" stop-color="#007289"/>
</linearGradient>
</defs>
</svg>
