<svg width="328" height="144" viewBox="0 0 328 144" fill="none" xmlns="http://www.w3.org/2000/svg">
<path d="M33.4827 78V66.8H38.3787C39.5947 66.8 40.6614 67.0347 41.5787 67.504C42.4961 67.9733 43.2107 68.624 43.7227 69.456C44.2347 70.288 44.4907 71.2693 44.4907 72.4C44.4907 73.52 44.2347 74.5013 43.7227 75.344C43.2107 76.176 42.4961 76.8267 41.5787 77.296C40.6614 77.7653 39.5947 78 38.3787 78H33.4827ZM35.5627 76.24H38.2827C39.1254 76.24 39.8507 76.08 40.4587 75.76C41.0774 75.44 41.5521 74.992 41.8827 74.416C42.2241 73.84 42.3947 73.168 42.3947 72.4C42.3947 71.6213 42.2241 70.9493 41.8827 70.384C41.5521 69.808 41.0774 69.36 40.4587 69.04C39.8507 68.72 39.1254 68.56 38.2827 68.56H35.5627V76.24ZM50.5255 78.112C49.5761 78.112 48.7441 77.9253 48.0295 77.552C47.3255 77.168 46.7761 76.6453 46.3815 75.984C45.9975 75.3227 45.8055 74.5707 45.8055 73.728C45.8055 72.8747 45.9921 72.1227 46.3655 71.472C46.7495 70.8107 47.2721 70.2933 47.9335 69.92C48.6055 69.5467 49.3681 69.36 50.2215 69.36C51.0535 69.36 51.7948 69.5413 52.4455 69.904C53.0961 70.2667 53.6081 70.7787 53.9815 71.44C54.3548 72.1013 54.5415 72.88 54.5415 73.776C54.5415 73.8613 54.5361 73.9573 54.5255 74.064C54.5255 74.1707 54.5201 74.272 54.5095 74.368H47.3895V73.04H53.4535L52.6695 73.456C52.6801 72.9653 52.5788 72.5333 52.3655 72.16C52.1521 71.7867 51.8588 71.4933 51.4855 71.28C51.1228 71.0667 50.7015 70.96 50.2215 70.96C49.7308 70.96 49.2988 71.0667 48.9255 71.28C48.5628 71.4933 48.2748 71.792 48.0615 72.176C47.8588 72.5493 47.7575 72.992 47.7575 73.504V73.824C47.7575 74.336 47.8748 74.7893 48.1095 75.184C48.3441 75.5787 48.6748 75.8827 49.1015 76.096C49.5281 76.3093 50.0188 76.416 50.5735 76.416C51.0535 76.416 51.4855 76.3413 51.8695 76.192C52.2535 76.0427 52.5948 75.808 52.8935 75.488L53.9655 76.72C53.5815 77.168 53.0961 77.5147 52.5095 77.76C51.9335 77.9947 51.2721 78.112 50.5255 78.112ZM56.4626 78V66.128H58.4626V78H56.4626ZM61.0876 78V69.456H63.0876V78H61.0876ZM62.0956 68.048C61.7223 68.048 61.4129 67.9307 61.1676 67.696C60.9329 67.4613 60.8156 67.1787 60.8156 66.848C60.8156 66.5067 60.9329 66.224 61.1676 66C61.4129 65.7653 61.7223 65.648 62.0956 65.648C62.4689 65.648 62.7729 65.76 63.0076 65.984C63.2529 66.1973 63.3756 66.4693 63.3756 66.8C63.3756 67.152 63.2583 67.4507 63.0236 67.696C62.7889 67.9307 62.4796 68.048 62.0956 68.048ZM67.9846 78L64.3206 69.456L66.4006 69.456L69.5526 76.992L68.5286 76.992L71.7926 69.456H73.7126L70.0486 78L67.9846 78ZM78.7442 78.112C77.7949 78.112 76.9629 77.9253 76.2482 77.552C75.5442 77.168 74.9949 76.6453 74.6002 75.984C74.2162 75.3227 74.0242 74.5707 74.0242 73.728C74.0242 72.8747 74.2109 72.1227 74.5842 71.472C74.9682 70.8107 75.4909 70.2933 76.1522 69.92C76.8242 69.5467 77.5869 69.36 78.4402 69.36C79.2722 69.36 80.0136 69.5413 80.6642 69.904C81.3149 70.2667 81.8269 70.7787 82.2002 71.44C82.5736 72.1013 82.7602 72.88 82.7602 73.776C82.7602 73.8613 82.7549 73.9573 82.7442 74.064C82.7442 74.1707 82.7389 74.272 82.7282 74.368H75.6082V73.04H81.6722L80.8882 73.456C80.8989 72.9653 80.7976 72.5333 80.5842 72.16C80.3709 71.7867 80.0776 71.4933 79.7042 71.28C79.3416 71.0667 78.9202 70.96 78.4402 70.96C77.9496 70.96 77.5176 71.0667 77.1442 71.28C76.7816 71.4933 76.4936 71.792 76.2802 72.176C76.0776 72.5493 75.9762 72.992 75.9762 73.504V73.824C75.9762 74.336 76.0936 74.7893 76.3282 75.184C76.5629 75.5787 76.8936 75.8827 77.3202 76.096C77.7469 76.3093 78.2376 76.416 78.7922 76.416C79.2722 76.416 79.7042 76.3413 80.0882 76.192C80.4722 76.0427 80.8136 75.808 81.1122 75.488L82.1842 76.72C81.8002 77.168 81.3149 77.5147 80.7282 77.76C80.1522 77.9947 79.4909 78.112 78.7442 78.112ZM84.6814 78V69.456H86.5854V71.808L86.3614 71.12C86.6174 70.544 87.0174 70.1067 87.5614 69.808C88.116 69.5093 88.804 69.36 89.6254 69.36V71.264C89.54 71.2427 89.46 71.232 89.3854 71.232C89.3107 71.2213 89.236 71.216 89.1614 71.216C88.404 71.216 87.8014 71.44 87.3534 71.888C86.9054 72.3253 86.6814 72.9813 86.6814 73.856V78H84.6814Z" fill="#0198B5"/>
<path d="M115.315 72C115.315 101.146 91.1947 125 61.1576 125C31.1205 125 7 101.146 7 72C7 42.8544 31.1205 19 61.1576 19C91.1947 19 115.315 42.8544 115.315 72Z" stroke="url(#paint0_linear_937_77)" stroke-width="14"/>
<path d="M165.315 13V5.368H162.363V4.6H169.155V5.368H166.203V13H165.315ZM173.61 6.64C175.146 6.64 176.202 7.528 176.202 9.34V13H175.35V9.424C175.35 8.092 174.654 7.408 173.454 7.408C172.098 7.408 171.246 8.248 171.246 9.688V13H170.394V4.096H171.246V7.792C171.714 7.06 172.542 6.64 173.61 6.64ZM179.331 7.924C179.727 7.084 180.531 6.64 181.695 6.64V7.468C181.623 7.468 181.551 7.456 181.491 7.456C180.171 7.456 179.367 8.296 179.367 9.784V13H178.515V6.688H179.331V7.924ZM185.759 13.06C183.911 13.06 182.543 11.716 182.543 9.844C182.543 7.972 183.911 6.64 185.759 6.64C187.607 6.64 188.963 7.972 188.963 9.844C188.963 11.716 187.607 13.06 185.759 13.06ZM185.759 12.304C187.103 12.304 188.099 11.32 188.099 9.844C188.099 8.368 187.103 7.384 185.759 7.384C184.415 7.384 183.407 8.368 183.407 9.844C183.407 11.32 184.415 12.304 185.759 12.304ZM195.539 6.688H196.391V13H195.575V11.848C195.131 12.616 194.315 13.06 193.307 13.06C191.699 13.06 190.643 12.16 190.643 10.348V6.688H191.495V10.264C191.495 11.608 192.191 12.292 193.391 12.292C194.711 12.292 195.539 11.44 195.539 10V6.688ZM203.805 6.688H204.621V12.232C204.621 14.404 203.553 15.388 201.465 15.388C200.313 15.388 199.185 15.04 198.525 14.416L198.957 13.768C199.557 14.308 200.469 14.632 201.441 14.632C203.037 14.632 203.769 13.9 203.769 12.34V11.536C203.241 12.34 202.341 12.76 201.309 12.76C199.509 12.76 198.141 11.5 198.141 9.688C198.141 7.876 199.509 6.64 201.309 6.64C202.365 6.64 203.277 7.072 203.805 7.9V6.688ZM201.393 12.004C202.785 12.004 203.793 11.056 203.793 9.688C203.793 8.32 202.785 7.384 201.393 7.384C200.001 7.384 199.005 8.32 199.005 9.688C199.005 11.056 200.001 12.004 201.393 12.004ZM210.219 6.64C211.755 6.64 212.811 7.528 212.811 9.34V13H211.959V9.424C211.959 8.092 211.263 7.408 210.063 7.408C208.707 7.408 207.855 8.248 207.855 9.688V13H207.003V4.096H207.855V7.792C208.323 7.06 209.151 6.64 210.219 6.64ZM220.845 13.06C218.997 13.06 217.629 11.716 217.629 9.844C217.629 7.972 218.997 6.64 220.845 6.64C222.693 6.64 224.049 7.972 224.049 9.844C224.049 11.716 222.693 13.06 220.845 13.06ZM220.845 12.304C222.189 12.304 223.185 11.32 223.185 9.844C223.185 8.368 222.189 7.384 220.845 7.384C219.501 7.384 218.493 8.368 218.493 9.844C218.493 11.32 219.501 12.304 220.845 12.304ZM230.625 6.688H231.477V13H230.661V11.848C230.217 12.616 229.401 13.06 228.393 13.06C226.785 13.06 225.729 12.16 225.729 10.348V6.688H226.581V10.264C226.581 11.608 227.277 12.292 228.477 12.292C229.797 12.292 230.625 11.44 230.625 10V6.688ZM234.679 7.924C235.075 7.084 235.879 6.64 237.043 6.64V7.468C236.971 7.468 236.899 7.456 236.839 7.456C235.519 7.456 234.715 8.296 234.715 9.784V13H233.863V6.688H234.679V7.924ZM244.844 12.004L245.144 12.616C244.808 12.916 244.304 13.06 243.812 13.06C242.624 13.06 241.964 12.388 241.964 11.224V7.408H240.836V6.688H241.964V5.308H242.816V6.688H244.736V7.408H242.816V11.176C242.816 11.92 243.2 12.328 243.908 12.328C244.256 12.328 244.604 12.22 244.844 12.004ZM249.911 6.64C251.447 6.64 252.503 7.528 252.503 9.34V13H251.651V9.424C251.651 8.092 250.955 7.408 249.755 7.408C248.399 7.408 247.547 8.248 247.547 9.688V13H246.695V4.096H247.547V7.792C248.015 7.06 248.843 6.64 249.911 6.64ZM257.419 13.06C255.571 13.06 254.203 11.716 254.203 9.844C254.203 7.972 255.571 6.64 257.419 6.64C259.267 6.64 260.623 7.972 260.623 9.844C260.623 11.716 259.267 13.06 257.419 13.06ZM257.419 12.304C258.763 12.304 259.759 11.32 259.759 9.844C259.759 8.368 258.763 7.384 257.419 7.384C256.075 7.384 255.067 8.368 255.067 9.844C255.067 11.32 256.075 12.304 257.419 12.304ZM263.179 7.924C263.575 7.084 264.379 6.64 265.543 6.64V7.468C265.471 7.468 265.399 7.456 265.339 7.456C264.019 7.456 263.215 8.296 263.215 9.784V13H262.363V6.688H263.179V7.924ZM269.607 13.06C267.759 13.06 266.391 11.716 266.391 9.844C266.391 7.972 267.759 6.64 269.607 6.64C271.455 6.64 272.811 7.972 272.811 9.844C272.811 11.716 271.455 13.06 269.607 13.06ZM269.607 12.304C270.951 12.304 271.947 11.32 271.947 9.844C271.947 8.368 270.951 7.384 269.607 7.384C268.263 7.384 267.255 8.368 267.255 9.844C267.255 11.32 268.263 12.304 269.607 12.304ZM279.386 6.688H280.238V13H279.422V11.848C278.978 12.616 278.162 13.06 277.154 13.06C275.546 13.06 274.49 12.16 274.49 10.348V6.688H275.342V10.264C275.342 11.608 276.038 12.292 277.238 12.292C278.558 12.292 279.386 11.44 279.386 10V6.688ZM287.653 6.688H288.469V12.232C288.469 14.404 287.401 15.388 285.313 15.388C284.161 15.388 283.033 15.04 282.373 14.416L282.805 13.768C283.405 14.308 284.317 14.632 285.289 14.632C286.885 14.632 287.617 13.9 287.617 12.34V11.536C287.089 12.34 286.189 12.76 285.157 12.76C283.357 12.76 281.989 11.5 281.989 9.688C281.989 7.876 283.357 6.64 285.157 6.64C286.213 6.64 287.125 7.072 287.653 7.9V6.688ZM285.241 12.004C286.633 12.004 287.641 11.056 287.641 9.688C287.641 8.32 286.633 7.384 285.241 7.384C283.849 7.384 282.853 8.32 282.853 9.688C282.853 11.056 283.849 12.004 285.241 12.004ZM294.067 6.64C295.603 6.64 296.659 7.528 296.659 9.34V13H295.807V9.424C295.807 8.092 295.111 7.408 293.911 7.408C292.555 7.408 291.703 8.248 291.703 9.688V13H290.851V4.096H291.703V7.792C292.171 7.06 292.999 6.64 294.067 6.64ZM164.319 25.924C164.715 25.084 165.519 24.64 166.683 24.64V25.468C166.611 25.468 166.539 25.456 166.479 25.456C165.159 25.456 164.355 26.296 164.355 27.784V31H163.503V24.688H164.319V25.924ZM173.675 27.844C173.675 27.916 173.663 28.012 173.663 28.108H168.383C168.479 29.428 169.487 30.304 170.867 30.304C171.635 30.304 172.319 30.028 172.799 29.476L173.279 30.028C172.715 30.7 171.839 31.06 170.843 31.06C168.875 31.06 167.531 29.716 167.531 27.844C167.531 25.972 168.839 24.64 170.615 24.64C172.391 24.64 173.675 25.948 173.675 27.844ZM170.615 25.372C169.391 25.372 168.491 26.236 168.383 27.472H172.859C172.751 26.236 171.851 25.372 170.615 25.372ZM178.026 31.06C176.142 31.06 174.774 29.728 174.774 27.844C174.774 25.96 176.142 24.64 178.026 24.64C179.094 24.64 179.994 25.06 180.498 25.888L179.862 26.32C179.43 25.684 178.758 25.384 178.026 25.384C176.646 25.384 175.638 26.368 175.638 27.844C175.638 29.332 176.646 30.304 178.026 30.304C178.758 30.304 179.43 30.016 179.862 29.38L180.498 29.812C179.994 30.628 179.094 31.06 178.026 31.06ZM182.987 25.924C183.383 25.084 184.187 24.64 185.351 24.64V25.468C185.279 25.468 185.207 25.456 185.147 25.456C183.827 25.456 183.023 26.296 183.023 27.784V31H182.171V24.688H182.987V25.924ZM191.824 24.688H192.676V31H191.86V29.848C191.416 30.616 190.6 31.06 189.592 31.06C187.984 31.06 186.928 30.16 186.928 28.348V24.688H187.78V28.264C187.78 29.608 188.476 30.292 189.676 30.292C190.996 30.292 191.824 29.44 191.824 28V24.688ZM195.494 23.308C195.146 23.308 194.87 23.032 194.87 22.696C194.87 22.372 195.146 22.096 195.494 22.096C195.842 22.096 196.118 22.36 196.118 22.684C196.118 23.032 195.854 23.308 195.494 23.308ZM195.062 31V24.688H195.914V31H195.062ZM201.309 30.004L201.609 30.616C201.273 30.916 200.769 31.06 200.277 31.06C199.089 31.06 198.429 30.388 198.429 29.224V25.408H197.301V24.688H198.429V23.308H199.281V24.688H201.201V25.408H199.281V29.176C199.281 29.92 199.665 30.328 200.373 30.328C200.721 30.328 201.069 30.22 201.309 30.004ZM211.032 24.64C212.568 24.64 213.576 25.528 213.576 27.34V31H212.724V27.424C212.724 26.092 212.052 25.408 210.912 25.408C209.616 25.408 208.8 26.248 208.8 27.688V31H207.948V27.424C207.948 26.092 207.276 25.408 206.124 25.408C204.84 25.408 204.012 26.248 204.012 27.688V31H203.16V24.688H203.976V25.84C204.42 25.084 205.236 24.64 206.292 24.64C207.336 24.64 208.152 25.084 208.536 25.972C208.992 25.156 209.892 24.64 211.032 24.64ZM221.418 27.844C221.418 27.916 221.406 28.012 221.406 28.108H216.126C216.222 29.428 217.23 30.304 218.61 30.304C219.378 30.304 220.062 30.028 220.542 29.476L221.022 30.028C220.458 30.7 219.582 31.06 218.586 31.06C216.618 31.06 215.274 29.716 215.274 27.844C215.274 25.972 216.582 24.64 218.358 24.64C220.134 24.64 221.418 25.948 221.418 27.844ZM218.358 25.372C217.134 25.372 216.234 26.236 216.126 27.472H220.602C220.494 26.236 219.594 25.372 218.358 25.372ZM226.368 24.64C227.904 24.64 228.96 25.528 228.96 27.34V31H228.108V27.424C228.108 26.092 227.412 25.408 226.212 25.408C224.856 25.408 224.004 26.248 224.004 27.688V31H223.152V24.688H223.968V25.852C224.424 25.084 225.276 24.64 226.368 24.64ZM234.297 30.004L234.597 30.616C234.261 30.916 233.757 31.06 233.265 31.06C232.077 31.06 231.417 30.388 231.417 29.224V25.408H230.289V24.688H231.417V23.308H232.269V24.688H234.189V25.408H232.269V29.176C232.269 29.92 232.653 30.328 233.361 30.328C233.709 30.328 234.057 30.22 234.297 30.004ZM242.541 24.64C244.341 24.64 245.685 25.936 245.685 27.844C245.685 29.764 244.341 31.06 242.541 31.06C241.533 31.06 240.669 30.628 240.141 29.812V33.328H239.289V24.688H240.105V25.936C240.621 25.096 241.497 24.64 242.541 24.64ZM242.481 30.304C243.813 30.304 244.833 29.32 244.833 27.844C244.833 26.38 243.813 25.384 242.481 25.384C241.137 25.384 240.129 26.38 240.129 27.844C240.129 29.32 241.137 30.304 242.481 30.304ZM248.237 25.924C248.633 25.084 249.437 24.64 250.601 24.64V25.468C250.529 25.468 250.457 25.456 250.397 25.456C249.077 25.456 248.273 26.296 248.273 27.784V31H247.421V24.688H248.237V25.924ZM254.665 31.06C252.817 31.06 251.449 29.716 251.449 27.844C251.449 25.972 252.817 24.64 254.665 24.64C256.513 24.64 257.869 25.972 257.869 27.844C257.869 29.716 256.513 31.06 254.665 31.06ZM254.665 30.304C256.009 30.304 257.005 29.32 257.005 27.844C257.005 26.368 256.009 25.384 254.665 25.384C253.321 25.384 252.313 26.368 252.313 27.844C252.313 29.32 253.321 30.304 254.665 30.304ZM262.225 31.06C260.341 31.06 258.973 29.728 258.973 27.844C258.973 25.96 260.341 24.64 262.225 24.64C263.293 24.64 264.193 25.06 264.697 25.888L264.061 26.32C263.629 25.684 262.957 25.384 262.225 25.384C260.845 25.384 259.837 26.368 259.837 27.844C259.837 29.332 260.845 30.304 262.225 30.304C262.957 30.304 263.629 30.016 264.061 29.38L264.697 29.812C264.193 30.628 263.293 31.06 262.225 31.06ZM271.773 27.844C271.773 27.916 271.761 28.012 271.761 28.108H266.481C266.577 29.428 267.585 30.304 268.965 30.304C269.733 30.304 270.417 30.028 270.897 29.476L271.377 30.028C270.813 30.7 269.937 31.06 268.941 31.06C266.973 31.06 265.629 29.716 265.629 27.844C265.629 25.972 266.937 24.64 268.713 24.64C270.489 24.64 271.773 25.948 271.773 27.844ZM268.713 25.372C267.489 25.372 266.589 26.236 266.481 27.472H270.957C270.849 26.236 269.949 25.372 268.713 25.372ZM275.199 31.06C274.155 31.06 273.147 30.724 272.631 30.28L273.015 29.608C273.519 30.004 274.371 30.316 275.259 30.316C276.459 30.316 276.951 29.908 276.951 29.284C276.951 27.64 272.859 28.936 272.859 26.44C272.859 25.408 273.747 24.64 275.355 24.64C276.171 24.64 277.059 24.868 277.587 25.228L277.215 25.912C276.663 25.528 276.003 25.372 275.355 25.372C274.215 25.372 273.711 25.816 273.711 26.416C273.711 28.12 277.803 26.836 277.803 29.26C277.803 30.352 276.843 31.06 275.199 31.06ZM281.07 31.06C280.026 31.06 279.018 30.724 278.502 30.28L278.886 29.608C279.39 30.004 280.242 30.316 281.13 30.316C282.33 30.316 282.822 29.908 282.822 29.284C282.822 27.64 278.73 28.936 278.73 26.44C278.73 25.408 279.618 24.64 281.226 24.64C282.042 24.64 282.93 24.868 283.458 25.228L283.086 25.912C282.534 25.528 281.874 25.372 281.226 25.372C280.086 25.372 279.582 25.816 279.582 26.416C279.582 28.12 283.674 26.836 283.674 29.26C283.674 30.352 282.714 31.06 281.07 31.06ZM285.346 29.752C285.718 29.752 285.982 30.04 285.982 30.4C285.982 30.604 285.934 30.76 285.814 31.096L285.31 32.752H284.734L285.142 31.012C284.89 30.94 284.71 30.712 284.71 30.4C284.71 30.028 284.986 29.752 285.346 29.752ZM299.417 24.688H300.197L297.809 31H297.005L295.013 25.828L293.021 31H292.217L289.841 24.688H290.657L292.637 30.052L294.665 24.688H295.397L297.413 30.052L299.417 24.688ZM306.812 27.844C306.812 27.916 306.8 28.012 306.8 28.108H301.52C301.616 29.428 302.624 30.304 304.004 30.304C304.772 30.304 305.456 30.028 305.936 29.476L306.416 30.028C305.852 30.7 304.976 31.06 303.98 31.06C302.012 31.06 300.668 29.716 300.668 27.844C300.668 25.972 301.976 24.64 303.752 24.64C305.528 24.64 306.812 25.948 306.812 27.844ZM303.752 25.372C302.528 25.372 301.628 26.236 301.52 27.472H305.996C305.888 26.236 304.988 25.372 303.752 25.372ZM166.719 42.64C168.255 42.64 169.311 43.528 169.311 45.34V49H168.459V45.424C168.459 44.092 167.763 43.408 166.563 43.408C165.207 43.408 164.355 44.248 164.355 45.688V49H163.503V40.096H164.355V43.792C164.823 43.06 165.651 42.64 166.719 42.64ZM173.833 42.64C175.465 42.64 176.389 43.456 176.389 45.088V49H175.573V48.016C175.189 48.664 174.445 49.06 173.401 49.06C171.973 49.06 171.097 48.316 171.097 47.224C171.097 46.252 171.721 45.436 173.533 45.436H175.537V45.052C175.537 43.972 174.925 43.384 173.749 43.384C172.933 43.384 172.165 43.672 171.649 44.128L171.265 43.492C171.901 42.952 172.837 42.64 173.833 42.64ZM173.533 48.388C174.493 48.388 175.201 47.932 175.537 47.104V46.072H173.557C172.333 46.072 171.937 46.552 171.937 47.2C171.937 47.932 172.525 48.388 173.533 48.388ZM181.919 42.64C183.455 42.64 184.511 43.528 184.511 45.34V49H183.659V45.424C183.659 44.092 182.963 43.408 181.763 43.408C180.407 43.408 179.555 44.248 179.555 45.688V49H178.703V42.688H179.519V43.852C179.975 43.084 180.827 42.64 181.919 42.64ZM191.755 40.096H192.607V49H191.791V47.752C191.275 48.604 190.399 49.06 189.355 49.06C187.555 49.06 186.211 47.752 186.211 45.844C186.211 43.936 187.555 42.64 189.355 42.64C190.363 42.64 191.227 43.072 191.755 43.888V40.096ZM189.427 48.304C190.759 48.304 191.767 47.32 191.767 45.844C191.767 44.368 190.759 43.384 189.427 43.384C188.083 43.384 187.075 44.368 187.075 45.844C187.075 47.32 188.083 48.304 189.427 48.304ZM198.232 42.64C200.032 42.64 201.376 43.936 201.376 45.844C201.376 47.764 200.032 49.06 198.232 49.06C197.224 49.06 196.36 48.628 195.832 47.812V51.328H194.98V42.688H195.796V43.936C196.312 43.096 197.188 42.64 198.232 42.64ZM198.172 48.304C199.504 48.304 200.524 47.32 200.524 45.844C200.524 44.38 199.504 43.384 198.172 43.384C196.828 43.384 195.82 44.38 195.82 45.844C195.82 47.32 196.828 48.304 198.172 48.304ZM203.545 41.308C203.197 41.308 202.921 41.032 202.921 40.696C202.921 40.372 203.197 40.096 203.545 40.096C203.893 40.096 204.169 40.36 204.169 40.684C204.169 41.032 203.905 41.308 203.545 41.308ZM203.113 49V42.688H203.965V49H203.113ZM208.951 49.06C207.067 49.06 205.699 47.728 205.699 45.844C205.699 43.96 207.067 42.64 208.951 42.64C210.019 42.64 210.919 43.06 211.423 43.888L210.787 44.32C210.355 43.684 209.683 43.384 208.951 43.384C207.571 43.384 206.563 44.368 206.563 45.844C206.563 47.332 207.571 48.304 208.951 48.304C209.683 48.304 210.355 48.016 210.787 47.38L211.423 47.812C210.919 48.628 210.019 49.06 208.951 49.06ZM217.887 49L215.343 45.832L213.855 47.2V49H213.003V40.096H213.855V46.132L217.623 42.688H218.679L215.979 45.268L218.931 49H217.887ZM225.667 49.096C224.907 49.096 224.315 48.904 223.891 48.52C223.467 48.128 223.255 47.548 223.255 46.78V41.116H225.127V46.756C225.127 47.028 225.199 47.24 225.343 47.392C225.487 47.536 225.683 47.608 225.931 47.608C226.227 47.608 226.479 47.528 226.687 47.368L227.191 48.688C226.999 48.824 226.767 48.928 226.495 49C226.231 49.064 225.955 49.096 225.667 49.096ZM222.259 44.128V42.688H226.735V44.128H222.259ZM231.115 49.096C230.427 49.096 229.815 48.952 229.279 48.664C228.751 48.376 228.331 47.984 228.019 47.488C227.715 46.984 227.563 46.412 227.563 45.772C227.563 45.124 227.715 44.552 228.019 44.056C228.331 43.552 228.751 43.16 229.279 42.88C229.815 42.592 230.427 42.448 231.115 42.448C231.795 42.448 232.403 42.592 232.939 42.88C233.475 43.16 233.895 43.548 234.199 44.044C234.503 44.54 234.655 45.116 234.655 45.772C234.655 46.412 234.503 46.984 234.199 47.488C233.895 47.984 233.475 48.376 232.939 48.664C232.403 48.952 231.795 49.096 231.115 49.096ZM231.115 47.56C231.427 47.56 231.707 47.488 231.955 47.344C232.203 47.2 232.399 46.996 232.543 46.732C232.687 46.46 232.759 46.14 232.759 45.772C232.759 45.396 232.687 45.076 232.543 44.812C232.399 44.548 232.203 44.344 231.955 44.2C231.707 44.056 231.427 43.984 231.115 43.984C230.803 43.984 230.523 44.056 230.275 44.2C230.027 44.344 229.827 44.548 229.675 44.812C229.531 45.076 229.459 45.396 229.459 45.772C229.459 46.14 229.531 46.46 229.675 46.732C229.827 46.996 230.027 47.2 230.275 47.344C230.523 47.488 230.803 47.56 231.115 47.56ZM239.722 49.096C239.178 49.096 238.702 48.976 238.294 48.736C237.886 48.496 237.566 48.132 237.334 47.644C237.11 47.148 236.998 46.524 236.998 45.772C236.998 45.012 237.106 44.388 237.322 43.9C237.538 43.412 237.85 43.048 238.258 42.808C238.666 42.568 239.154 42.448 239.722 42.448C240.33 42.448 240.874 42.588 241.354 42.868C241.842 43.14 242.226 43.524 242.506 44.02C242.794 44.516 242.938 45.1 242.938 45.772C242.938 46.452 242.794 47.04 242.506 47.536C242.226 48.032 241.842 48.416 241.354 48.688C240.874 48.96 240.33 49.096 239.722 49.096ZM235.906 51.328V42.544H237.694V43.864L237.658 45.784L237.778 47.692V51.328H235.906ZM239.398 47.56C239.71 47.56 239.986 47.488 240.226 47.344C240.474 47.2 240.67 46.996 240.814 46.732C240.966 46.46 241.042 46.14 241.042 45.772C241.042 45.396 240.966 45.076 240.814 44.812C240.67 44.548 240.474 44.344 240.226 44.2C239.986 44.056 239.71 43.984 239.398 43.984C239.086 43.984 238.806 44.056 238.558 44.2C238.31 44.344 238.114 44.548 237.97 44.812C237.826 45.076 237.754 45.396 237.754 45.772C237.754 46.14 237.826 46.46 237.97 46.732C238.114 46.996 238.31 47.2 238.558 47.344C238.806 47.488 239.086 47.56 239.398 47.56ZM244.068 46.372V44.872H247.464V46.372H244.068ZM251.694 49.096C250.934 49.096 250.342 48.904 249.918 48.52C249.494 48.128 249.282 47.548 249.282 46.78V41.116H251.154V46.756C251.154 47.028 251.226 47.24 251.37 47.392C251.514 47.536 251.71 47.608 251.958 47.608C252.254 47.608 252.506 47.528 252.714 47.368L253.218 48.688C253.026 48.824 252.794 48.928 252.522 49C252.258 49.064 251.982 49.096 251.694 49.096ZM248.286 44.128V42.688H252.762V44.128H248.286ZM254.269 49V42.544H256.141V49H254.269ZM255.205 41.644C254.861 41.644 254.581 41.544 254.365 41.344C254.149 41.144 254.041 40.896 254.041 40.6C254.041 40.304 254.149 40.056 254.365 39.856C254.581 39.656 254.861 39.556 255.205 39.556C255.549 39.556 255.829 39.652 256.045 39.844C256.261 40.028 256.369 40.268 256.369 40.564C256.369 40.876 256.261 41.136 256.045 41.344C255.837 41.544 255.557 41.644 255.205 41.644ZM261.083 49.096C260.347 49.096 259.699 48.952 259.139 48.664C258.587 48.376 258.159 47.984 257.855 47.488C257.551 46.984 257.399 46.412 257.399 45.772C257.399 45.124 257.547 44.552 257.843 44.056C258.147 43.552 258.559 43.16 259.079 42.88C259.599 42.592 260.187 42.448 260.843 42.448C261.475 42.448 262.043 42.584 262.547 42.856C263.059 43.12 263.463 43.504 263.759 44.008C264.055 44.504 264.203 45.1 264.203 45.796C264.203 45.868 264.199 45.952 264.191 46.048C264.183 46.136 264.175 46.22 264.167 46.3H258.923V45.208H263.183L262.463 45.532C262.463 45.196 262.395 44.904 262.259 44.656C262.123 44.408 261.935 44.216 261.695 44.08C261.455 43.936 261.175 43.864 260.855 43.864C260.535 43.864 260.251 43.936 260.003 44.08C259.763 44.216 259.575 44.412 259.439 44.668C259.303 44.916 259.235 45.212 259.235 45.556V45.844C259.235 46.196 259.311 46.508 259.463 46.78C259.623 47.044 259.843 47.248 260.123 47.392C260.411 47.528 260.747 47.596 261.131 47.596C261.475 47.596 261.775 47.544 262.031 47.44C262.295 47.336 262.535 47.18 262.751 46.972L263.747 48.052C263.451 48.388 263.079 48.648 262.631 48.832C262.183 49.008 261.667 49.096 261.083 49.096ZM265.449 49V42.544H267.237V44.368L266.985 43.84C267.177 43.384 267.485 43.04 267.909 42.808C268.333 42.568 268.849 42.448 269.457 42.448V44.176C269.377 44.168 269.305 44.164 269.241 44.164C269.177 44.156 269.109 44.152 269.037 44.152C268.525 44.152 268.109 44.3 267.789 44.596C267.477 44.884 267.321 45.336 267.321 45.952V49H265.449ZM166.299 67.096C165.603 67.096 164.983 66.956 164.439 66.676C163.895 66.388 163.467 65.992 163.155 65.488C162.851 64.984 162.699 64.412 162.699 63.772C162.699 63.124 162.851 62.552 163.155 62.056C163.467 61.552 163.895 61.16 164.439 60.88C164.983 60.592 165.603 60.448 166.299 60.448C166.979 60.448 167.571 60.592 168.075 60.88C168.579 61.16 168.951 61.564 169.191 62.092L167.739 62.872C167.571 62.568 167.359 62.344 167.103 62.2C166.855 62.056 166.583 61.984 166.287 61.984C165.967 61.984 165.679 62.056 165.423 62.2C165.167 62.344 164.963 62.548 164.811 62.812C164.667 63.076 164.595 63.396 164.595 63.772C164.595 64.148 164.667 64.468 164.811 64.732C164.963 64.996 165.167 65.2 165.423 65.344C165.679 65.488 165.967 65.56 166.287 65.56C166.583 65.56 166.855 65.492 167.103 65.356C167.359 65.212 167.571 64.984 167.739 64.672L169.191 65.464C168.951 65.984 168.579 66.388 168.075 66.676C167.571 66.956 166.979 67.096 166.299 67.096ZM174.229 67V65.74L174.109 65.464V63.208C174.109 62.808 173.985 62.496 173.737 62.272C173.497 62.048 173.125 61.936 172.621 61.936C172.277 61.936 171.937 61.992 171.601 62.104C171.273 62.208 170.993 62.352 170.761 62.536L170.089 61.228C170.441 60.98 170.865 60.788 171.361 60.652C171.857 60.516 172.361 60.448 172.873 60.448C173.857 60.448 174.621 60.68 175.165 61.144C175.709 61.608 175.981 62.332 175.981 63.316V67H174.229ZM172.261 67.096C171.757 67.096 171.325 67.012 170.965 66.844C170.605 66.668 170.329 66.432 170.137 66.136C169.945 65.84 169.849 65.508 169.849 65.14C169.849 64.756 169.941 64.42 170.125 64.132C170.317 63.844 170.617 63.62 171.025 63.46C171.433 63.292 171.965 63.208 172.621 63.208H174.337V64.3H172.825C172.385 64.3 172.081 64.372 171.913 64.516C171.753 64.66 171.673 64.84 171.673 65.056C171.673 65.296 171.765 65.488 171.949 65.632C172.141 65.768 172.401 65.836 172.729 65.836C173.041 65.836 173.321 65.764 173.569 65.62C173.817 65.468 173.997 65.248 174.109 64.96L174.397 65.824C174.261 66.24 174.013 66.556 173.653 66.772C173.293 66.988 172.829 67.096 172.261 67.096ZM181.6 60.448C182.112 60.448 182.568 60.552 182.968 60.76C183.376 60.96 183.696 61.272 183.928 61.696C184.16 62.112 184.276 62.648 184.276 63.304V67H182.404V63.592C182.404 63.072 182.288 62.688 182.056 62.44C181.832 62.192 181.512 62.068 181.096 62.068C180.8 62.068 180.532 62.132 180.292 62.26C180.06 62.38 179.876 62.568 179.74 62.824C179.612 63.08 179.548 63.408 179.548 63.808V67H177.676V60.544H179.464V62.332L179.128 61.792C179.36 61.36 179.692 61.028 180.124 60.796C180.556 60.564 181.048 60.448 181.6 60.448ZM188.791 67.096C188.183 67.096 187.635 66.96 187.147 66.688C186.659 66.408 186.271 66.02 185.983 65.524C185.703 65.028 185.563 64.444 185.563 63.772C185.563 63.092 185.703 62.504 185.983 62.008C186.271 61.512 186.659 61.128 187.147 60.856C187.635 60.584 188.183 60.448 188.791 60.448C189.335 60.448 189.811 60.568 190.219 60.808C190.627 61.048 190.943 61.412 191.167 61.9C191.391 62.388 191.503 63.012 191.503 63.772C191.503 64.524 191.395 65.148 191.179 65.644C190.963 66.132 190.651 66.496 190.243 66.736C189.843 66.976 189.359 67.096 188.791 67.096ZM189.115 65.56C189.419 65.56 189.695 65.488 189.943 65.344C190.191 65.2 190.387 64.996 190.531 64.732C190.683 64.46 190.759 64.14 190.759 63.772C190.759 63.396 190.683 63.076 190.531 62.812C190.387 62.548 190.191 62.344 189.943 62.2C189.695 62.056 189.419 61.984 189.115 61.984C188.803 61.984 188.523 62.056 188.275 62.2C188.027 62.344 187.827 62.548 187.675 62.812C187.531 63.076 187.459 63.396 187.459 63.772C187.459 64.14 187.531 64.46 187.675 64.732C187.827 64.996 188.027 65.2 188.275 65.344C188.523 65.488 188.803 65.56 189.115 65.56ZM190.807 67V65.68L190.843 63.76L190.723 61.852V58.096H192.595V67H190.807ZM194.328 67V60.544H196.2V67H194.328ZM195.264 59.644C194.92 59.644 194.64 59.544 194.424 59.344C194.208 59.144 194.1 58.896 194.1 58.6C194.1 58.304 194.208 58.056 194.424 57.856C194.64 57.656 194.92 57.556 195.264 57.556C195.608 57.556 195.888 57.652 196.104 57.844C196.32 58.028 196.428 58.268 196.428 58.564C196.428 58.876 196.32 59.136 196.104 59.344C195.896 59.544 195.616 59.644 195.264 59.644ZM200.709 67.096C200.101 67.096 199.553 66.96 199.065 66.688C198.577 66.408 198.189 66.02 197.901 65.524C197.621 65.028 197.481 64.444 197.481 63.772C197.481 63.092 197.621 62.504 197.901 62.008C198.189 61.512 198.577 61.128 199.065 60.856C199.553 60.584 200.101 60.448 200.709 60.448C201.253 60.448 201.729 60.568 202.137 60.808C202.545 61.048 202.861 61.412 203.085 61.9C203.309 62.388 203.421 63.012 203.421 63.772C203.421 64.524 203.313 65.148 203.097 65.644C202.881 66.132 202.569 66.496 202.161 66.736C201.761 66.976 201.277 67.096 200.709 67.096ZM201.033 65.56C201.337 65.56 201.613 65.488 201.861 65.344C202.109 65.2 202.305 64.996 202.449 64.732C202.601 64.46 202.677 64.14 202.677 63.772C202.677 63.396 202.601 63.076 202.449 62.812C202.305 62.548 202.109 62.344 201.861 62.2C201.613 62.056 201.337 61.984 201.033 61.984C200.721 61.984 200.441 62.056 200.193 62.2C199.945 62.344 199.745 62.548 199.593 62.812C199.449 63.076 199.377 63.396 199.377 63.772C199.377 64.14 199.449 64.46 199.593 64.732C199.745 64.996 199.945 65.2 200.193 65.344C200.441 65.488 200.721 65.56 201.033 65.56ZM202.725 67V65.68L202.761 63.76L202.641 61.852V58.096H204.513V67H202.725ZM210.206 67V65.74L210.086 65.464V63.208C210.086 62.808 209.962 62.496 209.714 62.272C209.474 62.048 209.102 61.936 208.598 61.936C208.254 61.936 207.914 61.992 207.578 62.104C207.25 62.208 206.97 62.352 206.738 62.536L206.066 61.228C206.418 60.98 206.842 60.788 207.338 60.652C207.834 60.516 208.338 60.448 208.85 60.448C209.834 60.448 210.598 60.68 211.142 61.144C211.686 61.608 211.958 62.332 211.958 63.316V67H210.206ZM208.238 67.096C207.734 67.096 207.302 67.012 206.942 66.844C206.582 66.668 206.306 66.432 206.114 66.136C205.922 65.84 205.826 65.508 205.826 65.14C205.826 64.756 205.918 64.42 206.102 64.132C206.294 63.844 206.594 63.62 207.002 63.46C207.41 63.292 207.942 63.208 208.598 63.208H210.314V64.3H208.802C208.362 64.3 208.058 64.372 207.89 64.516C207.73 64.66 207.65 64.84 207.65 65.056C207.65 65.296 207.742 65.488 207.926 65.632C208.118 65.768 208.378 65.836 208.706 65.836C209.018 65.836 209.298 65.764 209.546 65.62C209.794 65.468 209.974 65.248 210.086 64.96L210.374 65.824C210.238 66.24 209.99 66.556 209.63 66.772C209.27 66.988 208.806 67.096 208.238 67.096ZM216.292 67.096C215.532 67.096 214.94 66.904 214.516 66.52C214.092 66.128 213.88 65.548 213.88 64.78V59.116H215.752V64.756C215.752 65.028 215.824 65.24 215.968 65.392C216.112 65.536 216.308 65.608 216.556 65.608C216.852 65.608 217.104 65.528 217.312 65.368L217.816 66.688C217.624 66.824 217.392 66.928 217.12 67C216.856 67.064 216.58 67.096 216.292 67.096ZM212.884 62.128V60.688H217.36V62.128H212.884ZM221.872 67.096C221.136 67.096 220.488 66.952 219.928 66.664C219.376 66.376 218.948 65.984 218.644 65.488C218.34 64.984 218.188 64.412 218.188 63.772C218.188 63.124 218.336 62.552 218.632 62.056C218.936 61.552 219.348 61.16 219.868 60.88C220.388 60.592 220.976 60.448 221.632 60.448C222.264 60.448 222.832 60.584 223.336 60.856C223.848 61.12 224.252 61.504 224.548 62.008C224.844 62.504 224.992 63.1 224.992 63.796C224.992 63.868 224.988 63.952 224.98 64.048C224.972 64.136 224.964 64.22 224.956 64.3H219.712V63.208H223.972L223.252 63.532C223.252 63.196 223.184 62.904 223.048 62.656C222.912 62.408 222.724 62.216 222.484 62.08C222.244 61.936 221.964 61.864 221.644 61.864C221.324 61.864 221.04 61.936 220.792 62.08C220.552 62.216 220.364 62.412 220.228 62.668C220.092 62.916 220.024 63.212 220.024 63.556V63.844C220.024 64.196 220.1 64.508 220.252 64.78C220.412 65.044 220.632 65.248 220.912 65.392C221.2 65.528 221.536 65.596 221.92 65.596C222.264 65.596 222.564 65.544 222.82 65.44C223.084 65.336 223.324 65.18 223.54 64.972L224.536 66.052C224.24 66.388 223.868 66.648 223.42 66.832C222.972 67.008 222.456 67.096 221.872 67.096ZM228.41 67.096C227.858 67.096 227.326 67.032 226.814 66.904C226.31 66.768 225.91 66.6 225.614 66.4L226.238 65.056C226.534 65.24 226.882 65.392 227.282 65.512C227.69 65.624 228.09 65.68 228.482 65.68C228.914 65.68 229.218 65.628 229.394 65.524C229.578 65.42 229.67 65.276 229.67 65.092C229.67 64.94 229.598 64.828 229.454 64.756C229.318 64.676 229.134 64.616 228.902 64.576C228.67 64.536 228.414 64.496 228.134 64.456C227.862 64.416 227.586 64.364 227.306 64.3C227.026 64.228 226.77 64.124 226.538 63.988C226.306 63.852 226.118 63.668 225.974 63.436C225.838 63.204 225.77 62.904 225.77 62.536C225.77 62.128 225.886 61.768 226.118 61.456C226.358 61.144 226.702 60.9 227.15 60.724C227.598 60.54 228.134 60.448 228.758 60.448C229.198 60.448 229.646 60.496 230.102 60.592C230.558 60.688 230.938 60.828 231.242 61.012L230.618 62.344C230.306 62.16 229.99 62.036 229.67 61.972C229.358 61.9 229.054 61.864 228.758 61.864C228.342 61.864 228.038 61.92 227.846 62.032C227.654 62.144 227.558 62.288 227.558 62.464C227.558 62.624 227.626 62.744 227.762 62.824C227.906 62.904 228.094 62.968 228.326 63.016C228.558 63.064 228.81 63.108 229.082 63.148C229.362 63.18 229.642 63.232 229.922 63.304C230.202 63.376 230.454 63.48 230.678 63.616C230.91 63.744 231.098 63.924 231.242 64.156C231.386 64.38 231.458 64.676 231.458 65.044C231.458 65.444 231.338 65.8 231.098 66.112C230.858 66.416 230.51 66.656 230.054 66.832C229.606 67.008 229.058 67.096 228.41 67.096ZM244.562 60.688H245.342L242.954 67H242.15L240.158 61.828L238.166 67H237.362L234.986 60.688H235.802L237.782 66.052L239.81 60.688H240.542L242.558 66.052L244.562 60.688ZM249.841 60.64C251.377 60.64 252.433 61.528 252.433 63.34V67H251.581V63.424C251.581 62.092 250.885 61.408 249.685 61.408C248.329 61.408 247.477 62.248 247.477 63.688V67H246.625V58.096H247.477V61.792C247.945 61.06 248.773 60.64 249.841 60.64ZM257.349 67.06C255.501 67.06 254.133 65.716 254.133 63.844C254.133 61.972 255.501 60.64 257.349 60.64C259.197 60.64 260.553 61.972 260.553 63.844C260.553 65.716 259.197 67.06 257.349 67.06ZM257.349 66.304C258.693 66.304 259.689 65.32 259.689 63.844C259.689 62.368 258.693 61.384 257.349 61.384C256.005 61.384 254.997 62.368 254.997 63.844C254.997 65.32 256.005 66.304 257.349 66.304ZM265.577 59.908C265.577 58.78 266.249 58.036 267.485 58.036C267.953 58.036 268.433 58.168 268.745 58.432L268.457 59.068C268.217 58.864 267.881 58.756 267.521 58.756C266.789 58.756 266.405 59.164 266.405 59.944V60.688H268.349V61.408H266.429V67H265.577V61.408H264.449V60.688H265.577V59.908ZM270.893 58.096C271.241 58.096 271.517 58.36 271.517 58.684C271.517 59.032 271.253 59.308 270.893 59.308C270.545 59.308 270.269 59.032 270.269 58.696C270.269 58.372 270.545 58.096 270.893 58.096ZM270.461 67V60.688H271.313V67H270.461ZM276.719 66.004L277.019 66.616C276.683 66.916 276.179 67.06 275.687 67.06C274.499 67.06 273.839 66.388 273.839 65.224V61.408H272.711V60.688H273.839V59.308H274.691V60.688H276.611V61.408H274.691V65.176C274.691 65.92 275.075 66.328 275.783 66.328C276.131 66.328 276.479 66.22 276.719 66.004ZM286.174 60.688H287.014L283.858 67.756C283.33 68.992 282.658 69.388 281.758 69.388C281.17 69.388 280.606 69.196 280.222 68.812L280.618 68.176C280.93 68.488 281.314 68.656 281.77 68.656C282.334 68.656 282.718 68.392 283.078 67.6L283.354 66.988L280.534 60.688H281.422L283.798 66.052L286.174 60.688ZM290.619 67.06C288.771 67.06 287.403 65.716 287.403 63.844C287.403 61.972 288.771 60.64 290.619 60.64C292.467 60.64 293.823 61.972 293.823 63.844C293.823 65.716 292.467 67.06 290.619 67.06ZM290.619 66.304C291.963 66.304 292.959 65.32 292.959 63.844C292.959 62.368 291.963 61.384 290.619 61.384C289.275 61.384 288.267 62.368 288.267 63.844C288.267 65.32 289.275 66.304 290.619 66.304ZM300.398 60.688H301.25V67H300.434V65.848C299.99 66.616 299.174 67.06 298.166 67.06C296.558 67.06 295.502 66.16 295.502 64.348V60.688H296.354V64.264C296.354 65.608 297.05 66.292 298.25 66.292C299.57 66.292 300.398 65.44 300.398 64V60.688ZM304.452 61.924C304.848 61.084 305.652 60.64 306.816 60.64V61.468C306.744 61.468 306.672 61.456 306.612 61.456C305.292 61.456 304.488 62.296 304.488 63.784V67H303.636V60.688H304.452V61.924ZM164.319 79.924C164.715 79.084 165.519 78.64 166.683 78.64V79.468C166.611 79.468 166.539 79.456 166.479 79.456C165.159 79.456 164.355 80.296 164.355 81.784V85H163.503V78.688H164.319V79.924ZM173.675 81.844C173.675 81.916 173.663 82.012 173.663 82.108H168.383C168.479 83.428 169.487 84.304 170.867 84.304C171.635 84.304 172.319 84.028 172.799 83.476L173.279 84.028C172.715 84.7 171.839 85.06 170.843 85.06C168.875 85.06 167.531 83.716 167.531 81.844C167.531 79.972 168.839 78.64 170.615 78.64C172.391 78.64 173.675 79.948 173.675 81.844ZM170.615 79.372C169.391 79.372 168.491 80.236 168.383 81.472H172.859C172.751 80.236 171.851 79.372 170.615 79.372ZM180.354 78.688H181.17V87.328H180.318V83.812C179.79 84.628 178.926 85.06 177.918 85.06C176.118 85.06 174.774 83.764 174.774 81.844C174.774 79.936 176.118 78.64 177.918 78.64C178.962 78.64 179.838 79.096 180.354 79.936V78.688ZM177.99 84.304C179.322 84.304 180.33 83.32 180.33 81.844C180.33 80.38 179.322 79.384 177.99 79.384C176.646 79.384 175.638 80.38 175.638 81.844C175.638 83.32 176.646 84.304 177.99 84.304ZM188.378 78.688H189.23V85H188.414V83.848C187.97 84.616 187.154 85.06 186.146 85.06C184.538 85.06 183.482 84.16 183.482 82.348V78.688H184.334V82.264C184.334 83.608 185.03 84.292 186.23 84.292C187.55 84.292 188.378 83.44 188.378 82V78.688ZM192.049 77.308C191.701 77.308 191.425 77.032 191.425 76.696C191.425 76.372 191.701 76.096 192.049 76.096C192.397 76.096 192.673 76.36 192.673 76.684C192.673 77.032 192.409 77.308 192.049 77.308ZM191.617 85V78.688H192.469V85H191.617ZM195.655 79.924C196.051 79.084 196.855 78.64 198.019 78.64V79.468C197.947 79.468 197.875 79.456 197.815 79.456C196.495 79.456 195.691 80.296 195.691 81.784V85H194.839V78.688H195.655V79.924ZM205.011 81.844C205.011 81.916 204.999 82.012 204.999 82.108H199.719C199.815 83.428 200.823 84.304 202.203 84.304C202.971 84.304 203.655 84.028 204.135 83.476L204.615 84.028C204.051 84.7 203.175 85.06 202.179 85.06C200.211 85.06 198.867 83.716 198.867 81.844C198.867 79.972 200.175 78.64 201.951 78.64C203.727 78.64 205.011 79.948 205.011 81.844ZM201.951 79.372C200.727 79.372 199.827 80.236 199.719 81.472H204.195C204.087 80.236 203.187 79.372 201.951 79.372ZM214.618 78.64C216.154 78.64 217.162 79.528 217.162 81.34V85H216.31V81.424C216.31 80.092 215.638 79.408 214.498 79.408C213.202 79.408 212.386 80.248 212.386 81.688V85H211.534V81.424C211.534 80.092 210.862 79.408 209.71 79.408C208.426 79.408 207.598 80.248 207.598 81.688V85H206.746V78.688H207.562V79.84C208.006 79.084 208.822 78.64 209.878 78.64C210.922 78.64 211.738 79.084 212.122 79.972C212.578 79.156 213.478 78.64 214.618 78.64ZM225.004 81.844C225.004 81.916 224.992 82.012 224.992 82.108H219.712C219.808 83.428 220.816 84.304 222.196 84.304C222.964 84.304 223.648 84.028 224.128 83.476L224.608 84.028C224.044 84.7 223.168 85.06 222.172 85.06C220.204 85.06 218.86 83.716 218.86 81.844C218.86 79.972 220.168 78.64 221.944 78.64C223.72 78.64 225.004 79.948 225.004 81.844ZM221.944 79.372C220.72 79.372 219.82 80.236 219.712 81.472H224.188C224.08 80.236 223.18 79.372 221.944 79.372ZM229.954 78.64C231.49 78.64 232.546 79.528 232.546 81.34V85H231.694V81.424C231.694 80.092 230.998 79.408 229.798 79.408C228.442 79.408 227.59 80.248 227.59 81.688V85H226.738V78.688H227.554V79.852C228.01 79.084 228.862 78.64 229.954 78.64ZM237.883 84.004L238.183 84.616C237.847 84.916 237.343 85.06 236.851 85.06C235.663 85.06 235.003 84.388 235.003 83.224V79.408H233.875V78.688H235.003V77.308H235.855V78.688H237.775V79.408H235.855V83.176C235.855 83.92 236.239 84.328 236.947 84.328C237.295 84.328 237.643 84.22 237.883 84.004ZM241.426 85.06C240.382 85.06 239.374 84.724 238.858 84.28L239.242 83.608C239.746 84.004 240.598 84.316 241.486 84.316C242.686 84.316 243.178 83.908 243.178 83.284C243.178 81.64 239.086 82.936 239.086 80.44C239.086 79.408 239.974 78.64 241.582 78.64C242.398 78.64 243.286 78.868 243.814 79.228L243.442 79.912C242.89 79.528 242.23 79.372 241.582 79.372C240.442 79.372 239.938 79.816 239.938 80.416C239.938 82.12 244.03 80.836 244.03 83.26C244.03 84.352 243.07 85.06 241.426 85.06ZM250.954 78.64C252.586 78.64 253.51 79.456 253.51 81.088V85H252.694V84.016C252.31 84.664 251.566 85.06 250.522 85.06C249.094 85.06 248.218 84.316 248.218 83.224C248.218 82.252 248.842 81.436 250.654 81.436H252.658V81.052C252.658 79.972 252.046 79.384 250.87 79.384C250.054 79.384 249.286 79.672 248.77 80.128L248.386 79.492C249.022 78.952 249.958 78.64 250.954 78.64ZM250.654 84.388C251.614 84.388 252.322 83.932 252.658 83.104V82.072H250.678C249.454 82.072 249.058 82.552 249.058 83.2C249.058 83.932 249.646 84.388 250.654 84.388ZM259.04 78.64C260.576 78.64 261.632 79.528 261.632 81.34V85H260.78V81.424C260.78 80.092 260.084 79.408 258.884 79.408C257.528 79.408 256.676 80.248 256.676 81.688V85H255.824V78.688H256.64V79.852C257.096 79.084 257.948 78.64 259.04 78.64ZM268.876 76.096H269.728V85H268.912V83.752C268.396 84.604 267.52 85.06 266.476 85.06C264.676 85.06 263.332 83.752 263.332 81.844C263.332 79.936 264.676 78.64 266.476 78.64C267.484 78.64 268.348 79.072 268.876 79.888V76.096ZM266.548 84.304C267.88 84.304 268.888 83.32 268.888 81.844C268.888 80.368 267.88 79.384 266.548 79.384C265.204 79.384 264.196 80.368 264.196 81.844C264.196 83.32 265.204 84.304 266.548 84.304ZM277.858 85.06C275.974 85.06 274.606 83.728 274.606 81.844C274.606 79.96 275.974 78.64 277.858 78.64C278.926 78.64 279.826 79.06 280.33 79.888L279.694 80.32C279.262 79.684 278.59 79.384 277.858 79.384C276.478 79.384 275.47 80.368 275.47 81.844C275.47 83.332 276.478 84.304 277.858 84.304C278.59 84.304 279.262 84.016 279.694 83.38L280.33 83.812C279.826 84.628 278.926 85.06 277.858 85.06ZM286.839 78.688H287.691V85H286.875V83.848C286.431 84.616 285.615 85.06 284.607 85.06C282.999 85.06 281.943 84.16 281.943 82.348V78.688H282.795V82.264C282.795 83.608 283.491 84.292 284.691 84.292C286.011 84.292 286.839 83.44 286.839 82V78.688ZM290.078 85V76.096H290.93V85H290.078ZM296.348 84.004L296.648 84.616C296.312 84.916 295.808 85.06 295.316 85.06C294.128 85.06 293.468 84.388 293.468 83.224V79.408H292.34V78.688H293.468V77.308H294.32V78.688H296.24V79.408H294.32V83.176C294.32 83.92 294.704 84.328 295.412 84.328C295.76 84.328 296.108 84.22 296.348 84.004ZM303.035 78.688H303.887V85H303.071V83.848C302.627 84.616 301.811 85.06 300.803 85.06C299.195 85.06 298.139 84.16 298.139 82.348V78.688H298.991V82.264C298.991 83.608 299.687 84.292 300.887 84.292C302.207 84.292 303.035 83.44 303.035 82V78.688ZM307.089 79.924C307.485 79.084 308.289 78.64 309.453 78.64V79.468C309.381 79.468 309.309 79.456 309.249 79.456C307.929 79.456 307.125 80.296 307.125 81.784V85H306.273V78.688H307.089V79.924ZM316.445 81.844C316.445 81.916 316.433 82.012 316.433 82.108H311.153C311.249 83.428 312.257 84.304 313.637 84.304C314.405 84.304 315.089 84.028 315.569 83.476L316.049 84.028C315.485 84.7 314.609 85.06 313.613 85.06C311.645 85.06 310.301 83.716 310.301 81.844C310.301 79.972 311.609 78.64 313.385 78.64C315.161 78.64 316.445 79.948 316.445 81.844ZM313.385 79.372C312.161 79.372 311.261 80.236 311.153 81.472H315.629C315.521 80.236 314.621 79.372 313.385 79.372ZM318.275 83.752C318.647 83.752 318.911 84.04 318.911 84.4C318.911 84.604 318.863 84.76 318.743 85.096L318.239 86.752H317.663L318.071 85.012C317.819 84.94 317.639 84.712 317.639 84.4C317.639 84.028 317.915 83.752 318.275 83.752ZM168.411 94.096H169.263V103H168.447V101.752C167.931 102.604 167.055 103.06 166.011 103.06C164.211 103.06 162.867 101.752 162.867 99.844C162.867 97.936 164.211 96.64 166.011 96.64C167.019 96.64 167.883 97.072 168.411 97.888V94.096ZM166.083 102.304C167.415 102.304 168.423 101.32 168.423 99.844C168.423 98.368 167.415 97.384 166.083 97.384C164.739 97.384 163.731 98.368 163.731 99.844C163.731 101.32 164.739 102.304 166.083 102.304ZM177.144 99.844C177.144 99.916 177.132 100.012 177.132 100.108H171.852C171.948 101.428 172.956 102.304 174.336 102.304C175.104 102.304 175.788 102.028 176.268 101.476L176.748 102.028C176.184 102.7 175.308 103.06 174.312 103.06C172.344 103.06 171 101.716 171 99.844C171 97.972 172.308 96.64 174.084 96.64C175.86 96.64 177.144 97.948 177.144 99.844ZM174.084 97.372C172.86 97.372 171.96 98.236 171.852 99.472H176.328C176.22 98.236 175.32 97.372 174.084 97.372ZM178.878 103V94.096H179.73V103H178.878ZM182.533 95.308C182.185 95.308 181.909 95.032 181.909 94.696C181.909 94.372 182.185 94.096 182.533 94.096C182.881 94.096 183.157 94.36 183.157 94.684C183.157 95.032 182.893 95.308 182.533 95.308ZM182.101 103V96.688H182.953V103H182.101ZM189.788 96.688H190.628L187.82 103H186.944L184.148 96.688H185.036L187.4 102.064L189.788 96.688ZM197.16 99.844C197.16 99.916 197.148 100.012 197.148 100.108H191.868C191.964 101.428 192.972 102.304 194.352 102.304C195.12 102.304 195.804 102.028 196.284 101.476L196.764 102.028C196.2 102.7 195.324 103.06 194.328 103.06C192.36 103.06 191.016 101.716 191.016 99.844C191.016 97.972 192.324 96.64 194.1 96.64C195.876 96.64 197.16 97.948 197.16 99.844ZM194.1 97.372C192.876 97.372 191.976 98.236 191.868 99.472H196.344C196.236 98.236 195.336 97.372 194.1 97.372ZM199.71 97.924C200.106 97.084 200.91 96.64 202.074 96.64V97.468C202.002 97.468 201.93 97.456 201.87 97.456C200.55 97.456 199.746 98.296 199.746 99.784V103H198.894V96.688H199.71V97.924ZM204.049 95.308C203.701 95.308 203.425 95.032 203.425 94.696C203.425 94.372 203.701 94.096 204.049 94.096C204.397 94.096 204.673 94.36 204.673 94.684C204.673 95.032 204.409 95.308 204.049 95.308ZM203.617 103V96.688H204.469V103H203.617ZM210.055 96.64C211.591 96.64 212.647 97.528 212.647 99.34V103H211.795V99.424C211.795 98.092 211.099 97.408 209.899 97.408C208.543 97.408 207.691 98.248 207.691 99.688V103H206.839V96.688H207.655V97.852C208.111 97.084 208.963 96.64 210.055 96.64ZM220.012 96.688H220.828V102.232C220.828 104.404 219.76 105.388 217.672 105.388C216.52 105.388 215.392 105.04 214.732 104.416L215.164 103.768C215.764 104.308 216.676 104.632 217.648 104.632C219.244 104.632 219.976 103.9 219.976 102.34V101.536C219.448 102.34 218.548 102.76 217.516 102.76C215.716 102.76 214.348 101.5 214.348 99.688C214.348 97.876 215.716 96.64 217.516 96.64C218.572 96.64 219.484 97.072 220.012 97.9V96.688ZM217.6 102.004C218.992 102.004 220 101.056 220 99.688C220 98.32 218.992 97.384 217.6 97.384C216.208 97.384 215.212 98.32 215.212 99.688C215.212 101.056 216.208 102.004 217.6 102.004ZM229.375 102.004L229.675 102.616C229.339 102.916 228.835 103.06 228.343 103.06C227.155 103.06 226.495 102.388 226.495 101.224V97.408H225.367V96.688H226.495V95.308H227.347V96.688H229.267V97.408H227.347V101.176C227.347 101.92 227.731 102.328 228.439 102.328C228.787 102.328 229.135 102.22 229.375 102.004ZM234.442 96.64C235.978 96.64 237.034 97.528 237.034 99.34V103H236.182V99.424C236.182 98.092 235.486 97.408 234.286 97.408C232.93 97.408 232.078 98.248 232.078 99.688V103H231.226V94.096H232.078V97.792C232.546 97.06 233.374 96.64 234.442 96.64ZM244.879 99.844C244.879 99.916 244.867 100.012 244.867 100.108H239.587C239.683 101.428 240.691 102.304 242.071 102.304C242.839 102.304 243.523 102.028 244.003 101.476L244.483 102.028C243.919 102.7 243.043 103.06 242.047 103.06C240.079 103.06 238.735 101.716 238.735 99.844C238.735 97.972 240.043 96.64 241.819 96.64C243.595 96.64 244.879 97.948 244.879 99.844ZM241.819 97.372C240.595 97.372 239.695 98.236 239.587 99.472H244.063C243.955 98.236 243.055 97.372 241.819 97.372ZM252.777 102.004L253.077 102.616C252.741 102.916 252.237 103.06 251.745 103.06C250.557 103.06 249.897 102.388 249.897 101.224V97.408H248.769V96.688H249.897V95.308H250.749V96.688H252.669V97.408H250.749V101.176C250.749 101.92 251.133 102.328 251.841 102.328C252.189 102.328 252.537 102.22 252.777 102.004ZM256.836 96.64C258.468 96.64 259.392 97.456 259.392 99.088V103H258.576V102.016C258.192 102.664 257.448 103.06 256.404 103.06C254.976 103.06 254.1 102.316 254.1 101.224C254.1 100.252 254.724 99.436 256.536 99.436H258.54V99.052C258.54 97.972 257.928 97.384 256.752 97.384C255.936 97.384 255.168 97.672 254.652 98.128L254.268 97.492C254.904 96.952 255.84 96.64 256.836 96.64ZM256.536 102.388C257.496 102.388 258.204 101.932 258.54 101.104V100.072H256.56C255.336 100.072 254.94 100.552 254.94 101.2C254.94 101.932 255.528 102.388 256.536 102.388ZM261.707 103V94.096H262.559V103H261.707ZM270.437 99.844C270.437 99.916 270.425 100.012 270.425 100.108H265.145C265.241 101.428 266.249 102.304 267.629 102.304C268.397 102.304 269.081 102.028 269.561 101.476L270.041 102.028C269.477 102.7 268.601 103.06 267.605 103.06C265.637 103.06 264.293 101.716 264.293 99.844C264.293 97.972 265.601 96.64 267.377 96.64C269.153 96.64 270.437 97.948 270.437 99.844ZM267.377 97.372C266.153 97.372 265.253 98.236 265.145 99.472H269.621C269.513 98.236 268.613 97.372 267.377 97.372ZM275.387 96.64C276.923 96.64 277.979 97.528 277.979 99.34V103H277.127V99.424C277.127 98.092 276.431 97.408 275.231 97.408C273.875 97.408 273.023 98.248 273.023 99.688V103H272.171V96.688H272.987V97.852C273.443 97.084 274.295 96.64 275.387 96.64ZM283.316 102.004L283.616 102.616C283.28 102.916 282.776 103.06 282.284 103.06C281.096 103.06 280.436 102.388 280.436 101.224V97.408H279.308V96.688H280.436V95.308H281.288V96.688H283.208V97.408H281.288V101.176C281.288 101.92 281.672 102.328 282.38 102.328C282.728 102.328 283.076 102.22 283.316 102.004ZM292.772 96.688H293.612L290.456 103.756C289.928 104.992 289.256 105.388 288.356 105.388C287.768 105.388 287.204 105.196 286.82 104.812L287.216 104.176C287.528 104.488 287.912 104.656 288.368 104.656C288.932 104.656 289.316 104.392 289.676 103.6L289.952 102.988L287.132 96.688H288.02L290.396 102.052L292.772 96.688ZM297.216 103.06C295.368 103.06 294 101.716 294 99.844C294 97.972 295.368 96.64 297.216 96.64C299.064 96.64 300.42 97.972 300.42 99.844C300.42 101.716 299.064 103.06 297.216 103.06ZM297.216 102.304C298.56 102.304 299.556 101.32 299.556 99.844C299.556 98.368 298.56 97.384 297.216 97.384C295.872 97.384 294.864 98.368 294.864 99.844C294.864 101.32 295.872 102.304 297.216 102.304ZM306.996 96.688H307.848V103H307.032V101.848C306.588 102.616 305.772 103.06 304.764 103.06C303.156 103.06 302.1 102.16 302.1 100.348V96.688H302.952V100.264C302.952 101.608 303.648 102.292 304.848 102.292C306.168 102.292 306.996 101.44 306.996 100V96.688ZM166.719 114.64C168.255 114.64 169.311 115.528 169.311 117.34V121H168.459V117.424C168.459 116.092 167.763 115.408 166.563 115.408C165.207 115.408 164.355 116.248 164.355 117.688V121H163.503V114.688H164.319V115.852C164.775 115.084 165.627 114.64 166.719 114.64ZM177.156 117.844C177.156 117.916 177.144 118.012 177.144 118.108H171.864C171.96 119.428 172.968 120.304 174.348 120.304C175.116 120.304 175.8 120.028 176.28 119.476L176.76 120.028C176.196 120.7 175.32 121.06 174.324 121.06C172.356 121.06 171.012 119.716 171.012 117.844C171.012 115.972 172.32 114.64 174.096 114.64C175.872 114.64 177.156 115.948 177.156 117.844ZM174.096 115.372C172.872 115.372 171.972 116.236 171.864 117.472H176.34C176.232 116.236 175.332 115.372 174.096 115.372ZM184.398 117.844C184.398 117.916 184.386 118.012 184.386 118.108H179.106C179.202 119.428 180.21 120.304 181.59 120.304C182.358 120.304 183.042 120.028 183.522 119.476L184.002 120.028C183.438 120.7 182.562 121.06 181.566 121.06C179.598 121.06 178.254 119.716 178.254 117.844C178.254 115.972 179.562 114.64 181.338 114.64C183.114 114.64 184.398 115.948 184.398 117.844ZM181.338 115.372C180.114 115.372 179.214 116.236 179.106 117.472H183.582C183.474 116.236 182.574 115.372 181.338 115.372ZM191.04 112.096H191.892V121H191.076V119.752C190.56 120.604 189.684 121.06 188.64 121.06C186.84 121.06 185.496 119.752 185.496 117.844C185.496 115.936 186.84 114.64 188.64 114.64C189.648 114.64 190.512 115.072 191.04 115.888V112.096ZM188.712 120.304C190.044 120.304 191.052 119.32 191.052 117.844C191.052 116.368 190.044 115.384 188.712 115.384C187.368 115.384 186.36 116.368 186.36 117.844C186.36 119.32 187.368 120.304 188.712 120.304ZM200.43 120.004L200.73 120.616C200.394 120.916 199.89 121.06 199.398 121.06C198.21 121.06 197.55 120.388 197.55 119.224V115.408H196.422V114.688H197.55V113.308H198.402V114.688H200.322V115.408H198.402V119.176C198.402 119.92 198.786 120.328 199.494 120.328C199.842 120.328 200.19 120.22 200.43 120.004ZM204.638 121.06C202.79 121.06 201.422 119.716 201.422 117.844C201.422 115.972 202.79 114.64 204.638 114.64C206.486 114.64 207.842 115.972 207.842 117.844C207.842 119.716 206.486 121.06 204.638 121.06ZM204.638 120.304C205.982 120.304 206.978 119.32 206.978 117.844C206.978 116.368 205.982 115.384 204.638 115.384C203.294 115.384 202.286 116.368 202.286 117.844C202.286 119.32 203.294 120.304 204.638 120.304ZM217.63 112.096H218.482V121H217.666V119.752C217.15 120.604 216.274 121.06 215.23 121.06C213.43 121.06 212.086 119.752 212.086 117.844C212.086 115.936 213.43 114.64 215.23 114.64C216.238 114.64 217.102 115.072 217.63 115.888V112.096ZM215.302 120.304C216.634 120.304 217.642 119.32 217.642 117.844C217.642 116.368 216.634 115.384 215.302 115.384C213.958 115.384 212.95 116.368 212.95 117.844C212.95 119.32 213.958 120.304 215.302 120.304ZM221.671 115.924C222.067 115.084 222.871 114.64 224.035 114.64V115.468C223.963 115.468 223.891 115.456 223.831 115.456C222.511 115.456 221.707 116.296 221.707 117.784V121H220.855V114.688H221.671V115.924ZM226.01 113.308C225.662 113.308 225.386 113.032 225.386 112.696C225.386 112.372 225.662 112.096 226.01 112.096C226.358 112.096 226.634 112.36 226.634 112.684C226.634 113.032 226.37 113.308 226.01 113.308ZM225.578 121V114.688H226.43V121H225.578ZM233.264 114.688H234.104L231.296 121H230.42L227.624 114.688H228.512L230.876 120.064L233.264 114.688ZM240.636 117.844C240.636 117.916 240.624 118.012 240.624 118.108H235.344C235.44 119.428 236.448 120.304 237.828 120.304C238.596 120.304 239.28 120.028 239.76 119.476L240.24 120.028C239.676 120.7 238.8 121.06 237.804 121.06C235.836 121.06 234.492 119.716 234.492 117.844C234.492 115.972 235.8 114.64 237.576 114.64C239.352 114.64 240.636 115.948 240.636 117.844ZM237.576 115.372C236.352 115.372 235.452 116.236 235.344 117.472H239.82C239.712 116.236 238.812 115.372 237.576 115.372ZM249.975 114.688H250.815L247.659 121.756C247.131 122.992 246.459 123.388 245.559 123.388C244.971 123.388 244.407 123.196 244.023 122.812L244.419 122.176C244.731 122.488 245.115 122.656 245.571 122.656C246.135 122.656 246.519 122.392 246.879 121.6L247.155 120.988L244.335 114.688H245.223L247.599 120.052L249.975 114.688ZM254.419 121.06C252.571 121.06 251.203 119.716 251.203 117.844C251.203 115.972 252.571 114.64 254.419 114.64C256.267 114.64 257.623 115.972 257.623 117.844C257.623 119.716 256.267 121.06 254.419 121.06ZM254.419 120.304C255.763 120.304 256.759 119.32 256.759 117.844C256.759 116.368 255.763 115.384 254.419 115.384C253.075 115.384 252.067 116.368 252.067 117.844C252.067 119.32 253.075 120.304 254.419 120.304ZM264.199 114.688H265.051V121H264.235V119.848C263.791 120.616 262.975 121.06 261.967 121.06C260.359 121.06 259.303 120.16 259.303 118.348V114.688H260.155V118.264C260.155 119.608 260.851 120.292 262.051 120.292C263.371 120.292 264.199 119.44 264.199 118V114.688ZM268.253 115.924C268.649 115.084 269.453 114.64 270.617 114.64V115.468C270.545 115.468 270.473 115.456 270.413 115.456C269.093 115.456 268.289 116.296 268.289 117.784V121H267.437V114.688H268.253V115.924ZM278.646 114.64C280.446 114.64 281.79 115.936 281.79 117.844C281.79 119.752 280.446 121.06 278.646 121.06C277.602 121.06 276.726 120.604 276.21 119.752V121H275.394V112.096H276.246V115.888C276.774 115.072 277.638 114.64 278.646 114.64ZM278.586 120.304C279.918 120.304 280.938 119.32 280.938 117.844C280.938 116.368 279.918 115.384 278.586 115.384C277.242 115.384 276.234 116.368 276.234 117.844C276.234 119.32 277.242 120.304 278.586 120.304ZM288.363 114.688H289.215V121H288.399V119.848C287.955 120.616 287.139 121.06 286.131 121.06C284.523 121.06 283.467 120.16 283.467 118.348V114.688H284.319V118.264C284.319 119.608 285.015 120.292 286.215 120.292C287.535 120.292 288.363 119.44 288.363 118V114.688ZM293.293 121.06C292.249 121.06 291.241 120.724 290.725 120.28L291.109 119.608C291.613 120.004 292.465 120.316 293.353 120.316C294.553 120.316 295.045 119.908 295.045 119.284C295.045 117.64 290.953 118.936 290.953 116.44C290.953 115.408 291.841 114.64 293.449 114.64C294.265 114.64 295.153 114.868 295.681 115.228L295.309 115.912C294.757 115.528 294.097 115.372 293.449 115.372C292.309 115.372 291.805 115.816 291.805 116.416C291.805 118.12 295.897 116.836 295.897 119.26C295.897 120.352 294.937 121.06 293.293 121.06ZM297.904 113.308C297.556 113.308 297.28 113.032 297.28 112.696C297.28 112.372 297.556 112.096 297.904 112.096C298.252 112.096 298.528 112.36 298.528 112.684C298.528 113.032 298.264 113.308 297.904 113.308ZM297.472 121V114.688H298.324V121H297.472ZM303.911 114.64C305.447 114.64 306.503 115.528 306.503 117.34V121H305.651V117.424C305.651 116.092 304.955 115.408 303.755 115.408C302.399 115.408 301.547 116.248 301.547 117.688V121H300.695V114.688H301.511V115.852C301.967 115.084 302.819 114.64 303.911 114.64ZM314.347 117.844C314.347 117.916 314.335 118.012 314.335 118.108H309.055C309.151 119.428 310.159 120.304 311.539 120.304C312.307 120.304 312.991 120.028 313.471 119.476L313.951 120.028C313.387 120.7 312.511 121.06 311.515 121.06C309.547 121.06 308.203 119.716 308.203 117.844C308.203 115.972 309.511 114.64 311.287 114.64C313.063 114.64 314.347 115.948 314.347 117.844ZM311.287 115.372C310.063 115.372 309.163 116.236 309.055 117.472H313.531C313.423 116.236 312.523 115.372 311.287 115.372ZM317.774 121.06C316.73 121.06 315.722 120.724 315.206 120.28L315.59 119.608C316.094 120.004 316.946 120.316 317.834 120.316C319.034 120.316 319.526 119.908 319.526 119.284C319.526 117.64 315.434 118.936 315.434 116.44C315.434 115.408 316.322 114.64 317.93 114.64C318.746 114.64 319.634 114.868 320.162 115.228L319.79 115.912C319.238 115.528 318.578 115.372 317.93 115.372C316.79 115.372 316.286 115.816 316.286 116.416C316.286 118.12 320.378 116.836 320.378 119.26C320.378 120.352 319.418 121.06 317.774 121.06ZM323.645 121.06C322.601 121.06 321.593 120.724 321.077 120.28L321.461 119.608C321.965 120.004 322.817 120.316 323.705 120.316C324.905 120.316 325.397 119.908 325.397 119.284C325.397 117.64 321.305 118.936 321.305 116.44C321.305 115.408 322.193 114.64 323.801 114.64C324.617 114.64 325.505 114.868 326.033 115.228L325.661 115.912C325.109 115.528 324.449 115.372 323.801 115.372C322.661 115.372 322.157 115.816 322.157 116.416C322.157 118.12 326.249 116.836 326.249 119.26C326.249 120.352 325.289 121.06 323.645 121.06ZM165.591 130.756C164.859 130.756 164.475 131.164 164.475 131.944V132.688H166.419V133.408H164.499V139H163.647V133.408H162.519V132.688H163.647V131.908C163.647 130.78 164.319 130.036 165.555 130.036C166.023 130.036 166.503 130.168 166.815 130.432L166.527 131.068C166.287 130.864 165.951 130.756 165.591 130.756ZM170.044 139.06C168.196 139.06 166.828 137.716 166.828 135.844C166.828 133.972 168.196 132.64 170.044 132.64C171.892 132.64 173.248 133.972 173.248 135.844C173.248 137.716 171.892 139.06 170.044 139.06ZM170.044 138.304C171.388 138.304 172.384 137.32 172.384 135.844C172.384 134.368 171.388 133.384 170.044 133.384C168.7 133.384 167.692 134.368 167.692 135.844C167.692 137.32 168.7 138.304 170.044 138.304ZM175.804 133.924C176.2 133.084 177.004 132.64 178.168 132.64V133.468C178.096 133.468 178.024 133.456 177.964 133.456C176.644 133.456 175.84 134.296 175.84 135.784V139H174.988V132.688H175.804V133.924ZM188.464 132.688H189.244L186.856 139H186.052L184.06 133.828L182.068 139H181.264L178.888 132.688H179.704L181.684 138.052L183.712 132.688H184.444L186.46 138.052L188.464 132.688ZM192.547 132.64C194.179 132.64 195.103 133.456 195.103 135.088V139H194.287V138.016C193.903 138.664 193.159 139.06 192.115 139.06C190.687 139.06 189.811 138.316 189.811 137.224C189.811 136.252 190.435 135.436 192.247 135.436H194.251V135.052C194.251 133.972 193.639 133.384 192.463 133.384C191.647 133.384 190.879 133.672 190.363 134.128L189.979 133.492C190.615 132.952 191.551 132.64 192.547 132.64ZM192.247 138.388C193.207 138.388 193.915 137.932 194.251 137.104V136.072H192.271C191.047 136.072 190.651 136.552 190.651 137.2C190.651 137.932 191.239 138.388 192.247 138.388ZM198.233 133.924C198.629 133.084 199.433 132.64 200.597 132.64V133.468C200.525 133.468 200.453 133.456 200.393 133.456C199.073 133.456 198.269 134.296 198.269 135.784V139H197.417V132.688H198.233V133.924ZM206.99 130.096H207.842V139H207.026V137.752C206.51 138.604 205.634 139.06 204.59 139.06C202.79 139.06 201.446 137.752 201.446 135.844C201.446 133.936 202.79 132.64 204.59 132.64C205.598 132.64 206.462 133.072 206.99 133.888V130.096ZM204.662 138.304C205.994 138.304 207.002 137.32 207.002 135.844C207.002 134.368 205.994 133.384 204.662 133.384C203.318 133.384 202.31 134.368 202.31 135.844C202.31 137.32 203.318 138.304 204.662 138.304ZM210.298 139.06C209.95 139.06 209.662 138.772 209.662 138.4C209.662 138.028 209.95 137.752 210.298 137.752C210.646 137.752 210.946 138.028 210.946 138.4C210.946 138.772 210.646 139.06 210.298 139.06Z" fill="white"/>
<defs>
<linearGradient id="paint0_linear_937_77" x1="0" y1="12" x2="133.437" y2="26.0002" gradientUnits="userSpaceOnUse">
<stop stop-color="#70C0B2"/>
<stop offset="0.293999" stop-color="#0198B6"/>
<stop offset="0.817393" stop-color="#007289"/>
</linearGradient>
</defs>
</svg>
