<svg width="347" height="120" viewBox="0 0 347 120" fill="none" xmlns="http://www.w3.org/2000/svg">
<path d="M17.504 32V20.8H22.112C23.104 20.8 23.952 20.96 24.656 21.28C25.3707 21.6 25.92 22.0587 26.304 22.656C26.688 23.2533 26.88 23.9627 26.88 24.784C26.88 25.6053 26.688 26.3147 26.304 26.912C25.92 27.4987 25.3707 27.952 24.656 28.272C23.952 28.5813 23.104 28.736 22.112 28.736H18.656L19.584 27.792V32H17.504ZM24.832 32L22 27.936H24.224L27.072 32H24.832ZM19.584 28.016L18.656 27.024H22.016C22.9333 27.024 23.6213 26.8267 24.08 26.432C24.5493 26.0373 24.784 25.488 24.784 24.784C24.784 24.0693 24.5493 23.52 24.08 23.136C23.6213 22.752 22.9333 22.56 22.016 22.56H18.656L19.584 21.536V28.016ZM34.201 32V30.272L34.089 29.904V26.88C34.089 26.2933 33.913 25.84 33.561 25.52C33.209 25.1893 32.6757 25.024 31.961 25.024C31.481 25.024 31.0063 25.0987 30.537 25.248C30.0783 25.3973 29.689 25.6053 29.369 25.872L28.585 24.416C29.0437 24.064 29.5877 23.8027 30.217 23.632C30.857 23.4507 31.5183 23.36 32.201 23.36C33.4383 23.36 34.393 23.6587 35.065 24.256C35.7477 24.8427 36.089 25.7547 36.089 26.992V32H34.201ZM31.513 32.112C30.873 32.112 30.313 32.0053 29.833 31.792C29.353 31.568 28.9797 31.264 28.713 30.88C28.457 30.4853 28.329 30.0427 28.329 29.552C28.329 29.072 28.441 28.64 28.665 28.256C28.8997 27.872 29.2783 27.568 29.801 27.344C30.3237 27.12 31.017 27.008 31.881 27.008H34.361V28.336H32.025C31.3423 28.336 30.8837 28.448 30.649 28.672C30.4143 28.8853 30.297 29.152 30.297 29.472C30.297 29.8347 30.441 30.1227 30.729 30.336C31.017 30.5493 31.417 30.656 31.929 30.656C32.4197 30.656 32.857 30.544 33.241 30.32C33.6357 30.096 33.9183 29.7653 34.089 29.328L34.425 30.528C34.233 31.0293 33.8863 31.4187 33.385 31.696C32.8943 31.9733 32.2703 32.112 31.513 32.112ZM43.3918 32.112C42.6984 32.112 42.0638 31.952 41.4878 31.632C40.9224 31.312 40.4691 30.832 40.1278 30.192C39.7971 29.5413 39.6318 28.72 39.6318 27.728C39.6318 26.7253 39.7918 25.904 40.1118 25.264C40.4424 24.624 40.8904 24.1493 41.4557 23.84C42.0211 23.52 42.6664 23.36 43.3918 23.36C44.2344 23.36 44.9758 23.5413 45.6158 23.904C46.2664 24.2667 46.7784 24.7733 47.1518 25.424C47.5358 26.0747 47.7278 26.8427 47.7278 27.728C47.7278 28.6133 47.5358 29.3867 47.1518 30.048C46.7784 30.6987 46.2664 31.2053 45.6158 31.568C44.9758 31.9307 44.2344 32.112 43.3918 32.112ZM38.6558 35.104V23.456H40.5598V25.472L40.4958 27.744L40.6558 30.016V35.104H38.6558ZM43.1678 30.4C43.6478 30.4 44.0744 30.2933 44.4478 30.08C44.8318 29.8667 45.1358 29.5573 45.3598 29.152C45.5838 28.7467 45.6958 28.272 45.6958 27.728C45.6958 27.1733 45.5838 26.6987 45.3598 26.304C45.1358 25.8987 44.8318 25.5893 44.4478 25.376C44.0744 25.1627 43.6478 25.056 43.1678 25.056C42.6878 25.056 42.2558 25.1627 41.8718 25.376C41.4878 25.5893 41.1838 25.8987 40.9598 26.304C40.7358 26.6987 40.6238 27.1733 40.6238 27.728C40.6238 28.272 40.7358 28.7467 40.9598 29.152C41.1838 29.5573 41.4878 29.8667 41.8718 30.08C42.2558 30.2933 42.6878 30.4 43.1678 30.4ZM49.6245 32V23.456H51.6245V32H49.6245ZM50.6325 22.048C50.2592 22.048 49.9498 21.9307 49.7045 21.696C49.4698 21.4613 49.3525 21.1787 49.3525 20.848C49.3525 20.5067 49.4698 20.224 49.7045 20C49.9498 19.7653 50.2592 19.648 50.6325 19.648C51.0058 19.648 51.3098 19.76 51.5445 19.984C51.7898 20.1973 51.9125 20.4693 51.9125 20.8C51.9125 21.152 51.7952 21.4507 51.5605 21.696C51.3258 21.9307 51.0165 22.048 50.6325 22.048ZM57.8655 32.112C57.0442 32.112 56.3028 31.9307 55.6415 31.568C54.9908 31.1947 54.4788 30.6827 54.1055 30.032C53.7322 29.3813 53.5455 28.6133 53.5455 27.728C53.5455 26.8427 53.7322 26.0747 54.1055 25.424C54.4788 24.7733 54.9908 24.2667 55.6415 23.904C56.3028 23.5413 57.0442 23.36 57.8655 23.36C58.5802 23.36 59.2202 23.52 59.7855 23.84C60.3508 24.1493 60.7988 24.624 61.1295 25.264C61.4602 25.904 61.6255 26.7253 61.6255 27.728C61.6255 28.72 61.4655 29.5413 61.1455 30.192C60.8255 30.832 60.3828 31.312 59.8175 31.632C59.2522 31.952 58.6015 32.112 57.8655 32.112ZM58.1055 30.4C58.5855 30.4 59.0122 30.2933 59.3855 30.08C59.7695 29.8667 60.0735 29.5573 60.2975 29.152C60.5322 28.7467 60.6495 28.272 60.6495 27.728C60.6495 27.1733 60.5322 26.6987 60.2975 26.304C60.0735 25.8987 59.7695 25.5893 59.3855 25.376C59.0122 25.1627 58.5855 25.056 58.1055 25.056C57.6255 25.056 57.1935 25.1627 56.8095 25.376C56.4362 25.5893 56.1322 25.8987 55.8975 26.304C55.6735 26.6987 55.5615 27.1733 55.5615 27.728C55.5615 28.272 55.6735 28.7467 55.8975 29.152C56.1322 29.5573 56.4362 29.8667 56.8095 30.08C57.1935 30.2933 57.6255 30.4 58.1055 30.4ZM60.6975 32V29.984L60.7775 27.712L60.6175 25.44V20.128H62.6015V32H60.6975ZM75.0798 32.16C74.2051 32.16 73.3998 32.0213 72.6638 31.744C71.9384 31.456 71.3038 31.056 70.7598 30.544C70.2158 30.0213 69.7944 29.408 69.4958 28.704C69.1971 28 69.0478 27.232 69.0478 26.4C69.0478 25.568 69.1971 24.8 69.4958 24.096C69.7944 23.392 70.2158 22.784 70.7598 22.272C71.3144 21.7493 71.9598 21.3493 72.6958 21.072C73.4318 20.784 74.2371 20.64 75.1118 20.64C76.0611 20.64 76.9144 20.7947 77.6718 21.104C78.4398 21.4133 79.0851 21.8667 79.6078 22.464L78.2958 23.744C77.8584 23.3067 77.3838 22.9867 76.8718 22.784C76.3704 22.5707 75.8158 22.464 75.2078 22.464C74.6211 22.464 74.0771 22.56 73.5758 22.752C73.0744 22.944 72.6424 23.216 72.2798 23.568C71.9171 23.92 71.6344 24.336 71.4318 24.816C71.2398 25.296 71.1438 25.824 71.1438 26.4C71.1438 26.9653 71.2398 27.488 71.4318 27.968C71.6344 28.448 71.9171 28.8693 72.2798 29.232C72.6424 29.584 73.0691 29.856 73.5598 30.048C74.0504 30.24 74.5944 30.336 75.1918 30.336C75.7464 30.336 76.2798 30.2507 76.7917 30.08C77.3144 29.8987 77.8104 29.6 78.2798 29.184L79.4638 30.736C78.8771 31.2053 78.1944 31.5627 77.4158 31.808C76.6478 32.0427 75.8691 32.16 75.0798 32.16ZM77.4958 30.464V26.272H79.4638V30.736L77.4958 30.464ZM82.0151 32V23.456H83.9191V25.808L83.6951 25.12C83.9511 24.544 84.3511 24.1067 84.8951 23.808C85.4498 23.5093 86.1378 23.36 86.9591 23.36V25.264C86.8738 25.2427 86.7938 25.232 86.7191 25.232C86.6445 25.2213 86.5698 25.216 86.4951 25.216C85.7378 25.216 85.1351 25.44 84.6871 25.888C84.2391 26.3253 84.0151 26.9813 84.0151 27.856V32H82.0151ZM92.4176 32.112C91.543 32.112 90.7643 31.9253 90.0816 31.552C89.399 31.168 88.8603 30.6453 88.4656 29.984C88.071 29.3227 87.8736 28.5707 87.8736 27.728C87.8736 26.8747 88.071 26.1227 88.4656 25.472C88.8603 24.8107 89.399 24.2933 90.0816 23.92C90.7643 23.5467 91.543 23.36 92.4176 23.36C93.303 23.36 94.087 23.5467 94.7696 23.92C95.463 24.2933 96.0016 24.8053 96.3856 25.456C96.7803 26.1067 96.9776 26.864 96.9776 27.728C96.9776 28.5707 96.7803 29.3227 96.3856 29.984C96.0016 30.6453 95.463 31.168 94.7696 31.552C94.087 31.9253 93.303 32.112 92.4176 32.112ZM92.4176 30.4C92.9083 30.4 93.3456 30.2933 93.7296 30.08C94.1136 29.8667 94.4123 29.5573 94.6256 29.152C94.8496 28.7467 94.9616 28.272 94.9616 27.728C94.9616 27.1733 94.8496 26.6987 94.6256 26.304C94.4123 25.8987 94.1136 25.5893 93.7296 25.376C93.3456 25.1627 92.9136 25.056 92.4336 25.056C91.943 25.056 91.5056 25.1627 91.1216 25.376C90.7483 25.5893 90.4496 25.8987 90.2256 26.304C90.0016 26.6987 89.8896 27.1733 89.8896 27.728C89.8896 28.272 90.0016 28.7467 90.2256 29.152C90.4496 29.5573 90.7483 29.8667 91.1216 30.08C91.5056 30.2933 91.9376 30.4 92.4176 30.4ZM100.544 32L97.4078 23.456H99.2958L101.984 30.992H101.088L103.904 23.456H105.584L108.32 30.992H107.44L110.208 23.456H111.984L108.832 32H106.912L104.416 25.328H105.008L102.464 32H100.544ZM116.809 32.112C115.871 32.112 115.145 31.872 114.633 31.392C114.121 30.9013 113.865 30.1813 113.865 29.232V21.568H115.865V29.184C115.865 29.5893 115.967 29.904 116.169 30.128C116.383 30.352 116.676 30.464 117.049 30.464C117.497 30.464 117.871 30.3467 118.169 30.112L118.729 31.536C118.495 31.728 118.207 31.872 117.865 31.968C117.524 32.064 117.172 32.112 116.809 32.112ZM112.457 25.12V23.52H118.153V25.12H112.457ZM125.223 23.36C125.905 23.36 126.513 23.4933 127.047 23.76C127.591 24.0267 128.017 24.4373 128.327 24.992C128.636 25.536 128.791 26.24 128.791 27.104V32H126.791V27.36C126.791 26.6027 126.609 26.0373 126.247 25.664C125.895 25.2907 125.399 25.104 124.759 25.104C124.289 25.104 123.873 25.2 123.511 25.392C123.148 25.584 122.865 25.872 122.663 26.256C122.471 26.6293 122.375 27.104 122.375 27.68V32H120.375V20.128H122.375V25.76L121.943 25.056C122.241 24.512 122.673 24.096 123.239 23.808C123.815 23.5093 124.476 23.36 125.223 23.36ZM135.942 32V20.8H137.654L142.55 28.976H141.654L146.47 20.8H148.182L148.198 32H146.23L146.214 23.888H146.63L142.534 30.72H141.606L137.446 23.888H137.926V32H135.942ZM156.295 32V30.272L156.183 29.904V26.88C156.183 26.2933 156.007 25.84 155.655 25.52C155.303 25.1893 154.769 25.024 154.055 25.024C153.575 25.024 153.1 25.0987 152.631 25.248C152.172 25.3973 151.783 25.6053 151.463 25.872L150.679 24.416C151.137 24.064 151.681 23.8027 152.311 23.632C152.951 23.4507 153.612 23.36 154.295 23.36C155.532 23.36 156.487 23.6587 157.159 24.256C157.841 24.8427 158.183 25.7547 158.183 26.992V32H156.295ZM153.607 32.112C152.967 32.112 152.407 32.0053 151.927 31.792C151.447 31.568 151.073 31.264 150.807 30.88C150.551 30.4853 150.423 30.0427 150.423 29.552C150.423 29.072 150.535 28.64 150.759 28.256C150.993 27.872 151.372 27.568 151.895 27.344C152.417 27.12 153.111 27.008 153.975 27.008H156.455V28.336H154.119C153.436 28.336 152.977 28.448 152.743 28.672C152.508 28.8853 152.391 29.152 152.391 29.472C152.391 29.8347 152.535 30.1227 152.823 30.336C153.111 30.5493 153.511 30.656 154.023 30.656C154.513 30.656 154.951 30.544 155.335 30.32C155.729 30.096 156.012 29.7653 156.183 29.328L156.519 30.528C156.327 31.0293 155.98 31.4187 155.479 31.696C154.988 31.9733 154.364 32.112 153.607 32.112ZM164.381 32.112C163.56 32.112 162.818 31.9307 162.157 31.568C161.506 31.1947 160.994 30.6827 160.621 30.032C160.248 29.3813 160.061 28.6133 160.061 27.728C160.061 26.8427 160.248 26.0747 160.621 25.424C160.994 24.7733 161.506 24.2667 162.157 23.904C162.818 23.5413 163.56 23.36 164.381 23.36C165.096 23.36 165.736 23.52 166.301 23.84C166.866 24.1493 167.314 24.624 167.645 25.264C167.976 25.904 168.141 26.7253 168.141 27.728C168.141 28.72 167.981 29.5413 167.661 30.192C167.341 30.832 166.898 31.312 166.333 31.632C165.768 31.952 165.117 32.112 164.381 32.112ZM164.621 30.4C165.101 30.4 165.528 30.2933 165.901 30.08C166.285 29.8667 166.589 29.5573 166.813 29.152C167.048 28.7467 167.165 28.272 167.165 27.728C167.165 27.1733 167.048 26.6987 166.813 26.304C166.589 25.8987 166.285 25.5893 165.901 25.376C165.528 25.1627 165.101 25.056 164.621 25.056C164.141 25.056 163.709 25.1627 163.325 25.376C162.952 25.5893 162.648 25.8987 162.413 26.304C162.189 26.6987 162.077 27.1733 162.077 27.728C162.077 28.272 162.189 28.7467 162.413 29.152C162.648 29.5573 162.952 29.8667 163.325 30.08C163.709 30.2933 164.141 30.4 164.621 30.4ZM167.213 32V29.984L167.293 27.712L167.133 25.44V20.128H169.117V32H167.213ZM175.766 32.112C174.816 32.112 173.984 31.9253 173.27 31.552C172.566 31.168 172.016 30.6453 171.622 29.984C171.238 29.3227 171.046 28.5707 171.046 27.728C171.046 26.8747 171.232 26.1227 171.606 25.472C171.99 24.8107 172.512 24.2933 173.174 23.92C173.846 23.5467 174.608 23.36 175.462 23.36C176.294 23.36 177.035 23.5413 177.686 23.904C178.336 24.2667 178.848 24.7787 179.222 25.44C179.595 26.1013 179.782 26.88 179.782 27.776C179.782 27.8613 179.776 27.9573 179.766 28.064C179.766 28.1707 179.76 28.272 179.75 28.368H172.63V27.04H178.694L177.91 27.456C177.92 26.9653 177.819 26.5333 177.606 26.16C177.392 25.7867 177.099 25.4933 176.726 25.28C176.363 25.0667 175.942 24.96 175.462 24.96C174.971 24.96 174.539 25.0667 174.166 25.28C173.803 25.4933 173.515 25.792 173.302 26.176C173.099 26.5493 172.998 26.992 172.998 27.504V27.824C172.998 28.336 173.115 28.7893 173.35 29.184C173.584 29.5787 173.915 29.8827 174.342 30.096C174.768 30.3093 175.259 30.416 175.814 30.416C176.294 30.416 176.726 30.3413 177.11 30.192C177.494 30.0427 177.835 29.808 178.134 29.488L179.206 30.72C178.822 31.168 178.336 31.5147 177.75 31.76C177.174 31.9947 176.512 32.112 175.766 32.112ZM188.237 25.456H193.805V27.168H188.237V25.456ZM188.397 30.256H194.717V32H186.317V20.8H194.493V22.544H188.397V30.256ZM202.029 32V30.272L201.917 29.904V26.88C201.917 26.2933 201.741 25.84 201.389 25.52C201.037 25.1893 200.504 25.024 199.789 25.024C199.309 25.024 198.834 25.0987 198.365 25.248C197.906 25.3973 197.517 25.6053 197.197 25.872L196.413 24.416C196.872 24.064 197.416 23.8027 198.045 23.632C198.685 23.4507 199.346 23.36 200.029 23.36C201.266 23.36 202.221 23.6587 202.893 24.256C203.576 24.8427 203.917 25.7547 203.917 26.992V32H202.029ZM199.341 32.112C198.701 32.112 198.141 32.0053 197.661 31.792C197.181 31.568 196.808 31.264 196.541 30.88C196.285 30.4853 196.157 30.0427 196.157 29.552C196.157 29.072 196.269 28.64 196.493 28.256C196.728 27.872 197.106 27.568 197.629 27.344C198.152 27.12 198.845 27.008 199.709 27.008H202.189V28.336H199.853C199.17 28.336 198.712 28.448 198.477 28.672C198.242 28.8853 198.125 29.152 198.125 29.472C198.125 29.8347 198.269 30.1227 198.557 30.336C198.845 30.5493 199.245 30.656 199.757 30.656C200.248 30.656 200.685 30.544 201.069 30.32C201.464 30.096 201.746 29.7653 201.917 29.328L202.253 30.528C202.061 31.0293 201.714 31.4187 201.213 31.696C200.722 31.9733 200.098 32.112 199.341 32.112ZM209.124 32.112C208.409 32.112 207.721 32.0213 207.06 31.84C206.409 31.648 205.892 31.4187 205.508 31.152L206.276 29.632C206.66 29.8773 207.119 30.08 207.652 30.24C208.185 30.4 208.719 30.48 209.252 30.48C209.881 30.48 210.335 30.3947 210.612 30.224C210.9 30.0533 211.044 29.824 211.044 29.536C211.044 29.3013 210.948 29.1253 210.756 29.008C210.564 28.88 210.313 28.784 210.004 28.72C209.695 28.656 209.348 28.5973 208.964 28.544C208.591 28.4907 208.212 28.4213 207.828 28.336C207.455 28.24 207.113 28.1067 206.804 27.936C206.495 27.7547 206.244 27.5147 206.052 27.216C205.86 26.9173 205.764 26.5227 205.764 26.032C205.764 25.488 205.919 25.0187 206.228 24.624C206.537 24.2187 206.969 23.9093 207.524 23.696C208.089 23.472 208.756 23.36 209.524 23.36C210.1 23.36 210.681 23.424 211.268 23.552C211.855 23.68 212.34 23.8613 212.724 24.096L211.956 25.616C211.551 25.3707 211.14 25.2053 210.724 25.12C210.319 25.024 209.913 24.976 209.508 24.976C208.9 24.976 208.447 25.0667 208.148 25.248C207.86 25.4293 207.716 25.6587 207.716 25.936C207.716 26.192 207.812 26.384 208.004 26.512C208.196 26.64 208.447 26.7413 208.756 26.816C209.065 26.8907 209.407 26.9547 209.78 27.008C210.164 27.0507 210.543 27.12 210.916 27.216C211.289 27.312 211.631 27.4453 211.94 27.616C212.26 27.776 212.516 28.0053 212.708 28.304C212.9 28.6027 212.996 28.992 212.996 29.472C212.996 30.0053 212.836 30.4693 212.516 30.864C212.207 31.2587 211.764 31.568 211.188 31.792C210.612 32.0053 209.924 32.112 209.124 32.112ZM215.266 35.216C214.85 35.216 214.434 35.1467 214.018 35.008C213.602 34.8693 213.255 34.6773 212.978 34.432L213.778 32.96C213.981 33.1413 214.21 33.2853 214.466 33.392C214.722 33.4987 214.983 33.552 215.25 33.552C215.613 33.552 215.906 33.4613 216.13 33.28C216.354 33.0987 216.562 32.7947 216.754 32.368L217.25 31.248L217.41 31.008L220.642 23.456H222.562L218.562 32.688C218.295 33.328 217.997 33.8347 217.666 34.208C217.346 34.5813 216.983 34.8427 216.578 34.992C216.183 35.1413 215.746 35.216 215.266 35.216ZM217.026 32.304L213.17 23.456H215.25L218.386 30.832L217.026 32.304ZM224.53 26.016C224.167 26.016 223.858 25.8933 223.602 25.648C223.346 25.392 223.218 25.072 223.218 24.688C223.218 24.2827 223.346 23.9627 223.602 23.728C223.858 23.4827 224.167 23.36 224.53 23.36C224.893 23.36 225.202 23.4827 225.458 23.728C225.714 23.9627 225.842 24.2827 225.842 24.688C225.842 25.072 225.714 25.392 225.458 25.648C225.202 25.8933 224.893 26.016 224.53 26.016ZM224.53 32.112C224.167 32.112 223.858 31.9893 223.602 31.744C223.346 31.488 223.218 31.168 223.218 30.784C223.218 30.3787 223.346 30.0587 223.602 29.824C223.858 29.5787 224.167 29.456 224.53 29.456C224.893 29.456 225.202 29.5787 225.458 29.824C225.714 30.0587 225.842 30.3787 225.842 30.784C225.842 31.168 225.714 31.488 225.458 31.744C225.202 31.9893 224.893 32.112 224.53 32.112ZM235.882 32.16C235.008 32.16 234.17 32.0373 233.37 31.792C232.57 31.536 231.936 31.2107 231.466 30.816L232.186 29.2C232.634 29.552 233.189 29.8453 233.85 30.08C234.512 30.3147 235.189 30.432 235.882 30.432C236.469 30.432 236.944 30.368 237.306 30.24C237.669 30.112 237.936 29.9413 238.106 29.728C238.277 29.504 238.362 29.2533 238.362 28.976C238.362 28.6347 238.24 28.3627 237.994 28.16C237.749 27.9467 237.429 27.7813 237.034 27.664C236.65 27.536 236.218 27.4187 235.738 27.312C235.269 27.2053 234.794 27.0827 234.314 26.944C233.845 26.7947 233.413 26.608 233.018 26.384C232.634 26.1493 232.32 25.84 232.074 25.456C231.829 25.072 231.706 24.5813 231.706 23.984C231.706 23.376 231.866 22.8213 232.186 22.32C232.517 21.808 233.013 21.4027 233.674 21.104C234.346 20.7947 235.194 20.64 236.218 20.64C236.89 20.64 237.557 20.7253 238.218 20.896C238.88 21.0667 239.456 21.312 239.946 21.632L239.29 23.248C238.789 22.9493 238.272 22.7307 237.738 22.592C237.205 22.4427 236.693 22.368 236.202 22.368C235.626 22.368 235.157 22.4373 234.794 22.576C234.442 22.7147 234.181 22.896 234.01 23.12C233.85 23.344 233.77 23.6 233.77 23.888C233.77 24.2293 233.888 24.5067 234.122 24.72C234.368 24.9227 234.682 25.0827 235.066 25.2C235.461 25.3173 235.898 25.4347 236.378 25.552C236.858 25.6587 237.333 25.7813 237.802 25.92C238.282 26.0587 238.714 26.24 239.098 26.464C239.493 26.688 239.808 26.992 240.042 27.376C240.288 27.76 240.41 28.2453 240.41 28.832C240.41 29.4293 240.245 29.984 239.914 30.496C239.594 30.9973 239.098 31.4027 238.426 31.712C237.754 32.0107 236.906 32.16 235.882 32.16ZM246.201 32.112C245.305 32.112 244.505 31.9253 243.801 31.552C243.107 31.168 242.563 30.6453 242.169 29.984C241.774 29.3227 241.577 28.5707 241.577 27.728C241.577 26.8747 241.774 26.1227 242.169 25.472C242.563 24.8107 243.107 24.2933 243.801 23.92C244.505 23.5467 245.305 23.36 246.201 23.36C247.033 23.36 247.763 23.5307 248.393 23.872C249.033 24.2027 249.518 24.6933 249.849 25.344L248.313 26.24C248.057 25.8347 247.742 25.536 247.369 25.344C247.006 25.152 246.611 25.056 246.185 25.056C245.694 25.056 245.251 25.1627 244.857 25.376C244.462 25.5893 244.153 25.8987 243.929 26.304C243.705 26.6987 243.593 27.1733 243.593 27.728C243.593 28.2827 243.705 28.7627 243.929 29.168C244.153 29.5627 244.462 29.8667 244.857 30.08C245.251 30.2933 245.694 30.4 246.185 30.4C246.611 30.4 247.006 30.304 247.369 30.112C247.742 29.92 248.057 29.6213 248.313 29.216L249.849 30.112C249.518 30.752 249.033 31.248 248.393 31.6C247.763 31.9413 247.033 32.112 246.201 32.112ZM256.842 32V30.272L256.73 29.904V26.88C256.73 26.2933 256.554 25.84 256.202 25.52C255.85 25.1893 255.316 25.024 254.602 25.024C254.122 25.024 253.647 25.0987 253.178 25.248C252.719 25.3973 252.33 25.6053 252.01 25.872L251.226 24.416C251.684 24.064 252.228 23.8027 252.858 23.632C253.498 23.4507 254.159 23.36 254.842 23.36C256.079 23.36 257.034 23.6587 257.706 24.256C258.388 24.8427 258.73 25.7547 258.73 26.992V32H256.842ZM254.154 32.112C253.514 32.112 252.954 32.0053 252.474 31.792C251.994 31.568 251.62 31.264 251.354 30.88C251.098 30.4853 250.97 30.0427 250.97 29.552C250.97 29.072 251.082 28.64 251.306 28.256C251.54 27.872 251.919 27.568 252.442 27.344C252.964 27.12 253.658 27.008 254.522 27.008H257.002V28.336H254.666C253.983 28.336 253.524 28.448 253.29 28.672C253.055 28.8853 252.938 29.152 252.938 29.472C252.938 29.8347 253.082 30.1227 253.37 30.336C253.658 30.5493 254.058 30.656 254.57 30.656C255.06 30.656 255.498 30.544 255.882 30.32C256.276 30.096 256.559 29.7653 256.73 29.328L257.066 30.528C256.874 31.0293 256.527 31.4187 256.026 31.696C255.535 31.9733 254.911 32.112 254.154 32.112ZM261.296 32V20.128H263.296V32H261.296ZM271.185 32V30.272L271.073 29.904V26.88C271.073 26.2933 270.897 25.84 270.545 25.52C270.193 25.1893 269.66 25.024 268.945 25.024C268.465 25.024 267.991 25.0987 267.521 25.248C267.063 25.3973 266.673 25.6053 266.353 25.872L265.569 24.416C266.028 24.064 266.572 23.8027 267.201 23.632C267.841 23.4507 268.503 23.36 269.185 23.36C270.423 23.36 271.377 23.6587 272.049 24.256C272.732 24.8427 273.073 25.7547 273.073 26.992V32H271.185ZM268.497 32.112C267.857 32.112 267.297 32.0053 266.817 31.792C266.337 31.568 265.964 31.264 265.697 30.88C265.441 30.4853 265.313 30.0427 265.313 29.552C265.313 29.072 265.425 28.64 265.649 28.256C265.884 27.872 266.263 27.568 266.785 27.344C267.308 27.12 268.001 27.008 268.865 27.008H271.345V28.336H269.009C268.327 28.336 267.868 28.448 267.633 28.672C267.399 28.8853 267.281 29.152 267.281 29.472C267.281 29.8347 267.425 30.1227 267.713 30.336C268.001 30.5493 268.401 30.656 268.913 30.656C269.404 30.656 269.841 30.544 270.225 30.32C270.62 30.096 270.903 29.7653 271.073 29.328L271.409 30.528C271.217 31.0293 270.871 31.4187 270.369 31.696C269.879 31.9733 269.255 32.112 268.497 32.112ZM280.376 32.112C279.651 32.112 279.005 31.952 278.44 31.632C277.875 31.312 277.427 30.832 277.096 30.192C276.776 29.5413 276.616 28.72 276.616 27.728C276.616 26.7253 276.781 25.904 277.112 25.264C277.453 24.624 277.907 24.1493 278.472 23.84C279.048 23.52 279.683 23.36 280.376 23.36C281.219 23.36 281.96 23.5413 282.6 23.904C283.251 24.2667 283.763 24.7733 284.136 25.424C284.52 26.0747 284.712 26.8427 284.712 27.728C284.712 28.6133 284.52 29.3813 284.136 30.032C283.763 30.6827 283.251 31.1947 282.6 31.568C281.96 31.9307 281.219 32.112 280.376 32.112ZM275.64 32V20.128H277.64V25.44L277.48 27.712L277.544 29.984V32H275.64ZM280.152 30.4C280.632 30.4 281.059 30.2933 281.432 30.08C281.816 29.8667 282.12 29.5573 282.344 29.152C282.568 28.7467 282.68 28.272 282.68 27.728C282.68 27.1733 282.568 26.6987 282.344 26.304C282.12 25.8987 281.816 25.5893 281.432 25.376C281.059 25.1627 280.632 25.056 280.152 25.056C279.672 25.056 279.24 25.1627 278.856 25.376C278.472 25.5893 278.168 25.8987 277.944 26.304C277.72 26.6987 277.608 27.1733 277.608 27.728C277.608 28.272 277.72 28.7467 277.944 29.152C278.168 29.5573 278.472 29.8667 278.856 30.08C279.24 30.2933 279.672 30.4 280.152 30.4ZM286.609 32V23.456H288.609V32H286.609ZM287.617 22.048C287.244 22.048 286.934 21.9307 286.689 21.696C286.454 21.4613 286.337 21.1787 286.337 20.848C286.337 20.5067 286.454 20.224 286.689 20C286.934 19.7653 287.244 19.648 287.617 19.648C287.99 19.648 288.294 19.76 288.529 19.984C288.774 20.1973 288.897 20.4693 288.897 20.8C288.897 21.152 288.78 21.4507 288.545 21.696C288.31 21.9307 288.001 22.048 287.617 22.048ZM291.234 32V20.128H293.234V32H291.234ZM295.859 32V23.456H297.859V32H295.859ZM296.867 22.048C296.494 22.048 296.184 21.9307 295.939 21.696C295.704 21.4613 295.587 21.1787 295.587 20.848C295.587 20.5067 295.704 20.224 295.939 20C296.184 19.7653 296.494 19.648 296.867 19.648C297.24 19.648 297.544 19.76 297.779 19.984C298.024 20.1973 298.147 20.4693 298.147 20.8C298.147 21.152 298.03 21.4507 297.795 21.696C297.56 21.9307 297.251 22.048 296.867 22.048ZM303.7 32.112C302.761 32.112 302.036 31.872 301.524 31.392C301.012 30.9013 300.756 30.1813 300.756 29.232V21.568H302.756V29.184C302.756 29.5893 302.857 29.904 303.06 30.128C303.273 30.352 303.567 30.464 303.94 30.464C304.388 30.464 304.761 30.3467 305.06 30.112L305.62 31.536C305.385 31.728 305.097 31.872 304.756 31.968C304.415 32.064 304.063 32.112 303.7 32.112ZM299.348 25.12V23.52H305.044V25.12H299.348ZM307.813 35.216C307.397 35.216 306.981 35.1467 306.565 35.008C306.149 34.8693 305.802 34.6773 305.525 34.432L306.325 32.96C306.528 33.1413 306.757 33.2853 307.013 33.392C307.269 33.4987 307.53 33.552 307.797 33.552C308.16 33.552 308.453 33.4613 308.677 33.28C308.901 33.0987 309.109 32.7947 309.301 32.368L309.797 31.248L309.957 31.008L313.189 23.456H315.109L311.109 32.688C310.842 33.328 310.544 33.8347 310.213 34.208C309.893 34.5813 309.53 34.8427 309.125 34.992C308.73 35.1413 308.293 35.216 307.813 35.216ZM309.573 32.304L305.717 23.456H307.797L310.933 30.832L309.573 32.304ZM20.976 52.16C20.1013 52.16 19.264 52.0373 18.464 51.792C17.664 51.536 17.0293 51.2107 16.56 50.816L17.28 49.2C17.728 49.552 18.2827 49.8453 18.944 50.08C19.6053 50.3147 20.2827 50.432 20.976 50.432C21.5627 50.432 22.0373 50.368 22.4 50.24C22.7627 50.112 23.0293 49.9413 23.2 49.728C23.3707 49.504 23.456 49.2533 23.456 48.976C23.456 48.6347 23.3333 48.3627 23.088 48.16C22.8427 47.9467 22.5227 47.7813 22.128 47.664C21.744 47.536 21.312 47.4187 20.832 47.312C20.3627 47.2053 19.888 47.0827 19.408 46.944C18.9387 46.7947 18.5067 46.608 18.112 46.384C17.728 46.1493 17.4133 45.84 17.168 45.456C16.9227 45.072 16.8 44.5813 16.8 43.984C16.8 43.376 16.96 42.8213 17.28 42.32C17.6107 41.808 18.1067 41.4027 18.768 41.104C19.44 40.7947 20.288 40.64 21.312 40.64C21.984 40.64 22.6507 40.7253 23.312 40.896C23.9733 41.0667 24.5493 41.312 25.04 41.632L24.384 43.248C23.8827 42.9493 23.3653 42.7307 22.832 42.592C22.2987 42.4427 21.7867 42.368 21.296 42.368C20.72 42.368 20.2507 42.4373 19.888 42.576C19.536 42.7147 19.2747 42.896 19.104 43.12C18.944 43.344 18.864 43.6 18.864 43.888C18.864 44.2293 18.9813 44.5067 19.216 44.72C19.4613 44.9227 19.776 45.0827 20.16 45.2C20.5547 45.3173 20.992 45.4347 21.472 45.552C21.952 45.6587 22.4267 45.7813 22.896 45.92C23.376 46.0587 23.808 46.24 24.192 46.464C24.5867 46.688 24.9013 46.992 25.136 47.376C25.3813 47.76 25.504 48.2453 25.504 48.832C25.504 49.4293 25.3387 49.984 25.008 50.496C24.688 50.9973 24.192 51.4027 23.52 51.712C22.848 52.0107 22 52.16 20.976 52.16ZM27.3745 52V43.456H29.3745V52H27.3745ZM28.3825 42.048C28.0092 42.048 27.6998 41.9307 27.4545 41.696C27.2198 41.4613 27.1025 41.1787 27.1025 40.848C27.1025 40.5067 27.2198 40.224 27.4545 40C27.6998 39.7653 28.0092 39.648 28.3825 39.648C28.7558 39.648 29.0598 39.76 29.2945 39.984C29.5398 40.1973 29.6625 40.4693 29.6625 40.8C29.6625 41.152 29.5452 41.4507 29.3105 41.696C29.0758 41.9307 28.7665 42.048 28.3825 42.048ZM42.7835 43.36C43.4662 43.36 44.0688 43.4933 44.5915 43.76C45.1248 44.0267 45.5408 44.4373 45.8395 44.992C46.1382 45.536 46.2875 46.24 46.2875 47.104V52H44.2875V47.36C44.2875 46.6027 44.1222 46.0373 43.7915 45.664C43.4608 45.2907 42.9862 45.104 42.3675 45.104C41.9302 45.104 41.5408 45.2 41.1995 45.392C40.8688 45.584 40.6075 45.8667 40.4155 46.24C40.2342 46.6133 40.1435 47.088 40.1435 47.664V52H38.1435V47.36C38.1435 46.6027 37.9782 46.0373 37.6475 45.664C37.3168 45.2907 36.8422 45.104 36.2235 45.104C35.7862 45.104 35.3968 45.2 35.0555 45.392C34.7248 45.584 34.4635 45.8667 34.2715 46.24C34.0902 46.6133 33.9995 47.088 33.9995 47.664V52H31.9995V43.456H33.9035V45.728L33.5675 45.056C33.8555 44.5013 34.2715 44.08 34.8155 43.792C35.3702 43.504 35.9995 43.36 36.7035 43.36C37.5035 43.36 38.1968 43.5573 38.7835 43.952C39.3808 44.3467 39.7755 44.944 39.9675 45.744L39.1835 45.472C39.4608 44.832 39.9195 44.32 40.5595 43.936C41.1995 43.552 41.9408 43.36 42.7835 43.36ZM53.5793 52.112C52.8859 52.112 52.2513 51.952 51.6753 51.632C51.1099 51.312 50.6566 50.832 50.3153 50.192C49.9846 49.5413 49.8193 48.72 49.8193 47.728C49.8193 46.7253 49.9793 45.904 50.2993 45.264C50.6299 44.624 51.0779 44.1493 51.6432 43.84C52.2086 43.52 52.8539 43.36 53.5793 43.36C54.4219 43.36 55.1633 43.5413 55.8033 43.904C56.4539 44.2667 56.9659 44.7733 57.3393 45.424C57.7233 46.0747 57.9153 46.8427 57.9153 47.728C57.9153 48.6133 57.7233 49.3867 57.3393 50.048C56.9659 50.6987 56.4539 51.2053 55.8033 51.568C55.1633 51.9307 54.4219 52.112 53.5793 52.112ZM48.8433 55.104V43.456H50.7473V45.472L50.6833 47.744L50.8433 50.016V55.104H48.8433ZM53.3553 50.4C53.8353 50.4 54.2619 50.2933 54.6353 50.08C55.0193 49.8667 55.3233 49.5573 55.5473 49.152C55.7713 48.7467 55.8833 48.272 55.8833 47.728C55.8833 47.1733 55.7713 46.6987 55.5473 46.304C55.3233 45.8987 55.0193 45.5893 54.6353 45.376C54.2619 45.1627 53.8353 45.056 53.3553 45.056C52.8753 45.056 52.4433 45.1627 52.0593 45.376C51.6753 45.5893 51.3713 45.8987 51.1473 46.304C50.9233 46.6987 50.8113 47.1733 50.8113 47.728C50.8113 48.272 50.9233 48.7467 51.1473 49.152C51.3713 49.5573 51.6753 49.8667 52.0593 50.08C52.4433 50.2933 52.8753 50.4 53.3553 50.4ZM59.812 52V40.128H61.812V52H59.812ZM64.437 52V43.456H66.437V52H64.437ZM65.445 42.048C65.0717 42.048 64.7623 41.9307 64.517 41.696C64.2823 41.4613 64.165 41.1787 64.165 40.848C64.165 40.5067 64.2823 40.224 64.517 40C64.7623 39.7653 65.0717 39.648 65.445 39.648C65.8183 39.648 66.1223 39.76 66.357 39.984C66.6023 40.1973 66.725 40.4693 66.725 40.8C66.725 41.152 66.6077 41.4507 66.373 41.696C66.1383 41.9307 65.829 42.048 65.445 42.048ZM69.334 52V42.976C69.334 42.08 69.5953 41.3653 70.118 40.832C70.6513 40.288 71.4087 40.016 72.39 40.016C72.742 40.016 73.0727 40.0533 73.382 40.128C73.702 40.2027 73.9687 40.32 74.182 40.48L73.638 41.984C73.4887 41.8667 73.318 41.7813 73.126 41.728C72.934 41.664 72.7367 41.632 72.534 41.632C72.118 41.632 71.8033 41.7493 71.59 41.984C71.3767 42.208 71.27 42.5493 71.27 43.008V43.968L71.334 44.864V52H69.334ZM67.926 45.12V43.52H73.622V45.12H67.926ZM75.03 52V43.456H77.03V52H75.03ZM76.038 42.048C75.6647 42.048 75.3553 41.9307 75.11 41.696C74.8753 41.4613 74.758 41.1787 74.758 40.848C74.758 40.5067 74.8753 40.224 75.11 40C75.3553 39.7653 75.6647 39.648 76.038 39.648C76.4113 39.648 76.7153 39.76 76.95 39.984C77.1953 40.1973 77.318 40.4693 77.318 40.8C77.318 41.152 77.2007 41.4507 76.966 41.696C76.7313 41.9307 76.422 42.048 76.038 42.048ZM83.6718 52.112C82.7224 52.112 81.8904 51.9253 81.1758 51.552C80.4718 51.168 79.9224 50.6453 79.5278 49.984C79.1438 49.3227 78.9518 48.5707 78.9518 47.728C78.9518 46.8747 79.1384 46.1227 79.5118 45.472C79.8958 44.8107 80.4184 44.2933 81.0798 43.92C81.7518 43.5467 82.5144 43.36 83.3678 43.36C84.1998 43.36 84.9411 43.5413 85.5918 43.904C86.2424 44.2667 86.7544 44.7787 87.1278 45.44C87.5011 46.1013 87.6878 46.88 87.6878 47.776C87.6878 47.8613 87.6824 47.9573 87.6718 48.064C87.6718 48.1707 87.6664 48.272 87.6558 48.368H80.5358V47.04H86.5998L85.8158 47.456C85.8264 46.9653 85.7251 46.5333 85.5118 46.16C85.2984 45.7867 85.0051 45.4933 84.6318 45.28C84.2691 45.0667 83.8478 44.96 83.3678 44.96C82.8771 44.96 82.4451 45.0667 82.0718 45.28C81.7091 45.4933 81.4211 45.792 81.2078 46.176C81.0051 46.5493 80.9038 46.992 80.9038 47.504V47.824C80.9038 48.336 81.0211 48.7893 81.2558 49.184C81.4904 49.5787 81.8211 49.8827 82.2478 50.096C82.6744 50.3093 83.1651 50.416 83.7198 50.416C84.1998 50.416 84.6318 50.3413 85.0158 50.192C85.3998 50.0427 85.7411 49.808 86.0398 49.488L87.1118 50.72C86.7278 51.168 86.2424 51.5147 85.6558 51.76C85.0798 51.9947 84.4184 52.112 83.6718 52.112ZM93.2249 52.112C92.4035 52.112 91.6622 51.9307 91.0009 51.568C90.3502 51.1947 89.8382 50.6827 89.4649 50.032C89.0915 49.3813 88.9049 48.6133 88.9049 47.728C88.9049 46.8427 89.0915 46.0747 89.4649 45.424C89.8382 44.7733 90.3502 44.2667 91.0009 43.904C91.6622 43.5413 92.4035 43.36 93.2249 43.36C93.9395 43.36 94.5795 43.52 95.1449 43.84C95.7102 44.1493 96.1582 44.624 96.4889 45.264C96.8195 45.904 96.9849 46.7253 96.9849 47.728C96.9849 48.72 96.8249 49.5413 96.5049 50.192C96.1849 50.832 95.7422 51.312 95.1769 51.632C94.6115 51.952 93.9609 52.112 93.2249 52.112ZM93.4649 50.4C93.9449 50.4 94.3715 50.2933 94.7449 50.08C95.1289 49.8667 95.4329 49.5573 95.6569 49.152C95.8915 48.7467 96.0089 48.272 96.0089 47.728C96.0089 47.1733 95.8915 46.6987 95.6569 46.304C95.4329 45.8987 95.1289 45.5893 94.7449 45.376C94.3715 45.1627 93.9449 45.056 93.4649 45.056C92.9849 45.056 92.5529 45.1627 92.1689 45.376C91.7955 45.5893 91.4915 45.8987 91.2569 46.304C91.0329 46.6987 90.9209 47.1733 90.9209 47.728C90.9209 48.272 91.0329 48.7467 91.2569 49.152C91.4915 49.5573 91.7955 49.8667 92.1689 50.08C92.5529 50.2933 92.9849 50.4 93.4649 50.4ZM96.0569 52V49.984L96.1369 47.712L95.9769 45.44V40.128H97.9609V52H96.0569Z" fill="white"/>
<path d="M17.824 80V68.8H19.008V78.976H25.28V80H17.824ZM34.2249 75.792C34.2249 75.888 34.2089 76.016 34.2089 76.144H27.1689C27.2969 77.904 28.6409 79.072 30.4809 79.072C31.5049 79.072 32.4169 78.704 33.0569 77.968L33.6969 78.704C32.9449 79.6 31.7769 80.08 30.4489 80.08C27.8249 80.08 26.0329 78.288 26.0329 75.792C26.0329 73.296 27.7769 71.52 30.1449 71.52C32.5129 71.52 34.2249 73.264 34.2249 75.792ZM30.1449 72.496C28.5129 72.496 27.3129 73.648 27.1689 75.296H33.1369C32.9929 73.648 31.7929 72.496 30.1449 72.496ZM42.3329 71.584H43.4529L39.7089 80H38.5409L34.8129 71.584H35.9969L39.1489 78.752L42.3329 71.584ZM52.1624 75.792C52.1624 75.888 52.1464 76.016 52.1464 76.144H45.1064C45.2344 77.904 46.5784 79.072 48.4184 79.072C49.4424 79.072 50.3544 78.704 50.9944 77.968L51.6344 78.704C50.8824 79.6 49.7144 80.08 48.3864 80.08C45.7624 80.08 43.9704 78.288 43.9704 75.792C43.9704 73.296 45.7144 71.52 48.0824 71.52C50.4504 71.52 52.1624 73.264 52.1624 75.792ZM48.0824 72.496C46.4504 72.496 45.2504 73.648 45.1064 75.296H51.0744C50.9304 73.648 49.7304 72.496 48.0824 72.496ZM55.5626 73.232C56.0906 72.112 57.1626 71.52 58.7146 71.52V72.624C58.6186 72.624 58.5226 72.608 58.4426 72.608C56.6826 72.608 55.6106 73.728 55.6106 75.712V80H54.4746V71.584H55.5626V73.232ZM63.6999 71.52C65.8759 71.52 67.1079 72.608 67.1079 74.784V80H66.0199V78.688C65.5079 79.552 64.5159 80.08 63.1239 80.08C61.2199 80.08 60.0519 79.088 60.0519 77.632C60.0519 76.336 60.8839 75.248 63.2999 75.248H65.9719V74.736C65.9719 73.296 65.1559 72.512 63.5879 72.512C62.4999 72.512 61.4759 72.896 60.7879 73.504L60.2759 72.656C61.1239 71.936 62.3719 71.52 63.6999 71.52ZM63.2999 79.184C64.5799 79.184 65.5239 78.576 65.9719 77.472V76.096H63.3319C61.6999 76.096 61.1719 76.736 61.1719 77.6C61.1719 78.576 61.9559 79.184 63.2999 79.184ZM76.9286 71.584H78.0166V78.976C78.0166 81.872 76.5926 83.184 73.8086 83.184C72.2726 83.184 70.7686 82.72 69.8886 81.888L70.4646 81.024C71.2646 81.744 72.4806 82.176 73.7766 82.176C75.9046 82.176 76.8806 81.2 76.8806 79.12V78.048C76.1766 79.12 74.9766 79.68 73.6006 79.68C71.2006 79.68 69.3766 78 69.3766 75.584C69.3766 73.168 71.2006 71.52 73.6006 71.52C75.0086 71.52 76.2246 72.096 76.9286 73.2V71.584ZM73.7126 78.672C75.5686 78.672 76.9126 77.408 76.9126 75.584C76.9126 73.76 75.5686 72.512 73.7126 72.512C71.8566 72.512 70.5286 73.76 70.5286 75.584C70.5286 77.408 71.8566 78.672 73.7126 78.672ZM88.5374 75.792C88.5374 75.888 88.5214 76.016 88.5214 76.144H81.4814C81.6094 77.904 82.9534 79.072 84.7934 79.072C85.8174 79.072 86.7294 78.704 87.3694 77.968L88.0094 78.704C87.2574 79.6 86.0894 80.08 84.7614 80.08C82.1374 80.08 80.3454 78.288 80.3454 75.792C80.3454 73.296 82.0894 71.52 84.4574 71.52C86.8254 71.52 88.5374 73.264 88.5374 75.792ZM84.4574 72.496C82.8254 72.496 81.6254 73.648 81.4814 75.296H87.4494C87.3054 73.648 86.1054 72.496 84.4574 72.496ZM98.4771 80.08C96.0131 80.08 94.1891 78.288 94.1891 75.792C94.1891 73.296 96.0131 71.52 98.4771 71.52C100.941 71.52 102.749 73.296 102.749 75.792C102.749 78.288 100.941 80.08 98.4771 80.08ZM98.4771 79.072C100.269 79.072 101.597 77.76 101.597 75.792C101.597 73.824 100.269 72.512 98.4771 72.512C96.6851 72.512 95.3411 73.824 95.3411 75.792C95.3411 77.76 96.6851 79.072 98.4771 79.072ZM111.516 71.584H112.652V80H111.564V78.464C110.972 79.488 109.884 80.08 108.54 80.08C106.396 80.08 104.988 78.88 104.988 76.464V71.584H106.124V76.352C106.124 78.144 107.052 79.056 108.652 79.056C110.412 79.056 111.516 77.92 111.516 76V71.584ZM116.922 73.232C117.45 72.112 118.522 71.52 120.074 71.52V72.624C119.978 72.624 119.882 72.608 119.802 72.608C118.042 72.608 116.97 73.728 116.97 75.712V80H115.834V71.584H116.922V73.232ZM129.387 71.52C131.563 71.52 132.795 72.608 132.795 74.784V80H131.707V78.688C131.195 79.552 130.203 80.08 128.811 80.08C126.907 80.08 125.739 79.088 125.739 77.632C125.739 76.336 126.571 75.248 128.987 75.248H131.659V74.736C131.659 73.296 130.843 72.512 129.275 72.512C128.187 72.512 127.163 72.896 126.475 73.504L125.963 72.656C126.811 71.936 128.059 71.52 129.387 71.52ZM128.987 79.184C130.267 79.184 131.211 78.576 131.659 77.472V76.096H129.019C127.387 76.096 126.859 76.736 126.859 77.6C126.859 78.576 127.643 79.184 128.987 79.184ZM142.616 71.584H143.704V78.976C143.704 81.872 142.28 83.184 139.496 83.184C137.96 83.184 136.456 82.72 135.576 81.888L136.152 81.024C136.952 81.744 138.168 82.176 139.464 82.176C141.592 82.176 142.568 81.2 142.568 79.12V78.048C141.864 79.12 140.664 79.68 139.288 79.68C136.888 79.68 135.064 78 135.064 75.584C135.064 73.168 136.888 71.52 139.288 71.52C140.696 71.52 141.912 72.096 142.616 73.2V71.584ZM139.4 78.672C141.256 78.672 142.6 77.408 142.6 75.584C142.6 73.76 141.256 72.512 139.4 72.512C137.544 72.512 136.216 73.76 136.216 75.584C136.216 77.408 137.544 78.672 139.4 78.672ZM147.457 69.744C146.993 69.744 146.625 69.376 146.625 68.928C146.625 68.496 146.993 68.128 147.457 68.128C147.921 68.128 148.289 68.48 148.289 68.912C148.289 69.376 147.937 69.744 147.457 69.744ZM146.881 80V71.584H148.017V80H146.881ZM151.178 80V68.128H152.314V80H151.178ZM162.819 75.792C162.819 75.888 162.803 76.016 162.803 76.144H155.763C155.891 77.904 157.235 79.072 159.075 79.072C160.099 79.072 161.011 78.704 161.651 77.968L162.291 78.704C161.539 79.6 160.371 80.08 159.043 80.08C156.419 80.08 154.627 78.288 154.627 75.792C154.627 73.296 156.371 71.52 158.739 71.52C161.107 71.52 162.819 73.264 162.819 75.792ZM158.739 72.496C157.107 72.496 155.907 73.648 155.763 75.296H161.731C161.587 73.648 160.387 72.496 158.739 72.496ZM173.654 71.52C176.054 71.52 177.846 73.248 177.846 75.792C177.846 78.352 176.054 80.08 173.654 80.08C172.31 80.08 171.158 79.504 170.454 78.416V83.104H169.318V71.584H170.406V73.248C171.094 72.128 172.262 71.52 173.654 71.52ZM173.574 79.072C175.35 79.072 176.71 77.76 176.71 75.792C176.71 73.84 175.35 72.512 173.574 72.512C171.782 72.512 170.438 73.84 170.438 75.792C170.438 77.76 171.782 79.072 173.574 79.072ZM181.25 73.232C181.778 72.112 182.85 71.52 184.402 71.52V72.624C184.306 72.624 184.21 72.608 184.13 72.608C182.37 72.608 181.298 73.728 181.298 75.712V80H180.162V71.584H181.25V73.232ZM189.821 80.08C187.357 80.08 185.533 78.288 185.533 75.792C185.533 73.296 187.357 71.52 189.821 71.52C192.285 71.52 194.093 73.296 194.093 75.792C194.093 78.288 192.285 80.08 189.821 80.08ZM189.821 79.072C191.613 79.072 192.941 77.76 192.941 75.792C192.941 73.824 191.613 72.512 189.821 72.512C188.029 72.512 186.685 73.824 186.685 75.792C186.685 77.76 188.029 79.072 189.821 79.072ZM199.9 80.08C197.388 80.08 195.564 78.304 195.564 75.792C195.564 73.28 197.388 71.52 199.9 71.52C201.324 71.52 202.524 72.08 203.196 73.184L202.348 73.76C201.772 72.912 200.876 72.512 199.9 72.512C198.06 72.512 196.716 73.824 196.716 75.792C196.716 77.776 198.06 79.072 199.9 79.072C200.876 79.072 201.772 78.688 202.348 77.84L203.196 78.416C202.524 79.504 201.324 80.08 199.9 80.08ZM212.631 75.792C212.631 75.888 212.615 76.016 212.615 76.144H205.575C205.703 77.904 207.047 79.072 208.887 79.072C209.911 79.072 210.823 78.704 211.463 77.968L212.103 78.704C211.351 79.6 210.183 80.08 208.855 80.08C206.231 80.08 204.439 78.288 204.439 75.792C204.439 73.296 206.183 71.52 208.551 71.52C210.919 71.52 212.631 73.264 212.631 75.792ZM208.551 72.496C206.919 72.496 205.719 73.648 205.575 75.296H211.543C211.399 73.648 210.199 72.496 208.551 72.496ZM217.199 80.08C215.807 80.08 214.463 79.632 213.775 79.04L214.287 78.144C214.959 78.672 216.095 79.088 217.279 79.088C218.879 79.088 219.535 78.544 219.535 77.712C219.535 75.52 214.079 77.248 214.079 73.92C214.079 72.544 215.263 71.52 217.407 71.52C218.495 71.52 219.679 71.824 220.383 72.304L219.887 73.216C219.151 72.704 218.271 72.496 217.407 72.496C215.887 72.496 215.215 73.088 215.215 73.888C215.215 76.16 220.671 74.448 220.671 77.68C220.671 79.136 219.391 80.08 217.199 80.08ZM225.028 80.08C223.636 80.08 222.292 79.632 221.604 79.04L222.116 78.144C222.788 78.672 223.924 79.088 225.108 79.088C226.708 79.088 227.364 78.544 227.364 77.712C227.364 75.52 221.908 77.248 221.908 73.92C221.908 72.544 223.092 71.52 225.236 71.52C226.324 71.52 227.508 71.824 228.212 72.304L227.716 73.216C226.98 72.704 226.1 72.496 225.236 72.496C223.716 72.496 223.044 73.088 223.044 73.888C223.044 76.16 228.5 74.448 228.5 77.68C228.5 79.136 227.22 80.08 225.028 80.08ZM238.819 78.672L239.219 79.488C238.771 79.888 238.099 80.08 237.443 80.08C235.859 80.08 234.979 79.184 234.979 77.632V72.544H233.475V71.584H234.979V69.744H236.115V71.584H238.675V72.544H236.115V77.568C236.115 78.56 236.627 79.104 237.571 79.104C238.035 79.104 238.499 78.96 238.819 78.672ZM244.43 80.08C241.966 80.08 240.142 78.288 240.142 75.792C240.142 73.296 241.966 71.52 244.43 71.52C246.894 71.52 248.702 73.296 248.702 75.792C248.702 78.288 246.894 80.08 244.43 80.08ZM244.43 79.072C246.222 79.072 247.55 77.76 247.55 75.792C247.55 73.824 246.222 72.512 244.43 72.512C242.638 72.512 241.294 73.824 241.294 75.792C241.294 77.76 242.638 79.072 244.43 79.072ZM20.528 91.52C22.704 91.52 23.936 92.608 23.936 94.784V100H22.848V98.688C22.336 99.552 21.344 100.08 19.952 100.08C18.048 100.08 16.88 99.088 16.88 97.632C16.88 96.336 17.712 95.248 20.128 95.248H22.8V94.736C22.8 93.296 21.984 92.512 20.416 92.512C19.328 92.512 18.304 92.896 17.616 93.504L17.104 92.656C17.952 91.936 19.2 91.52 20.528 91.52ZM20.128 99.184C21.408 99.184 22.352 98.576 22.8 97.472V96.096H20.16C18.528 96.096 18 96.736 18 97.6C18 98.576 18.784 99.184 20.128 99.184ZM30.5408 100.08C28.0288 100.08 26.2048 98.304 26.2048 95.792C26.2048 93.28 28.0288 91.52 30.5408 91.52C31.9648 91.52 33.1648 92.08 33.8368 93.184L32.9888 93.76C32.4128 92.912 31.5168 92.512 30.5408 92.512C28.7008 92.512 27.3568 93.824 27.3568 95.792C27.3568 97.776 28.7008 99.072 30.5408 99.072C31.5168 99.072 32.4128 98.688 32.9888 97.84L33.8368 98.416C33.1648 99.504 31.9648 100.08 30.5408 100.08ZM39.4158 100.08C36.9038 100.08 35.0798 98.304 35.0798 95.792C35.0798 93.28 36.9038 91.52 39.4158 91.52C40.8398 91.52 42.0398 92.08 42.7118 93.184L41.8638 93.76C41.2878 92.912 40.3918 92.512 39.4158 92.512C37.5758 92.512 36.2318 93.824 36.2318 95.792C36.2318 97.776 37.5758 99.072 39.4158 99.072C40.3918 99.072 41.2878 98.688 41.8638 97.84L42.7118 98.416C42.0398 99.504 40.8398 100.08 39.4158 100.08ZM52.1468 95.792C52.1468 95.888 52.1308 96.016 52.1308 96.144H45.0908C45.2188 97.904 46.5628 99.072 48.4028 99.072C49.4268 99.072 50.3388 98.704 50.9788 97.968L51.6188 98.704C50.8668 99.6 49.6988 100.08 48.3708 100.08C45.7468 100.08 43.9548 98.288 43.9548 95.792C43.9548 93.296 45.6988 91.52 48.0668 91.52C50.4348 91.52 52.1468 93.264 52.1468 95.792ZM48.0668 92.496C46.4348 92.496 45.2348 93.648 45.0908 95.296H51.0588C50.9148 93.648 49.7148 92.496 48.0668 92.496ZM54.459 100V88.128H55.595V100H54.459ZM66.0999 95.792C66.0999 95.888 66.0839 96.016 66.0839 96.144H59.0439C59.1719 97.904 60.5159 99.072 62.3559 99.072C63.3799 99.072 64.2919 98.704 64.9319 97.968L65.5719 98.704C64.8199 99.6 63.6519 100.08 62.3239 100.08C59.6999 100.08 57.9079 98.288 57.9079 95.792C57.9079 93.296 59.6519 91.52 62.0199 91.52C64.3879 91.52 66.0999 93.264 66.0999 95.792ZM62.0199 92.496C60.3879 92.496 59.1879 93.648 59.0439 95.296H65.0119C64.8679 93.648 63.6679 92.496 62.0199 92.496ZM69.5001 93.232C70.0281 92.112 71.1001 91.52 72.6521 91.52V92.624C72.5561 92.624 72.4601 92.608 72.3801 92.608C70.6201 92.608 69.5481 93.728 69.5481 95.712V100H68.4121V91.584H69.5001V93.232ZM77.6374 91.52C79.8134 91.52 81.0454 92.608 81.0454 94.784V100H79.9574V98.688C79.4454 99.552 78.4534 100.08 77.0614 100.08C75.1574 100.08 73.9894 99.088 73.9894 97.632C73.9894 96.336 74.8214 95.248 77.2374 95.248H79.9094V94.736C79.9094 93.296 79.0934 92.512 77.5254 92.512C76.4374 92.512 75.4134 92.896 74.7254 93.504L74.2134 92.656C75.0614 91.936 76.3094 91.52 77.6374 91.52ZM77.2374 99.184C78.5174 99.184 79.4614 98.576 79.9094 97.472V96.096H77.2694C75.6374 96.096 75.1094 96.736 75.1094 97.6C75.1094 98.576 75.8934 99.184 77.2374 99.184ZM88.1629 98.672L88.5629 99.488C88.1149 99.888 87.4429 100.08 86.7869 100.08C85.2029 100.08 84.3229 99.184 84.3229 97.632V92.544H82.8189V91.584H84.3229V89.744H85.4589V91.584H88.0189V92.544H85.4589V97.568C85.4589 98.56 85.9709 99.104 86.9149 99.104C87.3789 99.104 87.8429 98.96 88.1629 98.672ZM97.678 95.792C97.678 95.888 97.662 96.016 97.662 96.144H90.622C90.75 97.904 92.094 99.072 93.934 99.072C94.958 99.072 95.87 98.704 96.51 97.968L97.15 98.704C96.398 99.6 95.23 100.08 93.902 100.08C91.278 100.08 89.486 98.288 89.486 95.792C89.486 93.296 91.23 91.52 93.598 91.52C95.966 91.52 97.678 93.264 97.678 95.792ZM93.598 92.496C91.966 92.496 90.766 93.648 90.622 95.296H96.59C96.446 93.648 95.246 92.496 93.598 92.496ZM110.13 91.584H111.25L107.042 101.008C106.338 102.656 105.442 103.184 104.242 103.184C103.458 103.184 102.706 102.928 102.194 102.416L102.722 101.568C103.138 101.984 103.65 102.208 104.258 102.208C105.01 102.208 105.522 101.856 106.002 100.8L106.37 99.984L102.61 91.584H103.794L106.962 98.736L110.13 91.584ZM116.055 100.08C113.591 100.08 111.767 98.288 111.767 95.792C111.767 93.296 113.591 91.52 116.055 91.52C118.519 91.52 120.327 93.296 120.327 95.792C120.327 98.288 118.519 100.08 116.055 100.08ZM116.055 99.072C117.847 99.072 119.175 97.76 119.175 95.792C119.175 93.824 117.847 92.512 116.055 92.512C114.263 92.512 112.919 93.824 112.919 95.792C112.919 97.76 114.263 99.072 116.055 99.072ZM129.095 91.584H130.231V100H129.142V98.464C128.551 99.488 127.463 100.08 126.119 100.08C123.975 100.08 122.567 98.88 122.567 96.464V91.584H123.703V96.352C123.703 98.144 124.631 99.056 126.231 99.056C127.991 99.056 129.095 97.92 129.095 96V91.584ZM134.5 93.232C135.028 92.112 136.1 91.52 137.652 91.52V92.624C137.556 92.624 137.46 92.608 137.38 92.608C135.62 92.608 134.548 93.728 134.548 95.712V100H133.412V91.584H134.5V93.232ZM146.278 100.08C144.886 100.08 143.542 99.632 142.854 99.04L143.366 98.144C144.038 98.672 145.174 99.088 146.358 99.088C147.958 99.088 148.614 98.544 148.614 97.712C148.614 95.52 143.158 97.248 143.158 93.92C143.158 92.544 144.342 91.52 146.486 91.52C147.574 91.52 148.758 91.824 149.462 92.304L148.966 93.216C148.23 92.704 147.35 92.496 146.486 92.496C144.966 92.496 144.294 93.088 144.294 93.888C144.294 96.16 149.75 94.448 149.75 97.68C149.75 99.136 148.47 100.08 146.278 100.08ZM155.882 98.672L156.282 99.488C155.834 99.888 155.162 100.08 154.506 100.08C152.922 100.08 152.042 99.184 152.042 97.632V92.544H150.538V91.584H152.042V89.744H153.178V91.584H155.738V92.544H153.178V97.568C153.178 98.56 153.69 99.104 154.634 99.104C155.098 99.104 155.562 98.96 155.882 98.672ZM161.294 91.52C163.47 91.52 164.702 92.608 164.702 94.784V100H163.614V98.688C163.102 99.552 162.11 100.08 160.718 100.08C158.814 100.08 157.646 99.088 157.646 97.632C157.646 96.336 158.478 95.248 160.894 95.248H163.566V94.736C163.566 93.296 162.75 92.512 161.182 92.512C160.094 92.512 159.07 92.896 158.382 93.504L157.87 92.656C158.718 91.936 159.966 91.52 161.294 91.52ZM160.894 99.184C162.174 99.184 163.118 98.576 163.566 97.472V96.096H160.926C159.294 96.096 158.766 96.736 158.766 97.6C158.766 98.576 159.55 99.184 160.894 99.184ZM168.875 93.232C169.403 92.112 170.475 91.52 172.027 91.52V92.624C171.931 92.624 171.835 92.608 171.755 92.608C169.995 92.608 168.923 93.728 168.923 95.712V100H167.787V91.584H168.875V93.232ZM178.475 98.672L178.875 99.488C178.427 99.888 177.755 100.08 177.099 100.08C175.515 100.08 174.635 99.184 174.635 97.632V92.544H173.131V91.584H174.635V89.744H175.771V91.584H178.331V92.544H175.771V97.568C175.771 98.56 176.283 99.104 177.227 99.104C177.691 99.104 178.155 98.96 178.475 98.672ZM187.391 91.584H188.527V100H187.439V98.464C186.847 99.488 185.759 100.08 184.415 100.08C182.271 100.08 180.863 98.88 180.863 96.464V91.584H181.999V96.352C181.999 98.144 182.927 99.056 184.527 99.056C186.287 99.056 187.391 97.92 187.391 96V91.584ZM196.045 91.52C198.445 91.52 200.237 93.248 200.237 95.792C200.237 98.352 198.445 100.08 196.045 100.08C194.701 100.08 193.549 99.504 192.845 98.416V103.104H191.709V91.584H192.797V93.248C193.485 92.128 194.653 91.52 196.045 91.52ZM195.965 99.072C197.741 99.072 199.101 97.76 199.101 95.792C199.101 93.84 197.741 92.512 195.965 92.512C194.173 92.512 192.829 93.84 192.829 95.792C192.829 97.76 194.173 99.072 195.965 99.072ZM201.918 93.024L201.838 88.8H202.846L202.766 93.024H201.918ZM207.809 100.08C206.417 100.08 205.073 99.632 204.385 99.04L204.897 98.144C205.569 98.672 206.705 99.088 207.889 99.088C209.489 99.088 210.145 98.544 210.145 97.712C210.145 95.52 204.689 97.248 204.689 93.92C204.689 92.544 205.873 91.52 208.017 91.52C209.105 91.52 210.289 91.824 210.993 92.304L210.497 93.216C209.761 92.704 208.881 92.496 208.017 92.496C206.497 92.496 205.825 93.088 205.825 93.888C205.825 96.16 211.281 94.448 211.281 97.68C211.281 99.136 210.001 100.08 207.809 100.08ZM224.272 91.584H225.36V98.976C225.36 101.872 223.936 103.184 221.152 103.184C219.616 103.184 218.112 102.72 217.232 101.888L217.808 101.024C218.608 101.744 219.824 102.176 221.12 102.176C223.248 102.176 224.224 101.2 224.224 99.12V98.048C223.52 99.12 222.32 99.68 220.944 99.68C218.544 99.68 216.72 98 216.72 95.584C216.72 93.168 218.544 91.52 220.944 91.52C222.352 91.52 223.568 92.096 224.272 93.2V91.584ZM221.056 98.672C222.912 98.672 224.256 97.408 224.256 95.584C224.256 93.76 222.912 92.512 221.056 92.512C219.2 92.512 217.872 93.76 217.872 95.584C217.872 97.408 219.2 98.672 221.056 98.672ZM229.625 93.232C230.153 92.112 231.225 91.52 232.777 91.52V92.624C232.681 92.624 232.585 92.608 232.505 92.608C230.745 92.608 229.673 93.728 229.673 95.712V100H228.537V91.584H229.625V93.232ZM238.196 100.08C235.732 100.08 233.908 98.288 233.908 95.792C233.908 93.296 235.732 91.52 238.196 91.52C240.66 91.52 242.468 93.296 242.468 95.792C242.468 98.288 240.66 100.08 238.196 100.08ZM238.196 99.072C239.988 99.072 241.316 97.76 241.316 95.792C241.316 93.824 239.988 92.512 238.196 92.512C236.404 92.512 235.06 93.824 235.06 95.792C235.06 97.76 236.404 99.072 238.196 99.072ZM255.865 91.584H256.905L253.721 100H252.649L249.993 93.104L247.337 100H246.265L243.097 91.584H244.185L246.825 98.736L249.529 91.584H250.505L253.193 98.736L255.865 91.584ZM262.882 98.672L263.282 99.488C262.834 99.888 262.162 100.08 261.506 100.08C259.922 100.08 259.042 99.184 259.042 97.632V92.544H257.538V91.584H259.042V89.744H260.178V91.584H262.738V92.544H260.178V97.568C260.178 98.56 260.69 99.104 261.634 99.104C262.098 99.104 262.562 98.96 262.882 98.672ZM269.638 91.52C271.686 91.52 273.094 92.704 273.094 95.12V100H271.958V95.232C271.958 93.456 271.03 92.544 269.43 92.544C267.622 92.544 266.486 93.664 266.486 95.584V100H265.35V88.128H266.486V93.056C267.11 92.08 268.214 91.52 269.638 91.52ZM276.29 100.08C275.826 100.08 275.442 99.696 275.442 99.2C275.442 98.704 275.826 98.336 276.29 98.336C276.754 98.336 277.154 98.704 277.154 99.2C277.154 99.696 276.754 100.08 276.29 100.08Z" fill="white"/>
<path d="M0.5 32C0.5 14.603 14.603 0.5 32 0.5H315C332.397 0.5 346.5 14.603 346.5 32V88C346.5 105.397 332.397 119.5 315 119.5H0.5V32Z" stroke="url(#paint0_linear_261_137)"/>
<defs>
<linearGradient id="paint0_linear_261_137" x1="173.5" y1="0" x2="173.5" y2="120" gradientUnits="userSpaceOnUse">
<stop stop-color="#0198B5"/>
<stop offset="1" stop-color="#F48A5F"/>
</linearGradient>
</defs>
</svg>
