<svg width="843" height="363" viewBox="0 0 843 363" fill="none" xmlns="http://www.w3.org/2000/svg">
<path d="M374.155 86V72H380.715C382.395 72 383.675 72.3333 384.555 73C385.435 73.6533 385.875 74.5333 385.875 75.64C385.875 76.3867 385.702 77.0267 385.355 77.56C385.009 78.08 384.542 78.4867 383.955 78.78C383.382 79.06 382.755 79.2 382.075 79.2L382.435 78.48C383.222 78.48 383.929 78.6267 384.555 78.92C385.182 79.2 385.675 79.6133 386.035 80.16C386.409 80.7067 386.595 81.3867 386.595 82.2C386.595 83.4 386.135 84.3333 385.215 85C384.295 85.6667 382.929 86 381.115 86H374.155ZM376.755 83.96H380.955C381.929 83.96 382.675 83.8 383.195 83.48C383.715 83.16 383.975 82.6467 383.975 81.94C383.975 81.2467 383.715 80.74 383.195 80.42C382.675 80.0867 381.929 79.92 380.955 79.92H376.555V77.9H380.435C381.342 77.9 382.035 77.74 382.515 77.42C383.009 77.1 383.255 76.62 383.255 75.98C383.255 75.3267 383.009 74.84 382.515 74.52C382.035 74.2 381.342 74.04 380.435 74.04H376.755V83.96ZM393.93 86.14C392.837 86.14 391.864 85.9067 391.01 85.44C390.157 84.96 389.484 84.3067 388.99 83.48C388.497 82.6533 388.25 81.7133 388.25 80.66C388.25 79.5933 388.497 78.6533 388.99 77.84C389.484 77.0133 390.157 76.3667 391.01 75.9C391.864 75.4333 392.837 75.2 393.93 75.2C395.037 75.2 396.017 75.4333 396.87 75.9C397.737 76.3667 398.41 77.0067 398.89 77.82C399.384 78.6333 399.63 79.58 399.63 80.66C399.63 81.7133 399.384 82.6533 398.89 83.48C398.41 84.3067 397.737 84.96 396.87 85.44C396.017 85.9067 395.037 86.14 393.93 86.14ZM393.93 84C394.544 84 395.09 83.8667 395.57 83.6C396.05 83.3333 396.424 82.9467 396.69 82.44C396.97 81.9333 397.11 81.34 397.11 80.66C397.11 79.9667 396.97 79.3733 396.69 78.88C396.424 78.3733 396.05 77.9867 395.57 77.72C395.09 77.4533 394.55 77.32 393.95 77.32C393.337 77.32 392.79 77.4533 392.31 77.72C391.844 77.9867 391.47 78.3733 391.19 78.88C390.91 79.3733 390.77 79.9667 390.77 80.66C390.77 81.34 390.91 81.9333 391.19 82.44C391.47 82.9467 391.844 83.3333 392.31 83.6C392.79 83.8667 393.33 84 393.93 84ZM406.821 86.14C405.728 86.14 404.754 85.9067 403.901 85.44C403.048 84.96 402.374 84.3067 401.881 83.48C401.388 82.6533 401.141 81.7133 401.141 80.66C401.141 79.5933 401.388 78.6533 401.881 77.84C402.374 77.0133 403.048 76.3667 403.901 75.9C404.754 75.4333 405.728 75.2 406.821 75.2C407.928 75.2 408.908 75.4333 409.761 75.9C410.628 76.3667 411.301 77.0067 411.781 77.82C412.274 78.6333 412.521 79.58 412.521 80.66C412.521 81.7133 412.274 82.6533 411.781 83.48C411.301 84.3067 410.628 84.96 409.761 85.44C408.908 85.9067 407.928 86.14 406.821 86.14ZM406.821 84C407.434 84 407.981 83.8667 408.461 83.6C408.941 83.3333 409.314 82.9467 409.581 82.44C409.861 81.9333 410.001 81.34 410.001 80.66C410.001 79.9667 409.861 79.3733 409.581 78.88C409.314 78.3733 408.941 77.9867 408.461 77.72C407.981 77.4533 407.441 77.32 406.841 77.32C406.228 77.32 405.681 77.4533 405.201 77.72C404.734 77.9867 404.361 78.3733 404.081 78.88C403.801 79.3733 403.661 79.9667 403.661 80.66C403.661 81.34 403.801 81.9333 404.081 82.44C404.361 82.9467 404.734 83.3333 405.201 83.6C405.681 83.8667 406.221 84 406.821 84ZM418.211 86.14C417.318 86.14 416.458 86.0267 415.631 85.8C414.818 85.56 414.171 85.2733 413.691 84.94L414.651 83.04C415.131 83.3467 415.705 83.6 416.371 83.8C417.038 84 417.705 84.1 418.371 84.1C419.158 84.1 419.725 83.9933 420.071 83.78C420.431 83.5667 420.611 83.28 420.611 82.92C420.611 82.6267 420.491 82.4067 420.251 82.26C420.011 82.1 419.698 81.98 419.311 81.9C418.925 81.82 418.491 81.7467 418.011 81.68C417.545 81.6133 417.071 81.5267 416.591 81.42C416.125 81.3 415.698 81.1333 415.311 80.92C414.925 80.6933 414.611 80.3933 414.371 80.02C414.131 79.6467 414.011 79.1533 414.011 78.54C414.011 77.86 414.205 77.2733 414.591 76.78C414.978 76.2733 415.518 75.8867 416.211 75.62C416.918 75.34 417.751 75.2 418.711 75.2C419.431 75.2 420.158 75.28 420.891 75.44C421.625 75.6 422.231 75.8267 422.711 76.12L421.751 78.02C421.245 77.7133 420.731 77.5067 420.211 77.4C419.705 77.28 419.198 77.22 418.691 77.22C417.931 77.22 417.365 77.3333 416.991 77.56C416.631 77.7867 416.451 78.0733 416.451 78.42C416.451 78.74 416.571 78.98 416.811 79.14C417.051 79.3 417.365 79.4267 417.751 79.52C418.138 79.6133 418.565 79.6933 419.031 79.76C419.511 79.8133 419.985 79.9 420.451 80.02C420.918 80.14 421.345 80.3067 421.731 80.52C422.131 80.72 422.451 81.0067 422.691 81.38C422.931 81.7533 423.051 82.24 423.051 82.84C423.051 83.5067 422.851 84.0867 422.451 84.58C422.065 85.0733 421.511 85.46 420.791 85.74C420.071 86.0067 419.211 86.14 418.211 86.14ZM429.224 86.14C428.051 86.14 427.144 85.84 426.504 85.24C425.864 84.6267 425.544 83.7267 425.544 82.54V72.96H428.044V82.48C428.044 82.9867 428.171 83.38 428.424 83.66C428.691 83.94 429.058 84.08 429.524 84.08C430.084 84.08 430.551 83.9333 430.924 83.64L431.624 85.42C431.331 85.66 430.971 85.84 430.544 85.96C430.118 86.08 429.678 86.14 429.224 86.14ZM423.784 77.4V75.4H430.904V77.4H423.784ZM443.228 86.14C442.055 86.14 441.148 85.84 440.508 85.24C439.868 84.6267 439.548 83.7267 439.548 82.54V72.96H442.048V82.48C442.048 82.9867 442.175 83.38 442.428 83.66C442.695 83.94 443.062 84.08 443.528 84.08C444.088 84.08 444.555 83.9333 444.928 83.64L445.628 85.42C445.335 85.66 444.975 85.84 444.548 85.96C444.122 86.08 443.682 86.14 443.228 86.14ZM437.788 77.4V75.4H444.908V77.4H437.788ZM453.745 75.2C454.598 75.2 455.358 75.3667 456.025 75.7C456.705 76.0333 457.238 76.5467 457.625 77.24C458.012 77.92 458.205 78.8 458.205 79.88V86H455.705V80.2C455.705 79.2533 455.478 78.5467 455.025 78.08C454.585 77.6133 453.965 77.38 453.165 77.38C452.578 77.38 452.058 77.5 451.605 77.74C451.152 77.98 450.798 78.34 450.545 78.82C450.305 79.2867 450.185 79.88 450.185 80.6V86H447.685V71.16H450.185V78.2L449.645 77.32C450.018 76.64 450.558 76.12 451.265 75.76C451.985 75.3867 452.812 75.2 453.745 75.2ZM466.416 86.14C465.229 86.14 464.189 85.9067 463.296 85.44C462.416 84.96 461.729 84.3067 461.236 83.48C460.756 82.6533 460.516 81.7133 460.516 80.66C460.516 79.5933 460.749 78.6533 461.216 77.84C461.696 77.0133 462.349 76.3667 463.176 75.9C464.016 75.4333 464.969 75.2 466.036 75.2C467.076 75.2 468.003 75.4267 468.816 75.88C469.629 76.3333 470.269 76.9733 470.736 77.8C471.203 78.6267 471.436 79.6 471.436 80.72C471.436 80.8267 471.429 80.9467 471.416 81.08C471.416 81.2133 471.409 81.34 471.396 81.46H462.496V79.8H470.076L469.096 80.32C469.109 79.7067 468.983 79.1667 468.716 78.7C468.449 78.2333 468.083 77.8667 467.616 77.6C467.163 77.3333 466.636 77.2 466.036 77.2C465.423 77.2 464.883 77.3333 464.416 77.6C463.963 77.8667 463.603 78.24 463.336 78.72C463.083 79.1867 462.956 79.74 462.956 80.38V80.78C462.956 81.42 463.103 81.9867 463.396 82.48C463.689 82.9733 464.103 83.3533 464.636 83.62C465.169 83.8867 465.783 84.02 466.476 84.02C467.076 84.02 467.616 83.9267 468.096 83.74C468.576 83.5533 469.003 83.26 469.376 82.86L470.716 84.4C470.236 84.96 469.629 85.3933 468.896 85.7C468.176 85.9933 467.349 86.14 466.416 86.14ZM409.894 106.14C409.027 106.14 408.234 105.94 407.514 105.54C406.807 105.14 406.241 104.54 405.814 103.74C405.401 102.927 405.194 101.9 405.194 100.66C405.194 99.4067 405.394 98.38 405.794 97.58C406.207 96.78 406.767 96.1867 407.474 95.8C408.181 95.4 408.987 95.2 409.894 95.2C410.947 95.2 411.874 95.4267 412.674 95.88C413.487 96.3333 414.127 96.9667 414.594 97.78C415.074 98.5933 415.314 99.5533 415.314 100.66C415.314 101.767 415.074 102.733 414.594 103.56C414.127 104.373 413.487 105.007 412.674 105.46C411.874 105.913 410.947 106.14 409.894 106.14ZM403.974 109.88V95.32H406.354V97.84L406.274 100.68L406.474 103.52V109.88H403.974ZM409.614 104C410.214 104 410.747 103.867 411.214 103.6C411.694 103.333 412.074 102.947 412.354 102.44C412.634 101.933 412.774 101.34 412.774 100.66C412.774 99.9667 412.634 99.3733 412.354 98.88C412.074 98.3733 411.694 97.9867 411.214 97.72C410.747 97.4533 410.214 97.32 409.614 97.32C409.014 97.32 408.474 97.4533 407.994 97.72C407.514 97.9867 407.134 98.3733 406.854 98.88C406.574 99.3733 406.434 99.9667 406.434 100.66C406.434 101.34 406.574 101.933 406.854 102.44C407.134 102.947 407.514 103.333 407.994 103.6C408.474 103.867 409.014 104 409.614 104ZM417.685 106V91.16H420.185V106H417.685ZM430.046 106V103.84L429.906 103.38V99.6C429.906 98.8667 429.686 98.3 429.246 97.9C428.806 97.4867 428.14 97.28 427.246 97.28C426.646 97.28 426.053 97.3733 425.466 97.56C424.893 97.7467 424.406 98.0067 424.006 98.34L423.026 96.52C423.6 96.08 424.28 95.7533 425.066 95.54C425.866 95.3133 426.693 95.2 427.546 95.2C429.093 95.2 430.286 95.5733 431.126 96.32C431.98 97.0533 432.406 98.1933 432.406 99.74V106H430.046ZM426.686 106.14C425.886 106.14 425.186 106.007 424.586 105.74C423.986 105.46 423.52 105.08 423.186 104.6C422.866 104.107 422.706 103.553 422.706 102.94C422.706 102.34 422.846 101.8 423.126 101.32C423.42 100.84 423.893 100.46 424.546 100.18C425.2 99.9 426.066 99.76 427.146 99.76H430.246V101.42H427.326C426.473 101.42 425.9 101.56 425.606 101.84C425.313 102.107 425.166 102.44 425.166 102.84C425.166 103.293 425.346 103.653 425.706 103.92C426.066 104.187 426.566 104.32 427.206 104.32C427.82 104.32 428.366 104.18 428.846 103.9C429.34 103.62 429.693 103.207 429.906 102.66L430.326 104.16C430.086 104.787 429.653 105.273 429.026 105.62C428.413 105.967 427.633 106.14 426.686 106.14ZM441.675 95.2C442.528 95.2 443.288 95.3667 443.955 95.7C444.635 96.0333 445.168 96.5467 445.555 97.24C445.941 97.92 446.135 98.8 446.135 99.88V106H443.635V100.2C443.635 99.2533 443.408 98.5467 442.955 98.08C442.515 97.6133 441.895 97.38 441.095 97.38C440.508 97.38 439.988 97.5 439.535 97.74C439.081 97.98 438.728 98.34 438.475 98.82C438.235 99.2867 438.115 99.88 438.115 100.6V106H435.615V95.32H437.995V98.2L437.575 97.32C437.948 96.64 438.488 96.12 439.195 95.76C439.915 95.3867 440.741 95.2 441.675 95.2Z" fill="#0198B5"/>
<circle cx="421.5" cy="88.5" r="76.5" transform="rotate(-90 421.5 88.5)" stroke="url(#paint0_linear_929_39)" stroke-width="24"/>
<path d="M273.324 226V214.8H274.508V224.976H280.78V226H273.324ZM289.725 221.792C289.725 221.888 289.709 222.016 289.709 222.144H282.669C282.797 223.904 284.141 225.072 285.981 225.072C287.005 225.072 287.917 224.704 288.557 223.968L289.197 224.704C288.445 225.6 287.277 226.08 285.949 226.08C283.325 226.08 281.533 224.288 281.533 221.792C281.533 219.296 283.277 217.52 285.645 217.52C288.013 217.52 289.725 219.264 289.725 221.792ZM285.645 218.496C284.013 218.496 282.813 219.648 282.669 221.296H288.637C288.493 219.648 287.293 218.496 285.645 218.496ZM297.833 217.584H298.953L295.209 226H294.041L290.313 217.584H291.497L294.649 224.752L297.833 217.584ZM307.662 221.792C307.662 221.888 307.646 222.016 307.646 222.144H300.606C300.734 223.904 302.078 225.072 303.918 225.072C304.942 225.072 305.854 224.704 306.494 223.968L307.134 224.704C306.382 225.6 305.214 226.08 303.886 226.08C301.262 226.08 299.47 224.288 299.47 221.792C299.47 219.296 301.214 217.52 303.582 217.52C305.95 217.52 307.662 219.264 307.662 221.792ZM303.582 218.496C301.95 218.496 300.75 219.648 300.606 221.296H306.574C306.43 219.648 305.23 218.496 303.582 218.496ZM311.063 219.232C311.591 218.112 312.663 217.52 314.215 217.52V218.624C314.119 218.624 314.023 218.608 313.943 218.608C312.183 218.608 311.111 219.728 311.111 221.712V226H309.975V217.584H311.063V219.232ZM319.2 217.52C321.376 217.52 322.608 218.608 322.608 220.784V226H321.52V224.688C321.008 225.552 320.016 226.08 318.624 226.08C316.72 226.08 315.552 225.088 315.552 223.632C315.552 222.336 316.384 221.248 318.8 221.248H321.472V220.736C321.472 219.296 320.656 218.512 319.088 218.512C318 218.512 316.976 218.896 316.288 219.504L315.776 218.656C316.624 217.936 317.872 217.52 319.2 217.52ZM318.8 225.184C320.08 225.184 321.024 224.576 321.472 223.472V222.096H318.832C317.2 222.096 316.672 222.736 316.672 223.6C316.672 224.576 317.456 225.184 318.8 225.184ZM332.429 217.584H333.517V224.976C333.517 227.872 332.093 229.184 329.309 229.184C327.773 229.184 326.269 228.72 325.389 227.888L325.965 227.024C326.765 227.744 327.981 228.176 329.277 228.176C331.405 228.176 332.381 227.2 332.381 225.12V224.048C331.677 225.12 330.477 225.68 329.101 225.68C326.701 225.68 324.877 224 324.877 221.584C324.877 219.168 326.701 217.52 329.101 217.52C330.509 217.52 331.725 218.096 332.429 219.2V217.584ZM329.213 224.672C331.069 224.672 332.413 223.408 332.413 221.584C332.413 219.76 331.069 218.512 329.213 218.512C327.357 218.512 326.029 219.76 326.029 221.584C326.029 223.408 327.357 224.672 329.213 224.672ZM337.269 215.744C336.805 215.744 336.437 215.376 336.437 214.928C336.437 214.496 336.805 214.128 337.269 214.128C337.733 214.128 338.101 214.48 338.101 214.912C338.101 215.376 337.749 215.744 337.269 215.744ZM336.693 226V217.584H337.829V226H336.693ZM345.278 217.52C347.326 217.52 348.734 218.704 348.734 221.12V226H347.598V221.232C347.598 219.456 346.67 218.544 345.07 218.544C343.262 218.544 342.126 219.664 342.126 221.584V226H340.99V217.584H342.078V219.136C342.686 218.112 343.822 217.52 345.278 217.52ZM358.554 217.584H359.642V224.976C359.642 227.872 358.218 229.184 355.434 229.184C353.898 229.184 352.394 228.72 351.514 227.888L352.09 227.024C352.89 227.744 354.106 228.176 355.402 228.176C357.53 228.176 358.506 227.2 358.506 225.12V224.048C357.802 225.12 356.602 225.68 355.226 225.68C352.826 225.68 351.002 224 351.002 221.584C351.002 219.168 352.826 217.52 355.226 217.52C356.634 217.52 357.85 218.096 358.554 219.2V217.584ZM355.338 224.672C357.194 224.672 358.538 223.408 358.538 221.584C358.538 219.76 357.194 218.512 355.338 218.512C353.482 218.512 352.154 219.76 352.154 221.584C352.154 223.408 353.482 224.672 355.338 224.672ZM376.493 215.744C376.029 215.744 375.661 215.376 375.661 214.928C375.661 214.496 376.029 214.128 376.493 214.128C376.957 214.128 377.325 214.48 377.325 214.912C377.325 215.376 376.973 215.744 376.493 215.744ZM375.917 226V217.584H377.053V226H375.917ZM384.502 217.52C386.55 217.52 387.958 218.704 387.958 221.12V226H386.822V221.232C386.822 219.456 385.894 218.544 384.294 218.544C382.486 218.544 381.35 219.664 381.35 221.584V226H380.214V217.584H381.302V219.136C381.91 218.112 383.046 217.52 384.502 217.52ZM397.618 214.128H398.754V226H397.666V224.336C396.978 225.472 395.81 226.08 394.418 226.08C392.018 226.08 390.226 224.336 390.226 221.792C390.226 219.248 392.018 217.52 394.418 217.52C395.762 217.52 396.914 218.096 397.618 219.184V214.128ZM394.514 225.072C396.29 225.072 397.634 223.76 397.634 221.792C397.634 219.824 396.29 218.512 394.514 218.512C392.722 218.512 391.378 219.824 391.378 221.792C391.378 223.76 392.722 225.072 394.514 225.072ZM408.365 217.584H409.501V226H408.413V224.464C407.821 225.488 406.733 226.08 405.389 226.08C403.245 226.08 401.837 224.88 401.837 222.464V217.584H402.973V222.352C402.973 224.144 403.901 225.056 405.501 225.056C407.261 225.056 408.365 223.92 408.365 222V217.584ZM414.939 226.08C413.547 226.08 412.203 225.632 411.515 225.04L412.027 224.144C412.699 224.672 413.835 225.088 415.019 225.088C416.619 225.088 417.275 224.544 417.275 223.712C417.275 221.52 411.819 223.248 411.819 219.92C411.819 218.544 413.003 217.52 415.147 217.52C416.235 217.52 417.419 217.824 418.123 218.304L417.627 219.216C416.891 218.704 416.011 218.496 415.147 218.496C413.627 218.496 412.955 219.088 412.955 219.888C412.955 222.16 418.411 220.448 418.411 223.68C418.411 225.136 417.131 226.08 414.939 226.08ZM424.543 224.672L424.943 225.488C424.495 225.888 423.823 226.08 423.167 226.08C421.583 226.08 420.703 225.184 420.703 223.632V218.544H419.199V217.584H420.703V215.744H421.839V217.584H424.399V218.544H421.839V223.568C421.839 224.56 422.351 225.104 423.295 225.104C423.759 225.104 424.223 224.96 424.543 224.672ZM428.099 219.232C428.627 218.112 429.699 217.52 431.251 217.52V218.624C431.155 218.624 431.059 218.608 430.979 218.608C429.219 218.608 428.147 219.728 428.147 221.712V226H427.011V217.584H428.099V219.232ZM439.619 217.584H440.739L436.531 227.008C435.827 228.656 434.931 229.184 433.731 229.184C432.947 229.184 432.195 228.928 431.683 228.416L432.211 227.568C432.627 227.984 433.139 228.208 433.747 228.208C434.499 228.208 435.011 227.856 435.491 226.8L435.859 225.984L432.099 217.584H433.283L436.451 224.736L439.619 217.584ZM462.782 221.792C462.782 221.888 462.766 222.016 462.766 222.144H455.726C455.854 223.904 457.198 225.072 459.038 225.072C460.062 225.072 460.974 224.704 461.614 223.968L462.254 224.704C461.502 225.6 460.334 226.08 459.006 226.08C456.382 226.08 454.59 224.288 454.59 221.792C454.59 219.296 456.334 217.52 458.702 217.52C461.07 217.52 462.782 219.264 462.782 221.792ZM458.702 218.496C457.07 218.496 455.87 219.648 455.726 221.296H461.694C461.55 219.648 460.35 218.496 458.702 218.496ZM471.516 226H470.22L467.548 222.48L464.86 226H463.58L466.908 221.68L463.74 217.584H465.02L467.548 220.88L470.076 217.584H471.324L468.156 221.68L471.516 226ZM477.743 217.52C480.143 217.52 481.935 219.248 481.935 221.792C481.935 224.352 480.143 226.08 477.743 226.08C476.399 226.08 475.247 225.504 474.543 224.416V229.104H473.407V217.584H474.495V219.248C475.183 218.128 476.351 217.52 477.743 217.52ZM477.663 225.072C479.439 225.072 480.799 223.76 480.799 221.792C480.799 219.84 479.439 218.512 477.663 218.512C475.871 218.512 474.527 219.84 474.527 221.792C474.527 223.76 475.871 225.072 477.663 225.072ZM491.595 221.792C491.595 221.888 491.579 222.016 491.579 222.144H484.539C484.667 223.904 486.011 225.072 487.851 225.072C488.875 225.072 489.787 224.704 490.427 223.968L491.067 224.704C490.315 225.6 489.147 226.08 487.819 226.08C485.195 226.08 483.403 224.288 483.403 221.792C483.403 219.296 485.147 217.52 487.515 217.52C489.883 217.52 491.595 219.264 491.595 221.792ZM487.515 218.496C485.883 218.496 484.683 219.648 484.539 221.296H490.507C490.363 219.648 489.163 218.496 487.515 218.496ZM494.995 219.232C495.523 218.112 496.595 217.52 498.147 217.52V218.624C498.051 218.624 497.955 218.608 497.875 218.608C496.115 218.608 495.043 219.728 495.043 221.712V226H493.907V217.584H494.995V219.232ZM504.595 224.672L504.995 225.488C504.547 225.888 503.875 226.08 503.219 226.08C501.635 226.08 500.755 225.184 500.755 223.632V218.544H499.251V217.584H500.755V215.744H501.891V217.584H504.451V218.544H501.891V223.568C501.891 224.56 502.403 225.104 503.347 225.104C503.811 225.104 504.275 224.96 504.595 224.672ZM507.639 215.744C507.175 215.744 506.807 215.376 506.807 214.928C506.807 214.496 507.175 214.128 507.639 214.128C508.103 214.128 508.471 214.48 508.471 214.912C508.471 215.376 508.119 215.744 507.639 215.744ZM507.063 226V217.584H508.199V226H507.063ZM513.616 226.08C512.224 226.08 510.88 225.632 510.192 225.04L510.704 224.144C511.376 224.672 512.512 225.088 513.696 225.088C515.296 225.088 515.952 224.544 515.952 223.712C515.952 221.52 510.496 223.248 510.496 219.92C510.496 218.544 511.68 217.52 513.824 217.52C514.912 217.52 516.096 217.824 516.8 218.304L516.304 219.216C515.568 218.704 514.688 218.496 513.824 218.496C512.304 218.496 511.632 219.088 511.632 219.888C511.632 222.16 517.088 220.448 517.088 223.68C517.088 225.136 515.808 226.08 513.616 226.08ZM526.532 221.792C526.532 221.888 526.516 222.016 526.516 222.144H519.476C519.604 223.904 520.948 225.072 522.788 225.072C523.812 225.072 524.724 224.704 525.364 223.968L526.004 224.704C525.252 225.6 524.084 226.08 522.756 226.08C520.132 226.08 518.34 224.288 518.34 221.792C518.34 219.296 520.084 217.52 522.452 217.52C524.82 217.52 526.532 219.264 526.532 221.792ZM522.452 218.496C520.82 218.496 519.62 219.648 519.476 221.296H525.444C525.3 219.648 524.1 218.496 522.452 218.496ZM544.887 217.52C547.063 217.52 548.295 218.608 548.295 220.784V226H547.207V224.688C546.695 225.552 545.703 226.08 544.311 226.08C542.407 226.08 541.239 225.088 541.239 223.632C541.239 222.336 542.071 221.248 544.487 221.248H547.159V220.736C547.159 219.296 546.343 218.512 544.775 218.512C543.687 218.512 542.663 218.896 541.975 219.504L541.463 218.656C542.311 217.936 543.559 217.52 544.887 217.52ZM544.487 225.184C545.767 225.184 546.711 224.576 547.159 223.472V222.096H544.519C542.887 222.096 542.359 222.736 542.359 223.6C542.359 224.576 543.143 225.184 544.487 225.184ZM555.669 217.52C557.717 217.52 559.125 218.704 559.125 221.12V226H557.989V221.232C557.989 219.456 557.061 218.544 555.461 218.544C553.653 218.544 552.517 219.664 552.517 221.584V226H551.381V217.584H552.469V219.136C553.077 218.112 554.213 217.52 555.669 217.52ZM568.784 214.128H569.92V226H568.832V224.336C568.144 225.472 566.976 226.08 565.584 226.08C563.184 226.08 561.392 224.336 561.392 221.792C561.392 219.248 563.184 217.52 565.584 217.52C566.928 217.52 568.08 218.096 568.784 219.184V214.128ZM565.68 225.072C567.456 225.072 568.8 223.76 568.8 221.792C568.8 219.824 567.456 218.512 565.68 218.512C563.888 218.512 562.544 219.824 562.544 221.792C562.544 223.76 563.888 225.072 565.68 225.072ZM283.58 239.52C285.628 239.52 286.972 240.704 286.972 243.12V248H285.836V243.232C285.836 241.456 284.94 240.544 283.42 240.544C281.692 240.544 280.604 241.664 280.604 243.584V248H279.468V243.232C279.468 241.456 278.572 240.544 277.036 240.544C275.324 240.544 274.22 241.664 274.22 243.584V248H273.084V239.584H274.172V241.12C274.764 240.112 275.852 239.52 277.26 239.52C278.652 239.52 279.74 240.112 280.252 241.296C280.86 240.208 282.06 239.52 283.58 239.52ZM292.997 239.52C295.173 239.52 296.405 240.608 296.405 242.784V248H295.317V246.688C294.805 247.552 293.813 248.08 292.421 248.08C290.517 248.08 289.349 247.088 289.349 245.632C289.349 244.336 290.181 243.248 292.597 243.248H295.269V242.736C295.269 241.296 294.453 240.512 292.885 240.512C291.797 240.512 290.773 240.896 290.085 241.504L289.573 240.656C290.421 239.936 291.669 239.52 292.997 239.52ZM292.597 247.184C293.877 247.184 294.821 246.576 295.269 245.472V244.096H292.629C290.997 244.096 290.469 244.736 290.469 245.6C290.469 246.576 291.253 247.184 292.597 247.184ZM300.578 241.232C301.106 240.112 302.178 239.52 303.73 239.52V240.624C303.634 240.624 303.538 240.608 303.458 240.608C301.698 240.608 300.626 241.728 300.626 243.712V248H299.49V239.584H300.578V241.232ZM312.299 248L308.907 243.776L306.923 245.6V248H305.787V236.128H306.923V244.176L311.947 239.584H313.355L309.755 243.024L313.691 248H312.299ZM322.397 243.792C322.397 243.888 322.381 244.016 322.381 244.144H315.341C315.469 245.904 316.813 247.072 318.653 247.072C319.677 247.072 320.589 246.704 321.229 245.968L321.869 246.704C321.117 247.6 319.949 248.08 318.621 248.08C315.997 248.08 314.205 246.288 314.205 243.792C314.205 241.296 315.949 239.52 318.317 239.52C320.685 239.52 322.397 241.264 322.397 243.792ZM318.317 240.496C316.685 240.496 315.485 241.648 315.341 243.296H321.309C321.165 241.648 319.965 240.496 318.317 240.496ZM328.741 246.672L329.141 247.488C328.693 247.888 328.021 248.08 327.365 248.08C325.781 248.08 324.901 247.184 324.901 245.632V240.544H323.397V239.584H324.901V237.744H326.037V239.584H328.597V240.544H326.037V245.568C326.037 246.56 326.549 247.104 327.493 247.104C327.957 247.104 328.421 246.96 328.741 246.672ZM338.797 237.744C338.333 237.744 337.965 237.376 337.965 236.928C337.965 236.496 338.333 236.128 338.797 236.128C339.261 236.128 339.629 236.48 339.629 236.912C339.629 237.376 339.277 237.744 338.797 237.744ZM338.221 248V239.584H339.357V248H338.221ZM346.806 239.52C348.854 239.52 350.262 240.704 350.262 243.12V248H349.126V243.232C349.126 241.456 348.198 240.544 346.598 240.544C344.79 240.544 343.654 241.664 343.654 243.584V248H342.518V239.584H343.606V241.136C344.214 240.112 345.35 239.52 346.806 239.52ZM355.602 248.08C354.21 248.08 352.866 247.632 352.178 247.04L352.69 246.144C353.362 246.672 354.498 247.088 355.682 247.088C357.282 247.088 357.938 246.544 357.938 245.712C357.938 243.52 352.482 245.248 352.482 241.92C352.482 240.544 353.666 239.52 355.81 239.52C356.898 239.52 358.082 239.824 358.786 240.304L358.29 241.216C357.554 240.704 356.674 240.496 355.81 240.496C354.29 240.496 353.618 241.088 353.618 241.888C353.618 244.16 359.074 242.448 359.074 245.68C359.074 247.136 357.794 248.08 355.602 248.08ZM361.751 237.744C361.287 237.744 360.919 237.376 360.919 236.928C360.919 236.496 361.287 236.128 361.751 236.128C362.215 236.128 362.583 236.48 362.583 236.912C362.583 237.376 362.231 237.744 361.751 237.744ZM361.175 248V239.584H362.311V248H361.175ZM372.175 239.584H373.263V246.976C373.263 249.872 371.839 251.184 369.055 251.184C367.519 251.184 366.015 250.72 365.135 249.888L365.711 249.024C366.511 249.744 367.727 250.176 369.023 250.176C371.151 250.176 372.127 249.2 372.127 247.12V246.048C371.423 247.12 370.223 247.68 368.847 247.68C366.447 247.68 364.623 246 364.623 243.584C364.623 241.168 366.447 239.52 368.847 239.52C370.255 239.52 371.471 240.096 372.175 241.2V239.584ZM368.959 246.672C370.815 246.672 372.159 245.408 372.159 243.584C372.159 241.76 370.815 240.512 368.959 240.512C367.103 240.512 365.775 241.76 365.775 243.584C365.775 245.408 367.103 246.672 368.959 246.672ZM380.728 239.52C382.776 239.52 384.184 240.704 384.184 243.12V248H383.048V243.232C383.048 241.456 382.12 240.544 380.52 240.544C378.712 240.544 377.576 241.664 377.576 243.584V248H376.44V236.128H377.576V241.056C378.2 240.08 379.304 239.52 380.728 239.52ZM391.3 246.672L391.7 247.488C391.252 247.888 390.58 248.08 389.924 248.08C388.34 248.08 387.46 247.184 387.46 245.632V240.544H385.956V239.584H387.46V237.744H388.596V239.584H391.156V240.544H388.596V245.568C388.596 246.56 389.108 247.104 390.052 247.104C390.516 247.104 390.98 246.96 391.3 246.672ZM396.024 248.08C394.632 248.08 393.288 247.632 392.6 247.04L393.112 246.144C393.784 246.672 394.92 247.088 396.104 247.088C397.704 247.088 398.36 246.544 398.36 245.712C398.36 243.52 392.904 245.248 392.904 241.92C392.904 240.544 394.088 239.52 396.232 239.52C397.32 239.52 398.504 239.824 399.208 240.304L398.712 241.216C397.976 240.704 397.096 240.496 396.232 240.496C394.712 240.496 394.04 241.088 394.04 241.888C394.04 244.16 399.496 242.448 399.496 245.68C399.496 247.136 398.216 248.08 396.024 248.08ZM401.724 246.336C402.22 246.336 402.572 246.72 402.572 247.2C402.572 247.472 402.508 247.68 402.348 248.128L401.676 250.336H400.908L401.452 248.016C401.116 247.92 400.876 247.616 400.876 247.2C400.876 246.704 401.244 246.336 401.724 246.336ZM423.312 239.584H424.352L421.168 248H420.096L417.44 241.104L414.784 248H413.712L410.544 239.584H411.632L414.272 246.736L416.976 239.584H417.952L420.64 246.736L423.312 239.584ZM433.172 243.792C433.172 243.888 433.156 244.016 433.156 244.144H426.116C426.244 245.904 427.588 247.072 429.428 247.072C430.452 247.072 431.364 246.704 432.004 245.968L432.644 246.704C431.892 247.6 430.724 248.08 429.396 248.08C426.772 248.08 424.98 246.288 424.98 243.792C424.98 241.296 426.724 239.52 429.092 239.52C431.46 239.52 433.172 241.264 433.172 243.792ZM429.092 240.496C427.46 240.496 426.26 241.648 426.116 243.296H432.084C431.94 241.648 430.74 240.496 429.092 240.496ZM449.041 236.128H450.177V248H449.089V246.336C448.401 247.472 447.233 248.08 445.841 248.08C443.441 248.08 441.649 246.336 441.649 243.792C441.649 241.248 443.441 239.52 445.841 239.52C447.185 239.52 448.337 240.096 449.041 241.184V236.128ZM445.937 247.072C447.713 247.072 449.057 245.76 449.057 243.792C449.057 241.824 447.713 240.512 445.937 240.512C444.145 240.512 442.801 241.824 442.801 243.792C442.801 245.76 444.145 247.072 445.937 247.072ZM460.684 243.792C460.684 243.888 460.668 244.016 460.668 244.144H453.628C453.756 245.904 455.1 247.072 456.94 247.072C457.964 247.072 458.876 246.704 459.516 245.968L460.156 246.704C459.404 247.6 458.236 248.08 456.908 248.08C454.284 248.08 452.492 246.288 452.492 243.792C452.492 241.296 454.236 239.52 456.604 239.52C458.972 239.52 460.684 241.264 460.684 243.792ZM456.604 240.496C454.972 240.496 453.772 241.648 453.628 243.296H459.596C459.452 241.648 458.252 240.496 456.604 240.496ZM465.253 248.08C463.861 248.08 462.517 247.632 461.829 247.04L462.341 246.144C463.013 246.672 464.149 247.088 465.333 247.088C466.933 247.088 467.589 246.544 467.589 245.712C467.589 243.52 462.133 245.248 462.133 241.92C462.133 240.544 463.317 239.52 465.461 239.52C466.549 239.52 467.733 239.824 468.437 240.304L467.941 241.216C467.205 240.704 466.325 240.496 465.461 240.496C463.941 240.496 463.269 241.088 463.269 241.888C463.269 244.16 468.725 242.448 468.725 245.68C468.725 247.136 467.445 248.08 465.253 248.08ZM471.401 237.744C470.937 237.744 470.569 237.376 470.569 236.928C470.569 236.496 470.937 236.128 471.401 236.128C471.865 236.128 472.233 236.48 472.233 236.912C472.233 237.376 471.881 237.744 471.401 237.744ZM470.825 248V239.584H471.961V248H470.825ZM481.826 239.584H482.914V246.976C482.914 249.872 481.49 251.184 478.706 251.184C477.17 251.184 475.666 250.72 474.786 249.888L475.362 249.024C476.162 249.744 477.378 250.176 478.674 250.176C480.802 250.176 481.778 249.2 481.778 247.12V246.048C481.074 247.12 479.874 247.68 478.498 247.68C476.098 247.68 474.274 246 474.274 243.584C474.274 241.168 476.098 239.52 478.498 239.52C479.906 239.52 481.122 240.096 481.826 241.2V239.584ZM478.61 246.672C480.466 246.672 481.81 245.408 481.81 243.584C481.81 241.76 480.466 240.512 478.61 240.512C476.754 240.512 475.426 241.76 475.426 243.584C475.426 245.408 476.754 246.672 478.61 246.672ZM490.378 239.52C492.426 239.52 493.834 240.704 493.834 243.12V248H492.698V243.232C492.698 241.456 491.77 240.544 490.17 240.544C488.362 240.544 487.226 241.664 487.226 243.584V248H486.09V239.584H487.178V241.136C487.786 240.112 488.922 239.52 490.378 239.52ZM508.779 248V246.32L508.619 245.952V242.944C508.619 242.411 508.454 241.995 508.123 241.696C507.803 241.397 507.307 241.248 506.635 241.248C506.176 241.248 505.723 241.323 505.275 241.472C504.838 241.611 504.464 241.803 504.155 242.048L503.259 240.304C503.728 239.973 504.294 239.717 504.955 239.536C505.616 239.355 506.288 239.264 506.971 239.264C508.283 239.264 509.302 239.573 510.027 240.192C510.752 240.811 511.115 241.776 511.115 243.088V248H508.779ZM506.155 248.128C505.483 248.128 504.907 248.016 504.427 247.792C503.947 247.557 503.579 247.243 503.323 246.848C503.067 246.453 502.939 246.011 502.939 245.52C502.939 245.008 503.062 244.56 503.307 244.176C503.563 243.792 503.963 243.493 504.507 243.28C505.051 243.056 505.76 242.944 506.635 242.944H508.923V244.4H506.907C506.32 244.4 505.915 244.496 505.691 244.688C505.478 244.88 505.371 245.12 505.371 245.408C505.371 245.728 505.494 245.984 505.739 246.176C505.995 246.357 506.342 246.448 506.779 246.448C507.195 246.448 507.568 246.352 507.899 246.16C508.23 245.957 508.47 245.664 508.619 245.28L509.003 246.432C508.822 246.987 508.491 247.408 508.011 247.696C507.531 247.984 506.912 248.128 506.155 248.128ZM518.606 239.264C519.289 239.264 519.897 239.403 520.43 239.68C520.974 239.947 521.401 240.363 521.71 240.928C522.019 241.483 522.174 242.197 522.174 243.072V248H519.678V243.456C519.678 242.763 519.523 242.251 519.214 241.92C518.915 241.589 518.489 241.424 517.934 241.424C517.539 241.424 517.182 241.509 516.862 241.68C516.553 241.84 516.307 242.091 516.126 242.432C515.955 242.773 515.87 243.211 515.87 243.744V248H513.374V239.392H515.758V241.776L515.31 241.056C515.619 240.48 516.062 240.037 516.638 239.728C517.214 239.419 517.87 239.264 518.606 239.264ZM537.073 248V246.32L536.913 245.952V242.944C536.913 242.411 536.747 241.995 536.417 241.696C536.097 241.397 535.601 241.248 534.929 241.248C534.47 241.248 534.017 241.323 533.569 241.472C533.131 241.611 532.758 241.803 532.449 242.048L531.553 240.304C532.022 239.973 532.587 239.717 533.249 239.536C533.91 239.355 534.582 239.264 535.265 239.264C536.577 239.264 537.595 239.573 538.321 240.192C539.046 240.811 539.409 241.776 539.409 243.088V248H537.073ZM534.449 248.128C533.777 248.128 533.201 248.016 532.721 247.792C532.241 247.557 531.873 247.243 531.617 246.848C531.361 246.453 531.233 246.011 531.233 245.52C531.233 245.008 531.355 244.56 531.601 244.176C531.857 243.792 532.257 243.493 532.801 243.28C533.345 243.056 534.054 242.944 534.929 242.944H537.217V244.4H535.201C534.614 244.4 534.209 244.496 533.985 244.688C533.771 244.88 533.665 245.12 533.665 245.408C533.665 245.728 533.787 245.984 534.033 246.176C534.289 246.357 534.635 246.448 535.073 246.448C535.489 246.448 535.862 246.352 536.193 246.16C536.523 245.957 536.763 245.664 536.913 245.28L537.297 246.432C537.115 246.987 536.785 247.408 536.305 247.696C535.825 247.984 535.206 248.128 534.449 248.128ZM545.778 251.232C544.967 251.232 544.183 251.131 543.426 250.928C542.679 250.736 542.055 250.443 541.554 250.048L542.546 248.256C542.909 248.555 543.367 248.789 543.922 248.96C544.487 249.141 545.042 249.232 545.586 249.232C546.471 249.232 547.111 249.035 547.506 248.64C547.911 248.245 548.114 247.659 548.114 246.88V245.584L548.274 243.424L548.242 241.248V239.392H550.61V246.56C550.61 248.16 550.194 249.339 549.362 250.096C548.53 250.853 547.335 251.232 545.778 251.232ZM545.394 247.584C544.594 247.584 543.869 247.413 543.218 247.072C542.578 246.72 542.061 246.235 541.666 245.616C541.282 244.987 541.09 244.256 541.09 243.424C541.09 242.581 541.282 241.851 541.666 241.232C542.061 240.603 542.578 240.117 543.218 239.776C543.869 239.435 544.594 239.264 545.394 239.264C546.119 239.264 546.759 239.413 547.314 239.712C547.869 240 548.301 240.453 548.61 241.072C548.919 241.68 549.074 242.464 549.074 243.424C549.074 244.373 548.919 245.157 548.61 245.776C548.301 246.384 547.869 246.837 547.314 247.136C546.759 247.435 546.119 247.584 545.394 247.584ZM545.89 245.536C546.327 245.536 546.717 245.451 547.058 245.28C547.399 245.099 547.666 244.848 547.858 244.528C548.05 244.208 548.146 243.84 548.146 243.424C548.146 242.997 548.05 242.629 547.858 242.32C547.666 242 547.399 241.755 547.058 241.584C546.717 241.403 546.327 241.312 545.89 241.312C545.453 241.312 545.063 241.403 544.722 241.584C544.381 241.755 544.109 242 543.906 242.32C543.714 242.629 543.618 242.997 543.618 243.424C543.618 243.84 543.714 244.208 543.906 244.528C544.109 244.848 544.381 245.099 544.722 245.28C545.063 245.451 545.453 245.536 545.89 245.536ZM552.933 248V239.392H555.429V248H552.933ZM554.181 238.192C553.723 238.192 553.349 238.059 553.061 237.792C552.773 237.525 552.629 237.195 552.629 236.8C552.629 236.405 552.773 236.075 553.061 235.808C553.349 235.541 553.723 235.408 554.181 235.408C554.64 235.408 555.013 235.536 555.301 235.792C555.589 236.037 555.733 236.357 555.733 236.752C555.733 237.168 555.589 237.515 555.301 237.792C555.024 238.059 554.651 238.192 554.181 238.192ZM557.746 248V236.128H560.242V248H557.746ZM566.83 248.128C565.849 248.128 564.985 247.936 564.238 247.552C563.502 247.168 562.932 246.645 562.526 245.984C562.121 245.312 561.918 244.549 561.918 243.696C561.918 242.832 562.116 242.069 562.51 241.408C562.916 240.736 563.465 240.213 564.158 239.84C564.852 239.456 565.636 239.264 566.51 239.264C567.353 239.264 568.11 239.445 568.782 239.808C569.465 240.16 570.004 240.672 570.398 241.344C570.793 242.005 570.99 242.8 570.99 243.728C570.99 243.824 570.985 243.936 570.974 244.064C570.964 244.181 570.953 244.293 570.942 244.4H563.95V242.944H569.63L568.67 243.376C568.67 242.928 568.58 242.539 568.398 242.208C568.217 241.877 567.966 241.621 567.646 241.44C567.326 241.248 566.953 241.152 566.526 241.152C566.1 241.152 565.721 241.248 565.39 241.44C565.07 241.621 564.82 241.883 564.638 242.224C564.457 242.555 564.366 242.949 564.366 243.408V243.792C564.366 244.261 564.468 244.677 564.67 245.04C564.884 245.392 565.177 245.664 565.55 245.856C565.934 246.037 566.382 246.128 566.894 246.128C567.353 246.128 567.753 246.059 568.094 245.92C568.446 245.781 568.766 245.573 569.054 245.296L570.382 246.736C569.988 247.184 569.492 247.531 568.894 247.776C568.297 248.011 567.609 248.128 566.83 248.128ZM277.74 270.128C277.015 270.128 276.38 269.968 275.836 269.648C275.292 269.328 274.865 268.843 274.556 268.192C274.257 267.531 274.108 266.699 274.108 265.696C274.108 264.683 274.252 263.851 274.54 263.2C274.828 262.549 275.244 262.064 275.788 261.744C276.332 261.424 276.983 261.264 277.74 261.264C278.551 261.264 279.276 261.451 279.916 261.824C280.567 262.187 281.079 262.699 281.452 263.36C281.836 264.021 282.028 264.8 282.028 265.696C282.028 266.603 281.836 267.387 281.452 268.048C281.079 268.709 280.567 269.221 279.916 269.584C279.276 269.947 278.551 270.128 277.74 270.128ZM272.652 273.104V261.392H275.036V263.152L274.988 265.712L275.148 268.256V273.104H272.652ZM277.308 268.08C277.724 268.08 278.092 267.984 278.412 267.792C278.743 267.6 279.004 267.328 279.196 266.976C279.399 266.613 279.5 266.187 279.5 265.696C279.5 265.195 279.399 264.768 279.196 264.416C279.004 264.064 278.743 263.792 278.412 263.6C278.092 263.408 277.724 263.312 277.308 263.312C276.892 263.312 276.519 263.408 276.188 263.6C275.857 263.792 275.596 264.064 275.404 264.416C275.212 264.768 275.116 265.195 275.116 265.696C275.116 266.187 275.212 266.613 275.404 266.976C275.596 267.328 275.857 267.6 276.188 267.792C276.519 267.984 276.892 268.08 277.308 268.08ZM283.699 270V258.128H286.195V270H283.699ZM293.791 270V268.32L293.631 267.952V264.944C293.631 264.411 293.466 263.995 293.135 263.696C292.815 263.397 292.319 263.248 291.647 263.248C291.189 263.248 290.735 263.323 290.287 263.472C289.85 263.611 289.477 263.803 289.167 264.048L288.271 262.304C288.741 261.973 289.306 261.717 289.967 261.536C290.629 261.355 291.301 261.264 291.983 261.264C293.295 261.264 294.314 261.573 295.039 262.192C295.765 262.811 296.127 263.776 296.127 265.088V270H293.791ZM291.167 270.128C290.495 270.128 289.919 270.016 289.439 269.792C288.959 269.557 288.591 269.243 288.335 268.848C288.079 268.453 287.951 268.011 287.951 267.52C287.951 267.008 288.074 266.56 288.319 266.176C288.575 265.792 288.975 265.493 289.519 265.28C290.063 265.056 290.773 264.944 291.647 264.944H293.935V266.4H291.919C291.333 266.4 290.927 266.496 290.703 266.688C290.49 266.88 290.383 267.12 290.383 267.408C290.383 267.728 290.506 267.984 290.751 268.176C291.007 268.357 291.354 268.448 291.791 268.448C292.207 268.448 292.581 268.352 292.911 268.16C293.242 267.957 293.482 267.664 293.631 267.28L294.015 268.432C293.834 268.987 293.503 269.408 293.023 269.696C292.543 269.984 291.925 270.128 291.167 270.128ZM303.618 261.264C304.301 261.264 304.909 261.403 305.442 261.68C305.986 261.947 306.413 262.363 306.722 262.928C307.032 263.483 307.186 264.197 307.186 265.072V270H304.69V265.456C304.69 264.763 304.536 264.251 304.226 263.92C303.928 263.589 303.501 263.424 302.946 263.424C302.552 263.424 302.194 263.509 301.874 263.68C301.565 263.84 301.32 264.091 301.138 264.432C300.968 264.773 300.882 265.211 300.882 265.744V270H298.386V261.392H300.77V263.776L300.322 263.056C300.632 262.48 301.074 262.037 301.65 261.728C302.226 261.419 302.882 261.264 303.618 261.264ZM337.949 270.128C336.936 270.128 336.147 269.872 335.581 269.36C335.016 268.837 334.733 268.064 334.733 267.04V259.488H337.229V267.008C337.229 267.371 337.325 267.653 337.517 267.856C337.709 268.048 337.971 268.144 338.301 268.144C338.696 268.144 339.032 268.037 339.309 267.824L339.981 269.584C339.725 269.765 339.416 269.904 339.053 270C338.701 270.085 338.333 270.128 337.949 270.128ZM333.405 263.504V261.584H339.373V263.504H333.405ZM346.662 270V268.32L346.502 267.952V264.944C346.502 264.411 346.337 263.995 346.006 263.696C345.686 263.397 345.19 263.248 344.518 263.248C344.06 263.248 343.606 263.323 343.158 263.472C342.721 263.611 342.348 263.803 342.038 264.048L341.142 262.304C341.612 261.973 342.177 261.717 342.838 261.536C343.5 261.355 344.172 261.264 344.854 261.264C346.166 261.264 347.185 261.573 347.91 262.192C348.636 262.811 348.998 263.776 348.998 265.088V270H346.662ZM344.038 270.128C343.366 270.128 342.79 270.016 342.31 269.792C341.83 269.557 341.462 269.243 341.206 268.848C340.95 268.453 340.822 268.011 340.822 267.52C340.822 267.008 340.945 266.56 341.19 266.176C341.446 265.792 341.846 265.493 342.39 265.28C342.934 265.056 343.644 264.944 344.518 264.944H346.806V266.4H344.79C344.204 266.4 343.798 266.496 343.574 266.688C343.361 266.88 343.254 267.12 343.254 267.408C343.254 267.728 343.377 267.984 343.622 268.176C343.878 268.357 344.225 268.448 344.662 268.448C345.078 268.448 345.452 268.352 345.782 268.16C346.113 267.957 346.353 267.664 346.502 267.28L346.886 268.432C346.705 268.987 346.374 269.408 345.894 269.696C345.414 269.984 344.796 270.128 344.038 270.128ZM351.257 270V261.392H353.753V270H351.257ZM352.505 260.192C352.047 260.192 351.673 260.059 351.385 259.792C351.097 259.525 350.953 259.195 350.953 258.8C350.953 258.405 351.097 258.075 351.385 257.808C351.673 257.541 352.047 257.408 352.505 257.408C352.964 257.408 353.337 257.536 353.625 257.792C353.913 258.037 354.057 258.357 354.057 258.752C354.057 259.168 353.913 259.515 353.625 259.792C353.348 260.059 352.975 260.192 352.505 260.192ZM356.07 270V258.128H358.566V270H356.07ZM364.978 270.128C364.061 270.128 363.245 269.936 362.53 269.552C361.826 269.168 361.266 268.645 360.85 267.984C360.445 267.312 360.242 266.549 360.242 265.696C360.242 264.832 360.445 264.069 360.85 263.408C361.266 262.736 361.826 262.213 362.53 261.84C363.245 261.456 364.061 261.264 364.978 261.264C365.885 261.264 366.696 261.456 367.41 261.84C368.125 262.213 368.685 262.731 369.09 263.392C369.496 264.053 369.698 264.821 369.698 265.696C369.698 266.549 369.496 267.312 369.09 267.984C368.685 268.645 368.125 269.168 367.41 269.552C366.696 269.936 365.885 270.128 364.978 270.128ZM364.978 268.08C365.394 268.08 365.768 267.984 366.098 267.792C366.429 267.6 366.69 267.328 366.882 266.976C367.074 266.613 367.17 266.187 367.17 265.696C367.17 265.195 367.074 264.768 366.882 264.416C366.69 264.064 366.429 263.792 366.098 263.6C365.768 263.408 365.394 263.312 364.978 263.312C364.562 263.312 364.189 263.408 363.858 263.6C363.528 263.792 363.261 264.064 363.058 264.416C362.866 264.768 362.77 265.195 362.77 265.696C362.77 266.187 362.866 266.613 363.058 266.976C363.261 267.328 363.528 267.6 363.858 267.792C364.189 267.984 364.562 268.08 364.978 268.08ZM371.367 270V261.392H373.751V263.824L373.415 263.12C373.671 262.512 374.082 262.053 374.647 261.744C375.212 261.424 375.9 261.264 376.711 261.264V263.568C376.604 263.557 376.508 263.552 376.423 263.552C376.338 263.541 376.247 263.536 376.151 263.536C375.468 263.536 374.914 263.733 374.487 264.128C374.071 264.512 373.863 265.115 373.863 265.936V270H371.367ZM382.404 270.128C381.423 270.128 380.559 269.936 379.812 269.552C379.076 269.168 378.506 268.645 378.1 267.984C377.695 267.312 377.492 266.549 377.492 265.696C377.492 264.832 377.69 264.069 378.084 263.408C378.49 262.736 379.039 262.213 379.732 261.84C380.426 261.456 381.21 261.264 382.084 261.264C382.927 261.264 383.684 261.445 384.356 261.808C385.039 262.16 385.578 262.672 385.972 263.344C386.367 264.005 386.564 264.8 386.564 265.728C386.564 265.824 386.559 265.936 386.548 266.064C386.538 266.181 386.527 266.293 386.516 266.4H379.524V264.944H385.204L384.244 265.376C384.244 264.928 384.154 264.539 383.972 264.208C383.791 263.877 383.54 263.621 383.22 263.44C382.9 263.248 382.527 263.152 382.1 263.152C381.674 263.152 381.295 263.248 380.964 263.44C380.644 263.621 380.394 263.883 380.212 264.224C380.031 264.555 379.94 264.949 379.94 265.408V265.792C379.94 266.261 380.042 266.677 380.244 267.04C380.458 267.392 380.751 267.664 381.124 267.856C381.508 268.037 381.956 268.128 382.468 268.128C382.927 268.128 383.327 268.059 383.668 267.92C384.02 267.781 384.34 267.573 384.628 267.296L385.956 268.736C385.562 269.184 385.066 269.531 384.468 269.776C383.871 270.011 383.183 270.128 382.404 270.128ZM391.922 270.128C391.112 270.128 390.381 269.947 389.73 269.584C389.08 269.211 388.562 268.693 388.178 268.032C387.805 267.371 387.618 266.592 387.618 265.696C387.618 264.789 387.805 264.005 388.178 263.344C388.562 262.683 389.08 262.171 389.73 261.808C390.381 261.445 391.112 261.264 391.922 261.264C392.648 261.264 393.282 261.424 393.826 261.744C394.37 262.064 394.792 262.549 395.09 263.2C395.389 263.851 395.538 264.683 395.538 265.696C395.538 266.699 395.394 267.531 395.106 268.192C394.818 268.843 394.402 269.328 393.858 269.648C393.325 269.968 392.68 270.128 391.922 270.128ZM392.354 268.08C392.76 268.08 393.128 267.984 393.458 267.792C393.789 267.6 394.05 267.328 394.242 266.976C394.445 266.613 394.546 266.187 394.546 265.696C394.546 265.195 394.445 264.768 394.242 264.416C394.05 264.064 393.789 263.792 393.458 263.6C393.128 263.408 392.76 263.312 392.354 263.312C391.938 263.312 391.565 263.408 391.234 263.6C390.904 263.792 390.637 264.064 390.434 264.416C390.242 264.768 390.146 265.195 390.146 265.696C390.146 266.187 390.242 266.613 390.434 266.976C390.637 267.328 390.904 267.6 391.234 267.792C391.565 267.984 391.938 268.08 392.354 268.08ZM394.61 270V268.24L394.658 265.68L394.498 263.136V258.128H396.994V270H394.61ZM428.405 268.672L428.805 269.488C428.357 269.888 427.685 270.08 427.029 270.08C425.445 270.08 424.565 269.184 424.565 267.632V262.544H423.061V261.584H424.565V259.744H425.701V261.584H428.261V262.544H425.701V267.568C425.701 268.56 426.213 269.104 427.157 269.104C427.621 269.104 428.085 268.96 428.405 268.672ZM434.016 270.08C431.552 270.08 429.728 268.288 429.728 265.792C429.728 263.296 431.552 261.52 434.016 261.52C436.48 261.52 438.288 263.296 438.288 265.792C438.288 268.288 436.48 270.08 434.016 270.08ZM434.016 269.072C435.808 269.072 437.136 267.76 437.136 265.792C437.136 263.824 435.808 262.512 434.016 262.512C432.224 262.512 430.88 263.824 430.88 265.792C430.88 267.76 432.224 269.072 434.016 269.072ZM471.196 261.584H472.316L468.108 271.008C467.404 272.656 466.508 273.184 465.308 273.184C464.524 273.184 463.772 272.928 463.26 272.416L463.788 271.568C464.204 271.984 464.716 272.208 465.324 272.208C466.076 272.208 466.588 271.856 467.068 270.8L467.436 269.984L463.676 261.584H464.86L468.028 268.736L471.196 261.584ZM477.122 270.08C474.658 270.08 472.834 268.288 472.834 265.792C472.834 263.296 474.658 261.52 477.122 261.52C479.586 261.52 481.394 263.296 481.394 265.792C481.394 268.288 479.586 270.08 477.122 270.08ZM477.122 269.072C478.914 269.072 480.242 267.76 480.242 265.792C480.242 263.824 478.914 262.512 477.122 262.512C475.33 262.512 473.986 263.824 473.986 265.792C473.986 267.76 475.33 269.072 477.122 269.072ZM490.161 261.584H491.297V270H490.209V268.464C489.617 269.488 488.529 270.08 487.185 270.08C485.041 270.08 483.633 268.88 483.633 266.464V261.584H484.769V266.352C484.769 268.144 485.697 269.056 487.297 269.056C489.057 269.056 490.161 267.92 490.161 266V261.584ZM495.567 263.232C496.095 262.112 497.167 261.52 498.719 261.52V262.624C498.623 262.624 498.527 262.608 498.447 262.608C496.687 262.608 495.615 263.728 495.615 265.712V270H494.479V261.584H495.567V263.232ZM529.825 261.52C531.873 261.52 533.281 262.704 533.281 265.12V270H532.145V265.232C532.145 263.456 531.217 262.544 529.617 262.544C527.809 262.544 526.673 263.664 526.673 265.584V270H525.537V258.128H526.673V263.056C527.297 262.08 528.401 261.52 529.825 261.52ZM536.941 259.744C536.477 259.744 536.109 259.376 536.109 258.928C536.109 258.496 536.477 258.128 536.941 258.128C537.405 258.128 537.773 258.48 537.773 258.912C537.773 259.376 537.421 259.744 536.941 259.744ZM536.365 270V261.584H537.501V270H536.365ZM541.75 263.232C542.278 262.112 543.35 261.52 544.902 261.52V262.624C544.806 262.624 544.71 262.608 544.63 262.608C542.87 262.608 541.798 263.728 541.798 265.712V270H540.662V261.584H541.75V263.232ZM547.535 259.744C547.071 259.744 546.703 259.376 546.703 258.928C546.703 258.496 547.071 258.128 547.535 258.128C547.999 258.128 548.367 258.48 548.367 258.912C548.367 259.376 548.015 259.744 547.535 259.744ZM546.959 270V261.584H548.095V270H546.959ZM555.544 261.52C557.592 261.52 559 262.704 559 265.12V270H557.864V265.232C557.864 263.456 556.936 262.544 555.336 262.544C553.528 262.544 552.392 263.664 552.392 265.584V270H551.256V261.584H552.344V263.136C552.952 262.112 554.088 261.52 555.544 261.52ZM568.819 261.584H569.907V268.976C569.907 271.872 568.483 273.184 565.699 273.184C564.163 273.184 562.659 272.72 561.779 271.888L562.355 271.024C563.155 271.744 564.371 272.176 565.667 272.176C567.795 272.176 568.771 271.2 568.771 269.12V268.048C568.067 269.12 566.867 269.68 565.491 269.68C563.091 269.68 561.267 268 561.267 265.584C561.267 263.168 563.091 261.52 565.491 261.52C566.899 261.52 568.115 262.096 568.819 263.2V261.584ZM565.603 268.672C567.459 268.672 568.803 267.408 568.803 265.584C568.803 263.76 567.459 262.512 565.603 262.512C563.747 262.512 562.419 263.76 562.419 265.584C562.419 267.408 563.747 268.672 565.603 268.672ZM276.572 292.08C274.06 292.08 272.236 290.304 272.236 287.792C272.236 285.28 274.06 283.52 276.572 283.52C277.996 283.52 279.196 284.08 279.868 285.184L279.02 285.76C278.444 284.912 277.548 284.512 276.572 284.512C274.732 284.512 273.388 285.824 273.388 287.792C273.388 289.776 274.732 291.072 276.572 291.072C277.548 291.072 278.444 290.688 279.02 289.84L279.868 290.416C279.196 291.504 277.996 292.08 276.572 292.08ZM286.263 283.52C288.311 283.52 289.719 284.704 289.719 287.12V292H288.583V287.232C288.583 285.456 287.655 284.544 286.055 284.544C284.247 284.544 283.111 285.664 283.111 287.584V292H281.975V280.128H283.111V285.056C283.735 284.08 284.839 283.52 286.263 283.52ZM295.747 283.52C297.923 283.52 299.155 284.608 299.155 286.784V292H298.067V290.688C297.555 291.552 296.563 292.08 295.171 292.08C293.267 292.08 292.099 291.088 292.099 289.632C292.099 288.336 292.931 287.248 295.347 287.248H298.019V286.736C298.019 285.296 297.203 284.512 295.635 284.512C294.547 284.512 293.523 284.896 292.835 285.504L292.323 284.656C293.171 283.936 294.419 283.52 295.747 283.52ZM295.347 291.184C296.627 291.184 297.571 290.576 298.019 289.472V288.096H295.379C293.747 288.096 293.219 288.736 293.219 289.6C293.219 290.576 294.003 291.184 295.347 291.184ZM302.24 292V280.128H303.376V292H302.24ZM306.537 292V280.128H307.673V292H306.537ZM318.178 287.792C318.178 287.888 318.162 288.016 318.162 288.144H311.122C311.25 289.904 312.594 291.072 314.434 291.072C315.458 291.072 316.37 290.704 317.01 289.968L317.65 290.704C316.898 291.6 315.73 292.08 314.402 292.08C311.778 292.08 309.986 290.288 309.986 287.792C309.986 285.296 311.73 283.52 314.098 283.52C316.466 283.52 318.178 285.264 318.178 287.792ZM314.098 284.496C312.466 284.496 311.266 285.648 311.122 287.296H317.09C316.946 285.648 315.746 284.496 314.098 284.496ZM324.778 283.52C326.826 283.52 328.234 284.704 328.234 287.12V292H327.098V287.232C327.098 285.456 326.17 284.544 324.57 284.544C322.762 284.544 321.626 285.664 321.626 287.584V292H320.49V283.584H321.578V285.136C322.186 284.112 323.322 283.52 324.778 283.52ZM338.054 283.584H339.142V290.976C339.142 293.872 337.718 295.184 334.934 295.184C333.398 295.184 331.894 294.72 331.014 293.888L331.59 293.024C332.39 293.744 333.606 294.176 334.902 294.176C337.03 294.176 338.006 293.2 338.006 291.12V290.048C337.302 291.12 336.102 291.68 334.726 291.68C332.326 291.68 330.502 290 330.502 287.584C330.502 285.168 332.326 283.52 334.726 283.52C336.134 283.52 337.35 284.096 338.054 285.2V283.584ZM334.838 290.672C336.694 290.672 338.038 289.408 338.038 287.584C338.038 285.76 336.694 284.512 334.838 284.512C332.982 284.512 331.654 285.76 331.654 287.584C331.654 289.408 332.982 290.672 334.838 290.672ZM349.662 287.792C349.662 287.888 349.646 288.016 349.646 288.144H342.606C342.734 289.904 344.078 291.072 345.918 291.072C346.942 291.072 347.854 290.704 348.494 289.968L349.134 290.704C348.382 291.6 347.214 292.08 345.886 292.08C343.262 292.08 341.47 290.288 341.47 287.792C341.47 285.296 343.214 283.52 345.582 283.52C347.95 283.52 349.662 285.264 349.662 287.792ZM345.582 284.496C343.95 284.496 342.75 285.648 342.606 287.296H348.574C348.43 285.648 347.23 284.496 345.582 284.496ZM354.231 292.08C352.839 292.08 351.495 291.632 350.807 291.04L351.319 290.144C351.991 290.672 353.127 291.088 354.311 291.088C355.911 291.088 356.567 290.544 356.567 289.712C356.567 287.52 351.111 289.248 351.111 285.92C351.111 284.544 352.295 283.52 354.439 283.52C355.527 283.52 356.711 283.824 357.415 284.304L356.919 285.216C356.183 284.704 355.303 284.496 354.439 284.496C352.919 284.496 352.247 285.088 352.247 285.888C352.247 288.16 357.703 286.448 357.703 289.68C357.703 291.136 356.423 292.08 354.231 292.08ZM359.915 292.08C359.451 292.08 359.067 291.696 359.067 291.2C359.067 290.704 359.451 290.336 359.915 290.336C360.379 290.336 360.779 290.704 360.779 291.2C360.779 291.696 360.379 292.08 359.915 292.08ZM392.406 292V281.824H388.47V280.8H397.526V281.824H393.59V292H392.406ZM403.466 283.52C405.514 283.52 406.922 284.704 406.922 287.12V292H405.786V287.232C405.786 285.456 404.858 284.544 403.258 284.544C401.45 284.544 400.314 285.664 400.314 287.584V292H399.178V280.128H400.314V285.056C400.938 284.08 402.042 283.52 403.466 283.52ZM410.582 281.744C410.118 281.744 409.75 281.376 409.75 280.928C409.75 280.496 410.118 280.128 410.582 280.128C411.046 280.128 411.414 280.48 411.414 280.912C411.414 281.376 411.062 281.744 410.582 281.744ZM410.006 292V283.584H411.142V292H410.006ZM416.559 292.08C415.167 292.08 413.823 291.632 413.135 291.04L413.647 290.144C414.319 290.672 415.455 291.088 416.639 291.088C418.239 291.088 418.895 290.544 418.895 289.712C418.895 287.52 413.439 289.248 413.439 285.92C413.439 284.544 414.623 283.52 416.767 283.52C417.855 283.52 419.039 283.824 419.743 284.304L419.247 285.216C418.511 284.704 417.631 284.496 416.767 284.496C415.247 284.496 414.575 285.088 414.575 285.888C414.575 288.16 420.031 286.448 420.031 289.68C420.031 291.136 418.751 292.08 416.559 292.08ZM452.416 292.08C449.904 292.08 448.08 290.304 448.08 287.792C448.08 285.28 449.904 283.52 452.416 283.52C453.84 283.52 455.04 284.08 455.712 285.184L454.864 285.76C454.288 284.912 453.392 284.512 452.416 284.512C450.576 284.512 449.232 285.824 449.232 287.792C449.232 289.776 450.576 291.072 452.416 291.072C453.392 291.072 454.288 290.688 454.864 289.84L455.712 290.416C455.04 291.504 453.84 292.08 452.416 292.08ZM461.243 292.08C458.779 292.08 456.955 290.288 456.955 287.792C456.955 285.296 458.779 283.52 461.243 283.52C463.707 283.52 465.515 285.296 465.515 287.792C465.515 290.288 463.707 292.08 461.243 292.08ZM461.243 291.072C463.035 291.072 464.363 289.76 464.363 287.792C464.363 285.824 463.035 284.512 461.243 284.512C459.451 284.512 458.107 285.824 458.107 287.792C458.107 289.76 459.451 291.072 461.243 291.072ZM478.33 283.52C480.378 283.52 481.722 284.704 481.722 287.12V292H480.586V287.232C480.586 285.456 479.69 284.544 478.17 284.544C476.442 284.544 475.354 285.664 475.354 287.584V292H474.218V287.232C474.218 285.456 473.322 284.544 471.786 284.544C470.074 284.544 468.97 285.664 468.97 287.584V292H467.834V283.584H468.922V285.12C469.514 284.112 470.602 283.52 472.01 283.52C473.402 283.52 474.49 284.112 475.002 285.296C475.61 284.208 476.81 283.52 478.33 283.52ZM489.139 283.52C491.539 283.52 493.331 285.248 493.331 287.792C493.331 290.352 491.539 292.08 489.139 292.08C487.795 292.08 486.643 291.504 485.939 290.416V295.104H484.803V283.584H485.891V285.248C486.579 284.128 487.747 283.52 489.139 283.52ZM489.059 291.072C490.835 291.072 492.195 289.76 492.195 287.792C492.195 285.84 490.835 284.512 489.059 284.512C487.267 284.512 485.923 285.84 485.923 287.792C485.923 289.76 487.267 291.072 489.059 291.072ZM496.735 285.232C497.263 284.112 498.335 283.52 499.887 283.52V284.624C499.791 284.624 499.695 284.608 499.615 284.608C497.855 284.608 496.783 285.728 496.783 287.712V292H495.647V283.584H496.735V285.232ZM509.209 287.792C509.209 287.888 509.193 288.016 509.193 288.144H502.153C502.281 289.904 503.625 291.072 505.465 291.072C506.489 291.072 507.401 290.704 508.041 289.968L508.681 290.704C507.929 291.6 506.761 292.08 505.433 292.08C502.809 292.08 501.017 290.288 501.017 287.792C501.017 285.296 502.761 283.52 505.129 283.52C507.497 283.52 509.209 285.264 509.209 287.792ZM505.129 284.496C503.497 284.496 502.297 285.648 502.153 287.296H508.121C507.977 285.648 506.777 284.496 505.129 284.496ZM515.81 283.52C517.858 283.52 519.266 284.704 519.266 287.12V292H518.13V287.232C518.13 285.456 517.202 284.544 515.602 284.544C513.794 284.544 512.658 285.664 512.658 287.584V292H511.522V280.128H512.658V285.056C513.282 284.08 514.386 283.52 515.81 283.52ZM529.725 287.792C529.725 287.888 529.709 288.016 529.709 288.144H522.669C522.797 289.904 524.141 291.072 525.981 291.072C527.005 291.072 527.917 290.704 528.557 289.968L529.197 290.704C528.445 291.6 527.277 292.08 525.949 292.08C523.325 292.08 521.533 290.288 521.533 287.792C521.533 285.296 523.277 283.52 525.645 283.52C528.013 283.52 529.725 285.264 529.725 287.792ZM525.645 284.496C524.013 284.496 522.813 285.648 522.669 287.296H528.637C528.493 285.648 527.293 284.496 525.645 284.496ZM536.325 283.52C538.373 283.52 539.781 284.704 539.781 287.12V292H538.645V287.232C538.645 285.456 537.717 284.544 536.117 284.544C534.309 284.544 533.173 285.664 533.173 287.584V292H532.037V283.584H533.125V285.136C533.733 284.112 534.869 283.52 536.325 283.52ZM545.121 292.08C543.729 292.08 542.385 291.632 541.697 291.04L542.209 290.144C542.881 290.672 544.017 291.088 545.201 291.088C546.801 291.088 547.457 290.544 547.457 289.712C547.457 287.52 542.001 289.248 542.001 285.92C542.001 284.544 543.185 283.52 545.329 283.52C546.417 283.52 547.601 283.824 548.305 284.304L547.809 285.216C547.073 284.704 546.193 284.496 545.329 284.496C543.809 284.496 543.137 285.088 543.137 285.888C543.137 288.16 548.593 286.448 548.593 289.68C548.593 291.136 547.313 292.08 545.121 292.08ZM551.269 281.744C550.805 281.744 550.437 281.376 550.437 280.928C550.437 280.496 550.805 280.128 551.269 280.128C551.733 280.128 552.101 280.48 552.101 280.912C552.101 281.376 551.749 281.744 551.269 281.744ZM550.693 292V283.584H551.829V292H550.693ZM560.942 283.584H562.062L558.318 292H557.15L553.422 283.584H554.606L557.758 290.752L560.942 283.584ZM570.772 287.792C570.772 287.888 570.756 288.016 570.756 288.144H563.716C563.844 289.904 565.188 291.072 567.028 291.072C568.052 291.072 568.964 290.704 569.604 289.968L570.244 290.704C569.492 291.6 568.324 292.08 566.996 292.08C564.372 292.08 562.58 290.288 562.58 287.792C562.58 285.296 564.324 283.52 566.692 283.52C569.06 283.52 570.772 285.264 570.772 287.792ZM566.692 284.496C565.06 284.496 563.86 285.648 563.716 287.296H569.684C569.54 285.648 568.34 284.496 566.692 284.496ZM275.34 314.08C273.948 314.08 272.604 313.632 271.916 313.04L272.428 312.144C273.1 312.672 274.236 313.088 275.42 313.088C277.02 313.088 277.676 312.544 277.676 311.712C277.676 309.52 272.22 311.248 272.22 307.92C272.22 306.544 273.404 305.52 275.548 305.52C276.636 305.52 277.82 305.824 278.524 306.304L278.028 307.216C277.292 306.704 276.412 306.496 275.548 306.496C274.028 306.496 273.356 307.088 273.356 307.888C273.356 310.16 278.812 308.448 278.812 311.68C278.812 313.136 277.532 314.08 275.34 314.08ZM284.944 312.672L285.344 313.488C284.896 313.888 284.224 314.08 283.568 314.08C281.984 314.08 281.104 313.184 281.104 311.632V306.544H279.6V305.584H281.104V303.744H282.24V305.584H284.8V306.544H282.24V311.568C282.24 312.56 282.752 313.104 283.696 313.104C284.16 313.104 284.624 312.96 284.944 312.672ZM288.5 307.232C289.028 306.112 290.1 305.52 291.652 305.52V306.624C291.556 306.624 291.46 306.608 291.38 306.608C289.62 306.608 288.548 307.728 288.548 309.712V314H287.412V305.584H288.5V307.232ZM296.637 305.52C298.813 305.52 300.045 306.608 300.045 308.784V314H298.957V312.688C298.445 313.552 297.453 314.08 296.061 314.08C294.157 314.08 292.989 313.088 292.989 311.632C292.989 310.336 293.821 309.248 296.237 309.248H298.909V308.736C298.909 307.296 298.093 306.512 296.525 306.512C295.437 306.512 294.413 306.896 293.725 307.504L293.213 306.656C294.061 305.936 295.309 305.52 296.637 305.52ZM296.237 313.184C297.517 313.184 298.461 312.576 298.909 311.472V310.096H296.269C294.637 310.096 294.109 310.736 294.109 311.6C294.109 312.576 294.893 313.184 296.237 313.184ZM307.163 312.672L307.563 313.488C307.115 313.888 306.443 314.08 305.787 314.08C304.203 314.08 303.323 313.184 303.323 311.632V306.544H301.819V305.584H303.323V303.744H304.459V305.584H307.019V306.544H304.459V311.568C304.459 312.56 304.971 313.104 305.915 313.104C306.379 313.104 306.843 312.96 307.163 312.672ZM316.678 309.792C316.678 309.888 316.662 310.016 316.662 310.144H309.622C309.75 311.904 311.094 313.072 312.934 313.072C313.958 313.072 314.87 312.704 315.51 311.968L316.15 312.704C315.398 313.6 314.23 314.08 312.902 314.08C310.278 314.08 308.486 312.288 308.486 309.792C308.486 307.296 310.23 305.52 312.598 305.52C314.966 305.52 316.678 307.264 316.678 309.792ZM312.598 306.496C310.966 306.496 309.766 307.648 309.622 309.296H315.59C315.446 307.648 314.246 306.496 312.598 306.496ZM325.694 305.584H326.782V312.976C326.782 315.872 325.358 317.184 322.574 317.184C321.038 317.184 319.534 316.72 318.654 315.888L319.23 315.024C320.03 315.744 321.246 316.176 322.542 316.176C324.67 316.176 325.646 315.2 325.646 313.12V312.048C324.942 313.12 323.742 313.68 322.366 313.68C319.966 313.68 318.142 312 318.142 309.584C318.142 307.168 319.966 305.52 322.366 305.52C323.774 305.52 324.99 306.096 325.694 307.2V305.584ZM322.478 312.672C324.334 312.672 325.678 311.408 325.678 309.584C325.678 307.76 324.334 306.512 322.478 306.512C320.622 306.512 319.294 307.76 319.294 309.584C319.294 311.408 320.622 312.672 322.478 312.672ZM335.911 305.584H337.031L332.823 315.008C332.119 316.656 331.223 317.184 330.023 317.184C329.239 317.184 328.487 316.928 327.975 316.416L328.503 315.568C328.919 315.984 329.431 316.208 330.039 316.208C330.791 316.208 331.303 315.856 331.783 314.8L332.151 313.984L328.391 305.584H329.575L332.743 312.736L335.911 305.584ZM351.872 314.08C349.408 314.08 347.584 312.288 347.584 309.792C347.584 307.296 349.408 305.52 351.872 305.52C354.336 305.52 356.144 307.296 356.144 309.792C356.144 312.288 354.336 314.08 351.872 314.08ZM351.872 313.072C353.664 313.072 354.992 311.76 354.992 309.792C354.992 307.824 353.664 306.512 351.872 306.512C350.08 306.512 348.736 307.824 348.736 309.792C348.736 311.76 350.08 313.072 351.872 313.072ZM364.911 305.584H366.047V314H364.959V312.464C364.367 313.488 363.279 314.08 361.935 314.08C359.791 314.08 358.383 312.88 358.383 310.464V305.584H359.519V310.352C359.519 312.144 360.447 313.056 362.047 313.056C363.807 313.056 364.911 311.92 364.911 310V305.584ZM373.261 312.672L373.661 313.488C373.213 313.888 372.541 314.08 371.885 314.08C370.301 314.08 369.421 313.184 369.421 311.632V306.544H367.917V305.584H369.421V303.744H370.557V305.584H373.117V306.544H370.557V311.568C370.557 312.56 371.069 313.104 372.013 313.104C372.477 313.104 372.941 312.96 373.261 312.672ZM375.729 314V302.128H376.865V314H375.729ZM380.601 303.744C380.137 303.744 379.769 303.376 379.769 302.928C379.769 302.496 380.137 302.128 380.601 302.128C381.065 302.128 381.433 302.48 381.433 302.912C381.433 303.376 381.081 303.744 380.601 303.744ZM380.025 314V305.584H381.161V314H380.025ZM388.61 305.52C390.658 305.52 392.066 306.704 392.066 309.12V314H390.93V309.232C390.93 307.456 390.002 306.544 388.402 306.544C386.594 306.544 385.458 307.664 385.458 309.584V314H384.322V305.584H385.41V307.136C386.018 306.112 387.154 305.52 388.61 305.52ZM402.526 309.792C402.526 309.888 402.51 310.016 402.51 310.144H395.47C395.598 311.904 396.942 313.072 398.782 313.072C399.806 313.072 400.718 312.704 401.358 311.968L401.998 312.704C401.246 313.6 400.078 314.08 398.75 314.08C396.126 314.08 394.334 312.288 394.334 309.792C394.334 307.296 396.078 305.52 398.446 305.52C400.814 305.52 402.526 307.264 402.526 309.792ZM398.446 306.496C396.814 306.496 395.614 307.648 395.47 309.296H401.438C401.294 307.648 400.094 306.496 398.446 306.496ZM407.094 314.08C405.702 314.08 404.358 313.632 403.67 313.04L404.182 312.144C404.854 312.672 405.99 313.088 407.174 313.088C408.774 313.088 409.43 312.544 409.43 311.712C409.43 309.52 403.974 311.248 403.974 307.92C403.974 306.544 405.158 305.52 407.302 305.52C408.39 305.52 409.574 305.824 410.278 306.304L409.782 307.216C409.046 306.704 408.166 306.496 407.302 306.496C405.782 306.496 405.11 307.088 405.11 307.888C405.11 310.16 410.566 308.448 410.566 311.68C410.566 313.136 409.286 314.08 407.094 314.08ZM426.803 305.52C429.203 305.52 430.995 307.248 430.995 309.792C430.995 312.352 429.203 314.08 426.803 314.08C425.459 314.08 424.307 313.504 423.603 312.416V317.104H422.467V305.584H423.555V307.248C424.243 306.128 425.411 305.52 426.803 305.52ZM426.723 313.072C428.499 313.072 429.859 311.76 429.859 309.792C429.859 307.84 428.499 306.512 426.723 306.512C424.931 306.512 423.587 307.84 423.587 309.792C423.587 311.76 424.931 313.072 426.723 313.072ZM434.399 307.232C434.927 306.112 435.999 305.52 437.551 305.52V306.624C437.455 306.624 437.359 306.608 437.279 306.608C435.519 306.608 434.447 307.728 434.447 309.712V314H433.311V305.584H434.399V307.232ZM446.873 309.792C446.873 309.888 446.857 310.016 446.857 310.144H439.817C439.945 311.904 441.289 313.072 443.129 313.072C444.153 313.072 445.065 312.704 445.705 311.968L446.345 312.704C445.593 313.6 444.425 314.08 443.097 314.08C440.473 314.08 438.681 312.288 438.681 309.792C438.681 307.296 440.425 305.52 442.793 305.52C445.161 305.52 446.873 307.264 446.873 309.792ZM442.793 306.496C441.161 306.496 439.961 307.648 439.817 309.296H445.785C445.641 307.648 444.441 306.496 442.793 306.496ZM452.674 314.08C450.162 314.08 448.338 312.304 448.338 309.792C448.338 307.28 450.162 305.52 452.674 305.52C454.098 305.52 455.298 306.08 455.97 307.184L455.122 307.76C454.546 306.912 453.65 306.512 452.674 306.512C450.834 306.512 449.49 307.824 449.49 309.792C449.49 311.776 450.834 313.072 452.674 313.072C453.65 313.072 454.546 312.688 455.122 311.84L455.97 312.416C455.298 313.504 454.098 314.08 452.674 314.08ZM458.777 303.744C458.313 303.744 457.945 303.376 457.945 302.928C457.945 302.496 458.313 302.128 458.777 302.128C459.241 302.128 459.609 302.48 459.609 302.912C459.609 303.376 459.257 303.744 458.777 303.744ZM458.201 314V305.584H459.337V314H458.201ZM464.754 314.08C463.362 314.08 462.018 313.632 461.33 313.04L461.842 312.144C462.514 312.672 463.65 313.088 464.834 313.088C466.434 313.088 467.09 312.544 467.09 311.712C467.09 309.52 461.634 311.248 461.634 307.92C461.634 306.544 462.818 305.52 464.962 305.52C466.05 305.52 467.234 305.824 467.938 306.304L467.442 307.216C466.706 306.704 465.826 306.496 464.962 306.496C463.442 306.496 462.77 307.088 462.77 307.888C462.77 310.16 468.226 308.448 468.226 311.68C468.226 313.136 466.946 314.08 464.754 314.08ZM477.67 309.792C477.67 309.888 477.654 310.016 477.654 310.144H470.614C470.742 311.904 472.086 313.072 473.926 313.072C474.95 313.072 475.862 312.704 476.502 311.968L477.142 312.704C476.39 313.6 475.222 314.08 473.894 314.08C471.27 314.08 469.478 312.288 469.478 309.792C469.478 307.296 471.222 305.52 473.59 305.52C475.958 305.52 477.67 307.264 477.67 309.792ZM473.59 306.496C471.958 306.496 470.758 307.648 470.614 309.296H476.582C476.438 307.648 475.238 306.496 473.59 306.496ZM492.039 314.08C490.647 314.08 489.303 313.632 488.615 313.04L489.127 312.144C489.799 312.672 490.935 313.088 492.119 313.088C493.719 313.088 494.375 312.544 494.375 311.712C494.375 309.52 488.919 311.248 488.919 307.92C488.919 306.544 490.103 305.52 492.247 305.52C493.335 305.52 494.519 305.824 495.223 306.304L494.727 307.216C493.991 306.704 493.111 306.496 492.247 306.496C490.727 306.496 490.055 307.088 490.055 307.888C490.055 310.16 495.511 308.448 495.511 311.68C495.511 313.136 494.231 314.08 492.039 314.08ZM501.643 312.672L502.043 313.488C501.595 313.888 500.923 314.08 500.267 314.08C498.683 314.08 497.803 313.184 497.803 311.632V306.544H496.299V305.584H497.803V303.744H498.939V305.584H501.499V306.544H498.939V311.568C498.939 312.56 499.451 313.104 500.395 313.104C500.859 313.104 501.323 312.96 501.643 312.672ZM511.158 309.792C511.158 309.888 511.142 310.016 511.142 310.144H504.102C504.23 311.904 505.574 313.072 507.414 313.072C508.438 313.072 509.35 312.704 509.99 311.968L510.63 312.704C509.878 313.6 508.71 314.08 507.382 314.08C504.758 314.08 502.966 312.288 502.966 309.792C502.966 307.296 504.71 305.52 507.078 305.52C509.446 305.52 511.158 307.264 511.158 309.792ZM507.078 306.496C505.446 306.496 504.246 307.648 504.102 309.296H510.07C509.926 307.648 508.726 306.496 507.078 306.496ZM517.807 305.52C520.207 305.52 521.999 307.248 521.999 309.792C521.999 312.352 520.207 314.08 517.807 314.08C516.463 314.08 515.311 313.504 514.607 312.416V317.104H513.471V305.584H514.559V307.248C515.247 306.128 516.415 305.52 517.807 305.52ZM517.727 313.072C519.503 313.072 520.863 311.76 520.863 309.792C520.863 307.84 519.503 306.512 517.727 306.512C515.935 306.512 514.591 307.84 514.591 309.792C514.591 311.76 515.935 313.072 517.727 313.072ZM526.57 314.08C525.178 314.08 523.834 313.632 523.146 313.04L523.658 312.144C524.33 312.672 525.466 313.088 526.65 313.088C528.25 313.088 528.906 312.544 528.906 311.712C528.906 309.52 523.45 311.248 523.45 307.92C523.45 306.544 524.634 305.52 526.778 305.52C527.866 305.52 529.05 305.824 529.754 306.304L529.258 307.216C528.522 306.704 527.642 306.496 526.778 306.496C525.258 306.496 524.586 307.088 524.586 307.888C524.586 310.16 530.042 308.448 530.042 311.68C530.042 313.136 528.762 314.08 526.57 314.08ZM544.887 305.52C547.063 305.52 548.295 306.608 548.295 308.784V314H547.207V312.688C546.695 313.552 545.703 314.08 544.311 314.08C542.407 314.08 541.239 313.088 541.239 311.632C541.239 310.336 542.071 309.248 544.487 309.248H547.159V308.736C547.159 307.296 546.343 306.512 544.775 306.512C543.687 306.512 542.663 306.896 541.975 307.504L541.463 306.656C542.311 305.936 543.559 305.52 544.887 305.52ZM544.487 313.184C545.767 313.184 546.711 312.576 547.159 311.472V310.096H544.519C542.887 310.096 542.359 310.736 542.359 311.6C542.359 312.576 543.143 313.184 544.487 313.184ZM555.669 305.52C557.717 305.52 559.125 306.704 559.125 309.12V314H557.989V309.232C557.989 307.456 557.061 306.544 555.461 306.544C553.653 306.544 552.517 307.664 552.517 309.584V314H551.381V305.584H552.469V307.136C553.077 306.112 554.213 305.52 555.669 305.52ZM568.784 302.128H569.92V314H568.832V312.336C568.144 313.472 566.976 314.08 565.584 314.08C563.184 314.08 561.392 312.336 561.392 309.792C561.392 307.248 563.184 305.52 565.584 305.52C566.928 305.52 568.08 306.096 568.784 307.184V302.128ZM565.68 313.072C567.456 313.072 568.8 311.76 568.8 309.792C568.8 307.824 567.456 306.512 565.68 306.512C563.888 306.512 562.544 307.824 562.544 309.792C562.544 311.76 563.888 313.072 565.68 313.072ZM277.116 334.672L277.516 335.488C277.068 335.888 276.396 336.08 275.74 336.08C274.156 336.08 273.276 335.184 273.276 333.632V328.544H271.772V327.584H273.276V325.744H274.412V327.584H276.972V328.544H274.412V333.568C274.412 334.56 274.924 335.104 275.868 335.104C276.332 335.104 276.796 334.96 277.116 334.672ZM280.16 325.744C279.696 325.744 279.328 325.376 279.328 324.928C279.328 324.496 279.696 324.128 280.16 324.128C280.624 324.128 280.992 324.48 280.992 324.912C280.992 325.376 280.64 325.744 280.16 325.744ZM279.584 336V327.584H280.72V336H279.584ZM294.377 327.52C296.425 327.52 297.769 328.704 297.769 331.12V336H296.633V331.232C296.633 329.456 295.737 328.544 294.217 328.544C292.489 328.544 291.401 329.664 291.401 331.584V336H290.265V331.232C290.265 329.456 289.369 328.544 287.833 328.544C286.121 328.544 285.017 329.664 285.017 331.584V336H283.881V327.584H284.969V329.12C285.561 328.112 286.649 327.52 288.057 327.52C289.449 327.52 290.537 328.112 291.049 329.296C291.657 328.208 292.857 327.52 294.377 327.52ZM308.225 331.792C308.225 331.888 308.209 332.016 308.209 332.144H301.169C301.297 333.904 302.641 335.072 304.481 335.072C305.505 335.072 306.417 334.704 307.057 333.968L307.697 334.704C306.945 335.6 305.777 336.08 304.449 336.08C301.825 336.08 300.033 334.288 300.033 331.792C300.033 329.296 301.777 327.52 304.145 327.52C306.513 327.52 308.225 329.264 308.225 331.792ZM304.145 328.496C302.513 328.496 301.313 329.648 301.169 331.296H307.137C306.993 329.648 305.793 328.496 304.145 328.496ZM310.537 336V324.128H311.673V336H310.537ZM315.41 325.744C314.946 325.744 314.578 325.376 314.578 324.928C314.578 324.496 314.946 324.128 315.41 324.128C315.874 324.128 316.242 324.48 316.242 324.912C316.242 325.376 315.89 325.744 315.41 325.744ZM314.834 336V327.584H315.97V336H314.834ZM323.419 327.52C325.467 327.52 326.875 328.704 326.875 331.12V336H325.739V331.232C325.739 329.456 324.811 328.544 323.211 328.544C321.403 328.544 320.267 329.664 320.267 331.584V336H319.131V327.584H320.219V329.136C320.827 328.112 321.963 327.52 323.419 327.52ZM337.334 331.792C337.334 331.888 337.318 332.016 337.318 332.144H330.278C330.406 333.904 331.75 335.072 333.59 335.072C334.614 335.072 335.526 334.704 336.166 333.968L336.806 334.704C336.054 335.6 334.886 336.08 333.558 336.08C330.934 336.08 329.142 334.288 329.142 331.792C329.142 329.296 330.886 327.52 333.254 327.52C335.622 327.52 337.334 329.264 337.334 331.792ZM333.254 328.496C331.622 328.496 330.422 329.648 330.278 331.296H336.246C336.102 329.648 334.902 328.496 333.254 328.496ZM341.903 336.08C340.511 336.08 339.167 335.632 338.479 335.04L338.991 334.144C339.663 334.672 340.799 335.088 341.983 335.088C343.583 335.088 344.239 334.544 344.239 333.712C344.239 331.52 338.783 333.248 338.783 329.92C338.783 328.544 339.967 327.52 342.111 327.52C343.199 327.52 344.383 327.824 345.087 328.304L344.591 329.216C343.855 328.704 342.975 328.496 342.111 328.496C340.591 328.496 339.919 329.088 339.919 329.888C339.919 332.16 345.375 330.448 345.375 333.68C345.375 335.136 344.095 336.08 341.903 336.08ZM347.603 334.336C348.099 334.336 348.451 334.72 348.451 335.2C348.451 335.472 348.387 335.68 348.227 336.128L347.555 338.336H346.787L347.331 336.016C346.995 335.92 346.755 335.616 346.755 335.2C346.755 334.704 347.123 334.336 347.603 334.336ZM374.215 327.584H375.303V334.976C375.303 337.872 373.879 339.184 371.095 339.184C369.559 339.184 368.055 338.72 367.175 337.888L367.751 337.024C368.551 337.744 369.767 338.176 371.063 338.176C373.191 338.176 374.167 337.2 374.167 335.12V334.048C373.463 335.12 372.263 335.68 370.887 335.68C368.487 335.68 366.663 334 366.663 331.584C366.663 329.168 368.487 327.52 370.887 327.52C372.295 327.52 373.511 328.096 374.215 329.2V327.584ZM370.999 334.672C372.855 334.672 374.199 333.408 374.199 331.584C374.199 329.76 372.855 328.512 370.999 328.512C369.143 328.512 367.815 329.76 367.815 331.584C367.815 333.408 369.143 334.672 370.999 334.672ZM384.928 327.584H386.064V336H384.976V334.464C384.384 335.488 383.296 336.08 381.952 336.08C379.808 336.08 378.4 334.88 378.4 332.464V327.584H379.536V332.352C379.536 334.144 380.464 335.056 382.064 335.056C383.824 335.056 384.928 333.92 384.928 332V327.584ZM392.189 327.52C394.365 327.52 395.597 328.608 395.597 330.784V336H394.509V334.688C393.997 335.552 393.005 336.08 391.613 336.08C389.709 336.08 388.541 335.088 388.541 333.632C388.541 332.336 389.373 331.248 391.789 331.248H394.461V330.736C394.461 329.296 393.645 328.512 392.077 328.512C390.989 328.512 389.965 328.896 389.277 329.504L388.765 328.656C389.613 327.936 390.861 327.52 392.189 327.52ZM391.789 335.184C393.069 335.184 394.013 334.576 394.461 333.472V332.096H391.821C390.189 332.096 389.661 332.736 389.661 333.6C389.661 334.576 390.445 335.184 391.789 335.184ZM399.771 329.232C400.299 328.112 401.371 327.52 402.923 327.52V328.624C402.827 328.624 402.731 328.608 402.651 328.608C400.891 328.608 399.819 329.728 399.819 331.712V336H398.683V327.584H399.771V329.232ZM407.908 327.52C410.084 327.52 411.316 328.608 411.316 330.784V336H410.228V334.688C409.716 335.552 408.724 336.08 407.332 336.08C405.428 336.08 404.26 335.088 404.26 333.632C404.26 332.336 405.092 331.248 407.508 331.248H410.18V330.736C410.18 329.296 409.364 328.512 407.796 328.512C406.708 328.512 405.684 328.896 404.996 329.504L404.484 328.656C405.332 327.936 406.58 327.52 407.908 327.52ZM407.508 335.184C408.788 335.184 409.732 334.576 410.18 333.472V332.096H407.54C405.908 332.096 405.38 332.736 405.38 333.6C405.38 334.576 406.164 335.184 407.508 335.184ZM418.69 327.52C420.738 327.52 422.146 328.704 422.146 331.12V336H421.01V331.232C421.01 329.456 420.082 328.544 418.482 328.544C416.674 328.544 415.538 329.664 415.538 331.584V336H414.402V327.584H415.49V329.136C416.098 328.112 417.234 327.52 418.69 327.52ZM429.262 334.672L429.662 335.488C429.214 335.888 428.542 336.08 427.886 336.08C426.302 336.08 425.422 335.184 425.422 333.632V328.544H423.918V327.584H425.422V325.744H426.558V327.584H429.118V328.544H426.558V333.568C426.558 334.56 427.07 335.104 428.014 335.104C428.478 335.104 428.942 334.96 429.262 334.672ZM438.777 331.792C438.777 331.888 438.761 332.016 438.761 332.144H431.721C431.849 333.904 433.193 335.072 435.033 335.072C436.057 335.072 436.969 334.704 437.609 333.968L438.249 334.704C437.497 335.6 436.329 336.08 435.001 336.08C432.377 336.08 430.585 334.288 430.585 331.792C430.585 329.296 432.329 327.52 434.697 327.52C437.065 327.52 438.777 329.264 438.777 331.792ZM434.697 328.496C433.065 328.496 431.865 329.648 431.721 331.296H437.689C437.545 329.648 436.345 328.496 434.697 328.496ZM448.433 331.792C448.433 331.888 448.417 332.016 448.417 332.144H441.377C441.505 333.904 442.849 335.072 444.689 335.072C445.713 335.072 446.625 334.704 447.265 333.968L447.905 334.704C447.153 335.6 445.985 336.08 444.657 336.08C442.033 336.08 440.241 334.288 440.241 331.792C440.241 329.296 441.985 327.52 444.353 327.52C446.721 327.52 448.433 329.264 448.433 331.792ZM444.353 328.496C442.721 328.496 441.521 329.648 441.377 331.296H447.345C447.201 329.648 446.001 328.496 444.353 328.496ZM451.321 325.744C450.857 325.744 450.489 325.376 450.489 324.928C450.489 324.496 450.857 324.128 451.321 324.128C451.785 324.128 452.153 324.48 452.153 324.912C452.153 325.376 451.801 325.744 451.321 325.744ZM450.745 336V327.584H451.881V336H450.745ZM459.33 327.52C461.378 327.52 462.786 328.704 462.786 331.12V336H461.65V331.232C461.65 329.456 460.722 328.544 459.122 328.544C457.314 328.544 456.178 329.664 456.178 331.584V336H455.042V327.584H456.13V329.136C456.738 328.112 457.874 327.52 459.33 327.52ZM472.606 327.584H473.694V334.976C473.694 337.872 472.27 339.184 469.486 339.184C467.95 339.184 466.446 338.72 465.566 337.888L466.142 337.024C466.942 337.744 468.158 338.176 469.454 338.176C471.582 338.176 472.558 337.2 472.558 335.12V334.048C471.854 335.12 470.654 335.68 469.278 335.68C466.878 335.68 465.054 334 465.054 331.584C465.054 329.168 466.878 327.52 469.278 327.52C470.686 327.52 471.902 328.096 472.606 329.2V327.584ZM469.39 334.672C471.246 334.672 472.59 333.408 472.59 331.584C472.59 329.76 471.246 328.512 469.39 328.512C467.534 328.512 466.206 329.76 466.206 331.584C466.206 333.408 467.534 334.672 469.39 334.672ZM496.46 327.52C498.636 327.52 499.868 328.608 499.868 330.784V336H498.78V334.688C498.268 335.552 497.276 336.08 495.884 336.08C493.98 336.08 492.812 335.088 492.812 333.632C492.812 332.336 493.644 331.248 496.06 331.248H498.732V330.736C498.732 329.296 497.916 328.512 496.348 328.512C495.26 328.512 494.236 328.896 493.548 329.504L493.036 328.656C493.884 327.936 495.132 327.52 496.46 327.52ZM496.06 335.184C497.34 335.184 498.284 334.576 498.732 333.472V332.096H496.092C494.46 332.096 493.932 332.736 493.932 333.6C493.932 334.576 494.716 335.184 496.06 335.184ZM526.304 327.584H527.392V334.976C527.392 337.872 525.968 339.184 523.184 339.184C521.648 339.184 520.144 338.72 519.264 337.888L519.84 337.024C520.64 337.744 521.856 338.176 523.152 338.176C525.28 338.176 526.256 337.2 526.256 335.12V334.048C525.552 335.12 524.352 335.68 522.976 335.68C520.576 335.68 518.752 334 518.752 331.584C518.752 329.168 520.576 327.52 522.976 327.52C524.384 327.52 525.6 328.096 526.304 329.2V327.584ZM523.088 334.672C524.944 334.672 526.288 333.408 526.288 331.584C526.288 329.76 524.944 328.512 523.088 328.512C521.232 328.512 519.904 329.76 519.904 331.584C519.904 333.408 521.232 334.672 523.088 334.672ZM533.512 327.52C535.688 327.52 536.92 328.608 536.92 330.784V336H535.832V334.688C535.32 335.552 534.328 336.08 532.936 336.08C531.032 336.08 529.864 335.088 529.864 333.632C529.864 332.336 530.696 331.248 533.112 331.248H535.784V330.736C535.784 329.296 534.968 328.512 533.4 328.512C532.312 328.512 531.288 328.896 530.6 329.504L530.088 328.656C530.936 327.936 532.184 327.52 533.512 327.52ZM533.112 335.184C534.392 335.184 535.336 334.576 535.784 333.472V332.096H533.144C531.512 332.096 530.984 332.736 530.984 333.6C530.984 334.576 531.768 335.184 533.112 335.184ZM550.502 327.52C552.55 327.52 553.894 328.704 553.894 331.12V336H552.758V331.232C552.758 329.456 551.862 328.544 550.342 328.544C548.614 328.544 547.526 329.664 547.526 331.584V336H546.39V331.232C546.39 329.456 545.494 328.544 543.958 328.544C542.246 328.544 541.142 329.664 541.142 331.584V336H540.006V327.584H541.094V329.12C541.686 328.112 542.774 327.52 544.182 327.52C545.574 327.52 546.662 328.112 547.174 329.296C547.782 328.208 548.982 327.52 550.502 327.52ZM564.35 331.792C564.35 331.888 564.334 332.016 564.334 332.144H557.294C557.422 333.904 558.766 335.072 560.606 335.072C561.63 335.072 562.542 334.704 563.182 333.968L563.822 334.704C563.07 335.6 561.902 336.08 560.574 336.08C557.95 336.08 556.158 334.288 556.158 331.792C556.158 329.296 557.902 327.52 560.27 327.52C562.638 327.52 564.35 329.264 564.35 331.792ZM560.27 328.496C558.638 328.496 557.438 329.648 557.294 331.296H563.262C563.118 329.648 561.918 328.496 560.27 328.496ZM566.194 332.16V331.168H570.386V332.16H566.194ZM276.572 358.08C274.06 358.08 272.236 356.304 272.236 353.792C272.236 351.28 274.06 349.52 276.572 349.52C277.996 349.52 279.196 350.08 279.868 351.184L279.02 351.76C278.444 350.912 277.548 350.512 276.572 350.512C274.732 350.512 273.388 351.824 273.388 353.792C273.388 355.776 274.732 357.072 276.572 357.072C277.548 357.072 278.444 356.688 279.02 355.84L279.868 356.416C279.196 357.504 277.996 358.08 276.572 358.08ZM286.263 349.52C288.311 349.52 289.719 350.704 289.719 353.12V358H288.583V353.232C288.583 351.456 287.655 350.544 286.055 350.544C284.247 350.544 283.111 351.664 283.111 353.584V358H281.975V346.128H283.111V351.056C283.735 350.08 284.839 349.52 286.263 349.52ZM295.747 349.52C297.923 349.52 299.155 350.608 299.155 352.784V358H298.067V356.688C297.555 357.552 296.563 358.08 295.171 358.08C293.267 358.08 292.099 357.088 292.099 355.632C292.099 354.336 292.931 353.248 295.347 353.248H298.019V352.736C298.019 351.296 297.203 350.512 295.635 350.512C294.547 350.512 293.523 350.896 292.835 351.504L292.323 350.656C293.171 349.936 294.419 349.52 295.747 349.52ZM295.347 357.184C296.627 357.184 297.571 356.576 298.019 355.472V354.096H295.379C293.747 354.096 293.219 354.736 293.219 355.6C293.219 356.576 294.003 357.184 295.347 357.184ZM306.528 349.52C308.576 349.52 309.984 350.704 309.984 353.12V358H308.848V353.232C308.848 351.456 307.92 350.544 306.32 350.544C304.512 350.544 303.376 351.664 303.376 353.584V358H302.24V349.584H303.328V351.136C303.936 350.112 305.072 349.52 306.528 349.52ZM319.804 349.584H320.892V356.976C320.892 359.872 319.468 361.184 316.684 361.184C315.148 361.184 313.644 360.72 312.764 359.888L313.34 359.024C314.14 359.744 315.356 360.176 316.652 360.176C318.78 360.176 319.756 359.2 319.756 357.12V356.048C319.052 357.12 317.852 357.68 316.476 357.68C314.076 357.68 312.252 356 312.252 353.584C312.252 351.168 314.076 349.52 316.476 349.52C317.884 349.52 319.1 350.096 319.804 351.2V349.584ZM316.588 356.672C318.444 356.672 319.788 355.408 319.788 353.584C319.788 351.76 318.444 350.512 316.588 350.512C314.732 350.512 313.404 351.76 313.404 353.584C313.404 355.408 314.732 356.672 316.588 356.672ZM324.644 347.744C324.18 347.744 323.812 347.376 323.812 346.928C323.812 346.496 324.18 346.128 324.644 346.128C325.108 346.128 325.476 346.48 325.476 346.912C325.476 347.376 325.124 347.744 324.644 347.744ZM324.068 358V349.584H325.204V358H324.068ZM332.653 349.52C334.701 349.52 336.109 350.704 336.109 353.12V358H334.973V353.232C334.973 351.456 334.045 350.544 332.445 350.544C330.637 350.544 329.501 351.664 329.501 353.584V358H328.365V349.584H329.453V351.136C330.061 350.112 331.197 349.52 332.653 349.52ZM345.929 349.584H347.017V356.976C347.017 359.872 345.593 361.184 342.809 361.184C341.273 361.184 339.769 360.72 338.889 359.888L339.465 359.024C340.265 359.744 341.481 360.176 342.777 360.176C344.905 360.176 345.881 359.2 345.881 357.12V356.048C345.177 357.12 343.977 357.68 342.601 357.68C340.201 357.68 338.377 356 338.377 353.584C338.377 351.168 340.201 349.52 342.601 349.52C344.009 349.52 345.225 350.096 345.929 351.2V349.584ZM342.713 356.672C344.569 356.672 345.913 355.408 345.913 353.584C345.913 351.76 344.569 350.512 342.713 350.512C340.857 350.512 339.529 351.76 339.529 353.584C339.529 355.408 340.857 356.672 342.713 356.672ZM360.925 346.128H362.061V358H360.973V356.336C360.285 357.472 359.117 358.08 357.725 358.08C355.325 358.08 353.533 356.336 353.533 353.792C353.533 351.248 355.325 349.52 357.725 349.52C359.069 349.52 360.221 350.096 360.925 351.184V346.128ZM357.821 357.072C359.597 357.072 360.941 355.76 360.941 353.792C360.941 351.824 359.597 350.512 357.821 350.512C356.029 350.512 354.685 351.824 354.685 353.792C354.685 355.76 356.029 357.072 357.821 357.072ZM372.569 353.792C372.569 353.888 372.553 354.016 372.553 354.144H365.513C365.641 355.904 366.985 357.072 368.825 357.072C369.849 357.072 370.761 356.704 371.401 355.968L372.041 356.704C371.289 357.6 370.121 358.08 368.793 358.08C366.169 358.08 364.377 356.288 364.377 353.792C364.377 351.296 366.121 349.52 368.489 349.52C370.857 349.52 372.569 351.264 372.569 353.792ZM368.489 350.496C366.857 350.496 365.657 351.648 365.513 353.296H371.481C371.337 351.648 370.137 350.496 368.489 350.496ZM374.881 358V346.128H376.017V358H374.881ZM379.754 347.744C379.29 347.744 378.922 347.376 378.922 346.928C378.922 346.496 379.29 346.128 379.754 346.128C380.218 346.128 380.586 346.48 380.586 346.912C380.586 347.376 380.234 347.744 379.754 347.744ZM379.178 358V349.584H380.314V358H379.178ZM389.427 349.584H390.547L386.803 358H385.635L381.907 349.584H383.091L386.243 356.752L389.427 349.584ZM399.256 353.792C399.256 353.888 399.24 354.016 399.24 354.144H392.2C392.328 355.904 393.672 357.072 395.512 357.072C396.536 357.072 397.448 356.704 398.088 355.968L398.728 356.704C397.976 357.6 396.808 358.08 395.48 358.08C392.856 358.08 391.064 356.288 391.064 353.792C391.064 351.296 392.808 349.52 395.176 349.52C397.544 349.52 399.256 351.264 399.256 353.792ZM395.176 350.496C393.544 350.496 392.344 351.648 392.2 353.296H398.168C398.024 351.648 396.824 350.496 395.176 350.496ZM402.656 351.232C403.184 350.112 404.256 349.52 405.808 349.52V350.624C405.712 350.624 405.616 350.608 405.536 350.608C403.776 350.608 402.704 351.728 402.704 353.712V358H401.568V349.584H402.656V351.232ZM414.177 349.584H415.297L411.089 359.008C410.385 360.656 409.489 361.184 408.289 361.184C407.505 361.184 406.753 360.928 406.241 360.416L406.769 359.568C407.185 359.984 407.697 360.208 408.305 360.208C409.057 360.208 409.569 359.856 410.049 358.8L410.417 357.984L406.657 349.584H407.841L411.009 356.736L414.177 349.584ZM416.462 358.08C415.998 358.08 415.614 357.696 415.614 357.2C415.614 356.704 415.998 356.336 416.462 356.336C416.926 356.336 417.326 356.704 417.326 357.2C417.326 357.696 416.926 358.08 416.462 358.08Z" fill="white"/>
<defs>
<linearGradient id="paint0_linear_929_39" x1="333" y1="0" x2="526.173" y2="19.884" gradientUnits="userSpaceOnUse">
<stop stop-color="#70C0B2"/>
<stop offset="0.293999" stop-color="#0198B6"/>
<stop offset="0.817393" stop-color="#007289"/>
</linearGradient>
</defs>
</svg>
