<svg width="843" height="363" viewBox="0 0 843 363" fill="none" xmlns="http://www.w3.org/2000/svg">
<g clip-path="url(#clip0_929_25)">
<path d="M103.495 95V81H109.615C111.135 81 112.469 81.2933 113.615 81.88C114.762 82.4667 115.655 83.28 116.295 84.32C116.935 85.36 117.255 86.5867 117.255 88C117.255 89.4 116.935 90.6267 116.295 91.68C115.655 92.72 114.762 93.5333 113.615 94.12C112.469 94.7067 111.135 95 109.615 95H103.495ZM106.095 92.8H109.495C110.549 92.8 111.455 92.6 112.215 92.2C112.989 91.8 113.582 91.24 113.995 90.52C114.422 89.8 114.635 88.96 114.635 88C114.635 87.0267 114.422 86.1867 113.995 85.48C113.582 84.76 112.989 84.2 112.215 83.8C111.455 83.4 110.549 83.2 109.495 83.2H106.095V92.8ZM119.779 95V84.32H122.279V95H119.779ZM121.039 82.56C120.572 82.56 120.185 82.4133 119.879 82.12C119.585 81.8267 119.439 81.4733 119.439 81.06C119.439 80.6333 119.585 80.28 119.879 80C120.185 79.7067 120.572 79.56 121.039 79.56C121.505 79.56 121.885 79.7 122.179 79.98C122.485 80.2467 122.639 80.5867 122.639 81C122.639 81.44 122.492 81.8133 122.199 82.12C121.905 82.4133 121.519 82.56 121.039 82.56ZM128.86 95.14C127.967 95.14 127.107 95.0267 126.28 94.8C125.467 94.56 124.82 94.2733 124.34 93.94L125.3 92.04C125.78 92.3467 126.353 92.6 127.02 92.8C127.687 93 128.353 93.1 129.02 93.1C129.807 93.1 130.373 92.9933 130.72 92.78C131.08 92.5667 131.26 92.28 131.26 91.92C131.26 91.6267 131.14 91.4067 130.9 91.26C130.66 91.1 130.347 90.98 129.96 90.9C129.573 90.82 129.14 90.7467 128.66 90.68C128.193 90.6133 127.72 90.5267 127.24 90.42C126.773 90.3 126.347 90.1333 125.96 89.92C125.573 89.6933 125.26 89.3933 125.02 89.02C124.78 88.6467 124.66 88.1533 124.66 87.54C124.66 86.86 124.853 86.2733 125.24 85.78C125.627 85.2733 126.167 84.8867 126.86 84.62C127.567 84.34 128.4 84.2 129.36 84.2C130.08 84.2 130.807 84.28 131.54 84.44C132.273 84.6 132.88 84.8267 133.36 85.12L132.4 87.02C131.893 86.7133 131.38 86.5067 130.86 86.4C130.353 86.28 129.847 86.22 129.34 86.22C128.58 86.22 128.013 86.3333 127.64 86.56C127.28 86.7867 127.1 87.0733 127.1 87.42C127.1 87.74 127.22 87.98 127.46 88.14C127.7 88.3 128.013 88.4267 128.4 88.52C128.787 88.6133 129.213 88.6933 129.68 88.76C130.16 88.8133 130.633 88.9 131.1 89.02C131.567 89.14 131.993 89.3067 132.38 89.52C132.78 89.72 133.1 90.0067 133.34 90.38C133.58 90.7533 133.7 91.24 133.7 91.84C133.7 92.5067 133.5 93.0867 133.1 93.58C132.713 94.0733 132.16 94.46 131.44 94.74C130.72 95.0067 129.86 95.14 128.86 95.14ZM140.753 95.14C139.633 95.14 138.633 94.9067 137.753 94.44C136.886 93.96 136.206 93.3067 135.713 92.48C135.22 91.6533 134.973 90.7133 134.973 89.66C134.973 88.5933 135.22 87.6533 135.713 86.84C136.206 86.0133 136.886 85.3667 137.753 84.9C138.633 84.4333 139.633 84.2 140.753 84.2C141.793 84.2 142.706 84.4133 143.493 84.84C144.293 85.2533 144.9 85.8667 145.313 86.68L143.393 87.8C143.073 87.2933 142.68 86.92 142.213 86.68C141.76 86.44 141.266 86.32 140.733 86.32C140.12 86.32 139.566 86.4533 139.073 86.72C138.58 86.9867 138.193 87.3733 137.913 87.88C137.633 88.3733 137.493 88.9667 137.493 89.66C137.493 90.3533 137.633 90.9533 137.913 91.46C138.193 91.9533 138.58 92.3333 139.073 92.6C139.566 92.8667 140.12 93 140.733 93C141.266 93 141.76 92.88 142.213 92.64C142.68 92.4 143.073 92.0267 143.393 91.52L145.313 92.64C144.9 93.44 144.293 94.06 143.493 94.5C142.706 94.9267 141.793 95.14 140.753 95.14ZM152.118 95.14C151.024 95.14 150.051 94.9067 149.198 94.44C148.344 93.96 147.671 93.3067 147.178 92.48C146.684 91.6533 146.438 90.7133 146.438 89.66C146.438 88.5933 146.684 87.6533 147.178 86.84C147.671 86.0133 148.344 85.3667 149.198 84.9C150.051 84.4333 151.024 84.2 152.118 84.2C153.224 84.2 154.204 84.4333 155.058 84.9C155.924 85.3667 156.598 86.0067 157.078 86.82C157.571 87.6333 157.818 88.58 157.818 89.66C157.818 90.7133 157.571 91.6533 157.078 92.48C156.598 93.3067 155.924 93.96 155.058 94.44C154.204 94.9067 153.224 95.14 152.118 95.14ZM152.118 93C152.731 93 153.278 92.8667 153.758 92.6C154.238 92.3333 154.611 91.9467 154.878 91.44C155.158 90.9333 155.298 90.34 155.298 89.66C155.298 88.9667 155.158 88.3733 154.878 87.88C154.611 87.3733 154.238 86.9867 153.758 86.72C153.278 86.4533 152.738 86.32 152.138 86.32C151.524 86.32 150.978 86.4533 150.498 86.72C150.031 86.9867 149.658 87.3733 149.378 87.88C149.098 88.3733 148.958 88.9667 148.958 89.66C148.958 90.34 149.098 90.9333 149.378 91.44C149.658 91.9467 150.031 92.3333 150.498 92.6C150.978 92.8667 151.518 93 152.118 93ZM162.755 95L158.175 84.32H160.775L164.715 93.74H163.435L167.515 84.32H169.915L165.335 95H162.755ZM176.205 95.14C175.018 95.14 173.978 94.9067 173.085 94.44C172.205 93.96 171.518 93.3067 171.025 92.48C170.545 91.6533 170.305 90.7133 170.305 89.66C170.305 88.5933 170.538 87.6533 171.005 86.84C171.485 86.0133 172.138 85.3667 172.965 84.9C173.805 84.4333 174.758 84.2 175.825 84.2C176.865 84.2 177.792 84.4267 178.605 84.88C179.418 85.3333 180.058 85.9733 180.525 86.8C180.992 87.6267 181.225 88.6 181.225 89.72C181.225 89.8267 181.218 89.9467 181.205 90.08C181.205 90.2133 181.198 90.34 181.185 90.46H172.285V88.8H179.865L178.885 89.32C178.898 88.7067 178.772 88.1667 178.505 87.7C178.238 87.2333 177.872 86.8667 177.405 86.6C176.952 86.3333 176.425 86.2 175.825 86.2C175.212 86.2 174.672 86.3333 174.205 86.6C173.752 86.8667 173.392 87.24 173.125 87.72C172.872 88.1867 172.745 88.74 172.745 89.38V89.78C172.745 90.42 172.892 90.9867 173.185 91.48C173.478 91.9733 173.892 92.3533 174.425 92.62C174.958 92.8867 175.572 93.02 176.265 93.02C176.865 93.02 177.405 92.9267 177.885 92.74C178.365 92.5533 178.792 92.26 179.165 91.86L180.505 93.4C180.025 93.96 179.418 94.3933 178.685 94.7C177.965 94.9933 177.138 95.14 176.205 95.14ZM183.626 95V84.32H186.006V87.26L185.726 86.4C186.046 85.68 186.546 85.1333 187.226 84.76C187.92 84.3867 188.78 84.2 189.806 84.2V86.58C189.7 86.5533 189.6 86.54 189.506 86.54C189.413 86.5267 189.32 86.52 189.226 86.52C188.28 86.52 187.526 86.8 186.966 87.36C186.406 87.9067 186.126 88.7267 186.126 89.82V95H183.626Z" fill="#0198B5"/>
<circle cx="150" cy="88.5" r="76.5" transform="rotate(90 150 88.5)" stroke="url(#paint0_linear_929_25)" stroke-width="24"/>
<path d="M6.72 226.096C3.328 226.096 0.832 223.664 0.832 220.4C0.832 217.136 3.328 214.704 6.72 214.704C10.08 214.704 12.592 217.12 12.592 220.4C12.592 223.68 10.08 226.096 6.72 226.096ZM6.72 225.04C9.408 225.04 11.408 223.072 11.408 220.4C11.408 217.728 9.408 215.76 6.72 215.76C4.016 215.76 2 217.728 2 220.4C2 223.072 4.016 225.04 6.72 225.04ZM21.4539 217.584H22.5899V226H21.5019V224.464C20.9099 225.488 19.8219 226.08 18.4779 226.08C16.3339 226.08 14.9259 224.88 14.9259 222.464V217.584H16.0619V222.352C16.0619 224.144 16.9899 225.056 18.5899 225.056C20.3499 225.056 21.4539 223.92 21.4539 222V217.584ZM26.8595 219.232C27.3875 218.112 28.4595 217.52 30.0115 217.52V218.624C29.9155 218.624 29.8195 218.608 29.7395 218.608C27.9795 218.608 26.9075 219.728 26.9075 221.712V226H25.7715V217.584H26.8595V219.232ZM46.4207 224.672L46.8207 225.488C46.3727 225.888 45.7007 226.08 45.0447 226.08C43.4607 226.08 42.5807 225.184 42.5807 223.632V218.544H41.0767V217.584H42.5807V215.744H43.7167V217.584H46.2767V218.544H43.7167V223.568C43.7167 224.56 44.2287 225.104 45.1727 225.104C45.6367 225.104 46.1007 224.96 46.4207 224.672ZM55.9358 221.792C55.9358 221.888 55.9198 222.016 55.9198 222.144H48.8798C49.0078 223.904 50.3518 225.072 52.1918 225.072C53.2158 225.072 54.1278 224.704 54.7678 223.968L55.4078 224.704C54.6558 225.6 53.4878 226.08 52.1598 226.08C49.5358 226.08 47.7438 224.288 47.7438 221.792C47.7438 219.296 49.4878 217.52 51.8558 217.52C54.2238 217.52 55.9358 219.264 55.9358 221.792ZM51.8558 218.496C50.2238 218.496 49.0238 219.648 48.8798 221.296H54.8478C54.7038 219.648 53.5038 218.496 51.8558 218.496ZM60.9577 217.52C63.1337 217.52 64.3657 218.608 64.3657 220.784V226H63.2777V224.688C62.7657 225.552 61.7737 226.08 60.3817 226.08C58.4777 226.08 57.3097 225.088 57.3097 223.632C57.3097 222.336 58.1417 221.248 60.5577 221.248H63.2297V220.736C63.2297 219.296 62.4137 218.512 60.8457 218.512C59.7577 218.512 58.7337 218.896 58.0457 219.504L57.5337 218.656C58.3817 217.936 59.6297 217.52 60.9577 217.52ZM60.5577 225.184C61.8377 225.184 62.7817 224.576 63.2297 223.472V222.096H60.5897C58.9577 222.096 58.4297 222.736 58.4297 223.6C58.4297 224.576 59.2137 225.184 60.5577 225.184ZM77.9472 217.52C79.9952 217.52 81.3392 218.704 81.3392 221.12V226H80.2032V221.232C80.2032 219.456 79.3072 218.544 77.7872 218.544C76.0592 218.544 74.9712 219.664 74.9712 221.584V226H73.8352V221.232C73.8352 219.456 72.9392 218.544 71.4032 218.544C69.6912 218.544 68.5872 219.664 68.5872 221.584V226H67.4512V217.584H68.5392V219.12C69.1312 218.112 70.2192 217.52 71.6272 217.52C73.0192 217.52 74.1072 218.112 74.6192 219.296C75.2272 218.208 76.4272 217.52 77.9472 217.52ZM98.1033 226.08C95.5913 226.08 93.7673 224.304 93.7673 221.792C93.7673 219.28 95.5913 217.52 98.1033 217.52C99.5273 217.52 100.727 218.08 101.399 219.184L100.551 219.76C99.9753 218.912 99.0793 218.512 98.1033 218.512C96.2633 218.512 94.9193 219.824 94.9193 221.792C94.9193 223.776 96.2633 225.072 98.1033 225.072C99.0793 225.072 99.9753 224.688 100.551 223.84L101.399 224.416C100.727 225.504 99.5273 226.08 98.1033 226.08ZM106.93 226.08C104.466 226.08 102.642 224.288 102.642 221.792C102.642 219.296 104.466 217.52 106.93 217.52C109.394 217.52 111.202 219.296 111.202 221.792C111.202 224.288 109.394 226.08 106.93 226.08ZM106.93 225.072C108.722 225.072 110.05 223.76 110.05 221.792C110.05 219.824 108.722 218.512 106.93 218.512C105.138 218.512 103.794 219.824 103.794 221.792C103.794 223.76 105.138 225.072 106.93 225.072ZM113.522 226V214.128H114.658V226H113.522ZM117.818 226V214.128H118.954V226H117.818ZM125.059 217.52C127.235 217.52 128.467 218.608 128.467 220.784V226H127.379V224.688C126.867 225.552 125.875 226.08 124.483 226.08C122.579 226.08 121.411 225.088 121.411 223.632C121.411 222.336 122.243 221.248 124.659 221.248H127.331V220.736C127.331 219.296 126.515 218.512 124.947 218.512C123.859 218.512 122.835 218.896 122.147 219.504L121.635 218.656C122.483 217.936 123.731 217.52 125.059 217.52ZM124.659 225.184C125.939 225.184 126.883 224.576 127.331 223.472V222.096H124.691C123.059 222.096 122.531 222.736 122.531 223.6C122.531 224.576 123.315 225.184 124.659 225.184ZM135.889 217.52C138.289 217.52 140.081 219.248 140.081 221.792C140.081 224.336 138.289 226.08 135.889 226.08C134.497 226.08 133.329 225.472 132.641 224.336V226H131.553V214.128H132.689V219.184C133.393 218.096 134.545 217.52 135.889 217.52ZM135.809 225.072C137.585 225.072 138.945 223.76 138.945 221.792C138.945 219.824 137.585 218.512 135.809 218.512C134.017 218.512 132.673 219.824 132.673 221.792C132.673 223.76 134.017 225.072 135.809 225.072ZM145.837 226.08C143.373 226.08 141.549 224.288 141.549 221.792C141.549 219.296 143.373 217.52 145.837 217.52C148.301 217.52 150.109 219.296 150.109 221.792C150.109 224.288 148.301 226.08 145.837 226.08ZM145.837 225.072C147.629 225.072 148.957 223.76 148.957 221.792C148.957 219.824 147.629 218.512 145.837 218.512C144.045 218.512 142.701 219.824 142.701 221.792C142.701 223.76 144.045 225.072 145.837 225.072ZM153.516 219.232C154.044 218.112 155.116 217.52 156.668 217.52V218.624C156.572 218.624 156.476 218.608 156.396 218.608C154.636 218.608 153.564 219.728 153.564 221.712V226H152.428V217.584H153.516V219.232ZM161.653 217.52C163.829 217.52 165.061 218.608 165.061 220.784V226H163.973V224.688C163.461 225.552 162.469 226.08 161.077 226.08C159.173 226.08 158.005 225.088 158.005 223.632C158.005 222.336 158.837 221.248 161.253 221.248H163.925V220.736C163.925 219.296 163.109 218.512 161.541 218.512C160.453 218.512 159.429 218.896 158.741 219.504L158.229 218.656C159.077 217.936 160.325 217.52 161.653 217.52ZM161.253 225.184C162.533 225.184 163.477 224.576 163.925 223.472V222.096H161.285C159.653 222.096 159.125 222.736 159.125 223.6C159.125 224.576 159.909 225.184 161.253 225.184ZM172.179 224.672L172.579 225.488C172.131 225.888 171.459 226.08 170.803 226.08C169.219 226.08 168.339 225.184 168.339 223.632V218.544H166.835V217.584H168.339V215.744H169.475V217.584H172.035V218.544H169.475V223.568C169.475 224.56 169.987 225.104 170.931 225.104C171.395 225.104 171.859 224.96 172.179 224.672ZM181.694 221.792C181.694 221.888 181.678 222.016 181.678 222.144H174.638C174.766 223.904 176.11 225.072 177.95 225.072C178.974 225.072 179.886 224.704 180.526 223.968L181.166 224.704C180.414 225.6 179.246 226.08 177.918 226.08C175.294 226.08 173.502 224.288 173.502 221.792C173.502 219.296 175.246 217.52 177.614 217.52C179.982 217.52 181.694 219.264 181.694 221.792ZM177.614 218.496C175.982 218.496 174.782 219.648 174.638 221.296H180.606C180.462 219.648 179.262 218.496 177.614 218.496ZM186.262 226.08C184.87 226.08 183.526 225.632 182.838 225.04L183.35 224.144C184.022 224.672 185.158 225.088 186.342 225.088C187.942 225.088 188.598 224.544 188.598 223.712C188.598 221.52 183.142 223.248 183.142 219.92C183.142 218.544 184.326 217.52 186.47 217.52C187.558 217.52 188.742 217.824 189.446 218.304L188.95 219.216C188.214 218.704 187.334 218.496 186.47 218.496C184.95 218.496 184.278 219.088 184.278 219.888C184.278 222.16 189.734 220.448 189.734 223.68C189.734 225.136 188.454 226.08 186.262 226.08ZM205.517 226.08C203.005 226.08 201.181 224.304 201.181 221.792C201.181 219.28 203.005 217.52 205.517 217.52C206.941 217.52 208.141 218.08 208.813 219.184L207.965 219.76C207.389 218.912 206.493 218.512 205.517 218.512C203.677 218.512 202.333 219.824 202.333 221.792C202.333 223.776 203.677 225.072 205.517 225.072C206.493 225.072 207.389 224.688 207.965 223.84L208.813 224.416C208.141 225.504 206.941 226.08 205.517 226.08ZM210.92 226V214.128H212.056V226H210.92ZM218.657 226.08C216.193 226.08 214.369 224.288 214.369 221.792C214.369 219.296 216.193 217.52 218.657 217.52C221.121 217.52 222.929 219.296 222.929 221.792C222.929 224.288 221.121 226.08 218.657 226.08ZM218.657 225.072C220.449 225.072 221.777 223.76 221.777 221.792C221.777 219.824 220.449 218.512 218.657 218.512C216.865 218.512 215.521 219.824 215.521 221.792C215.521 223.76 216.865 225.072 218.657 225.072ZM227.504 226.08C226.112 226.08 224.768 225.632 224.08 225.04L224.592 224.144C225.264 224.672 226.4 225.088 227.584 225.088C229.184 225.088 229.84 224.544 229.84 223.712C229.84 221.52 224.384 223.248 224.384 219.92C224.384 218.544 225.568 217.52 227.712 217.52C228.8 217.52 229.984 217.824 230.688 218.304L230.192 219.216C229.456 218.704 228.576 218.496 227.712 218.496C226.192 218.496 225.52 219.088 225.52 219.888C225.52 222.16 230.976 220.448 230.976 223.68C230.976 225.136 229.696 226.08 227.504 226.08ZM240.42 221.792C240.42 221.888 240.404 222.016 240.404 222.144H233.364C233.492 223.904 234.836 225.072 236.676 225.072C237.7 225.072 238.612 224.704 239.252 223.968L239.892 224.704C239.14 225.6 237.972 226.08 236.644 226.08C234.02 226.08 232.228 224.288 232.228 221.792C232.228 219.296 233.972 217.52 236.34 217.52C238.708 217.52 240.42 219.264 240.42 221.792ZM236.34 218.496C234.708 218.496 233.508 219.648 233.364 221.296H239.332C239.188 219.648 237.988 218.496 236.34 218.496ZM242.732 226V214.128H243.868V226H242.732ZM252.981 217.584H254.101L249.893 227.008C249.189 228.656 248.293 229.184 247.093 229.184C246.309 229.184 245.557 228.928 245.045 228.416L245.573 227.568C245.989 227.984 246.501 228.208 247.109 228.208C247.861 228.208 248.373 227.856 248.853 226.8L249.221 225.984L245.461 217.584H246.645L249.813 224.736L252.981 217.584ZM277.209 217.584H278.249L275.065 226H273.993L271.337 219.104L268.681 226H267.609L264.441 217.584H265.529L268.169 224.736L270.873 217.584H271.849L274.537 224.736L277.209 217.584ZM280.535 215.744C280.071 215.744 279.703 215.376 279.703 214.928C279.703 214.496 280.071 214.128 280.535 214.128C280.999 214.128 281.367 214.48 281.367 214.912C281.367 215.376 281.015 215.744 280.535 215.744ZM279.959 226V217.584H281.095V226H279.959ZM288.288 224.672L288.688 225.488C288.24 225.888 287.568 226.08 286.912 226.08C285.328 226.08 284.448 225.184 284.448 223.632V218.544H282.944V217.584H284.448V215.744H285.584V217.584H288.144V218.544H285.584V223.568C285.584 224.56 286.096 225.104 287.04 225.104C287.504 225.104 287.968 224.96 288.288 224.672ZM295.044 217.52C297.092 217.52 298.5 218.704 298.5 221.12V226H297.364V221.232C297.364 219.456 296.436 218.544 294.836 218.544C293.028 218.544 291.892 219.664 291.892 221.584V226H290.756V214.128H291.892V219.056C292.516 218.08 293.62 217.52 295.044 217.52ZM7.536 239.584H8.656L4.448 249.008C3.744 250.656 2.848 251.184 1.648 251.184C0.864 251.184 0.112 250.928 -0.4 250.416L0.128 249.568C0.544 249.984 1.056 250.208 1.664 250.208C2.416 250.208 2.928 249.856 3.408 248.8L3.776 247.984L0.016 239.584H1.2L4.368 246.736L7.536 239.584ZM13.4615 248.08C10.9975 248.08 9.1735 246.288 9.1735 243.792C9.1735 241.296 10.9975 239.52 13.4615 239.52C15.9255 239.52 17.7335 241.296 17.7335 243.792C17.7335 246.288 15.9255 248.08 13.4615 248.08ZM13.4615 247.072C15.2535 247.072 16.5815 245.76 16.5815 243.792C16.5815 241.824 15.2535 240.512 13.4615 240.512C11.6695 240.512 10.3255 241.824 10.3255 243.792C10.3255 245.76 11.6695 247.072 13.4615 247.072ZM26.5008 239.584H27.6368V248H26.5487V246.464C25.9568 247.488 24.8688 248.08 23.5248 248.08C21.3808 248.08 19.9728 246.88 19.9728 244.464V239.584H21.1088V244.352C21.1088 246.144 22.0368 247.056 23.6368 247.056C25.3968 247.056 26.5008 245.92 26.5008 244V239.584ZM30.9464 246.336C31.4424 246.336 31.7944 246.72 31.7944 247.2C31.7944 247.472 31.7304 247.68 31.5704 248.128L30.8984 250.336H30.1304L30.6744 248.016C30.3384 247.92 30.0984 247.616 30.0984 247.2C30.0984 246.704 30.4664 246.336 30.9464 246.336ZM44.4249 239.52C46.6009 239.52 47.8329 240.608 47.8329 242.784V248H46.7449V246.688C46.2329 247.552 45.2409 248.08 43.8489 248.08C41.9449 248.08 40.7769 247.088 40.7769 245.632C40.7769 244.336 41.6089 243.248 44.0249 243.248H46.6969V242.736C46.6969 241.296 45.8809 240.512 44.3129 240.512C43.2249 240.512 42.2009 240.896 41.5129 241.504L41.0009 240.656C41.8489 239.936 43.0969 239.52 44.4249 239.52ZM44.0249 247.184C45.3049 247.184 46.2489 246.576 46.6969 245.472V244.096H44.0569C42.4249 244.096 41.8969 244.736 41.8969 245.6C41.8969 246.576 42.6809 247.184 44.0249 247.184ZM54.4376 248.08C51.9256 248.08 50.1016 246.304 50.1016 243.792C50.1016 241.28 51.9256 239.52 54.4376 239.52C55.8616 239.52 57.0616 240.08 57.7336 241.184L56.8856 241.76C56.3096 240.912 55.4136 240.512 54.4376 240.512C52.5976 240.512 51.2536 241.824 51.2536 243.792C51.2536 245.776 52.5976 247.072 54.4376 247.072C55.4136 247.072 56.3096 246.688 56.8856 245.84L57.7336 246.416C57.0616 247.504 55.8616 248.08 54.4376 248.08ZM64.091 246.672L64.491 247.488C64.043 247.888 63.371 248.08 62.715 248.08C61.131 248.08 60.251 247.184 60.251 245.632V240.544H58.747V239.584H60.251V237.744H61.387V239.584H63.947V240.544H61.387V245.568C61.387 246.56 61.899 247.104 62.843 247.104C63.307 247.104 63.771 246.96 64.091 246.672ZM67.135 237.744C66.671 237.744 66.303 237.376 66.303 236.928C66.303 236.496 66.671 236.128 67.135 236.128C67.599 236.128 67.967 236.48 67.967 236.912C67.967 237.376 67.615 237.744 67.135 237.744ZM66.559 248V239.584H67.695V248H66.559ZM76.8079 239.584H77.9279L74.1839 248H73.0159L69.2879 239.584H70.4719L73.6239 246.752L76.8079 239.584ZM86.6374 243.792C86.6374 243.888 86.6214 244.016 86.6214 244.144H79.5814C79.7094 245.904 81.0534 247.072 82.8934 247.072C83.9174 247.072 84.8294 246.704 85.4694 245.968L86.1094 246.704C85.3574 247.6 84.1894 248.08 82.8614 248.08C80.2374 248.08 78.4454 246.288 78.4454 243.792C78.4454 241.296 80.1894 239.52 82.5574 239.52C84.9254 239.52 86.6374 241.264 86.6374 243.792ZM82.5574 240.496C80.9254 240.496 79.7254 241.648 79.5814 243.296H85.5494C85.4054 241.648 84.2054 240.496 82.5574 240.496ZM88.9496 248V236.128H90.0856V248H88.9496ZM99.1985 239.584H100.318L96.1105 249.008C95.4065 250.656 94.5105 251.184 93.3105 251.184C92.5265 251.184 91.7745 250.928 91.2625 250.416L91.7905 249.568C92.2065 249.984 92.7185 250.208 93.3265 250.208C94.0785 250.208 94.5905 249.856 95.0705 248.8L95.4385 247.984L91.6785 239.584H92.8625L96.0305 246.736L99.1985 239.584ZM108.758 248V236.128H111.254V248H108.758ZM113.571 248V239.392H116.067V248H113.571ZM114.819 238.192C114.36 238.192 113.987 238.059 113.699 237.792C113.411 237.525 113.267 237.195 113.267 236.8C113.267 236.405 113.411 236.075 113.699 235.808C113.987 235.541 114.36 235.408 114.819 235.408C115.277 235.408 115.651 235.536 115.939 235.792C116.227 236.037 116.371 236.357 116.371 236.752C116.371 237.168 116.227 237.515 115.939 237.792C115.661 238.059 115.288 238.192 114.819 238.192ZM121.279 248.128C120.543 248.128 119.834 248.043 119.151 247.872C118.479 247.691 117.946 247.467 117.551 247.2L118.383 245.408C118.778 245.653 119.242 245.856 119.775 246.016C120.319 246.165 120.853 246.24 121.375 246.24C121.951 246.24 122.357 246.171 122.591 246.032C122.837 245.893 122.959 245.701 122.959 245.456C122.959 245.253 122.863 245.104 122.671 245.008C122.49 244.901 122.245 244.821 121.935 244.768C121.626 244.715 121.285 244.661 120.911 244.608C120.549 244.555 120.181 244.485 119.807 244.4C119.434 244.304 119.093 244.165 118.783 243.984C118.474 243.803 118.223 243.557 118.031 243.248C117.85 242.939 117.759 242.539 117.759 242.048C117.759 241.504 117.914 241.024 118.223 240.608C118.543 240.192 119.002 239.867 119.599 239.632C120.197 239.387 120.911 239.264 121.743 239.264C122.33 239.264 122.927 239.328 123.535 239.456C124.143 239.584 124.65 239.771 125.055 240.016L124.223 241.792C123.807 241.547 123.386 241.381 122.959 241.296C122.543 241.2 122.138 241.152 121.743 241.152C121.189 241.152 120.783 241.227 120.527 241.376C120.271 241.525 120.143 241.717 120.143 241.952C120.143 242.165 120.234 242.325 120.415 242.432C120.607 242.539 120.858 242.624 121.167 242.688C121.477 242.752 121.813 242.811 122.175 242.864C122.549 242.907 122.922 242.976 123.295 243.072C123.669 243.168 124.005 243.307 124.303 243.488C124.613 243.659 124.863 243.899 125.055 244.208C125.247 244.507 125.343 244.901 125.343 245.392C125.343 245.925 125.183 246.4 124.863 246.816C124.543 247.221 124.079 247.541 123.471 247.776C122.874 248.011 122.143 248.128 121.279 248.128ZM130.403 248.128C129.39 248.128 128.601 247.872 128.035 247.36C127.47 246.837 127.187 246.064 127.187 245.04V237.488H129.683V245.008C129.683 245.371 129.779 245.653 129.971 245.856C130.163 246.048 130.425 246.144 130.755 246.144C131.15 246.144 131.486 246.037 131.763 245.824L132.435 247.584C132.179 247.765 131.87 247.904 131.507 248C131.155 248.085 130.787 248.128 130.403 248.128ZM125.859 241.504V239.584H131.827V241.504H125.859ZM137.843 248.128C136.861 248.128 135.997 247.936 135.251 247.552C134.515 247.168 133.944 246.645 133.539 245.984C133.133 245.312 132.931 244.549 132.931 243.696C132.931 242.832 133.128 242.069 133.523 241.408C133.928 240.736 134.477 240.213 135.171 239.84C135.864 239.456 136.648 239.264 137.523 239.264C138.365 239.264 139.123 239.445 139.795 239.808C140.477 240.16 141.016 240.672 141.411 241.344C141.805 242.005 142.003 242.8 142.003 243.728C142.003 243.824 141.997 243.936 141.987 244.064C141.976 244.181 141.965 244.293 141.955 244.4H134.963V242.944H140.643L139.683 243.376C139.683 242.928 139.592 242.539 139.411 242.208C139.229 241.877 138.979 241.621 138.659 241.44C138.339 241.248 137.965 241.152 137.539 241.152C137.112 241.152 136.733 241.248 136.403 241.44C136.083 241.621 135.832 241.883 135.651 242.224C135.469 242.555 135.379 242.949 135.379 243.408V243.792C135.379 244.261 135.48 244.677 135.683 245.04C135.896 245.392 136.189 245.664 136.563 245.856C136.947 246.037 137.395 246.128 137.907 246.128C138.365 246.128 138.765 246.059 139.107 245.92C139.459 245.781 139.779 245.573 140.067 245.296L141.395 246.736C141 247.184 140.504 247.531 139.907 247.776C139.309 248.011 138.621 248.128 137.843 248.128ZM148.896 239.264C149.579 239.264 150.187 239.403 150.72 239.68C151.264 239.947 151.691 240.363 152 240.928C152.31 241.483 152.464 242.197 152.464 243.072V248H149.968V243.456C149.968 242.763 149.814 242.251 149.504 241.92C149.206 241.589 148.779 241.424 148.224 241.424C147.83 241.424 147.472 241.509 147.152 241.68C146.843 241.84 146.598 242.091 146.416 242.432C146.246 242.773 146.16 243.211 146.16 243.744V248H143.664V239.392H146.048V241.776L145.6 241.056C145.91 240.48 146.352 240.037 146.928 239.728C147.504 239.419 148.16 239.264 148.896 239.264ZM154.727 248V239.392H157.223V248H154.727ZM155.975 238.192C155.516 238.192 155.143 238.059 154.855 237.792C154.567 237.525 154.423 237.195 154.423 236.8C154.423 236.405 154.567 236.075 154.855 235.808C155.143 235.541 155.516 235.408 155.975 235.408C156.434 235.408 156.807 235.536 157.095 235.792C157.383 236.037 157.527 236.357 157.527 236.752C157.527 237.168 157.383 237.515 157.095 237.792C156.818 238.059 156.444 238.192 155.975 238.192ZM164.771 239.264C165.454 239.264 166.062 239.403 166.595 239.68C167.139 239.947 167.566 240.363 167.875 240.928C168.185 241.483 168.339 242.197 168.339 243.072V248H165.843V243.456C165.843 242.763 165.689 242.251 165.379 241.92C165.081 241.589 164.654 241.424 164.099 241.424C163.705 241.424 163.347 241.509 163.027 241.68C162.718 241.84 162.473 242.091 162.291 242.432C162.121 242.773 162.035 243.211 162.035 243.744V248H159.539V239.392H161.923V241.776L161.475 241.056C161.785 240.48 162.227 240.037 162.803 239.728C163.379 239.419 164.035 239.264 164.771 239.264ZM174.712 251.232C173.902 251.232 173.118 251.131 172.36 250.928C171.614 250.736 170.99 250.443 170.488 250.048L171.48 248.256C171.843 248.555 172.302 248.789 172.856 248.96C173.422 249.141 173.976 249.232 174.52 249.232C175.406 249.232 176.046 249.035 176.44 248.64C176.846 248.245 177.048 247.659 177.048 246.88V245.584L177.208 243.424L177.176 241.248V239.392H179.544V246.56C179.544 248.16 179.128 249.339 178.296 250.096C177.464 250.853 176.27 251.232 174.712 251.232ZM174.328 247.584C173.528 247.584 172.803 247.413 172.152 247.072C171.512 246.72 170.995 246.235 170.6 245.616C170.216 244.987 170.024 244.256 170.024 243.424C170.024 242.581 170.216 241.851 170.6 241.232C170.995 240.603 171.512 240.117 172.152 239.776C172.803 239.435 173.528 239.264 174.328 239.264C175.054 239.264 175.694 239.413 176.248 239.712C176.803 240 177.235 240.453 177.544 241.072C177.854 241.68 178.008 242.464 178.008 243.424C178.008 244.373 177.854 245.157 177.544 245.776C177.235 246.384 176.803 246.837 176.248 247.136C175.694 247.435 175.054 247.584 174.328 247.584ZM174.824 245.536C175.262 245.536 175.651 245.451 175.992 245.28C176.334 245.099 176.6 244.848 176.792 244.528C176.984 244.208 177.08 243.84 177.08 243.424C177.08 242.997 176.984 242.629 176.792 242.32C176.6 242 176.334 241.755 175.992 241.584C175.651 241.403 175.262 241.312 174.824 241.312C174.387 241.312 173.998 241.403 173.656 241.584C173.315 241.755 173.043 242 172.84 242.32C172.648 242.629 172.552 242.997 172.552 243.424C172.552 243.84 172.648 244.208 172.84 244.528C173.043 244.848 173.315 245.099 173.656 245.28C173.998 245.451 174.387 245.536 174.824 245.536ZM193.003 248.128C191.99 248.128 191.201 247.872 190.635 247.36C190.07 246.837 189.787 246.064 189.787 245.04V237.488H192.283V245.008C192.283 245.371 192.379 245.653 192.571 245.856C192.763 246.048 193.025 246.144 193.355 246.144C193.75 246.144 194.086 246.037 194.363 245.824L195.035 247.584C194.779 247.765 194.47 247.904 194.107 248C193.755 248.085 193.387 248.128 193.003 248.128ZM188.459 241.504V239.584H194.427V241.504H188.459ZM200.267 248.128C199.349 248.128 198.533 247.936 197.819 247.552C197.115 247.168 196.555 246.645 196.139 245.984C195.733 245.312 195.531 244.549 195.531 243.696C195.531 242.832 195.733 242.069 196.139 241.408C196.555 240.736 197.115 240.213 197.819 239.84C198.533 239.456 199.349 239.264 200.267 239.264C201.173 239.264 201.984 239.456 202.699 239.84C203.413 240.213 203.973 240.731 204.379 241.392C204.784 242.053 204.987 242.821 204.987 243.696C204.987 244.549 204.784 245.312 204.379 245.984C203.973 246.645 203.413 247.168 202.699 247.552C201.984 247.936 201.173 248.128 200.267 248.128ZM200.267 246.08C200.683 246.08 201.056 245.984 201.387 245.792C201.717 245.6 201.979 245.328 202.171 244.976C202.363 244.613 202.459 244.187 202.459 243.696C202.459 243.195 202.363 242.768 202.171 242.416C201.979 242.064 201.717 241.792 201.387 241.6C201.056 241.408 200.683 241.312 200.267 241.312C199.851 241.312 199.477 241.408 199.147 241.6C198.816 241.792 198.549 242.064 198.347 242.416C198.155 242.768 198.059 243.195 198.059 243.696C198.059 244.187 198.155 244.613 198.347 244.976C198.549 245.328 198.816 245.6 199.147 245.792C199.477 245.984 199.851 246.08 200.267 246.08ZM218.319 251.232C217.508 251.232 216.724 251.131 215.967 250.928C215.22 250.736 214.596 250.443 214.095 250.048L215.087 248.256C215.449 248.555 215.908 248.789 216.463 248.96C217.028 249.141 217.583 249.232 218.127 249.232C219.012 249.232 219.652 249.035 220.047 248.64C220.452 248.245 220.655 247.659 220.655 246.88V245.584L220.815 243.424L220.783 241.248V239.392H223.151V246.56C223.151 248.16 222.735 249.339 221.903 250.096C221.071 250.853 219.876 251.232 218.319 251.232ZM217.935 247.584C217.135 247.584 216.409 247.413 215.759 247.072C215.119 246.72 214.601 246.235 214.207 245.616C213.823 244.987 213.631 244.256 213.631 243.424C213.631 242.581 213.823 241.851 214.207 241.232C214.601 240.603 215.119 240.117 215.759 239.776C216.409 239.435 217.135 239.264 217.935 239.264C218.66 239.264 219.3 239.413 219.855 239.712C220.409 240 220.841 240.453 221.151 241.072C221.46 241.68 221.615 242.464 221.615 243.424C221.615 244.373 221.46 245.157 221.151 245.776C220.841 246.384 220.409 246.837 219.855 247.136C219.3 247.435 218.66 247.584 217.935 247.584ZM218.431 245.536C218.868 245.536 219.257 245.451 219.599 245.28C219.94 245.099 220.207 244.848 220.399 244.528C220.591 244.208 220.687 243.84 220.687 243.424C220.687 242.997 220.591 242.629 220.399 242.32C220.207 242 219.94 241.755 219.599 241.584C219.257 241.403 218.868 241.312 218.431 241.312C217.993 241.312 217.604 241.403 217.263 241.584C216.921 241.755 216.649 242 216.447 242.32C216.255 242.629 216.159 242.997 216.159 243.424C216.159 243.84 216.255 244.208 216.447 244.528C216.649 244.848 216.921 245.099 217.263 245.28C217.604 245.451 217.993 245.536 218.431 245.536ZM230.754 248V246.32L230.594 245.952V242.944C230.594 242.411 230.429 241.995 230.098 241.696C229.778 241.397 229.282 241.248 228.61 241.248C228.151 241.248 227.698 241.323 227.25 241.472C226.813 241.611 226.439 241.803 226.13 242.048L225.234 240.304C225.703 239.973 226.269 239.717 226.93 239.536C227.591 239.355 228.263 239.264 228.946 239.264C230.258 239.264 231.277 239.573 232.002 240.192C232.727 240.811 233.09 241.776 233.09 243.088V248H230.754ZM228.13 248.128C227.458 248.128 226.882 248.016 226.402 247.792C225.922 247.557 225.554 247.243 225.298 246.848C225.042 246.453 224.914 246.011 224.914 245.52C224.914 245.008 225.037 244.56 225.282 244.176C225.538 243.792 225.938 243.493 226.482 243.28C227.026 243.056 227.735 242.944 228.61 242.944H230.898V244.4H228.882C228.295 244.4 227.89 244.496 227.666 244.688C227.453 244.88 227.346 245.12 227.346 245.408C227.346 245.728 227.469 245.984 227.714 246.176C227.97 246.357 228.317 246.448 228.754 246.448C229.17 246.448 229.543 246.352 229.874 246.16C230.205 245.957 230.445 245.664 230.594 245.28L230.978 246.432C230.797 246.987 230.466 247.408 229.986 247.696C229.506 247.984 228.887 248.128 228.13 248.128ZM235.349 248V239.392H237.845V248H235.349ZM236.597 238.192C236.138 238.192 235.765 238.059 235.477 237.792C235.189 237.525 235.045 237.195 235.045 236.8C235.045 236.405 235.189 236.075 235.477 235.808C235.765 235.541 236.138 235.408 236.597 235.408C237.056 235.408 237.429 235.536 237.717 235.792C238.005 236.037 238.149 236.357 238.149 236.752C238.149 237.168 238.005 237.515 237.717 237.792C237.44 238.059 237.066 238.192 236.597 238.192ZM245.393 239.264C246.076 239.264 246.684 239.403 247.217 239.68C247.761 239.947 248.188 240.363 248.497 240.928C248.807 241.483 248.961 242.197 248.961 243.072V248H246.465V243.456C246.465 242.763 246.311 242.251 246.001 241.92C245.703 241.589 245.276 241.424 244.721 241.424C244.327 241.424 243.969 241.509 243.649 241.68C243.34 241.84 243.095 242.091 242.913 242.432C242.743 242.773 242.657 243.211 242.657 243.744V248H240.161V239.392H242.545V241.776L242.097 241.056C242.407 240.48 242.849 240.037 243.425 239.728C244.001 239.419 244.657 239.264 245.393 239.264ZM262.536 248.128C261.725 248.128 260.994 247.947 260.344 247.584C259.693 247.211 259.176 246.693 258.792 246.032C258.418 245.371 258.232 244.592 258.232 243.696C258.232 242.789 258.418 242.005 258.792 241.344C259.176 240.683 259.693 240.171 260.344 239.808C260.994 239.445 261.725 239.264 262.536 239.264C263.261 239.264 263.896 239.424 264.44 239.744C264.984 240.064 265.405 240.549 265.704 241.2C266.002 241.851 266.152 242.683 266.152 243.696C266.152 244.699 266.008 245.531 265.72 246.192C265.432 246.843 265.016 247.328 264.472 247.648C263.938 247.968 263.293 248.128 262.536 248.128ZM262.968 246.08C263.373 246.08 263.741 245.984 264.072 245.792C264.402 245.6 264.664 245.328 264.856 244.976C265.058 244.613 265.16 244.187 265.16 243.696C265.16 243.195 265.058 242.768 264.856 242.416C264.664 242.064 264.402 241.792 264.072 241.6C263.741 241.408 263.373 241.312 262.968 241.312C262.552 241.312 262.178 241.408 261.848 241.6C261.517 241.792 261.25 242.064 261.048 242.416C260.856 242.768 260.76 243.195 260.76 243.696C260.76 244.187 260.856 244.613 261.048 244.976C261.25 245.328 261.517 245.6 261.848 245.792C262.178 245.984 262.552 246.08 262.968 246.08ZM265.224 248V246.24L265.272 243.68L265.112 241.136V236.128H267.608V248H265.224ZM274.19 248.128C273.208 248.128 272.344 247.936 271.598 247.552C270.862 247.168 270.291 246.645 269.886 245.984C269.48 245.312 269.278 244.549 269.278 243.696C269.278 242.832 269.475 242.069 269.87 241.408C270.275 240.736 270.824 240.213 271.518 239.84C272.211 239.456 272.995 239.264 273.87 239.264C274.712 239.264 275.47 239.445 276.142 239.808C276.824 240.16 277.363 240.672 277.758 241.344C278.152 242.005 278.35 242.8 278.35 243.728C278.35 243.824 278.344 243.936 278.334 244.064C278.323 244.181 278.312 244.293 278.302 244.4H271.31V242.944H276.99L276.03 243.376C276.03 242.928 275.939 242.539 275.758 242.208C275.576 241.877 275.326 241.621 275.006 241.44C274.686 241.248 274.312 241.152 273.886 241.152C273.459 241.152 273.08 241.248 272.75 241.44C272.43 241.621 272.179 241.883 271.998 242.224C271.816 242.555 271.726 242.949 271.726 243.408V243.792C271.726 244.261 271.827 244.677 272.03 245.04C272.243 245.392 272.536 245.664 272.91 245.856C273.294 246.037 273.742 246.128 274.254 246.128C274.712 246.128 275.112 246.059 275.454 245.92C275.806 245.781 276.126 245.573 276.414 245.296L277.742 246.736C277.347 247.184 276.851 247.531 276.254 247.776C275.656 248.011 274.968 248.128 274.19 248.128ZM284.283 248.128C283.302 248.128 282.438 247.936 281.691 247.552C280.955 247.168 280.385 246.645 279.979 245.984C279.574 245.312 279.371 244.549 279.371 243.696C279.371 242.832 279.569 242.069 279.963 241.408C280.369 240.736 280.918 240.213 281.611 239.84C282.305 239.456 283.089 239.264 283.963 239.264C284.806 239.264 285.563 239.445 286.235 239.808C286.918 240.16 287.457 240.672 287.851 241.344C288.246 242.005 288.443 242.8 288.443 243.728C288.443 243.824 288.438 243.936 288.427 244.064C288.417 244.181 288.406 244.293 288.395 244.4H281.403V242.944H287.083L286.123 243.376C286.123 242.928 286.033 242.539 285.851 242.208C285.67 241.877 285.419 241.621 285.099 241.44C284.779 241.248 284.406 241.152 283.979 241.152C283.553 241.152 283.174 241.248 282.843 241.44C282.523 241.621 282.273 241.883 282.091 242.224C281.91 242.555 281.819 242.949 281.819 243.408V243.792C281.819 244.261 281.921 244.677 282.123 245.04C282.337 245.392 282.63 245.664 283.003 245.856C283.387 246.037 283.835 246.128 284.347 246.128C284.806 246.128 285.206 246.059 285.547 245.92C285.899 245.781 286.219 245.573 286.507 245.296L287.835 246.736C287.441 247.184 286.945 247.531 286.347 247.776C285.75 248.011 285.062 248.128 284.283 248.128ZM295.193 248.128C294.468 248.128 293.833 247.968 293.289 247.648C292.745 247.328 292.318 246.843 292.009 246.192C291.71 245.531 291.561 244.699 291.561 243.696C291.561 242.683 291.705 241.851 291.993 241.2C292.281 240.549 292.697 240.064 293.241 239.744C293.785 239.424 294.436 239.264 295.193 239.264C296.004 239.264 296.729 239.451 297.369 239.824C298.02 240.187 298.532 240.699 298.905 241.36C299.289 242.021 299.481 242.8 299.481 243.696C299.481 244.603 299.289 245.387 298.905 246.048C298.532 246.709 298.02 247.221 297.369 247.584C296.729 247.947 296.004 248.128 295.193 248.128ZM290.105 251.104V239.392H292.489V241.152L292.441 243.712L292.601 246.256V251.104H290.105ZM294.761 246.08C295.177 246.08 295.545 245.984 295.865 245.792C296.196 245.6 296.457 245.328 296.649 244.976C296.852 244.613 296.953 244.187 296.953 243.696C296.953 243.195 296.852 242.768 296.649 242.416C296.457 242.064 296.196 241.792 295.865 241.6C295.545 241.408 295.177 241.312 294.761 241.312C294.345 241.312 293.972 241.408 293.641 241.6C293.31 241.792 293.049 242.064 292.857 242.416C292.665 242.768 292.569 243.195 292.569 243.696C292.569 244.187 292.665 244.613 292.857 244.976C293.049 245.328 293.31 245.6 293.641 245.792C293.972 245.984 294.345 246.08 294.761 246.08ZM1.152 270V261.392H3.648V270H1.152ZM2.4 260.192C1.94133 260.192 1.568 260.059 1.28 259.792C0.992 259.525 0.848 259.195 0.848 258.8C0.848 258.405 0.992 258.075 1.28 257.808C1.568 257.541 1.94133 257.408 2.4 257.408C2.85867 257.408 3.232 257.536 3.52 257.792C3.808 258.037 3.952 258.357 3.952 258.752C3.952 259.168 3.808 259.515 3.52 259.792C3.24267 260.059 2.86933 260.192 2.4 260.192ZM11.1965 261.264C11.8792 261.264 12.4872 261.403 13.0205 261.68C13.5645 261.947 13.9912 262.363 14.3005 262.928C14.6098 263.483 14.7645 264.197 14.7645 265.072V270H12.2685V265.456C12.2685 264.763 12.1138 264.251 11.8045 263.92C11.5058 263.589 11.0792 263.424 10.5245 263.424C10.1298 263.424 9.7725 263.509 9.4525 263.68C9.14317 263.84 8.89783 264.091 8.7165 264.432C8.54583 264.773 8.4605 265.211 8.4605 265.744V270H5.9645V261.392H8.3485V263.776L7.9005 263.056C8.20983 262.48 8.6525 262.037 9.2285 261.728C9.8045 261.419 10.4605 261.264 11.1965 261.264ZM19.923 270.128C19.187 270.128 18.4777 270.043 17.795 269.872C17.123 269.691 16.5897 269.467 16.195 269.2L17.027 267.408C17.4217 267.653 17.8857 267.856 18.419 268.016C18.963 268.165 19.4963 268.24 20.019 268.24C20.595 268.24 21.0003 268.171 21.235 268.032C21.4803 267.893 21.603 267.701 21.603 267.456C21.603 267.253 21.507 267.104 21.315 267.008C21.1337 266.901 20.8883 266.821 20.579 266.768C20.2697 266.715 19.9283 266.661 19.555 266.608C19.1923 266.555 18.8243 266.485 18.451 266.4C18.0777 266.304 17.7363 266.165 17.427 265.984C17.1177 265.803 16.867 265.557 16.675 265.248C16.4937 264.939 16.403 264.539 16.403 264.048C16.403 263.504 16.5577 263.024 16.867 262.608C17.187 262.192 17.6457 261.867 18.243 261.632C18.8403 261.387 19.555 261.264 20.387 261.264C20.9737 261.264 21.571 261.328 22.179 261.456C22.787 261.584 23.2937 261.771 23.699 262.016L22.867 263.792C22.451 263.547 22.0297 263.381 21.603 263.296C21.187 263.2 20.7817 263.152 20.387 263.152C19.8323 263.152 19.427 263.227 19.171 263.376C18.915 263.525 18.787 263.717 18.787 263.952C18.787 264.165 18.8777 264.325 19.059 264.432C19.251 264.539 19.5017 264.624 19.811 264.688C20.1203 264.752 20.4563 264.811 20.819 264.864C21.1923 264.907 21.5657 264.976 21.939 265.072C22.3123 265.168 22.6483 265.307 22.947 265.488C23.2563 265.659 23.507 265.899 23.699 266.208C23.891 266.507 23.987 266.901 23.987 267.392C23.987 267.925 23.827 268.4 23.507 268.816C23.187 269.221 22.723 269.541 22.115 269.776C21.5177 270.011 20.787 270.128 19.923 270.128ZM25.527 270V261.392H28.023V270H25.527ZM26.775 260.192C26.3163 260.192 25.943 260.059 25.655 259.792C25.367 259.525 25.223 259.195 25.223 258.8C25.223 258.405 25.367 258.075 25.655 257.808C25.943 257.541 26.3163 257.408 26.775 257.408C27.2337 257.408 27.607 257.536 27.895 257.792C28.183 258.037 28.327 258.357 28.327 258.752C28.327 259.168 28.183 259.515 27.895 259.792C27.6177 260.059 27.2443 260.192 26.775 260.192ZM34.3875 273.232C33.5768 273.232 32.7928 273.131 32.0355 272.928C31.2888 272.736 30.6648 272.443 30.1635 272.048L31.1555 270.256C31.5182 270.555 31.9768 270.789 32.5315 270.96C33.0968 271.141 33.6515 271.232 34.1955 271.232C35.0808 271.232 35.7208 271.035 36.1155 270.64C36.5208 270.245 36.7235 269.659 36.7235 268.88V267.584L36.8835 265.424L36.8515 263.248V261.392H39.2195V268.56C39.2195 270.16 38.8035 271.339 37.9715 272.096C37.1395 272.853 35.9448 273.232 34.3875 273.232ZM34.0035 269.584C33.2035 269.584 32.4782 269.413 31.8275 269.072C31.1875 268.72 30.6702 268.235 30.2755 267.616C29.8915 266.987 29.6995 266.256 29.6995 265.424C29.6995 264.581 29.8915 263.851 30.2755 263.232C30.6702 262.603 31.1875 262.117 31.8275 261.776C32.4782 261.435 33.2035 261.264 34.0035 261.264C34.7288 261.264 35.3688 261.413 35.9235 261.712C36.4782 262 36.9102 262.453 37.2195 263.072C37.5288 263.68 37.6835 264.464 37.6835 265.424C37.6835 266.373 37.5288 267.157 37.2195 267.776C36.9102 268.384 36.4782 268.837 35.9235 269.136C35.3688 269.435 34.7288 269.584 34.0035 269.584ZM34.4995 267.536C34.9368 267.536 35.3262 267.451 35.6675 267.28C36.0088 267.099 36.2755 266.848 36.4675 266.528C36.6595 266.208 36.7555 265.84 36.7555 265.424C36.7555 264.997 36.6595 264.629 36.4675 264.32C36.2755 264 36.0088 263.755 35.6675 263.584C35.3262 263.403 34.9368 263.312 34.4995 263.312C34.0622 263.312 33.6728 263.403 33.3315 263.584C32.9902 263.755 32.7182 264 32.5155 264.32C32.3235 264.629 32.2275 264.997 32.2275 265.424C32.2275 265.84 32.3235 266.208 32.5155 266.528C32.7182 266.848 32.9902 267.099 33.3315 267.28C33.6728 267.451 34.0622 267.536 34.4995 267.536ZM46.7746 261.264C47.4573 261.264 48.0653 261.403 48.5986 261.68C49.1426 261.947 49.5693 262.363 49.8786 262.928C50.188 263.483 50.3426 264.197 50.3426 265.072V270H47.8466V265.456C47.8466 264.763 47.692 264.251 47.3826 263.92C47.084 263.589 46.6573 263.424 46.1026 263.424C45.708 263.424 45.3506 263.509 45.0306 263.68C44.7213 263.84 44.476 264.091 44.2946 264.432C44.124 264.773 44.0386 265.211 44.0386 265.744V270H41.5426V258.128H44.0386V263.776L43.4786 263.056C43.788 262.48 44.2306 262.037 44.8066 261.728C45.3826 261.419 46.0386 261.264 46.7746 261.264ZM56.1251 270.128C55.1118 270.128 54.3225 269.872 53.7571 269.36C53.1918 268.837 52.9091 268.064 52.9091 267.04V259.488H55.4051V267.008C55.4051 267.371 55.5011 267.653 55.6931 267.856C55.8851 268.048 56.1465 268.144 56.4771 268.144C56.8718 268.144 57.2078 268.037 57.4851 267.824L58.1571 269.584C57.9011 269.765 57.5918 269.904 57.2291 270C56.8771 270.085 56.5091 270.128 56.1251 270.128ZM51.5811 263.504V261.584H57.5491V263.504H51.5811ZM62.4543 270.128C61.7183 270.128 61.0089 270.043 60.3263 269.872C59.6543 269.691 59.1209 269.467 58.7263 269.2L59.5583 267.408C59.9529 267.653 60.4169 267.856 60.9503 268.016C61.4943 268.165 62.0276 268.24 62.5503 268.24C63.1263 268.24 63.5316 268.171 63.7663 268.032C64.0116 267.893 64.1343 267.701 64.1343 267.456C64.1343 267.253 64.0383 267.104 63.8463 267.008C63.6649 266.901 63.4196 266.821 63.1102 266.768C62.8009 266.715 62.4596 266.661 62.0863 266.608C61.7236 266.555 61.3556 266.485 60.9823 266.4C60.6089 266.304 60.2676 266.165 59.9583 265.984C59.6489 265.803 59.3983 265.557 59.2063 265.248C59.0249 264.939 58.9342 264.539 58.9342 264.048C58.9342 263.504 59.0889 263.024 59.3983 262.608C59.7183 262.192 60.1769 261.867 60.7743 261.632C61.3716 261.387 62.0863 261.264 62.9183 261.264C63.5049 261.264 64.1023 261.328 64.7103 261.456C65.3183 261.584 65.8249 261.771 66.2303 262.016L65.3983 263.792C64.9823 263.547 64.5609 263.381 64.1343 263.296C63.7183 263.2 63.3129 263.152 62.9183 263.152C62.3636 263.152 61.9583 263.227 61.7023 263.376C61.4463 263.525 61.3183 263.717 61.3183 263.952C61.3183 264.165 61.4089 264.325 61.5903 264.432C61.7823 264.539 62.0329 264.624 62.3423 264.688C62.6516 264.752 62.9876 264.811 63.3503 264.864C63.7236 264.907 64.0969 264.976 64.4703 265.072C64.8436 265.168 65.1796 265.307 65.4783 265.488C65.7876 265.659 66.0383 265.899 66.2303 266.208C66.4223 266.507 66.5183 266.901 66.5183 267.392C66.5183 267.925 66.3583 268.4 66.0383 268.816C65.7183 269.221 65.2543 269.541 64.6463 269.776C64.0489 270.011 63.3183 270.128 62.4543 270.128ZM79.9264 261.52C82.1024 261.52 83.3344 262.608 83.3344 264.784V270H82.2464V268.688C81.7344 269.552 80.7424 270.08 79.3504 270.08C77.4464 270.08 76.2784 269.088 76.2784 267.632C76.2784 266.336 77.1104 265.248 79.5264 265.248H82.1984V264.736C82.1984 263.296 81.3824 262.512 79.8144 262.512C78.7264 262.512 77.7024 262.896 77.0144 263.504L76.5024 262.656C77.3504 261.936 78.5984 261.52 79.9264 261.52ZM79.5264 269.184C80.8064 269.184 81.7504 268.576 82.1984 267.472V266.096H79.5584C77.9264 266.096 77.3984 266.736 77.3984 267.6C77.3984 268.576 78.1824 269.184 79.5264 269.184ZM90.7079 261.52C92.7559 261.52 94.1639 262.704 94.1639 265.12V270H93.0279V265.232C93.0279 263.456 92.0999 262.544 90.4999 262.544C88.6919 262.544 87.5559 263.664 87.5559 265.584V270H86.4199V261.584H87.5079V263.136C88.1159 262.112 89.2519 261.52 90.7079 261.52ZM103.823 258.128H104.959V270H103.871V268.336C103.183 269.472 102.015 270.08 100.623 270.08C98.2233 270.08 96.4313 268.336 96.4313 265.792C96.4313 263.248 98.2233 261.52 100.623 261.52C101.967 261.52 103.119 262.096 103.823 263.184V258.128ZM100.719 269.072C102.495 269.072 103.839 267.76 103.839 265.792C103.839 263.824 102.495 262.512 100.719 262.512C98.9273 262.512 97.5833 263.824 97.5833 265.792C97.5833 267.76 98.9273 269.072 100.719 269.072ZM119.559 261.52C121.735 261.52 122.967 262.608 122.967 264.784V270H121.879V268.688C121.367 269.552 120.375 270.08 118.983 270.08C117.079 270.08 115.911 269.088 115.911 267.632C115.911 266.336 116.743 265.248 119.159 265.248H121.831V264.736C121.831 263.296 121.015 262.512 119.447 262.512C118.359 262.512 117.335 262.896 116.647 263.504L116.135 262.656C116.983 261.936 118.231 261.52 119.559 261.52ZM119.159 269.184C120.439 269.184 121.383 268.576 121.831 267.472V266.096H119.191C117.559 266.096 117.031 266.736 117.031 267.6C117.031 268.576 117.815 269.184 119.159 269.184ZM138.033 270.08C135.521 270.08 133.697 268.304 133.697 265.792C133.697 263.28 135.521 261.52 138.033 261.52C139.457 261.52 140.657 262.08 141.329 263.184L140.481 263.76C139.905 262.912 139.009 262.512 138.033 262.512C136.193 262.512 134.849 263.824 134.849 265.792C134.849 267.776 136.193 269.072 138.033 269.072C139.009 269.072 139.905 268.688 140.481 267.84L141.329 268.416C140.657 269.504 139.457 270.08 138.033 270.08ZM143.436 270V258.128H144.572V270H143.436ZM155.076 265.792C155.076 265.888 155.06 266.016 155.06 266.144H148.02C148.148 267.904 149.492 269.072 151.332 269.072C152.356 269.072 153.268 268.704 153.908 267.968L154.548 268.704C153.796 269.6 152.628 270.08 151.3 270.08C148.676 270.08 146.884 268.288 146.884 265.792C146.884 263.296 148.628 261.52 150.996 261.52C153.364 261.52 155.076 263.264 155.076 265.792ZM150.996 262.496C149.364 262.496 148.164 263.648 148.02 265.296H153.988C153.844 263.648 152.644 262.496 150.996 262.496ZM160.098 261.52C162.274 261.52 163.506 262.608 163.506 264.784V270H162.418V268.688C161.906 269.552 160.914 270.08 159.522 270.08C157.618 270.08 156.45 269.088 156.45 267.632C156.45 266.336 157.282 265.248 159.698 265.248H162.37V264.736C162.37 263.296 161.554 262.512 159.986 262.512C158.898 262.512 157.874 262.896 157.186 263.504L156.674 262.656C157.522 261.936 158.77 261.52 160.098 261.52ZM159.698 269.184C160.978 269.184 161.922 268.576 162.37 267.472V266.096H159.73C158.098 266.096 157.57 266.736 157.57 267.6C157.57 268.576 158.354 269.184 159.698 269.184ZM167.68 263.232C168.208 262.112 169.28 261.52 170.832 261.52V262.624C170.736 262.624 170.64 262.608 170.56 262.608C168.8 262.608 167.728 263.728 167.728 265.712V270H166.592V261.584H167.68V263.232ZM187.954 261.584H189.09V270H188.002V268.464C187.41 269.488 186.322 270.08 184.978 270.08C182.834 270.08 181.426 268.88 181.426 266.464V261.584H182.562V266.352C182.562 268.144 183.49 269.056 185.09 269.056C186.85 269.056 187.954 267.92 187.954 266V261.584ZM196.56 261.52C198.608 261.52 200.016 262.704 200.016 265.12V270H198.88V265.232C198.88 263.456 197.952 262.544 196.352 262.544C194.544 262.544 193.408 263.664 193.408 265.584V270H192.272V261.584H193.36V263.136C193.968 262.112 195.104 261.52 196.56 261.52ZM209.675 258.128H210.811V270H209.723V268.336C209.035 269.472 207.867 270.08 206.475 270.08C204.075 270.08 202.283 268.336 202.283 265.792C202.283 263.248 204.075 261.52 206.475 261.52C207.819 261.52 208.971 262.096 209.675 263.184V258.128ZM206.571 269.072C208.347 269.072 209.691 267.76 209.691 265.792C209.691 263.824 208.347 262.512 206.571 262.512C204.779 262.512 203.435 263.824 203.435 265.792C203.435 267.76 204.779 269.072 206.571 269.072ZM221.319 265.792C221.319 265.888 221.303 266.016 221.303 266.144H214.263C214.391 267.904 215.735 269.072 217.575 269.072C218.599 269.072 219.511 268.704 220.151 267.968L220.791 268.704C220.039 269.6 218.871 270.08 217.543 270.08C214.919 270.08 213.127 268.288 213.127 265.792C213.127 263.296 214.871 261.52 217.239 261.52C219.607 261.52 221.319 263.264 221.319 265.792ZM217.239 262.496C215.607 262.496 214.407 263.648 214.263 265.296H220.231C220.087 263.648 218.887 262.496 217.239 262.496ZM224.719 263.232C225.247 262.112 226.319 261.52 227.871 261.52V262.624C227.775 262.624 227.679 262.608 227.599 262.608C225.839 262.608 224.767 263.728 224.767 265.712V270H223.631V261.584H224.719V263.232ZM232.246 270.08C230.854 270.08 229.51 269.632 228.822 269.04L229.334 268.144C230.006 268.672 231.142 269.088 232.326 269.088C233.926 269.088 234.582 268.544 234.582 267.712C234.582 265.52 229.126 267.248 229.126 263.92C229.126 262.544 230.31 261.52 232.454 261.52C233.542 261.52 234.726 261.824 235.43 262.304L234.934 263.216C234.198 262.704 233.318 262.496 232.454 262.496C230.934 262.496 230.262 263.088 230.262 263.888C230.262 266.16 235.718 264.448 235.718 267.68C235.718 269.136 234.438 270.08 232.246 270.08ZM241.85 268.672L242.25 269.488C241.802 269.888 241.13 270.08 240.474 270.08C238.89 270.08 238.01 269.184 238.01 267.632V262.544H236.506V261.584H238.01V259.744H239.146V261.584H241.706V262.544H239.146V267.568C239.146 268.56 239.658 269.104 240.602 269.104C241.066 269.104 241.53 268.96 241.85 268.672ZM247.262 261.52C249.438 261.52 250.67 262.608 250.67 264.784V270H249.582V268.688C249.07 269.552 248.078 270.08 246.686 270.08C244.782 270.08 243.614 269.088 243.614 267.632C243.614 266.336 244.446 265.248 246.862 265.248H249.534V264.736C249.534 263.296 248.718 262.512 247.15 262.512C246.062 262.512 245.038 262.896 244.35 263.504L243.838 262.656C244.686 261.936 245.934 261.52 247.262 261.52ZM246.862 269.184C248.142 269.184 249.086 268.576 249.534 267.472V266.096H246.894C245.262 266.096 244.734 266.736 244.734 267.6C244.734 268.576 245.518 269.184 246.862 269.184ZM258.044 261.52C260.092 261.52 261.5 262.704 261.5 265.12V270H260.364V265.232C260.364 263.456 259.436 262.544 257.836 262.544C256.028 262.544 254.892 263.664 254.892 265.584V270H253.756V261.584H254.844V263.136C255.452 262.112 256.588 261.52 258.044 261.52ZM271.159 258.128H272.295V270H271.207V268.336C270.519 269.472 269.351 270.08 267.959 270.08C265.559 270.08 263.767 268.336 263.767 265.792C263.767 263.248 265.559 261.52 267.959 261.52C269.303 261.52 270.455 262.096 271.159 263.184V258.128ZM268.055 269.072C269.831 269.072 271.175 267.76 271.175 265.792C271.175 263.824 269.831 262.512 268.055 262.512C266.263 262.512 264.919 263.824 264.919 265.792C264.919 267.76 266.263 269.072 268.055 269.072ZM276.035 259.744C275.571 259.744 275.203 259.376 275.203 258.928C275.203 258.496 275.571 258.128 276.035 258.128C276.499 258.128 276.867 258.48 276.867 258.912C276.867 259.376 276.515 259.744 276.035 259.744ZM275.459 270V261.584H276.595V270H275.459ZM284.044 261.52C286.092 261.52 287.5 262.704 287.5 265.12V270H286.364V265.232C286.364 263.456 285.436 262.544 283.836 262.544C282.028 262.544 280.892 263.664 280.892 265.584V270H279.756V261.584H280.844V263.136C281.452 262.112 282.588 261.52 284.044 261.52ZM297.319 261.584H298.407V268.976C298.407 271.872 296.983 273.184 294.199 273.184C292.663 273.184 291.159 272.72 290.279 271.888L290.855 271.024C291.655 271.744 292.871 272.176 294.167 272.176C296.295 272.176 297.271 271.2 297.271 269.12V268.048C296.567 269.12 295.367 269.68 293.991 269.68C291.591 269.68 289.767 268 289.767 265.584C289.767 263.168 291.591 261.52 293.991 261.52C295.399 261.52 296.615 262.096 297.319 263.2V261.584ZM294.103 268.672C295.959 268.672 297.303 267.408 297.303 265.584C297.303 263.76 295.959 262.512 294.103 262.512C292.247 262.512 290.919 263.76 290.919 265.584C290.919 267.408 292.247 268.672 294.103 268.672ZM4.528 283.52C6.704 283.52 7.936 284.608 7.936 286.784V292H6.848V290.688C6.336 291.552 5.344 292.08 3.952 292.08C2.048 292.08 0.88 291.088 0.88 289.632C0.88 288.336 1.712 287.248 4.128 287.248H6.8V286.736C6.8 285.296 5.984 284.512 4.416 284.512C3.328 284.512 2.304 284.896 1.616 285.504L1.104 284.656C1.952 283.936 3.2 283.52 4.528 283.52ZM4.128 291.184C5.408 291.184 6.352 290.576 6.8 289.472V288.096H4.16C2.528 288.096 2 288.736 2 289.6C2 290.576 2.784 291.184 4.128 291.184ZM15.3575 283.52C17.7575 283.52 19.5495 285.248 19.5495 287.792C19.5495 290.336 17.7575 292.08 15.3575 292.08C13.9655 292.08 12.7975 291.472 12.1095 290.336V292H11.0215V280.128H12.1575V285.184C12.8615 284.096 14.0135 283.52 15.3575 283.52ZM15.2775 291.072C17.0535 291.072 18.4135 289.76 18.4135 287.792C18.4135 285.824 17.0535 284.512 15.2775 284.512C13.4855 284.512 12.1415 285.824 12.1415 287.792C12.1415 289.76 13.4855 291.072 15.2775 291.072ZM25.3053 292.08C22.8413 292.08 21.0173 290.288 21.0173 287.792C21.0173 285.296 22.8413 283.52 25.3053 283.52C27.7693 283.52 29.5773 285.296 29.5773 287.792C29.5773 290.288 27.7693 292.08 25.3053 292.08ZM25.3053 291.072C27.0973 291.072 28.4253 289.76 28.4253 287.792C28.4253 285.824 27.0973 284.512 25.3053 284.512C23.5133 284.512 22.1693 285.824 22.1693 287.792C22.1693 289.76 23.5133 291.072 25.3053 291.072ZM38.3445 283.584H39.4805V292H38.3925V290.464C37.8005 291.488 36.7125 292.08 35.3685 292.08C33.2245 292.08 31.8165 290.88 31.8165 288.464V283.584H32.9525V288.352C32.9525 290.144 33.8805 291.056 35.4805 291.056C37.2405 291.056 38.3445 289.92 38.3445 288V283.584ZM46.6941 290.672L47.0941 291.488C46.6461 291.888 45.9741 292.08 45.3181 292.08C43.7341 292.08 42.8541 291.184 42.8541 289.632V284.544H41.3501V283.584H42.8541V281.744H43.9901V283.584H46.5501V284.544H43.9901V289.568C43.9901 290.56 44.5021 291.104 45.4461 291.104C45.9101 291.104 46.3741 290.96 46.6941 290.672ZM90.9631 283.584H92.0831L87.8751 293.008C87.1711 294.656 86.2751 295.184 85.0751 295.184C84.2911 295.184 83.5391 294.928 83.0271 294.416L83.5551 293.568C83.9711 293.984 84.4831 294.208 85.0911 294.208C85.8431 294.208 86.3551 293.856 86.8351 292.8L87.2031 291.984L83.4431 283.584H84.6271L87.7951 290.736L90.9631 283.584ZM96.8886 292.08C94.4246 292.08 92.6006 290.288 92.6006 287.792C92.6006 285.296 94.4246 283.52 96.8886 283.52C99.3526 283.52 101.161 285.296 101.161 287.792C101.161 290.288 99.3526 292.08 96.8886 292.08ZM96.8886 291.072C98.6806 291.072 100.009 289.76 100.009 287.792C100.009 285.824 98.6806 284.512 96.8886 284.512C95.0966 284.512 93.7526 285.824 93.7526 287.792C93.7526 289.76 95.0966 291.072 96.8886 291.072ZM109.928 283.584H111.064V292H109.976V290.464C109.384 291.488 108.296 292.08 106.952 292.08C104.808 292.08 103.4 290.88 103.4 288.464V283.584H104.536V288.352C104.536 290.144 105.464 291.056 107.064 291.056C108.824 291.056 109.928 289.92 109.928 288V283.584ZM115.333 285.232C115.861 284.112 116.933 283.52 118.485 283.52V284.624C118.389 284.624 118.293 284.608 118.213 284.608C116.453 284.608 115.381 285.728 115.381 287.712V292H114.245V283.584H115.333V285.232ZM158.772 292.08C157.38 292.08 156.036 291.632 155.348 291.04L155.86 290.144C156.532 290.672 157.668 291.088 158.852 291.088C160.452 291.088 161.108 290.544 161.108 289.712C161.108 287.52 155.652 289.248 155.652 285.92C155.652 284.544 156.836 283.52 158.98 283.52C160.068 283.52 161.252 283.824 161.956 284.304L161.46 285.216C160.724 284.704 159.844 284.496 158.98 284.496C157.46 284.496 156.788 285.088 156.788 285.888C156.788 288.16 162.244 286.448 162.244 289.68C162.244 291.136 160.964 292.08 158.772 292.08ZM168.68 283.52C171.08 283.52 172.872 285.248 172.872 287.792C172.872 290.352 171.08 292.08 168.68 292.08C167.336 292.08 166.184 291.504 165.48 290.416V295.104H164.344V283.584H165.432V285.248C166.12 284.128 167.288 283.52 168.68 283.52ZM168.6 291.072C170.376 291.072 171.736 289.76 171.736 287.792C171.736 285.84 170.376 284.512 168.6 284.512C166.808 284.512 165.464 285.84 165.464 287.792C165.464 289.76 166.808 291.072 168.6 291.072ZM182.532 287.792C182.532 287.888 182.516 288.016 182.516 288.144H175.476C175.604 289.904 176.948 291.072 178.788 291.072C179.812 291.072 180.724 290.704 181.364 289.968L182.004 290.704C181.252 291.6 180.084 292.08 178.756 292.08C176.132 292.08 174.34 290.288 174.34 287.792C174.34 285.296 176.084 283.52 178.452 283.52C180.82 283.52 182.532 285.264 182.532 287.792ZM178.452 284.496C176.82 284.496 175.62 285.648 175.476 287.296H181.444C181.3 285.648 180.1 284.496 178.452 284.496ZM188.332 292.08C185.82 292.08 183.996 290.304 183.996 287.792C183.996 285.28 185.82 283.52 188.332 283.52C189.756 283.52 190.956 284.08 191.628 285.184L190.78 285.76C190.204 284.912 189.308 284.512 188.332 284.512C186.492 284.512 185.148 285.824 185.148 287.792C185.148 289.776 186.492 291.072 188.332 291.072C189.308 291.072 190.204 290.688 190.78 289.84L191.628 290.416C190.956 291.504 189.756 292.08 188.332 292.08ZM194.436 281.744C193.972 281.744 193.604 281.376 193.604 280.928C193.604 280.496 193.972 280.128 194.436 280.128C194.9 280.128 195.268 280.48 195.268 280.912C195.268 281.376 194.916 281.744 194.436 281.744ZM193.86 292V283.584H194.996V292H193.86ZM198.349 282.544C198.349 281.04 199.245 280.048 200.893 280.048C201.517 280.048 202.157 280.224 202.573 280.576L202.189 281.424C201.869 281.152 201.421 281.008 200.941 281.008C199.965 281.008 199.453 281.552 199.453 282.592V283.584H202.045V284.544H199.485V292H198.349V284.544H196.845V283.584H198.349V282.544ZM205.437 280.128C205.901 280.128 206.269 280.48 206.269 280.912C206.269 281.376 205.917 281.744 205.437 281.744C204.973 281.744 204.605 281.376 204.605 280.928C204.605 280.496 204.973 280.128 205.437 280.128ZM204.861 292V283.584H205.997V292H204.861ZM212.661 292.08C210.149 292.08 208.325 290.304 208.325 287.792C208.325 285.28 210.149 283.52 212.661 283.52C214.085 283.52 215.285 284.08 215.957 285.184L215.109 285.76C214.533 284.912 213.637 284.512 212.661 284.512C210.821 284.512 209.477 285.824 209.477 287.792C209.477 289.776 210.821 291.072 212.661 291.072C213.637 291.072 214.533 290.688 215.109 289.84L215.957 290.416C215.285 291.504 214.085 292.08 212.661 292.08ZM258.325 283.52C260.373 283.52 261.781 284.704 261.781 287.12V292H260.645V287.232C260.645 285.456 259.717 284.544 258.117 284.544C256.309 284.544 255.173 285.664 255.173 287.584V292H254.037V280.128H255.173V285.056C255.797 284.08 256.901 283.52 258.325 283.52ZM265.441 281.744C264.977 281.744 264.609 281.376 264.609 280.928C264.609 280.496 264.977 280.128 265.441 280.128C265.905 280.128 266.273 280.48 266.273 280.912C266.273 281.376 265.921 281.744 265.441 281.744ZM264.865 292V283.584H266.001V292H264.865ZM270.25 285.232C270.778 284.112 271.85 283.52 273.402 283.52V284.624C273.306 284.624 273.21 284.608 273.13 284.608C271.37 284.608 270.298 285.728 270.298 287.712V292H269.162V283.584H270.25V285.232ZM276.035 281.744C275.571 281.744 275.203 281.376 275.203 280.928C275.203 280.496 275.571 280.128 276.035 280.128C276.499 280.128 276.867 280.48 276.867 280.912C276.867 281.376 276.515 281.744 276.035 281.744ZM275.459 292V283.584H276.595V292H275.459ZM284.044 283.52C286.092 283.52 287.5 284.704 287.5 287.12V292H286.364V287.232C286.364 285.456 285.436 284.544 283.836 284.544C282.028 284.544 280.892 285.664 280.892 287.584V292H279.756V283.584H280.844V285.136C281.452 284.112 282.588 283.52 284.044 283.52ZM297.319 283.584H298.407V290.976C298.407 293.872 296.983 295.184 294.199 295.184C292.663 295.184 291.159 294.72 290.279 293.888L290.855 293.024C291.655 293.744 292.871 294.176 294.167 294.176C296.295 294.176 297.271 293.2 297.271 291.12V290.048C296.567 291.12 295.367 291.68 293.991 291.68C291.591 291.68 289.767 290 289.767 287.584C289.767 285.168 291.591 283.52 293.991 283.52C295.399 283.52 296.615 284.096 297.319 285.2V283.584ZM294.103 290.672C295.959 290.672 297.303 289.408 297.303 287.584C297.303 285.76 295.959 284.512 294.103 284.512C292.247 284.512 290.919 285.76 290.919 287.584C290.919 289.408 292.247 290.672 294.103 290.672ZM2.672 307.232C3.2 306.112 4.272 305.52 5.824 305.52V306.624C5.728 306.624 5.632 306.608 5.552 306.608C3.792 306.608 2.72 307.728 2.72 309.712V314H1.584V305.584H2.672V307.232ZM15.1468 309.792C15.1468 309.888 15.1308 310.016 15.1308 310.144H8.09075C8.21875 311.904 9.56275 313.072 11.4028 313.072C12.4268 313.072 13.3388 312.704 13.9788 311.968L14.6188 312.704C13.8668 313.6 12.6988 314.08 11.3708 314.08C8.74675 314.08 6.95475 312.288 6.95475 309.792C6.95475 307.296 8.69875 305.52 11.0668 305.52C13.4348 305.52 15.1468 307.264 15.1468 309.792ZM11.0668 306.496C9.43475 306.496 8.23475 307.648 8.09075 309.296H14.0588C13.9148 307.648 12.7148 306.496 11.0668 306.496ZM24.051 305.584H25.139V317.104H24.003V312.416C23.299 313.504 22.147 314.08 20.803 314.08C18.403 314.08 16.611 312.352 16.611 309.792C16.611 307.248 18.403 305.52 20.803 305.52C22.195 305.52 23.363 306.128 24.051 307.248V305.584ZM20.899 313.072C22.675 313.072 24.019 311.76 24.019 309.792C24.019 307.84 22.675 306.512 20.899 306.512C19.107 306.512 17.763 307.84 17.763 309.792C17.763 311.76 19.107 313.072 20.899 313.072ZM34.7508 305.584H35.8868V314H34.7987V312.464C34.2068 313.488 33.1188 314.08 31.7748 314.08C29.6308 314.08 28.2228 312.88 28.2228 310.464V305.584H29.3588V310.352C29.3588 312.144 30.2868 313.056 31.8868 313.056C33.6468 313.056 34.7508 311.92 34.7508 310V305.584ZM39.6444 303.744C39.1804 303.744 38.8124 303.376 38.8124 302.928C38.8124 302.496 39.1804 302.128 39.6444 302.128C40.1084 302.128 40.4764 302.48 40.4764 302.912C40.4764 303.376 40.1244 303.744 39.6444 303.744ZM39.0684 314V305.584H40.2044V314H39.0684ZM44.4533 307.232C44.9813 306.112 46.0533 305.52 47.6053 305.52V306.624C47.5093 306.624 47.4133 306.608 47.3333 306.608C45.5733 306.608 44.5013 307.728 44.5013 309.712V314H43.3653V305.584H44.4533V307.232ZM56.928 309.792C56.928 309.888 56.912 310.016 56.912 310.144H49.872C50 311.904 51.344 313.072 53.184 313.072C54.208 313.072 55.12 312.704 55.76 311.968L56.4 312.704C55.648 313.6 54.48 314.08 53.152 314.08C50.528 314.08 48.736 312.288 48.736 309.792C48.736 307.296 50.48 305.52 52.848 305.52C55.216 305.52 56.928 307.264 56.928 309.792ZM52.848 306.496C51.216 306.496 50.016 307.648 49.872 309.296H55.84C55.696 307.648 54.496 306.496 52.848 306.496ZM69.7363 305.52C71.7843 305.52 73.1283 306.704 73.1283 309.12V314H71.9923V309.232C71.9923 307.456 71.0963 306.544 69.5763 306.544C67.8483 306.544 66.7603 307.664 66.7603 309.584V314H65.6243V309.232C65.6243 307.456 64.7283 306.544 63.1923 306.544C61.4803 306.544 60.3763 307.664 60.3763 309.584V314H59.2403V305.584H60.3283V307.12C60.9203 306.112 62.0083 305.52 63.4163 305.52C64.8083 305.52 65.8963 306.112 66.4083 307.296C67.0163 306.208 68.2163 305.52 69.7363 305.52ZM83.5843 309.792C83.5843 309.888 83.5683 310.016 83.5683 310.144H76.5283C76.6562 311.904 78.0003 313.072 79.8403 313.072C80.8643 313.072 81.7763 312.704 82.4163 311.968L83.0563 312.704C82.3043 313.6 81.1363 314.08 79.8083 314.08C77.1843 314.08 75.3923 312.288 75.3923 309.792C75.3923 307.296 77.1363 305.52 79.5043 305.52C81.8723 305.52 83.5843 307.264 83.5843 309.792ZM79.5043 306.496C77.8723 306.496 76.6723 307.648 76.5283 309.296H82.4963C82.3523 307.648 81.1523 306.496 79.5043 306.496ZM90.1845 305.52C92.2325 305.52 93.6405 306.704 93.6405 309.12V314H92.5045V309.232C92.5045 307.456 91.5765 306.544 89.9765 306.544C88.1685 306.544 87.0325 307.664 87.0325 309.584V314H85.8965V305.584H86.9845V307.136C87.5925 306.112 88.7285 305.52 90.1845 305.52ZM100.757 312.672L101.157 313.488C100.709 313.888 100.037 314.08 99.3806 314.08C97.7966 314.08 96.9166 313.184 96.9166 311.632V306.544H95.4126V305.584H96.9166V303.744H98.0526V305.584H100.613V306.544H98.0526V311.568C98.0526 312.56 98.5646 313.104 99.5086 313.104C99.9726 313.104 100.437 312.96 100.757 312.672ZM105.481 314.08C104.089 314.08 102.745 313.632 102.057 313.04L102.569 312.144C103.241 312.672 104.377 313.088 105.561 313.088C107.161 313.088 107.817 312.544 107.817 311.712C107.817 309.52 102.361 311.248 102.361 307.92C102.361 306.544 103.545 305.52 105.689 305.52C106.777 305.52 107.961 305.824 108.665 306.304L108.169 307.216C107.433 306.704 106.553 306.496 105.689 306.496C104.169 306.496 103.497 307.088 103.497 307.888C103.497 310.16 108.953 308.448 108.953 311.68C108.953 313.136 107.673 314.08 105.481 314.08ZM111.181 312.336C111.677 312.336 112.029 312.72 112.029 313.2C112.029 313.472 111.965 313.68 111.805 314.128L111.133 316.336H110.365L110.909 314.016C110.573 313.92 110.333 313.616 110.333 313.2C110.333 312.704 110.701 312.336 111.181 312.336ZM124.567 314.08C122.055 314.08 120.231 312.304 120.231 309.792C120.231 307.28 122.055 305.52 124.567 305.52C125.991 305.52 127.191 306.08 127.863 307.184L127.015 307.76C126.439 306.912 125.543 306.512 124.567 306.512C122.727 306.512 121.383 307.824 121.383 309.792C121.383 311.776 122.727 313.072 124.567 313.072C125.543 313.072 126.439 312.688 127.015 311.84L127.863 312.416C127.191 313.504 125.991 314.08 124.567 314.08ZM133.394 314.08C130.93 314.08 129.106 312.288 129.106 309.792C129.106 307.296 130.93 305.52 133.394 305.52C135.858 305.52 137.666 307.296 137.666 309.792C137.666 312.288 135.858 314.08 133.394 314.08ZM133.394 313.072C135.186 313.072 136.514 311.76 136.514 309.792C136.514 307.824 135.186 306.512 133.394 306.512C131.602 306.512 130.258 307.824 130.258 309.792C130.258 311.76 131.602 313.072 133.394 313.072ZM150.481 305.52C152.529 305.52 153.873 306.704 153.873 309.12V314H152.737V309.232C152.737 307.456 151.841 306.544 150.321 306.544C148.593 306.544 147.505 307.664 147.505 309.584V314H146.369V309.232C146.369 307.456 145.473 306.544 143.937 306.544C142.225 306.544 141.121 307.664 141.121 309.584V314H139.985V305.584H141.073V307.12C141.665 306.112 142.753 305.52 144.161 305.52C145.553 305.52 146.641 306.112 147.153 307.296C147.761 306.208 148.961 305.52 150.481 305.52ZM161.29 305.52C163.69 305.52 165.482 307.248 165.482 309.792C165.482 312.352 163.69 314.08 161.29 314.08C159.946 314.08 158.794 313.504 158.09 312.416V317.104H156.954V305.584H158.042V307.248C158.73 306.128 159.898 305.52 161.29 305.52ZM161.21 313.072C162.986 313.072 164.346 311.76 164.346 309.792C164.346 307.84 162.986 306.512 161.21 306.512C159.418 306.512 158.074 307.84 158.074 309.792C158.074 311.76 159.418 313.072 161.21 313.072ZM170.695 305.52C172.871 305.52 174.103 306.608 174.103 308.784V314H173.015V312.688C172.503 313.552 171.511 314.08 170.119 314.08C168.215 314.08 167.047 313.088 167.047 311.632C167.047 310.336 167.879 309.248 170.295 309.248H172.967V308.736C172.967 307.296 172.151 306.512 170.583 306.512C169.495 306.512 168.471 306.896 167.783 307.504L167.271 306.656C168.119 305.936 169.367 305.52 170.695 305.52ZM170.295 313.184C171.575 313.184 172.519 312.576 172.967 311.472V310.096H170.327C168.695 310.096 168.167 310.736 168.167 311.6C168.167 312.576 168.951 313.184 170.295 313.184ZM181.476 305.52C183.524 305.52 184.932 306.704 184.932 309.12V314H183.796V309.232C183.796 307.456 182.868 306.544 181.268 306.544C179.46 306.544 178.324 307.664 178.324 309.584V314H177.188V305.584H178.276V307.136C178.884 306.112 180.02 305.52 181.476 305.52ZM193.812 305.584H194.932L190.724 315.008C190.02 316.656 189.124 317.184 187.924 317.184C187.14 317.184 186.388 316.928 185.876 316.416L186.404 315.568C186.82 315.984 187.332 316.208 187.94 316.208C188.692 316.208 189.204 315.856 189.684 314.8L190.052 313.984L186.292 305.584H187.476L190.644 312.736L193.812 305.584ZM206.655 314.08C204.143 314.08 202.319 312.304 202.319 309.792C202.319 307.28 204.143 305.52 206.655 305.52C208.079 305.52 209.279 306.08 209.951 307.184L209.103 307.76C208.527 306.912 207.631 306.512 206.655 306.512C204.815 306.512 203.471 307.824 203.471 309.792C203.471 311.776 204.815 313.072 206.655 313.072C207.631 313.072 208.527 312.688 209.103 311.84L209.951 312.416C209.279 313.504 208.079 314.08 206.655 314.08ZM218.631 305.584H219.767V314H218.679V312.464C218.087 313.488 216.999 314.08 215.655 314.08C213.511 314.08 212.103 312.88 212.103 310.464V305.584H213.239V310.352C213.239 312.144 214.167 313.056 215.767 313.056C217.527 313.056 218.631 311.92 218.631 310V305.584ZM222.949 314V302.128H224.085V314H222.949ZM231.309 312.672L231.709 313.488C231.261 313.888 230.589 314.08 229.933 314.08C228.349 314.08 227.469 313.184 227.469 311.632V306.544H225.965V305.584H227.469V303.744H228.605V305.584H231.165V306.544H228.605V311.568C228.605 312.56 229.117 313.104 230.061 313.104C230.525 313.104 230.989 312.96 231.309 312.672ZM240.225 305.584H241.361V314H240.273V312.464C239.681 313.488 238.593 314.08 237.249 314.08C235.105 314.08 233.697 312.88 233.697 310.464V305.584H234.833V310.352C234.833 312.144 235.761 313.056 237.361 313.056C239.121 313.056 240.225 311.92 240.225 310V305.584ZM245.63 307.232C246.158 306.112 247.23 305.52 248.782 305.52V306.624C248.686 306.624 248.59 306.608 248.51 306.608C246.75 306.608 245.678 307.728 245.678 309.712V314H244.542V305.584H245.63V307.232ZM258.105 309.792C258.105 309.888 258.089 310.016 258.089 310.144H251.049C251.177 311.904 252.521 313.072 254.361 313.072C255.385 313.072 256.297 312.704 256.937 311.968L257.577 312.704C256.825 313.6 255.657 314.08 254.329 314.08C251.705 314.08 249.913 312.288 249.913 309.792C249.913 307.296 251.657 305.52 254.025 305.52C256.393 305.52 258.105 307.264 258.105 309.792ZM254.025 306.496C252.393 306.496 251.193 307.648 251.049 309.296H257.017C256.873 307.648 255.673 306.496 254.025 306.496ZM260.545 312.336C261.041 312.336 261.393 312.72 261.393 313.2C261.393 313.472 261.329 313.68 261.169 314.128L260.497 316.336H259.729L260.273 314.016C259.937 313.92 259.697 313.616 259.697 313.2C259.697 312.704 260.065 312.336 260.545 312.336ZM273.387 305.52C275.563 305.52 276.795 306.608 276.795 308.784V314H275.707V312.688C275.195 313.552 274.203 314.08 272.811 314.08C270.907 314.08 269.739 313.088 269.739 311.632C269.739 310.336 270.571 309.248 272.987 309.248H275.659V308.736C275.659 307.296 274.843 306.512 273.275 306.512C272.187 306.512 271.163 306.896 270.475 307.504L269.963 306.656C270.811 305.936 272.059 305.52 273.387 305.52ZM272.987 313.184C274.267 313.184 275.211 312.576 275.659 311.472V310.096H273.019C271.387 310.096 270.859 310.736 270.859 311.6C270.859 312.576 271.643 313.184 272.987 313.184ZM284.169 305.52C286.217 305.52 287.625 306.704 287.625 309.12V314H286.489V309.232C286.489 307.456 285.561 306.544 283.961 306.544C282.153 306.544 281.017 307.664 281.017 309.584V314H279.881V305.584H280.969V307.136C281.577 306.112 282.713 305.52 284.169 305.52ZM297.284 302.128H298.42V314H297.332V312.336C296.644 313.472 295.476 314.08 294.084 314.08C291.684 314.08 289.892 312.336 289.892 309.792C289.892 307.248 291.684 305.52 294.084 305.52C295.428 305.52 296.58 306.096 297.284 307.184V302.128ZM294.18 313.072C295.956 313.072 297.3 311.76 297.3 309.792C297.3 307.824 295.956 306.512 294.18 306.512C292.388 306.512 291.044 307.824 291.044 309.792C291.044 311.76 292.388 313.072 294.18 313.072ZM3.84 336.08C2.448 336.08 1.104 335.632 0.416 335.04L0.928 334.144C1.6 334.672 2.736 335.088 3.92 335.088C5.52 335.088 6.176 334.544 6.176 333.712C6.176 331.52 0.72 333.248 0.72 329.92C0.72 328.544 1.904 327.52 4.048 327.52C5.136 327.52 6.32 327.824 7.024 328.304L6.528 329.216C5.792 328.704 4.912 328.496 4.048 328.496C2.528 328.496 1.856 329.088 1.856 329.888C1.856 332.16 7.312 330.448 7.312 333.68C7.312 335.136 6.032 336.08 3.84 336.08ZM12.9001 336.08C10.3881 336.08 8.56413 334.304 8.56413 331.792C8.56413 329.28 10.3881 327.52 12.9001 327.52C14.3241 327.52 15.5241 328.08 16.1961 329.184L15.3481 329.76C14.7721 328.912 13.8761 328.512 12.9001 328.512C11.0601 328.512 9.71613 329.824 9.71613 331.792C9.71613 333.776 11.0601 335.072 12.9001 335.072C13.8761 335.072 14.7721 334.688 15.3481 333.84L16.1961 334.416C15.5241 335.504 14.3241 336.08 12.9001 336.08ZM21.3718 327.52C23.5478 327.52 24.7798 328.608 24.7798 330.784V336H23.6918V334.688C23.1798 335.552 22.1878 336.08 20.7958 336.08C18.8918 336.08 17.7238 335.088 17.7238 333.632C17.7238 332.336 18.5558 331.248 20.9718 331.248H23.6438V330.736C23.6438 329.296 22.8278 328.512 21.2598 328.512C20.1718 328.512 19.1478 328.896 18.4598 329.504L17.9478 328.656C18.7958 327.936 20.0438 327.52 21.3718 327.52ZM20.9718 335.184C22.2518 335.184 23.1958 334.576 23.6438 333.472V332.096H21.0038C19.3718 332.096 18.8438 332.736 18.8438 333.6C18.8438 334.576 19.6278 335.184 20.9718 335.184ZM27.8653 336V324.128H29.0013V336H27.8653ZM32.7381 325.744C32.2741 325.744 31.9061 325.376 31.9061 324.928C31.9061 324.496 32.2741 324.128 32.7381 324.128C33.2021 324.128 33.5701 324.48 33.5701 324.912C33.5701 325.376 33.2181 325.744 32.7381 325.744ZM32.1621 336V327.584H33.2981V336H32.1621ZM40.747 327.52C42.795 327.52 44.203 328.704 44.203 331.12V336H43.067V331.232C43.067 329.456 42.139 328.544 40.539 328.544C38.731 328.544 37.595 329.664 37.595 331.584V336H36.459V327.584H37.547V329.136C38.155 328.112 39.291 327.52 40.747 327.52ZM54.0224 327.584H55.1104V334.976C55.1104 337.872 53.6864 339.184 50.9024 339.184C49.3664 339.184 47.8624 338.72 46.9824 337.888L47.5584 337.024C48.3584 337.744 49.5744 338.176 50.8704 338.176C52.9984 338.176 53.9744 337.2 53.9744 335.12V334.048C53.2704 335.12 52.0704 335.68 50.6944 335.68C48.2944 335.68 46.4704 334 46.4704 331.584C46.4704 329.168 48.2944 327.52 50.6944 327.52C52.1024 327.52 53.3184 328.096 54.0224 329.2V327.584ZM50.8064 334.672C52.6624 334.672 54.0064 333.408 54.0064 331.584C54.0064 329.76 52.6624 328.512 50.8064 328.512C48.9504 328.512 47.6224 329.76 47.6224 331.584C47.6224 333.408 48.9504 334.672 50.8064 334.672ZM65.4186 327.52C67.5946 327.52 68.8266 328.608 68.8266 330.784V336H67.7386V334.688C67.2266 335.552 66.2346 336.08 64.8426 336.08C62.9386 336.08 61.7706 335.088 61.7706 333.632C61.7706 332.336 62.6026 331.248 65.0186 331.248H67.6906V330.736C67.6906 329.296 66.8746 328.512 65.3066 328.512C64.2186 328.512 63.1946 328.896 62.5066 329.504L61.9946 328.656C62.8426 327.936 64.0906 327.52 65.4186 327.52ZM65.0186 335.184C66.2986 335.184 67.2426 334.576 67.6906 333.472V332.096H65.0506C63.4186 332.096 62.8906 332.736 62.8906 333.6C62.8906 334.576 63.6746 335.184 65.0186 335.184ZM74.1681 336.08C72.7761 336.08 71.4321 335.632 70.7441 335.04L71.2561 334.144C71.9281 334.672 73.0641 335.088 74.2481 335.088C75.8481 335.088 76.5041 334.544 76.5041 333.712C76.5041 331.52 71.0481 333.248 71.0481 329.92C71.0481 328.544 72.2321 327.52 74.3761 327.52C75.4641 327.52 76.6481 327.824 77.3521 328.304L76.8561 329.216C76.1201 328.704 75.2401 328.496 74.3761 328.496C72.8561 328.496 72.1841 329.088 72.1841 329.888C72.1841 332.16 77.6401 330.448 77.6401 333.68C77.6401 335.136 76.3601 336.08 74.1681 336.08ZM84.0763 327.52C86.4763 327.52 88.2683 329.248 88.2683 331.792C88.2683 334.352 86.4763 336.08 84.0763 336.08C82.7323 336.08 81.5803 335.504 80.8763 334.416V339.104H79.7403V327.584H80.8283V329.248C81.5163 328.128 82.6843 327.52 84.0763 327.52ZM83.9963 335.072C85.7723 335.072 87.1323 333.76 87.1323 331.792C87.1323 329.84 85.7723 328.512 83.9963 328.512C82.2043 328.512 80.8603 329.84 80.8603 331.792C80.8603 333.76 82.2043 335.072 83.9963 335.072ZM91.16 325.744C90.696 325.744 90.328 325.376 90.328 324.928C90.328 324.496 90.696 324.128 91.16 324.128C91.624 324.128 91.992 324.48 91.992 324.912C91.992 325.376 91.64 325.744 91.16 325.744ZM90.584 336V327.584H91.72V336H90.584ZM95.9689 329.232C96.4969 328.112 97.5689 327.52 99.1209 327.52V328.624C99.0249 328.624 98.9289 328.608 98.8489 328.608C97.0889 328.608 96.0169 329.728 96.0169 331.712V336H94.8809V327.584H95.9689V329.232ZM104.106 327.52C106.282 327.52 107.514 328.608 107.514 330.784V336H106.426V334.688C105.914 335.552 104.922 336.08 103.53 336.08C101.626 336.08 100.458 335.088 100.458 333.632C100.458 332.336 101.29 331.248 103.706 331.248H106.378V330.736C106.378 329.296 105.562 328.512 103.994 328.512C102.906 328.512 101.882 328.896 101.194 329.504L100.682 328.656C101.53 327.936 102.778 327.52 104.106 327.52ZM103.706 335.184C104.986 335.184 105.93 334.576 106.378 333.472V332.096H103.738C102.106 332.096 101.578 332.736 101.578 333.6C101.578 334.576 102.362 335.184 103.706 335.184ZM114.632 334.672L115.032 335.488C114.584 335.888 113.912 336.08 113.256 336.08C111.672 336.08 110.792 335.184 110.792 333.632V328.544H109.288V327.584H110.792V325.744H111.928V327.584H114.488V328.544H111.928V333.568C111.928 334.56 112.44 335.104 113.384 335.104C113.848 335.104 114.312 334.96 114.632 334.672ZM117.676 325.744C117.212 325.744 116.844 325.376 116.844 324.928C116.844 324.496 117.212 324.128 117.676 324.128C118.14 324.128 118.508 324.48 118.508 324.912C118.508 325.376 118.156 325.744 117.676 325.744ZM117.1 336V327.584H118.236V336H117.1ZM124.837 336.08C122.373 336.08 120.549 334.288 120.549 331.792C120.549 329.296 122.373 327.52 124.837 327.52C127.301 327.52 129.109 329.296 129.109 331.792C129.109 334.288 127.301 336.08 124.837 336.08ZM124.837 335.072C126.629 335.072 127.957 333.76 127.957 331.792C127.957 329.824 126.629 328.512 124.837 328.512C123.045 328.512 121.701 329.824 121.701 331.792C121.701 333.76 123.045 335.072 124.837 335.072ZM135.716 327.52C137.764 327.52 139.172 328.704 139.172 331.12V336H138.036V331.232C138.036 329.456 137.108 328.544 135.508 328.544C133.7 328.544 132.564 329.664 132.564 331.584V336H131.428V327.584H132.516V329.136C133.124 328.112 134.26 327.52 135.716 327.52ZM144.512 336.08C143.12 336.08 141.776 335.632 141.088 335.04L141.6 334.144C142.272 334.672 143.408 335.088 144.592 335.088C146.192 335.088 146.848 334.544 146.848 333.712C146.848 331.52 141.392 333.248 141.392 329.92C141.392 328.544 142.576 327.52 144.72 327.52C145.808 327.52 146.992 327.824 147.696 328.304L147.2 329.216C146.464 328.704 145.584 328.496 144.72 328.496C143.2 328.496 142.528 329.088 142.528 329.888C142.528 332.16 147.984 330.448 147.984 333.68C147.984 335.136 146.704 336.08 144.512 336.08ZM150.196 336.08C149.732 336.08 149.348 335.696 149.348 335.2C149.348 334.704 149.732 334.336 150.196 334.336C150.66 334.336 151.06 334.704 151.06 335.2C151.06 335.696 150.66 336.08 150.196 336.08Z" fill="white"/>
</g>
<defs>
<linearGradient id="paint0_linear_929_25" x1="61.5" y1="0" x2="254.673" y2="19.884" gradientUnits="userSpaceOnUse">
<stop stop-color="#70C0B2"/>
<stop offset="0.293999" stop-color="#0198B6"/>
<stop offset="0.817393" stop-color="#007289"/>
</linearGradient>
<clipPath id="clip0_929_25">
<rect width="843" height="363" fill="white"/>
</clipPath>
</defs>
</svg>
