<svg width="843" height="363" viewBox="0 0 843 363" fill="none" xmlns="http://www.w3.org/2000/svg">
<path d="M130.814 96V82H136.574C137.814 82 138.874 82.2 139.754 82.6C140.647 83 141.334 83.5733 141.814 84.32C142.294 85.0667 142.534 85.9533 142.534 86.98C142.534 88.0067 142.294 88.8933 141.814 89.64C141.334 90.3867 140.647 90.96 139.754 91.36C138.874 91.76 137.814 91.96 136.574 91.96H132.254L133.414 90.74V96H130.814ZM133.414 91.02L132.254 89.76H136.454C137.6 89.76 138.46 89.52 139.034 89.04C139.62 88.5467 139.914 87.86 139.914 86.98C139.914 86.0867 139.62 85.4 139.034 84.92C138.46 84.44 137.6 84.2 136.454 84.2H132.254L133.414 82.92V91.02ZM145.085 96V81.16H147.585V96H145.085ZM157.447 96V93.84L157.307 93.38V89.6C157.307 88.8667 157.087 88.3 156.647 87.9C156.207 87.4867 155.54 87.28 154.647 87.28C154.047 87.28 153.453 87.3733 152.867 87.56C152.293 87.7467 151.807 88.0067 151.407 88.34L150.427 86.52C151 86.08 151.68 85.7533 152.467 85.54C153.267 85.3133 154.093 85.2 154.947 85.2C156.493 85.2 157.687 85.5733 158.527 86.32C159.38 87.0533 159.807 88.1933 159.807 89.74V96H157.447ZM154.087 96.14C153.287 96.14 152.587 96.0067 151.987 95.74C151.387 95.46 150.92 95.08 150.587 94.6C150.267 94.1067 150.107 93.5533 150.107 92.94C150.107 92.34 150.247 91.8 150.527 91.32C150.82 90.84 151.293 90.46 151.947 90.18C152.6 89.9 153.467 89.76 154.547 89.76H157.647V91.42H154.727C153.873 91.42 153.3 91.56 153.007 91.84C152.713 92.1067 152.567 92.44 152.567 92.84C152.567 93.2933 152.747 93.6533 153.107 93.92C153.467 94.1867 153.967 94.32 154.607 94.32C155.22 94.32 155.767 94.18 156.247 93.9C156.74 93.62 157.093 93.2067 157.307 92.66L157.727 94.16C157.487 94.7867 157.053 95.2733 156.427 95.62C155.813 95.9667 155.033 96.14 154.087 96.14ZM169.075 85.2C169.928 85.2 170.688 85.3667 171.355 85.7C172.035 86.0333 172.568 86.5467 172.955 87.24C173.342 87.92 173.535 88.8 173.535 89.88V96H171.035V90.2C171.035 89.2533 170.808 88.5467 170.355 88.08C169.915 87.6133 169.295 87.38 168.495 87.38C167.908 87.38 167.388 87.5 166.935 87.74C166.482 87.98 166.128 88.34 165.875 88.82C165.635 89.2867 165.515 89.88 165.515 90.6V96H163.015V85.32H165.395V88.2L164.975 87.32C165.348 86.64 165.888 86.12 166.595 85.76C167.315 85.3867 168.142 85.2 169.075 85.2Z" fill="#0198B5"/>
<circle cx="150" cy="88.5" r="76.5" stroke="url(#paint0_linear_974_913)" stroke-width="24"/>
<path d="M1.824 226V214.8H3.008V224.976H9.28V226H1.824ZM18.2249 221.792C18.2249 221.888 18.2089 222.016 18.2089 222.144H11.1689C11.2969 223.904 12.6409 225.072 14.4809 225.072C15.5049 225.072 16.4169 224.704 17.0569 223.968L17.6969 224.704C16.9449 225.6 15.7769 226.08 14.4489 226.08C11.8249 226.08 10.0329 224.288 10.0329 221.792C10.0329 219.296 11.7769 217.52 14.1449 217.52C16.5129 217.52 18.2249 219.264 18.2249 221.792ZM14.1449 218.496C12.5129 218.496 11.3129 219.648 11.1689 221.296H17.1369C16.9929 219.648 15.7929 218.496 14.1449 218.496ZM26.3329 217.584H27.4529L23.7089 226H22.5409L18.8129 217.584H19.9969L23.1489 224.752L26.3329 217.584ZM36.1624 221.792C36.1624 221.888 36.1464 222.016 36.1464 222.144H29.1064C29.2344 223.904 30.5784 225.072 32.4184 225.072C33.4424 225.072 34.3544 224.704 34.9944 223.968L35.6344 224.704C34.8824 225.6 33.7144 226.08 32.3864 226.08C29.7624 226.08 27.9704 224.288 27.9704 221.792C27.9704 219.296 29.7144 217.52 32.0824 217.52C34.4504 217.52 36.1624 219.264 36.1624 221.792ZM32.0824 218.496C30.4504 218.496 29.2504 219.648 29.1064 221.296H35.0744C34.9304 219.648 33.7304 218.496 32.0824 218.496ZM39.5626 219.232C40.0906 218.112 41.1626 217.52 42.7146 217.52V218.624C42.6186 218.624 42.5226 218.608 42.4426 218.608C40.6826 218.608 39.6106 219.728 39.6106 221.712V226H38.4746V217.584H39.5626V219.232ZM47.6999 217.52C49.8759 217.52 51.1079 218.608 51.1079 220.784V226H50.0199V224.688C49.5079 225.552 48.5159 226.08 47.1239 226.08C45.2199 226.08 44.0519 225.088 44.0519 223.632C44.0519 222.336 44.8839 221.248 47.2999 221.248H49.9719V220.736C49.9719 219.296 49.1559 218.512 47.5879 218.512C46.4999 218.512 45.4759 218.896 44.7879 219.504L44.2759 218.656C45.1239 217.936 46.3719 217.52 47.6999 217.52ZM47.2999 225.184C48.5799 225.184 49.5239 224.576 49.9719 223.472V222.096H47.3319C45.6999 222.096 45.1719 222.736 45.1719 223.6C45.1719 224.576 45.9559 225.184 47.2999 225.184ZM60.9286 217.584H62.0166V224.976C62.0166 227.872 60.5926 229.184 57.8086 229.184C56.2726 229.184 54.7686 228.72 53.8886 227.888L54.4646 227.024C55.2646 227.744 56.4806 228.176 57.7766 228.176C59.9046 228.176 60.8806 227.2 60.8806 225.12V224.048C60.1766 225.12 58.9766 225.68 57.6006 225.68C55.2006 225.68 53.3766 224 53.3766 221.584C53.3766 219.168 55.2006 217.52 57.6006 217.52C59.0086 217.52 60.2246 218.096 60.9286 219.2V217.584ZM57.7126 224.672C59.5686 224.672 60.9126 223.408 60.9126 221.584C60.9126 219.76 59.5686 218.512 57.7126 218.512C55.8566 218.512 54.5286 219.76 54.5286 221.584C54.5286 223.408 55.8566 224.672 57.7126 224.672ZM65.7694 215.744C65.3054 215.744 64.9374 215.376 64.9374 214.928C64.9374 214.496 65.3054 214.128 65.7694 214.128C66.2334 214.128 66.6014 214.48 66.6014 214.912C66.6014 215.376 66.2494 215.744 65.7694 215.744ZM65.1934 226V217.584H66.3294V226H65.1934ZM73.7783 217.52C75.8263 217.52 77.2343 218.704 77.2343 221.12V226H76.0983V221.232C76.0983 219.456 75.1703 218.544 73.5703 218.544C71.7623 218.544 70.6263 219.664 70.6263 221.584V226H69.4903V217.584H70.5783V219.136C71.1863 218.112 72.3223 217.52 73.7783 217.52ZM87.0536 217.584H88.1416V224.976C88.1416 227.872 86.7176 229.184 83.9336 229.184C82.3976 229.184 80.8936 228.72 80.0136 227.888L80.5896 227.024C81.3896 227.744 82.6056 228.176 83.9016 228.176C86.0296 228.176 87.0056 227.2 87.0056 225.12V224.048C86.3016 225.12 85.1016 225.68 83.7256 225.68C81.3256 225.68 79.5016 224 79.5016 221.584C79.5016 219.168 81.3256 217.52 83.7256 217.52C85.1336 217.52 86.3496 218.096 87.0536 219.2V217.584ZM83.8376 224.672C85.6936 224.672 87.0376 223.408 87.0376 221.584C87.0376 219.76 85.6936 218.512 83.8376 218.512C81.9816 218.512 80.6536 219.76 80.6536 221.584C80.6536 223.408 81.9816 224.672 83.8376 224.672ZM104.993 215.744C104.529 215.744 104.161 215.376 104.161 214.928C104.161 214.496 104.529 214.128 104.993 214.128C105.457 214.128 105.825 214.48 105.825 214.912C105.825 215.376 105.473 215.744 104.993 215.744ZM104.417 226V217.584H105.553V226H104.417ZM113.002 217.52C115.05 217.52 116.458 218.704 116.458 221.12V226H115.322V221.232C115.322 219.456 114.394 218.544 112.794 218.544C110.986 218.544 109.85 219.664 109.85 221.584V226H108.714V217.584H109.802V219.136C110.41 218.112 111.546 217.52 113.002 217.52ZM126.118 214.128H127.254V226H126.166V224.336C125.478 225.472 124.31 226.08 122.918 226.08C120.518 226.08 118.726 224.336 118.726 221.792C118.726 219.248 120.518 217.52 122.918 217.52C124.262 217.52 125.414 218.096 126.118 219.184V214.128ZM123.014 225.072C124.79 225.072 126.134 223.76 126.134 221.792C126.134 219.824 124.79 218.512 123.014 218.512C121.222 218.512 119.878 219.824 119.878 221.792C119.878 223.76 121.222 225.072 123.014 225.072ZM136.865 217.584H138.001V226H136.913V224.464C136.321 225.488 135.233 226.08 133.889 226.08C131.745 226.08 130.337 224.88 130.337 222.464V217.584H131.473V222.352C131.473 224.144 132.401 225.056 134.001 225.056C135.761 225.056 136.865 223.92 136.865 222V217.584ZM143.439 226.08C142.047 226.08 140.703 225.632 140.015 225.04L140.527 224.144C141.199 224.672 142.335 225.088 143.519 225.088C145.119 225.088 145.775 224.544 145.775 223.712C145.775 221.52 140.319 223.248 140.319 219.92C140.319 218.544 141.503 217.52 143.647 217.52C144.735 217.52 145.919 217.824 146.623 218.304L146.127 219.216C145.391 218.704 144.511 218.496 143.647 218.496C142.127 218.496 141.455 219.088 141.455 219.888C141.455 222.16 146.911 220.448 146.911 223.68C146.911 225.136 145.631 226.08 143.439 226.08ZM153.043 224.672L153.443 225.488C152.995 225.888 152.323 226.08 151.667 226.08C150.083 226.08 149.203 225.184 149.203 223.632V218.544H147.699V217.584H149.203V215.744H150.339V217.584H152.899V218.544H150.339V223.568C150.339 224.56 150.851 225.104 151.795 225.104C152.259 225.104 152.723 224.96 153.043 224.672ZM156.599 219.232C157.127 218.112 158.199 217.52 159.751 217.52V218.624C159.655 218.624 159.559 218.608 159.479 218.608C157.719 218.608 156.647 219.728 156.647 221.712V226H155.511V217.584H156.599V219.232ZM168.119 217.584H169.239L165.031 227.008C164.327 228.656 163.431 229.184 162.231 229.184C161.447 229.184 160.695 228.928 160.183 228.416L160.711 227.568C161.127 227.984 161.639 228.208 162.247 228.208C162.999 228.208 163.511 227.856 163.991 226.8L164.359 225.984L160.599 217.584H161.783L164.951 224.736L168.119 217.584ZM191.282 221.792C191.282 221.888 191.266 222.016 191.266 222.144H184.226C184.354 223.904 185.698 225.072 187.538 225.072C188.562 225.072 189.474 224.704 190.114 223.968L190.754 224.704C190.002 225.6 188.834 226.08 187.506 226.08C184.882 226.08 183.09 224.288 183.09 221.792C183.09 219.296 184.834 217.52 187.202 217.52C189.57 217.52 191.282 219.264 191.282 221.792ZM187.202 218.496C185.57 218.496 184.37 219.648 184.226 221.296H190.194C190.05 219.648 188.85 218.496 187.202 218.496ZM200.016 226H198.72L196.048 222.48L193.36 226H192.08L195.408 221.68L192.24 217.584H193.52L196.048 220.88L198.576 217.584H199.824L196.656 221.68L200.016 226ZM206.243 217.52C208.643 217.52 210.435 219.248 210.435 221.792C210.435 224.352 208.643 226.08 206.243 226.08C204.899 226.08 203.747 225.504 203.043 224.416V229.104H201.907V217.584H202.995V219.248C203.683 218.128 204.851 217.52 206.243 217.52ZM206.163 225.072C207.939 225.072 209.299 223.76 209.299 221.792C209.299 219.84 207.939 218.512 206.163 218.512C204.371 218.512 203.027 219.84 203.027 221.792C203.027 223.76 204.371 225.072 206.163 225.072ZM220.095 221.792C220.095 221.888 220.079 222.016 220.079 222.144H213.039C213.167 223.904 214.511 225.072 216.351 225.072C217.375 225.072 218.287 224.704 218.927 223.968L219.567 224.704C218.815 225.6 217.647 226.08 216.319 226.08C213.695 226.08 211.903 224.288 211.903 221.792C211.903 219.296 213.647 217.52 216.015 217.52C218.383 217.52 220.095 219.264 220.095 221.792ZM216.015 218.496C214.383 218.496 213.183 219.648 213.039 221.296H219.007C218.863 219.648 217.663 218.496 216.015 218.496ZM223.495 219.232C224.023 218.112 225.095 217.52 226.647 217.52V218.624C226.551 218.624 226.455 218.608 226.375 218.608C224.615 218.608 223.543 219.728 223.543 221.712V226H222.407V217.584H223.495V219.232ZM233.095 224.672L233.495 225.488C233.047 225.888 232.375 226.08 231.719 226.08C230.135 226.08 229.255 225.184 229.255 223.632V218.544H227.751V217.584H229.255V215.744H230.391V217.584H232.951V218.544H230.391V223.568C230.391 224.56 230.903 225.104 231.847 225.104C232.311 225.104 232.775 224.96 233.095 224.672ZM236.139 215.744C235.675 215.744 235.307 215.376 235.307 214.928C235.307 214.496 235.675 214.128 236.139 214.128C236.603 214.128 236.971 214.48 236.971 214.912C236.971 215.376 236.619 215.744 236.139 215.744ZM235.563 226V217.584H236.699V226H235.563ZM242.116 226.08C240.724 226.08 239.38 225.632 238.692 225.04L239.204 224.144C239.876 224.672 241.012 225.088 242.196 225.088C243.796 225.088 244.452 224.544 244.452 223.712C244.452 221.52 238.996 223.248 238.996 219.92C238.996 218.544 240.18 217.52 242.324 217.52C243.412 217.52 244.596 217.824 245.3 218.304L244.804 219.216C244.068 218.704 243.188 218.496 242.324 218.496C240.804 218.496 240.132 219.088 240.132 219.888C240.132 222.16 245.588 220.448 245.588 223.68C245.588 225.136 244.308 226.08 242.116 226.08ZM255.032 221.792C255.032 221.888 255.016 222.016 255.016 222.144H247.976C248.104 223.904 249.448 225.072 251.288 225.072C252.312 225.072 253.224 224.704 253.864 223.968L254.504 224.704C253.752 225.6 252.584 226.08 251.256 226.08C248.632 226.08 246.84 224.288 246.84 221.792C246.84 219.296 248.584 217.52 250.952 217.52C253.32 217.52 255.032 219.264 255.032 221.792ZM250.952 218.496C249.32 218.496 248.12 219.648 247.976 221.296H253.944C253.8 219.648 252.6 218.496 250.952 218.496ZM273.387 217.52C275.563 217.52 276.795 218.608 276.795 220.784V226H275.707V224.688C275.195 225.552 274.203 226.08 272.811 226.08C270.907 226.08 269.739 225.088 269.739 223.632C269.739 222.336 270.571 221.248 272.987 221.248H275.659V220.736C275.659 219.296 274.843 218.512 273.275 218.512C272.187 218.512 271.163 218.896 270.475 219.504L269.963 218.656C270.811 217.936 272.059 217.52 273.387 217.52ZM272.987 225.184C274.267 225.184 275.211 224.576 275.659 223.472V222.096H273.019C271.387 222.096 270.859 222.736 270.859 223.6C270.859 224.576 271.643 225.184 272.987 225.184ZM284.169 217.52C286.217 217.52 287.625 218.704 287.625 221.12V226H286.489V221.232C286.489 219.456 285.561 218.544 283.961 218.544C282.153 218.544 281.017 219.664 281.017 221.584V226H279.881V217.584H280.969V219.136C281.577 218.112 282.713 217.52 284.169 217.52ZM297.284 214.128H298.42V226H297.332V224.336C296.644 225.472 295.476 226.08 294.084 226.08C291.684 226.08 289.892 224.336 289.892 221.792C289.892 219.248 291.684 217.52 294.084 217.52C295.428 217.52 296.58 218.096 297.284 219.184V214.128ZM294.18 225.072C295.956 225.072 297.3 223.76 297.3 221.792C297.3 219.824 295.956 218.512 294.18 218.512C292.388 218.512 291.044 219.824 291.044 221.792C291.044 223.76 292.388 225.072 294.18 225.072ZM12.08 239.52C14.128 239.52 15.472 240.704 15.472 243.12V248H14.336V243.232C14.336 241.456 13.44 240.544 11.92 240.544C10.192 240.544 9.104 241.664 9.104 243.584V248H7.968V243.232C7.968 241.456 7.072 240.544 5.536 240.544C3.824 240.544 2.72 241.664 2.72 243.584V248H1.584V239.584H2.672V241.12C3.264 240.112 4.352 239.52 5.76 239.52C7.152 239.52 8.24 240.112 8.752 241.296C9.36 240.208 10.56 239.52 12.08 239.52ZM21.4968 239.52C23.6728 239.52 24.9048 240.608 24.9048 242.784V248H23.8168V246.688C23.3048 247.552 22.3128 248.08 20.9208 248.08C19.0168 248.08 17.8488 247.088 17.8488 245.632C17.8488 244.336 18.6808 243.248 21.0968 243.248H23.7688V242.736C23.7688 241.296 22.9528 240.512 21.3848 240.512C20.2968 240.512 19.2728 240.896 18.5848 241.504L18.0728 240.656C18.9208 239.936 20.1688 239.52 21.4968 239.52ZM21.0968 247.184C22.3768 247.184 23.3208 246.576 23.7688 245.472V244.096H21.1288C19.4968 244.096 18.9688 244.736 18.9688 245.6C18.9688 246.576 19.7528 247.184 21.0968 247.184ZM29.0783 241.232C29.6063 240.112 30.6783 239.52 32.2303 239.52V240.624C32.1343 240.624 32.0383 240.608 31.9583 240.608C30.1983 240.608 29.1263 241.728 29.1263 243.712V248H27.9903V239.584H29.0783V241.232ZM40.7991 248L37.4071 243.776L35.4231 245.6V248H34.2871V236.128H35.4231V244.176L40.4471 239.584H41.8551L38.2551 243.024L42.1911 248H40.7991ZM50.8968 243.792C50.8968 243.888 50.8808 244.016 50.8808 244.144H43.8408C43.9688 245.904 45.3128 247.072 47.1528 247.072C48.1768 247.072 49.0888 246.704 49.7288 245.968L50.3688 246.704C49.6168 247.6 48.4488 248.08 47.1208 248.08C44.4968 248.08 42.7048 246.288 42.7048 243.792C42.7048 241.296 44.4488 239.52 46.8168 239.52C49.1848 239.52 50.8968 241.264 50.8968 243.792ZM46.8168 240.496C45.1848 240.496 43.9848 241.648 43.8408 243.296H49.8088C49.6648 241.648 48.4648 240.496 46.8168 240.496ZM57.241 246.672L57.641 247.488C57.193 247.888 56.521 248.08 55.865 248.08C54.281 248.08 53.401 247.184 53.401 245.632V240.544H51.897V239.584H53.401V237.744H54.537V239.584H57.097V240.544H54.537V245.568C54.537 246.56 55.049 247.104 55.993 247.104C56.457 247.104 56.921 246.96 57.241 246.672ZM67.2975 237.744C66.8335 237.744 66.4655 237.376 66.4655 236.928C66.4655 236.496 66.8335 236.128 67.2975 236.128C67.7615 236.128 68.1295 236.48 68.1295 236.912C68.1295 237.376 67.7775 237.744 67.2975 237.744ZM66.7215 248V239.584H67.8575V248H66.7215ZM75.3064 239.52C77.3544 239.52 78.7624 240.704 78.7624 243.12V248H77.6264V243.232C77.6264 241.456 76.6984 240.544 75.0984 240.544C73.2904 240.544 72.1544 241.664 72.1544 243.584V248H71.0184V239.584H72.1064V241.136C72.7144 240.112 73.8504 239.52 75.3064 239.52ZM84.1025 248.08C82.7105 248.08 81.3665 247.632 80.6785 247.04L81.1905 246.144C81.8625 246.672 82.9985 247.088 84.1825 247.088C85.7825 247.088 86.4385 246.544 86.4385 245.712C86.4385 243.52 80.9825 245.248 80.9825 241.92C80.9825 240.544 82.1665 239.52 84.3105 239.52C85.3985 239.52 86.5825 239.824 87.2865 240.304L86.7905 241.216C86.0545 240.704 85.1745 240.496 84.3105 240.496C82.7905 240.496 82.1185 241.088 82.1185 241.888C82.1185 244.16 87.5745 242.448 87.5745 245.68C87.5745 247.136 86.2945 248.08 84.1025 248.08ZM90.2506 237.744C89.7866 237.744 89.4186 237.376 89.4186 236.928C89.4186 236.496 89.7866 236.128 90.2506 236.128C90.7146 236.128 91.0826 236.48 91.0826 236.912C91.0826 237.376 90.7306 237.744 90.2506 237.744ZM89.6746 248V239.584H90.8106V248H89.6746ZM100.675 239.584H101.763V246.976C101.763 249.872 100.339 251.184 97.5555 251.184C96.0195 251.184 94.5155 250.72 93.6355 249.888L94.2115 249.024C95.0115 249.744 96.2275 250.176 97.5235 250.176C99.6515 250.176 100.627 249.2 100.627 247.12V246.048C99.9235 247.12 98.7235 247.68 97.3475 247.68C94.9475 247.68 93.1235 246 93.1235 243.584C93.1235 241.168 94.9475 239.52 97.3475 239.52C98.7555 239.52 99.9715 240.096 100.675 241.2V239.584ZM97.4595 246.672C99.3155 246.672 100.659 245.408 100.659 243.584C100.659 241.76 99.3155 240.512 97.4595 240.512C95.6035 240.512 94.2755 241.76 94.2755 243.584C94.2755 245.408 95.6035 246.672 97.4595 246.672ZM109.228 239.52C111.276 239.52 112.684 240.704 112.684 243.12V248H111.548V243.232C111.548 241.456 110.62 240.544 109.02 240.544C107.212 240.544 106.076 241.664 106.076 243.584V248H104.94V236.128H106.076V241.056C106.7 240.08 107.804 239.52 109.228 239.52ZM119.8 246.672L120.2 247.488C119.752 247.888 119.08 248.08 118.424 248.08C116.84 248.08 115.96 247.184 115.96 245.632V240.544H114.456V239.584H115.96V237.744H117.096V239.584H119.656V240.544H117.096V245.568C117.096 246.56 117.608 247.104 118.552 247.104C119.016 247.104 119.48 246.96 119.8 246.672ZM124.524 248.08C123.132 248.08 121.788 247.632 121.1 247.04L121.612 246.144C122.284 246.672 123.42 247.088 124.604 247.088C126.204 247.088 126.86 246.544 126.86 245.712C126.86 243.52 121.404 245.248 121.404 241.92C121.404 240.544 122.588 239.52 124.732 239.52C125.82 239.52 127.004 239.824 127.708 240.304L127.212 241.216C126.476 240.704 125.596 240.496 124.732 240.496C123.212 240.496 122.54 241.088 122.54 241.888C122.54 244.16 127.996 242.448 127.996 245.68C127.996 247.136 126.716 248.08 124.524 248.08ZM130.224 246.336C130.72 246.336 131.072 246.72 131.072 247.2C131.072 247.472 131.008 247.68 130.848 248.128L130.176 250.336H129.408L129.952 248.016C129.616 247.92 129.376 247.616 129.376 247.2C129.376 246.704 129.744 246.336 130.224 246.336ZM151.812 239.584H152.852L149.668 248H148.596L145.94 241.104L143.284 248H142.212L139.044 239.584H140.132L142.772 246.736L145.476 239.584H146.452L149.14 246.736L151.812 239.584ZM161.672 243.792C161.672 243.888 161.656 244.016 161.656 244.144H154.616C154.744 245.904 156.088 247.072 157.928 247.072C158.952 247.072 159.864 246.704 160.504 245.968L161.144 246.704C160.392 247.6 159.224 248.08 157.896 248.08C155.272 248.08 153.48 246.288 153.48 243.792C153.48 241.296 155.224 239.52 157.592 239.52C159.96 239.52 161.672 241.264 161.672 243.792ZM157.592 240.496C155.96 240.496 154.76 241.648 154.616 243.296H160.584C160.44 241.648 159.24 240.496 157.592 240.496ZM177.541 236.128H178.677V248H177.589V246.336C176.901 247.472 175.733 248.08 174.341 248.08C171.941 248.08 170.149 246.336 170.149 243.792C170.149 241.248 171.941 239.52 174.341 239.52C175.685 239.52 176.837 240.096 177.541 241.184V236.128ZM174.437 247.072C176.213 247.072 177.557 245.76 177.557 243.792C177.557 241.824 176.213 240.512 174.437 240.512C172.645 240.512 171.301 241.824 171.301 243.792C171.301 245.76 172.645 247.072 174.437 247.072ZM189.184 243.792C189.184 243.888 189.168 244.016 189.168 244.144H182.128C182.256 245.904 183.6 247.072 185.44 247.072C186.464 247.072 187.376 246.704 188.016 245.968L188.656 246.704C187.904 247.6 186.736 248.08 185.408 248.08C182.784 248.08 180.992 246.288 180.992 243.792C180.992 241.296 182.736 239.52 185.104 239.52C187.472 239.52 189.184 241.264 189.184 243.792ZM185.104 240.496C183.472 240.496 182.272 241.648 182.128 243.296H188.096C187.952 241.648 186.752 240.496 185.104 240.496ZM193.753 248.08C192.361 248.08 191.017 247.632 190.329 247.04L190.841 246.144C191.513 246.672 192.649 247.088 193.833 247.088C195.433 247.088 196.089 246.544 196.089 245.712C196.089 243.52 190.633 245.248 190.633 241.92C190.633 240.544 191.817 239.52 193.961 239.52C195.049 239.52 196.233 239.824 196.937 240.304L196.441 241.216C195.705 240.704 194.825 240.496 193.961 240.496C192.441 240.496 191.769 241.088 191.769 241.888C191.769 244.16 197.225 242.448 197.225 245.68C197.225 247.136 195.945 248.08 193.753 248.08ZM199.901 237.744C199.437 237.744 199.069 237.376 199.069 236.928C199.069 236.496 199.437 236.128 199.901 236.128C200.365 236.128 200.733 236.48 200.733 236.912C200.733 237.376 200.381 237.744 199.901 237.744ZM199.325 248V239.584H200.461V248H199.325ZM210.326 239.584H211.414V246.976C211.414 249.872 209.99 251.184 207.206 251.184C205.67 251.184 204.166 250.72 203.286 249.888L203.862 249.024C204.662 249.744 205.878 250.176 207.174 250.176C209.302 250.176 210.278 249.2 210.278 247.12V246.048C209.574 247.12 208.374 247.68 206.998 247.68C204.598 247.68 202.774 246 202.774 243.584C202.774 241.168 204.598 239.52 206.998 239.52C208.406 239.52 209.622 240.096 210.326 241.2V239.584ZM207.11 246.672C208.966 246.672 210.31 245.408 210.31 243.584C210.31 241.76 208.966 240.512 207.11 240.512C205.254 240.512 203.926 241.76 203.926 243.584C203.926 245.408 205.254 246.672 207.11 246.672ZM218.878 239.52C220.926 239.52 222.334 240.704 222.334 243.12V248H221.198V243.232C221.198 241.456 220.27 240.544 218.67 240.544C216.862 240.544 215.726 241.664 215.726 243.584V248H214.59V239.584H215.678V241.136C216.286 240.112 217.422 239.52 218.878 239.52ZM237.279 248V246.32L237.119 245.952V242.944C237.119 242.411 236.954 241.995 236.623 241.696C236.303 241.397 235.807 241.248 235.135 241.248C234.676 241.248 234.223 241.323 233.775 241.472C233.338 241.611 232.964 241.803 232.655 242.048L231.759 240.304C232.228 239.973 232.794 239.717 233.455 239.536C234.116 239.355 234.788 239.264 235.471 239.264C236.783 239.264 237.802 239.573 238.527 240.192C239.252 240.811 239.615 241.776 239.615 243.088V248H237.279ZM234.655 248.128C233.983 248.128 233.407 248.016 232.927 247.792C232.447 247.557 232.079 247.243 231.823 246.848C231.567 246.453 231.439 246.011 231.439 245.52C231.439 245.008 231.562 244.56 231.807 244.176C232.063 243.792 232.463 243.493 233.007 243.28C233.551 243.056 234.26 242.944 235.135 242.944H237.423V244.4H235.407C234.82 244.4 234.415 244.496 234.191 244.688C233.978 244.88 233.871 245.12 233.871 245.408C233.871 245.728 233.994 245.984 234.239 246.176C234.495 246.357 234.842 246.448 235.279 246.448C235.695 246.448 236.068 246.352 236.399 246.16C236.73 245.957 236.97 245.664 237.119 245.28L237.503 246.432C237.322 246.987 236.991 247.408 236.511 247.696C236.031 247.984 235.412 248.128 234.655 248.128ZM247.106 239.264C247.789 239.264 248.397 239.403 248.93 239.68C249.474 239.947 249.901 240.363 250.21 240.928C250.519 241.483 250.674 242.197 250.674 243.072V248H248.178V243.456C248.178 242.763 248.023 242.251 247.714 241.92C247.415 241.589 246.989 241.424 246.434 241.424C246.039 241.424 245.682 241.509 245.362 241.68C245.053 241.84 244.807 242.091 244.626 242.432C244.455 242.773 244.37 243.211 244.37 243.744V248H241.874V239.392H244.258V241.776L243.81 241.056C244.119 240.48 244.562 240.037 245.138 239.728C245.714 239.419 246.37 239.264 247.106 239.264ZM265.573 248V246.32L265.413 245.952V242.944C265.413 242.411 265.247 241.995 264.917 241.696C264.597 241.397 264.101 241.248 263.429 241.248C262.97 241.248 262.517 241.323 262.069 241.472C261.631 241.611 261.258 241.803 260.949 242.048L260.053 240.304C260.522 239.973 261.087 239.717 261.749 239.536C262.41 239.355 263.082 239.264 263.765 239.264C265.077 239.264 266.095 239.573 266.821 240.192C267.546 240.811 267.909 241.776 267.909 243.088V248H265.573ZM262.949 248.128C262.277 248.128 261.701 248.016 261.221 247.792C260.741 247.557 260.373 247.243 260.117 246.848C259.861 246.453 259.733 246.011 259.733 245.52C259.733 245.008 259.855 244.56 260.101 244.176C260.357 243.792 260.757 243.493 261.301 243.28C261.845 243.056 262.554 242.944 263.429 242.944H265.717V244.4H263.701C263.114 244.4 262.709 244.496 262.485 244.688C262.271 244.88 262.165 245.12 262.165 245.408C262.165 245.728 262.287 245.984 262.533 246.176C262.789 246.357 263.135 246.448 263.573 246.448C263.989 246.448 264.362 246.352 264.693 246.16C265.023 245.957 265.263 245.664 265.413 245.28L265.797 246.432C265.615 246.987 265.285 247.408 264.805 247.696C264.325 247.984 263.706 248.128 262.949 248.128ZM274.278 251.232C273.467 251.232 272.683 251.131 271.926 250.928C271.179 250.736 270.555 250.443 270.054 250.048L271.046 248.256C271.409 248.555 271.867 248.789 272.422 248.96C272.987 249.141 273.542 249.232 274.086 249.232C274.971 249.232 275.611 249.035 276.006 248.64C276.411 248.245 276.614 247.659 276.614 246.88V245.584L276.774 243.424L276.742 241.248V239.392H279.11V246.56C279.11 248.16 278.694 249.339 277.862 250.096C277.03 250.853 275.835 251.232 274.278 251.232ZM273.894 247.584C273.094 247.584 272.369 247.413 271.718 247.072C271.078 246.72 270.561 246.235 270.166 245.616C269.782 244.987 269.59 244.256 269.59 243.424C269.59 242.581 269.782 241.851 270.166 241.232C270.561 240.603 271.078 240.117 271.718 239.776C272.369 239.435 273.094 239.264 273.894 239.264C274.619 239.264 275.259 239.413 275.814 239.712C276.369 240 276.801 240.453 277.11 241.072C277.419 241.68 277.574 242.464 277.574 243.424C277.574 244.373 277.419 245.157 277.11 245.776C276.801 246.384 276.369 246.837 275.814 247.136C275.259 247.435 274.619 247.584 273.894 247.584ZM274.39 245.536C274.827 245.536 275.217 245.451 275.558 245.28C275.899 245.099 276.166 244.848 276.358 244.528C276.55 244.208 276.646 243.84 276.646 243.424C276.646 242.997 276.55 242.629 276.358 242.32C276.166 242 275.899 241.755 275.558 241.584C275.217 241.403 274.827 241.312 274.39 241.312C273.953 241.312 273.563 241.403 273.222 241.584C272.881 241.755 272.609 242 272.406 242.32C272.214 242.629 272.118 242.997 272.118 243.424C272.118 243.84 272.214 244.208 272.406 244.528C272.609 244.848 272.881 245.099 273.222 245.28C273.563 245.451 273.953 245.536 274.39 245.536ZM281.433 248V239.392H283.929V248H281.433ZM282.681 238.192C282.223 238.192 281.849 238.059 281.561 237.792C281.273 237.525 281.129 237.195 281.129 236.8C281.129 236.405 281.273 236.075 281.561 235.808C281.849 235.541 282.223 235.408 282.681 235.408C283.14 235.408 283.513 235.536 283.801 235.792C284.089 236.037 284.233 236.357 284.233 236.752C284.233 237.168 284.089 237.515 283.801 237.792C283.524 238.059 283.151 238.192 282.681 238.192ZM286.246 248V236.128H288.742V248H286.246ZM295.33 248.128C294.349 248.128 293.485 247.936 292.738 247.552C292.002 247.168 291.432 246.645 291.026 245.984C290.621 245.312 290.418 244.549 290.418 243.696C290.418 242.832 290.616 242.069 291.01 241.408C291.416 240.736 291.965 240.213 292.658 239.84C293.352 239.456 294.136 239.264 295.01 239.264C295.853 239.264 296.61 239.445 297.282 239.808C297.965 240.16 298.504 240.672 298.898 241.344C299.293 242.005 299.49 242.8 299.49 243.728C299.49 243.824 299.485 243.936 299.474 244.064C299.464 244.181 299.453 244.293 299.442 244.4H292.45V242.944H298.13L297.17 243.376C297.17 242.928 297.08 242.539 296.898 242.208C296.717 241.877 296.466 241.621 296.146 241.44C295.826 241.248 295.453 241.152 295.026 241.152C294.6 241.152 294.221 241.248 293.89 241.44C293.57 241.621 293.32 241.883 293.138 242.224C292.957 242.555 292.866 242.949 292.866 243.408V243.792C292.866 244.261 292.968 244.677 293.17 245.04C293.384 245.392 293.677 245.664 294.05 245.856C294.434 246.037 294.882 246.128 295.394 246.128C295.853 246.128 296.253 246.059 296.594 245.92C296.946 245.781 297.266 245.573 297.554 245.296L298.882 246.736C298.488 247.184 297.992 247.531 297.394 247.776C296.797 248.011 296.109 248.128 295.33 248.128ZM6.24 270.128C5.51467 270.128 4.88 269.968 4.336 269.648C3.792 269.328 3.36533 268.843 3.056 268.192C2.75733 267.531 2.608 266.699 2.608 265.696C2.608 264.683 2.752 263.851 3.04 263.2C3.328 262.549 3.744 262.064 4.288 261.744C4.832 261.424 5.48267 261.264 6.24 261.264C7.05067 261.264 7.776 261.451 8.416 261.824C9.06667 262.187 9.57867 262.699 9.952 263.36C10.336 264.021 10.528 264.8 10.528 265.696C10.528 266.603 10.336 267.387 9.952 268.048C9.57867 268.709 9.06667 269.221 8.416 269.584C7.776 269.947 7.05067 270.128 6.24 270.128ZM1.152 273.104V261.392H3.536V263.152L3.488 265.712L3.648 268.256V273.104H1.152ZM5.808 268.08C6.224 268.08 6.592 267.984 6.912 267.792C7.24267 267.6 7.504 267.328 7.696 266.976C7.89867 266.613 8 266.187 8 265.696C8 265.195 7.89867 264.768 7.696 264.416C7.504 264.064 7.24267 263.792 6.912 263.6C6.592 263.408 6.224 263.312 5.808 263.312C5.392 263.312 5.01867 263.408 4.688 263.6C4.35733 263.792 4.096 264.064 3.904 264.416C3.712 264.768 3.616 265.195 3.616 265.696C3.616 266.187 3.712 266.613 3.904 266.976C4.096 267.328 4.35733 267.6 4.688 267.792C5.01867 267.984 5.392 268.08 5.808 268.08ZM12.1989 270V258.128H14.6949V270H12.1989ZM22.2914 270V268.32L22.1314 267.952V264.944C22.1314 264.411 21.966 263.995 21.6354 263.696C21.3154 263.397 20.8194 263.248 20.1474 263.248C19.6887 263.248 19.2354 263.323 18.7874 263.472C18.35 263.611 17.9767 263.803 17.6674 264.048L16.7714 262.304C17.2407 261.973 17.806 261.717 18.4674 261.536C19.1287 261.355 19.8007 261.264 20.4834 261.264C21.7954 261.264 22.814 261.573 23.5394 262.192C24.2647 262.811 24.6274 263.776 24.6274 265.088V270H22.2914ZM19.6674 270.128C18.9954 270.128 18.4194 270.016 17.9394 269.792C17.4594 269.557 17.0914 269.243 16.8354 268.848C16.5794 268.453 16.4514 268.011 16.4514 267.52C16.4514 267.008 16.574 266.56 16.8194 266.176C17.0754 265.792 17.4754 265.493 18.0194 265.28C18.5634 265.056 19.2727 264.944 20.1474 264.944H22.4354V266.4H20.4194C19.8327 266.4 19.4274 266.496 19.2034 266.688C18.99 266.88 18.8834 267.12 18.8834 267.408C18.8834 267.728 19.006 267.984 19.2514 268.176C19.5074 268.357 19.854 268.448 20.2914 268.448C20.7074 268.448 21.0807 268.352 21.4114 268.16C21.742 267.957 21.982 267.664 22.1314 267.28L22.5154 268.432C22.334 268.987 22.0034 269.408 21.5234 269.696C21.0434 269.984 20.4247 270.128 19.6674 270.128ZM32.1184 261.264C32.801 261.264 33.409 261.403 33.9424 261.68C34.4864 261.947 34.913 262.363 35.2224 262.928C35.5317 263.483 35.6864 264.197 35.6864 265.072V270H33.1904V265.456C33.1904 264.763 33.0357 264.251 32.7264 263.92C32.4277 263.589 32.001 263.424 31.4464 263.424C31.0517 263.424 30.6944 263.509 30.3744 263.68C30.065 263.84 29.8197 264.091 29.6384 264.432C29.4677 264.773 29.3824 265.211 29.3824 265.744V270H26.8864V261.392H29.2704V263.776L28.8224 263.056C29.1317 262.48 29.5744 262.037 30.1504 261.728C30.7264 261.419 31.3824 261.264 32.1184 261.264ZM66.4493 270.128C65.436 270.128 64.6467 269.872 64.0813 269.36C63.516 268.837 63.2333 268.064 63.2333 267.04V259.488H65.7293V267.008C65.7293 267.371 65.8253 267.653 66.0173 267.856C66.2093 268.048 66.4707 268.144 66.8013 268.144C67.196 268.144 67.532 268.037 67.8093 267.824L68.4813 269.584C68.2253 269.765 67.916 269.904 67.5533 270C67.2013 270.085 66.8333 270.128 66.4493 270.128ZM61.9053 263.504V261.584H67.8733V263.504H61.9053ZM75.1625 270V268.32L75.0025 267.952V264.944C75.0025 264.411 74.8371 263.995 74.5065 263.696C74.1865 263.397 73.6905 263.248 73.0185 263.248C72.5598 263.248 72.1065 263.323 71.6585 263.472C71.2211 263.611 70.8478 263.803 70.5385 264.048L69.6425 262.304C70.1118 261.973 70.6771 261.717 71.3385 261.536C71.9998 261.355 72.6718 261.264 73.3545 261.264C74.6665 261.264 75.6851 261.573 76.4105 262.192C77.1358 262.811 77.4985 263.776 77.4985 265.088V270H75.1625ZM72.5385 270.128C71.8665 270.128 71.2905 270.016 70.8105 269.792C70.3305 269.557 69.9625 269.243 69.7065 268.848C69.4505 268.453 69.3225 268.011 69.3225 267.52C69.3225 267.008 69.4451 266.56 69.6905 266.176C69.9465 265.792 70.3465 265.493 70.8905 265.28C71.4345 265.056 72.1438 264.944 73.0185 264.944H75.3065V266.4H73.2905C72.7038 266.4 72.2985 266.496 72.0745 266.688C71.8611 266.88 71.7545 267.12 71.7545 267.408C71.7545 267.728 71.8771 267.984 72.1225 268.176C72.3785 268.357 72.7251 268.448 73.1625 268.448C73.5785 268.448 73.9518 268.352 74.2825 268.16C74.6131 267.957 74.8531 267.664 75.0025 267.28L75.3865 268.432C75.2051 268.987 74.8745 269.408 74.3945 269.696C73.9145 269.984 73.2958 270.128 72.5385 270.128ZM79.7575 270V261.392H82.2535V270H79.7575ZM81.0055 260.192C80.5468 260.192 80.1735 260.059 79.8855 259.792C79.5975 259.525 79.4535 259.195 79.4535 258.8C79.4535 258.405 79.5975 258.075 79.8855 257.808C80.1735 257.541 80.5468 257.408 81.0055 257.408C81.4641 257.408 81.8375 257.536 82.1255 257.792C82.4135 258.037 82.5575 258.357 82.5575 258.752C82.5575 259.168 82.4135 259.515 82.1255 259.792C81.8481 260.059 81.4748 260.192 81.0055 260.192ZM84.57 270V258.128H87.066V270H84.57ZM93.4785 270.128C92.5611 270.128 91.7451 269.936 91.0305 269.552C90.3265 269.168 89.7665 268.645 89.3505 267.984C88.9451 267.312 88.7425 266.549 88.7425 265.696C88.7425 264.832 88.9451 264.069 89.3505 263.408C89.7665 262.736 90.3265 262.213 91.0305 261.84C91.7451 261.456 92.5611 261.264 93.4785 261.264C94.3851 261.264 95.1958 261.456 95.9105 261.84C96.6251 262.213 97.1851 262.731 97.5905 263.392C97.9958 264.053 98.1985 264.821 98.1985 265.696C98.1985 266.549 97.9958 267.312 97.5905 267.984C97.1851 268.645 96.6251 269.168 95.9105 269.552C95.1958 269.936 94.3851 270.128 93.4785 270.128ZM93.4785 268.08C93.8945 268.08 94.2678 267.984 94.5985 267.792C94.9291 267.6 95.1905 267.328 95.3825 266.976C95.5745 266.613 95.6705 266.187 95.6705 265.696C95.6705 265.195 95.5745 264.768 95.3825 264.416C95.1905 264.064 94.9291 263.792 94.5985 263.6C94.2678 263.408 93.8945 263.312 93.4785 263.312C93.0625 263.312 92.6891 263.408 92.3585 263.6C92.0278 263.792 91.7611 264.064 91.5585 264.416C91.3665 264.768 91.2705 265.195 91.2705 265.696C91.2705 266.187 91.3665 266.613 91.5585 266.976C91.7611 267.328 92.0278 267.6 92.3585 267.792C92.6891 267.984 93.0625 268.08 93.4785 268.08ZM99.8668 270V261.392H102.251V263.824L101.915 263.12C102.171 262.512 102.582 262.053 103.147 261.744C103.712 261.424 104.4 261.264 105.211 261.264V263.568C105.104 263.557 105.008 263.552 104.923 263.552C104.838 263.541 104.747 263.536 104.651 263.536C103.968 263.536 103.414 263.733 102.987 264.128C102.571 264.512 102.363 265.115 102.363 265.936V270H99.8668ZM110.904 270.128C109.923 270.128 109.059 269.936 108.312 269.552C107.576 269.168 107.006 268.645 106.6 267.984C106.195 267.312 105.992 266.549 105.992 265.696C105.992 264.832 106.19 264.069 106.584 263.408C106.99 262.736 107.539 262.213 108.232 261.84C108.926 261.456 109.71 261.264 110.584 261.264C111.427 261.264 112.184 261.445 112.856 261.808C113.539 262.16 114.078 262.672 114.472 263.344C114.867 264.005 115.064 264.8 115.064 265.728C115.064 265.824 115.059 265.936 115.048 266.064C115.038 266.181 115.027 266.293 115.016 266.4H108.024V264.944H113.704L112.744 265.376C112.744 264.928 112.654 264.539 112.472 264.208C112.291 263.877 112.04 263.621 111.72 263.44C111.4 263.248 111.027 263.152 110.6 263.152C110.174 263.152 109.795 263.248 109.464 263.44C109.144 263.621 108.894 263.883 108.712 264.224C108.531 264.555 108.44 264.949 108.44 265.408V265.792C108.44 266.261 108.542 266.677 108.744 267.04C108.958 267.392 109.251 267.664 109.624 267.856C110.008 268.037 110.456 268.128 110.968 268.128C111.427 268.128 111.827 268.059 112.168 267.92C112.52 267.781 112.84 267.573 113.128 267.296L114.456 268.736C114.062 269.184 113.566 269.531 112.968 269.776C112.371 270.011 111.683 270.128 110.904 270.128ZM120.422 270.128C119.612 270.128 118.881 269.947 118.23 269.584C117.58 269.211 117.062 268.693 116.678 268.032C116.305 267.371 116.118 266.592 116.118 265.696C116.118 264.789 116.305 264.005 116.678 263.344C117.062 262.683 117.58 262.171 118.23 261.808C118.881 261.445 119.612 261.264 120.422 261.264C121.148 261.264 121.782 261.424 122.326 261.744C122.87 262.064 123.292 262.549 123.59 263.2C123.889 263.851 124.038 264.683 124.038 265.696C124.038 266.699 123.894 267.531 123.606 268.192C123.318 268.843 122.902 269.328 122.358 269.648C121.825 269.968 121.18 270.128 120.422 270.128ZM120.854 268.08C121.26 268.08 121.628 267.984 121.958 267.792C122.289 267.6 122.55 267.328 122.742 266.976C122.945 266.613 123.046 266.187 123.046 265.696C123.046 265.195 122.945 264.768 122.742 264.416C122.55 264.064 122.289 263.792 121.958 263.6C121.628 263.408 121.26 263.312 120.854 263.312C120.438 263.312 120.065 263.408 119.734 263.6C119.404 263.792 119.137 264.064 118.934 264.416C118.742 264.768 118.646 265.195 118.646 265.696C118.646 266.187 118.742 266.613 118.934 266.976C119.137 267.328 119.404 267.6 119.734 267.792C120.065 267.984 120.438 268.08 120.854 268.08ZM123.11 270V268.24L123.158 265.68L122.998 263.136V258.128H125.494V270H123.11ZM156.905 268.672L157.305 269.488C156.857 269.888 156.185 270.08 155.529 270.08C153.945 270.08 153.065 269.184 153.065 267.632V262.544H151.561V261.584H153.065V259.744H154.201V261.584H156.761V262.544H154.201V267.568C154.201 268.56 154.713 269.104 155.657 269.104C156.121 269.104 156.585 268.96 156.905 268.672ZM162.516 270.08C160.052 270.08 158.228 268.288 158.228 265.792C158.228 263.296 160.052 261.52 162.516 261.52C164.98 261.52 166.788 263.296 166.788 265.792C166.788 268.288 164.98 270.08 162.516 270.08ZM162.516 269.072C164.308 269.072 165.636 267.76 165.636 265.792C165.636 263.824 164.308 262.512 162.516 262.512C160.724 262.512 159.38 263.824 159.38 265.792C159.38 267.76 160.724 269.072 162.516 269.072ZM199.696 261.584H200.816L196.608 271.008C195.904 272.656 195.008 273.184 193.808 273.184C193.024 273.184 192.272 272.928 191.76 272.416L192.288 271.568C192.704 271.984 193.216 272.208 193.824 272.208C194.576 272.208 195.088 271.856 195.568 270.8L195.936 269.984L192.176 261.584H193.36L196.528 268.736L199.696 261.584ZM205.622 270.08C203.158 270.08 201.334 268.288 201.334 265.792C201.334 263.296 203.158 261.52 205.622 261.52C208.086 261.52 209.894 263.296 209.894 265.792C209.894 268.288 208.086 270.08 205.622 270.08ZM205.622 269.072C207.414 269.072 208.742 267.76 208.742 265.792C208.742 263.824 207.414 262.512 205.622 262.512C203.83 262.512 202.486 263.824 202.486 265.792C202.486 267.76 203.83 269.072 205.622 269.072ZM218.661 261.584H219.797V270H218.709V268.464C218.117 269.488 217.029 270.08 215.685 270.08C213.541 270.08 212.133 268.88 212.133 266.464V261.584H213.269V266.352C213.269 268.144 214.197 269.056 215.797 269.056C217.557 269.056 218.661 267.92 218.661 266V261.584ZM224.067 263.232C224.595 262.112 225.667 261.52 227.219 261.52V262.624C227.123 262.624 227.027 262.608 226.947 262.608C225.187 262.608 224.115 263.728 224.115 265.712V270H222.979V261.584H224.067V263.232ZM258.325 261.52C260.373 261.52 261.781 262.704 261.781 265.12V270H260.645V265.232C260.645 263.456 259.717 262.544 258.117 262.544C256.309 262.544 255.173 263.664 255.173 265.584V270H254.037V258.128H255.173V263.056C255.797 262.08 256.901 261.52 258.325 261.52ZM265.441 259.744C264.977 259.744 264.609 259.376 264.609 258.928C264.609 258.496 264.977 258.128 265.441 258.128C265.905 258.128 266.273 258.48 266.273 258.912C266.273 259.376 265.921 259.744 265.441 259.744ZM264.865 270V261.584H266.001V270H264.865ZM270.25 263.232C270.778 262.112 271.85 261.52 273.402 261.52V262.624C273.306 262.624 273.21 262.608 273.13 262.608C271.37 262.608 270.298 263.728 270.298 265.712V270H269.162V261.584H270.25V263.232ZM276.035 259.744C275.571 259.744 275.203 259.376 275.203 258.928C275.203 258.496 275.571 258.128 276.035 258.128C276.499 258.128 276.867 258.48 276.867 258.912C276.867 259.376 276.515 259.744 276.035 259.744ZM275.459 270V261.584H276.595V270H275.459ZM284.044 261.52C286.092 261.52 287.5 262.704 287.5 265.12V270H286.364V265.232C286.364 263.456 285.436 262.544 283.836 262.544C282.028 262.544 280.892 263.664 280.892 265.584V270H279.756V261.584H280.844V263.136C281.452 262.112 282.588 261.52 284.044 261.52ZM297.319 261.584H298.407V268.976C298.407 271.872 296.983 273.184 294.199 273.184C292.663 273.184 291.159 272.72 290.279 271.888L290.855 271.024C291.655 271.744 292.871 272.176 294.167 272.176C296.295 272.176 297.271 271.2 297.271 269.12V268.048C296.567 269.12 295.367 269.68 293.991 269.68C291.591 269.68 289.767 268 289.767 265.584C289.767 263.168 291.591 261.52 293.991 261.52C295.399 261.52 296.615 262.096 297.319 263.2V261.584ZM294.103 268.672C295.959 268.672 297.303 267.408 297.303 265.584C297.303 263.76 295.959 262.512 294.103 262.512C292.247 262.512 290.919 263.76 290.919 265.584C290.919 267.408 292.247 268.672 294.103 268.672ZM5.072 292.08C2.56 292.08 0.736 290.304 0.736 287.792C0.736 285.28 2.56 283.52 5.072 283.52C6.496 283.52 7.696 284.08 8.368 285.184L7.52 285.76C6.944 284.912 6.048 284.512 5.072 284.512C3.232 284.512 1.888 285.824 1.888 287.792C1.888 289.776 3.232 291.072 5.072 291.072C6.048 291.072 6.944 290.688 7.52 289.84L8.368 290.416C7.696 291.504 6.496 292.08 5.072 292.08ZM14.7626 283.52C16.8106 283.52 18.2186 284.704 18.2186 287.12V292H17.0826V287.232C17.0826 285.456 16.1546 284.544 14.5546 284.544C12.7466 284.544 11.6106 285.664 11.6106 287.584V292H10.4746V280.128H11.6106V285.056C12.2346 284.08 13.3386 283.52 14.7626 283.52ZM24.2468 283.52C26.4228 283.52 27.6548 284.608 27.6548 286.784V292H26.5668V290.688C26.0548 291.552 25.0628 292.08 23.6708 292.08C21.7668 292.08 20.5988 291.088 20.5988 289.632C20.5988 288.336 21.4308 287.248 23.8468 287.248H26.5188V286.736C26.5188 285.296 25.7028 284.512 24.1348 284.512C23.0468 284.512 22.0228 284.896 21.3348 285.504L20.8228 284.656C21.6708 283.936 22.9188 283.52 24.2468 283.52ZM23.8468 291.184C25.1268 291.184 26.0708 290.576 26.5188 289.472V288.096H23.8788C22.2468 288.096 21.7188 288.736 21.7188 289.6C21.7188 290.576 22.5028 291.184 23.8468 291.184ZM30.7403 292V280.128H31.8763V292H30.7403ZM35.0371 292V280.128H36.1731V292H35.0371ZM46.678 287.792C46.678 287.888 46.662 288.016 46.662 288.144H39.622C39.75 289.904 41.094 291.072 42.934 291.072C43.958 291.072 44.87 290.704 45.51 289.968L46.15 290.704C45.398 291.6 44.23 292.08 42.902 292.08C40.278 292.08 38.486 290.288 38.486 287.792C38.486 285.296 40.23 283.52 42.598 283.52C44.966 283.52 46.678 285.264 46.678 287.792ZM42.598 284.496C40.966 284.496 39.766 285.648 39.622 287.296H45.59C45.446 285.648 44.246 284.496 42.598 284.496ZM53.2783 283.52C55.3263 283.52 56.7343 284.704 56.7343 287.12V292H55.5983V287.232C55.5983 285.456 54.6703 284.544 53.0703 284.544C51.2623 284.544 50.1263 285.664 50.1263 287.584V292H48.9903V283.584H50.0783V285.136C50.6863 284.112 51.8223 283.52 53.2783 283.52ZM66.5536 283.584H67.6416V290.976C67.6416 293.872 66.2176 295.184 63.4336 295.184C61.8976 295.184 60.3936 294.72 59.5136 293.888L60.0896 293.024C60.8896 293.744 62.1056 294.176 63.4016 294.176C65.5296 294.176 66.5056 293.2 66.5056 291.12V290.048C65.8016 291.12 64.6016 291.68 63.2256 291.68C60.8256 291.68 59.0016 290 59.0016 287.584C59.0016 285.168 60.8256 283.52 63.2256 283.52C64.6336 283.52 65.8496 284.096 66.5536 285.2V283.584ZM63.3376 290.672C65.1936 290.672 66.5376 289.408 66.5376 287.584C66.5376 285.76 65.1936 284.512 63.3376 284.512C61.4816 284.512 60.1536 285.76 60.1536 287.584C60.1536 289.408 61.4816 290.672 63.3376 290.672ZM78.1624 287.792C78.1624 287.888 78.1464 288.016 78.1464 288.144H71.1064C71.2344 289.904 72.5784 291.072 74.4184 291.072C75.4424 291.072 76.3544 290.704 76.9944 289.968L77.6344 290.704C76.8824 291.6 75.7144 292.08 74.3864 292.08C71.7624 292.08 69.9704 290.288 69.9704 287.792C69.9704 285.296 71.7144 283.52 74.0824 283.52C76.4504 283.52 78.1624 285.264 78.1624 287.792ZM74.0824 284.496C72.4504 284.496 71.2504 285.648 71.1064 287.296H77.0744C76.9304 285.648 75.7304 284.496 74.0824 284.496ZM82.7306 292.08C81.3386 292.08 79.9946 291.632 79.3066 291.04L79.8186 290.144C80.4906 290.672 81.6266 291.088 82.8106 291.088C84.4106 291.088 85.0666 290.544 85.0666 289.712C85.0666 287.52 79.6106 289.248 79.6106 285.92C79.6106 284.544 80.7946 283.52 82.9386 283.52C84.0266 283.52 85.2106 283.824 85.9146 284.304L85.4186 285.216C84.6826 284.704 83.8026 284.496 82.9386 284.496C81.4186 284.496 80.7466 285.088 80.7466 285.888C80.7466 288.16 86.2026 286.448 86.2026 289.68C86.2026 291.136 84.9226 292.08 82.7306 292.08ZM88.4148 292.08C87.9508 292.08 87.5668 291.696 87.5668 291.2C87.5668 290.704 87.9508 290.336 88.4148 290.336C88.8788 290.336 89.2788 290.704 89.2788 291.2C89.2788 291.696 88.8788 292.08 88.4148 292.08ZM120.906 292V281.824H116.97V280.8H126.026V281.824H122.09V292H120.906ZM131.966 283.52C134.014 283.52 135.422 284.704 135.422 287.12V292H134.286V287.232C134.286 285.456 133.358 284.544 131.758 284.544C129.95 284.544 128.814 285.664 128.814 287.584V292H127.678V280.128H128.814V285.056C129.438 284.08 130.542 283.52 131.966 283.52ZM139.082 281.744C138.618 281.744 138.25 281.376 138.25 280.928C138.25 280.496 138.618 280.128 139.082 280.128C139.546 280.128 139.914 280.48 139.914 280.912C139.914 281.376 139.562 281.744 139.082 281.744ZM138.506 292V283.584H139.642V292H138.506ZM145.059 292.08C143.667 292.08 142.323 291.632 141.635 291.04L142.147 290.144C142.819 290.672 143.955 291.088 145.139 291.088C146.739 291.088 147.395 290.544 147.395 289.712C147.395 287.52 141.939 289.248 141.939 285.92C141.939 284.544 143.123 283.52 145.267 283.52C146.355 283.52 147.539 283.824 148.243 284.304L147.747 285.216C147.011 284.704 146.131 284.496 145.267 284.496C143.747 284.496 143.075 285.088 143.075 285.888C143.075 288.16 148.531 286.448 148.531 289.68C148.531 291.136 147.251 292.08 145.059 292.08ZM180.916 292.08C178.404 292.08 176.58 290.304 176.58 287.792C176.58 285.28 178.404 283.52 180.916 283.52C182.34 283.52 183.54 284.08 184.212 285.184L183.364 285.76C182.788 284.912 181.892 284.512 180.916 284.512C179.076 284.512 177.732 285.824 177.732 287.792C177.732 289.776 179.076 291.072 180.916 291.072C181.892 291.072 182.788 290.688 183.364 289.84L184.212 290.416C183.54 291.504 182.34 292.08 180.916 292.08ZM189.743 292.08C187.279 292.08 185.455 290.288 185.455 287.792C185.455 285.296 187.279 283.52 189.743 283.52C192.207 283.52 194.015 285.296 194.015 287.792C194.015 290.288 192.207 292.08 189.743 292.08ZM189.743 291.072C191.535 291.072 192.863 289.76 192.863 287.792C192.863 285.824 191.535 284.512 189.743 284.512C187.951 284.512 186.607 285.824 186.607 287.792C186.607 289.76 187.951 291.072 189.743 291.072ZM206.83 283.52C208.878 283.52 210.222 284.704 210.222 287.12V292H209.086V287.232C209.086 285.456 208.19 284.544 206.67 284.544C204.942 284.544 203.854 285.664 203.854 287.584V292H202.718V287.232C202.718 285.456 201.822 284.544 200.286 284.544C198.574 284.544 197.47 285.664 197.47 287.584V292H196.334V283.584H197.422V285.12C198.014 284.112 199.102 283.52 200.51 283.52C201.902 283.52 202.99 284.112 203.502 285.296C204.11 284.208 205.31 283.52 206.83 283.52ZM217.639 283.52C220.039 283.52 221.831 285.248 221.831 287.792C221.831 290.352 220.039 292.08 217.639 292.08C216.295 292.08 215.143 291.504 214.439 290.416V295.104H213.303V283.584H214.391V285.248C215.079 284.128 216.247 283.52 217.639 283.52ZM217.559 291.072C219.335 291.072 220.695 289.76 220.695 287.792C220.695 285.84 219.335 284.512 217.559 284.512C215.767 284.512 214.423 285.84 214.423 287.792C214.423 289.76 215.767 291.072 217.559 291.072ZM225.235 285.232C225.763 284.112 226.835 283.52 228.387 283.52V284.624C228.291 284.624 228.195 284.608 228.115 284.608C226.355 284.608 225.283 285.728 225.283 287.712V292H224.147V283.584H225.235V285.232ZM237.709 287.792C237.709 287.888 237.693 288.016 237.693 288.144H230.653C230.781 289.904 232.125 291.072 233.965 291.072C234.989 291.072 235.901 290.704 236.541 289.968L237.181 290.704C236.429 291.6 235.261 292.08 233.933 292.08C231.309 292.08 229.517 290.288 229.517 287.792C229.517 285.296 231.261 283.52 233.629 283.52C235.997 283.52 237.709 285.264 237.709 287.792ZM233.629 284.496C231.997 284.496 230.797 285.648 230.653 287.296H236.621C236.477 285.648 235.277 284.496 233.629 284.496ZM244.31 283.52C246.358 283.52 247.766 284.704 247.766 287.12V292H246.63V287.232C246.63 285.456 245.702 284.544 244.102 284.544C242.294 284.544 241.158 285.664 241.158 287.584V292H240.022V280.128H241.158V285.056C241.782 284.08 242.886 283.52 244.31 283.52ZM258.225 287.792C258.225 287.888 258.209 288.016 258.209 288.144H251.169C251.297 289.904 252.641 291.072 254.481 291.072C255.505 291.072 256.417 290.704 257.057 289.968L257.697 290.704C256.945 291.6 255.777 292.08 254.449 292.08C251.825 292.08 250.033 290.288 250.033 287.792C250.033 285.296 251.777 283.52 254.145 283.52C256.513 283.52 258.225 285.264 258.225 287.792ZM254.145 284.496C252.513 284.496 251.313 285.648 251.169 287.296H257.137C256.993 285.648 255.793 284.496 254.145 284.496ZM264.825 283.52C266.873 283.52 268.281 284.704 268.281 287.12V292H267.145V287.232C267.145 285.456 266.217 284.544 264.617 284.544C262.809 284.544 261.673 285.664 261.673 287.584V292H260.537V283.584H261.625V285.136C262.233 284.112 263.369 283.52 264.825 283.52ZM273.621 292.08C272.229 292.08 270.885 291.632 270.197 291.04L270.709 290.144C271.381 290.672 272.517 291.088 273.701 291.088C275.301 291.088 275.957 290.544 275.957 289.712C275.957 287.52 270.501 289.248 270.501 285.92C270.501 284.544 271.685 283.52 273.829 283.52C274.917 283.52 276.101 283.824 276.805 284.304L276.309 285.216C275.573 284.704 274.693 284.496 273.829 284.496C272.309 284.496 271.637 285.088 271.637 285.888C271.637 288.16 277.093 286.448 277.093 289.68C277.093 291.136 275.813 292.08 273.621 292.08ZM279.769 281.744C279.305 281.744 278.937 281.376 278.937 280.928C278.937 280.496 279.305 280.128 279.769 280.128C280.233 280.128 280.601 280.48 280.601 280.912C280.601 281.376 280.249 281.744 279.769 281.744ZM279.193 292V283.584H280.329V292H279.193ZM289.442 283.584H290.562L286.818 292H285.65L281.922 283.584H283.106L286.258 290.752L289.442 283.584ZM299.272 287.792C299.272 287.888 299.256 288.016 299.256 288.144H292.216C292.344 289.904 293.688 291.072 295.528 291.072C296.552 291.072 297.464 290.704 298.104 289.968L298.744 290.704C297.992 291.6 296.824 292.08 295.496 292.08C292.872 292.08 291.08 290.288 291.08 287.792C291.08 285.296 292.824 283.52 295.192 283.52C297.56 283.52 299.272 285.264 299.272 287.792ZM295.192 284.496C293.56 284.496 292.36 285.648 292.216 287.296H298.184C298.04 285.648 296.84 284.496 295.192 284.496ZM3.84 314.08C2.448 314.08 1.104 313.632 0.416 313.04L0.928 312.144C1.6 312.672 2.736 313.088 3.92 313.088C5.52 313.088 6.176 312.544 6.176 311.712C6.176 309.52 0.72 311.248 0.72 307.92C0.72 306.544 1.904 305.52 4.048 305.52C5.136 305.52 6.32 305.824 7.024 306.304L6.528 307.216C5.792 306.704 4.912 306.496 4.048 306.496C2.528 306.496 1.856 307.088 1.856 307.888C1.856 310.16 7.312 308.448 7.312 311.68C7.312 313.136 6.032 314.08 3.84 314.08ZM13.4441 312.672L13.8441 313.488C13.3961 313.888 12.7241 314.08 12.0681 314.08C10.4841 314.08 9.60413 313.184 9.60413 311.632V306.544H8.10013V305.584H9.60413V303.744H10.7401V305.584H13.3001V306.544H10.7401V311.568C10.7401 312.56 11.2521 313.104 12.1961 313.104C12.6601 313.104 13.1241 312.96 13.4441 312.672ZM17.0001 307.232C17.5281 306.112 18.6001 305.52 20.1521 305.52V306.624C20.0561 306.624 19.9601 306.608 19.8801 306.608C18.1201 306.608 17.0481 307.728 17.0481 309.712V314H15.9121V305.584H17.0001V307.232ZM25.1374 305.52C27.3134 305.52 28.5454 306.608 28.5454 308.784V314H27.4574V312.688C26.9454 313.552 25.9534 314.08 24.5614 314.08C22.6574 314.08 21.4894 313.088 21.4894 311.632C21.4894 310.336 22.3214 309.248 24.7374 309.248H27.4094V308.736C27.4094 307.296 26.5934 306.512 25.0254 306.512C23.9374 306.512 22.9134 306.896 22.2254 307.504L21.7134 306.656C22.5614 305.936 23.8094 305.52 25.1374 305.52ZM24.7374 313.184C26.0174 313.184 26.9614 312.576 27.4094 311.472V310.096H24.7694C23.1374 310.096 22.6094 310.736 22.6094 311.6C22.6094 312.576 23.3934 313.184 24.7374 313.184ZM35.6629 312.672L36.0629 313.488C35.6149 313.888 34.9429 314.08 34.2869 314.08C32.7029 314.08 31.8229 313.184 31.8229 311.632V306.544H30.3189V305.584H31.8229V303.744H32.9589V305.584H35.5189V306.544H32.9589V311.568C32.9589 312.56 33.4709 313.104 34.4149 313.104C34.8789 313.104 35.3429 312.96 35.6629 312.672ZM45.178 309.792C45.178 309.888 45.162 310.016 45.162 310.144H38.122C38.25 311.904 39.594 313.072 41.434 313.072C42.458 313.072 43.37 312.704 44.01 311.968L44.65 312.704C43.898 313.6 42.73 314.08 41.402 314.08C38.778 314.08 36.986 312.288 36.986 309.792C36.986 307.296 38.73 305.52 41.098 305.52C43.466 305.52 45.178 307.264 45.178 309.792ZM41.098 306.496C39.466 306.496 38.266 307.648 38.122 309.296H44.09C43.946 307.648 42.746 306.496 41.098 306.496ZM54.1943 305.584H55.2823V312.976C55.2823 315.872 53.8583 317.184 51.0743 317.184C49.5383 317.184 48.0343 316.72 47.1543 315.888L47.7303 315.024C48.5303 315.744 49.7463 316.176 51.0423 316.176C53.1703 316.176 54.1463 315.2 54.1463 313.12V312.048C53.4423 313.12 52.2423 313.68 50.8663 313.68C48.4663 313.68 46.6423 312 46.6423 309.584C46.6423 307.168 48.4663 305.52 50.8663 305.52C52.2743 305.52 53.4903 306.096 54.1943 307.2V305.584ZM50.9783 312.672C52.8343 312.672 54.1783 311.408 54.1783 309.584C54.1783 307.76 52.8343 306.512 50.9783 306.512C49.1223 306.512 47.7943 307.76 47.7943 309.584C47.7943 311.408 49.1223 312.672 50.9783 312.672ZM64.411 305.584H65.531L61.323 315.008C60.619 316.656 59.723 317.184 58.523 317.184C57.739 317.184 56.987 316.928 56.475 316.416L57.003 315.568C57.419 315.984 57.931 316.208 58.539 316.208C59.291 316.208 59.803 315.856 60.283 314.8L60.651 313.984L56.891 305.584H58.075L61.243 312.736L64.411 305.584ZM80.3717 314.08C77.9077 314.08 76.0837 312.288 76.0837 309.792C76.0837 307.296 77.9077 305.52 80.3717 305.52C82.8357 305.52 84.6437 307.296 84.6437 309.792C84.6437 312.288 82.8357 314.08 80.3717 314.08ZM80.3717 313.072C82.1637 313.072 83.4917 311.76 83.4917 309.792C83.4917 307.824 82.1637 306.512 80.3717 306.512C78.5797 306.512 77.2357 307.824 77.2357 309.792C77.2357 311.76 78.5797 313.072 80.3717 313.072ZM93.4109 305.584H94.5469V314H93.4589V312.464C92.8669 313.488 91.7789 314.08 90.4349 314.08C88.2909 314.08 86.8829 312.88 86.8829 310.464V305.584H88.0189V310.352C88.0189 312.144 88.9469 313.056 90.5469 313.056C92.3069 313.056 93.4109 311.92 93.4109 310V305.584ZM101.761 312.672L102.161 313.488C101.713 313.888 101.041 314.08 100.385 314.08C98.8005 314.08 97.9205 313.184 97.9205 311.632V306.544H96.4165V305.584H97.9205V303.744H99.0565V305.584H101.617V306.544H99.0565V311.568C99.0565 312.56 99.5685 313.104 100.513 313.104C100.977 313.104 101.441 312.96 101.761 312.672ZM104.229 314V302.128H105.365V314H104.229ZM109.101 303.744C108.637 303.744 108.269 303.376 108.269 302.928C108.269 302.496 108.637 302.128 109.101 302.128C109.565 302.128 109.933 302.48 109.933 302.912C109.933 303.376 109.581 303.744 109.101 303.744ZM108.525 314V305.584H109.661V314H108.525ZM117.11 305.52C119.158 305.52 120.566 306.704 120.566 309.12V314H119.43V309.232C119.43 307.456 118.502 306.544 116.902 306.544C115.094 306.544 113.958 307.664 113.958 309.584V314H112.822V305.584H113.91V307.136C114.518 306.112 115.654 305.52 117.11 305.52ZM131.026 309.792C131.026 309.888 131.01 310.016 131.01 310.144H123.97C124.098 311.904 125.442 313.072 127.282 313.072C128.306 313.072 129.218 312.704 129.858 311.968L130.498 312.704C129.746 313.6 128.578 314.08 127.25 314.08C124.626 314.08 122.834 312.288 122.834 309.792C122.834 307.296 124.578 305.52 126.946 305.52C129.314 305.52 131.026 307.264 131.026 309.792ZM126.946 306.496C125.314 306.496 124.114 307.648 123.97 309.296H129.938C129.794 307.648 128.594 306.496 126.946 306.496ZM135.594 314.08C134.202 314.08 132.858 313.632 132.17 313.04L132.682 312.144C133.354 312.672 134.49 313.088 135.674 313.088C137.274 313.088 137.93 312.544 137.93 311.712C137.93 309.52 132.474 311.248 132.474 307.92C132.474 306.544 133.658 305.52 135.802 305.52C136.89 305.52 138.074 305.824 138.778 306.304L138.282 307.216C137.546 306.704 136.666 306.496 135.802 306.496C134.282 306.496 133.61 307.088 133.61 307.888C133.61 310.16 139.066 308.448 139.066 311.68C139.066 313.136 137.786 314.08 135.594 314.08ZM155.303 305.52C157.703 305.52 159.495 307.248 159.495 309.792C159.495 312.352 157.703 314.08 155.303 314.08C153.959 314.08 152.807 313.504 152.103 312.416V317.104H150.967V305.584H152.055V307.248C152.743 306.128 153.911 305.52 155.303 305.52ZM155.223 313.072C156.999 313.072 158.359 311.76 158.359 309.792C158.359 307.84 156.999 306.512 155.223 306.512C153.431 306.512 152.087 307.84 152.087 309.792C152.087 311.76 153.431 313.072 155.223 313.072ZM162.899 307.232C163.427 306.112 164.499 305.52 166.051 305.52V306.624C165.955 306.624 165.859 306.608 165.779 306.608C164.019 306.608 162.947 307.728 162.947 309.712V314H161.811V305.584H162.899V307.232ZM175.373 309.792C175.373 309.888 175.357 310.016 175.357 310.144H168.317C168.445 311.904 169.789 313.072 171.629 313.072C172.653 313.072 173.565 312.704 174.205 311.968L174.845 312.704C174.093 313.6 172.925 314.08 171.597 314.08C168.973 314.08 167.181 312.288 167.181 309.792C167.181 307.296 168.925 305.52 171.293 305.52C173.661 305.52 175.373 307.264 175.373 309.792ZM171.293 306.496C169.661 306.496 168.461 307.648 168.317 309.296H174.285C174.141 307.648 172.941 306.496 171.293 306.496ZM181.174 314.08C178.662 314.08 176.838 312.304 176.838 309.792C176.838 307.28 178.662 305.52 181.174 305.52C182.598 305.52 183.798 306.08 184.47 307.184L183.622 307.76C183.046 306.912 182.15 306.512 181.174 306.512C179.334 306.512 177.99 307.824 177.99 309.792C177.99 311.776 179.334 313.072 181.174 313.072C182.15 313.072 183.046 312.688 183.622 311.84L184.47 312.416C183.798 313.504 182.598 314.08 181.174 314.08ZM187.277 303.744C186.813 303.744 186.445 303.376 186.445 302.928C186.445 302.496 186.813 302.128 187.277 302.128C187.741 302.128 188.109 302.48 188.109 302.912C188.109 303.376 187.757 303.744 187.277 303.744ZM186.701 314V305.584H187.837V314H186.701ZM193.254 314.08C191.862 314.08 190.518 313.632 189.83 313.04L190.342 312.144C191.014 312.672 192.15 313.088 193.334 313.088C194.934 313.088 195.59 312.544 195.59 311.712C195.59 309.52 190.134 311.248 190.134 307.92C190.134 306.544 191.318 305.52 193.462 305.52C194.55 305.52 195.734 305.824 196.438 306.304L195.942 307.216C195.206 306.704 194.326 306.496 193.462 306.496C191.942 306.496 191.27 307.088 191.27 307.888C191.27 310.16 196.726 308.448 196.726 311.68C196.726 313.136 195.446 314.08 193.254 314.08ZM206.17 309.792C206.17 309.888 206.154 310.016 206.154 310.144H199.114C199.242 311.904 200.586 313.072 202.426 313.072C203.45 313.072 204.362 312.704 205.002 311.968L205.642 312.704C204.89 313.6 203.722 314.08 202.394 314.08C199.77 314.08 197.978 312.288 197.978 309.792C197.978 307.296 199.722 305.52 202.09 305.52C204.458 305.52 206.17 307.264 206.17 309.792ZM202.09 306.496C200.458 306.496 199.258 307.648 199.114 309.296H205.082C204.938 307.648 203.738 306.496 202.09 306.496ZM220.539 314.08C219.147 314.08 217.803 313.632 217.115 313.04L217.627 312.144C218.299 312.672 219.435 313.088 220.619 313.088C222.219 313.088 222.875 312.544 222.875 311.712C222.875 309.52 217.419 311.248 217.419 307.92C217.419 306.544 218.603 305.52 220.747 305.52C221.835 305.52 223.019 305.824 223.723 306.304L223.227 307.216C222.491 306.704 221.611 306.496 220.747 306.496C219.227 306.496 218.555 307.088 218.555 307.888C218.555 310.16 224.011 308.448 224.011 311.68C224.011 313.136 222.731 314.08 220.539 314.08ZM230.143 312.672L230.543 313.488C230.095 313.888 229.423 314.08 228.767 314.08C227.183 314.08 226.303 313.184 226.303 311.632V306.544H224.799V305.584H226.303V303.744H227.439V305.584H229.999V306.544H227.439V311.568C227.439 312.56 227.951 313.104 228.895 313.104C229.359 313.104 229.823 312.96 230.143 312.672ZM239.658 309.792C239.658 309.888 239.642 310.016 239.642 310.144H232.602C232.73 311.904 234.074 313.072 235.914 313.072C236.938 313.072 237.85 312.704 238.49 311.968L239.13 312.704C238.378 313.6 237.21 314.08 235.882 314.08C233.258 314.08 231.466 312.288 231.466 309.792C231.466 307.296 233.21 305.52 235.578 305.52C237.946 305.52 239.658 307.264 239.658 309.792ZM235.578 306.496C233.946 306.496 232.746 307.648 232.602 309.296H238.57C238.426 307.648 237.226 306.496 235.578 306.496ZM246.307 305.52C248.707 305.52 250.499 307.248 250.499 309.792C250.499 312.352 248.707 314.08 246.307 314.08C244.963 314.08 243.811 313.504 243.107 312.416V317.104H241.971V305.584H243.059V307.248C243.747 306.128 244.915 305.52 246.307 305.52ZM246.227 313.072C248.003 313.072 249.363 311.76 249.363 309.792C249.363 307.84 248.003 306.512 246.227 306.512C244.435 306.512 243.091 307.84 243.091 309.792C243.091 311.76 244.435 313.072 246.227 313.072ZM255.07 314.08C253.678 314.08 252.334 313.632 251.646 313.04L252.158 312.144C252.83 312.672 253.966 313.088 255.15 313.088C256.75 313.088 257.406 312.544 257.406 311.712C257.406 309.52 251.95 311.248 251.95 307.92C251.95 306.544 253.134 305.52 255.278 305.52C256.366 305.52 257.55 305.824 258.254 306.304L257.758 307.216C257.022 306.704 256.142 306.496 255.278 306.496C253.758 306.496 253.086 307.088 253.086 307.888C253.086 310.16 258.542 308.448 258.542 311.68C258.542 313.136 257.262 314.08 255.07 314.08ZM273.387 305.52C275.563 305.52 276.795 306.608 276.795 308.784V314H275.707V312.688C275.195 313.552 274.203 314.08 272.811 314.08C270.907 314.08 269.739 313.088 269.739 311.632C269.739 310.336 270.571 309.248 272.987 309.248H275.659V308.736C275.659 307.296 274.843 306.512 273.275 306.512C272.187 306.512 271.163 306.896 270.475 307.504L269.963 306.656C270.811 305.936 272.059 305.52 273.387 305.52ZM272.987 313.184C274.267 313.184 275.211 312.576 275.659 311.472V310.096H273.019C271.387 310.096 270.859 310.736 270.859 311.6C270.859 312.576 271.643 313.184 272.987 313.184ZM284.169 305.52C286.217 305.52 287.625 306.704 287.625 309.12V314H286.489V309.232C286.489 307.456 285.561 306.544 283.961 306.544C282.153 306.544 281.017 307.664 281.017 309.584V314H279.881V305.584H280.969V307.136C281.577 306.112 282.713 305.52 284.169 305.52ZM297.284 302.128H298.42V314H297.332V312.336C296.644 313.472 295.476 314.08 294.084 314.08C291.684 314.08 289.892 312.336 289.892 309.792C289.892 307.248 291.684 305.52 294.084 305.52C295.428 305.52 296.58 306.096 297.284 307.184V302.128ZM294.18 313.072C295.956 313.072 297.3 311.76 297.3 309.792C297.3 307.824 295.956 306.512 294.18 306.512C292.388 306.512 291.044 307.824 291.044 309.792C291.044 311.76 292.388 313.072 294.18 313.072ZM5.616 334.672L6.016 335.488C5.568 335.888 4.896 336.08 4.24 336.08C2.656 336.08 1.776 335.184 1.776 333.632V328.544H0.272V327.584H1.776V325.744H2.912V327.584H5.472V328.544H2.912V333.568C2.912 334.56 3.424 335.104 4.368 335.104C4.832 335.104 5.296 334.96 5.616 334.672ZM8.66 325.744C8.196 325.744 7.828 325.376 7.828 324.928C7.828 324.496 8.196 324.128 8.66 324.128C9.124 324.128 9.492 324.48 9.492 324.912C9.492 325.376 9.14 325.744 8.66 325.744ZM8.084 336V327.584H9.22V336H8.084ZM22.8769 327.52C24.9249 327.52 26.2689 328.704 26.2689 331.12V336H25.1329V331.232C25.1329 329.456 24.2369 328.544 22.7169 328.544C20.9889 328.544 19.9009 329.664 19.9009 331.584V336H18.7649V331.232C18.7649 329.456 17.8689 328.544 16.3329 328.544C14.6209 328.544 13.5169 329.664 13.5169 331.584V336H12.3809V327.584H13.4689V329.12C14.0609 328.112 15.1489 327.52 16.5569 327.52C17.9489 327.52 19.0369 328.112 19.5489 329.296C20.1569 328.208 21.3569 327.52 22.8769 327.52ZM36.7249 331.792C36.7249 331.888 36.7089 332.016 36.7089 332.144H29.6689C29.7969 333.904 31.1409 335.072 32.9809 335.072C34.0049 335.072 34.9169 334.704 35.5569 333.968L36.1969 334.704C35.4449 335.6 34.2769 336.08 32.9489 336.08C30.3249 336.08 28.5329 334.288 28.5329 331.792C28.5329 329.296 30.2769 327.52 32.6449 327.52C35.0129 327.52 36.7249 329.264 36.7249 331.792ZM32.6449 328.496C31.0129 328.496 29.8129 329.648 29.6689 331.296H35.6369C35.4929 329.648 34.2929 328.496 32.6449 328.496ZM39.0371 336V324.128H40.1731V336H39.0371ZM43.91 325.744C43.446 325.744 43.078 325.376 43.078 324.928C43.078 324.496 43.446 324.128 43.91 324.128C44.374 324.128 44.742 324.48 44.742 324.912C44.742 325.376 44.39 325.744 43.91 325.744ZM43.334 336V327.584H44.47V336H43.334ZM51.9189 327.52C53.9669 327.52 55.3749 328.704 55.3749 331.12V336H54.2389V331.232C54.2389 329.456 53.3109 328.544 51.7109 328.544C49.9029 328.544 48.7669 329.664 48.7669 331.584V336H47.6309V327.584H48.7189V329.136C49.3269 328.112 50.4629 327.52 51.9189 327.52ZM65.8343 331.792C65.8343 331.888 65.8183 332.016 65.8183 332.144H58.7783C58.9062 333.904 60.2503 335.072 62.0903 335.072C63.1143 335.072 64.0263 334.704 64.6663 333.968L65.3063 334.704C64.5543 335.6 63.3863 336.08 62.0583 336.08C59.4343 336.08 57.6423 334.288 57.6423 331.792C57.6423 329.296 59.3863 327.52 61.7543 327.52C64.1223 327.52 65.8343 329.264 65.8343 331.792ZM61.7543 328.496C60.1223 328.496 58.9223 329.648 58.7783 331.296H64.7463C64.6023 329.648 63.4023 328.496 61.7543 328.496ZM70.4025 336.08C69.0105 336.08 67.6665 335.632 66.9785 335.04L67.4905 334.144C68.1625 334.672 69.2985 335.088 70.4825 335.088C72.0825 335.088 72.7385 334.544 72.7385 333.712C72.7385 331.52 67.2825 333.248 67.2825 329.92C67.2825 328.544 68.4665 327.52 70.6105 327.52C71.6985 327.52 72.8825 327.824 73.5865 328.304L73.0905 329.216C72.3545 328.704 71.4745 328.496 70.6105 328.496C69.0905 328.496 68.4185 329.088 68.4185 329.888C68.4185 332.16 73.8745 330.448 73.8745 333.68C73.8745 335.136 72.5945 336.08 70.4025 336.08ZM76.1026 334.336C76.5986 334.336 76.9506 334.72 76.9506 335.2C76.9506 335.472 76.8866 335.68 76.7266 336.128L76.0546 338.336H75.2866L75.8306 336.016C75.4946 335.92 75.2546 335.616 75.2546 335.2C75.2546 334.704 75.6226 334.336 76.1026 334.336ZM102.715 327.584H103.803V334.976C103.803 337.872 102.379 339.184 99.5951 339.184C98.0591 339.184 96.5551 338.72 95.6751 337.888L96.2511 337.024C97.0511 337.744 98.2671 338.176 99.5631 338.176C101.691 338.176 102.667 337.2 102.667 335.12V334.048C101.963 335.12 100.763 335.68 99.3871 335.68C96.9871 335.68 95.1631 334 95.1631 331.584C95.1631 329.168 96.9871 327.52 99.3871 327.52C100.795 327.52 102.011 328.096 102.715 329.2V327.584ZM99.4991 334.672C101.355 334.672 102.699 333.408 102.699 331.584C102.699 329.76 101.355 328.512 99.4991 328.512C97.6431 328.512 96.3151 329.76 96.3151 331.584C96.3151 333.408 97.6431 334.672 99.4991 334.672ZM113.428 327.584H114.564V336H113.476V334.464C112.884 335.488 111.796 336.08 110.452 336.08C108.308 336.08 106.9 334.88 106.9 332.464V327.584H108.036V332.352C108.036 334.144 108.964 335.056 110.564 335.056C112.324 335.056 113.428 333.92 113.428 332V327.584ZM120.689 327.52C122.865 327.52 124.097 328.608 124.097 330.784V336H123.009V334.688C122.497 335.552 121.505 336.08 120.113 336.08C118.209 336.08 117.041 335.088 117.041 333.632C117.041 332.336 117.873 331.248 120.289 331.248H122.961V330.736C122.961 329.296 122.145 328.512 120.577 328.512C119.489 328.512 118.465 328.896 117.777 329.504L117.265 328.656C118.113 327.936 119.361 327.52 120.689 327.52ZM120.289 335.184C121.569 335.184 122.513 334.576 122.961 333.472V332.096H120.321C118.689 332.096 118.161 332.736 118.161 333.6C118.161 334.576 118.945 335.184 120.289 335.184ZM128.271 329.232C128.799 328.112 129.871 327.52 131.423 327.52V328.624C131.327 328.624 131.231 328.608 131.151 328.608C129.391 328.608 128.319 329.728 128.319 331.712V336H127.183V327.584H128.271V329.232ZM136.408 327.52C138.584 327.52 139.816 328.608 139.816 330.784V336H138.728V334.688C138.216 335.552 137.224 336.08 135.832 336.08C133.928 336.08 132.76 335.088 132.76 333.632C132.76 332.336 133.592 331.248 136.008 331.248H138.68V330.736C138.68 329.296 137.864 328.512 136.296 328.512C135.208 328.512 134.184 328.896 133.496 329.504L132.984 328.656C133.832 327.936 135.08 327.52 136.408 327.52ZM136.008 335.184C137.288 335.184 138.232 334.576 138.68 333.472V332.096H136.04C134.408 332.096 133.88 332.736 133.88 333.6C133.88 334.576 134.664 335.184 136.008 335.184ZM147.19 327.52C149.238 327.52 150.646 328.704 150.646 331.12V336H149.51V331.232C149.51 329.456 148.582 328.544 146.982 328.544C145.174 328.544 144.038 329.664 144.038 331.584V336H142.902V327.584H143.99V329.136C144.598 328.112 145.734 327.52 147.19 327.52ZM157.762 334.672L158.162 335.488C157.714 335.888 157.042 336.08 156.386 336.08C154.802 336.08 153.922 335.184 153.922 333.632V328.544H152.418V327.584H153.922V325.744H155.058V327.584H157.618V328.544H155.058V333.568C155.058 334.56 155.57 335.104 156.514 335.104C156.978 335.104 157.442 334.96 157.762 334.672ZM167.277 331.792C167.277 331.888 167.261 332.016 167.261 332.144H160.221C160.349 333.904 161.693 335.072 163.533 335.072C164.557 335.072 165.469 334.704 166.109 333.968L166.749 334.704C165.997 335.6 164.829 336.08 163.501 336.08C160.877 336.08 159.085 334.288 159.085 331.792C159.085 329.296 160.829 327.52 163.197 327.52C165.565 327.52 167.277 329.264 167.277 331.792ZM163.197 328.496C161.565 328.496 160.365 329.648 160.221 331.296H166.189C166.045 329.648 164.845 328.496 163.197 328.496ZM176.933 331.792C176.933 331.888 176.917 332.016 176.917 332.144H169.877C170.005 333.904 171.349 335.072 173.189 335.072C174.213 335.072 175.125 334.704 175.765 333.968L176.405 334.704C175.653 335.6 174.485 336.08 173.157 336.08C170.533 336.08 168.741 334.288 168.741 331.792C168.741 329.296 170.485 327.52 172.853 327.52C175.221 327.52 176.933 329.264 176.933 331.792ZM172.853 328.496C171.221 328.496 170.021 329.648 169.877 331.296H175.845C175.701 329.648 174.501 328.496 172.853 328.496ZM179.821 325.744C179.357 325.744 178.989 325.376 178.989 324.928C178.989 324.496 179.357 324.128 179.821 324.128C180.285 324.128 180.653 324.48 180.653 324.912C180.653 325.376 180.301 325.744 179.821 325.744ZM179.245 336V327.584H180.381V336H179.245ZM187.83 327.52C189.878 327.52 191.286 328.704 191.286 331.12V336H190.15V331.232C190.15 329.456 189.222 328.544 187.622 328.544C185.814 328.544 184.678 329.664 184.678 331.584V336H183.542V327.584H184.63V329.136C185.238 328.112 186.374 327.52 187.83 327.52ZM201.106 327.584H202.194V334.976C202.194 337.872 200.77 339.184 197.986 339.184C196.45 339.184 194.946 338.72 194.066 337.888L194.642 337.024C195.442 337.744 196.658 338.176 197.954 338.176C200.082 338.176 201.058 337.2 201.058 335.12V334.048C200.354 335.12 199.154 335.68 197.778 335.68C195.378 335.68 193.554 334 193.554 331.584C193.554 329.168 195.378 327.52 197.778 327.52C199.186 327.52 200.402 328.096 201.106 329.2V327.584ZM197.89 334.672C199.746 334.672 201.09 333.408 201.09 331.584C201.09 329.76 199.746 328.512 197.89 328.512C196.034 328.512 194.706 329.76 194.706 331.584C194.706 333.408 196.034 334.672 197.89 334.672ZM224.96 327.52C227.136 327.52 228.368 328.608 228.368 330.784V336H227.28V334.688C226.768 335.552 225.776 336.08 224.384 336.08C222.48 336.08 221.312 335.088 221.312 333.632C221.312 332.336 222.144 331.248 224.56 331.248H227.232V330.736C227.232 329.296 226.416 328.512 224.848 328.512C223.76 328.512 222.736 328.896 222.048 329.504L221.536 328.656C222.384 327.936 223.632 327.52 224.96 327.52ZM224.56 335.184C225.84 335.184 226.784 334.576 227.232 333.472V332.096H224.592C222.96 332.096 222.432 332.736 222.432 333.6C222.432 334.576 223.216 335.184 224.56 335.184ZM254.804 327.584H255.892V334.976C255.892 337.872 254.468 339.184 251.684 339.184C250.148 339.184 248.644 338.72 247.764 337.888L248.34 337.024C249.14 337.744 250.356 338.176 251.652 338.176C253.78 338.176 254.756 337.2 254.756 335.12V334.048C254.052 335.12 252.852 335.68 251.476 335.68C249.076 335.68 247.252 334 247.252 331.584C247.252 329.168 249.076 327.52 251.476 327.52C252.884 327.52 254.1 328.096 254.804 329.2V327.584ZM251.588 334.672C253.444 334.672 254.788 333.408 254.788 331.584C254.788 329.76 253.444 328.512 251.588 328.512C249.732 328.512 248.404 329.76 248.404 331.584C248.404 333.408 249.732 334.672 251.588 334.672ZM262.012 327.52C264.188 327.52 265.42 328.608 265.42 330.784V336H264.332V334.688C263.82 335.552 262.828 336.08 261.436 336.08C259.532 336.08 258.364 335.088 258.364 333.632C258.364 332.336 259.196 331.248 261.612 331.248H264.284V330.736C264.284 329.296 263.468 328.512 261.9 328.512C260.812 328.512 259.788 328.896 259.1 329.504L258.588 328.656C259.436 327.936 260.684 327.52 262.012 327.52ZM261.612 335.184C262.892 335.184 263.836 334.576 264.284 333.472V332.096H261.644C260.012 332.096 259.484 332.736 259.484 333.6C259.484 334.576 260.268 335.184 261.612 335.184ZM279.002 327.52C281.05 327.52 282.394 328.704 282.394 331.12V336H281.258V331.232C281.258 329.456 280.362 328.544 278.842 328.544C277.114 328.544 276.026 329.664 276.026 331.584V336H274.89V331.232C274.89 329.456 273.994 328.544 272.458 328.544C270.746 328.544 269.642 329.664 269.642 331.584V336H268.506V327.584H269.594V329.12C270.186 328.112 271.274 327.52 272.682 327.52C274.074 327.52 275.162 328.112 275.674 329.296C276.282 328.208 277.482 327.52 279.002 327.52ZM292.85 331.792C292.85 331.888 292.834 332.016 292.834 332.144H285.794C285.922 333.904 287.266 335.072 289.106 335.072C290.13 335.072 291.042 334.704 291.682 333.968L292.322 334.704C291.57 335.6 290.402 336.08 289.074 336.08C286.45 336.08 284.658 334.288 284.658 331.792C284.658 329.296 286.402 327.52 288.77 327.52C291.138 327.52 292.85 329.264 292.85 331.792ZM288.77 328.496C287.138 328.496 285.938 329.648 285.794 331.296H291.762C291.618 329.648 290.418 328.496 288.77 328.496ZM294.694 332.16V331.168H298.886V332.16H294.694ZM5.072 358.08C2.56 358.08 0.736 356.304 0.736 353.792C0.736 351.28 2.56 349.52 5.072 349.52C6.496 349.52 7.696 350.08 8.368 351.184L7.52 351.76C6.944 350.912 6.048 350.512 5.072 350.512C3.232 350.512 1.888 351.824 1.888 353.792C1.888 355.776 3.232 357.072 5.072 357.072C6.048 357.072 6.944 356.688 7.52 355.84L8.368 356.416C7.696 357.504 6.496 358.08 5.072 358.08ZM14.7626 349.52C16.8106 349.52 18.2186 350.704 18.2186 353.12V358H17.0826V353.232C17.0826 351.456 16.1546 350.544 14.5546 350.544C12.7466 350.544 11.6106 351.664 11.6106 353.584V358H10.4746V346.128H11.6106V351.056C12.2346 350.08 13.3386 349.52 14.7626 349.52ZM24.2468 349.52C26.4228 349.52 27.6548 350.608 27.6548 352.784V358H26.5668V356.688C26.0548 357.552 25.0628 358.08 23.6708 358.08C21.7668 358.08 20.5988 357.088 20.5988 355.632C20.5988 354.336 21.4308 353.248 23.8468 353.248H26.5188V352.736C26.5188 351.296 25.7028 350.512 24.1348 350.512C23.0468 350.512 22.0228 350.896 21.3348 351.504L20.8228 350.656C21.6708 349.936 22.9188 349.52 24.2468 349.52ZM23.8468 357.184C25.1268 357.184 26.0708 356.576 26.5188 355.472V354.096H23.8788C22.2468 354.096 21.7188 354.736 21.7188 355.6C21.7188 356.576 22.5028 357.184 23.8468 357.184ZM35.0283 349.52C37.0763 349.52 38.4843 350.704 38.4843 353.12V358H37.3483V353.232C37.3483 351.456 36.4203 350.544 34.8203 350.544C33.0123 350.544 31.8763 351.664 31.8763 353.584V358H30.7403V349.584H31.8283V351.136C32.4363 350.112 33.5723 349.52 35.0283 349.52ZM48.3036 349.584H49.3916V356.976C49.3916 359.872 47.9676 361.184 45.1836 361.184C43.6476 361.184 42.1436 360.72 41.2636 359.888L41.8396 359.024C42.6396 359.744 43.8556 360.176 45.1516 360.176C47.2796 360.176 48.2556 359.2 48.2556 357.12V356.048C47.5516 357.12 46.3516 357.68 44.9756 357.68C42.5756 357.68 40.7516 356 40.7516 353.584C40.7516 351.168 42.5756 349.52 44.9756 349.52C46.3836 349.52 47.5996 350.096 48.3036 351.2V349.584ZM45.0876 356.672C46.9436 356.672 48.2876 355.408 48.2876 353.584C48.2876 351.76 46.9436 350.512 45.0876 350.512C43.2316 350.512 41.9036 351.76 41.9036 353.584C41.9036 355.408 43.2316 356.672 45.0876 356.672ZM53.1444 347.744C52.6804 347.744 52.3124 347.376 52.3124 346.928C52.3124 346.496 52.6804 346.128 53.1444 346.128C53.6084 346.128 53.9764 346.48 53.9764 346.912C53.9764 347.376 53.6244 347.744 53.1444 347.744ZM52.5684 358V349.584H53.7044V358H52.5684ZM61.1533 349.52C63.2013 349.52 64.6093 350.704 64.6093 353.12V358H63.4733V353.232C63.4733 351.456 62.5453 350.544 60.9453 350.544C59.1373 350.544 58.0013 351.664 58.0013 353.584V358H56.8653V349.584H57.9533V351.136C58.5613 350.112 59.6973 349.52 61.1533 349.52ZM74.4286 349.584H75.5166V356.976C75.5166 359.872 74.0926 361.184 71.3086 361.184C69.7726 361.184 68.2686 360.72 67.3886 359.888L67.9646 359.024C68.7646 359.744 69.9806 360.176 71.2766 360.176C73.4046 360.176 74.3806 359.2 74.3806 357.12V356.048C73.6766 357.12 72.4766 357.68 71.1006 357.68C68.7006 357.68 66.8766 356 66.8766 353.584C66.8766 351.168 68.7006 349.52 71.1006 349.52C72.5086 349.52 73.7246 350.096 74.4286 351.2V349.584ZM71.2126 356.672C73.0686 356.672 74.4126 355.408 74.4126 353.584C74.4126 351.76 73.0686 350.512 71.2126 350.512C69.3566 350.512 68.0286 351.76 68.0286 353.584C68.0286 355.408 69.3566 356.672 71.2126 356.672ZM89.4249 346.128H90.5609V358H89.4729V356.336C88.7849 357.472 87.6169 358.08 86.2249 358.08C83.8249 358.08 82.0329 356.336 82.0329 353.792C82.0329 351.248 83.8249 349.52 86.2249 349.52C87.5689 349.52 88.7209 350.096 89.4249 351.184V346.128ZM86.3209 357.072C88.0969 357.072 89.4409 355.76 89.4409 353.792C89.4409 351.824 88.0969 350.512 86.3209 350.512C84.5289 350.512 83.1849 351.824 83.1849 353.792C83.1849 355.76 84.5289 357.072 86.3209 357.072ZM101.069 353.792C101.069 353.888 101.053 354.016 101.053 354.144H94.0126C94.1406 355.904 95.4846 357.072 97.3246 357.072C98.3486 357.072 99.2606 356.704 99.9006 355.968L100.541 356.704C99.7886 357.6 98.6206 358.08 97.2926 358.08C94.6686 358.08 92.8766 356.288 92.8766 353.792C92.8766 351.296 94.6206 349.52 96.9886 349.52C99.3566 349.52 101.069 351.264 101.069 353.792ZM96.9886 350.496C95.3566 350.496 94.1566 351.648 94.0126 353.296H99.9806C99.8366 351.648 98.6366 350.496 96.9886 350.496ZM103.381 358V346.128H104.517V358H103.381ZM108.254 347.744C107.79 347.744 107.422 347.376 107.422 346.928C107.422 346.496 107.79 346.128 108.254 346.128C108.718 346.128 109.086 346.48 109.086 346.912C109.086 347.376 108.734 347.744 108.254 347.744ZM107.678 358V349.584H108.814V358H107.678ZM117.927 349.584H119.047L115.303 358H114.135L110.407 349.584H111.591L114.743 356.752L117.927 349.584ZM127.756 353.792C127.756 353.888 127.74 354.016 127.74 354.144H120.7C120.828 355.904 122.172 357.072 124.012 357.072C125.036 357.072 125.948 356.704 126.588 355.968L127.228 356.704C126.476 357.6 125.308 358.08 123.98 358.08C121.356 358.08 119.564 356.288 119.564 353.792C119.564 351.296 121.308 349.52 123.676 349.52C126.044 349.52 127.756 351.264 127.756 353.792ZM123.676 350.496C122.044 350.496 120.844 351.648 120.7 353.296H126.668C126.524 351.648 125.324 350.496 123.676 350.496ZM131.156 351.232C131.684 350.112 132.756 349.52 134.308 349.52V350.624C134.212 350.624 134.116 350.608 134.036 350.608C132.276 350.608 131.204 351.728 131.204 353.712V358H130.068V349.584H131.156V351.232ZM142.677 349.584H143.797L139.589 359.008C138.885 360.656 137.989 361.184 136.789 361.184C136.005 361.184 135.253 360.928 134.741 360.416L135.269 359.568C135.685 359.984 136.197 360.208 136.805 360.208C137.557 360.208 138.069 359.856 138.549 358.8L138.917 357.984L135.157 349.584H136.341L139.509 356.736L142.677 349.584ZM144.962 358.08C144.498 358.08 144.114 357.696 144.114 357.2C144.114 356.704 144.498 356.336 144.962 356.336C145.426 356.336 145.826 356.704 145.826 357.2C145.826 357.696 145.426 358.08 144.962 358.08Z" fill="white"/>
<defs>
<linearGradient id="paint0_linear_974_913" x1="61.5" y1="0" x2="254.673" y2="19.884" gradientUnits="userSpaceOnUse">
<stop stop-color="#70C0B2"/>
<stop offset="0.293999" stop-color="#0198B6"/>
<stop offset="0.817393" stop-color="#007289"/>
</linearGradient>
</defs>
</svg>
