<svg width="843" height="363" viewBox="0 0 843 363" fill="none" xmlns="http://www.w3.org/2000/svg">
<path d="M130.814 96V82H136.574C137.814 82 138.874 82.2 139.754 82.6C140.647 83 141.334 83.5733 141.814 84.32C142.294 85.0667 142.534 85.9533 142.534 86.98C142.534 88.0067 142.294 88.8933 141.814 89.64C141.334 90.3867 140.647 90.96 139.754 91.36C138.874 91.76 137.814 91.96 136.574 91.96H132.254L133.414 90.74V96H130.814ZM133.414 91.02L132.254 89.76H136.454C137.6 89.76 138.46 89.52 139.034 89.04C139.62 88.5467 139.914 87.86 139.914 86.98C139.914 86.0867 139.62 85.4 139.034 84.92C138.46 84.44 137.6 84.2 136.454 84.2H132.254L133.414 82.92V91.02ZM145.085 96V81.16H147.585V96H145.085ZM157.447 96V93.84L157.307 93.38V89.6C157.307 88.8667 157.087 88.3 156.647 87.9C156.207 87.4867 155.54 87.28 154.647 87.28C154.047 87.28 153.453 87.3733 152.867 87.56C152.293 87.7467 151.807 88.0067 151.407 88.34L150.427 86.52C151 86.08 151.68 85.7533 152.467 85.54C153.267 85.3133 154.093 85.2 154.947 85.2C156.493 85.2 157.687 85.5733 158.527 86.32C159.38 87.0533 159.807 88.1933 159.807 89.74V96H157.447ZM154.087 96.14C153.287 96.14 152.587 96.0067 151.987 95.74C151.387 95.46 150.92 95.08 150.587 94.6C150.267 94.1067 150.107 93.5533 150.107 92.94C150.107 92.34 150.247 91.8 150.527 91.32C150.82 90.84 151.293 90.46 151.947 90.18C152.6 89.9 153.467 89.76 154.547 89.76H157.647V91.42H154.727C153.873 91.42 153.3 91.56 153.007 91.84C152.713 92.1067 152.567 92.44 152.567 92.84C152.567 93.2933 152.747 93.6533 153.107 93.92C153.467 94.1867 153.967 94.32 154.607 94.32C155.22 94.32 155.767 94.18 156.247 93.9C156.74 93.62 157.093 93.2067 157.307 92.66L157.727 94.16C157.487 94.7867 157.053 95.2733 156.427 95.62C155.813 95.9667 155.033 96.14 154.087 96.14ZM169.075 85.2C169.928 85.2 170.688 85.3667 171.355 85.7C172.035 86.0333 172.568 86.5467 172.955 87.24C173.342 87.92 173.535 88.8 173.535 89.88V96H171.035V90.2C171.035 89.2533 170.808 88.5467 170.355 88.08C169.915 87.6133 169.295 87.38 168.495 87.38C167.908 87.38 167.388 87.5 166.935 87.74C166.482 87.98 166.128 88.34 165.875 88.82C165.635 89.2867 165.515 89.88 165.515 90.6V96H163.015V85.32H165.395V88.2L164.975 87.32C165.348 86.64 165.888 86.12 166.595 85.76C167.315 85.3867 168.142 85.2 169.075 85.2Z" fill="#0198B5"/>
<circle cx="150" cy="88.5" r="76.5" stroke="url(#paint0_linear_929_27)" stroke-width="24"/>
<path d="M16.064 214.8H17.2L13.424 226H12.176L8.896 216.448L5.6 226H4.368L0.592 214.8H1.808L5.04 224.432L8.384 214.8H9.488L12.784 224.48L16.064 214.8ZM25.8343 221.792C25.8343 221.888 25.8183 222.016 25.8183 222.144H18.7783C18.9062 223.904 20.2503 225.072 22.0903 225.072C23.1143 225.072 24.0263 224.704 24.6663 223.968L25.3063 224.704C24.5543 225.6 23.3863 226.08 22.0583 226.08C19.4343 226.08 17.6423 224.288 17.6423 221.792C17.6423 219.296 19.3863 217.52 21.7543 217.52C24.1223 217.52 25.8343 219.264 25.8343 221.792ZM21.7543 218.496C20.1223 218.496 18.9223 219.648 18.7783 221.296H24.7463C24.6023 219.648 23.4023 218.496 21.7543 218.496ZM43.6674 217.52C46.0674 217.52 47.8594 219.248 47.8594 221.792C47.8594 224.352 46.0674 226.08 43.6674 226.08C42.3234 226.08 41.1714 225.504 40.4674 224.416V229.104H39.3314V217.584H40.4194V219.248C41.1074 218.128 42.2754 217.52 43.6674 217.52ZM43.5874 225.072C45.3634 225.072 46.7234 223.76 46.7234 221.792C46.7234 219.84 45.3634 218.512 43.5874 218.512C41.7954 218.512 40.4514 219.84 40.4514 221.792C40.4514 223.76 41.7954 225.072 43.5874 225.072ZM56.6231 217.584H57.7591V226H56.6711V224.464C56.0791 225.488 54.9911 226.08 53.6471 226.08C51.5031 226.08 50.0951 224.88 50.0951 222.464V217.584H51.2311V222.352C51.2311 224.144 52.1591 225.056 53.7591 225.056C55.5191 225.056 56.6231 223.92 56.6231 222V217.584ZM64.9728 224.672L65.3728 225.488C64.9248 225.888 64.2528 226.08 63.5968 226.08C62.0128 226.08 61.1328 225.184 61.1328 223.632V218.544H59.6288V217.584H61.1328V215.744H62.2688V217.584H64.8288V218.544H62.2688V223.568C62.2688 224.56 62.7808 225.104 63.7248 225.104C64.1888 225.104 64.6528 224.96 64.9728 224.672ZM82.0657 226.08C79.6017 226.08 77.7777 224.288 77.7777 221.792C77.7777 219.296 79.6017 217.52 82.0657 217.52C84.5297 217.52 86.3377 219.296 86.3377 221.792C86.3377 224.288 84.5297 226.08 82.0657 226.08ZM82.0657 225.072C83.8577 225.072 85.1857 223.76 85.1857 221.792C85.1857 219.824 83.8577 218.512 82.0657 218.512C80.2737 218.512 78.9297 219.824 78.9297 221.792C78.9297 223.76 80.2737 225.072 82.0657 225.072ZM95.1049 217.584H96.2409V226H95.1529V224.464C94.5609 225.488 93.4729 226.08 92.1289 226.08C89.9849 226.08 88.5769 224.88 88.5769 222.464V217.584H89.7129V222.352C89.7129 224.144 90.6409 225.056 92.2409 225.056C94.0009 225.056 95.1049 223.92 95.1049 222V217.584ZM100.511 219.232C101.039 218.112 102.111 217.52 103.663 217.52V218.624C103.567 218.624 103.471 218.608 103.391 218.608C101.631 218.608 100.559 219.728 100.559 221.712V226H99.4225V217.584H100.511V219.232ZM121.365 217.52C123.765 217.52 125.557 219.248 125.557 221.792C125.557 224.352 123.765 226.08 121.365 226.08C120.021 226.08 118.869 225.504 118.165 224.416V229.104H117.029V217.584H118.117V219.248C118.805 218.128 119.973 217.52 121.365 217.52ZM121.285 225.072C123.061 225.072 124.421 223.76 124.421 221.792C124.421 219.84 123.061 218.512 121.285 218.512C119.493 218.512 118.149 219.84 118.149 221.792C118.149 223.76 119.493 225.072 121.285 225.072ZM127.873 226V214.128H129.009V226H127.873ZM135.114 217.52C137.29 217.52 138.522 218.608 138.522 220.784V226H137.434V224.688C136.922 225.552 135.93 226.08 134.538 226.08C132.634 226.08 131.466 225.088 131.466 223.632C131.466 222.336 132.298 221.248 134.714 221.248H137.386V220.736C137.386 219.296 136.57 218.512 135.002 218.512C133.914 218.512 132.89 218.896 132.202 219.504L131.69 218.656C132.538 217.936 133.786 217.52 135.114 217.52ZM134.714 225.184C135.994 225.184 136.938 224.576 137.386 223.472V222.096H134.746C133.114 222.096 132.586 222.736 132.586 223.6C132.586 224.576 133.37 225.184 134.714 225.184ZM145.895 217.52C147.943 217.52 149.351 218.704 149.351 221.12V226H148.215V221.232C148.215 219.456 147.287 218.544 145.687 218.544C143.879 218.544 142.743 219.664 142.743 221.584V226H141.607V217.584H142.695V219.136C143.303 218.112 144.439 217.52 145.895 217.52ZM164.196 215.744C163.732 215.744 163.364 215.376 163.364 214.928C163.364 214.496 163.732 214.128 164.196 214.128C164.66 214.128 165.028 214.48 165.028 214.912C165.028 215.376 164.676 215.744 164.196 215.744ZM163.62 226V217.584H164.756V226H163.62ZM172.205 217.52C174.253 217.52 175.661 218.704 175.661 221.12V226H174.525V221.232C174.525 219.456 173.597 218.544 171.997 218.544C170.189 218.544 169.053 219.664 169.053 221.584V226H167.917V217.584H169.005V219.136C169.613 218.112 170.749 217.52 172.205 217.52ZM182.777 224.672L183.177 225.488C182.729 225.888 182.057 226.08 181.401 226.08C179.817 226.08 178.937 225.184 178.937 223.632V218.544H177.433V217.584H178.937V215.744H180.073V217.584H182.633V218.544H180.073V223.568C180.073 224.56 180.585 225.104 181.529 225.104C181.993 225.104 182.457 224.96 182.777 224.672ZM188.389 226.08C185.925 226.08 184.101 224.288 184.101 221.792C184.101 219.296 185.925 217.52 188.389 217.52C190.853 217.52 192.661 219.296 192.661 221.792C192.661 224.288 190.853 226.08 188.389 226.08ZM188.389 225.072C190.181 225.072 191.509 223.76 191.509 221.792C191.509 219.824 190.181 218.512 188.389 218.512C186.597 218.512 185.253 219.824 185.253 221.792C185.253 223.76 186.597 225.072 188.389 225.072ZM209.109 217.52C211.285 217.52 212.517 218.608 212.517 220.784V226H211.429V224.688C210.917 225.552 209.925 226.08 208.533 226.08C206.629 226.08 205.461 225.088 205.461 223.632C205.461 222.336 206.293 221.248 208.709 221.248H211.381V220.736C211.381 219.296 210.565 218.512 208.997 218.512C207.909 218.512 206.885 218.896 206.197 219.504L205.685 218.656C206.533 217.936 207.781 217.52 209.109 217.52ZM208.709 225.184C209.989 225.184 210.933 224.576 211.381 223.472V222.096H208.741C207.109 222.096 206.581 222.736 206.581 223.6C206.581 224.576 207.365 225.184 208.709 225.184ZM219.121 226.08C216.609 226.08 214.785 224.304 214.785 221.792C214.785 219.28 216.609 217.52 219.121 217.52C220.545 217.52 221.745 218.08 222.417 219.184L221.569 219.76C220.993 218.912 220.097 218.512 219.121 218.512C217.281 218.512 215.937 219.824 215.937 221.792C215.937 223.776 217.281 225.072 219.121 225.072C220.097 225.072 220.993 224.688 221.569 223.84L222.417 224.416C221.745 225.504 220.545 226.08 219.121 226.08ZM228.775 224.672L229.175 225.488C228.727 225.888 228.055 226.08 227.399 226.08C225.815 226.08 224.935 225.184 224.935 223.632V218.544H223.431V217.584H224.935V215.744H226.071V217.584H228.631V218.544H226.071V223.568C226.071 224.56 226.583 225.104 227.527 225.104C227.991 225.104 228.455 224.96 228.775 224.672ZM231.819 215.744C231.355 215.744 230.987 215.376 230.987 214.928C230.987 214.496 231.355 214.128 231.819 214.128C232.283 214.128 232.651 214.48 232.651 214.912C232.651 215.376 232.299 215.744 231.819 215.744ZM231.243 226V217.584H232.379V226H231.243ZM238.98 226.08C236.516 226.08 234.692 224.288 234.692 221.792C234.692 219.296 236.516 217.52 238.98 217.52C241.444 217.52 243.252 219.296 243.252 221.792C243.252 224.288 241.444 226.08 238.98 226.08ZM238.98 225.072C240.772 225.072 242.1 223.76 242.1 221.792C242.1 219.824 240.772 218.512 238.98 218.512C237.188 218.512 235.844 219.824 235.844 221.792C235.844 223.76 237.188 225.072 238.98 225.072ZM249.859 217.52C251.907 217.52 253.315 218.704 253.315 221.12V226H252.179V221.232C252.179 219.456 251.251 218.544 249.651 218.544C247.843 218.544 246.707 219.664 246.707 221.584V226H245.571V217.584H246.659V219.136C247.267 218.112 248.403 217.52 249.859 217.52ZM256.511 226.08C256.047 226.08 255.663 225.696 255.663 225.2C255.663 224.704 256.047 224.336 256.511 224.336C256.975 224.336 257.375 224.704 257.375 225.2C257.375 225.696 256.975 226.08 256.511 226.08ZM276.111 226.096C272.719 226.096 270.223 223.664 270.223 220.4C270.223 217.136 272.719 214.704 276.111 214.704C279.471 214.704 281.983 217.12 281.983 220.4C281.983 223.68 279.471 226.096 276.111 226.096ZM276.111 225.04C278.799 225.04 280.799 223.072 280.799 220.4C280.799 217.728 278.799 215.76 276.111 215.76C273.407 215.76 271.391 217.728 271.391 220.4C271.391 223.072 273.407 225.04 276.111 225.04ZM290.845 217.584H291.981V226H290.892V224.464C290.301 225.488 289.213 226.08 287.869 226.08C285.725 226.08 284.317 224.88 284.317 222.464V217.584H285.453V222.352C285.453 224.144 286.381 225.056 287.981 225.056C289.741 225.056 290.845 223.92 290.845 222V217.584ZM296.25 219.232C296.778 218.112 297.85 217.52 299.402 217.52V218.624C299.306 218.624 299.21 218.608 299.13 218.608C297.37 218.608 296.298 219.728 296.298 221.712V226H295.162V217.584H296.25V219.232ZM5.072 248.08C2.56 248.08 0.736 246.304 0.736 243.792C0.736 241.28 2.56 239.52 5.072 239.52C6.496 239.52 7.696 240.08 8.368 241.184L7.52 241.76C6.944 240.912 6.048 240.512 5.072 240.512C3.232 240.512 1.888 241.824 1.888 243.792C1.888 245.776 3.232 247.072 5.072 247.072C6.048 247.072 6.944 246.688 7.52 245.84L8.368 246.416C7.696 247.504 6.496 248.08 5.072 248.08ZM13.899 248.08C11.435 248.08 9.611 246.288 9.611 243.792C9.611 241.296 11.435 239.52 13.899 239.52C16.363 239.52 18.171 241.296 18.171 243.792C18.171 246.288 16.363 248.08 13.899 248.08ZM13.899 247.072C15.691 247.072 17.019 245.76 17.019 243.792C17.019 241.824 15.691 240.512 13.899 240.512C12.107 240.512 10.763 241.824 10.763 243.792C10.763 245.76 12.107 247.072 13.899 247.072ZM30.9863 239.52C33.0343 239.52 34.3783 240.704 34.3783 243.12V248H33.2423V243.232C33.2423 241.456 32.3463 240.544 30.8263 240.544C29.0983 240.544 28.0103 241.664 28.0103 243.584V248H26.8743V243.232C26.8743 241.456 25.9783 240.544 24.4423 240.544C22.7303 240.544 21.6263 241.664 21.6263 243.584V248H20.4903V239.584H21.5783V241.12C22.1703 240.112 23.2583 239.52 24.6663 239.52C26.0583 239.52 27.1463 240.112 27.6583 241.296C28.2663 240.208 29.4663 239.52 30.9863 239.52ZM47.955 239.52C50.003 239.52 51.347 240.704 51.347 243.12V248H50.211V243.232C50.211 241.456 49.315 240.544 47.795 240.544C46.067 240.544 44.979 241.664 44.979 243.584V248H43.843V243.232C43.843 241.456 42.947 240.544 41.411 240.544C39.699 240.544 38.595 241.664 38.595 243.584V248H37.459V239.584H38.547V241.12C39.139 240.112 40.227 239.52 41.635 239.52C43.027 239.52 44.115 240.112 44.627 241.296C45.235 240.208 46.435 239.52 47.955 239.52ZM55.0038 237.744C54.5398 237.744 54.1718 237.376 54.1718 236.928C54.1718 236.496 54.5398 236.128 55.0038 236.128C55.4678 236.128 55.8358 236.48 55.8358 236.912C55.8358 237.376 55.4838 237.744 55.0038 237.744ZM54.4278 248V239.584H55.5638V248H54.4278ZM62.7566 246.672L63.1566 247.488C62.7086 247.888 62.0366 248.08 61.3806 248.08C59.7966 248.08 58.9166 247.184 58.9166 245.632V240.544H57.4126V239.584H58.9166V237.744H60.0526V239.584H62.6126V240.544H60.0526V245.568C60.0526 246.56 60.5646 247.104 61.5086 247.104C61.9726 247.104 62.4366 246.96 62.7566 246.672ZM75.7206 239.52C77.7686 239.52 79.1126 240.704 79.1126 243.12V248H77.9766V243.232C77.9766 241.456 77.0806 240.544 75.5606 240.544C73.8326 240.544 72.7446 241.664 72.7446 243.584V248H71.6086V243.232C71.6086 241.456 70.7126 240.544 69.1766 240.544C67.4646 240.544 66.3606 241.664 66.3606 243.584V248H65.2246V239.584H66.3126V241.12C66.9046 240.112 67.9926 239.52 69.4006 239.52C70.7926 239.52 71.8806 240.112 72.3926 241.296C73.0006 240.208 74.2006 239.52 75.7206 239.52ZM89.5686 243.792C89.5686 243.888 89.5526 244.016 89.5526 244.144H82.5126C82.6406 245.904 83.9846 247.072 85.8246 247.072C86.8486 247.072 87.7606 246.704 88.4006 245.968L89.0406 246.704C88.2886 247.6 87.1206 248.08 85.7926 248.08C83.1686 248.08 81.3766 246.288 81.3766 243.792C81.3766 241.296 83.1206 239.52 85.4886 239.52C87.8566 239.52 89.5686 241.264 89.5686 243.792ZM85.4886 240.496C83.8566 240.496 82.6566 241.648 82.5126 243.296H88.4806C88.3366 241.648 87.1366 240.496 85.4886 240.496ZM96.1689 239.52C98.2169 239.52 99.6249 240.704 99.6249 243.12V248H98.4889V243.232C98.4889 241.456 97.5609 240.544 95.9609 240.544C94.1529 240.544 93.0169 241.664 93.0169 243.584V248H91.8809V239.584H92.9689V241.136C93.5769 240.112 94.7129 239.52 96.1689 239.52ZM106.741 246.672L107.141 247.488C106.693 247.888 106.021 248.08 105.365 248.08C103.781 248.08 102.901 247.184 102.901 245.632V240.544H101.397V239.584H102.901V237.744H104.037V239.584H106.597V240.544H104.037V245.568C104.037 246.56 104.549 247.104 105.493 247.104C105.957 247.104 106.421 246.96 106.741 246.672ZM153.975 246.672L154.375 247.488C153.927 247.888 153.255 248.08 152.599 248.08C151.015 248.08 150.135 247.184 150.135 245.632V240.544H148.631V239.584H150.135V237.744H151.271V239.584H153.831V240.544H151.271V245.568C151.271 246.56 151.783 247.104 152.727 247.104C153.191 247.104 153.655 246.96 153.975 246.672ZM159.587 248.08C157.123 248.08 155.299 246.288 155.299 243.792C155.299 241.296 157.123 239.52 159.587 239.52C162.051 239.52 163.859 241.296 163.859 243.792C163.859 246.288 162.051 248.08 159.587 248.08ZM159.587 247.072C161.379 247.072 162.707 245.76 162.707 243.792C162.707 241.824 161.379 240.512 159.587 240.512C157.795 240.512 156.451 241.824 156.451 243.792C156.451 245.76 157.795 247.072 159.587 247.072ZM210.64 248.128C209.712 248.128 208.885 247.941 208.16 247.568C207.435 247.184 206.864 246.656 206.448 245.984C206.043 245.312 205.84 244.549 205.84 243.696C205.84 242.832 206.043 242.069 206.448 241.408C206.864 240.736 207.435 240.213 208.16 239.84C208.885 239.456 209.712 239.264 210.64 239.264C211.547 239.264 212.336 239.456 213.008 239.84C213.68 240.213 214.176 240.752 214.496 241.456L212.56 242.496C212.336 242.091 212.053 241.792 211.712 241.6C211.381 241.408 211.019 241.312 210.624 241.312C210.197 241.312 209.813 241.408 209.472 241.6C209.131 241.792 208.859 242.064 208.656 242.416C208.464 242.768 208.368 243.195 208.368 243.696C208.368 244.197 208.464 244.624 208.656 244.976C208.859 245.328 209.131 245.6 209.472 245.792C209.813 245.984 210.197 246.08 210.624 246.08C211.019 246.08 211.381 245.989 211.712 245.808C212.053 245.616 212.336 245.312 212.56 244.896L214.496 245.952C214.176 246.645 213.68 247.184 213.008 247.568C212.336 247.941 211.547 248.128 210.64 248.128ZM219.92 248.128C219.003 248.128 218.187 247.936 217.472 247.552C216.768 247.168 216.208 246.645 215.792 245.984C215.387 245.312 215.184 244.549 215.184 243.696C215.184 242.832 215.387 242.069 215.792 241.408C216.208 240.736 216.768 240.213 217.472 239.84C218.187 239.456 219.003 239.264 219.92 239.264C220.827 239.264 221.637 239.456 222.352 239.84C223.067 240.213 223.627 240.731 224.032 241.392C224.437 242.053 224.64 242.821 224.64 243.696C224.64 244.549 224.437 245.312 224.032 245.984C223.627 246.645 223.067 247.168 222.352 247.552C221.637 247.936 220.827 248.128 219.92 248.128ZM219.92 246.08C220.336 246.08 220.709 245.984 221.04 245.792C221.371 245.6 221.632 245.328 221.824 244.976C222.016 244.613 222.112 244.187 222.112 243.696C222.112 243.195 222.016 242.768 221.824 242.416C221.632 242.064 221.371 241.792 221.04 241.6C220.709 241.408 220.336 241.312 219.92 241.312C219.504 241.312 219.131 241.408 218.8 241.6C218.469 241.792 218.203 242.064 218 242.416C217.808 242.768 217.712 243.195 217.712 243.696C217.712 244.187 217.808 244.613 218 244.976C218.203 245.328 218.469 245.6 218.8 245.792C219.131 245.984 219.504 246.08 219.92 246.08ZM231.54 239.264C232.223 239.264 232.831 239.403 233.364 239.68C233.908 239.947 234.335 240.363 234.644 240.928C234.954 241.483 235.108 242.197 235.108 243.072V248H232.612V243.456C232.612 242.763 232.458 242.251 232.148 241.92C231.85 241.589 231.423 241.424 230.868 241.424C230.474 241.424 230.116 241.509 229.796 241.68C229.487 241.84 229.242 242.091 229.06 242.432C228.89 242.773 228.804 243.211 228.804 243.744V248H226.308V239.392H228.692V241.776L228.244 241.056C228.554 240.48 228.996 240.037 229.572 239.728C230.148 239.419 230.804 239.264 231.54 239.264ZM240.891 248.128C239.877 248.128 239.088 247.872 238.523 247.36C237.957 246.837 237.675 246.064 237.675 245.04V237.488H240.171V245.008C240.171 245.371 240.267 245.653 240.459 245.856C240.651 246.048 240.912 246.144 241.243 246.144C241.637 246.144 241.973 246.037 242.251 245.824L242.923 247.584C242.667 247.765 242.357 247.904 241.995 248C241.643 248.085 241.275 248.128 240.891 248.128ZM236.347 241.504V239.584H242.315V241.504H236.347ZM244.324 248V239.392H246.82V248H244.324ZM245.572 238.192C245.113 238.192 244.74 238.059 244.452 237.792C244.164 237.525 244.02 237.195 244.02 236.8C244.02 236.405 244.164 236.075 244.452 235.808C244.74 235.541 245.113 235.408 245.572 235.408C246.031 235.408 246.404 235.536 246.692 235.792C246.98 236.037 247.124 236.357 247.124 236.752C247.124 237.168 246.98 237.515 246.692 237.792C246.415 238.059 246.041 238.192 245.572 238.192ZM254.368 239.264C255.051 239.264 255.659 239.403 256.192 239.68C256.736 239.947 257.163 240.363 257.472 240.928C257.782 241.483 257.936 242.197 257.936 243.072V248H255.44V243.456C255.44 242.763 255.286 242.251 254.976 241.92C254.678 241.589 254.251 241.424 253.696 241.424C253.302 241.424 252.944 241.509 252.624 241.68C252.315 241.84 252.07 242.091 251.888 242.432C251.718 242.773 251.632 243.211 251.632 243.744V248H249.136V239.392H251.52V241.776L251.072 241.056C251.382 240.48 251.824 240.037 252.4 239.728C252.976 239.419 253.632 239.264 254.368 239.264ZM263.831 248.128C263.116 248.128 262.476 247.989 261.911 247.712C261.356 247.435 260.924 247.013 260.615 246.448C260.306 245.872 260.151 245.141 260.151 244.256V239.392H262.647V243.888C262.647 244.603 262.796 245.131 263.095 245.472C263.404 245.803 263.836 245.968 264.391 245.968C264.775 245.968 265.116 245.888 265.415 245.728C265.714 245.557 265.948 245.301 266.119 244.96C266.29 244.608 266.375 244.171 266.375 243.648V239.392H268.871V248H266.503V245.632L266.935 246.32C266.647 246.917 266.22 247.371 265.655 247.68C265.1 247.979 264.492 248.128 263.831 248.128ZM275.279 248.128C274.362 248.128 273.546 247.936 272.831 247.552C272.127 247.168 271.567 246.645 271.151 245.984C270.746 245.312 270.543 244.549 270.543 243.696C270.543 242.832 270.746 242.069 271.151 241.408C271.567 240.736 272.127 240.213 272.831 239.84C273.546 239.456 274.362 239.264 275.279 239.264C276.186 239.264 276.997 239.456 277.711 239.84C278.426 240.213 278.986 240.731 279.391 241.392C279.797 242.053 279.999 242.821 279.999 243.696C279.999 244.549 279.797 245.312 279.391 245.984C278.986 246.645 278.426 247.168 277.711 247.552C276.997 247.936 276.186 248.128 275.279 248.128ZM275.279 246.08C275.695 246.08 276.069 245.984 276.399 245.792C276.73 245.6 276.991 245.328 277.183 244.976C277.375 244.613 277.471 244.187 277.471 243.696C277.471 243.195 277.375 242.768 277.183 242.416C276.991 242.064 276.73 241.792 276.399 241.6C276.069 241.408 275.695 241.312 275.279 241.312C274.863 241.312 274.49 241.408 274.159 241.6C273.829 241.792 273.562 242.064 273.359 242.416C273.167 242.768 273.071 243.195 273.071 243.696C273.071 244.187 273.167 244.613 273.359 244.976C273.562 245.328 273.829 245.6 274.159 245.792C274.49 245.984 274.863 246.08 275.279 246.08ZM285.3 248.128C284.585 248.128 283.945 247.989 283.38 247.712C282.825 247.435 282.393 247.013 282.084 246.448C281.774 245.872 281.62 245.141 281.62 244.256V239.392H284.116V243.888C284.116 244.603 284.265 245.131 284.564 245.472C284.873 245.803 285.305 245.968 285.86 245.968C286.244 245.968 286.585 245.888 286.884 245.728C287.182 245.557 287.417 245.301 287.588 244.96C287.758 244.608 287.844 244.171 287.844 243.648V239.392H290.34V248H287.972V245.632L288.404 246.32C288.116 246.917 287.689 247.371 287.124 247.68C286.569 247.979 285.961 248.128 285.3 248.128ZM295.548 248.128C294.812 248.128 294.103 248.043 293.42 247.872C292.748 247.691 292.215 247.467 291.82 247.2L292.652 245.408C293.047 245.653 293.511 245.856 294.044 246.016C294.588 246.165 295.121 246.24 295.644 246.24C296.22 246.24 296.625 246.171 296.86 246.032C297.105 245.893 297.228 245.701 297.228 245.456C297.228 245.253 297.132 245.104 296.94 245.008C296.759 244.901 296.513 244.821 296.204 244.768C295.895 244.715 295.553 244.661 295.18 244.608C294.817 244.555 294.449 244.485 294.076 244.4C293.703 244.304 293.361 244.165 293.052 243.984C292.743 243.803 292.492 243.557 292.3 243.248C292.119 242.939 292.028 242.539 292.028 242.048C292.028 241.504 292.183 241.024 292.492 240.608C292.812 240.192 293.271 239.867 293.868 239.632C294.465 239.387 295.18 239.264 296.012 239.264C296.599 239.264 297.196 239.328 297.804 239.456C298.412 239.584 298.919 239.771 299.324 240.016L298.492 241.792C298.076 241.547 297.655 241.381 297.228 241.296C296.812 241.2 296.407 241.152 296.012 241.152C295.457 241.152 295.052 241.227 294.796 241.376C294.54 241.525 294.412 241.717 294.412 241.952C294.412 242.165 294.503 242.325 294.684 242.432C294.876 242.539 295.127 242.624 295.436 242.688C295.745 242.752 296.081 242.811 296.444 242.864C296.817 242.907 297.191 242.976 297.564 243.072C297.937 243.168 298.273 243.307 298.572 243.488C298.881 243.659 299.132 243.899 299.324 244.208C299.516 244.507 299.612 244.901 299.612 245.392C299.612 245.925 299.452 246.4 299.132 246.816C298.812 247.221 298.348 247.541 297.74 247.776C297.143 248.011 296.412 248.128 295.548 248.128ZM4.848 270.128C4.03733 270.128 3.30667 269.947 2.656 269.584C2.00533 269.211 1.488 268.693 1.104 268.032C0.730667 267.371 0.544 266.592 0.544 265.696C0.544 264.789 0.730667 264.005 1.104 263.344C1.488 262.683 2.00533 262.171 2.656 261.808C3.30667 261.445 4.03733 261.264 4.848 261.264C5.57333 261.264 6.208 261.424 6.752 261.744C7.296 262.064 7.71733 262.549 8.016 263.2C8.31467 263.851 8.464 264.683 8.464 265.696C8.464 266.699 8.32 267.531 8.032 268.192C7.744 268.843 7.328 269.328 6.784 269.648C6.25067 269.968 5.60533 270.128 4.848 270.128ZM5.28 268.08C5.68533 268.08 6.05333 267.984 6.384 267.792C6.71467 267.6 6.976 267.328 7.168 266.976C7.37067 266.613 7.472 266.187 7.472 265.696C7.472 265.195 7.37067 264.768 7.168 264.416C6.976 264.064 6.71467 263.792 6.384 263.6C6.05333 263.408 5.68533 263.312 5.28 263.312C4.864 263.312 4.49067 263.408 4.16 263.6C3.82933 263.792 3.56267 264.064 3.36 264.416C3.168 264.768 3.072 265.195 3.072 265.696C3.072 266.187 3.168 266.613 3.36 266.976C3.56267 267.328 3.82933 267.6 4.16 267.792C4.49067 267.984 4.864 268.08 5.28 268.08ZM7.536 270V268.24L7.584 265.68L7.424 263.136V258.128H9.92V270H7.536ZM16.5021 270.128C15.5208 270.128 14.6568 269.936 13.9101 269.552C13.1741 269.168 12.6035 268.645 12.1981 267.984C11.7928 267.312 11.5901 266.549 11.5901 265.696C11.5901 264.832 11.7875 264.069 12.1821 263.408C12.5875 262.736 13.1368 262.213 13.8301 261.84C14.5235 261.456 15.3075 261.264 16.1821 261.264C17.0248 261.264 17.7821 261.445 18.4541 261.808C19.1368 262.16 19.6755 262.672 20.0701 263.344C20.4648 264.005 20.6621 264.8 20.6621 265.728C20.6621 265.824 20.6568 265.936 20.6461 266.064C20.6355 266.181 20.6248 266.293 20.6141 266.4H13.6221V264.944H19.3021L18.3421 265.376C18.3421 264.928 18.2515 264.539 18.0701 264.208C17.8888 263.877 17.6381 263.621 17.3181 263.44C16.9981 263.248 16.6248 263.152 16.1981 263.152C15.7715 263.152 15.3928 263.248 15.0621 263.44C14.7421 263.621 14.4915 263.883 14.3101 264.224C14.1288 264.555 14.0381 264.949 14.0381 265.408V265.792C14.0381 266.261 14.1395 266.677 14.3421 267.04C14.5555 267.392 14.8488 267.664 15.2221 267.856C15.6061 268.037 16.0541 268.128 16.5661 268.128C17.0248 268.128 17.4248 268.059 17.7661 267.92C18.1181 267.781 18.4381 267.573 18.7261 267.296L20.0541 268.736C19.6595 269.184 19.1635 269.531 18.5661 269.776C17.9688 270.011 17.2808 270.128 16.5021 270.128ZM22.3239 270V258.128H24.8199V270H22.3239ZM27.1364 270V261.392H29.6324V270H27.1364ZM28.3844 260.192C27.9257 260.192 27.5524 260.059 27.2644 259.792C26.9764 259.525 26.8324 259.195 26.8324 258.8C26.8324 258.405 26.9764 258.075 27.2644 257.808C27.5524 257.541 27.9257 257.408 28.3844 257.408C28.843 257.408 29.2164 257.536 29.5044 257.792C29.7924 258.037 29.9364 258.357 29.9364 258.752C29.9364 259.168 29.7924 259.515 29.5044 259.792C29.227 260.059 28.8537 260.192 28.3844 260.192ZM34.2849 270L30.6689 261.392H33.2449L36.2529 268.8H34.9729L38.0929 261.392H40.4929L36.8609 270H34.2849ZM45.549 270.128C44.5677 270.128 43.7037 269.936 42.957 269.552C42.221 269.168 41.6503 268.645 41.245 267.984C40.8397 267.312 40.637 266.549 40.637 265.696C40.637 264.832 40.8343 264.069 41.229 263.408C41.6343 262.736 42.1837 262.213 42.877 261.84C43.5703 261.456 44.3543 261.264 45.229 261.264C46.0717 261.264 46.829 261.445 47.501 261.808C48.1837 262.16 48.7223 262.672 49.117 263.344C49.5117 264.005 49.709 264.8 49.709 265.728C49.709 265.824 49.7037 265.936 49.693 266.064C49.6823 266.181 49.6717 266.293 49.661 266.4H42.669V264.944H48.349L47.389 265.376C47.389 264.928 47.2983 264.539 47.117 264.208C46.9357 263.877 46.685 263.621 46.365 263.44C46.045 263.248 45.6717 263.152 45.245 263.152C44.8183 263.152 44.4397 263.248 44.109 263.44C43.789 263.621 43.5383 263.883 43.357 264.224C43.1757 264.555 43.085 264.949 43.085 265.408V265.792C43.085 266.261 43.1863 266.677 43.389 267.04C43.6023 267.392 43.8957 267.664 44.269 267.856C44.653 268.037 45.101 268.128 45.613 268.128C46.0717 268.128 46.4717 268.059 46.813 267.92C47.165 267.781 47.485 267.573 47.773 267.296L49.101 268.736C48.7063 269.184 48.2103 269.531 47.613 269.776C47.0157 270.011 46.3277 270.128 45.549 270.128ZM51.3708 270V261.392H53.7548V263.824L53.4188 263.12C53.6748 262.512 54.0854 262.053 54.6508 261.744C55.2161 261.424 55.9041 261.264 56.7148 261.264V263.568C56.6081 263.557 56.5121 263.552 56.4268 263.552C56.3414 263.541 56.2508 263.536 56.1548 263.536C55.4721 263.536 54.9174 263.733 54.4908 264.128C54.0748 264.512 53.8668 265.115 53.8668 265.936V270H51.3708ZM59.5838 273.232C59.1358 273.232 58.6931 273.163 58.2558 273.024C57.8184 272.885 57.4611 272.693 57.1837 272.448L58.0958 270.672C58.2878 270.843 58.5064 270.976 58.7518 271.072C59.0078 271.168 59.2584 271.216 59.5038 271.216C59.8558 271.216 60.1331 271.131 60.3358 270.96C60.5491 270.8 60.7411 270.528 60.9118 270.144L61.3598 269.088L61.5518 268.816L64.6398 261.392H67.0398L63.1518 270.528C62.8744 271.221 62.5544 271.765 62.1918 272.16C61.8398 272.555 61.4451 272.832 61.0078 272.992C60.5811 273.152 60.1064 273.232 59.5838 273.232ZM61.0558 270.336L57.2157 261.392H59.7918L62.7678 268.592L61.0558 270.336ZM68.6183 268.336C69.1143 268.336 69.4663 268.72 69.4663 269.2C69.4663 269.472 69.4023 269.68 69.2423 270.128L68.5703 272.336H67.8023L68.3463 270.016C68.0103 269.92 67.7703 269.616 67.7703 269.2C67.7703 268.704 68.1383 268.336 68.6183 268.336ZM84.029 270.08C81.517 270.08 79.693 268.304 79.693 265.792C79.693 263.28 81.517 261.52 84.029 261.52C85.453 261.52 86.653 262.08 87.325 263.184L86.477 263.76C85.901 262.912 85.005 262.512 84.029 262.512C82.189 262.512 80.845 263.824 80.845 265.792C80.845 267.776 82.189 269.072 84.029 269.072C85.005 269.072 85.901 268.688 86.477 267.84L87.325 268.416C86.653 269.504 85.453 270.08 84.029 270.08ZM92.856 270.08C90.392 270.08 88.568 268.288 88.568 265.792C88.568 263.296 90.392 261.52 92.856 261.52C95.32 261.52 97.128 263.296 97.128 265.792C97.128 268.288 95.32 270.08 92.856 270.08ZM92.856 269.072C94.648 269.072 95.976 267.76 95.976 265.792C95.976 263.824 94.648 262.512 92.856 262.512C91.064 262.512 89.72 263.824 89.72 265.792C89.72 267.76 91.064 269.072 92.856 269.072ZM105.895 261.584H107.031V270H105.943V268.464C105.351 269.488 104.263 270.08 102.919 270.08C100.775 270.08 99.3673 268.88 99.3673 266.464V261.584H100.503V266.352C100.503 268.144 101.431 269.056 103.031 269.056C104.791 269.056 105.895 267.92 105.895 266V261.584ZM114.549 261.52C116.949 261.52 118.741 263.248 118.741 265.792C118.741 268.352 116.949 270.08 114.549 270.08C113.205 270.08 112.053 269.504 111.349 268.416V273.104H110.213V261.584H111.301V263.248C111.989 262.128 113.157 261.52 114.549 261.52ZM114.469 269.072C116.245 269.072 117.605 267.76 117.605 265.792C117.605 263.84 116.245 262.512 114.469 262.512C112.677 262.512 111.333 263.84 111.333 265.792C111.333 267.76 112.677 269.072 114.469 269.072ZM121.057 270V258.128H122.193V270H121.057ZM132.698 265.792C132.698 265.888 132.682 266.016 132.682 266.144H125.642C125.77 267.904 127.114 269.072 128.954 269.072C129.978 269.072 130.89 268.704 131.53 267.968L132.17 268.704C131.418 269.6 130.25 270.08 128.922 270.08C126.298 270.08 124.506 268.288 124.506 265.792C124.506 263.296 126.25 261.52 128.618 261.52C130.986 261.52 132.698 263.264 132.698 265.792ZM128.618 262.496C126.986 262.496 125.786 263.648 125.642 265.296H131.61C131.466 263.648 130.266 262.496 128.618 262.496ZM141.554 258.128H142.69V270H141.602V268.336C140.914 269.472 139.746 270.08 138.354 270.08C135.954 270.08 134.162 268.336 134.162 265.792C134.162 263.248 135.954 261.52 138.354 261.52C139.698 261.52 140.85 262.096 141.554 263.184V258.128ZM138.45 269.072C140.226 269.072 141.57 267.76 141.57 265.792C141.57 263.824 140.226 262.512 138.45 262.512C136.658 262.512 135.314 263.824 135.314 265.792C135.314 267.76 136.658 269.072 138.45 269.072ZM165.826 261.584H166.866L163.682 270H162.61L159.954 263.104L157.298 270H156.226L153.058 261.584H154.146L156.786 268.736L159.49 261.584H160.466L163.154 268.736L165.826 261.584ZM169.152 259.744C168.688 259.744 168.32 259.376 168.32 258.928C168.32 258.496 168.688 258.128 169.152 258.128C169.616 258.128 169.984 258.48 169.984 258.912C169.984 259.376 169.632 259.744 169.152 259.744ZM168.576 270V261.584H169.712V270H168.576ZM176.905 268.672L177.305 269.488C176.857 269.888 176.185 270.08 175.529 270.08C173.945 270.08 173.065 269.184 173.065 267.632V262.544H171.561V261.584H173.065V259.744H174.201V261.584H176.761V262.544H174.201V267.568C174.201 268.56 174.713 269.104 175.657 269.104C176.121 269.104 176.585 268.96 176.905 268.672ZM183.661 261.52C185.709 261.52 187.117 262.704 187.117 265.12V270H185.981V265.232C185.981 263.456 185.053 262.544 183.453 262.544C181.645 262.544 180.509 263.664 180.509 265.584V270H179.373V258.128H180.509V263.056C181.133 262.08 182.237 261.52 183.661 261.52ZM201.805 261.52C203.981 261.52 205.213 262.608 205.213 264.784V270H204.125V268.688C203.613 269.552 202.621 270.08 201.229 270.08C199.325 270.08 198.157 269.088 198.157 267.632C198.157 266.336 198.989 265.248 201.405 265.248H204.077V264.736C204.077 263.296 203.261 262.512 201.693 262.512C200.605 262.512 199.581 262.896 198.893 263.504L198.381 262.656C199.229 261.936 200.477 261.52 201.805 261.52ZM201.405 269.184C202.685 269.184 203.629 268.576 204.077 267.472V266.096H201.437C199.805 266.096 199.277 266.736 199.277 267.6C199.277 268.576 200.061 269.184 201.405 269.184ZM219.743 259.008C218.767 259.008 218.255 259.552 218.255 260.592V261.584H220.847V262.544H218.287V270H217.151V262.544H215.647V261.584H217.151V260.544C217.151 259.04 218.047 258.048 219.695 258.048C220.319 258.048 220.959 258.224 221.375 258.576L220.991 259.424C220.671 259.152 220.223 259.008 219.743 259.008ZM225.169 261.52C227.345 261.52 228.577 262.608 228.577 264.784V270H227.489V268.688C226.977 269.552 225.985 270.08 224.593 270.08C222.689 270.08 221.521 269.088 221.521 267.632C221.521 266.336 222.353 265.248 224.769 265.248H227.441V264.736C227.441 263.296 226.625 262.512 225.057 262.512C223.969 262.512 222.945 262.896 222.257 263.504L221.745 262.656C222.593 261.936 223.841 261.52 225.169 261.52ZM224.769 269.184C226.049 269.184 226.993 268.576 227.441 267.472V266.096H224.801C223.169 266.096 222.641 266.736 222.641 267.6C222.641 268.576 223.425 269.184 224.769 269.184ZM233.918 270.08C232.526 270.08 231.182 269.632 230.494 269.04L231.006 268.144C231.678 268.672 232.814 269.088 233.998 269.088C235.598 269.088 236.254 268.544 236.254 267.712C236.254 265.52 230.798 267.248 230.798 263.92C230.798 262.544 231.982 261.52 234.126 261.52C235.214 261.52 236.398 261.824 237.102 262.304L236.606 263.216C235.87 262.704 234.99 262.496 234.126 262.496C232.606 262.496 231.934 263.088 231.934 263.888C231.934 266.16 237.39 264.448 237.39 267.68C237.39 269.136 236.11 270.08 233.918 270.08ZM243.522 268.672L243.922 269.488C243.474 269.888 242.802 270.08 242.146 270.08C240.562 270.08 239.682 269.184 239.682 267.632V262.544H238.178V261.584H239.682V259.744H240.818V261.584H243.378V262.544H240.818V267.568C240.818 268.56 241.33 269.104 242.274 269.104C242.738 269.104 243.202 268.96 243.522 268.672ZM245.21 266.16V265.168H249.402V266.16H245.21ZM256.279 261.52C258.679 261.52 260.471 263.248 260.471 265.792C260.471 268.352 258.679 270.08 256.279 270.08C254.935 270.08 253.783 269.504 253.079 268.416V273.104H251.943V261.584H253.031V263.248C253.719 262.128 254.887 261.52 256.279 261.52ZM256.199 269.072C257.975 269.072 259.335 267.76 259.335 265.792C259.335 263.84 257.975 262.512 256.199 262.512C254.407 262.512 253.063 263.84 253.063 265.792C253.063 267.76 254.407 269.072 256.199 269.072ZM265.684 261.52C267.86 261.52 269.092 262.608 269.092 264.784V270H268.004V268.688C267.492 269.552 266.5 270.08 265.108 270.08C263.204 270.08 262.036 269.088 262.036 267.632C262.036 266.336 262.868 265.248 265.284 265.248H267.956V264.736C267.956 263.296 267.14 262.512 265.572 262.512C264.484 262.512 263.46 262.896 262.772 263.504L262.26 262.656C263.108 261.936 264.356 261.52 265.684 261.52ZM265.284 269.184C266.564 269.184 267.508 268.576 267.956 267.472V266.096H265.316C263.684 266.096 263.156 266.736 263.156 267.6C263.156 268.576 263.94 269.184 265.284 269.184ZM275.697 270.08C273.185 270.08 271.361 268.304 271.361 265.792C271.361 263.28 273.185 261.52 275.697 261.52C277.121 261.52 278.321 262.08 278.993 263.184L278.145 263.76C277.569 262.912 276.673 262.512 275.697 262.512C273.857 262.512 272.513 263.824 272.513 265.792C272.513 267.776 273.857 269.072 275.697 269.072C276.673 269.072 277.569 268.688 278.145 267.84L278.993 268.416C278.321 269.504 277.121 270.08 275.697 270.08ZM288.428 265.792C288.428 265.888 288.412 266.016 288.412 266.144H281.372C281.5 267.904 282.844 269.072 284.684 269.072C285.708 269.072 286.62 268.704 287.26 267.968L287.9 268.704C287.148 269.6 285.98 270.08 284.652 270.08C282.028 270.08 280.236 268.288 280.236 265.792C280.236 263.296 281.98 261.52 284.348 261.52C286.716 261.52 288.428 263.264 288.428 265.792ZM284.348 262.496C282.716 262.496 281.516 263.648 281.372 265.296H287.34C287.196 263.648 285.996 262.496 284.348 262.496ZM297.284 258.128H298.42V270H297.332V268.336C296.644 269.472 295.476 270.08 294.084 270.08C291.684 270.08 289.892 268.336 289.892 265.792C289.892 263.248 291.684 261.52 294.084 261.52C295.428 261.52 296.58 262.096 297.284 263.184V258.128ZM294.18 269.072C295.956 269.072 297.3 267.76 297.3 265.792C297.3 263.824 295.956 262.512 294.18 262.512C292.388 262.512 291.044 263.824 291.044 265.792C291.044 267.76 292.388 269.072 294.18 269.072ZM4.528 283.52C6.704 283.52 7.936 284.608 7.936 286.784V292H6.848V290.688C6.336 291.552 5.344 292.08 3.952 292.08C2.048 292.08 0.88 291.088 0.88 289.632C0.88 288.336 1.712 287.248 4.128 287.248H6.8V286.736C6.8 285.296 5.984 284.512 4.416 284.512C3.328 284.512 2.304 284.896 1.616 285.504L1.104 284.656C1.952 283.936 3.2 283.52 4.528 283.52ZM4.128 291.184C5.408 291.184 6.352 290.576 6.8 289.472V288.096H4.16C2.528 288.096 2 288.736 2 289.6C2 290.576 2.784 291.184 4.128 291.184ZM15.3095 283.52C17.3575 283.52 18.7655 284.704 18.7655 287.12V292H17.6295V287.232C17.6295 285.456 16.7015 284.544 15.1015 284.544C13.2935 284.544 12.1575 285.664 12.1575 287.584V292H11.0215V283.584H12.1095V285.136C12.7175 284.112 13.8535 283.52 15.3095 283.52ZM28.4249 280.128H29.5609V292H28.4729V290.336C27.7849 291.472 26.6169 292.08 25.2249 292.08C22.8249 292.08 21.0329 290.336 21.0329 287.792C21.0329 285.248 22.8249 283.52 25.2249 283.52C26.5689 283.52 27.7209 284.096 28.4249 285.184V280.128ZM25.3209 291.072C27.0969 291.072 28.4409 289.76 28.4409 287.792C28.4409 285.824 27.0969 284.512 25.3209 284.512C23.5289 284.512 22.1849 285.824 22.1849 287.792C22.1849 289.76 23.5289 291.072 25.3209 291.072ZM47.4366 280.128H48.5726V292H47.4846V290.336C46.7966 291.472 45.6286 292.08 44.2366 292.08C41.8366 292.08 40.0446 290.336 40.0446 287.792C40.0446 285.248 41.8366 283.52 44.2366 283.52C45.5806 283.52 46.7326 284.096 47.4366 285.184V280.128ZM44.3326 291.072C46.1086 291.072 47.4526 289.76 47.4526 287.792C47.4526 285.824 46.1086 284.512 44.3326 284.512C42.5406 284.512 41.1966 285.824 41.1966 287.792C41.1966 289.76 42.5406 291.072 44.3326 291.072ZM57.6883 283.584H58.8083L54.6003 293.008C53.8963 294.656 53.0003 295.184 51.8003 295.184C51.0163 295.184 50.2643 294.928 49.7523 294.416L50.2803 293.568C50.6963 293.984 51.2083 294.208 51.8163 294.208C52.5683 294.208 53.0803 293.856 53.5603 292.8L53.9283 291.984L50.1683 283.584H51.3523L54.5203 290.736L57.6883 283.584ZM64.6962 283.52C66.7442 283.52 68.1522 284.704 68.1522 287.12V292H67.0162V287.232C67.0162 285.456 66.0882 284.544 64.4882 284.544C62.6802 284.544 61.5442 285.664 61.5442 287.584V292H60.4082V283.584H61.4962V285.136C62.1042 284.112 63.2402 283.52 64.6962 283.52ZM74.1803 283.52C76.3563 283.52 77.5883 284.608 77.5883 286.784V292H76.5003V290.688C75.9883 291.552 74.9963 292.08 73.6043 292.08C71.7003 292.08 70.5323 291.088 70.5323 289.632C70.5323 288.336 71.3643 287.248 73.7803 287.248H76.4523V286.736C76.4523 285.296 75.6363 284.512 74.0683 284.512C72.9803 284.512 71.9563 284.896 71.2683 285.504L70.7563 284.656C71.6043 283.936 72.8523 283.52 74.1803 283.52ZM73.7803 291.184C75.0603 291.184 76.0043 290.576 76.4523 289.472V288.096H73.8123C72.1803 288.096 71.6523 288.736 71.6523 289.6C71.6523 290.576 72.4363 291.184 73.7803 291.184ZM91.1698 283.52C93.2178 283.52 94.5618 284.704 94.5618 287.12V292H93.4258V287.232C93.4258 285.456 92.5298 284.544 91.0098 284.544C89.2818 284.544 88.1938 285.664 88.1938 287.584V292H87.0578V287.232C87.0578 285.456 86.1618 284.544 84.6258 284.544C82.9138 284.544 81.8098 285.664 81.8098 287.584V292H80.6738V283.584H81.7618V285.12C82.3538 284.112 83.4418 283.52 84.8498 283.52C86.2418 283.52 87.3298 284.112 87.8418 285.296C88.4498 284.208 89.6498 283.52 91.1698 283.52ZM98.2186 281.744C97.7546 281.744 97.3866 281.376 97.3866 280.928C97.3866 280.496 97.7546 280.128 98.2186 280.128C98.6826 280.128 99.0506 280.48 99.0506 280.912C99.0506 281.376 98.6986 281.744 98.2186 281.744ZM97.6426 292V283.584H98.7786V292H97.6426ZM105.427 292.08C102.915 292.08 101.091 290.304 101.091 287.792C101.091 285.28 102.915 283.52 105.427 283.52C106.851 283.52 108.051 284.08 108.723 285.184L107.875 285.76C107.299 284.912 106.403 284.512 105.427 284.512C103.587 284.512 102.243 285.824 102.243 287.792C102.243 289.776 103.587 291.072 105.427 291.072C106.403 291.072 107.299 290.688 107.875 289.84L108.723 290.416C108.051 291.504 106.851 292.08 105.427 292.08ZM122.067 283.52C124.243 283.52 125.475 284.608 125.475 286.784V292H124.387V290.688C123.875 291.552 122.883 292.08 121.491 292.08C119.587 292.08 118.419 291.088 118.419 289.632C118.419 288.336 119.251 287.248 121.667 287.248H124.339V286.736C124.339 285.296 123.523 284.512 121.955 284.512C120.867 284.512 119.843 284.896 119.155 285.504L118.643 284.656C119.491 283.936 120.739 283.52 122.067 283.52ZM121.667 291.184C122.947 291.184 123.891 290.576 124.339 289.472V288.096H121.699C120.067 288.096 119.539 288.736 119.539 289.6C119.539 290.576 120.323 291.184 121.667 291.184ZM132.897 283.52C135.297 283.52 137.089 285.248 137.089 287.792C137.089 290.352 135.297 292.08 132.897 292.08C131.553 292.08 130.401 291.504 129.697 290.416V295.104H128.561V283.584H129.649V285.248C130.337 284.128 131.505 283.52 132.897 283.52ZM132.817 291.072C134.593 291.072 135.953 289.76 135.953 287.792C135.953 285.84 134.593 284.512 132.817 284.512C131.025 284.512 129.681 285.84 129.681 287.792C129.681 289.76 131.025 291.072 132.817 291.072ZM143.74 283.52C146.14 283.52 147.932 285.248 147.932 287.792C147.932 290.352 146.14 292.08 143.74 292.08C142.396 292.08 141.244 291.504 140.54 290.416V295.104H139.404V283.584H140.492V285.248C141.18 284.128 142.348 283.52 143.74 283.52ZM143.66 291.072C145.436 291.072 146.796 289.76 146.796 287.792C146.796 285.84 145.436 284.512 143.66 284.512C141.868 284.512 140.524 285.84 140.524 287.792C140.524 289.76 141.868 291.072 143.66 291.072ZM151.336 285.232C151.864 284.112 152.936 283.52 154.488 283.52V284.624C154.392 284.624 154.296 284.608 154.216 284.608C152.456 284.608 151.384 285.728 151.384 287.712V292H150.248V283.584H151.336V285.232ZM159.907 292.08C157.443 292.08 155.619 290.288 155.619 287.792C155.619 285.296 157.443 283.52 159.907 283.52C162.371 283.52 164.179 285.296 164.179 287.792C164.179 290.288 162.371 292.08 159.907 292.08ZM159.907 291.072C161.699 291.072 163.027 289.76 163.027 287.792C163.027 285.824 161.699 284.512 159.907 284.512C158.115 284.512 156.771 285.824 156.771 287.792C156.771 289.76 158.115 291.072 159.907 291.072ZM169.395 283.52C171.571 283.52 172.803 284.608 172.803 286.784V292H171.715V290.688C171.203 291.552 170.211 292.08 168.819 292.08C166.915 292.08 165.747 291.088 165.747 289.632C165.747 288.336 166.579 287.248 168.995 287.248H171.667V286.736C171.667 285.296 170.851 284.512 169.283 284.512C168.195 284.512 167.171 284.896 166.483 285.504L165.971 284.656C166.819 283.936 168.067 283.52 169.395 283.52ZM168.995 291.184C170.275 291.184 171.219 290.576 171.667 289.472V288.096H169.027C167.395 288.096 166.867 288.736 166.867 289.6C166.867 290.576 167.651 291.184 168.995 291.184ZM179.408 292.08C176.896 292.08 175.072 290.304 175.072 287.792C175.072 285.28 176.896 283.52 179.408 283.52C180.832 283.52 182.032 284.08 182.704 285.184L181.856 285.76C181.28 284.912 180.384 284.512 179.408 284.512C177.568 284.512 176.224 285.824 176.224 287.792C176.224 289.776 177.568 291.072 179.408 291.072C180.384 291.072 181.28 290.688 181.856 289.84L182.704 290.416C182.032 291.504 180.832 292.08 179.408 292.08ZM189.099 283.52C191.147 283.52 192.555 284.704 192.555 287.12V292H191.419V287.232C191.419 285.456 190.491 284.544 188.891 284.544C187.083 284.544 185.947 285.664 185.947 287.584V292H184.811V280.128H185.947V285.056C186.571 284.08 187.675 283.52 189.099 283.52ZM207.839 290.672L208.239 291.488C207.791 291.888 207.119 292.08 206.463 292.08C204.879 292.08 203.999 291.184 203.999 289.632V284.544H202.495V283.584H203.999V281.744H205.135V283.584H207.695V284.544H205.135V289.568C205.135 290.56 205.647 291.104 206.591 291.104C207.055 291.104 207.519 290.96 207.839 290.672ZM213.45 292.08C210.986 292.08 209.162 290.288 209.162 287.792C209.162 285.296 210.986 283.52 213.45 283.52C215.914 283.52 217.722 285.296 217.722 287.792C217.722 290.288 215.914 292.08 213.45 292.08ZM213.45 291.072C215.242 291.072 216.57 289.76 216.57 287.792C216.57 285.824 215.242 284.512 213.45 284.512C211.658 284.512 210.314 285.824 210.314 287.792C210.314 289.76 211.658 291.072 213.45 291.072ZM230.465 292.08C229.073 292.08 227.729 291.632 227.041 291.04L227.553 290.144C228.225 290.672 229.361 291.088 230.545 291.088C232.145 291.088 232.801 290.544 232.801 289.712C232.801 287.52 227.345 289.248 227.345 285.92C227.345 284.544 228.529 283.52 230.673 283.52C231.761 283.52 232.945 283.824 233.649 284.304L233.153 285.216C232.417 284.704 231.537 284.496 230.673 284.496C229.153 284.496 228.481 285.088 228.481 285.888C228.481 288.16 233.937 286.448 233.937 289.68C233.937 291.136 232.657 292.08 230.465 292.08ZM239.477 292.08C237.013 292.08 235.189 290.288 235.189 287.792C235.189 285.296 237.013 283.52 239.477 283.52C241.941 283.52 243.749 285.296 243.749 287.792C243.749 290.288 241.941 292.08 239.477 292.08ZM239.477 291.072C241.269 291.072 242.597 289.76 242.597 287.792C242.597 285.824 241.269 284.512 239.477 284.512C237.685 284.512 236.341 285.824 236.341 287.792C236.341 289.76 237.685 291.072 239.477 291.072ZM252.516 283.584H253.652V292H252.564V290.464C251.972 291.488 250.884 292.08 249.54 292.08C247.396 292.08 245.988 290.88 245.988 288.464V283.584H247.124V288.352C247.124 290.144 248.052 291.056 249.652 291.056C251.412 291.056 252.516 289.92 252.516 288V283.584ZM257.922 285.232C258.45 284.112 259.522 283.52 261.074 283.52V284.624C260.978 284.624 260.882 284.608 260.802 284.608C259.042 284.608 257.97 285.728 257.97 287.712V292H256.834V283.584H257.922V285.232ZM266.541 292.08C264.029 292.08 262.205 290.304 262.205 287.792C262.205 285.28 264.029 283.52 266.541 283.52C267.965 283.52 269.165 284.08 269.837 285.184L268.989 285.76C268.413 284.912 267.517 284.512 266.541 284.512C264.701 284.512 263.357 285.824 263.357 287.792C263.357 289.776 264.701 291.072 266.541 291.072C267.517 291.072 268.413 290.688 268.989 289.84L269.837 290.416C269.165 291.504 267.965 292.08 266.541 292.08ZM272.644 281.744C272.18 281.744 271.812 281.376 271.812 280.928C271.812 280.496 272.18 280.128 272.644 280.128C273.108 280.128 273.476 280.48 273.476 280.912C273.476 281.376 273.124 281.744 272.644 281.744ZM272.068 292V283.584H273.204V292H272.068ZM280.653 283.52C282.701 283.52 284.109 284.704 284.109 287.12V292H282.973V287.232C282.973 285.456 282.045 284.544 280.445 284.544C278.637 284.544 277.501 285.664 277.501 287.584V292H276.365V283.584H277.453V285.136C278.061 284.112 279.197 283.52 280.653 283.52ZM293.929 283.584H295.017V290.976C295.017 293.872 293.593 295.184 290.809 295.184C289.273 295.184 287.769 294.72 286.889 293.888L287.465 293.024C288.265 293.744 289.481 294.176 290.777 294.176C292.905 294.176 293.881 293.2 293.881 291.12V290.048C293.177 291.12 291.977 291.68 290.601 291.68C288.201 291.68 286.377 290 286.377 287.584C286.377 285.168 288.201 283.52 290.601 283.52C292.009 283.52 293.225 284.096 293.929 285.2V283.584ZM290.713 290.672C292.569 290.672 293.913 289.408 293.913 287.584C293.913 285.76 292.569 284.512 290.713 284.512C288.857 284.512 287.529 285.76 287.529 287.584C287.529 289.408 288.857 290.672 290.713 290.672ZM298.321 290.336C298.817 290.336 299.169 290.72 299.169 291.2C299.169 291.472 299.105 291.68 298.945 292.128L298.273 294.336H297.505L298.049 292.016C297.713 291.92 297.473 291.616 297.473 291.2C297.473 290.704 297.841 290.336 298.321 290.336ZM6.384 305.264C7.06667 305.264 7.67467 305.403 8.208 305.68C8.752 305.947 9.17867 306.363 9.488 306.928C9.79733 307.483 9.952 308.197 9.952 309.072V314H7.456V309.456C7.456 308.763 7.30133 308.251 6.992 307.92C6.69333 307.589 6.26667 307.424 5.712 307.424C5.31733 307.424 4.96 307.509 4.64 307.68C4.33067 307.84 4.08533 308.091 3.904 308.432C3.73333 308.773 3.648 309.211 3.648 309.744V314H1.152V302.128H3.648V307.776L3.088 307.056C3.39733 306.48 3.84 306.037 4.416 305.728C4.992 305.419 5.648 305.264 6.384 305.264ZM16.549 314.128C15.5677 314.128 14.7037 313.936 13.957 313.552C13.221 313.168 12.6503 312.645 12.245 311.984C11.8397 311.312 11.637 310.549 11.637 309.696C11.637 308.832 11.8343 308.069 12.229 307.408C12.6343 306.736 13.1837 306.213 13.877 305.84C14.5703 305.456 15.3543 305.264 16.229 305.264C17.0717 305.264 17.829 305.445 18.501 305.808C19.1837 306.16 19.7223 306.672 20.117 307.344C20.5117 308.005 20.709 308.8 20.709 309.728C20.709 309.824 20.7037 309.936 20.693 310.064C20.6823 310.181 20.6717 310.293 20.661 310.4H13.669V308.944H19.349L18.389 309.376C18.389 308.928 18.2983 308.539 18.117 308.208C17.9357 307.877 17.685 307.621 17.365 307.44C17.045 307.248 16.6717 307.152 16.245 307.152C15.8183 307.152 15.4397 307.248 15.109 307.44C14.789 307.621 14.5383 307.883 14.357 308.224C14.1757 308.555 14.085 308.949 14.085 309.408V309.792C14.085 310.261 14.1863 310.677 14.389 311.04C14.6023 311.392 14.8957 311.664 15.269 311.856C15.653 312.037 16.101 312.128 16.613 312.128C17.0717 312.128 17.4717 312.059 17.813 311.92C18.165 311.781 18.485 311.573 18.773 311.296L20.101 312.736C19.7063 313.184 19.2103 313.531 18.613 313.776C18.0157 314.011 17.3277 314.128 16.549 314.128ZM22.3708 314V302.128H24.8668V314H22.3708ZM32.2713 314.128C31.5459 314.128 30.9113 313.968 30.3673 313.648C29.8233 313.328 29.3966 312.843 29.0873 312.192C28.7886 311.531 28.6393 310.699 28.6393 309.696C28.6393 308.683 28.7833 307.851 29.0713 307.2C29.3593 306.549 29.7753 306.064 30.3193 305.744C30.8633 305.424 31.5139 305.264 32.2713 305.264C33.0819 305.264 33.8073 305.451 34.4473 305.824C35.0979 306.187 35.6099 306.699 35.9833 307.36C36.3673 308.021 36.5593 308.8 36.5593 309.696C36.5593 310.603 36.3673 311.387 35.9833 312.048C35.6099 312.709 35.0979 313.221 34.4473 313.584C33.8073 313.947 33.0819 314.128 32.2713 314.128ZM27.1833 317.104V305.392H29.5673V307.152L29.5193 309.712L29.6793 312.256V317.104H27.1833ZM31.8393 312.08C32.2553 312.08 32.6233 311.984 32.9433 311.792C33.2739 311.6 33.5353 311.328 33.7273 310.976C33.9299 310.613 34.0312 310.187 34.0312 309.696C34.0312 309.195 33.9299 308.768 33.7273 308.416C33.5353 308.064 33.2739 307.792 32.9433 307.6C32.6233 307.408 32.2553 307.312 31.8393 307.312C31.4233 307.312 31.0499 307.408 30.7193 307.6C30.3886 307.792 30.1273 308.064 29.9353 308.416C29.7433 308.768 29.6473 309.195 29.6473 309.696C29.6473 310.187 29.7433 310.613 29.9353 310.976C30.1273 311.328 30.3886 311.6 30.7193 311.792C31.0499 311.984 31.4233 312.08 31.8393 312.08ZM41.1261 314.128C40.3901 314.128 39.6808 314.043 38.9981 313.872C38.3261 313.691 37.7928 313.467 37.3981 313.2L38.2301 311.408C38.6248 311.653 39.0888 311.856 39.6221 312.016C40.1661 312.165 40.6995 312.24 41.2221 312.24C41.7981 312.24 42.2035 312.171 42.4381 312.032C42.6835 311.893 42.8061 311.701 42.8061 311.456C42.8061 311.253 42.7101 311.104 42.5181 311.008C42.3368 310.901 42.0915 310.821 41.7821 310.768C41.4728 310.715 41.1315 310.661 40.7581 310.608C40.3955 310.555 40.0275 310.485 39.6541 310.4C39.2808 310.304 38.9395 310.165 38.6301 309.984C38.3208 309.803 38.0701 309.557 37.8781 309.248C37.6968 308.939 37.6061 308.539 37.6061 308.048C37.6061 307.504 37.7608 307.024 38.0701 306.608C38.3901 306.192 38.8488 305.867 39.4461 305.632C40.0435 305.387 40.7581 305.264 41.5901 305.264C42.1768 305.264 42.7741 305.328 43.3821 305.456C43.9901 305.584 44.4968 305.771 44.9021 306.016L44.0701 307.792C43.6541 307.547 43.2328 307.381 42.8061 307.296C42.3901 307.2 41.9848 307.152 41.5901 307.152C41.0355 307.152 40.6301 307.227 40.3741 307.376C40.1181 307.525 39.9901 307.717 39.9901 307.952C39.9901 308.165 40.0808 308.325 40.2621 308.432C40.4541 308.539 40.7048 308.624 41.0141 308.688C41.3235 308.752 41.6595 308.811 42.0221 308.864C42.3955 308.907 42.7688 308.976 43.1421 309.072C43.5155 309.168 43.8515 309.307 44.1501 309.488C44.4595 309.659 44.7101 309.899 44.9021 310.208C45.0941 310.507 45.1901 310.901 45.1901 311.392C45.1901 311.925 45.0301 312.4 44.7101 312.816C44.3901 313.221 43.9261 313.541 43.3181 313.776C42.7208 314.011 41.9901 314.128 41.1261 314.128ZM72.6278 314.128C71.9131 314.128 71.2731 313.989 70.7078 313.712C70.1531 313.435 69.7211 313.013 69.4118 312.448C69.1024 311.872 68.9478 311.141 68.9478 310.256V305.392H71.4438V309.888C71.4438 310.603 71.5931 311.131 71.8918 311.472C72.2011 311.803 72.6331 311.968 73.1878 311.968C73.5718 311.968 73.9131 311.888 74.2118 311.728C74.5104 311.557 74.7451 311.301 74.9158 310.96C75.0864 310.608 75.1718 310.171 75.1718 309.648V305.392H77.6678V314H75.2998V311.632L75.7318 312.32C75.4438 312.917 75.0171 313.371 74.4518 313.68C73.8971 313.979 73.2891 314.128 72.6278 314.128ZM82.8761 314.128C82.1401 314.128 81.4308 314.043 80.7481 313.872C80.0761 313.691 79.5428 313.467 79.1481 313.2L79.9801 311.408C80.3748 311.653 80.8388 311.856 81.3721 312.016C81.9161 312.165 82.4495 312.24 82.9721 312.24C83.5481 312.24 83.9535 312.171 84.1881 312.032C84.4335 311.893 84.5561 311.701 84.5561 311.456C84.5561 311.253 84.4601 311.104 84.2681 311.008C84.0868 310.901 83.8415 310.821 83.5321 310.768C83.2228 310.715 82.8815 310.661 82.5081 310.608C82.1455 310.555 81.7775 310.485 81.4041 310.4C81.0308 310.304 80.6895 310.165 80.3801 309.984C80.0708 309.803 79.8201 309.557 79.6281 309.248C79.4468 308.939 79.3561 308.539 79.3561 308.048C79.3561 307.504 79.5108 307.024 79.8201 306.608C80.1401 306.192 80.5988 305.867 81.1961 305.632C81.7935 305.387 82.5081 305.264 83.3401 305.264C83.9268 305.264 84.5241 305.328 85.1321 305.456C85.7401 305.584 86.2468 305.771 86.6521 306.016L85.8201 307.792C85.4041 307.547 84.9828 307.381 84.5561 307.296C84.1401 307.2 83.7348 307.152 83.3401 307.152C82.7855 307.152 82.3801 307.227 82.1241 307.376C81.8681 307.525 81.7401 307.717 81.7401 307.952C81.7401 308.165 81.8308 308.325 82.0121 308.432C82.2041 308.539 82.4548 308.624 82.7641 308.688C83.0735 308.752 83.4095 308.811 83.7721 308.864C84.1455 308.907 84.5188 308.976 84.8921 309.072C85.2655 309.168 85.6015 309.307 85.9001 309.488C86.2095 309.659 86.4601 309.899 86.6521 310.208C86.8441 310.507 86.9401 310.901 86.9401 311.392C86.9401 311.925 86.7801 312.4 86.4601 312.816C86.1401 313.221 85.6761 313.541 85.0681 313.776C84.4708 314.011 83.7401 314.128 82.8761 314.128ZM116.026 314V312.32L115.866 311.952V308.944C115.866 308.411 115.7 307.995 115.37 307.696C115.05 307.397 114.554 307.248 113.882 307.248C113.423 307.248 112.97 307.323 112.522 307.472C112.084 307.611 111.711 307.803 111.402 308.048L110.506 306.304C110.975 305.973 111.54 305.717 112.202 305.536C112.863 305.355 113.535 305.264 114.218 305.264C115.53 305.264 116.548 305.573 117.274 306.192C117.999 306.811 118.362 307.776 118.362 309.088V314H116.026ZM113.402 314.128C112.73 314.128 112.154 314.016 111.674 313.792C111.194 313.557 110.826 313.243 110.57 312.848C110.314 312.453 110.186 312.011 110.186 311.52C110.186 311.008 110.308 310.56 110.554 310.176C110.81 309.792 111.21 309.493 111.754 309.28C112.298 309.056 113.007 308.944 113.882 308.944H116.17V310.4H114.154C113.567 310.4 113.162 310.496 112.938 310.688C112.724 310.88 112.618 311.12 112.618 311.408C112.618 311.728 112.74 311.984 112.986 312.176C113.242 312.357 113.588 312.448 114.026 312.448C114.442 312.448 114.815 312.352 115.146 312.16C115.476 311.957 115.716 311.664 115.866 311.28L116.25 312.432C116.068 312.987 115.738 313.408 115.258 313.696C114.778 313.984 114.159 314.128 113.402 314.128ZM124.379 314.128C123.569 314.128 122.838 313.947 122.187 313.584C121.537 313.211 121.019 312.693 120.635 312.032C120.262 311.371 120.075 310.592 120.075 309.696C120.075 308.789 120.262 308.005 120.635 307.344C121.019 306.683 121.537 306.171 122.187 305.808C122.838 305.445 123.569 305.264 124.379 305.264C125.105 305.264 125.739 305.424 126.283 305.744C126.827 306.064 127.249 306.549 127.547 307.2C127.846 307.851 127.995 308.683 127.995 309.696C127.995 310.699 127.851 311.531 127.563 312.192C127.275 312.843 126.859 313.328 126.315 313.648C125.782 313.968 125.137 314.128 124.379 314.128ZM124.811 312.08C125.217 312.08 125.585 311.984 125.915 311.792C126.246 311.6 126.507 311.328 126.699 310.976C126.902 310.613 127.003 310.187 127.003 309.696C127.003 309.195 126.902 308.768 126.699 308.416C126.507 308.064 126.246 307.792 125.915 307.6C125.585 307.408 125.217 307.312 124.811 307.312C124.395 307.312 124.022 307.408 123.691 307.6C123.361 307.792 123.094 308.064 122.891 308.416C122.699 308.768 122.603 309.195 122.603 309.696C122.603 310.187 122.699 310.613 122.891 310.976C123.094 311.328 123.361 311.6 123.691 311.792C124.022 311.984 124.395 312.08 124.811 312.08ZM127.067 314V312.24L127.115 309.68L126.955 307.136V302.128H129.451V314H127.067ZM137.041 314V312.32L136.881 311.952V308.944C136.881 308.411 136.716 307.995 136.385 307.696C136.065 307.397 135.569 307.248 134.897 307.248C134.439 307.248 133.985 307.323 133.537 307.472C133.1 307.611 132.727 307.803 132.417 308.048L131.521 306.304C131.991 305.973 132.556 305.717 133.217 305.536C133.879 305.355 134.551 305.264 135.233 305.264C136.545 305.264 137.564 305.573 138.289 306.192C139.015 306.811 139.377 307.776 139.377 309.088V314H137.041ZM134.417 314.128C133.745 314.128 133.169 314.016 132.689 313.792C132.209 313.557 131.841 313.243 131.585 312.848C131.329 312.453 131.201 312.011 131.201 311.52C131.201 311.008 131.324 310.56 131.569 310.176C131.825 309.792 132.225 309.493 132.769 309.28C133.313 309.056 134.023 308.944 134.897 308.944H137.185V310.4H135.169C134.583 310.4 134.177 310.496 133.953 310.688C133.74 310.88 133.633 311.12 133.633 311.408C133.633 311.728 133.756 311.984 134.001 312.176C134.257 312.357 134.604 312.448 135.041 312.448C135.457 312.448 135.831 312.352 136.161 312.16C136.492 311.957 136.732 311.664 136.881 311.28L137.265 312.432C137.084 312.987 136.753 313.408 136.273 313.696C135.793 313.984 135.175 314.128 134.417 314.128ZM146.724 314.128C145.999 314.128 145.364 313.968 144.82 313.648C144.276 313.328 143.85 312.843 143.54 312.192C143.242 311.531 143.092 310.699 143.092 309.696C143.092 308.683 143.236 307.851 143.524 307.2C143.812 306.549 144.228 306.064 144.772 305.744C145.316 305.424 145.967 305.264 146.724 305.264C147.535 305.264 148.26 305.451 148.9 305.824C149.551 306.187 150.063 306.699 150.436 307.36C150.82 308.021 151.012 308.8 151.012 309.696C151.012 310.603 150.82 311.387 150.436 312.048C150.063 312.709 149.551 313.221 148.9 313.584C148.26 313.947 147.535 314.128 146.724 314.128ZM141.636 317.104V305.392H144.02V307.152L143.972 309.712L144.132 312.256V317.104H141.636ZM146.292 312.08C146.708 312.08 147.076 311.984 147.396 311.792C147.727 311.6 147.988 311.328 148.18 310.976C148.383 310.613 148.484 310.187 148.484 309.696C148.484 309.195 148.383 308.768 148.18 308.416C147.988 308.064 147.727 307.792 147.396 307.6C147.076 307.408 146.708 307.312 146.292 307.312C145.876 307.312 145.503 307.408 145.172 307.6C144.842 307.792 144.58 308.064 144.388 308.416C144.196 308.768 144.1 309.195 144.1 309.696C144.1 310.187 144.196 310.613 144.388 310.976C144.58 311.328 144.842 311.6 145.172 311.792C145.503 311.984 145.876 312.08 146.292 312.08ZM156.203 314.128C155.19 314.128 154.401 313.872 153.835 313.36C153.27 312.837 152.987 312.064 152.987 311.04V303.488H155.483V311.008C155.483 311.371 155.579 311.653 155.771 311.856C155.963 312.048 156.225 312.144 156.555 312.144C156.95 312.144 157.286 312.037 157.563 311.824L158.235 313.584C157.979 313.765 157.67 313.904 157.307 314C156.955 314.085 156.587 314.128 156.203 314.128ZM151.659 307.504V305.584H157.627V307.504H151.659ZM185.422 314.128C184.409 314.128 183.619 313.872 183.054 313.36C182.489 312.837 182.206 312.064 182.206 311.04V303.488H184.702V311.008C184.702 311.371 184.798 311.653 184.99 311.856C185.182 312.048 185.443 312.144 185.774 312.144C186.169 312.144 186.505 312.037 186.782 311.824L187.454 313.584C187.198 313.765 186.889 313.904 186.526 314C186.174 314.085 185.806 314.128 185.422 314.128ZM180.878 307.504V305.584H186.846V307.504H180.878ZM192.686 314.128C191.768 314.128 190.952 313.936 190.238 313.552C189.534 313.168 188.974 312.645 188.558 311.984C188.152 311.312 187.95 310.549 187.95 309.696C187.95 308.832 188.152 308.069 188.558 307.408C188.974 306.736 189.534 306.213 190.238 305.84C190.952 305.456 191.768 305.264 192.686 305.264C193.592 305.264 194.403 305.456 195.118 305.84C195.832 306.213 196.392 306.731 196.798 307.392C197.203 308.053 197.406 308.821 197.406 309.696C197.406 310.549 197.203 311.312 196.798 311.984C196.392 312.645 195.832 313.168 195.118 313.552C194.403 313.936 193.592 314.128 192.686 314.128ZM192.686 312.08C193.102 312.08 193.475 311.984 193.806 311.792C194.136 311.6 194.398 311.328 194.59 310.976C194.782 310.613 194.878 310.187 194.878 309.696C194.878 309.195 194.782 308.768 194.59 308.416C194.398 308.064 194.136 307.792 193.806 307.6C193.475 307.408 193.102 307.312 192.686 307.312C192.27 307.312 191.896 307.408 191.566 307.6C191.235 307.792 190.968 308.064 190.766 308.416C190.574 308.768 190.478 309.195 190.478 309.696C190.478 310.187 190.574 310.613 190.766 310.976C190.968 311.328 191.235 311.6 191.566 311.792C191.896 311.984 192.27 312.08 192.686 312.08ZM225.5 314.128C224.572 314.128 223.745 313.941 223.02 313.568C222.294 313.184 221.724 312.656 221.308 311.984C220.902 311.312 220.7 310.549 220.7 309.696C220.7 308.832 220.902 308.069 221.308 307.408C221.724 306.736 222.294 306.213 223.02 305.84C223.745 305.456 224.572 305.264 225.5 305.264C226.406 305.264 227.196 305.456 227.868 305.84C228.54 306.213 229.036 306.752 229.356 307.456L227.42 308.496C227.196 308.091 226.913 307.792 226.572 307.6C226.241 307.408 225.878 307.312 225.484 307.312C225.057 307.312 224.673 307.408 224.332 307.6C223.99 307.792 223.718 308.064 223.516 308.416C223.324 308.768 223.228 309.195 223.228 309.696C223.228 310.197 223.324 310.624 223.516 310.976C223.718 311.328 223.99 311.6 224.332 311.792C224.673 311.984 225.057 312.08 225.484 312.08C225.878 312.08 226.241 311.989 226.572 311.808C226.913 311.616 227.196 311.312 227.42 310.896L229.356 311.952C229.036 312.645 228.54 313.184 227.868 313.568C227.196 313.941 226.406 314.128 225.5 314.128ZM235.978 305.264C236.66 305.264 237.268 305.403 237.802 305.68C238.346 305.947 238.772 306.363 239.082 306.928C239.391 307.483 239.546 308.197 239.546 309.072V314H237.05V309.456C237.05 308.763 236.895 308.251 236.586 307.92C236.287 307.589 235.86 307.424 235.306 307.424C234.911 307.424 234.554 307.509 234.234 307.68C233.924 307.84 233.679 308.091 233.498 308.432C233.327 308.773 233.242 309.211 233.242 309.744V314H230.746V302.128H233.242V307.776L232.682 307.056C232.991 306.48 233.434 306.037 234.01 305.728C234.586 305.419 235.242 305.264 235.978 305.264ZM247.088 314V312.32L246.928 311.952V308.944C246.928 308.411 246.763 307.995 246.432 307.696C246.112 307.397 245.616 307.248 244.944 307.248C244.486 307.248 244.032 307.323 243.584 307.472C243.147 307.611 242.774 307.803 242.464 308.048L241.568 306.304C242.038 305.973 242.603 305.717 243.264 305.536C243.926 305.355 244.598 305.264 245.28 305.264C246.592 305.264 247.611 305.573 248.336 306.192C249.062 306.811 249.424 307.776 249.424 309.088V314H247.088ZM244.464 314.128C243.792 314.128 243.216 314.016 242.736 313.792C242.256 313.557 241.888 313.243 241.632 312.848C241.376 312.453 241.248 312.011 241.248 311.52C241.248 311.008 241.371 310.56 241.616 310.176C241.872 309.792 242.272 309.493 242.816 309.28C243.36 309.056 244.07 308.944 244.944 308.944H247.232V310.4H245.216C244.63 310.4 244.224 310.496 244 310.688C243.787 310.88 243.68 311.12 243.68 311.408C243.68 311.728 243.803 311.984 244.048 312.176C244.304 312.357 244.651 312.448 245.088 312.448C245.504 312.448 245.878 312.352 246.208 312.16C246.539 311.957 246.779 311.664 246.928 311.28L247.312 312.432C247.131 312.987 246.8 313.408 246.32 313.696C245.84 313.984 245.222 314.128 244.464 314.128ZM256.915 305.264C257.598 305.264 258.206 305.403 258.739 305.68C259.283 305.947 259.71 306.363 260.019 306.928C260.329 307.483 260.483 308.197 260.483 309.072V314H257.987V309.456C257.987 308.763 257.833 308.251 257.523 307.92C257.225 307.589 256.798 307.424 256.243 307.424C255.849 307.424 255.491 307.509 255.171 307.68C254.862 307.84 254.617 308.091 254.435 308.432C254.265 308.773 254.179 309.211 254.179 309.744V314H251.683V305.392H254.067V307.776L253.619 307.056C253.929 306.48 254.371 306.037 254.947 305.728C255.523 305.419 256.179 305.264 256.915 305.264ZM266.856 317.232C266.046 317.232 265.262 317.131 264.504 316.928C263.758 316.736 263.134 316.443 262.632 316.048L263.624 314.256C263.987 314.555 264.446 314.789 265 314.96C265.566 315.141 266.12 315.232 266.664 315.232C267.55 315.232 268.19 315.035 268.584 314.64C268.99 314.245 269.192 313.659 269.192 312.88V311.584L269.352 309.424L269.32 307.248V305.392H271.688V312.56C271.688 314.16 271.272 315.339 270.44 316.096C269.608 316.853 268.414 317.232 266.856 317.232ZM266.472 313.584C265.672 313.584 264.947 313.413 264.296 313.072C263.656 312.72 263.139 312.235 262.744 311.616C262.36 310.987 262.168 310.256 262.168 309.424C262.168 308.581 262.36 307.851 262.744 307.232C263.139 306.603 263.656 306.117 264.296 305.776C264.947 305.435 265.672 305.264 266.472 305.264C267.198 305.264 267.838 305.413 268.392 305.712C268.947 306 269.379 306.453 269.688 307.072C269.998 307.68 270.152 308.464 270.152 309.424C270.152 310.373 269.998 311.157 269.688 311.776C269.379 312.384 268.947 312.837 268.392 313.136C267.838 313.435 267.198 313.584 266.472 313.584ZM266.968 311.536C267.406 311.536 267.795 311.451 268.136 311.28C268.478 311.099 268.744 310.848 268.936 310.528C269.128 310.208 269.224 309.84 269.224 309.424C269.224 308.997 269.128 308.629 268.936 308.32C268.744 308 268.478 307.755 268.136 307.584C267.795 307.403 267.406 307.312 266.968 307.312C266.531 307.312 266.142 307.403 265.8 307.584C265.459 307.755 265.187 308 264.984 308.32C264.792 308.629 264.696 308.997 264.696 309.424C264.696 309.84 264.792 310.208 264.984 310.528C265.187 310.848 265.459 311.099 265.8 311.28C266.142 311.451 266.531 311.536 266.968 311.536ZM274.011 314V305.392H276.507V314H274.011ZM275.259 304.192C274.801 304.192 274.427 304.059 274.139 303.792C273.851 303.525 273.707 303.195 273.707 302.8C273.707 302.405 273.851 302.075 274.139 301.808C274.427 301.541 274.801 301.408 275.259 301.408C275.718 301.408 276.091 301.536 276.379 301.792C276.667 302.037 276.811 302.357 276.811 302.752C276.811 303.168 276.667 303.515 276.379 303.792C276.102 304.059 275.729 304.192 275.259 304.192ZM284.056 305.264C284.739 305.264 285.347 305.403 285.88 305.68C286.424 305.947 286.851 306.363 287.16 306.928C287.469 307.483 287.624 308.197 287.624 309.072V314H285.128V309.456C285.128 308.763 284.973 308.251 284.664 307.92C284.365 307.589 283.939 307.424 283.384 307.424C282.989 307.424 282.632 307.509 282.312 307.68C282.003 307.84 281.757 308.091 281.576 308.432C281.405 308.773 281.32 309.211 281.32 309.744V314H278.824V305.392H281.208V307.776L280.76 307.056C281.069 306.48 281.512 306.037 282.088 305.728C282.664 305.419 283.32 305.264 284.056 305.264ZM293.997 317.232C293.186 317.232 292.402 317.131 291.645 316.928C290.898 316.736 290.274 316.443 289.773 316.048L290.765 314.256C291.128 314.555 291.586 314.789 292.141 314.96C292.706 315.141 293.261 315.232 293.805 315.232C294.69 315.232 295.33 315.035 295.725 314.64C296.13 314.245 296.333 313.659 296.333 312.88V311.584L296.493 309.424L296.461 307.248V305.392H298.829V312.56C298.829 314.16 298.413 315.339 297.581 316.096C296.749 316.853 295.554 317.232 293.997 317.232ZM293.613 313.584C292.813 313.584 292.088 313.413 291.437 313.072C290.797 312.72 290.28 312.235 289.885 311.616C289.501 310.987 289.309 310.256 289.309 309.424C289.309 308.581 289.501 307.851 289.885 307.232C290.28 306.603 290.797 306.117 291.437 305.776C292.088 305.435 292.813 305.264 293.613 305.264C294.338 305.264 294.978 305.413 295.533 305.712C296.088 306 296.52 306.453 296.829 307.072C297.138 307.68 297.293 308.464 297.293 309.424C297.293 310.373 297.138 311.157 296.829 311.776C296.52 312.384 296.088 312.837 295.533 313.136C294.978 313.435 294.338 313.584 293.613 313.584ZM294.109 311.536C294.546 311.536 294.936 311.451 295.277 311.28C295.618 311.099 295.885 310.848 296.077 310.528C296.269 310.208 296.365 309.84 296.365 309.424C296.365 308.997 296.269 308.629 296.077 308.32C295.885 308 295.618 307.755 295.277 307.584C294.936 307.403 294.546 307.312 294.109 307.312C293.672 307.312 293.282 307.403 292.941 307.584C292.6 307.755 292.328 308 292.125 308.32C291.933 308.629 291.837 308.997 291.837 309.424C291.837 309.84 291.933 310.208 292.125 310.528C292.328 310.848 292.6 311.099 292.941 311.28C293.282 311.451 293.672 311.536 294.109 311.536ZM1.152 336V324.128H3.648V336H1.152ZM11.2445 336V334.32L11.0845 333.952V330.944C11.0845 330.411 10.9192 329.995 10.5885 329.696C10.2685 329.397 9.7725 329.248 9.1005 329.248C8.64183 329.248 8.1885 329.323 7.7405 329.472C7.30317 329.611 6.92983 329.803 6.6205 330.048L5.7245 328.304C6.19383 327.973 6.75917 327.717 7.4205 327.536C8.08183 327.355 8.75383 327.264 9.4365 327.264C10.7485 327.264 11.7672 327.573 12.4925 328.192C13.2178 328.811 13.5805 329.776 13.5805 331.088V336H11.2445ZM8.6205 336.128C7.9485 336.128 7.3725 336.016 6.8925 335.792C6.4125 335.557 6.0445 335.243 5.7885 334.848C5.5325 334.453 5.4045 334.011 5.4045 333.52C5.4045 333.008 5.52717 332.56 5.7725 332.176C6.0285 331.792 6.4285 331.493 6.9725 331.28C7.5165 331.056 8.22583 330.944 9.1005 330.944H11.3885V332.4H9.3725C8.78583 332.4 8.3805 332.496 8.1565 332.688C7.94317 332.88 7.8365 333.12 7.8365 333.408C7.8365 333.728 7.95917 333.984 8.2045 334.176C8.4605 334.357 8.80717 334.448 9.2445 334.448C9.6605 334.448 10.0338 334.352 10.3645 334.16C10.6952 333.957 10.9352 333.664 11.0845 333.28L11.4685 334.432C11.2872 334.987 10.9565 335.408 10.4765 335.696C9.9965 335.984 9.37783 336.128 8.6205 336.128ZM21.0715 327.264C21.7542 327.264 22.3622 327.403 22.8955 327.68C23.4395 327.947 23.8662 328.363 24.1755 328.928C24.4848 329.483 24.6395 330.197 24.6395 331.072V336H22.1435V331.456C22.1435 330.763 21.9888 330.251 21.6795 329.92C21.3808 329.589 20.9542 329.424 20.3995 329.424C20.0048 329.424 19.6475 329.509 19.3275 329.68C19.0182 329.84 18.7728 330.091 18.5915 330.432C18.4208 330.773 18.3355 331.211 18.3355 331.744V336H15.8395V327.392H18.2235V329.776L17.7755 329.056C18.0848 328.48 18.5275 328.037 19.1035 327.728C19.6795 327.419 20.3355 327.264 21.0715 327.264ZM30.6605 336.128C29.8498 336.128 29.1192 335.947 28.4685 335.584C27.8178 335.211 27.3005 334.693 26.9165 334.032C26.5432 333.371 26.3565 332.592 26.3565 331.696C26.3565 330.789 26.5432 330.005 26.9165 329.344C27.3005 328.683 27.8178 328.171 28.4685 327.808C29.1192 327.445 29.8498 327.264 30.6605 327.264C31.3858 327.264 32.0205 327.424 32.5645 327.744C33.1085 328.064 33.5298 328.549 33.8285 329.2C34.1272 329.851 34.2765 330.683 34.2765 331.696C34.2765 332.699 34.1325 333.531 33.8445 334.192C33.5565 334.843 33.1405 335.328 32.5965 335.648C32.0632 335.968 31.4178 336.128 30.6605 336.128ZM31.0925 334.08C31.4978 334.08 31.8658 333.984 32.1965 333.792C32.5272 333.6 32.7885 333.328 32.9805 332.976C33.1832 332.613 33.2845 332.187 33.2845 331.696C33.2845 331.195 33.1832 330.768 32.9805 330.416C32.7885 330.064 32.5272 329.792 32.1965 329.6C31.8658 329.408 31.4978 329.312 31.0925 329.312C30.6765 329.312 30.3032 329.408 29.9725 329.6C29.6418 329.792 29.3752 330.064 29.1725 330.416C28.9805 330.768 28.8845 331.195 28.8845 331.696C28.8845 332.187 28.9805 332.613 29.1725 332.976C29.3752 333.328 29.6418 333.6 29.9725 333.792C30.3032 333.984 30.6765 334.08 31.0925 334.08ZM33.3485 336V334.24L33.3965 331.68L33.2365 329.136V324.128H35.7325V336H33.3485ZM40.9386 336.128C40.2026 336.128 39.4933 336.043 38.8106 335.872C38.1386 335.691 37.6053 335.467 37.2106 335.2L38.0426 333.408C38.4373 333.653 38.9013 333.856 39.4346 334.016C39.9786 334.165 40.512 334.24 41.0346 334.24C41.6106 334.24 42.016 334.171 42.2506 334.032C42.496 333.893 42.6186 333.701 42.6186 333.456C42.6186 333.253 42.5226 333.104 42.3306 333.008C42.1493 332.901 41.904 332.821 41.5946 332.768C41.2853 332.715 40.944 332.661 40.5706 332.608C40.208 332.555 39.84 332.485 39.4666 332.4C39.0933 332.304 38.752 332.165 38.4426 331.984C38.1333 331.803 37.8826 331.557 37.6906 331.248C37.5093 330.939 37.4186 330.539 37.4186 330.048C37.4186 329.504 37.5733 329.024 37.8826 328.608C38.2026 328.192 38.6613 327.867 39.2586 327.632C39.856 327.387 40.5706 327.264 41.4026 327.264C41.9893 327.264 42.5866 327.328 43.1946 327.456C43.8026 327.584 44.3093 327.771 44.7146 328.016L43.8826 329.792C43.4666 329.547 43.0453 329.381 42.6186 329.296C42.2026 329.2 41.7973 329.152 41.4026 329.152C40.848 329.152 40.4426 329.227 40.1866 329.376C39.9306 329.525 39.8026 329.717 39.8026 329.952C39.8026 330.165 39.8933 330.325 40.0746 330.432C40.2666 330.539 40.5173 330.624 40.8266 330.688C41.136 330.752 41.472 330.811 41.8346 330.864C42.208 330.907 42.5813 330.976 42.9546 331.072C43.328 331.168 43.664 331.307 43.9626 331.488C44.272 331.659 44.5226 331.899 44.7146 332.208C44.9066 332.507 45.0026 332.901 45.0026 333.392C45.0026 333.925 44.8426 334.4 44.5226 334.816C44.2026 335.221 43.7386 335.541 43.1306 335.776C42.5333 336.011 41.8026 336.128 40.9386 336.128ZM50.7026 336.128C49.7746 336.128 48.948 335.941 48.2226 335.568C47.4973 335.184 46.9266 334.656 46.5106 333.984C46.1053 333.312 45.9026 332.549 45.9026 331.696C45.9026 330.832 46.1053 330.069 46.5106 329.408C46.9266 328.736 47.4973 328.213 48.2226 327.84C48.948 327.456 49.7746 327.264 50.7026 327.264C51.6093 327.264 52.3986 327.456 53.0706 327.84C53.7426 328.213 54.2386 328.752 54.5586 329.456L52.6226 330.496C52.3986 330.091 52.116 329.792 51.7746 329.6C51.444 329.408 51.0813 329.312 50.6866 329.312C50.26 329.312 49.876 329.408 49.5346 329.6C49.1933 329.792 48.9213 330.064 48.7186 330.416C48.5266 330.768 48.4306 331.195 48.4306 331.696C48.4306 332.197 48.5266 332.624 48.7186 332.976C48.9213 333.328 49.1933 333.6 49.5346 333.792C49.876 333.984 50.26 334.08 50.6866 334.08C51.0813 334.08 51.444 333.989 51.7746 333.808C52.116 333.616 52.3986 333.312 52.6226 332.896L54.5586 333.952C54.2386 334.645 53.7426 335.184 53.0706 335.568C52.3986 335.941 51.6093 336.128 50.7026 336.128ZM61.2758 336V334.32L61.1158 333.952V330.944C61.1158 330.411 60.9504 329.995 60.6198 329.696C60.2998 329.397 59.8038 329.248 59.1318 329.248C58.6731 329.248 58.2198 329.323 57.7718 329.472C57.3344 329.611 56.9611 329.803 56.6518 330.048L55.7558 328.304C56.2251 327.973 56.7904 327.717 57.4518 327.536C58.1131 327.355 58.7851 327.264 59.4678 327.264C60.7798 327.264 61.7984 327.573 62.5238 328.192C63.2491 328.811 63.6118 329.776 63.6118 331.088V336H61.2758ZM58.6518 336.128C57.9798 336.128 57.4038 336.016 56.9238 335.792C56.4438 335.557 56.0758 335.243 55.8198 334.848C55.5638 334.453 55.4358 334.011 55.4358 333.52C55.4358 333.008 55.5584 332.56 55.8038 332.176C56.0598 331.792 56.4598 331.493 57.0038 331.28C57.5478 331.056 58.2571 330.944 59.1318 330.944H61.4198V332.4H59.4038C58.8171 332.4 58.4118 332.496 58.1878 332.688C57.9744 332.88 57.8678 333.12 57.8678 333.408C57.8678 333.728 57.9904 333.984 58.2358 334.176C58.4918 334.357 58.8384 334.448 59.2758 334.448C59.6918 334.448 60.0651 334.352 60.3958 334.16C60.7264 333.957 60.9664 333.664 61.1158 333.28L61.4998 334.432C61.3184 334.987 60.9878 335.408 60.5078 335.696C60.0278 335.984 59.4091 336.128 58.6518 336.128ZM70.9588 336.128C70.2334 336.128 69.5988 335.968 69.0548 335.648C68.5108 335.328 68.0841 334.843 67.7748 334.192C67.4761 333.531 67.3268 332.699 67.3268 331.696C67.3268 330.683 67.4708 329.851 67.7588 329.2C68.0468 328.549 68.4628 328.064 69.0068 327.744C69.5508 327.424 70.2014 327.264 70.9588 327.264C71.7694 327.264 72.4948 327.451 73.1348 327.824C73.7854 328.187 74.2974 328.699 74.6708 329.36C75.0548 330.021 75.2468 330.8 75.2468 331.696C75.2468 332.603 75.0548 333.387 74.6708 334.048C74.2974 334.709 73.7854 335.221 73.1348 335.584C72.4948 335.947 71.7694 336.128 70.9588 336.128ZM65.8708 339.104V327.392H68.2548V329.152L68.2068 331.712L68.3668 334.256V339.104H65.8708ZM70.5268 334.08C70.9428 334.08 71.3108 333.984 71.6308 333.792C71.9614 333.6 72.2228 333.328 72.4148 332.976C72.6174 332.613 72.7188 332.187 72.7188 331.696C72.7188 331.195 72.6174 330.768 72.4148 330.416C72.2228 330.064 71.9614 329.792 71.6308 329.6C71.3108 329.408 70.9428 329.312 70.5268 329.312C70.1108 329.312 69.7374 329.408 69.4068 329.6C69.0761 329.792 68.8148 330.064 68.6228 330.416C68.4308 330.768 68.3348 331.195 68.3348 331.696C68.3348 332.187 68.4308 332.613 68.6228 332.976C68.8148 333.328 69.0761 333.6 69.4068 333.792C69.7374 333.984 70.1108 334.08 70.5268 334.08ZM81.1896 336.128C80.2083 336.128 79.3443 335.936 78.5976 335.552C77.8616 335.168 77.291 334.645 76.8856 333.984C76.4803 333.312 76.2776 332.549 76.2776 331.696C76.2776 330.832 76.475 330.069 76.8696 329.408C77.275 328.736 77.8243 328.213 78.5176 327.84C79.211 327.456 79.995 327.264 80.8696 327.264C81.7123 327.264 82.4696 327.445 83.1416 327.808C83.8243 328.16 84.363 328.672 84.7576 329.344C85.1523 330.005 85.3496 330.8 85.3496 331.728C85.3496 331.824 85.3443 331.936 85.3336 332.064C85.323 332.181 85.3123 332.293 85.3016 332.4H78.3096V330.944H83.9896L83.0296 331.376C83.0296 330.928 82.939 330.539 82.7576 330.208C82.5763 329.877 82.3256 329.621 82.0056 329.44C81.6856 329.248 81.3123 329.152 80.8856 329.152C80.459 329.152 80.0803 329.248 79.7496 329.44C79.4296 329.621 79.179 329.883 78.9976 330.224C78.8163 330.555 78.7256 330.949 78.7256 331.408V331.792C78.7256 332.261 78.827 332.677 79.0296 333.04C79.243 333.392 79.5363 333.664 79.9096 333.856C80.2936 334.037 80.7416 334.128 81.2536 334.128C81.7123 334.128 82.1123 334.059 82.4536 333.92C82.8056 333.781 83.1256 333.573 83.4136 333.296L84.7416 334.736C84.347 335.184 83.851 335.531 83.2536 335.776C82.6563 336.011 81.9683 336.128 81.1896 336.128ZM89.9074 336.128C89.1714 336.128 88.462 336.043 87.7794 335.872C87.1074 335.691 86.574 335.467 86.1794 335.2L87.0114 333.408C87.406 333.653 87.87 333.856 88.4034 334.016C88.9474 334.165 89.4807 334.24 90.0034 334.24C90.5794 334.24 90.9847 334.171 91.2194 334.032C91.4647 333.893 91.5874 333.701 91.5874 333.456C91.5874 333.253 91.4914 333.104 91.2994 333.008C91.118 332.901 90.8727 332.821 90.5634 332.768C90.254 332.715 89.9127 332.661 89.5394 332.608C89.1767 332.555 88.8087 332.485 88.4354 332.4C88.062 332.304 87.7207 332.165 87.4114 331.984C87.102 331.803 86.8514 331.557 86.6594 331.248C86.478 330.939 86.3874 330.539 86.3874 330.048C86.3874 329.504 86.542 329.024 86.8514 328.608C87.1714 328.192 87.63 327.867 88.2274 327.632C88.8247 327.387 89.5394 327.264 90.3714 327.264C90.958 327.264 91.5554 327.328 92.1634 327.456C92.7714 327.584 93.278 327.771 93.6834 328.016L92.8514 329.792C92.4354 329.547 92.014 329.381 91.5874 329.296C91.1714 329.2 90.766 329.152 90.3714 329.152C89.8167 329.152 89.4114 329.227 89.1554 329.376C88.8994 329.525 88.7714 329.717 88.7714 329.952C88.7714 330.165 88.862 330.325 89.0434 330.432C89.2354 330.539 89.486 330.624 89.7954 330.688C90.1047 330.752 90.4407 330.811 90.8034 330.864C91.1767 330.907 91.55 330.976 91.9234 331.072C92.2967 331.168 92.6327 331.307 92.9314 331.488C93.2407 331.659 93.4914 331.899 93.6834 332.208C93.8754 332.507 93.9714 332.901 93.9714 333.392C93.9714 333.925 93.8114 334.4 93.4914 334.816C93.1714 335.221 92.7074 335.541 92.0994 335.776C91.502 336.011 90.7714 336.128 89.9074 336.128ZM95.0794 338.464L96.1354 334.624L96.4874 336.064C96.0287 336.064 95.65 335.931 95.3514 335.664C95.0634 335.397 94.9194 335.029 94.9194 334.56C94.9194 334.091 95.0687 333.717 95.3674 333.44C95.666 333.163 96.034 333.024 96.4714 333.024C96.9194 333.024 97.2874 333.168 97.5754 333.456C97.8634 333.733 98.0074 334.101 98.0074 334.56C98.0074 334.699 97.9967 334.837 97.9754 334.976C97.954 335.104 97.9114 335.264 97.8474 335.456C97.794 335.637 97.7034 335.872 97.5754 336.16L96.6634 338.464H95.0794ZM117.123 327.584H118.163L114.979 336H113.907L111.251 329.104L108.595 336H107.523L104.355 327.584H105.443L108.083 334.736L110.787 327.584H111.763L114.451 334.736L117.123 327.584ZM124.161 327.52C126.209 327.52 127.617 328.704 127.617 331.12V336H126.481V331.232C126.481 329.456 125.553 328.544 123.953 328.544C122.145 328.544 121.009 329.664 121.009 331.584V336H119.873V324.128H121.009V329.056C121.633 328.08 122.737 327.52 124.161 327.52ZM131.277 325.744C130.813 325.744 130.445 325.376 130.445 324.928C130.445 324.496 130.813 324.128 131.277 324.128C131.741 324.128 132.109 324.48 132.109 324.912C132.109 325.376 131.757 325.744 131.277 325.744ZM130.701 336V327.584H131.837V336H130.701ZM134.998 336V324.128H136.134V336H134.998ZM146.639 331.792C146.639 331.888 146.623 332.016 146.623 332.144H139.583C139.711 333.904 141.055 335.072 142.895 335.072C143.919 335.072 144.831 334.704 145.471 333.968L146.111 334.704C145.359 335.6 144.191 336.08 142.863 336.08C140.239 336.08 138.447 334.288 138.447 331.792C138.447 329.296 140.191 327.52 142.559 327.52C144.927 327.52 146.639 329.264 146.639 331.792ZM142.559 328.496C140.927 328.496 139.727 329.648 139.583 331.296H145.551C145.407 329.648 144.207 328.496 142.559 328.496ZM156.887 336.08C155.495 336.08 154.151 335.632 153.463 335.04L153.975 334.144C154.647 334.672 155.783 335.088 156.967 335.088C158.567 335.088 159.223 334.544 159.223 333.712C159.223 331.52 153.767 333.248 153.767 329.92C153.767 328.544 154.951 327.52 157.095 327.52C158.183 327.52 159.367 327.824 160.071 328.304L159.575 329.216C158.839 328.704 157.959 328.496 157.095 328.496C155.575 328.496 154.903 329.088 154.903 329.888C154.903 332.16 160.359 330.448 160.359 333.68C160.359 335.136 159.079 336.08 156.887 336.08ZM169.803 331.792C169.803 331.888 169.787 332.016 169.787 332.144H162.747C162.875 333.904 164.219 335.072 166.059 335.072C167.083 335.072 167.995 334.704 168.635 333.968L169.275 334.704C168.523 335.6 167.355 336.08 166.027 336.08C163.403 336.08 161.611 334.288 161.611 331.792C161.611 329.296 163.355 327.52 165.723 327.52C168.091 327.52 169.803 329.264 169.803 331.792ZM165.723 328.496C164.091 328.496 162.891 329.648 162.747 331.296H168.715C168.571 329.648 167.371 328.496 165.723 328.496ZM175.603 336.08C173.091 336.08 171.267 334.304 171.267 331.792C171.267 329.28 173.091 327.52 175.603 327.52C177.027 327.52 178.227 328.08 178.899 329.184L178.051 329.76C177.475 328.912 176.579 328.512 175.603 328.512C173.763 328.512 172.419 329.824 172.419 331.792C172.419 333.776 173.763 335.072 175.603 335.072C176.579 335.072 177.475 334.688 178.051 333.84L178.899 334.416C178.227 335.504 177.027 336.08 175.603 336.08ZM187.579 327.584H188.715V336H187.627V334.464C187.035 335.488 185.947 336.08 184.603 336.08C182.459 336.08 181.051 334.88 181.051 332.464V327.584H182.187V332.352C182.187 334.144 183.115 335.056 184.715 335.056C186.475 335.056 187.579 333.92 187.579 332V327.584ZM192.985 329.232C193.513 328.112 194.585 327.52 196.137 327.52V328.624C196.041 328.624 195.945 328.608 195.865 328.608C194.105 328.608 193.033 329.728 193.033 331.712V336H191.897V327.584H192.985V329.232ZM198.769 325.744C198.305 325.744 197.937 325.376 197.937 324.928C197.937 324.496 198.305 324.128 198.769 324.128C199.233 324.128 199.601 324.48 199.601 324.912C199.601 325.376 199.249 325.744 198.769 325.744ZM198.193 336V327.584H199.329V336H198.193ZM206.778 327.52C208.826 327.52 210.234 328.704 210.234 331.12V336H209.098V331.232C209.098 329.456 208.17 328.544 206.57 328.544C204.762 328.544 203.626 329.664 203.626 331.584V336H202.49V327.584H203.578V329.136C204.186 328.112 205.322 327.52 206.778 327.52ZM220.054 327.584H221.142V334.976C221.142 337.872 219.718 339.184 216.934 339.184C215.398 339.184 213.894 338.72 213.014 337.888L213.59 337.024C214.39 337.744 215.606 338.176 216.902 338.176C219.03 338.176 220.006 337.2 220.006 335.12V334.048C219.302 335.12 218.102 335.68 216.726 335.68C214.326 335.68 212.502 334 212.502 331.584C212.502 329.168 214.326 327.52 216.726 327.52C218.134 327.52 219.35 328.096 220.054 329.2V327.584ZM216.838 334.672C218.694 334.672 220.038 333.408 220.038 331.584C220.038 329.76 218.694 328.512 216.838 328.512C214.982 328.512 213.654 329.76 213.654 331.584C213.654 333.408 214.982 334.672 216.838 334.672ZM234.03 334.672L234.43 335.488C233.982 335.888 233.31 336.08 232.654 336.08C231.07 336.08 230.19 335.184 230.19 333.632V328.544H228.686V327.584H230.19V325.744H231.326V327.584H233.886V328.544H231.326V333.568C231.326 334.56 231.838 335.104 232.782 335.104C233.246 335.104 233.71 334.96 234.03 334.672ZM240.786 327.52C242.834 327.52 244.242 328.704 244.242 331.12V336H243.106V331.232C243.106 329.456 242.178 328.544 240.578 328.544C238.77 328.544 237.634 329.664 237.634 331.584V336H236.498V324.128H237.634V329.056C238.258 328.08 239.362 327.52 240.786 327.52ZM254.701 331.792C254.701 331.888 254.685 332.016 254.685 332.144H247.645C247.773 333.904 249.117 335.072 250.957 335.072C251.981 335.072 252.893 334.704 253.533 333.968L254.173 334.704C253.421 335.6 252.253 336.08 250.925 336.08C248.301 336.08 246.509 334.288 246.509 331.792C246.509 329.296 248.253 327.52 250.621 327.52C252.989 327.52 254.701 329.264 254.701 331.792ZM250.621 328.496C248.989 328.496 247.789 329.648 247.645 331.296H253.613C253.469 329.648 252.269 328.496 250.621 328.496ZM263.781 329.232C264.309 328.112 265.381 327.52 266.933 327.52V328.624C266.837 328.624 266.741 328.608 266.661 328.608C264.901 328.608 263.829 329.728 263.829 331.712V336H262.693V327.584H263.781V329.232ZM269.566 325.744C269.102 325.744 268.734 325.376 268.734 324.928C268.734 324.496 269.102 324.128 269.566 324.128C270.03 324.128 270.398 324.48 270.398 324.912C270.398 325.376 270.046 325.744 269.566 325.744ZM268.99 336V327.584H270.126V336H268.99ZM279.991 327.584H281.079V334.976C281.079 337.872 279.655 339.184 276.871 339.184C275.335 339.184 273.831 338.72 272.951 337.888L273.527 337.024C274.327 337.744 275.543 338.176 276.839 338.176C278.967 338.176 279.943 337.2 279.943 335.12V334.048C279.239 335.12 278.039 335.68 276.663 335.68C274.263 335.68 272.439 334 272.439 331.584C272.439 329.168 274.263 327.52 276.663 327.52C278.071 327.52 279.287 328.096 279.991 329.2V327.584ZM276.775 334.672C278.631 334.672 279.975 333.408 279.975 331.584C279.975 329.76 278.631 328.512 276.775 328.512C274.919 328.512 273.591 329.76 273.591 331.584C273.591 333.408 274.919 334.672 276.775 334.672ZM288.544 327.52C290.592 327.52 292 328.704 292 331.12V336H290.864V331.232C290.864 329.456 289.936 328.544 288.336 328.544C286.528 328.544 285.392 329.664 285.392 331.584V336H284.256V324.128H285.392V329.056C286.016 328.08 287.12 327.52 288.544 327.52ZM299.116 334.672L299.516 335.488C299.068 335.888 298.396 336.08 297.74 336.08C296.156 336.08 295.276 335.184 295.276 333.632V328.544H293.772V327.584H295.276V325.744H296.412V327.584H298.972V328.544H296.412V333.568C296.412 334.56 296.924 335.104 297.868 335.104C298.332 335.104 298.796 334.96 299.116 334.672ZM5.616 356.672L6.016 357.488C5.568 357.888 4.896 358.08 4.24 358.08C2.656 358.08 1.776 357.184 1.776 355.632V350.544H0.272V349.584H1.776V347.744H2.912V349.584H5.472V350.544H2.912V355.568C2.912 356.56 3.424 357.104 4.368 357.104C4.832 357.104 5.296 356.96 5.616 356.672ZM11.028 349.52C13.204 349.52 14.436 350.608 14.436 352.784V358H13.348V356.688C12.836 357.552 11.844 358.08 10.452 358.08C8.548 358.08 7.38 357.088 7.38 355.632C7.38 354.336 8.212 353.248 10.628 353.248H13.3V352.736C13.3 351.296 12.484 350.512 10.916 350.512C9.828 350.512 8.804 350.896 8.116 351.504L7.604 350.656C8.452 349.936 9.7 349.52 11.028 349.52ZM10.628 357.184C11.908 357.184 12.852 356.576 13.3 355.472V354.096H10.66C9.028 354.096 8.5 354.736 8.5 355.6C8.5 356.576 9.284 357.184 10.628 357.184ZM17.5215 358V346.128H18.6575V358H17.5215ZM29.1624 353.792C29.1624 353.888 29.1464 354.016 29.1464 354.144H22.1064C22.2344 355.904 23.5784 357.072 25.4184 357.072C26.4424 357.072 27.3544 356.704 27.9944 355.968L28.6344 356.704C27.8824 357.6 26.7144 358.08 25.3864 358.08C22.7624 358.08 20.9704 356.288 20.9704 353.792C20.9704 351.296 22.7144 349.52 25.0824 349.52C27.4504 349.52 29.1624 351.264 29.1624 353.792ZM25.0824 350.496C23.4504 350.496 22.2504 351.648 22.1064 353.296H28.0744C27.9304 351.648 26.7304 350.496 25.0824 350.496ZM35.7626 349.52C37.8106 349.52 39.2186 350.704 39.2186 353.12V358H38.0826V353.232C38.0826 351.456 37.1546 350.544 35.5546 350.544C33.7466 350.544 32.6106 351.664 32.6106 353.584V358H31.4746V349.584H32.5626V351.136C33.1706 350.112 34.3066 349.52 35.7626 349.52ZM46.3348 356.672L46.7348 357.488C46.2868 357.888 45.6148 358.08 44.9588 358.08C43.3748 358.08 42.4948 357.184 42.4948 355.632V350.544H40.9908V349.584H42.4948V347.744H43.6308V349.584H46.1908V350.544H43.6308V355.568C43.6308 356.56 44.1428 357.104 45.0868 357.104C45.5508 357.104 46.0148 356.96 46.3348 356.672ZM58.9423 349.584H60.0623L55.8543 359.008C55.1503 360.656 54.2543 361.184 53.0543 361.184C52.2703 361.184 51.5183 360.928 51.0062 360.416L51.5343 359.568C51.9503 359.984 52.4622 360.208 53.0703 360.208C53.8223 360.208 54.3343 359.856 54.8143 358.8L55.1823 357.984L51.4223 349.584H52.6063L55.7743 356.736L58.9423 349.584ZM64.8678 358.08C62.4038 358.08 60.5798 356.288 60.5798 353.792C60.5798 351.296 62.4038 349.52 64.8678 349.52C67.3318 349.52 69.1398 351.296 69.1398 353.792C69.1398 356.288 67.3318 358.08 64.8678 358.08ZM64.8678 357.072C66.6598 357.072 67.9878 355.76 67.9878 353.792C67.9878 351.824 66.6598 350.512 64.8678 350.512C63.0758 350.512 61.7318 351.824 61.7318 353.792C61.7318 355.76 63.0758 357.072 64.8678 357.072ZM77.907 349.584H79.043V358H77.955V356.464C77.363 357.488 76.275 358.08 74.931 358.08C72.787 358.08 71.379 356.88 71.379 354.464V349.584H72.515V354.352C72.515 356.144 73.443 357.056 75.043 357.056C76.803 357.056 77.907 355.92 77.907 354V349.584ZM83.3126 351.232C83.8406 350.112 84.9126 349.52 86.4646 349.52V350.624C86.3686 350.624 86.2726 350.608 86.1926 350.608C84.4326 350.608 83.3606 351.728 83.3606 353.712V358H82.2246V349.584H83.3126V351.232ZM96.274 358.08C93.81 358.08 91.986 356.288 91.986 353.792C91.986 351.296 93.81 349.52 96.274 349.52C98.738 349.52 100.546 351.296 100.546 353.792C100.546 356.288 98.738 358.08 96.274 358.08ZM96.274 357.072C98.066 357.072 99.394 355.76 99.394 353.792C99.394 351.824 98.066 350.512 96.274 350.512C94.482 350.512 93.138 351.824 93.138 353.792C93.138 355.76 94.482 357.072 96.274 357.072ZM103.953 351.232C104.481 350.112 105.553 349.52 107.105 349.52V350.624C107.009 350.624 106.913 350.608 106.833 350.608C105.073 350.608 104.001 351.728 104.001 353.712V358H102.865V349.584H103.953V351.232ZM115.788 349.584H116.876V356.976C116.876 359.872 115.452 361.184 112.668 361.184C111.132 361.184 109.628 360.72 108.748 359.888L109.324 359.024C110.124 359.744 111.34 360.176 112.636 360.176C114.764 360.176 115.74 359.2 115.74 357.12V356.048C115.036 357.12 113.836 357.68 112.46 357.68C110.06 357.68 108.236 356 108.236 353.584C108.236 351.168 110.06 349.52 112.46 349.52C113.868 349.52 115.084 350.096 115.788 351.2V349.584ZM112.572 356.672C114.428 356.672 115.772 355.408 115.772 353.584C115.772 351.76 114.428 350.512 112.572 350.512C110.716 350.512 109.388 351.76 109.388 353.584C109.388 355.408 110.716 356.672 112.572 356.672ZM122.997 349.52C125.173 349.52 126.405 350.608 126.405 352.784V358H125.317V356.688C124.805 357.552 123.813 358.08 122.421 358.08C120.517 358.08 119.349 357.088 119.349 355.632C119.349 354.336 120.181 353.248 122.597 353.248H125.269V352.736C125.269 351.296 124.453 350.512 122.885 350.512C121.797 350.512 120.773 350.896 120.085 351.504L119.573 350.656C120.421 349.936 121.669 349.52 122.997 349.52ZM122.597 357.184C123.877 357.184 124.821 356.576 125.269 355.472V354.096H122.629C120.997 354.096 120.469 354.736 120.469 355.6C120.469 356.576 121.253 357.184 122.597 357.184ZM133.778 349.52C135.826 349.52 137.234 350.704 137.234 353.12V358H136.098V353.232C136.098 351.456 135.17 350.544 133.57 350.544C131.762 350.544 130.626 351.664 130.626 353.584V358H129.49V349.584H130.578V351.136C131.186 350.112 132.322 349.52 133.778 349.52ZM140.894 347.744C140.43 347.744 140.062 347.376 140.062 346.928C140.062 346.496 140.43 346.128 140.894 346.128C141.358 346.128 141.726 346.48 141.726 346.912C141.726 347.376 141.374 347.744 140.894 347.744ZM140.318 358V349.584H141.454V358H140.318ZM145.159 357.056H150.551V358H143.703V357.248L148.999 350.544H143.799V349.584H150.455V350.336L145.159 357.056ZM155.731 349.52C157.907 349.52 159.139 350.608 159.139 352.784V358H158.051V356.688C157.539 357.552 156.547 358.08 155.155 358.08C153.251 358.08 152.083 357.088 152.083 355.632C152.083 354.336 152.915 353.248 155.331 353.248H158.003V352.736C158.003 351.296 157.187 350.512 155.619 350.512C154.531 350.512 153.507 350.896 152.819 351.504L152.307 350.656C153.155 349.936 154.403 349.52 155.731 349.52ZM155.331 357.184C156.611 357.184 157.555 356.576 158.003 355.472V354.096H155.363C153.731 354.096 153.203 354.736 153.203 355.6C153.203 356.576 153.987 357.184 155.331 357.184ZM166.257 356.672L166.657 357.488C166.209 357.888 165.537 358.08 164.881 358.08C163.297 358.08 162.417 357.184 162.417 355.632V350.544H160.913V349.584H162.417V347.744H163.553V349.584H166.113V350.544H163.553V355.568C163.553 356.56 164.065 357.104 165.009 357.104C165.473 357.104 165.937 356.96 166.257 356.672ZM169.301 347.744C168.837 347.744 168.469 347.376 168.469 346.928C168.469 346.496 168.837 346.128 169.301 346.128C169.765 346.128 170.133 346.48 170.133 346.912C170.133 347.376 169.781 347.744 169.301 347.744ZM168.725 358V349.584H169.861V358H168.725ZM176.462 358.08C173.998 358.08 172.174 356.288 172.174 353.792C172.174 351.296 173.998 349.52 176.462 349.52C178.926 349.52 180.734 351.296 180.734 353.792C180.734 356.288 178.926 358.08 176.462 358.08ZM176.462 357.072C178.254 357.072 179.582 355.76 179.582 353.792C179.582 351.824 178.254 350.512 176.462 350.512C174.67 350.512 173.326 351.824 173.326 353.792C173.326 355.76 174.67 357.072 176.462 357.072ZM187.341 349.52C189.389 349.52 190.797 350.704 190.797 353.12V358H189.661V353.232C189.661 351.456 188.733 350.544 187.133 350.544C185.325 350.544 184.189 351.664 184.189 353.584V358H183.053V349.584H184.141V351.136C184.749 350.112 185.885 349.52 187.341 349.52ZM202.356 349.52C204.404 349.52 205.812 350.704 205.812 353.12V358H204.676V353.232C204.676 351.456 203.748 350.544 202.148 350.544C200.34 350.544 199.204 351.664 199.204 353.584V358H198.068V349.584H199.156V351.136C199.764 350.112 200.9 349.52 202.356 349.52ZM216.272 353.792C216.272 353.888 216.256 354.016 216.256 354.144H209.216C209.344 355.904 210.688 357.072 212.528 357.072C213.552 357.072 214.464 356.704 215.104 355.968L215.744 356.704C214.992 357.6 213.824 358.08 212.496 358.08C209.872 358.08 208.08 356.288 208.08 353.792C208.08 351.296 209.824 349.52 212.192 349.52C214.56 349.52 216.272 351.264 216.272 353.792ZM212.192 350.496C210.56 350.496 209.36 351.648 209.216 353.296H215.184C215.04 351.648 213.84 350.496 212.192 350.496ZM225.928 353.792C225.928 353.888 225.912 354.016 225.912 354.144H218.872C219 355.904 220.344 357.072 222.184 357.072C223.208 357.072 224.12 356.704 224.76 355.968L225.4 356.704C224.648 357.6 223.48 358.08 222.152 358.08C219.528 358.08 217.736 356.288 217.736 353.792C217.736 351.296 219.48 349.52 221.848 349.52C224.216 349.52 225.928 351.264 225.928 353.792ZM221.848 350.496C220.216 350.496 219.016 351.648 218.872 353.296H224.84C224.696 351.648 223.496 350.496 221.848 350.496ZM234.784 346.128H235.92V358H234.832V356.336C234.144 357.472 232.976 358.08 231.584 358.08C229.184 358.08 227.392 356.336 227.392 353.792C227.392 351.248 229.184 349.52 231.584 349.52C232.928 349.52 234.08 350.096 234.784 351.184V346.128ZM231.68 357.072C233.456 357.072 234.8 355.76 234.8 353.792C234.8 351.824 233.456 350.512 231.68 350.512C229.888 350.512 228.544 351.824 228.544 353.792C228.544 355.76 229.888 357.072 231.68 357.072ZM241.34 358.08C239.948 358.08 238.604 357.632 237.916 357.04L238.428 356.144C239.1 356.672 240.236 357.088 241.42 357.088C243.02 357.088 243.676 356.544 243.676 355.712C243.676 353.52 238.22 355.248 238.22 351.92C238.22 350.544 239.404 349.52 241.548 349.52C242.636 349.52 243.82 349.824 244.524 350.304L244.028 351.216C243.292 350.704 242.412 350.496 241.548 350.496C240.028 350.496 239.356 351.088 239.356 351.888C239.356 354.16 244.812 352.448 244.812 355.68C244.812 357.136 243.532 358.08 241.34 358.08ZM247.024 358.08C246.56 358.08 246.176 357.696 246.176 357.2C246.176 356.704 246.56 356.336 247.024 356.336C247.488 356.336 247.888 356.704 247.888 357.2C247.888 357.696 247.488 358.08 247.024 358.08Z" fill="white"/>
<defs>
<linearGradient id="paint0_linear_929_27" x1="61.5" y1="0" x2="254.673" y2="19.884" gradientUnits="userSpaceOnUse">
<stop stop-color="#70C0B2"/>
<stop offset="0.293999" stop-color="#0198B6"/>
<stop offset="0.817393" stop-color="#007289"/>
</linearGradient>
</defs>
</svg>
