<svg width="843" height="341" viewBox="0 0 843 341" fill="none" xmlns="http://www.w3.org/2000/svg">
<path d="M658.562 95V81H664.682C666.202 81 667.535 81.2933 668.682 81.88C669.828 82.4667 670.722 83.28 671.362 84.32C672.002 85.36 672.322 86.5867 672.322 88C672.322 89.4 672.002 90.6267 671.362 91.68C670.722 92.72 669.828 93.5333 668.682 94.12C667.535 94.7067 666.202 95 664.682 95H658.562ZM661.162 92.8H664.562C665.615 92.8 666.522 92.6 667.282 92.2C668.055 91.8 668.648 91.24 669.062 90.52C669.488 89.8 669.702 88.96 669.702 88C669.702 87.0267 669.488 86.1867 669.062 85.48C668.648 84.76 668.055 84.2 667.282 83.8C666.522 83.4 665.615 83.2 664.562 83.2H661.162V92.8ZM679.865 95.14C678.678 95.14 677.638 94.9067 676.745 94.44C675.865 93.96 675.178 93.3067 674.685 92.48C674.205 91.6533 673.965 90.7133 673.965 89.66C673.965 88.5933 674.198 87.6533 674.665 86.84C675.145 86.0133 675.798 85.3667 676.625 84.9C677.465 84.4333 678.418 84.2 679.485 84.2C680.525 84.2 681.452 84.4267 682.265 84.88C683.078 85.3333 683.718 85.9733 684.185 86.8C684.652 87.6267 684.885 88.6 684.885 89.72C684.885 89.8267 684.878 89.9467 684.865 90.08C684.865 90.2133 684.858 90.34 684.845 90.46H675.945V88.8H683.525L682.545 89.32C682.558 88.7067 682.432 88.1667 682.165 87.7C681.898 87.2333 681.532 86.8667 681.065 86.6C680.612 86.3333 680.085 86.2 679.485 86.2C678.872 86.2 678.332 86.3333 677.865 86.6C677.412 86.8667 677.052 87.24 676.785 87.72C676.532 88.1867 676.405 88.74 676.405 89.38V89.78C676.405 90.42 676.552 90.9867 676.845 91.48C677.138 91.9733 677.552 92.3533 678.085 92.62C678.618 92.8867 679.232 93.02 679.925 93.02C680.525 93.02 681.065 92.9267 681.545 92.74C682.025 92.5533 682.452 92.26 682.825 91.86L684.165 93.4C683.685 93.96 683.078 94.3933 682.345 94.7C681.625 94.9933 680.798 95.14 679.865 95.14ZM687.286 95V80.16H689.786V95H687.286ZM693.068 95V84.32H695.568V95H693.068ZM694.328 82.56C693.861 82.56 693.474 82.4133 693.168 82.12C692.874 81.8267 692.728 81.4733 692.728 81.06C692.728 80.6333 692.874 80.28 693.168 80C693.474 79.7067 693.861 79.56 694.328 79.56C694.794 79.56 695.174 79.7 695.468 79.98C695.774 80.2467 695.928 80.5867 695.928 81C695.928 81.44 695.781 81.8133 695.488 82.12C695.194 82.4133 694.808 82.56 694.328 82.56ZM701.689 95L697.109 84.32H699.709L703.649 93.74H702.369L706.449 84.32H708.849L704.269 95H701.689ZM715.139 95.14C713.952 95.14 712.912 94.9067 712.019 94.44C711.139 93.96 710.452 93.3067 709.959 92.48C709.479 91.6533 709.239 90.7133 709.239 89.66C709.239 88.5933 709.472 87.6533 709.939 86.84C710.419 86.0133 711.072 85.3667 711.899 84.9C712.739 84.4333 713.692 84.2 714.759 84.2C715.799 84.2 716.725 84.4267 717.539 84.88C718.352 85.3333 718.992 85.9733 719.459 86.8C719.925 87.6267 720.159 88.6 720.159 89.72C720.159 89.8267 720.152 89.9467 720.139 90.08C720.139 90.2133 720.132 90.34 720.119 90.46H711.219V88.8H718.799L717.819 89.32C717.832 88.7067 717.705 88.1667 717.439 87.7C717.172 87.2333 716.805 86.8667 716.339 86.6C715.885 86.3333 715.359 86.2 714.759 86.2C714.145 86.2 713.605 86.3333 713.139 86.6C712.685 86.8667 712.325 87.24 712.059 87.72C711.805 88.1867 711.679 88.74 711.679 89.38V89.78C711.679 90.42 711.825 90.9867 712.119 91.48C712.412 91.9733 712.825 92.3533 713.359 92.62C713.892 92.8867 714.505 93.02 715.199 93.02C715.799 93.02 716.339 92.9267 716.819 92.74C717.299 92.5533 717.725 92.26 718.099 91.86L719.439 93.4C718.959 93.96 718.352 94.3933 717.619 94.7C716.899 94.9933 716.072 95.14 715.139 95.14ZM722.56 95V84.32H724.94V87.26L724.66 86.4C724.98 85.68 725.48 85.1333 726.16 84.76C726.853 84.3867 727.713 84.2 728.74 84.2V86.58C728.633 86.5533 728.533 86.54 728.44 86.54C728.347 86.5267 728.253 86.52 728.16 86.52C727.213 86.52 726.46 86.8 725.9 87.36C725.34 87.9067 725.06 88.7267 725.06 89.82V95H722.56Z" fill="#0198B5"/>
<circle cx="693" cy="88.5" r="76.5" transform="rotate(-180 693 88.5)" stroke="url(#paint0_linear_929_33)" stroke-width="24"/>
<path d="M547 226V215.824H543.064V214.8H552.12V215.824H548.184V226H547ZM558.06 217.52C560.108 217.52 561.516 218.704 561.516 221.12V226H560.38V221.232C560.38 219.456 559.452 218.544 557.852 218.544C556.044 218.544 554.908 219.664 554.908 221.584V226H553.772V214.128H554.908V219.056C555.532 218.08 556.636 217.52 558.06 217.52ZM565.688 219.232C566.216 218.112 567.288 217.52 568.84 217.52V218.624C568.744 218.624 568.648 218.608 568.568 218.608C566.808 218.608 565.736 219.728 565.736 221.712V226H564.6V217.584H565.688V219.232ZM574.258 226.08C571.794 226.08 569.97 224.288 569.97 221.792C569.97 219.296 571.794 217.52 574.258 217.52C576.722 217.52 578.53 219.296 578.53 221.792C578.53 224.288 576.722 226.08 574.258 226.08ZM574.258 225.072C576.05 225.072 577.378 223.76 577.378 221.792C577.378 219.824 576.05 218.512 574.258 218.512C572.466 218.512 571.122 219.824 571.122 221.792C571.122 223.76 572.466 225.072 574.258 225.072ZM587.298 217.584H588.434V226H587.346V224.464C586.754 225.488 585.666 226.08 584.322 226.08C582.178 226.08 580.77 224.88 580.77 222.464V217.584H581.906V222.352C581.906 224.144 582.834 225.056 584.434 225.056C586.194 225.056 587.298 223.92 587.298 222V217.584ZM598.319 217.584H599.407V224.976C599.407 227.872 597.983 229.184 595.199 229.184C593.663 229.184 592.159 228.72 591.279 227.888L591.855 227.024C592.655 227.744 593.871 228.176 595.167 228.176C597.295 228.176 598.271 227.2 598.271 225.12V224.048C597.567 225.12 596.367 225.68 594.991 225.68C592.591 225.68 590.767 224 590.767 221.584C590.767 219.168 592.591 217.52 594.991 217.52C596.399 217.52 597.615 218.096 598.319 219.2V217.584ZM595.103 224.672C596.959 224.672 598.303 223.408 598.303 221.584C598.303 219.76 596.959 218.512 595.103 218.512C593.247 218.512 591.919 219.76 591.919 221.584C591.919 223.408 593.247 224.672 595.103 224.672ZM606.872 217.52C608.92 217.52 610.328 218.704 610.328 221.12V226H609.192V221.232C609.192 219.456 608.264 218.544 606.664 218.544C604.856 218.544 603.72 219.664 603.72 221.584V226H602.584V214.128H603.72V219.056C604.344 218.08 605.448 217.52 606.872 217.52ZM627.149 226.08C624.685 226.08 622.861 224.288 622.861 221.792C622.861 219.296 624.685 217.52 627.149 217.52C629.613 217.52 631.421 219.296 631.421 221.792C631.421 224.288 629.613 226.08 627.149 226.08ZM627.149 225.072C628.941 225.072 630.269 223.76 630.269 221.792C630.269 219.824 628.941 218.512 627.149 218.512C625.357 218.512 624.013 219.824 624.013 221.792C624.013 223.76 625.357 225.072 627.149 225.072ZM640.188 217.584H641.324V226H640.236V224.464C639.644 225.488 638.556 226.08 637.212 226.08C635.068 226.08 633.66 224.88 633.66 222.464V217.584H634.796V222.352C634.796 224.144 635.724 225.056 637.324 225.056C639.084 225.056 640.188 223.92 640.188 222V217.584ZM645.594 219.232C646.122 218.112 647.194 217.52 648.746 217.52V218.624C648.65 218.624 648.554 218.608 648.474 218.608C646.714 218.608 645.642 219.728 645.642 221.712V226H644.506V217.584H645.594V219.232ZM665.257 224.672L665.657 225.488C665.209 225.888 664.537 226.08 663.881 226.08C662.297 226.08 661.417 225.184 661.417 223.632V218.544H659.913V217.584H661.417V215.744H662.553V217.584H665.113V218.544H662.553V223.568C662.553 224.56 663.065 225.104 664.009 225.104C664.473 225.104 664.937 224.96 665.257 224.672ZM672.013 217.52C674.061 217.52 675.469 218.704 675.469 221.12V226H674.333V221.232C674.333 219.456 673.405 218.544 671.805 218.544C669.997 218.544 668.861 219.664 668.861 221.584V226H667.725V214.128H668.861V219.056C669.485 218.08 670.589 217.52 672.013 217.52ZM682.024 226.08C679.56 226.08 677.736 224.288 677.736 221.792C677.736 219.296 679.56 217.52 682.024 217.52C684.488 217.52 686.296 219.296 686.296 221.792C686.296 224.288 684.488 226.08 682.024 226.08ZM682.024 225.072C683.816 225.072 685.144 223.76 685.144 221.792C685.144 219.824 683.816 218.512 682.024 218.512C680.232 218.512 678.888 219.824 678.888 221.792C678.888 223.76 680.232 225.072 682.024 225.072ZM689.703 219.232C690.231 218.112 691.303 217.52 692.855 217.52V218.624C692.759 218.624 692.663 218.608 692.583 218.608C690.823 218.608 689.751 219.728 689.751 221.712V226H688.615V217.584H689.703V219.232ZM698.274 226.08C695.81 226.08 693.986 224.288 693.986 221.792C693.986 219.296 695.81 217.52 698.274 217.52C700.738 217.52 702.546 219.296 702.546 221.792C702.546 224.288 700.738 226.08 698.274 226.08ZM698.274 225.072C700.066 225.072 701.394 223.76 701.394 221.792C701.394 219.824 700.066 218.512 698.274 218.512C696.482 218.512 695.138 219.824 695.138 221.792C695.138 223.76 696.482 225.072 698.274 225.072ZM711.313 217.584H712.449V226H711.361V224.464C710.769 225.488 709.681 226.08 708.337 226.08C706.193 226.08 704.785 224.88 704.785 222.464V217.584H705.921V222.352C705.921 224.144 706.849 225.056 708.449 225.056C710.209 225.056 711.313 223.92 711.313 222V217.584ZM722.335 217.584H723.423V224.976C723.423 227.872 721.999 229.184 719.215 229.184C717.679 229.184 716.175 228.72 715.295 227.888L715.871 227.024C716.671 227.744 717.887 228.176 719.183 228.176C721.311 228.176 722.287 227.2 722.287 225.12V224.048C721.583 225.12 720.383 225.68 719.007 225.68C716.607 225.68 714.783 224 714.783 221.584C714.783 219.168 716.607 217.52 719.007 217.52C720.415 217.52 721.631 218.096 722.335 219.2V217.584ZM719.119 224.672C720.975 224.672 722.319 223.408 722.319 221.584C722.319 219.76 720.975 218.512 719.119 218.512C717.263 218.512 715.935 219.76 715.935 221.584C715.935 223.408 717.263 224.672 719.119 224.672ZM730.888 217.52C732.936 217.52 734.344 218.704 734.344 221.12V226H733.208V221.232C733.208 219.456 732.28 218.544 730.68 218.544C728.872 218.544 727.736 219.664 727.736 221.584V226H726.6V214.128H727.736V219.056C728.36 218.08 729.464 217.52 730.888 217.52ZM748.813 219.232C749.341 218.112 750.413 217.52 751.965 217.52V218.624C751.869 218.624 751.773 218.608 751.693 218.608C749.933 218.608 748.861 219.728 748.861 221.712V226H747.725V217.584H748.813V219.232ZM761.287 221.792C761.287 221.888 761.271 222.016 761.271 222.144H754.231C754.359 223.904 755.703 225.072 757.543 225.072C758.567 225.072 759.479 224.704 760.119 223.968L760.759 224.704C760.007 225.6 758.839 226.08 757.511 226.08C754.887 226.08 753.095 224.288 753.095 221.792C753.095 219.296 754.839 217.52 757.207 217.52C759.575 217.52 761.287 219.264 761.287 221.792ZM757.207 218.496C755.575 218.496 754.375 219.648 754.231 221.296H760.199C760.055 219.648 758.855 218.496 757.207 218.496ZM767.088 226.08C764.576 226.08 762.752 224.304 762.752 221.792C762.752 219.28 764.576 217.52 767.088 217.52C768.512 217.52 769.712 218.08 770.384 219.184L769.536 219.76C768.96 218.912 768.064 218.512 767.088 218.512C765.248 218.512 763.904 219.824 763.904 221.792C763.904 223.776 765.248 225.072 767.088 225.072C768.064 225.072 768.96 224.688 769.536 223.84L770.384 224.416C769.712 225.504 768.512 226.08 767.088 226.08ZM773.703 219.232C774.231 218.112 775.303 217.52 776.855 217.52V218.624C776.759 218.624 776.663 218.608 776.583 218.608C774.823 218.608 773.751 219.728 773.751 221.712V226H772.615V217.584H773.703V219.232ZM785.485 217.584H786.621V226H785.533V224.464C784.941 225.488 783.853 226.08 782.509 226.08C780.365 226.08 778.957 224.88 778.957 222.464V217.584H780.093V222.352C780.093 224.144 781.021 225.056 782.621 225.056C784.381 225.056 785.485 223.92 785.485 222V217.584ZM790.379 215.744C789.915 215.744 789.547 215.376 789.547 214.928C789.547 214.496 789.915 214.128 790.379 214.128C790.843 214.128 791.211 214.48 791.211 214.912C791.211 215.376 790.859 215.744 790.379 215.744ZM789.803 226V217.584H790.939V226H789.803ZM798.132 224.672L798.532 225.488C798.084 225.888 797.412 226.08 796.756 226.08C795.172 226.08 794.292 225.184 794.292 223.632V218.544H792.788V217.584H794.292V215.744H795.428V217.584H797.988V218.544H795.428V223.568C795.428 224.56 795.94 225.104 796.884 225.104C797.348 225.104 797.812 224.96 798.132 224.672ZM811.096 217.52C813.144 217.52 814.488 218.704 814.488 221.12V226H813.352V221.232C813.352 219.456 812.456 218.544 810.936 218.544C809.208 218.544 808.12 219.664 808.12 221.584V226H806.984V221.232C806.984 219.456 806.088 218.544 804.552 218.544C802.84 218.544 801.736 219.664 801.736 221.584V226H800.6V217.584H801.688V219.12C802.28 218.112 803.368 217.52 804.776 217.52C806.168 217.52 807.256 218.112 807.768 219.296C808.376 218.208 809.576 217.52 811.096 217.52ZM824.944 221.792C824.944 221.888 824.928 222.016 824.928 222.144H817.888C818.016 223.904 819.36 225.072 821.2 225.072C822.224 225.072 823.136 224.704 823.776 223.968L824.416 224.704C823.664 225.6 822.496 226.08 821.168 226.08C818.544 226.08 816.752 224.288 816.752 221.792C816.752 219.296 818.496 217.52 820.864 217.52C823.232 217.52 824.944 219.264 824.944 221.792ZM820.864 218.496C819.232 218.496 818.032 219.648 817.888 221.296H823.856C823.712 219.648 822.512 218.496 820.864 218.496ZM831.544 217.52C833.592 217.52 835 218.704 835 221.12V226H833.864V221.232C833.864 219.456 832.936 218.544 831.336 218.544C829.528 218.544 828.392 219.664 828.392 221.584V226H827.256V217.584H828.344V219.136C828.952 218.112 830.088 217.52 831.544 217.52ZM842.116 224.672L842.516 225.488C842.068 225.888 841.396 226.08 840.74 226.08C839.156 226.08 838.276 225.184 838.276 223.632V218.544H836.772V217.584H838.276V215.744H839.412V217.584H841.972V218.544H839.412V223.568C839.412 224.56 839.924 225.104 840.868 225.104C841.332 225.104 841.796 224.96 842.116 224.672ZM548.92 239.52C551.32 239.52 553.112 241.248 553.112 243.792C553.112 246.352 551.32 248.08 548.92 248.08C547.576 248.08 546.424 247.504 545.72 246.416V251.104H544.584V239.584H545.672V241.248C546.36 240.128 547.528 239.52 548.92 239.52ZM548.84 247.072C550.616 247.072 551.976 245.76 551.976 243.792C551.976 241.84 550.616 240.512 548.84 240.512C547.048 240.512 545.704 241.84 545.704 243.792C545.704 245.76 547.048 247.072 548.84 247.072ZM556.516 241.232C557.044 240.112 558.116 239.52 559.668 239.52V240.624C559.572 240.624 559.476 240.608 559.396 240.608C557.636 240.608 556.564 241.728 556.564 243.712V248H555.428V239.584H556.516V241.232ZM565.087 248.08C562.623 248.08 560.799 246.288 560.799 243.792C560.799 241.296 562.623 239.52 565.087 239.52C567.551 239.52 569.359 241.296 569.359 243.792C569.359 246.288 567.551 248.08 565.087 248.08ZM565.087 247.072C566.879 247.072 568.207 245.76 568.207 243.792C568.207 241.824 566.879 240.512 565.087 240.512C563.295 240.512 561.951 241.824 561.951 243.792C561.951 245.76 563.295 247.072 565.087 247.072ZM575.166 248.08C572.654 248.08 570.83 246.304 570.83 243.792C570.83 241.28 572.654 239.52 575.166 239.52C576.59 239.52 577.79 240.08 578.462 241.184L577.614 241.76C577.038 240.912 576.142 240.512 575.166 240.512C573.326 240.512 571.982 241.824 571.982 243.792C571.982 245.776 573.326 247.072 575.166 247.072C576.142 247.072 577.038 246.688 577.614 245.84L578.462 246.416C577.79 247.504 576.59 248.08 575.166 248.08ZM587.897 243.792C587.897 243.888 587.881 244.016 587.881 244.144H580.841C580.969 245.904 582.313 247.072 584.153 247.072C585.177 247.072 586.089 246.704 586.729 245.968L587.369 246.704C586.617 247.6 585.449 248.08 584.121 248.08C581.497 248.08 579.705 246.288 579.705 243.792C579.705 241.296 581.449 239.52 583.817 239.52C586.185 239.52 587.897 241.264 587.897 243.792ZM583.817 240.496C582.185 240.496 580.985 241.648 580.841 243.296H586.809C586.665 241.648 585.465 240.496 583.817 240.496ZM592.465 248.08C591.073 248.08 589.729 247.632 589.041 247.04L589.553 246.144C590.225 246.672 591.361 247.088 592.545 247.088C594.145 247.088 594.801 246.544 594.801 245.712C594.801 243.52 589.345 245.248 589.345 241.92C589.345 240.544 590.529 239.52 592.673 239.52C593.761 239.52 594.945 239.824 595.649 240.304L595.153 241.216C594.417 240.704 593.537 240.496 592.673 240.496C591.153 240.496 590.481 241.088 590.481 241.888C590.481 244.16 595.937 242.448 595.937 245.68C595.937 247.136 594.657 248.08 592.465 248.08ZM600.293 248.08C598.901 248.08 597.557 247.632 596.869 247.04L597.381 246.144C598.053 246.672 599.189 247.088 600.373 247.088C601.973 247.088 602.629 246.544 602.629 245.712C602.629 243.52 597.173 245.248 597.173 241.92C597.173 240.544 598.357 239.52 600.501 239.52C601.589 239.52 602.773 239.824 603.477 240.304L602.981 241.216C602.245 240.704 601.365 240.496 600.501 240.496C598.981 240.496 598.309 241.088 598.309 241.888C598.309 244.16 603.765 242.448 603.765 245.68C603.765 247.136 602.485 248.08 600.293 248.08ZM605.993 246.336C606.489 246.336 606.841 246.72 606.841 247.2C606.841 247.472 606.777 247.68 606.617 248.128L605.945 250.336H605.177L605.721 248.016C605.385 247.92 605.145 247.616 605.145 247.2C605.145 246.704 605.513 246.336 605.993 246.336ZM644.828 239.584H645.868L642.684 248H641.612L638.956 241.104L636.3 248H635.228L632.06 239.584H633.148L635.788 246.736L638.492 239.584H639.468L642.156 246.736L644.828 239.584ZM654.688 243.792C654.688 243.888 654.672 244.016 654.672 244.144H647.632C647.76 245.904 649.104 247.072 650.944 247.072C651.968 247.072 652.88 246.704 653.52 245.968L654.16 246.704C653.408 247.6 652.24 248.08 650.912 248.08C648.288 248.08 646.496 246.288 646.496 243.792C646.496 241.296 648.24 239.52 650.608 239.52C652.976 239.52 654.688 241.264 654.688 243.792ZM650.608 240.496C648.976 240.496 647.776 241.648 647.632 243.296H653.6C653.456 241.648 652.256 240.496 650.608 240.496ZM685.549 239.52C687.597 239.52 689.005 240.704 689.005 243.12V248H687.869V243.232C687.869 241.456 686.941 240.544 685.341 240.544C683.533 240.544 682.397 241.664 682.397 243.584V248H681.261V236.128H682.397V241.056C683.021 240.08 684.125 239.52 685.549 239.52ZM695.033 239.52C697.209 239.52 698.441 240.608 698.441 242.784V248H697.353V246.688C696.841 247.552 695.849 248.08 694.457 248.08C692.553 248.08 691.385 247.088 691.385 245.632C691.385 244.336 692.217 243.248 694.633 243.248H697.305V242.736C697.305 241.296 696.489 240.512 694.921 240.512C693.833 240.512 692.809 240.896 692.121 241.504L691.609 240.656C692.457 239.936 693.705 239.52 695.033 239.52ZM694.633 247.184C695.913 247.184 696.857 246.576 697.305 245.472V244.096H694.665C693.033 244.096 692.505 244.736 692.505 245.6C692.505 246.576 693.289 247.184 694.633 247.184ZM705.815 239.52C707.863 239.52 709.271 240.704 709.271 243.12V248H708.135V243.232C708.135 241.456 707.207 240.544 705.607 240.544C703.799 240.544 702.663 241.664 702.663 243.584V248H701.527V239.584H702.615V241.136C703.223 240.112 704.359 239.52 705.815 239.52ZM718.93 236.128H720.066V248H718.978V246.336C718.29 247.472 717.122 248.08 715.73 248.08C713.33 248.08 711.538 246.336 711.538 243.792C711.538 241.248 713.33 239.52 715.73 239.52C717.074 239.52 718.226 240.096 718.93 241.184V236.128ZM715.826 247.072C717.602 247.072 718.946 245.76 718.946 243.792C718.946 241.824 717.602 240.512 715.826 240.512C714.034 240.512 712.69 241.824 712.69 243.792C712.69 245.76 714.034 247.072 715.826 247.072ZM727.566 239.52C729.966 239.52 731.758 241.248 731.758 243.792C731.758 246.352 729.966 248.08 727.566 248.08C726.222 248.08 725.07 247.504 724.366 246.416V251.104H723.23V239.584H724.318V241.248C725.006 240.128 726.174 239.52 727.566 239.52ZM727.486 247.072C729.262 247.072 730.622 245.76 730.622 243.792C730.622 241.84 729.262 240.512 727.486 240.512C725.694 240.512 724.35 241.84 724.35 243.792C724.35 245.76 725.694 247.072 727.486 247.072ZM734.65 237.744C734.186 237.744 733.818 237.376 733.818 236.928C733.818 236.496 734.186 236.128 734.65 236.128C735.114 236.128 735.482 236.48 735.482 236.912C735.482 237.376 735.13 237.744 734.65 237.744ZM734.074 248V239.584H735.21V248H734.074ZM741.858 248.08C739.346 248.08 737.522 246.304 737.522 243.792C737.522 241.28 739.346 239.52 741.858 239.52C743.282 239.52 744.482 240.08 745.154 241.184L744.306 241.76C743.73 240.912 742.834 240.512 741.858 240.512C740.018 240.512 738.674 241.824 738.674 243.792C738.674 245.776 740.018 247.072 741.858 247.072C742.834 247.072 743.73 246.688 744.306 245.84L745.154 246.416C744.482 247.504 743.282 248.08 741.858 248.08ZM753.773 248L750.381 243.776L748.397 245.6V248H747.261V236.128H748.397V244.176L753.421 239.584H754.829L751.229 243.024L755.165 248H753.773ZM784.219 248.128C783.206 248.128 782.416 247.872 781.851 247.36C781.286 246.837 781.003 246.064 781.003 245.04V237.488H783.499V245.008C783.499 245.371 783.595 245.653 783.787 245.856C783.979 246.048 784.24 246.144 784.571 246.144C784.966 246.144 785.302 246.037 785.579 245.824L786.251 247.584C785.995 247.765 785.686 247.904 785.323 248C784.971 248.085 784.603 248.128 784.219 248.128ZM779.675 241.504V239.584H785.643V241.504H779.675ZM791.482 248.128C790.565 248.128 789.749 247.936 789.034 247.552C788.33 247.168 787.77 246.645 787.354 245.984C786.949 245.312 786.746 244.549 786.746 243.696C786.746 242.832 786.949 242.069 787.354 241.408C787.77 240.736 788.33 240.213 789.034 239.84C789.749 239.456 790.565 239.264 791.482 239.264C792.389 239.264 793.2 239.456 793.914 239.84C794.629 240.213 795.189 240.731 795.594 241.392C796 242.053 796.202 242.821 796.202 243.696C796.202 244.549 796 245.312 795.594 245.984C795.189 246.645 794.629 247.168 793.914 247.552C793.2 247.936 792.389 248.128 791.482 248.128ZM791.482 246.08C791.898 246.08 792.272 245.984 792.602 245.792C792.933 245.6 793.194 245.328 793.386 244.976C793.578 244.613 793.674 244.187 793.674 243.696C793.674 243.195 793.578 242.768 793.386 242.416C793.194 242.064 792.933 241.792 792.602 241.6C792.272 241.408 791.898 241.312 791.482 241.312C791.066 241.312 790.693 241.408 790.362 241.6C790.032 241.792 789.765 242.064 789.562 242.416C789.37 242.768 789.274 243.195 789.274 243.696C789.274 244.187 789.37 244.613 789.562 244.976C789.765 245.328 790.032 245.6 790.362 245.792C790.693 245.984 791.066 246.08 791.482 246.08ZM802.959 248.128C802.233 248.128 801.599 247.968 801.055 247.648C800.511 247.328 800.084 246.843 799.775 246.192C799.476 245.531 799.327 244.699 799.327 243.696C799.327 242.683 799.471 241.851 799.759 241.2C800.047 240.549 800.463 240.064 801.007 239.744C801.551 239.424 802.201 239.264 802.959 239.264C803.769 239.264 804.495 239.451 805.135 239.824C805.785 240.187 806.297 240.699 806.671 241.36C807.055 242.021 807.247 242.8 807.247 243.696C807.247 244.603 807.055 245.387 806.671 246.048C806.297 246.709 805.785 247.221 805.135 247.584C804.495 247.947 803.769 248.128 802.959 248.128ZM797.871 251.104V239.392H800.255V241.152L800.207 243.712L800.367 246.256V251.104H797.871ZM802.527 246.08C802.943 246.08 803.311 245.984 803.631 245.792C803.961 245.6 804.223 245.328 804.415 244.976C804.617 244.613 804.719 244.187 804.719 243.696C804.719 243.195 804.617 242.768 804.415 242.416C804.223 242.064 803.961 241.792 803.631 241.6C803.311 241.408 802.943 241.312 802.527 241.312C802.111 241.312 801.737 241.408 801.407 241.6C801.076 241.792 800.815 242.064 800.623 242.416C800.431 242.768 800.335 243.195 800.335 243.696C800.335 244.187 800.431 244.613 800.623 244.976C800.815 245.328 801.076 245.6 801.407 245.792C801.737 245.984 802.111 246.08 802.527 246.08ZM808.754 244.496V242.496H813.282V244.496H808.754ZM818.922 248.128C817.909 248.128 817.119 247.872 816.554 247.36C815.989 246.837 815.706 246.064 815.706 245.04V237.488H818.202V245.008C818.202 245.371 818.298 245.653 818.49 245.856C818.682 246.048 818.943 246.144 819.274 246.144C819.669 246.144 820.005 246.037 820.282 245.824L820.954 247.584C820.698 247.765 820.389 247.904 820.026 248C819.674 248.085 819.306 248.128 818.922 248.128ZM814.378 241.504V239.584H820.346V241.504H814.378ZM822.355 248V239.392H824.851V248H822.355ZM823.603 238.192C823.144 238.192 822.771 238.059 822.483 237.792C822.195 237.525 822.051 237.195 822.051 236.8C822.051 236.405 822.195 236.075 822.483 235.808C822.771 235.541 823.144 235.408 823.603 235.408C824.062 235.408 824.435 235.536 824.723 235.792C825.011 236.037 825.155 236.357 825.155 236.752C825.155 237.168 825.011 237.515 824.723 237.792C824.446 238.059 824.072 238.192 823.603 238.192ZM831.44 248.128C830.458 248.128 829.594 247.936 828.848 247.552C828.112 247.168 827.541 246.645 827.136 245.984C826.73 245.312 826.528 244.549 826.528 243.696C826.528 242.832 826.725 242.069 827.12 241.408C827.525 240.736 828.074 240.213 828.768 239.84C829.461 239.456 830.245 239.264 831.12 239.264C831.962 239.264 832.72 239.445 833.392 239.808C834.074 240.16 834.613 240.672 835.008 241.344C835.402 242.005 835.6 242.8 835.6 243.728C835.6 243.824 835.594 243.936 835.584 244.064C835.573 244.181 835.562 244.293 835.552 244.4H828.56V242.944H834.24L833.28 243.376C833.28 242.928 833.189 242.539 833.008 242.208C832.826 241.877 832.576 241.621 832.256 241.44C831.936 241.248 831.562 241.152 831.136 241.152C830.709 241.152 830.33 241.248 830 241.44C829.68 241.621 829.429 241.883 829.248 242.224C829.066 242.555 828.976 242.949 828.976 243.408V243.792C828.976 244.261 829.077 244.677 829.28 245.04C829.493 245.392 829.786 245.664 830.16 245.856C830.544 246.037 830.992 246.128 831.504 246.128C831.962 246.128 832.362 246.059 832.704 245.92C833.056 245.781 833.376 245.573 833.664 245.296L834.992 246.736C834.597 247.184 834.101 247.531 833.504 247.776C832.906 248.011 832.218 248.128 831.44 248.128ZM837.261 248V239.392H839.645V241.824L839.309 241.12C839.565 240.512 839.976 240.053 840.541 239.744C841.107 239.424 841.795 239.264 842.605 239.264V241.568C842.499 241.557 842.403 241.552 842.317 241.552C842.232 241.541 842.141 241.536 842.045 241.536C841.363 241.536 840.808 241.733 840.381 242.128C839.965 242.512 839.757 243.115 839.757 243.936V248H837.261ZM548.312 270.128C547.384 270.128 546.557 269.941 545.832 269.568C545.107 269.184 544.536 268.656 544.12 267.984C543.715 267.312 543.512 266.549 543.512 265.696C543.512 264.832 543.715 264.069 544.12 263.408C544.536 262.736 545.107 262.213 545.832 261.84C546.557 261.456 547.384 261.264 548.312 261.264C549.219 261.264 550.008 261.456 550.68 261.84C551.352 262.213 551.848 262.752 552.168 263.456L550.232 264.496C550.008 264.091 549.725 263.792 549.384 263.6C549.053 263.408 548.691 263.312 548.296 263.312C547.869 263.312 547.485 263.408 547.144 263.6C546.803 263.792 546.531 264.064 546.328 264.416C546.136 264.768 546.04 265.195 546.04 265.696C546.04 266.197 546.136 266.624 546.328 266.976C546.531 267.328 546.803 267.6 547.144 267.792C547.485 267.984 547.869 268.08 548.296 268.08C548.691 268.08 549.053 267.989 549.384 267.808C549.725 267.616 550.008 267.312 550.232 266.896L552.168 267.952C551.848 268.645 551.352 269.184 550.68 269.568C550.008 269.941 549.219 270.128 548.312 270.128ZM558.885 270V268.32L558.725 267.952V264.944C558.725 264.411 558.56 263.995 558.229 263.696C557.909 263.397 557.413 263.248 556.741 263.248C556.282 263.248 555.829 263.323 555.381 263.472C554.944 263.611 554.57 263.803 554.261 264.048L553.365 262.304C553.834 261.973 554.4 261.717 555.061 261.536C555.722 261.355 556.394 261.264 557.077 261.264C558.389 261.264 559.408 261.573 560.133 262.192C560.858 262.811 561.221 263.776 561.221 265.088V270H558.885ZM556.261 270.128C555.589 270.128 555.013 270.016 554.533 269.792C554.053 269.557 553.685 269.243 553.429 268.848C553.173 268.453 553.045 268.011 553.045 267.52C553.045 267.008 553.168 266.56 553.413 266.176C553.669 265.792 554.069 265.493 554.613 265.28C555.157 265.056 555.866 264.944 556.741 264.944H559.029V266.4H557.013C556.426 266.4 556.021 266.496 555.797 266.688C555.584 266.88 555.477 267.12 555.477 267.408C555.477 267.728 555.6 267.984 555.845 268.176C556.101 268.357 556.448 268.448 556.885 268.448C557.301 268.448 557.674 268.352 558.005 268.16C558.336 267.957 558.576 267.664 558.725 267.28L559.109 268.432C558.928 268.987 558.597 269.408 558.117 269.696C557.637 269.984 557.018 270.128 556.261 270.128ZM568.712 261.264C569.395 261.264 570.003 261.403 570.536 261.68C571.08 261.947 571.507 262.363 571.816 262.928C572.125 263.483 572.28 264.197 572.28 265.072V270H569.784V265.456C569.784 264.763 569.629 264.251 569.32 263.92C569.021 263.589 568.595 263.424 568.04 263.424C567.645 263.424 567.288 263.509 566.968 263.68C566.659 263.84 566.413 264.091 566.232 264.432C566.061 264.773 565.976 265.211 565.976 265.744V270H563.48V261.392H565.864V263.776L565.416 263.056C565.725 262.48 566.168 262.037 566.744 261.728C567.32 261.419 567.976 261.264 568.712 261.264ZM578.301 270.128C577.49 270.128 576.76 269.947 576.109 269.584C575.458 269.211 574.941 268.693 574.557 268.032C574.184 267.371 573.997 266.592 573.997 265.696C573.997 264.789 574.184 264.005 574.557 263.344C574.941 262.683 575.458 262.171 576.109 261.808C576.76 261.445 577.49 261.264 578.301 261.264C579.026 261.264 579.661 261.424 580.205 261.744C580.749 262.064 581.17 262.549 581.469 263.2C581.768 263.851 581.917 264.683 581.917 265.696C581.917 266.699 581.773 267.531 581.485 268.192C581.197 268.843 580.781 269.328 580.237 269.648C579.704 269.968 579.058 270.128 578.301 270.128ZM578.733 268.08C579.138 268.08 579.506 267.984 579.837 267.792C580.168 267.6 580.429 267.328 580.621 266.976C580.824 266.613 580.925 266.187 580.925 265.696C580.925 265.195 580.824 264.768 580.621 264.416C580.429 264.064 580.168 263.792 579.837 263.6C579.506 263.408 579.138 263.312 578.733 263.312C578.317 263.312 577.944 263.408 577.613 263.6C577.282 263.792 577.016 264.064 576.813 264.416C576.621 264.768 576.525 265.195 576.525 265.696C576.525 266.187 576.621 266.613 576.813 266.976C577.016 267.328 577.282 267.6 577.613 267.792C577.944 267.984 578.317 268.08 578.733 268.08ZM580.989 270V268.24L581.037 265.68L580.877 263.136V258.128H583.373V270H580.989ZM585.683 270V261.392H588.179V270H585.683ZM586.931 260.192C586.473 260.192 586.099 260.059 585.811 259.792C585.523 259.525 585.379 259.195 585.379 258.8C585.379 258.405 585.523 258.075 585.811 257.808C586.099 257.541 586.473 257.408 586.931 257.408C587.39 257.408 587.763 257.536 588.051 257.792C588.339 258.037 588.483 258.357 588.483 258.752C588.483 259.168 588.339 259.515 588.051 259.792C587.774 260.059 587.401 260.192 586.931 260.192ZM594.192 270.128C593.381 270.128 592.65 269.947 592 269.584C591.349 269.211 590.832 268.693 590.448 268.032C590.074 267.371 589.888 266.592 589.888 265.696C589.888 264.789 590.074 264.005 590.448 263.344C590.832 262.683 591.349 262.171 592 261.808C592.65 261.445 593.381 261.264 594.192 261.264C594.917 261.264 595.552 261.424 596.096 261.744C596.64 262.064 597.061 262.549 597.36 263.2C597.658 263.851 597.808 264.683 597.808 265.696C597.808 266.699 597.664 267.531 597.376 268.192C597.088 268.843 596.672 269.328 596.128 269.648C595.594 269.968 594.949 270.128 594.192 270.128ZM594.624 268.08C595.029 268.08 595.397 267.984 595.728 267.792C596.058 267.6 596.32 267.328 596.512 266.976C596.714 266.613 596.816 266.187 596.816 265.696C596.816 265.195 596.714 264.768 596.512 264.416C596.32 264.064 596.058 263.792 595.728 263.6C595.397 263.408 595.029 263.312 594.624 263.312C594.208 263.312 593.834 263.408 593.504 263.6C593.173 263.792 592.906 264.064 592.704 264.416C592.512 264.768 592.416 265.195 592.416 265.696C592.416 266.187 592.512 266.613 592.704 266.976C592.906 267.328 593.173 267.6 593.504 267.792C593.834 267.984 594.208 268.08 594.624 268.08ZM596.88 270V268.24L596.928 265.68L596.768 263.136V258.128H599.264V270H596.88ZM606.854 270V268.32L606.694 267.952V264.944C606.694 264.411 606.529 263.995 606.198 263.696C605.878 263.397 605.382 263.248 604.71 263.248C604.251 263.248 603.798 263.323 603.35 263.472C602.913 263.611 602.539 263.803 602.23 264.048L601.334 262.304C601.803 261.973 602.369 261.717 603.03 261.536C603.691 261.355 604.363 261.264 605.046 261.264C606.358 261.264 607.377 261.573 608.102 262.192C608.827 262.811 609.19 263.776 609.19 265.088V270H606.854ZM604.23 270.128C603.558 270.128 602.982 270.016 602.502 269.792C602.022 269.557 601.654 269.243 601.398 268.848C601.142 268.453 601.014 268.011 601.014 267.52C601.014 267.008 601.137 266.56 601.382 266.176C601.638 265.792 602.038 265.493 602.582 265.28C603.126 265.056 603.835 264.944 604.71 264.944H606.998V266.4H604.982C604.395 266.4 603.99 266.496 603.766 266.688C603.553 266.88 603.446 267.12 603.446 267.408C603.446 267.728 603.569 267.984 603.814 268.176C604.07 268.357 604.417 268.448 604.854 268.448C605.27 268.448 605.643 268.352 605.974 268.16C606.305 267.957 606.545 267.664 606.694 267.28L607.078 268.432C606.897 268.987 606.566 269.408 606.086 269.696C605.606 269.984 604.987 270.128 604.23 270.128ZM614.969 270.128C613.956 270.128 613.166 269.872 612.601 269.36C612.036 268.837 611.753 268.064 611.753 267.04V259.488H614.249V267.008C614.249 267.371 614.345 267.653 614.537 267.856C614.729 268.048 614.99 268.144 615.321 268.144C615.716 268.144 616.052 268.037 616.329 267.824L617.001 269.584C616.745 269.765 616.436 269.904 616.073 270C615.721 270.085 615.353 270.128 614.969 270.128ZM610.425 263.504V261.584H616.393V263.504H610.425ZM622.408 270.128C621.427 270.128 620.563 269.936 619.816 269.552C619.08 269.168 618.51 268.645 618.104 267.984C617.699 267.312 617.496 266.549 617.496 265.696C617.496 264.832 617.694 264.069 618.088 263.408C618.494 262.736 619.043 262.213 619.736 261.84C620.43 261.456 621.214 261.264 622.088 261.264C622.931 261.264 623.688 261.445 624.36 261.808C625.043 262.16 625.582 262.672 625.976 263.344C626.371 264.005 626.568 264.8 626.568 265.728C626.568 265.824 626.563 265.936 626.552 266.064C626.542 266.181 626.531 266.293 626.52 266.4H619.528V264.944H625.208L624.248 265.376C624.248 264.928 624.158 264.539 623.976 264.208C623.795 263.877 623.544 263.621 623.224 263.44C622.904 263.248 622.531 263.152 622.104 263.152C621.678 263.152 621.299 263.248 620.968 263.44C620.648 263.621 620.398 263.883 620.216 264.224C620.035 264.555 619.944 264.949 619.944 265.408V265.792C619.944 266.261 620.046 266.677 620.248 267.04C620.462 267.392 620.755 267.664 621.128 267.856C621.512 268.037 621.96 268.128 622.472 268.128C622.931 268.128 623.331 268.059 623.672 267.92C624.024 267.781 624.344 267.573 624.632 267.296L625.96 268.736C625.566 269.184 625.07 269.531 624.472 269.776C623.875 270.011 623.187 270.128 622.408 270.128ZM631.126 270.128C630.39 270.128 629.681 270.043 628.998 269.872C628.326 269.691 627.793 269.467 627.398 269.2L628.23 267.408C628.625 267.653 629.089 267.856 629.622 268.016C630.166 268.165 630.699 268.24 631.222 268.24C631.798 268.24 632.203 268.171 632.438 268.032C632.683 267.893 632.806 267.701 632.806 267.456C632.806 267.253 632.71 267.104 632.518 267.008C632.337 266.901 632.091 266.821 631.782 266.768C631.473 266.715 631.131 266.661 630.758 266.608C630.395 266.555 630.027 266.485 629.654 266.4C629.281 266.304 628.939 266.165 628.63 265.984C628.321 265.803 628.07 265.557 627.878 265.248C627.697 264.939 627.606 264.539 627.606 264.048C627.606 263.504 627.761 263.024 628.07 262.608C628.39 262.192 628.849 261.867 629.446 261.632C630.043 261.387 630.758 261.264 631.59 261.264C632.177 261.264 632.774 261.328 633.382 261.456C633.99 261.584 634.497 261.771 634.902 262.016L634.07 263.792C633.654 263.547 633.233 263.381 632.806 263.296C632.39 263.2 631.985 263.152 631.59 263.152C631.035 263.152 630.63 263.227 630.374 263.376C630.118 263.525 629.99 263.717 629.99 263.952C629.99 264.165 630.081 264.325 630.262 264.432C630.454 264.539 630.705 264.624 631.014 264.688C631.323 264.752 631.659 264.811 632.022 264.864C632.395 264.907 632.769 264.976 633.142 265.072C633.515 265.168 633.851 265.307 634.15 265.488C634.459 265.659 634.71 265.899 634.902 266.208C635.094 266.507 635.19 266.901 635.19 267.392C635.19 267.925 635.03 268.4 634.71 268.816C634.39 269.221 633.926 269.541 633.318 269.776C632.721 270.011 631.99 270.128 631.126 270.128ZM688.24 261.584H689.28L686.096 270H685.024L682.368 263.104L679.712 270H678.64L675.472 261.584H676.56L679.2 268.736L681.904 261.584H682.88L685.568 268.736L688.24 261.584ZM695.278 261.52C697.326 261.52 698.734 262.704 698.734 265.12V270H697.598V265.232C697.598 263.456 696.67 262.544 695.07 262.544C693.262 262.544 692.126 263.664 692.126 265.584V270H690.99V258.128H692.126V263.056C692.75 262.08 693.854 261.52 695.278 261.52ZM705.29 270.08C702.826 270.08 701.002 268.288 701.002 265.792C701.002 263.296 702.826 261.52 705.29 261.52C707.754 261.52 709.562 263.296 709.562 265.792C709.562 268.288 707.754 270.08 705.29 270.08ZM705.29 269.072C707.082 269.072 708.41 267.76 708.41 265.792C708.41 263.824 707.082 262.512 705.29 262.512C703.498 262.512 702.154 263.824 702.154 265.792C702.154 267.76 703.498 269.072 705.29 269.072ZM751.839 260.544C751.839 259.04 752.735 258.048 754.383 258.048C755.007 258.048 755.647 258.224 756.063 258.576L755.679 259.424C755.359 259.152 754.911 259.008 754.431 259.008C753.455 259.008 752.943 259.552 752.943 260.592V261.584H755.535V262.544H752.975V270H751.839V262.544H750.335V261.584H751.839V260.544ZM758.927 258.128C759.391 258.128 759.759 258.48 759.759 258.912C759.759 259.376 759.407 259.744 758.927 259.744C758.463 259.744 758.095 259.376 758.095 258.928C758.095 258.496 758.463 258.128 758.927 258.128ZM758.351 270V261.584H759.487V270H758.351ZM766.694 268.672L767.094 269.488C766.646 269.888 765.974 270.08 765.318 270.08C763.734 270.08 762.854 269.184 762.854 267.632V262.544H761.35V261.584H762.854V259.744H763.99V261.584H766.55V262.544H763.99V267.568C763.99 268.56 764.502 269.104 765.446 269.104C765.91 269.104 766.374 268.96 766.694 268.672ZM814.88 261.584H816L811.792 271.008C811.088 272.656 810.192 273.184 808.992 273.184C808.208 273.184 807.456 272.928 806.944 272.416L807.472 271.568C807.888 271.984 808.4 272.208 809.008 272.208C809.76 272.208 810.272 271.856 810.752 270.8L811.12 269.984L807.36 261.584H808.544L811.712 268.736L814.88 261.584ZM820.805 270.08C818.341 270.08 816.517 268.288 816.517 265.792C816.517 263.296 818.341 261.52 820.805 261.52C823.269 261.52 825.077 263.296 825.077 265.792C825.077 268.288 823.269 270.08 820.805 270.08ZM820.805 269.072C822.597 269.072 823.925 267.76 823.925 265.792C823.925 263.824 822.597 262.512 820.805 262.512C819.013 262.512 817.669 263.824 817.669 265.792C817.669 267.76 819.013 269.072 820.805 269.072ZM833.845 261.584H834.981V270H833.892V268.464C833.301 269.488 832.213 270.08 830.869 270.08C828.725 270.08 827.317 268.88 827.317 266.464V261.584H828.453V266.352C828.453 268.144 829.381 269.056 830.981 269.056C832.741 269.056 833.845 267.92 833.845 266V261.584ZM839.25 263.232C839.778 262.112 840.85 261.52 842.402 261.52V262.624C842.306 262.624 842.21 262.608 842.13 262.608C840.37 262.608 839.298 263.728 839.298 265.712V270H838.162V261.584H839.25V263.232ZM545.672 285.232C546.2 284.112 547.272 283.52 548.824 283.52V284.624C548.728 284.624 548.632 284.608 548.552 284.608C546.792 284.608 545.72 285.728 545.72 287.712V292H544.584V283.584H545.672V285.232ZM558.147 287.792C558.147 287.888 558.131 288.016 558.131 288.144H551.091C551.219 289.904 552.563 291.072 554.403 291.072C555.427 291.072 556.339 290.704 556.979 289.968L557.619 290.704C556.867 291.6 555.699 292.08 554.371 292.08C551.747 292.08 549.955 290.288 549.955 287.792C549.955 285.296 551.699 283.52 554.067 283.52C556.435 283.52 558.147 285.264 558.147 287.792ZM554.067 284.496C552.435 284.496 551.235 285.648 551.091 287.296H557.059C556.915 285.648 555.715 284.496 554.067 284.496ZM567.051 283.584H568.139V295.104H567.003V290.416C566.299 291.504 565.147 292.08 563.803 292.08C561.403 292.08 559.611 290.352 559.611 287.792C559.611 285.248 561.403 283.52 563.803 283.52C565.195 283.52 566.363 284.128 567.051 285.248V283.584ZM563.899 291.072C565.675 291.072 567.019 289.76 567.019 287.792C567.019 285.84 565.675 284.512 563.899 284.512C562.107 284.512 560.763 285.84 560.763 287.792C560.763 289.76 562.107 291.072 563.899 291.072ZM577.751 283.584H578.887V292H577.799V290.464C577.207 291.488 576.119 292.08 574.775 292.08C572.631 292.08 571.223 290.88 571.223 288.464V283.584H572.359V288.352C572.359 290.144 573.287 291.056 574.887 291.056C576.647 291.056 577.751 289.92 577.751 288V283.584ZM582.644 281.744C582.18 281.744 581.812 281.376 581.812 280.928C581.812 280.496 582.18 280.128 582.644 280.128C583.108 280.128 583.476 280.48 583.476 280.912C583.476 281.376 583.124 281.744 582.644 281.744ZM582.068 292V283.584H583.204V292H582.068ZM587.453 285.232C587.981 284.112 589.053 283.52 590.605 283.52V284.624C590.509 284.624 590.413 284.608 590.333 284.608C588.573 284.608 587.501 285.728 587.501 287.712V292H586.365V283.584H587.453V285.232ZM599.928 287.792C599.928 287.888 599.912 288.016 599.912 288.144H592.872C593 289.904 594.344 291.072 596.184 291.072C597.208 291.072 598.12 290.704 598.76 289.968L599.4 290.704C598.648 291.6 597.48 292.08 596.152 292.08C593.528 292.08 591.736 290.288 591.736 287.792C591.736 285.296 593.48 283.52 595.848 283.52C598.216 283.52 599.928 285.264 599.928 287.792ZM595.848 284.496C594.216 284.496 593.016 285.648 592.872 287.296H598.84C598.696 285.648 597.496 284.496 595.848 284.496ZM612.736 283.52C614.784 283.52 616.128 284.704 616.128 287.12V292H614.992V287.232C614.992 285.456 614.096 284.544 612.576 284.544C610.848 284.544 609.76 285.664 609.76 287.584V292H608.624V287.232C608.624 285.456 607.728 284.544 606.192 284.544C604.48 284.544 603.376 285.664 603.376 287.584V292H602.24V283.584H603.328V285.12C603.92 284.112 605.008 283.52 606.416 283.52C607.808 283.52 608.896 284.112 609.408 285.296C610.016 284.208 611.216 283.52 612.736 283.52ZM626.584 287.792C626.584 287.888 626.568 288.016 626.568 288.144H619.528C619.656 289.904 621 291.072 622.84 291.072C623.864 291.072 624.776 290.704 625.416 289.968L626.056 290.704C625.304 291.6 624.136 292.08 622.808 292.08C620.184 292.08 618.392 290.288 618.392 287.792C618.392 285.296 620.136 283.52 622.504 283.52C624.872 283.52 626.584 285.264 626.584 287.792ZM622.504 284.496C620.872 284.496 619.672 285.648 619.528 287.296H625.496C625.352 285.648 624.152 284.496 622.504 284.496ZM633.185 283.52C635.233 283.52 636.641 284.704 636.641 287.12V292H635.505V287.232C635.505 285.456 634.577 284.544 632.977 284.544C631.169 284.544 630.033 285.664 630.033 287.584V292H628.897V283.584H629.985V285.136C630.593 284.112 631.729 283.52 633.185 283.52ZM643.757 290.672L644.157 291.488C643.709 291.888 643.037 292.08 642.381 292.08C640.797 292.08 639.917 291.184 639.917 289.632V284.544H638.413V283.584H639.917V281.744H641.053V283.584H643.613V284.544H641.053V289.568C641.053 290.56 641.565 291.104 642.509 291.104C642.973 291.104 643.437 290.96 643.757 290.672ZM648.481 292.08C647.089 292.08 645.745 291.632 645.057 291.04L645.569 290.144C646.241 290.672 647.377 291.088 648.561 291.088C650.161 291.088 650.817 290.544 650.817 289.712C650.817 287.52 645.361 289.248 645.361 285.92C645.361 284.544 646.545 283.52 648.689 283.52C649.777 283.52 650.961 283.824 651.665 284.304L651.169 285.216C650.433 284.704 649.553 284.496 648.689 284.496C647.169 284.496 646.497 285.088 646.497 285.888C646.497 288.16 651.953 286.448 651.953 289.68C651.953 291.136 650.673 292.08 648.481 292.08ZM663.377 283.52C665.553 283.52 666.785 284.608 666.785 286.784V292H665.697V290.688C665.185 291.552 664.193 292.08 662.801 292.08C660.897 292.08 659.729 291.088 659.729 289.632C659.729 288.336 660.561 287.248 662.977 287.248H665.649V286.736C665.649 285.296 664.833 284.512 663.265 284.512C662.177 284.512 661.153 284.896 660.465 285.504L659.953 284.656C660.801 283.936 662.049 283.52 663.377 283.52ZM662.977 291.184C664.257 291.184 665.201 290.576 665.649 289.472V288.096H663.009C661.377 288.096 660.849 288.736 660.849 289.6C660.849 290.576 661.633 291.184 662.977 291.184ZM674.158 283.52C676.206 283.52 677.614 284.704 677.614 287.12V292H676.478V287.232C676.478 285.456 675.55 284.544 673.95 284.544C672.142 284.544 671.006 285.664 671.006 287.584V292H669.87V283.584H670.958V285.136C671.566 284.112 672.702 283.52 674.158 283.52ZM687.274 280.128H688.41V292H687.322V290.336C686.634 291.472 685.466 292.08 684.074 292.08C681.674 292.08 679.882 290.336 679.882 287.792C679.882 285.248 681.674 283.52 684.074 283.52C685.418 283.52 686.57 284.096 687.274 285.184V280.128ZM684.17 291.072C685.946 291.072 687.29 289.76 687.29 287.792C687.29 285.824 685.946 284.512 684.17 284.512C682.378 284.512 681.034 285.824 681.034 287.792C681.034 289.76 682.378 291.072 684.17 291.072ZM701.442 292.08C698.93 292.08 697.106 290.304 697.106 287.792C697.106 285.28 698.93 283.52 701.442 283.52C702.866 283.52 704.066 284.08 704.738 285.184L703.89 285.76C703.314 284.912 702.418 284.512 701.442 284.512C699.602 284.512 698.258 285.824 698.258 287.792C698.258 289.776 699.602 291.072 701.442 291.072C702.418 291.072 703.314 290.688 703.89 289.84L704.738 290.416C704.066 291.504 702.866 292.08 701.442 292.08ZM713.417 283.584H714.553V292H713.465V290.464C712.873 291.488 711.785 292.08 710.441 292.08C708.297 292.08 706.889 290.88 706.889 288.464V283.584H708.025V288.352C708.025 290.144 708.953 291.056 710.553 291.056C712.313 291.056 713.417 289.92 713.417 288V283.584ZM717.735 292V280.128H718.871V292H717.735ZM726.095 290.672L726.495 291.488C726.047 291.888 725.375 292.08 724.719 292.08C723.135 292.08 722.255 291.184 722.255 289.632V284.544H720.751V283.584H722.255V281.744H723.391V283.584H725.951V284.544H723.391V289.568C723.391 290.56 723.903 291.104 724.847 291.104C725.311 291.104 725.775 290.96 726.095 290.672ZM735.011 283.584H736.147V292H735.059V290.464C734.467 291.488 733.379 292.08 732.035 292.08C729.891 292.08 728.483 290.88 728.483 288.464V283.584H729.619V288.352C729.619 290.144 730.547 291.056 732.147 291.056C733.907 291.056 735.011 289.92 735.011 288V283.584ZM740.417 285.232C740.945 284.112 742.017 283.52 743.569 283.52V284.624C743.473 284.624 743.377 284.608 743.297 284.608C741.537 284.608 740.465 285.728 740.465 287.712V292H739.329V283.584H740.417V285.232ZM752.892 287.792C752.892 287.888 752.876 288.016 752.876 288.144H745.836C745.964 289.904 747.308 291.072 749.148 291.072C750.172 291.072 751.084 290.704 751.724 289.968L752.364 290.704C751.612 291.6 750.444 292.08 749.116 292.08C746.492 292.08 744.7 290.288 744.7 287.792C744.7 285.296 746.444 283.52 748.812 283.52C751.18 283.52 752.892 285.264 752.892 287.792ZM748.812 284.496C747.18 284.496 745.98 285.648 745.836 287.296H751.804C751.66 285.648 750.46 284.496 748.812 284.496ZM755.332 290.336C755.828 290.336 756.18 290.72 756.18 291.2C756.18 291.472 756.116 291.68 755.956 292.128L755.284 294.336H754.516L755.06 292.016C754.724 291.92 754.484 291.616 754.484 291.2C754.484 290.704 754.852 290.336 755.332 290.336ZM771.519 280.128H772.655V292H771.567V290.336C770.879 291.472 769.711 292.08 768.319 292.08C765.919 292.08 764.127 290.336 764.127 287.792C764.127 285.248 765.919 283.52 768.319 283.52C769.663 283.52 770.815 284.096 771.519 285.184V280.128ZM768.415 291.072C770.191 291.072 771.535 289.76 771.535 287.792C771.535 285.824 770.191 284.512 768.415 284.512C766.623 284.512 765.279 285.824 765.279 287.792C765.279 289.76 766.623 291.072 768.415 291.072ZM783.162 287.792C783.162 287.888 783.146 288.016 783.146 288.144H776.106C776.234 289.904 777.578 291.072 779.418 291.072C780.442 291.072 781.354 290.704 781.994 289.968L782.634 290.704C781.882 291.6 780.714 292.08 779.386 292.08C776.762 292.08 774.97 290.288 774.97 287.792C774.97 285.296 776.714 283.52 779.082 283.52C781.45 283.52 783.162 285.264 783.162 287.792ZM779.082 284.496C777.45 284.496 776.25 285.648 776.106 287.296H782.074C781.93 285.648 780.73 284.496 779.082 284.496ZM785.475 292V280.128H786.611V292H785.475ZM790.348 281.744C789.884 281.744 789.516 281.376 789.516 280.928C789.516 280.496 789.884 280.128 790.348 280.128C790.812 280.128 791.18 280.48 791.18 280.912C791.18 281.376 790.828 281.744 790.348 281.744ZM789.772 292V283.584H790.908V292H789.772ZM800.02 283.584H801.14L797.396 292H796.228L792.5 283.584H793.684L796.836 290.752L800.02 283.584ZM809.85 287.792C809.85 287.888 809.834 288.016 809.834 288.144H802.794C802.922 289.904 804.266 291.072 806.106 291.072C807.13 291.072 808.042 290.704 808.682 289.968L809.322 290.704C808.57 291.6 807.402 292.08 806.074 292.08C803.45 292.08 801.658 290.288 801.658 287.792C801.658 285.296 803.402 283.52 805.77 283.52C808.138 283.52 809.85 285.264 809.85 287.792ZM805.77 284.496C804.138 284.496 802.938 285.648 802.794 287.296H808.762C808.618 285.648 807.418 284.496 805.77 284.496ZM813.25 285.232C813.778 284.112 814.85 283.52 816.402 283.52V284.624C816.306 284.624 816.21 284.608 816.13 284.608C814.37 284.608 813.298 285.728 813.298 287.712V292H812.162V283.584H813.25V285.232ZM819.035 281.744C818.571 281.744 818.203 281.376 818.203 280.928C818.203 280.496 818.571 280.128 819.035 280.128C819.499 280.128 819.867 280.48 819.867 280.912C819.867 281.376 819.515 281.744 819.035 281.744ZM818.459 292V283.584H819.595V292H818.459ZM827.044 283.52C829.092 283.52 830.5 284.704 830.5 287.12V292H829.364V287.232C829.364 285.456 828.436 284.544 826.836 284.544C825.028 284.544 823.892 285.664 823.892 287.584V292H822.756V283.584H823.844V285.136C824.452 284.112 825.588 283.52 827.044 283.52ZM840.319 283.584H841.407V290.976C841.407 293.872 839.983 295.184 837.199 295.184C835.663 295.184 834.159 294.72 833.279 293.888L833.855 293.024C834.655 293.744 835.871 294.176 837.167 294.176C839.295 294.176 840.271 293.2 840.271 291.12V290.048C839.567 291.12 838.367 291.68 836.991 291.68C834.591 291.68 832.767 290 832.767 287.584C832.767 285.168 834.591 283.52 836.991 283.52C838.399 283.52 839.615 284.096 840.319 285.2V283.584ZM837.103 290.672C838.959 290.672 840.303 289.408 840.303 287.584C840.303 285.76 838.959 284.512 837.103 284.512C835.247 284.512 833.919 285.76 833.919 287.584C833.919 289.408 835.247 290.672 837.103 290.672ZM548.616 312.672L549.016 313.488C548.568 313.888 547.896 314.08 547.24 314.08C545.656 314.08 544.776 313.184 544.776 311.632V306.544H543.272V305.584H544.776V303.744H545.912V305.584H548.472V306.544H545.912V311.568C545.912 312.56 546.424 313.104 547.368 313.104C547.832 313.104 548.296 312.96 548.616 312.672ZM555.372 305.52C557.42 305.52 558.828 306.704 558.828 309.12V314H557.692V309.232C557.692 307.456 556.764 306.544 555.164 306.544C553.356 306.544 552.22 307.664 552.22 309.584V314H551.084V302.128H552.22V307.056C552.844 306.08 553.948 305.52 555.372 305.52ZM569.287 309.792C569.287 309.888 569.271 310.016 569.271 310.144H562.231C562.359 311.904 563.703 313.072 565.543 313.072C566.567 313.072 567.479 312.704 568.119 311.968L568.759 312.704C568.007 313.6 566.839 314.08 565.511 314.08C562.887 314.08 561.095 312.288 561.095 309.792C561.095 307.296 562.839 305.52 565.207 305.52C567.575 305.52 569.287 307.264 569.287 309.792ZM565.207 306.496C563.575 306.496 562.375 307.648 562.231 309.296H568.199C568.055 307.648 566.855 306.496 565.207 306.496ZM586.314 312.672L586.714 313.488C586.266 313.888 585.594 314.08 584.938 314.08C583.354 314.08 582.474 313.184 582.474 311.632V306.544H580.97V305.584H582.474V303.744H583.61V305.584H586.17V306.544H583.61V311.568C583.61 312.56 584.122 313.104 585.066 313.104C585.53 313.104 585.994 312.96 586.314 312.672ZM591.726 305.52C593.902 305.52 595.134 306.608 595.134 308.784V314H594.046V312.688C593.534 313.552 592.542 314.08 591.15 314.08C589.246 314.08 588.078 313.088 588.078 311.632C588.078 310.336 588.91 309.248 591.326 309.248H593.998V308.736C593.998 307.296 593.182 306.512 591.614 306.512C590.526 306.512 589.502 306.896 588.814 307.504L588.302 306.656C589.15 305.936 590.398 305.52 591.726 305.52ZM591.326 313.184C592.606 313.184 593.55 312.576 593.998 311.472V310.096H591.358C589.726 310.096 589.198 310.736 589.198 311.6C589.198 312.576 589.982 313.184 591.326 313.184ZM598.219 314V302.128H599.355V314H598.219ZM609.86 309.792C609.86 309.888 609.844 310.016 609.844 310.144H602.804C602.932 311.904 604.276 313.072 606.116 313.072C607.14 313.072 608.052 312.704 608.692 311.968L609.332 312.704C608.58 313.6 607.412 314.08 606.084 314.08C603.46 314.08 601.668 312.288 601.668 309.792C601.668 307.296 603.412 305.52 605.78 305.52C608.148 305.52 609.86 307.264 609.86 309.792ZM605.78 306.496C604.148 306.496 602.948 307.648 602.804 309.296H608.772C608.628 307.648 607.428 306.496 605.78 306.496ZM616.461 305.52C618.509 305.52 619.917 306.704 619.917 309.12V314H618.781V309.232C618.781 307.456 617.853 306.544 616.253 306.544C614.445 306.544 613.309 307.664 613.309 309.584V314H612.173V305.584H613.261V307.136C613.869 306.112 615.005 305.52 616.461 305.52ZM627.033 312.672L627.433 313.488C626.985 313.888 626.313 314.08 625.657 314.08C624.073 314.08 623.193 313.184 623.193 311.632V306.544H621.689V305.584H623.193V303.744H624.329V305.584H626.889V306.544H624.329V311.568C624.329 312.56 624.841 313.104 625.785 313.104C626.249 313.104 626.713 312.96 627.033 312.672ZM646.135 305.584H647.255L643.047 315.008C642.343 316.656 641.447 317.184 640.247 317.184C639.463 317.184 638.711 316.928 638.199 316.416L638.727 315.568C639.143 315.984 639.655 316.208 640.263 316.208C641.015 316.208 641.527 315.856 642.007 314.8L642.375 313.984L638.615 305.584H639.799L642.967 312.736L646.135 305.584ZM652.06 314.08C649.596 314.08 647.772 312.288 647.772 309.792C647.772 307.296 649.596 305.52 652.06 305.52C654.524 305.52 656.332 307.296 656.332 309.792C656.332 312.288 654.524 314.08 652.06 314.08ZM652.06 313.072C653.852 313.072 655.18 311.76 655.18 309.792C655.18 307.824 653.852 306.512 652.06 306.512C650.268 306.512 648.924 307.824 648.924 309.792C648.924 311.76 650.268 313.072 652.06 313.072ZM665.1 305.584H666.236V314H665.148V312.464C664.556 313.488 663.468 314.08 662.124 314.08C659.98 314.08 658.572 312.88 658.572 310.464V305.584H659.708V310.352C659.708 312.144 660.636 313.056 662.236 313.056C663.996 313.056 665.1 311.92 665.1 310V305.584ZM684.388 305.52C686.436 305.52 687.844 306.704 687.844 309.12V314H686.708V309.232C686.708 307.456 685.78 306.544 684.18 306.544C682.372 306.544 681.236 307.664 681.236 309.584V314H680.1V305.584H681.188V307.136C681.796 306.112 682.932 305.52 684.388 305.52ZM698.303 309.792C698.303 309.888 698.287 310.016 698.287 310.144H691.247C691.375 311.904 692.719 313.072 694.559 313.072C695.583 313.072 696.495 312.704 697.135 311.968L697.775 312.704C697.023 313.6 695.855 314.08 694.527 314.08C691.903 314.08 690.111 312.288 690.111 309.792C690.111 307.296 691.855 305.52 694.223 305.52C696.591 305.52 698.303 307.264 698.303 309.792ZM694.223 306.496C692.591 306.496 691.391 307.648 691.247 309.296H697.215C697.071 307.648 695.871 306.496 694.223 306.496ZM707.959 309.792C707.959 309.888 707.943 310.016 707.943 310.144H700.903C701.031 311.904 702.375 313.072 704.215 313.072C705.239 313.072 706.151 312.704 706.791 311.968L707.431 312.704C706.679 313.6 705.511 314.08 704.183 314.08C701.559 314.08 699.767 312.288 699.767 309.792C699.767 307.296 701.511 305.52 703.879 305.52C706.247 305.52 707.959 307.264 707.959 309.792ZM703.879 306.496C702.247 306.496 701.047 307.648 700.903 309.296H706.871C706.727 307.648 705.527 306.496 703.879 306.496ZM716.816 302.128H717.952V314H716.864V312.336C716.176 313.472 715.008 314.08 713.616 314.08C711.216 314.08 709.424 312.336 709.424 309.792C709.424 307.248 711.216 305.52 713.616 305.52C714.96 305.52 716.112 306.096 716.816 307.184V302.128ZM713.712 313.072C715.488 313.072 716.832 311.76 716.832 309.792C716.832 307.824 715.488 306.512 713.712 306.512C711.92 306.512 710.576 307.824 710.576 309.792C710.576 311.76 711.92 313.072 713.712 313.072ZM735.83 312.672L736.23 313.488C735.782 313.888 735.11 314.08 734.454 314.08C732.87 314.08 731.99 313.184 731.99 311.632V306.544H730.486V305.584H731.99V303.744H733.126V305.584H735.686V306.544H733.126V311.568C733.126 312.56 733.638 313.104 734.582 313.104C735.046 313.104 735.51 312.96 735.83 312.672ZM741.441 314.08C738.977 314.08 737.153 312.288 737.153 309.792C737.153 307.296 738.977 305.52 741.441 305.52C743.905 305.52 745.713 307.296 745.713 309.792C745.713 312.288 743.905 314.08 741.441 314.08ZM741.441 313.072C743.233 313.072 744.561 311.76 744.561 309.792C744.561 307.824 743.233 306.512 741.441 306.512C739.649 306.512 738.305 307.824 738.305 309.792C738.305 311.76 739.649 313.072 741.441 313.072ZM765.258 302.128H766.394V314H765.306V312.336C764.618 313.472 763.45 314.08 762.058 314.08C759.658 314.08 757.866 312.336 757.866 309.792C757.866 307.248 759.658 305.52 762.058 305.52C763.402 305.52 764.554 306.096 765.258 307.184V302.128ZM762.154 313.072C763.93 313.072 765.274 311.76 765.274 309.792C765.274 307.824 763.93 306.512 762.154 306.512C760.362 306.512 759.018 307.824 759.018 309.792C759.018 311.76 760.362 313.072 762.154 313.072ZM770.646 307.232C771.174 306.112 772.246 305.52 773.798 305.52V306.624C773.702 306.624 773.606 306.608 773.526 306.608C771.766 306.608 770.694 307.728 770.694 309.712V314H769.558V305.584H770.646V307.232ZM776.431 303.744C775.967 303.744 775.599 303.376 775.599 302.928C775.599 302.496 775.967 302.128 776.431 302.128C776.895 302.128 777.263 302.48 777.263 302.912C777.263 303.376 776.911 303.744 776.431 303.744ZM775.855 314V305.584H776.991V314H775.855ZM786.104 305.584H787.224L783.48 314H782.312L778.584 305.584H779.768L782.92 312.752L786.104 305.584ZM795.933 309.792C795.933 309.888 795.917 310.016 795.917 310.144H788.877C789.005 311.904 790.349 313.072 792.189 313.072C793.213 313.072 794.125 312.704 794.765 311.968L795.405 312.704C794.653 313.6 793.485 314.08 792.157 314.08C789.533 314.08 787.741 312.288 787.741 309.792C787.741 307.296 789.485 305.52 791.853 305.52C794.221 305.52 795.933 307.264 795.933 309.792ZM791.853 306.496C790.221 306.496 789.021 307.648 788.877 309.296H794.845C794.701 307.648 793.501 306.496 791.853 306.496ZM814.88 305.584H816L811.792 315.008C811.088 316.656 810.192 317.184 808.992 317.184C808.208 317.184 807.456 316.928 806.944 316.416L807.472 315.568C807.888 315.984 808.4 316.208 809.008 316.208C809.76 316.208 810.272 315.856 810.752 314.8L811.12 313.984L807.36 305.584H808.544L811.712 312.736L814.88 305.584ZM820.805 314.08C818.341 314.08 816.517 312.288 816.517 309.792C816.517 307.296 818.341 305.52 820.805 305.52C823.269 305.52 825.077 307.296 825.077 309.792C825.077 312.288 823.269 314.08 820.805 314.08ZM820.805 313.072C822.597 313.072 823.925 311.76 823.925 309.792C823.925 307.824 822.597 306.512 820.805 306.512C819.013 306.512 817.669 307.824 817.669 309.792C817.669 311.76 819.013 313.072 820.805 313.072ZM833.845 305.584H834.981V314H833.892V312.464C833.301 313.488 832.213 314.08 830.869 314.08C828.725 314.08 827.317 312.88 827.317 310.464V305.584H828.453V310.352C828.453 312.144 829.381 313.056 830.981 313.056C832.741 313.056 833.845 311.92 833.845 310V305.584ZM839.25 307.232C839.778 306.112 840.85 305.52 842.402 305.52V306.624C842.306 306.624 842.21 306.608 842.13 306.608C840.37 306.608 839.298 307.728 839.298 309.712V314H838.162V305.584H839.25V307.232ZM548.92 327.52C551.32 327.52 553.112 329.248 553.112 331.792C553.112 334.336 551.32 336.08 548.92 336.08C547.528 336.08 546.36 335.472 545.672 334.336V336H544.584V324.128H545.72V329.184C546.424 328.096 547.576 327.52 548.92 327.52ZM548.84 335.072C550.616 335.072 551.976 333.76 551.976 331.792C551.976 329.824 550.616 328.512 548.84 328.512C547.048 328.512 545.704 329.824 545.704 331.792C545.704 333.76 547.048 335.072 548.84 335.072ZM561.876 327.584H563.012V336H561.924V334.464C561.332 335.488 560.244 336.08 558.9 336.08C556.756 336.08 555.348 334.88 555.348 332.464V327.584H556.484V332.352C556.484 334.144 557.412 335.056 559.012 335.056C560.772 335.056 561.876 333.92 561.876 332V327.584ZM568.449 336.08C567.057 336.08 565.713 335.632 565.025 335.04L565.537 334.144C566.209 334.672 567.345 335.088 568.529 335.088C570.129 335.088 570.785 334.544 570.785 333.712C570.785 331.52 565.329 333.248 565.329 329.92C565.329 328.544 566.513 327.52 568.657 327.52C569.745 327.52 570.929 327.824 571.633 328.304L571.137 329.216C570.401 328.704 569.521 328.496 568.657 328.496C567.137 328.496 566.465 329.088 566.465 329.888C566.465 332.16 571.921 330.448 571.921 333.68C571.921 335.136 570.641 336.08 568.449 336.08ZM574.598 325.744C574.134 325.744 573.766 325.376 573.766 324.928C573.766 324.496 574.134 324.128 574.598 324.128C575.062 324.128 575.43 324.48 575.43 324.912C575.43 325.376 575.078 325.744 574.598 325.744ZM574.022 336V327.584H575.158V336H574.022ZM582.606 327.52C584.654 327.52 586.062 328.704 586.062 331.12V336H584.926V331.232C584.926 329.456 583.998 328.544 582.398 328.544C580.59 328.544 579.454 329.664 579.454 331.584V336H578.318V327.584H579.406V329.136C580.014 328.112 581.15 327.52 582.606 327.52ZM596.522 331.792C596.522 331.888 596.506 332.016 596.506 332.144H589.466C589.594 333.904 590.938 335.072 592.778 335.072C593.802 335.072 594.714 334.704 595.354 333.968L595.994 334.704C595.242 335.6 594.074 336.08 592.746 336.08C590.122 336.08 588.33 334.288 588.33 331.792C588.33 329.296 590.074 327.52 592.442 327.52C594.81 327.52 596.522 329.264 596.522 331.792ZM592.442 328.496C590.81 328.496 589.61 329.648 589.466 331.296H595.434C595.29 329.648 594.09 328.496 592.442 328.496ZM601.09 336.08C599.698 336.08 598.354 335.632 597.666 335.04L598.178 334.144C598.85 334.672 599.986 335.088 601.17 335.088C602.77 335.088 603.426 334.544 603.426 333.712C603.426 331.52 597.97 333.248 597.97 329.92C597.97 328.544 599.154 327.52 601.298 327.52C602.386 327.52 603.57 327.824 604.274 328.304L603.778 329.216C603.042 328.704 602.162 328.496 601.298 328.496C599.778 328.496 599.106 329.088 599.106 329.888C599.106 332.16 604.562 330.448 604.562 333.68C604.562 335.136 603.282 336.08 601.09 336.08ZM608.918 336.08C607.526 336.08 606.182 335.632 605.494 335.04L606.006 334.144C606.678 334.672 607.814 335.088 608.998 335.088C610.598 335.088 611.254 334.544 611.254 333.712C611.254 331.52 605.798 333.248 605.798 329.92C605.798 328.544 606.982 327.52 609.126 327.52C610.214 327.52 611.398 327.824 612.102 328.304L611.606 329.216C610.87 328.704 609.99 328.496 609.126 328.496C607.606 328.496 606.934 329.088 606.934 329.888C606.934 332.16 612.39 330.448 612.39 333.68C612.39 335.136 611.11 336.08 608.918 336.08ZM621.462 325.008C620.486 325.008 619.974 325.552 619.974 326.592V327.584H622.566V328.544H620.006V336H618.87V328.544H617.366V327.584H618.87V326.544C618.87 325.04 619.766 324.048 621.414 324.048C622.038 324.048 622.678 324.224 623.094 324.576L622.71 325.424C622.39 325.152 621.942 325.008 621.462 325.008ZM627.399 336.08C624.935 336.08 623.111 334.288 623.111 331.792C623.111 329.296 624.935 327.52 627.399 327.52C629.863 327.52 631.671 329.296 631.671 331.792C631.671 334.288 629.863 336.08 627.399 336.08ZM627.399 335.072C629.191 335.072 630.519 333.76 630.519 331.792C630.519 329.824 629.191 328.512 627.399 328.512C625.607 328.512 624.263 329.824 624.263 331.792C624.263 333.76 625.607 335.072 627.399 335.072ZM635.078 329.232C635.606 328.112 636.678 327.52 638.23 327.52V328.624C638.134 328.624 638.038 328.608 637.958 328.608C636.198 328.608 635.126 329.728 635.126 331.712V336H633.99V327.584H635.078V329.232ZM651.959 327.584H652.999L649.815 336H648.743L646.087 329.104L643.431 336H642.359L639.191 327.584H640.279L642.919 334.736L645.623 327.584H646.599L649.287 334.736L651.959 327.584ZM657.403 327.52C659.579 327.52 660.811 328.608 660.811 330.784V336H659.723V334.688C659.211 335.552 658.219 336.08 656.827 336.08C654.923 336.08 653.755 335.088 653.755 333.632C653.755 332.336 654.587 331.248 657.003 331.248H659.675V330.736C659.675 329.296 658.859 328.512 657.291 328.512C656.203 328.512 655.179 328.896 654.491 329.504L653.979 328.656C654.827 327.936 656.075 327.52 657.403 327.52ZM657.003 335.184C658.283 335.184 659.227 334.576 659.675 333.472V332.096H657.035C655.403 332.096 654.875 332.736 654.875 333.6C654.875 334.576 655.659 335.184 657.003 335.184ZM664.985 329.232C665.513 328.112 666.585 327.52 668.137 327.52V328.624C668.041 328.624 667.945 328.608 667.865 328.608C666.105 328.608 665.033 329.728 665.033 331.712V336H663.897V327.584H664.985V329.232ZM676.659 324.128H677.795V336H676.707V334.336C676.019 335.472 674.851 336.08 673.459 336.08C671.059 336.08 669.267 334.336 669.267 331.792C669.267 329.248 671.059 327.52 673.459 327.52C674.803 327.52 675.955 328.096 676.659 329.184V324.128ZM673.555 335.072C675.331 335.072 676.675 333.76 676.675 331.792C676.675 329.824 675.331 328.512 673.555 328.512C671.763 328.512 670.419 329.824 670.419 331.792C670.419 333.76 671.763 335.072 673.555 335.072ZM681.071 336.08C680.607 336.08 680.223 335.696 680.223 335.2C680.223 334.704 680.607 334.336 681.071 334.336C681.535 334.336 681.935 334.704 681.935 335.2C681.935 335.696 681.535 336.08 681.071 336.08Z" fill="white"/>
<defs>
<linearGradient id="paint0_linear_929_33" x1="604.5" y1="-7.62939e-06" x2="797.673" y2="19.884" gradientUnits="userSpaceOnUse">
<stop stop-color="#70C0B2"/>
<stop offset="0.293999" stop-color="#0198B6"/>
<stop offset="0.817393" stop-color="#007289"/>
</linearGradient>
</defs>
</svg>
