<svg width="328" height="162" viewBox="0 0 328 162" fill="none" xmlns="http://www.w3.org/2000/svg">
<path d="M27.3547 87V75.8H32.2507C33.4667 75.8 34.5334 76.0347 35.4507 76.504C36.3681 76.9733 37.0827 77.624 37.5947 78.456C38.1067 79.288 38.3627 80.2693 38.3627 81.4C38.3627 82.52 38.1067 83.5013 37.5947 84.344C37.0827 85.176 36.3681 85.8267 35.4507 86.296C34.5334 86.7653 33.4667 87 32.2507 87H27.3547ZM29.4347 85.24H32.1547C32.9974 85.24 33.7227 85.08 34.3307 84.76C34.9494 84.44 35.4241 83.992 35.7547 83.416C36.0961 82.84 36.2667 82.168 36.2667 81.4C36.2667 80.6213 36.0961 79.9493 35.7547 79.384C35.4241 78.808 34.9494 78.36 34.3307 78.04C33.7227 77.72 32.9974 77.56 32.1547 77.56H29.4347V85.24ZM40.3815 87V78.456H42.3815V87H40.3815ZM41.3895 77.048C41.0162 77.048 40.7068 76.9307 40.4615 76.696C40.2268 76.4613 40.1095 76.1787 40.1095 75.848C40.1095 75.5067 40.2268 75.224 40.4615 75C40.7068 74.7653 41.0162 74.648 41.3895 74.648C41.7628 74.648 42.0668 74.76 42.3015 74.984C42.5468 75.1973 42.6695 75.4693 42.6695 75.8C42.6695 76.152 42.5522 76.4507 42.3175 76.696C42.0828 76.9307 41.7735 77.048 41.3895 77.048ZM47.6465 87.112C46.9318 87.112 46.2438 87.0213 45.5825 86.84C44.9318 86.648 44.4145 86.4187 44.0305 86.152L44.7985 84.632C45.1825 84.8773 45.6412 85.08 46.1745 85.24C46.7078 85.4 47.2412 85.48 47.7745 85.48C48.4038 85.48 48.8572 85.3947 49.1345 85.224C49.4225 85.0533 49.5665 84.824 49.5665 84.536C49.5665 84.3013 49.4705 84.1253 49.2785 84.008C49.0865 83.88 48.8358 83.784 48.5265 83.72C48.2172 83.656 47.8705 83.5973 47.4865 83.544C47.1132 83.4907 46.7345 83.4213 46.3505 83.336C45.9772 83.24 45.6358 83.1067 45.3265 82.936C45.0172 82.7547 44.7665 82.5147 44.5745 82.216C44.3825 81.9173 44.2865 81.5227 44.2865 81.032C44.2865 80.488 44.4412 80.0187 44.7505 79.624C45.0598 79.2187 45.4918 78.9093 46.0465 78.696C46.6118 78.472 47.2785 78.36 48.0465 78.36C48.6225 78.36 49.2038 78.424 49.7905 78.552C50.3772 78.68 50.8625 78.8613 51.2465 79.096L50.4785 80.616C50.0732 80.3707 49.6625 80.2053 49.2465 80.12C48.8412 80.024 48.4358 79.976 48.0305 79.976C47.4225 79.976 46.9692 80.0667 46.6705 80.248C46.3825 80.4293 46.2385 80.6587 46.2385 80.936C46.2385 81.192 46.3345 81.384 46.5265 81.512C46.7185 81.64 46.9692 81.7413 47.2785 81.816C47.5878 81.8907 47.9292 81.9547 48.3025 82.008C48.6865 82.0507 49.0652 82.12 49.4385 82.216C49.8118 82.312 50.1532 82.4453 50.4625 82.616C50.7825 82.776 51.0385 83.0053 51.2305 83.304C51.4225 83.6027 51.5185 83.992 51.5185 84.472C51.5185 85.0053 51.3585 85.4693 51.0385 85.864C50.7292 86.2587 50.2865 86.568 49.7105 86.792C49.1345 87.0053 48.4465 87.112 47.6465 87.112ZM57.1609 87.112C56.2649 87.112 55.4649 86.9253 54.7609 86.552C54.0675 86.168 53.5235 85.6453 53.1289 84.984C52.7342 84.3227 52.5369 83.5707 52.5369 82.728C52.5369 81.8747 52.7342 81.1227 53.1289 80.472C53.5235 79.8107 54.0675 79.2933 54.7609 78.92C55.4649 78.5467 56.2649 78.36 57.1609 78.36C57.9929 78.36 58.7235 78.5307 59.3529 78.872C59.9929 79.2027 60.4782 79.6933 60.8089 80.344L59.2729 81.24C59.0169 80.8347 58.7022 80.536 58.3289 80.344C57.9662 80.152 57.5715 80.056 57.1449 80.056C56.6542 80.056 56.2115 80.1627 55.8169 80.376C55.4222 80.5893 55.1129 80.8987 54.8889 81.304C54.6649 81.6987 54.5529 82.1733 54.5529 82.728C54.5529 83.2827 54.6649 83.7627 54.8889 84.168C55.1129 84.5627 55.4222 84.8667 55.8169 85.08C56.2115 85.2933 56.6542 85.4 57.1449 85.4C57.5715 85.4 57.9662 85.304 58.3289 85.112C58.7022 84.92 59.0169 84.6213 59.2729 84.216L60.8089 85.112C60.4782 85.752 59.9929 86.248 59.3529 86.6C58.7235 86.9413 57.9929 87.112 57.1609 87.112ZM66.2527 87.112C65.3781 87.112 64.5994 86.9253 63.9167 86.552C63.2341 86.168 62.6954 85.6453 62.3007 84.984C61.9061 84.3227 61.7087 83.5707 61.7087 82.728C61.7087 81.8747 61.9061 81.1227 62.3007 80.472C62.6954 79.8107 63.2341 79.2933 63.9167 78.92C64.5994 78.5467 65.3781 78.36 66.2527 78.36C67.1381 78.36 67.9221 78.5467 68.6047 78.92C69.2981 79.2933 69.8367 79.8053 70.2207 80.456C70.6154 81.1067 70.8127 81.864 70.8127 82.728C70.8127 83.5707 70.6154 84.3227 70.2207 84.984C69.8367 85.6453 69.2981 86.168 68.6047 86.552C67.9221 86.9253 67.1381 87.112 66.2527 87.112ZM66.2527 85.4C66.7434 85.4 67.1807 85.2933 67.5647 85.08C67.9487 84.8667 68.2474 84.5573 68.4607 84.152C68.6847 83.7467 68.7967 83.272 68.7967 82.728C68.7967 82.1733 68.6847 81.6987 68.4607 81.304C68.2474 80.8987 67.9487 80.5893 67.5647 80.376C67.1807 80.1627 66.7487 80.056 66.2687 80.056C65.7781 80.056 65.3407 80.1627 64.9567 80.376C64.5834 80.5893 64.2847 80.8987 64.0607 81.304C63.8367 81.6987 63.7247 82.1733 63.7247 82.728C63.7247 83.272 63.8367 83.7467 64.0607 84.152C64.2847 84.5573 64.5834 84.8667 64.9567 85.08C65.3407 85.2933 65.7727 85.4 66.2527 85.4ZM74.7629 87L71.0989 78.456H73.1789L76.3309 85.992H75.3069L78.5709 78.456H80.4909L76.8269 87H74.7629ZM85.5225 87.112C84.5732 87.112 83.7412 86.9253 83.0265 86.552C82.3225 86.168 81.7732 85.6453 81.3785 84.984C80.9945 84.3227 80.8025 83.5707 80.8025 82.728C80.8025 81.8747 80.9892 81.1227 81.3625 80.472C81.7465 79.8107 82.2692 79.2933 82.9305 78.92C83.6025 78.5467 84.3652 78.36 85.2185 78.36C86.0505 78.36 86.7918 78.5413 87.4425 78.904C88.0932 79.2667 88.6052 79.7787 88.9785 80.44C89.3518 81.1013 89.5385 81.88 89.5385 82.776C89.5385 82.8613 89.5332 82.9573 89.5225 83.064C89.5225 83.1707 89.5172 83.272 89.5065 83.368H82.3865V82.04H88.4505L87.6665 82.456C87.6772 81.9653 87.5758 81.5333 87.3625 81.16C87.1492 80.7867 86.8558 80.4933 86.4825 80.28C86.1198 80.0667 85.6985 79.96 85.2185 79.96C84.7278 79.96 84.2958 80.0667 83.9225 80.28C83.5598 80.4933 83.2718 80.792 83.0585 81.176C82.8558 81.5493 82.7545 81.992 82.7545 82.504V82.824C82.7545 83.336 82.8718 83.7893 83.1065 84.184C83.3412 84.5787 83.6718 84.8827 84.0985 85.096C84.5252 85.3093 85.0158 85.416 85.5705 85.416C86.0505 85.416 86.4825 85.3413 86.8665 85.192C87.2505 85.0427 87.5918 84.808 87.8905 84.488L88.9625 85.72C88.5785 86.168 88.0932 86.5147 87.5065 86.76C86.9305 86.9947 86.2692 87.112 85.5225 87.112ZM91.4596 87V78.456H93.3636V80.808L93.1396 80.12C93.3956 79.544 93.7956 79.1067 94.3396 78.808C94.8943 78.5093 95.5823 78.36 96.4036 78.36V80.264C96.3183 80.2427 96.2383 80.232 96.1636 80.232C96.0889 80.2213 96.0143 80.216 95.9396 80.216C95.1823 80.216 94.5796 80.44 94.1316 80.888C93.6836 81.3253 93.4596 81.9813 93.4596 82.856V87H91.4596Z" fill="#0198B5"/>
<path d="M115.315 81C115.315 110.146 91.1947 134 61.1576 134C31.1205 134 7 110.146 7 81C7 51.8544 31.1205 28 61.1576 28C91.1947 28 115.315 51.8544 115.315 81Z" stroke="url(#paint0_linear_937_62)" stroke-width="14"/>
<path d="M167.355 13.072C164.811 13.072 162.939 11.248 162.939 8.8C162.939 6.352 164.811 4.528 167.355 4.528C169.875 4.528 171.759 6.34 171.759 8.8C171.759 11.26 169.875 13.072 167.355 13.072ZM167.355 12.28C169.371 12.28 170.871 10.804 170.871 8.8C170.871 6.796 169.371 5.32 167.355 5.32C165.327 5.32 163.815 6.796 163.815 8.8C163.815 10.804 165.327 12.28 167.355 12.28ZM178.406 6.688H179.258V13H178.442V11.848C177.998 12.616 177.182 13.06 176.174 13.06C174.566 13.06 173.51 12.16 173.51 10.348V6.688H174.362V10.264C174.362 11.608 175.058 12.292 176.258 12.292C177.578 12.292 178.406 11.44 178.406 10V6.688ZM182.46 7.924C182.856 7.084 183.66 6.64 184.824 6.64V7.468C184.752 7.468 184.68 7.456 184.62 7.456C183.3 7.456 182.496 8.296 182.496 9.784V13H181.644V6.688H182.46V7.924ZM192.625 12.004L192.925 12.616C192.589 12.916 192.085 13.06 191.593 13.06C190.405 13.06 189.745 12.388 189.745 11.224V7.408H188.617V6.688H189.745V5.308H190.597V6.688H192.517V7.408H190.597V11.176C190.597 11.92 190.981 12.328 191.689 12.328C192.037 12.328 192.385 12.22 192.625 12.004ZM199.761 9.844C199.761 9.916 199.749 10.012 199.749 10.108H194.469C194.565 11.428 195.573 12.304 196.953 12.304C197.721 12.304 198.405 12.028 198.885 11.476L199.365 12.028C198.801 12.7 197.925 13.06 196.929 13.06C194.961 13.06 193.617 11.716 193.617 9.844C193.617 7.972 194.925 6.64 196.701 6.64C198.477 6.64 199.761 7.948 199.761 9.844ZM196.701 7.372C195.477 7.372 194.577 8.236 194.469 9.472H198.945C198.837 8.236 197.937 7.372 196.701 7.372ZM203.528 6.64C205.16 6.64 206.084 7.456 206.084 9.088V13H205.268V12.016C204.884 12.664 204.14 13.06 203.096 13.06C201.668 13.06 200.792 12.316 200.792 11.224C200.792 10.252 201.416 9.436 203.228 9.436H205.232V9.052C205.232 7.972 204.62 7.384 203.444 7.384C202.628 7.384 201.86 7.672 201.344 8.128L200.96 7.492C201.596 6.952 202.532 6.64 203.528 6.64ZM203.228 12.388C204.188 12.388 204.896 11.932 205.232 11.104V10.072H203.252C202.028 10.072 201.632 10.552 201.632 11.2C201.632 11.932 202.22 12.388 203.228 12.388ZM216.27 6.64C217.806 6.64 218.814 7.528 218.814 9.34V13H217.962V9.424C217.962 8.092 217.29 7.408 216.15 7.408C214.854 7.408 214.038 8.248 214.038 9.688V13H213.186V9.424C213.186 8.092 212.514 7.408 211.362 7.408C210.078 7.408 209.25 8.248 209.25 9.688V13H208.398V6.688H209.214V7.84C209.658 7.084 210.474 6.64 211.53 6.64C212.574 6.64 213.39 7.084 213.774 7.972C214.23 7.156 215.13 6.64 216.27 6.64ZM226.881 13.06C224.997 13.06 223.629 11.728 223.629 9.844C223.629 7.96 224.997 6.64 226.881 6.64C227.949 6.64 228.849 7.06 229.353 7.888L228.717 8.32C228.285 7.684 227.613 7.384 226.881 7.384C225.501 7.384 224.493 8.368 224.493 9.844C224.493 11.332 225.501 12.304 226.881 12.304C227.613 12.304 228.285 12.016 228.717 11.38L229.353 11.812C228.849 12.628 227.949 13.06 226.881 13.06ZM233.501 13.06C231.653 13.06 230.285 11.716 230.285 9.844C230.285 7.972 231.653 6.64 233.501 6.64C235.349 6.64 236.705 7.972 236.705 9.844C236.705 11.716 235.349 13.06 233.501 13.06ZM233.501 12.304C234.845 12.304 235.841 11.32 235.841 9.844C235.841 8.368 234.845 7.384 233.501 7.384C232.157 7.384 231.149 8.368 231.149 9.844C231.149 11.32 232.157 12.304 233.501 12.304ZM238.445 13V4.096H239.297V13H238.445ZM241.667 13V4.096H242.519V13H241.667ZM247.098 6.64C248.73 6.64 249.654 7.456 249.654 9.088V13H248.838V12.016C248.454 12.664 247.71 13.06 246.666 13.06C245.238 13.06 244.362 12.316 244.362 11.224C244.362 10.252 244.986 9.436 246.798 9.436H248.802V9.052C248.802 7.972 248.19 7.384 247.014 7.384C246.198 7.384 245.43 7.672 244.914 8.128L244.53 7.492C245.166 6.952 246.102 6.64 247.098 6.64ZM246.798 12.388C247.758 12.388 248.466 11.932 248.802 11.104V10.072H246.822C245.598 10.072 245.202 10.552 245.202 11.2C245.202 11.932 245.79 12.388 246.798 12.388ZM255.22 6.64C257.02 6.64 258.364 7.936 258.364 9.844C258.364 11.752 257.02 13.06 255.22 13.06C254.176 13.06 253.3 12.604 252.784 11.752V13H251.968V4.096H252.82V7.888C253.348 7.072 254.212 6.64 255.22 6.64ZM255.16 12.304C256.492 12.304 257.512 11.32 257.512 9.844C257.512 8.368 256.492 7.384 255.16 7.384C253.816 7.384 252.808 8.368 252.808 9.844C252.808 11.32 253.816 12.304 255.16 12.304ZM262.681 13.06C260.833 13.06 259.465 11.716 259.465 9.844C259.465 7.972 260.833 6.64 262.681 6.64C264.529 6.64 265.885 7.972 265.885 9.844C265.885 11.716 264.529 13.06 262.681 13.06ZM262.681 12.304C264.025 12.304 265.021 11.32 265.021 9.844C265.021 8.368 264.025 7.384 262.681 7.384C261.337 7.384 260.329 8.368 260.329 9.844C260.329 11.32 261.337 12.304 262.681 12.304ZM268.441 7.924C268.837 7.084 269.641 6.64 270.805 6.64V7.468C270.733 7.468 270.661 7.456 270.601 7.456C269.281 7.456 268.477 8.296 268.477 9.784V13H267.625V6.688H268.441V7.924ZM274.543 6.64C276.175 6.64 277.099 7.456 277.099 9.088V13H276.283V12.016C275.899 12.664 275.155 13.06 274.111 13.06C272.683 13.06 271.807 12.316 271.807 11.224C271.807 10.252 272.431 9.436 274.243 9.436H276.247V9.052C276.247 7.972 275.635 7.384 274.459 7.384C273.643 7.384 272.875 7.672 272.359 8.128L271.975 7.492C272.611 6.952 273.547 6.64 274.543 6.64ZM274.243 12.388C275.203 12.388 275.911 11.932 276.247 11.104V10.072H274.267C273.043 10.072 272.647 10.552 272.647 11.2C272.647 11.932 273.235 12.388 274.243 12.388ZM282.438 12.004L282.738 12.616C282.402 12.916 281.898 13.06 281.406 13.06C280.218 13.06 279.558 12.388 279.558 11.224V7.408H278.43V6.688H279.558V5.308H280.41V6.688H282.33V7.408H280.41V11.176C280.41 11.92 280.794 12.328 281.502 12.328C281.85 12.328 282.198 12.22 282.438 12.004ZM289.574 9.844C289.574 9.916 289.562 10.012 289.562 10.108H284.282C284.378 11.428 285.386 12.304 286.766 12.304C287.534 12.304 288.218 12.028 288.698 11.476L289.178 12.028C288.614 12.7 287.738 13.06 286.742 13.06C284.774 13.06 283.43 11.716 283.43 9.844C283.43 7.972 284.738 6.64 286.514 6.64C288.29 6.64 289.574 7.948 289.574 9.844ZM286.514 7.372C285.29 7.372 284.39 8.236 284.282 9.472H288.758C288.65 8.236 287.75 7.372 286.514 7.372ZM293 13.06C291.956 13.06 290.948 12.724 290.432 12.28L290.816 11.608C291.32 12.004 292.172 12.316 293.06 12.316C294.26 12.316 294.752 11.908 294.752 11.284C294.752 9.64 290.66 10.936 290.66 8.44C290.66 7.408 291.548 6.64 293.156 6.64C293.972 6.64 294.86 6.868 295.388 7.228L295.016 7.912C294.464 7.528 293.804 7.372 293.156 7.372C292.016 7.372 291.512 7.816 291.512 8.416C291.512 10.12 295.604 8.836 295.604 11.26C295.604 12.352 294.644 13.06 293 13.06ZM166.119 31.06C164.235 31.06 162.867 29.728 162.867 27.844C162.867 25.96 164.235 24.64 166.119 24.64C167.187 24.64 168.087 25.06 168.591 25.888L167.955 26.32C167.523 25.684 166.851 25.384 166.119 25.384C164.739 25.384 163.731 26.368 163.731 27.844C163.731 29.332 164.739 30.304 166.119 30.304C166.851 30.304 167.523 30.016 167.955 29.38L168.591 29.812C168.087 30.628 167.187 31.06 166.119 31.06ZM170.171 31V22.096H171.023V31H170.171ZM175.974 31.06C174.126 31.06 172.758 29.716 172.758 27.844C172.758 25.972 174.126 24.64 175.974 24.64C177.822 24.64 179.178 25.972 179.178 27.844C179.178 29.716 177.822 31.06 175.974 31.06ZM175.974 30.304C177.318 30.304 178.314 29.32 178.314 27.844C178.314 26.368 177.318 25.384 175.974 25.384C174.63 25.384 173.622 26.368 173.622 27.844C173.622 29.32 174.63 30.304 175.974 30.304ZM182.609 31.06C181.565 31.06 180.557 30.724 180.041 30.28L180.425 29.608C180.929 30.004 181.781 30.316 182.669 30.316C183.869 30.316 184.361 29.908 184.361 29.284C184.361 27.64 180.269 28.936 180.269 26.44C180.269 25.408 181.157 24.64 182.765 24.64C183.581 24.64 184.469 24.868 184.997 25.228L184.625 25.912C184.073 25.528 183.413 25.372 182.765 25.372C181.625 25.372 181.121 25.816 181.121 26.416C181.121 28.12 185.213 26.836 185.213 29.26C185.213 30.352 184.253 31.06 182.609 31.06ZM192.297 27.844C192.297 27.916 192.285 28.012 192.285 28.108H187.005C187.101 29.428 188.109 30.304 189.489 30.304C190.257 30.304 190.941 30.028 191.421 29.476L191.901 30.028C191.337 30.7 190.461 31.06 189.465 31.06C187.497 31.06 186.153 29.716 186.153 27.844C186.153 25.972 187.461 24.64 189.237 24.64C191.013 24.64 192.297 25.948 192.297 27.844ZM189.237 25.372C188.013 25.372 187.113 26.236 187.005 27.472H191.481C191.373 26.236 190.473 25.372 189.237 25.372ZM194.031 31V22.096H194.883V31H194.031ZM201.717 24.688H202.557L199.401 31.756C198.873 32.992 198.201 33.388 197.301 33.388C196.713 33.388 196.149 33.196 195.765 32.812L196.161 32.176C196.473 32.488 196.857 32.656 197.313 32.656C197.877 32.656 198.261 32.392 198.621 31.6L198.897 30.988L196.077 24.688H196.965L199.341 30.052L201.717 24.688ZM215.382 24.688H216.162L213.774 31H212.97L210.978 25.828L208.986 31H208.182L205.806 24.688H206.622L208.602 30.052L210.63 24.688H211.362L213.378 30.052L215.382 24.688ZM217.877 23.308C217.529 23.308 217.253 23.032 217.253 22.696C217.253 22.372 217.529 22.096 217.877 22.096C218.225 22.096 218.501 22.36 218.501 22.684C218.501 23.032 218.237 23.308 217.877 23.308ZM217.445 31V24.688H218.297V31H217.445ZM223.691 30.004L223.991 30.616C223.655 30.916 223.151 31.06 222.659 31.06C221.471 31.06 220.811 30.388 220.811 29.224V25.408H219.683V24.688H220.811V23.308H221.663V24.688H223.583V25.408H221.663V29.176C221.663 29.92 222.047 30.328 222.755 30.328C223.103 30.328 223.451 30.22 223.691 30.004ZM228.758 24.64C230.294 24.64 231.35 25.528 231.35 27.34V31H230.498V27.424C230.498 26.092 229.802 25.408 228.602 25.408C227.246 25.408 226.394 26.248 226.394 27.688V31H225.542V22.096H226.394V25.792C226.862 25.06 227.69 24.64 228.758 24.64ZM241.268 24.688H242.108L238.952 31.756C238.424 32.992 237.752 33.388 236.852 33.388C236.264 33.388 235.7 33.196 235.316 32.812L235.712 32.176C236.024 32.488 236.408 32.656 236.864 32.656C237.428 32.656 237.812 32.392 238.172 31.6L238.448 30.988L235.628 24.688H236.516L238.892 30.052L241.268 24.688ZM245.712 31.06C243.864 31.06 242.496 29.716 242.496 27.844C242.496 25.972 243.864 24.64 245.712 24.64C247.56 24.64 248.916 25.972 248.916 27.844C248.916 29.716 247.56 31.06 245.712 31.06ZM245.712 30.304C247.056 30.304 248.052 29.32 248.052 27.844C248.052 26.368 247.056 25.384 245.712 25.384C244.368 25.384 243.36 26.368 243.36 27.844C243.36 29.32 244.368 30.304 245.712 30.304ZM255.492 24.688H256.344V31H255.528V29.848C255.084 30.616 254.268 31.06 253.26 31.06C251.652 31.06 250.596 30.16 250.596 28.348V24.688H251.448V28.264C251.448 29.608 252.144 30.292 253.344 30.292C254.664 30.292 255.492 29.44 255.492 28V24.688ZM258.826 29.752C259.198 29.752 259.462 30.04 259.462 30.4C259.462 30.604 259.414 30.76 259.294 31.096L258.79 32.752H258.214L258.622 31.012C258.37 30.94 258.19 30.712 258.19 30.4C258.19 30.028 258.466 29.752 258.826 29.752ZM266.622 24.64C268.254 24.64 269.178 25.456 269.178 27.088V31H268.362V30.016C267.978 30.664 267.234 31.06 266.19 31.06C264.762 31.06 263.886 30.316 263.886 29.224C263.886 28.252 264.51 27.436 266.322 27.436H268.326V27.052C268.326 25.972 267.714 25.384 266.538 25.384C265.722 25.384 264.954 25.672 264.438 26.128L264.054 25.492C264.69 24.952 265.626 24.64 266.622 24.64ZM266.322 30.388C267.282 30.388 267.99 29.932 268.326 29.104V28.072H266.346C265.122 28.072 264.726 28.552 264.726 29.2C264.726 29.932 265.314 30.388 266.322 30.388ZM274.131 31.06C272.247 31.06 270.879 29.728 270.879 27.844C270.879 25.96 272.247 24.64 274.131 24.64C275.199 24.64 276.099 25.06 276.603 25.888L275.967 26.32C275.535 25.684 274.863 25.384 274.131 25.384C272.751 25.384 271.743 26.368 271.743 27.844C271.743 29.332 272.751 30.304 274.131 30.304C274.863 30.304 275.535 30.016 275.967 29.38L276.603 29.812C276.099 30.628 275.199 31.06 274.131 31.06ZM281.371 30.004L281.671 30.616C281.335 30.916 280.831 31.06 280.339 31.06C279.151 31.06 278.491 30.388 278.491 29.224V25.408H277.363V24.688H278.491V23.308H279.343V24.688H281.263V25.408H279.343V29.176C279.343 29.92 279.727 30.328 280.435 30.328C280.783 30.328 281.131 30.22 281.371 30.004ZM283.654 23.308C283.306 23.308 283.03 23.032 283.03 22.696C283.03 22.372 283.306 22.096 283.654 22.096C284.002 22.096 284.278 22.36 284.278 22.684C284.278 23.032 284.014 23.308 283.654 23.308ZM283.222 31V24.688H284.074V31H283.222ZM290.909 24.688H291.749L288.941 31H288.065L285.269 24.688H286.157L288.521 30.064L290.909 24.688ZM298.281 27.844C298.281 27.916 298.269 28.012 298.269 28.108H292.989C293.085 29.428 294.093 30.304 295.473 30.304C296.241 30.304 296.925 30.028 297.405 29.476L297.885 30.028C297.321 30.7 296.445 31.06 295.449 31.06C293.481 31.06 292.137 29.716 292.137 27.844C292.137 25.972 293.445 24.64 295.221 24.64C296.997 24.64 298.281 25.948 298.281 27.844ZM295.221 25.372C293.997 25.372 293.097 26.236 292.989 27.472H297.465C297.357 26.236 296.457 25.372 295.221 25.372ZM300.015 31V22.096H300.867V31H300.015ZM307.702 24.688H308.542L305.386 31.756C304.858 32.992 304.186 33.388 303.286 33.388C302.698 33.388 302.134 33.196 301.75 32.812L302.146 32.176C302.458 32.488 302.842 32.656 303.298 32.656C303.862 32.656 304.246 32.392 304.606 31.6L304.882 30.988L302.062 24.688H302.95L305.326 30.052L307.702 24.688ZM163.179 49V40.096H165.051V49H163.179ZM166.789 49V42.544H168.661V49H166.789ZM167.725 41.644C167.381 41.644 167.101 41.544 166.885 41.344C166.669 41.144 166.561 40.896 166.561 40.6C166.561 40.304 166.669 40.056 166.885 39.856C167.101 39.656 167.381 39.556 167.725 39.556C168.069 39.556 168.349 39.652 168.565 39.844C168.781 40.028 168.889 40.268 168.889 40.564C168.889 40.876 168.781 41.136 168.565 41.344C168.357 41.544 168.077 41.644 167.725 41.644ZM172.57 49.096C172.018 49.096 171.486 49.032 170.974 48.904C170.47 48.768 170.07 48.6 169.774 48.4L170.398 47.056C170.694 47.24 171.042 47.392 171.442 47.512C171.85 47.624 172.25 47.68 172.642 47.68C173.074 47.68 173.378 47.628 173.554 47.524C173.738 47.42 173.83 47.276 173.83 47.092C173.83 46.94 173.758 46.828 173.614 46.756C173.478 46.676 173.294 46.616 173.062 46.576C172.83 46.536 172.574 46.496 172.294 46.456C172.022 46.416 171.746 46.364 171.466 46.3C171.186 46.228 170.93 46.124 170.698 45.988C170.466 45.852 170.278 45.668 170.134 45.436C169.998 45.204 169.93 44.904 169.93 44.536C169.93 44.128 170.046 43.768 170.278 43.456C170.518 43.144 170.862 42.9 171.31 42.724C171.758 42.54 172.294 42.448 172.918 42.448C173.358 42.448 173.806 42.496 174.262 42.592C174.718 42.688 175.098 42.828 175.402 43.012L174.778 44.344C174.466 44.16 174.15 44.036 173.83 43.972C173.518 43.9 173.214 43.864 172.918 43.864C172.502 43.864 172.198 43.92 172.006 44.032C171.814 44.144 171.718 44.288 171.718 44.464C171.718 44.624 171.786 44.744 171.922 44.824C172.066 44.904 172.254 44.968 172.486 45.016C172.718 45.064 172.97 45.108 173.242 45.148C173.522 45.18 173.802 45.232 174.082 45.304C174.362 45.376 174.614 45.48 174.838 45.616C175.07 45.744 175.258 45.924 175.402 46.156C175.546 46.38 175.618 46.676 175.618 47.044C175.618 47.444 175.498 47.8 175.258 48.112C175.018 48.416 174.67 48.656 174.214 48.832C173.766 49.008 173.218 49.096 172.57 49.096ZM179.413 49.096C178.653 49.096 178.061 48.904 177.637 48.52C177.213 48.128 177.001 47.548 177.001 46.78V41.116H178.873V46.756C178.873 47.028 178.945 47.24 179.089 47.392C179.233 47.536 179.429 47.608 179.677 47.608C179.973 47.608 180.225 47.528 180.433 47.368L180.937 48.688C180.745 48.824 180.513 48.928 180.241 49C179.977 49.064 179.701 49.096 179.413 49.096ZM176.005 44.128V42.688H180.481V44.128H176.005ZM184.993 49.096C184.257 49.096 183.609 48.952 183.049 48.664C182.497 48.376 182.069 47.984 181.765 47.488C181.461 46.984 181.309 46.412 181.309 45.772C181.309 45.124 181.457 44.552 181.753 44.056C182.057 43.552 182.469 43.16 182.989 42.88C183.509 42.592 184.097 42.448 184.753 42.448C185.385 42.448 185.953 42.584 186.457 42.856C186.969 43.12 187.373 43.504 187.669 44.008C187.965 44.504 188.113 45.1 188.113 45.796C188.113 45.868 188.109 45.952 188.101 46.048C188.093 46.136 188.085 46.22 188.077 46.3H182.833V45.208H187.093L186.373 45.532C186.373 45.196 186.305 44.904 186.169 44.656C186.033 44.408 185.845 44.216 185.605 44.08C185.365 43.936 185.085 43.864 184.765 43.864C184.445 43.864 184.161 43.936 183.913 44.08C183.673 44.216 183.485 44.412 183.349 44.668C183.213 44.916 183.145 45.212 183.145 45.556V45.844C183.145 46.196 183.221 46.508 183.373 46.78C183.533 47.044 183.753 47.248 184.033 47.392C184.321 47.528 184.657 47.596 185.041 47.596C185.385 47.596 185.685 47.544 185.941 47.44C186.205 47.336 186.445 47.18 186.661 46.972L187.657 48.052C187.361 48.388 186.989 48.648 186.541 48.832C186.093 49.008 185.577 49.096 184.993 49.096ZM193.283 42.448C193.795 42.448 194.251 42.552 194.651 42.76C195.059 42.96 195.379 43.272 195.611 43.696C195.843 44.112 195.959 44.648 195.959 45.304V49H194.087V45.592C194.087 45.072 193.971 44.688 193.739 44.44C193.515 44.192 193.195 44.068 192.779 44.068C192.483 44.068 192.215 44.132 191.975 44.26C191.743 44.38 191.559 44.568 191.423 44.824C191.295 45.08 191.231 45.408 191.231 45.808V49H189.359V42.544H191.147V44.332L190.811 43.792C191.043 43.36 191.375 43.028 191.807 42.796C192.239 42.564 192.731 42.448 193.283 42.448ZM197.656 49V42.544H199.528V49H197.656ZM198.592 41.644C198.248 41.644 197.968 41.544 197.752 41.344C197.536 41.144 197.428 40.896 197.428 40.6C197.428 40.304 197.536 40.056 197.752 39.856C197.968 39.656 198.248 39.556 198.592 39.556C198.936 39.556 199.216 39.652 199.432 39.844C199.648 40.028 199.756 40.268 199.756 40.564C199.756 40.876 199.648 41.136 199.432 41.344C199.224 41.544 198.944 41.644 198.592 41.644ZM205.189 42.448C205.701 42.448 206.157 42.552 206.557 42.76C206.965 42.96 207.285 43.272 207.517 43.696C207.749 44.112 207.865 44.648 207.865 45.304V49H205.993V45.592C205.993 45.072 205.877 44.688 205.645 44.44C205.421 44.192 205.101 44.068 204.685 44.068C204.389 44.068 204.121 44.132 203.881 44.26C203.649 44.38 203.465 44.568 203.329 44.824C203.201 45.08 203.137 45.408 203.137 45.808V49H201.265V42.544H203.053V44.332L202.717 43.792C202.949 43.36 203.281 43.028 203.713 42.796C204.145 42.564 204.637 42.448 205.189 42.448ZM212.645 51.424C212.037 51.424 211.449 51.348 210.881 51.196C210.321 51.052 209.853 50.832 209.477 50.536L210.221 49.192C210.493 49.416 210.837 49.592 211.253 49.72C211.677 49.856 212.093 49.924 212.501 49.924C213.165 49.924 213.645 49.776 213.941 49.48C214.245 49.184 214.397 48.744 214.397 48.16V47.188L214.517 45.568L214.493 43.936V42.544H216.269V47.92C216.269 49.12 215.957 50.004 215.333 50.572C214.709 51.14 213.813 51.424 212.645 51.424ZM212.357 48.688C211.757 48.688 211.213 48.56 210.725 48.304C210.245 48.04 209.857 47.676 209.561 47.212C209.273 46.74 209.129 46.192 209.129 45.568C209.129 44.936 209.273 44.388 209.561 43.924C209.857 43.452 210.245 43.088 210.725 42.832C211.213 42.576 211.757 42.448 212.357 42.448C212.901 42.448 213.381 42.56 213.797 42.784C214.213 43 214.537 43.34 214.769 43.804C215.001 44.26 215.117 44.848 215.117 45.568C215.117 46.28 215.001 46.868 214.769 47.332C214.537 47.788 214.213 48.128 213.797 48.352C213.381 48.576 212.901 48.688 212.357 48.688ZM212.729 47.152C213.057 47.152 213.349 47.088 213.605 46.96C213.861 46.824 214.061 46.636 214.205 46.396C214.349 46.156 214.421 45.88 214.421 45.568C214.421 45.248 214.349 44.972 214.205 44.74C214.061 44.5 213.861 44.316 213.605 44.188C213.349 44.052 213.057 43.984 212.729 43.984C212.401 43.984 212.109 44.052 211.853 44.188C211.597 44.316 211.393 44.5 211.241 44.74C211.097 44.972 211.025 45.248 211.025 45.568C211.025 45.88 211.097 46.156 211.241 46.396C211.393 46.636 211.597 46.824 211.853 46.96C212.109 47.088 212.401 47.152 212.729 47.152ZM224.05 49.096C223.29 49.096 222.698 48.904 222.274 48.52C221.85 48.128 221.638 47.548 221.638 46.78V41.116H223.51V46.756C223.51 47.028 223.582 47.24 223.726 47.392C223.87 47.536 224.066 47.608 224.314 47.608C224.61 47.608 224.862 47.528 225.07 47.368L225.574 48.688C225.382 48.824 225.15 48.928 224.878 49C224.614 49.064 224.338 49.096 224.05 49.096ZM220.642 44.128V42.688H225.118V44.128H220.642ZM229.498 49.096C228.81 49.096 228.198 48.952 227.662 48.664C227.134 48.376 226.714 47.984 226.402 47.488C226.098 46.984 225.946 46.412 225.946 45.772C225.946 45.124 226.098 44.552 226.402 44.056C226.714 43.552 227.134 43.16 227.662 42.88C228.198 42.592 228.81 42.448 229.498 42.448C230.178 42.448 230.786 42.592 231.322 42.88C231.858 43.16 232.278 43.548 232.582 44.044C232.886 44.54 233.038 45.116 233.038 45.772C233.038 46.412 232.886 46.984 232.582 47.488C232.278 47.984 231.858 48.376 231.322 48.664C230.786 48.952 230.178 49.096 229.498 49.096ZM229.498 47.56C229.81 47.56 230.09 47.488 230.338 47.344C230.586 47.2 230.782 46.996 230.926 46.732C231.07 46.46 231.142 46.14 231.142 45.772C231.142 45.396 231.07 45.076 230.926 44.812C230.782 44.548 230.586 44.344 230.338 44.2C230.09 44.056 229.81 43.984 229.498 43.984C229.186 43.984 228.906 44.056 228.658 44.2C228.41 44.344 228.21 44.548 228.058 44.812C227.914 45.076 227.842 45.396 227.842 45.772C227.842 46.14 227.914 46.46 228.058 46.732C228.21 46.996 228.41 47.2 228.658 47.344C228.906 47.488 229.186 47.56 229.498 47.56ZM240.723 51.424C240.115 51.424 239.527 51.348 238.959 51.196C238.399 51.052 237.931 50.832 237.555 50.536L238.299 49.192C238.571 49.416 238.915 49.592 239.331 49.72C239.755 49.856 240.171 49.924 240.579 49.924C241.243 49.924 241.723 49.776 242.019 49.48C242.323 49.184 242.475 48.744 242.475 48.16V47.188L242.595 45.568L242.571 43.936V42.544H244.347V47.92C244.347 49.12 244.035 50.004 243.411 50.572C242.787 51.14 241.891 51.424 240.723 51.424ZM240.435 48.688C239.835 48.688 239.291 48.56 238.803 48.304C238.323 48.04 237.935 47.676 237.639 47.212C237.351 46.74 237.207 46.192 237.207 45.568C237.207 44.936 237.351 44.388 237.639 43.924C237.935 43.452 238.323 43.088 238.803 42.832C239.291 42.576 239.835 42.448 240.435 42.448C240.979 42.448 241.459 42.56 241.875 42.784C242.291 43 242.615 43.34 242.847 43.804C243.079 44.26 243.195 44.848 243.195 45.568C243.195 46.28 243.079 46.868 242.847 47.332C242.615 47.788 242.291 48.128 241.875 48.352C241.459 48.576 240.979 48.688 240.435 48.688ZM240.807 47.152C241.135 47.152 241.427 47.088 241.683 46.96C241.939 46.824 242.139 46.636 242.283 46.396C242.427 46.156 242.499 45.88 242.499 45.568C242.499 45.248 242.427 44.972 242.283 44.74C242.139 44.5 241.939 44.316 241.683 44.188C241.427 44.052 241.135 43.984 240.807 43.984C240.479 43.984 240.187 44.052 239.931 44.188C239.675 44.316 239.471 44.5 239.319 44.74C239.175 44.972 239.103 45.248 239.103 45.568C239.103 45.88 239.175 46.156 239.319 46.396C239.471 46.636 239.675 46.824 239.931 46.96C240.187 47.088 240.479 47.152 240.807 47.152ZM250.05 49V47.74L249.93 47.464V45.208C249.93 44.808 249.806 44.496 249.558 44.272C249.318 44.048 248.946 43.936 248.442 43.936C248.098 43.936 247.758 43.992 247.422 44.104C247.094 44.208 246.814 44.352 246.582 44.536L245.91 43.228C246.262 42.98 246.686 42.788 247.182 42.652C247.678 42.516 248.182 42.448 248.694 42.448C249.678 42.448 250.442 42.68 250.986 43.144C251.53 43.608 251.802 44.332 251.802 45.316V49H250.05ZM248.082 49.096C247.578 49.096 247.146 49.012 246.786 48.844C246.426 48.668 246.15 48.432 245.958 48.136C245.766 47.84 245.67 47.508 245.67 47.14C245.67 46.756 245.762 46.42 245.946 46.132C246.138 45.844 246.438 45.62 246.846 45.46C247.254 45.292 247.786 45.208 248.442 45.208H250.158V46.3H248.646C248.206 46.3 247.902 46.372 247.734 46.516C247.574 46.66 247.494 46.84 247.494 47.056C247.494 47.296 247.586 47.488 247.77 47.632C247.962 47.768 248.222 47.836 248.55 47.836C248.862 47.836 249.142 47.764 249.39 47.62C249.638 47.468 249.818 47.248 249.93 46.96L250.218 47.824C250.082 48.24 249.834 48.556 249.474 48.772C249.114 48.988 248.65 49.096 248.082 49.096ZM253.496 49V42.544H255.368V49H253.496ZM254.432 41.644C254.088 41.644 253.808 41.544 253.592 41.344C253.376 41.144 253.268 40.896 253.268 40.6C253.268 40.304 253.376 40.056 253.592 39.856C253.808 39.656 254.088 39.556 254.432 39.556C254.776 39.556 255.056 39.652 255.272 39.844C255.488 40.028 255.596 40.268 255.596 40.564C255.596 40.876 255.488 41.136 255.272 41.344C255.064 41.544 254.784 41.644 254.432 41.644ZM261.029 42.448C261.541 42.448 261.997 42.552 262.397 42.76C262.805 42.96 263.125 43.272 263.357 43.696C263.589 44.112 263.705 44.648 263.705 45.304V49H261.833V45.592C261.833 45.072 261.717 44.688 261.485 44.44C261.261 44.192 260.941 44.068 260.525 44.068C260.229 44.068 259.961 44.132 259.721 44.26C259.489 44.38 259.305 44.568 259.169 44.824C259.041 45.08 258.977 45.408 258.977 45.808V49H257.105V42.544H258.893V44.332L258.557 43.792C258.789 43.36 259.121 43.028 259.553 42.796C259.985 42.564 260.477 42.448 261.029 42.448ZM271.573 49.096C270.965 49.096 270.417 48.96 269.929 48.688C269.441 48.408 269.053 48.02 268.765 47.524C268.485 47.028 268.345 46.444 268.345 45.772C268.345 45.092 268.485 44.504 268.765 44.008C269.053 43.512 269.441 43.128 269.929 42.856C270.417 42.584 270.965 42.448 271.573 42.448C272.117 42.448 272.593 42.568 273.001 42.808C273.409 43.048 273.725 43.412 273.949 43.9C274.173 44.388 274.285 45.012 274.285 45.772C274.285 46.524 274.177 47.148 273.961 47.644C273.745 48.132 273.433 48.496 273.025 48.736C272.625 48.976 272.141 49.096 271.573 49.096ZM271.897 47.56C272.201 47.56 272.477 47.488 272.725 47.344C272.973 47.2 273.169 46.996 273.313 46.732C273.465 46.46 273.541 46.14 273.541 45.772C273.541 45.396 273.465 45.076 273.313 44.812C273.169 44.548 272.973 44.344 272.725 44.2C272.477 44.056 272.201 43.984 271.897 43.984C271.585 43.984 271.305 44.056 271.057 44.2C270.809 44.344 270.609 44.548 270.457 44.812C270.313 45.076 270.241 45.396 270.241 45.772C270.241 46.14 270.313 46.46 270.457 46.732C270.609 46.996 270.809 47.2 271.057 47.344C271.305 47.488 271.585 47.56 271.897 47.56ZM273.589 49V47.68L273.625 45.76L273.505 43.852V40.096H275.377V49H273.589ZM280.313 49.096C279.577 49.096 278.929 48.952 278.369 48.664C277.817 48.376 277.389 47.984 277.085 47.488C276.781 46.984 276.629 46.412 276.629 45.772C276.629 45.124 276.777 44.552 277.073 44.056C277.377 43.552 277.789 43.16 278.309 42.88C278.829 42.592 279.417 42.448 280.073 42.448C280.705 42.448 281.273 42.584 281.777 42.856C282.289 43.12 282.693 43.504 282.989 44.008C283.285 44.504 283.433 45.1 283.433 45.796C283.433 45.868 283.429 45.952 283.421 46.048C283.413 46.136 283.405 46.22 283.397 46.3H278.153V45.208H282.413L281.693 45.532C281.693 45.196 281.625 44.904 281.489 44.656C281.353 44.408 281.165 44.216 280.925 44.08C280.685 43.936 280.405 43.864 280.085 43.864C279.765 43.864 279.481 43.936 279.233 44.08C278.993 44.216 278.805 44.412 278.669 44.668C278.533 44.916 278.465 45.212 278.465 45.556V45.844C278.465 46.196 278.541 46.508 278.693 46.78C278.853 47.044 279.073 47.248 279.353 47.392C279.641 47.528 279.977 47.596 280.361 47.596C280.705 47.596 281.005 47.544 281.261 47.44C281.525 47.336 281.765 47.18 281.981 46.972L282.977 48.052C282.681 48.388 282.309 48.648 281.861 48.832C281.413 49.008 280.897 49.096 280.313 49.096ZM287.883 49.096C287.147 49.096 286.499 48.952 285.939 48.664C285.387 48.376 284.959 47.984 284.655 47.488C284.351 46.984 284.199 46.412 284.199 45.772C284.199 45.124 284.347 44.552 284.643 44.056C284.947 43.552 285.359 43.16 285.879 42.88C286.399 42.592 286.987 42.448 287.643 42.448C288.275 42.448 288.843 42.584 289.347 42.856C289.859 43.12 290.263 43.504 290.559 44.008C290.855 44.504 291.003 45.1 291.003 45.796C291.003 45.868 290.999 45.952 290.991 46.048C290.983 46.136 290.975 46.22 290.967 46.3H285.723V45.208H289.983L289.263 45.532C289.263 45.196 289.195 44.904 289.059 44.656C288.923 44.408 288.735 44.216 288.495 44.08C288.255 43.936 287.975 43.864 287.655 43.864C287.335 43.864 287.051 43.936 286.803 44.08C286.563 44.216 286.375 44.412 286.239 44.668C286.103 44.916 286.035 45.212 286.035 45.556V45.844C286.035 46.196 286.111 46.508 286.263 46.78C286.423 47.044 286.643 47.248 286.923 47.392C287.211 47.528 287.547 47.596 287.931 47.596C288.275 47.596 288.575 47.544 288.831 47.44C289.095 47.336 289.335 47.18 289.551 46.972L290.547 48.052C290.251 48.388 289.879 48.648 289.431 48.832C288.983 49.008 288.467 49.096 287.883 49.096ZM296.066 49.096C295.522 49.096 295.046 48.976 294.638 48.736C294.23 48.496 293.91 48.132 293.678 47.644C293.454 47.148 293.342 46.524 293.342 45.772C293.342 45.012 293.45 44.388 293.666 43.9C293.882 43.412 294.194 43.048 294.602 42.808C295.01 42.568 295.498 42.448 296.066 42.448C296.674 42.448 297.218 42.588 297.698 42.868C298.186 43.14 298.57 43.524 298.85 44.02C299.138 44.516 299.282 45.1 299.282 45.772C299.282 46.452 299.138 47.04 298.85 47.536C298.57 48.032 298.186 48.416 297.698 48.688C297.218 48.96 296.674 49.096 296.066 49.096ZM292.25 51.328V42.544H294.038V43.864L294.002 45.784L294.122 47.692V51.328H292.25ZM295.742 47.56C296.054 47.56 296.33 47.488 296.57 47.344C296.818 47.2 297.014 46.996 297.158 46.732C297.31 46.46 297.386 46.14 297.386 45.772C297.386 45.396 297.31 45.076 297.158 44.812C297.014 44.548 296.818 44.344 296.57 44.2C296.33 44.056 296.054 43.984 295.742 43.984C295.43 43.984 295.15 44.056 294.902 44.2C294.654 44.344 294.458 44.548 294.314 44.812C294.17 45.076 294.098 45.396 294.098 45.772C294.098 46.14 294.17 46.46 294.314 46.732C294.458 46.996 294.654 47.2 294.902 47.344C295.15 47.488 295.43 47.56 295.742 47.56ZM163.179 67V60.544H165.051V67H163.179ZM164.115 59.644C163.771 59.644 163.491 59.544 163.275 59.344C163.059 59.144 162.951 58.896 162.951 58.6C162.951 58.304 163.059 58.056 163.275 57.856C163.491 57.656 163.771 57.556 164.115 57.556C164.459 57.556 164.739 57.652 164.955 57.844C165.171 58.028 165.279 58.268 165.279 58.564C165.279 58.876 165.171 59.136 164.955 59.344C164.747 59.544 164.467 59.644 164.115 59.644ZM170.713 60.448C171.225 60.448 171.681 60.552 172.081 60.76C172.489 60.96 172.809 61.272 173.041 61.696C173.273 62.112 173.389 62.648 173.389 63.304V67H171.517V63.592C171.517 63.072 171.401 62.688 171.169 62.44C170.945 62.192 170.625 62.068 170.209 62.068C169.913 62.068 169.645 62.132 169.405 62.26C169.173 62.38 168.989 62.568 168.853 62.824C168.725 63.08 168.661 63.408 168.661 63.808V67H166.789V60.544H168.577V62.332L168.241 61.792C168.473 61.36 168.805 61.028 169.237 60.796C169.669 60.564 170.161 60.448 170.713 60.448ZM177.258 67.096C176.706 67.096 176.174 67.032 175.662 66.904C175.158 66.768 174.758 66.6 174.462 66.4L175.086 65.056C175.382 65.24 175.73 65.392 176.13 65.512C176.538 65.624 176.938 65.68 177.33 65.68C177.762 65.68 178.066 65.628 178.242 65.524C178.426 65.42 178.518 65.276 178.518 65.092C178.518 64.94 178.446 64.828 178.302 64.756C178.166 64.676 177.982 64.616 177.75 64.576C177.518 64.536 177.262 64.496 176.982 64.456C176.71 64.416 176.434 64.364 176.154 64.3C175.874 64.228 175.618 64.124 175.386 63.988C175.154 63.852 174.966 63.668 174.822 63.436C174.686 63.204 174.618 62.904 174.618 62.536C174.618 62.128 174.734 61.768 174.966 61.456C175.206 61.144 175.55 60.9 175.998 60.724C176.446 60.54 176.982 60.448 177.606 60.448C178.046 60.448 178.494 60.496 178.95 60.592C179.406 60.688 179.786 60.828 180.09 61.012L179.466 62.344C179.154 62.16 178.838 62.036 178.518 61.972C178.206 61.9 177.902 61.864 177.606 61.864C177.19 61.864 176.886 61.92 176.694 62.032C176.502 62.144 176.406 62.288 176.406 62.464C176.406 62.624 176.474 62.744 176.61 62.824C176.754 62.904 176.942 62.968 177.174 63.016C177.406 63.064 177.658 63.108 177.93 63.148C178.21 63.18 178.49 63.232 178.77 63.304C179.05 63.376 179.302 63.48 179.526 63.616C179.758 63.744 179.946 63.924 180.09 64.156C180.234 64.38 180.306 64.676 180.306 65.044C180.306 65.444 180.186 65.8 179.946 66.112C179.706 66.416 179.358 66.656 178.902 66.832C178.454 67.008 177.906 67.096 177.258 67.096ZM181.461 67V60.544H183.333V67H181.461ZM182.397 59.644C182.053 59.644 181.773 59.544 181.557 59.344C181.341 59.144 181.233 58.896 181.233 58.6C181.233 58.304 181.341 58.056 181.557 57.856C181.773 57.656 182.053 57.556 182.397 57.556C182.741 57.556 183.021 57.652 183.237 57.844C183.453 58.028 183.561 58.268 183.561 58.564C183.561 58.876 183.453 59.136 183.237 59.344C183.029 59.544 182.749 59.644 182.397 59.644ZM188.106 69.424C187.498 69.424 186.91 69.348 186.342 69.196C185.782 69.052 185.314 68.832 184.938 68.536L185.682 67.192C185.954 67.416 186.298 67.592 186.714 67.72C187.138 67.856 187.554 67.924 187.962 67.924C188.626 67.924 189.106 67.776 189.402 67.48C189.706 67.184 189.858 66.744 189.858 66.16V65.188L189.978 63.568L189.954 61.936V60.544H191.73V65.92C191.73 67.12 191.418 68.004 190.794 68.572C190.17 69.14 189.274 69.424 188.106 69.424ZM187.818 66.688C187.218 66.688 186.674 66.56 186.186 66.304C185.706 66.04 185.318 65.676 185.022 65.212C184.734 64.74 184.59 64.192 184.59 63.568C184.59 62.936 184.734 62.388 185.022 61.924C185.318 61.452 185.706 61.088 186.186 60.832C186.674 60.576 187.218 60.448 187.818 60.448C188.362 60.448 188.842 60.56 189.258 60.784C189.674 61 189.998 61.34 190.23 61.804C190.462 62.26 190.578 62.848 190.578 63.568C190.578 64.28 190.462 64.868 190.23 65.332C189.998 65.788 189.674 66.128 189.258 66.352C188.842 66.576 188.362 66.688 187.818 66.688ZM188.19 65.152C188.518 65.152 188.81 65.088 189.066 64.96C189.322 64.824 189.522 64.636 189.666 64.396C189.81 64.156 189.882 63.88 189.882 63.568C189.882 63.248 189.81 62.972 189.666 62.74C189.522 62.5 189.322 62.316 189.066 62.188C188.81 62.052 188.518 61.984 188.19 61.984C187.862 61.984 187.57 62.052 187.314 62.188C187.058 62.316 186.854 62.5 186.702 62.74C186.558 62.972 186.486 63.248 186.486 63.568C186.486 63.88 186.558 64.156 186.702 64.396C186.854 64.636 187.058 64.824 187.314 64.96C187.57 65.088 187.862 65.152 188.19 65.152ZM197.396 60.448C197.908 60.448 198.364 60.552 198.764 60.76C199.172 60.96 199.492 61.272 199.724 61.696C199.956 62.112 200.072 62.648 200.072 63.304V67H198.2V63.592C198.2 63.072 198.084 62.688 197.852 62.44C197.628 62.192 197.308 62.068 196.892 62.068C196.596 62.068 196.328 62.132 196.088 62.26C195.856 62.38 195.672 62.568 195.536 62.824C195.408 63.08 195.344 63.408 195.344 63.808V67H193.472V58.096H195.344V62.332L194.924 61.792C195.156 61.36 195.488 61.028 195.92 60.796C196.352 60.564 196.844 60.448 197.396 60.448ZM204.409 67.096C203.649 67.096 203.057 66.904 202.633 66.52C202.209 66.128 201.997 65.548 201.997 64.78V59.116H203.869V64.756C203.869 65.028 203.941 65.24 204.085 65.392C204.229 65.536 204.425 65.608 204.673 65.608C204.969 65.608 205.221 65.528 205.429 65.368L205.933 66.688C205.741 66.824 205.509 66.928 205.237 67C204.973 67.064 204.697 67.096 204.409 67.096ZM201.001 62.128V60.688H205.477V62.128H201.001ZM209.156 67.096C208.604 67.096 208.072 67.032 207.56 66.904C207.056 66.768 206.656 66.6 206.36 66.4L206.984 65.056C207.28 65.24 207.628 65.392 208.028 65.512C208.436 65.624 208.836 65.68 209.228 65.68C209.66 65.68 209.964 65.628 210.14 65.524C210.324 65.42 210.416 65.276 210.416 65.092C210.416 64.94 210.344 64.828 210.2 64.756C210.064 64.676 209.88 64.616 209.648 64.576C209.416 64.536 209.16 64.496 208.88 64.456C208.608 64.416 208.332 64.364 208.052 64.3C207.772 64.228 207.516 64.124 207.284 63.988C207.052 63.852 206.864 63.668 206.72 63.436C206.584 63.204 206.516 62.904 206.516 62.536C206.516 62.128 206.632 61.768 206.864 61.456C207.104 61.144 207.448 60.9 207.896 60.724C208.344 60.54 208.88 60.448 209.504 60.448C209.944 60.448 210.392 60.496 210.848 60.592C211.304 60.688 211.684 60.828 211.988 61.012L211.364 62.344C211.052 62.16 210.736 62.036 210.416 61.972C210.104 61.9 209.8 61.864 209.504 61.864C209.088 61.864 208.784 61.92 208.592 62.032C208.4 62.144 208.304 62.288 208.304 62.464C208.304 62.624 208.372 62.744 208.508 62.824C208.652 62.904 208.84 62.968 209.072 63.016C209.304 63.064 209.556 63.108 209.828 63.148C210.108 63.18 210.388 63.232 210.668 63.304C210.948 63.376 211.2 63.48 211.424 63.616C211.656 63.744 211.844 63.924 211.988 64.156C212.132 64.38 212.204 64.676 212.204 65.044C212.204 65.444 212.084 65.8 211.844 66.112C211.604 66.416 211.256 66.656 210.8 66.832C210.352 67.008 209.804 67.096 209.156 67.096ZM219.032 60.64C220.664 60.64 221.588 61.456 221.588 63.088V67H220.772V66.016C220.388 66.664 219.644 67.06 218.6 67.06C217.172 67.06 216.296 66.316 216.296 65.224C216.296 64.252 216.92 63.436 218.732 63.436H220.736V63.052C220.736 61.972 220.124 61.384 218.948 61.384C218.132 61.384 217.364 61.672 216.848 62.128L216.464 61.492C217.1 60.952 218.036 60.64 219.032 60.64ZM218.732 66.388C219.692 66.388 220.4 65.932 220.736 65.104V64.072H218.756C217.532 64.072 217.136 64.552 217.136 65.2C217.136 65.932 217.724 66.388 218.732 66.388ZM227.118 60.64C228.654 60.64 229.71 61.528 229.71 63.34V67H228.858V63.424C228.858 62.092 228.162 61.408 226.962 61.408C225.606 61.408 224.754 62.248 224.754 63.688V67H223.902V60.688H224.718V61.852C225.174 61.084 226.026 60.64 227.118 60.64ZM236.954 58.096H237.806V67H236.99V65.752C236.474 66.604 235.598 67.06 234.554 67.06C232.754 67.06 231.41 65.752 231.41 63.844C231.41 61.936 232.754 60.64 234.554 60.64C235.562 60.64 236.426 61.072 236.954 61.888V58.096ZM234.626 66.304C235.958 66.304 236.966 65.32 236.966 63.844C236.966 62.368 235.958 61.384 234.626 61.384C233.282 61.384 232.274 62.368 232.274 63.844C232.274 65.32 233.282 66.304 234.626 66.304ZM245.528 60.64C247.16 60.64 248.084 61.456 248.084 63.088V67H247.268V66.016C246.884 66.664 246.14 67.06 245.096 67.06C243.668 67.06 242.792 66.316 242.792 65.224C242.792 64.252 243.416 63.436 245.228 63.436H247.232V63.052C247.232 61.972 246.62 61.384 245.444 61.384C244.628 61.384 243.86 61.672 243.344 62.128L242.96 61.492C243.596 60.952 244.532 60.64 245.528 60.64ZM245.228 66.388C246.188 66.388 246.896 65.932 247.232 65.104V64.072H245.252C244.028 64.072 243.632 64.552 243.632 65.2C243.632 65.932 244.22 66.388 245.228 66.388ZM256.155 67.06C254.271 67.06 252.903 65.728 252.903 63.844C252.903 61.96 254.271 60.64 256.155 60.64C257.223 60.64 258.123 61.06 258.627 61.888L257.991 62.32C257.559 61.684 256.887 61.384 256.155 61.384C254.775 61.384 253.767 62.368 253.767 63.844C253.767 65.332 254.775 66.304 256.155 66.304C256.887 66.304 257.559 66.016 257.991 65.38L258.627 65.812C258.123 66.628 257.223 67.06 256.155 67.06ZM260.207 67V58.096H261.059V67H260.207ZM268.937 63.844C268.937 63.916 268.925 64.012 268.925 64.108H263.645C263.741 65.428 264.749 66.304 266.129 66.304C266.897 66.304 267.581 66.028 268.061 65.476L268.541 66.028C267.977 66.7 267.101 67.06 266.105 67.06C264.137 67.06 262.793 65.716 262.793 63.844C262.793 61.972 264.101 60.64 265.877 60.64C267.653 60.64 268.937 61.948 268.937 63.844ZM265.877 61.372C264.653 61.372 263.753 62.236 263.645 63.472H268.121C268.013 62.236 267.113 61.372 265.877 61.372ZM272.704 60.64C274.336 60.64 275.26 61.456 275.26 63.088V67H274.444V66.016C274.06 66.664 273.316 67.06 272.272 67.06C270.844 67.06 269.968 66.316 269.968 65.224C269.968 64.252 270.592 63.436 272.404 63.436H274.408V63.052C274.408 61.972 273.796 61.384 272.62 61.384C271.804 61.384 271.036 61.672 270.52 62.128L270.136 61.492C270.772 60.952 271.708 60.64 272.704 60.64ZM272.404 66.388C273.364 66.388 274.072 65.932 274.408 65.104V64.072H272.428C271.204 64.072 270.808 64.552 270.808 65.2C270.808 65.932 271.396 66.388 272.404 66.388ZM278.39 61.924C278.786 61.084 279.59 60.64 280.754 60.64V61.468C280.682 61.468 280.61 61.456 280.55 61.456C279.23 61.456 278.426 62.296 278.426 63.784V67H277.574V60.688H278.39V61.924ZM168.339 78.688H169.191V85H168.375V83.848C167.931 84.616 167.115 85.06 166.107 85.06C164.499 85.06 163.443 84.16 163.443 82.348V78.688H164.295V82.264C164.295 83.608 164.991 84.292 166.191 84.292C167.511 84.292 168.339 83.44 168.339 82V78.688ZM174.794 78.64C176.33 78.64 177.386 79.528 177.386 81.34V85H176.534V81.424C176.534 80.092 175.838 79.408 174.638 79.408C173.282 79.408 172.43 80.248 172.43 81.688V85H171.578V78.688H172.394V79.852C172.85 79.084 173.702 78.64 174.794 78.64ZM184.63 76.096H185.482V85H184.666V83.752C184.15 84.604 183.274 85.06 182.23 85.06C180.43 85.06 179.086 83.752 179.086 81.844C179.086 79.936 180.43 78.64 182.23 78.64C183.238 78.64 184.102 79.072 184.63 79.888V76.096ZM182.302 84.304C183.634 84.304 184.642 83.32 184.642 81.844C184.642 80.368 183.634 79.384 182.302 79.384C180.958 79.384 179.95 80.368 179.95 81.844C179.95 83.32 180.958 84.304 182.302 84.304ZM193.363 81.844C193.363 81.916 193.351 82.012 193.351 82.108H188.071C188.167 83.428 189.175 84.304 190.555 84.304C191.323 84.304 192.007 84.028 192.487 83.476L192.967 84.028C192.403 84.7 191.527 85.06 190.531 85.06C188.563 85.06 187.219 83.716 187.219 81.844C187.219 79.972 188.527 78.64 190.303 78.64C192.079 78.64 193.363 79.948 193.363 81.844ZM190.303 79.372C189.079 79.372 188.179 80.236 188.071 81.472H192.547C192.439 80.236 191.539 79.372 190.303 79.372ZM195.913 79.924C196.309 79.084 197.113 78.64 198.277 78.64V79.468C198.205 79.468 198.133 79.456 198.073 79.456C196.753 79.456 195.949 80.296 195.949 81.784V85H195.097V78.688H195.913V79.924ZM201.559 85.06C200.515 85.06 199.507 84.724 198.991 84.28L199.375 83.608C199.879 84.004 200.731 84.316 201.619 84.316C202.819 84.316 203.311 83.908 203.311 83.284C203.311 81.64 199.219 82.936 199.219 80.44C199.219 79.408 200.107 78.64 201.715 78.64C202.531 78.64 203.419 78.868 203.947 79.228L203.575 79.912C203.023 79.528 202.363 79.372 201.715 79.372C200.575 79.372 200.071 79.816 200.071 80.416C200.071 82.12 204.163 80.836 204.163 83.26C204.163 84.352 203.203 85.06 201.559 85.06ZM208.762 84.004L209.062 84.616C208.726 84.916 208.222 85.06 207.73 85.06C206.542 85.06 205.882 84.388 205.882 83.224V79.408H204.754V78.688H205.882V77.308H206.734V78.688H208.654V79.408H206.734V83.176C206.734 83.92 207.118 84.328 207.826 84.328C208.174 84.328 208.522 84.22 208.762 84.004ZM212.821 78.64C214.453 78.64 215.377 79.456 215.377 81.088V85H214.561V84.016C214.177 84.664 213.433 85.06 212.389 85.06C210.961 85.06 210.085 84.316 210.085 83.224C210.085 82.252 210.709 81.436 212.521 81.436H214.525V81.052C214.525 79.972 213.913 79.384 212.737 79.384C211.921 79.384 211.153 79.672 210.637 80.128L210.253 79.492C210.889 78.952 211.825 78.64 212.821 78.64ZM212.521 84.388C213.481 84.388 214.189 83.932 214.525 83.104V82.072H212.545C211.321 82.072 210.925 82.552 210.925 83.2C210.925 83.932 211.513 84.388 212.521 84.388ZM220.907 78.64C222.443 78.64 223.499 79.528 223.499 81.34V85H222.647V81.424C222.647 80.092 221.951 79.408 220.751 79.408C219.395 79.408 218.543 80.248 218.543 81.688V85H217.691V78.688H218.507V79.852C218.963 79.084 219.815 78.64 220.907 78.64ZM230.743 76.096H231.595V85H230.779V83.752C230.263 84.604 229.387 85.06 228.343 85.06C226.543 85.06 225.199 83.752 225.199 81.844C225.199 79.936 226.543 78.64 228.343 78.64C229.351 78.64 230.215 79.072 230.743 79.888V76.096ZM228.415 84.304C229.747 84.304 230.755 83.32 230.755 81.844C230.755 80.368 229.747 79.384 228.415 79.384C227.071 79.384 226.063 80.368 226.063 81.844C226.063 83.32 227.071 84.304 228.415 84.304ZM234.4 77.308C234.052 77.308 233.776 77.032 233.776 76.696C233.776 76.372 234.052 76.096 234.4 76.096C234.748 76.096 235.024 76.36 235.024 76.684C235.024 77.032 234.76 77.308 234.4 77.308ZM233.968 85V78.688H234.82V85H233.968ZM240.407 78.64C241.943 78.64 242.999 79.528 242.999 81.34V85H242.147V81.424C242.147 80.092 241.451 79.408 240.251 79.408C238.895 79.408 238.043 80.248 238.043 81.688V85H237.191V78.688H238.007V79.852C238.463 79.084 239.315 78.64 240.407 78.64ZM250.363 78.688H251.179V84.232C251.179 86.404 250.111 87.388 248.023 87.388C246.871 87.388 245.743 87.04 245.083 86.416L245.515 85.768C246.115 86.308 247.027 86.632 247.999 86.632C249.595 86.632 250.327 85.9 250.327 84.34V83.536C249.799 84.34 248.899 84.76 247.867 84.76C246.067 84.76 244.699 83.5 244.699 81.688C244.699 79.876 246.067 78.64 247.867 78.64C248.923 78.64 249.835 79.072 250.363 79.9V78.688ZM247.951 84.004C249.343 84.004 250.351 83.056 250.351 81.688C250.351 80.32 249.343 79.384 247.951 79.384C246.559 79.384 245.563 80.32 245.563 81.688C245.563 83.056 246.559 84.004 247.951 84.004ZM258.911 78.64C260.543 78.64 261.467 79.456 261.467 81.088V85H260.651V84.016C260.267 84.664 259.523 85.06 258.479 85.06C257.051 85.06 256.175 84.316 256.175 83.224C256.175 82.252 256.799 81.436 258.611 81.436H260.615V81.052C260.615 79.972 260.003 79.384 258.827 79.384C258.011 79.384 257.243 79.672 256.727 80.128L256.343 79.492C256.979 78.952 257.915 78.64 258.911 78.64ZM258.611 84.388C259.571 84.388 260.279 83.932 260.615 83.104V82.072H258.635C257.411 82.072 257.015 82.552 257.015 83.2C257.015 83.932 257.603 84.388 258.611 84.388ZM267.033 78.64C268.833 78.64 270.177 79.936 270.177 81.844C270.177 83.752 268.833 85.06 267.033 85.06C265.989 85.06 265.113 84.604 264.597 83.752V85H263.781V76.096H264.633V79.888C265.161 79.072 266.025 78.64 267.033 78.64ZM266.973 84.304C268.305 84.304 269.325 83.32 269.325 81.844C269.325 80.368 268.305 79.384 266.973 79.384C265.629 79.384 264.621 80.368 264.621 81.844C264.621 83.32 265.629 84.304 266.973 84.304ZM274.494 85.06C272.646 85.06 271.278 83.716 271.278 81.844C271.278 79.972 272.646 78.64 274.494 78.64C276.342 78.64 277.698 79.972 277.698 81.844C277.698 83.716 276.342 85.06 274.494 85.06ZM274.494 84.304C275.838 84.304 276.834 83.32 276.834 81.844C276.834 80.368 275.838 79.384 274.494 79.384C273.15 79.384 272.142 80.368 272.142 81.844C272.142 83.32 273.15 84.304 274.494 84.304ZM284.273 78.688H285.125V85H284.309V83.848C283.865 84.616 283.049 85.06 282.041 85.06C280.433 85.06 279.377 84.16 279.377 82.348V78.688H280.229V82.264C280.229 83.608 280.925 84.292 282.125 84.292C283.445 84.292 284.273 83.44 284.273 82V78.688ZM290.535 84.004L290.835 84.616C290.499 84.916 289.995 85.06 289.503 85.06C288.315 85.06 287.655 84.388 287.655 83.224V79.408H286.527V78.688H287.655V77.308H288.507V78.688H290.427V79.408H288.507V83.176C288.507 83.92 288.891 84.328 289.599 84.328C289.947 84.328 290.295 84.22 290.535 84.004ZM299.991 78.688H300.831L297.675 85.756C297.147 86.992 296.475 87.388 295.575 87.388C294.987 87.388 294.423 87.196 294.039 86.812L294.435 86.176C294.747 86.488 295.131 86.656 295.587 86.656C296.151 86.656 296.535 86.392 296.895 85.6L297.171 84.988L294.351 78.688H295.239L297.615 84.052L299.991 78.688ZM304.435 85.06C302.587 85.06 301.219 83.716 301.219 81.844C301.219 79.972 302.587 78.64 304.435 78.64C306.283 78.64 307.639 79.972 307.639 81.844C307.639 83.716 306.283 85.06 304.435 85.06ZM304.435 84.304C305.779 84.304 306.775 83.32 306.775 81.844C306.775 80.368 305.779 79.384 304.435 79.384C303.091 79.384 302.083 80.368 302.083 81.844C302.083 83.32 303.091 84.304 304.435 84.304ZM314.214 78.688H315.066V85H314.25V83.848C313.806 84.616 312.99 85.06 311.982 85.06C310.374 85.06 309.318 84.16 309.318 82.348V78.688H310.17V82.264C310.17 83.608 310.866 84.292 312.066 84.292C313.386 84.292 314.214 83.44 314.214 82V78.688ZM318.269 79.924C318.665 79.084 319.469 78.64 320.633 78.64V79.468C320.561 79.468 320.489 79.456 320.429 79.456C319.109 79.456 318.305 80.296 318.305 81.784V85H317.453V78.688H318.269V79.924ZM165.195 103.06C164.151 103.06 163.143 102.724 162.627 102.28L163.011 101.608C163.515 102.004 164.367 102.316 165.255 102.316C166.455 102.316 166.947 101.908 166.947 101.284C166.947 99.64 162.855 100.936 162.855 98.44C162.855 97.408 163.743 96.64 165.351 96.64C166.167 96.64 167.055 96.868 167.583 97.228L167.211 97.912C166.659 97.528 165.999 97.372 165.351 97.372C164.211 97.372 163.707 97.816 163.707 98.416C163.707 100.12 167.799 98.836 167.799 101.26C167.799 102.352 166.839 103.06 165.195 103.06ZM172.627 96.64C174.427 96.64 175.771 97.936 175.771 99.844C175.771 101.764 174.427 103.06 172.627 103.06C171.619 103.06 170.755 102.628 170.227 101.812V105.328H169.375V96.688H170.191V97.936C170.707 97.096 171.583 96.64 172.627 96.64ZM172.567 102.304C173.899 102.304 174.919 101.32 174.919 99.844C174.919 98.38 173.899 97.384 172.567 97.384C171.223 97.384 170.215 98.38 170.215 99.844C170.215 101.32 171.223 102.304 172.567 102.304ZM183.015 99.844C183.015 99.916 183.003 100.012 183.003 100.108H177.723C177.819 101.428 178.827 102.304 180.207 102.304C180.975 102.304 181.659 102.028 182.139 101.476L182.619 102.028C182.055 102.7 181.179 103.06 180.183 103.06C178.215 103.06 176.871 101.716 176.871 99.844C176.871 97.972 178.179 96.64 179.955 96.64C181.731 96.64 183.015 97.948 183.015 99.844ZM179.955 97.372C178.731 97.372 177.831 98.236 177.723 99.472H182.199C182.091 98.236 181.191 97.372 179.955 97.372ZM187.366 103.06C185.482 103.06 184.114 101.728 184.114 99.844C184.114 97.96 185.482 96.64 187.366 96.64C188.434 96.64 189.334 97.06 189.838 97.888L189.202 98.32C188.77 97.684 188.098 97.384 187.366 97.384C185.986 97.384 184.978 98.368 184.978 99.844C184.978 101.332 185.986 102.304 187.366 102.304C188.098 102.304 188.77 102.016 189.202 101.38L189.838 101.812C189.334 102.628 188.434 103.06 187.366 103.06ZM191.943 95.308C191.595 95.308 191.319 95.032 191.319 94.696C191.319 94.372 191.595 94.096 191.943 94.096C192.291 94.096 192.567 94.36 192.567 94.684C192.567 95.032 192.303 95.308 191.943 95.308ZM191.511 103V96.688H192.363V103H191.511ZM194.878 95.908C194.878 94.78 195.55 94.036 196.786 94.036C197.254 94.036 197.734 94.168 198.046 94.432L197.758 95.068C197.518 94.864 197.182 94.756 196.822 94.756C196.09 94.756 195.706 95.164 195.706 95.944V96.688H197.65V97.408H195.73V103H194.878V97.408H193.75V96.688H194.878V95.908ZM200.194 94.096C200.542 94.096 200.818 94.36 200.818 94.684C200.818 95.032 200.554 95.308 200.194 95.308C199.846 95.308 199.57 95.032 199.57 94.696C199.57 94.372 199.846 94.096 200.194 94.096ZM199.762 103V96.688H200.614V103H199.762ZM205.612 103.06C203.728 103.06 202.36 101.728 202.36 99.844C202.36 97.96 203.728 96.64 205.612 96.64C206.68 96.64 207.58 97.06 208.084 97.888L207.448 98.32C207.016 97.684 206.344 97.384 205.612 97.384C204.232 97.384 203.224 98.368 203.224 99.844C203.224 101.332 204.232 102.304 205.612 102.304C206.344 102.304 207.016 102.016 207.448 101.38L208.084 101.812C207.58 102.628 206.68 103.06 205.612 103.06ZM216.114 96.64C217.65 96.64 218.706 97.528 218.706 99.34V103H217.854V99.424C217.854 98.092 217.158 97.408 215.958 97.408C214.602 97.408 213.75 98.248 213.75 99.688V103H212.898V94.096H213.75V97.792C214.218 97.06 215.046 96.64 216.114 96.64ZM221.451 95.308C221.103 95.308 220.827 95.032 220.827 94.696C220.827 94.372 221.103 94.096 221.451 94.096C221.799 94.096 222.075 94.36 222.075 94.684C222.075 95.032 221.811 95.308 221.451 95.308ZM221.019 103V96.688H221.871V103H221.019ZM225.058 97.924C225.454 97.084 226.258 96.64 227.422 96.64V97.468C227.35 97.468 227.278 97.456 227.218 97.456C225.898 97.456 225.094 98.296 225.094 99.784V103H224.242V96.688H225.058V97.924ZM229.396 95.308C229.048 95.308 228.772 95.032 228.772 94.696C228.772 94.372 229.048 94.096 229.396 94.096C229.744 94.096 230.02 94.36 230.02 94.684C230.02 95.032 229.756 95.308 229.396 95.308ZM228.964 103V96.688H229.816V103H228.964ZM235.403 96.64C236.939 96.64 237.995 97.528 237.995 99.34V103H237.143V99.424C237.143 98.092 236.447 97.408 235.247 97.408C233.891 97.408 233.039 98.248 233.039 99.688V103H232.187V96.688H233.003V97.852C233.459 97.084 234.311 96.64 235.403 96.64ZM245.36 96.688H246.176V102.232C246.176 104.404 245.108 105.388 243.02 105.388C241.868 105.388 240.74 105.04 240.08 104.416L240.512 103.768C241.112 104.308 242.024 104.632 242.996 104.632C244.592 104.632 245.324 103.9 245.324 102.34V101.536C244.796 102.34 243.896 102.76 242.864 102.76C241.064 102.76 239.696 101.5 239.696 99.688C239.696 97.876 241.064 96.64 242.864 96.64C243.92 96.64 244.832 97.072 245.36 97.9V96.688ZM242.948 102.004C244.34 102.004 245.348 101.056 245.348 99.688C245.348 98.32 244.34 97.384 242.948 97.384C241.556 97.384 240.56 98.32 240.56 99.688C240.56 101.056 241.556 102.004 242.948 102.004ZM164.319 115.924C164.715 115.084 165.519 114.64 166.683 114.64V115.468C166.611 115.468 166.539 115.456 166.479 115.456C165.159 115.456 164.355 116.296 164.355 117.784V121H163.503V114.688H164.319V115.924ZM173.675 117.844C173.675 117.916 173.663 118.012 173.663 118.108H168.383C168.479 119.428 169.487 120.304 170.867 120.304C171.635 120.304 172.319 120.028 172.799 119.476L173.279 120.028C172.715 120.7 171.839 121.06 170.843 121.06C168.875 121.06 167.531 119.716 167.531 117.844C167.531 115.972 168.839 114.64 170.615 114.64C172.391 114.64 173.675 115.948 173.675 117.844ZM170.615 115.372C169.391 115.372 168.491 116.236 168.383 117.472H172.859C172.751 116.236 171.851 115.372 170.615 115.372ZM180.354 114.688H181.17V123.328H180.318V119.812C179.79 120.628 178.926 121.06 177.918 121.06C176.118 121.06 174.774 119.764 174.774 117.844C174.774 115.936 176.118 114.64 177.918 114.64C178.962 114.64 179.838 115.096 180.354 115.936V114.688ZM177.99 120.304C179.322 120.304 180.33 119.32 180.33 117.844C180.33 116.38 179.322 115.384 177.99 115.384C176.646 115.384 175.638 116.38 175.638 117.844C175.638 119.32 176.646 120.304 177.99 120.304ZM188.378 114.688H189.23V121H188.414V119.848C187.97 120.616 187.154 121.06 186.146 121.06C184.538 121.06 183.482 120.16 183.482 118.348V114.688H184.334V118.264C184.334 119.608 185.03 120.292 186.23 120.292C187.55 120.292 188.378 119.44 188.378 118V114.688ZM192.049 113.308C191.701 113.308 191.425 113.032 191.425 112.696C191.425 112.372 191.701 112.096 192.049 112.096C192.397 112.096 192.673 112.36 192.673 112.684C192.673 113.032 192.409 113.308 192.049 113.308ZM191.617 121V114.688H192.469V121H191.617ZM195.655 115.924C196.051 115.084 196.855 114.64 198.019 114.64V115.468C197.947 115.468 197.875 115.456 197.815 115.456C196.495 115.456 195.691 116.296 195.691 117.784V121H194.839V114.688H195.655V115.924ZM205.011 117.844C205.011 117.916 204.999 118.012 204.999 118.108H199.719C199.815 119.428 200.823 120.304 202.203 120.304C202.971 120.304 203.655 120.028 204.135 119.476L204.615 120.028C204.051 120.7 203.175 121.06 202.179 121.06C200.211 121.06 198.867 119.716 198.867 117.844C198.867 115.972 200.175 114.64 201.951 114.64C203.727 114.64 205.011 115.948 205.011 117.844ZM201.951 115.372C200.727 115.372 199.827 116.236 199.719 117.472H204.195C204.087 116.236 203.187 115.372 201.951 115.372ZM214.618 114.64C216.154 114.64 217.162 115.528 217.162 117.34V121H216.31V117.424C216.31 116.092 215.638 115.408 214.498 115.408C213.202 115.408 212.386 116.248 212.386 117.688V121H211.534V117.424C211.534 116.092 210.862 115.408 209.71 115.408C208.426 115.408 207.598 116.248 207.598 117.688V121H206.746V114.688H207.562V115.84C208.006 115.084 208.822 114.64 209.878 114.64C210.922 114.64 211.738 115.084 212.122 115.972C212.578 115.156 213.478 114.64 214.618 114.64ZM225.004 117.844C225.004 117.916 224.992 118.012 224.992 118.108H219.712C219.808 119.428 220.816 120.304 222.196 120.304C222.964 120.304 223.648 120.028 224.128 119.476L224.608 120.028C224.044 120.7 223.168 121.06 222.172 121.06C220.204 121.06 218.86 119.716 218.86 117.844C218.86 115.972 220.168 114.64 221.944 114.64C223.72 114.64 225.004 115.948 225.004 117.844ZM221.944 115.372C220.72 115.372 219.82 116.236 219.712 117.472H224.188C224.08 116.236 223.18 115.372 221.944 115.372ZM229.954 114.64C231.49 114.64 232.546 115.528 232.546 117.34V121H231.694V117.424C231.694 116.092 230.998 115.408 229.798 115.408C228.442 115.408 227.59 116.248 227.59 117.688V121H226.738V114.688H227.554V115.852C228.01 115.084 228.862 114.64 229.954 114.64ZM237.883 120.004L238.183 120.616C237.847 120.916 237.343 121.06 236.851 121.06C235.663 121.06 235.003 120.388 235.003 119.224V115.408H233.875V114.688H235.003V113.308H235.855V114.688H237.775V115.408H235.855V119.176C235.855 119.92 236.239 120.328 236.947 120.328C237.295 120.328 237.643 120.22 237.883 120.004ZM241.426 121.06C240.382 121.06 239.374 120.724 238.858 120.28L239.242 119.608C239.746 120.004 240.598 120.316 241.486 120.316C242.686 120.316 243.178 119.908 243.178 119.284C243.178 117.64 239.086 118.936 239.086 116.44C239.086 115.408 239.974 114.64 241.582 114.64C242.398 114.64 243.286 114.868 243.814 115.228L243.442 115.912C242.89 115.528 242.23 115.372 241.582 115.372C240.442 115.372 239.938 115.816 239.938 116.416C239.938 118.12 244.03 116.836 244.03 119.26C244.03 120.352 243.07 121.06 241.426 121.06ZM245.701 119.752C246.073 119.752 246.337 120.04 246.337 120.4C246.337 120.604 246.289 120.76 246.169 121.096L245.665 122.752H245.089L245.497 121.012C245.245 120.94 245.065 120.712 245.065 120.4C245.065 120.028 245.341 119.752 245.701 119.752ZM253.905 121.06C252.021 121.06 250.653 119.728 250.653 117.844C250.653 115.96 252.021 114.64 253.905 114.64C254.973 114.64 255.873 115.06 256.377 115.888L255.741 116.32C255.309 115.684 254.637 115.384 253.905 115.384C252.525 115.384 251.517 116.368 251.517 117.844C251.517 119.332 252.525 120.304 253.905 120.304C254.637 120.304 255.309 120.016 255.741 119.38L256.377 119.812C255.873 120.628 254.973 121.06 253.905 121.06ZM260.525 121.06C258.677 121.06 257.309 119.716 257.309 117.844C257.309 115.972 258.677 114.64 260.525 114.64C262.373 114.64 263.729 115.972 263.729 117.844C263.729 119.716 262.373 121.06 260.525 121.06ZM260.525 120.304C261.869 120.304 262.865 119.32 262.865 117.844C262.865 116.368 261.869 115.384 260.525 115.384C259.181 115.384 258.173 116.368 258.173 117.844C258.173 119.32 259.181 120.304 260.525 120.304ZM273.34 114.64C274.876 114.64 275.884 115.528 275.884 117.34V121H275.032V117.424C275.032 116.092 274.36 115.408 273.22 115.408C271.924 115.408 271.108 116.248 271.108 117.688V121H270.256V117.424C270.256 116.092 269.584 115.408 268.432 115.408C267.148 115.408 266.32 116.248 266.32 117.688V121H265.468V114.688H266.284V115.84C266.728 115.084 267.544 114.64 268.6 114.64C269.644 114.64 270.46 115.084 270.844 115.972C271.3 115.156 272.2 114.64 273.34 114.64ZM281.447 114.64C283.247 114.64 284.591 115.936 284.591 117.844C284.591 119.764 283.247 121.06 281.447 121.06C280.439 121.06 279.575 120.628 279.047 119.812V123.328H278.195V114.688H279.011V115.936C279.527 115.096 280.403 114.64 281.447 114.64ZM281.387 120.304C282.719 120.304 283.739 119.32 283.739 117.844C283.739 116.38 282.719 115.384 281.387 115.384C280.043 115.384 279.035 116.38 279.035 117.844C279.035 119.32 280.043 120.304 281.387 120.304ZM288.5 114.64C290.132 114.64 291.056 115.456 291.056 117.088V121H290.24V120.016C289.856 120.664 289.112 121.06 288.068 121.06C286.64 121.06 285.764 120.316 285.764 119.224C285.764 118.252 286.388 117.436 288.2 117.436H290.204V117.052C290.204 115.972 289.592 115.384 288.416 115.384C287.6 115.384 286.832 115.672 286.316 116.128L285.932 115.492C286.568 114.952 287.504 114.64 288.5 114.64ZM288.2 120.388C289.16 120.388 289.868 119.932 290.204 119.104V118.072H288.224C287 118.072 286.604 118.552 286.604 119.2C286.604 119.932 287.192 120.388 288.2 120.388ZM296.587 114.64C298.123 114.64 299.179 115.528 299.179 117.34V121H298.327V117.424C298.327 116.092 297.631 115.408 296.431 115.408C295.075 115.408 294.223 116.248 294.223 117.688V121H293.371V114.688H294.187V115.852C294.643 115.084 295.495 114.64 296.587 114.64ZM305.839 114.688H306.679L303.523 121.756C302.995 122.992 302.323 123.388 301.423 123.388C300.835 123.388 300.271 123.196 299.887 122.812L300.283 122.176C300.595 122.488 300.979 122.656 301.435 122.656C301.999 122.656 302.383 122.392 302.743 121.6L303.019 120.988L300.199 114.688H301.087L303.463 120.052L305.839 114.688ZM166.119 139.06C164.235 139.06 162.867 137.728 162.867 135.844C162.867 133.96 164.235 132.64 166.119 132.64C167.187 132.64 168.087 133.06 168.591 133.888L167.955 134.32C167.523 133.684 166.851 133.384 166.119 133.384C164.739 133.384 163.731 134.368 163.731 135.844C163.731 137.332 164.739 138.304 166.119 138.304C166.851 138.304 167.523 138.016 167.955 137.38L168.591 137.812C168.087 138.628 167.187 139.06 166.119 139.06ZM175.101 132.688H175.953V139H175.137V137.848C174.693 138.616 173.877 139.06 172.869 139.06C171.261 139.06 170.205 138.16 170.205 136.348V132.688H171.057V136.264C171.057 137.608 171.753 138.292 172.953 138.292C174.273 138.292 175.101 137.44 175.101 136V132.688ZM178.339 139V130.096H179.191V139H178.339ZM184.609 138.004L184.909 138.616C184.573 138.916 184.069 139.06 183.577 139.06C182.389 139.06 181.729 138.388 181.729 137.224V133.408H180.601V132.688H181.729V131.308H182.581V132.688H184.501V133.408H182.581V137.176C182.581 137.92 182.965 138.328 183.673 138.328C184.021 138.328 184.369 138.22 184.609 138.004ZM191.296 132.688H192.148V139H191.332V137.848C190.888 138.616 190.072 139.06 189.064 139.06C187.456 139.06 186.4 138.16 186.4 136.348V132.688H187.252V136.264C187.252 137.608 187.948 138.292 189.148 138.292C190.468 138.292 191.296 137.44 191.296 136V132.688ZM195.351 133.924C195.747 133.084 196.551 132.64 197.715 132.64V133.468C197.643 133.468 197.571 133.456 197.511 133.456C196.191 133.456 195.387 134.296 195.387 135.784V139H194.535V132.688H195.351V133.924ZM204.707 135.844C204.707 135.916 204.695 136.012 204.695 136.108H199.415C199.511 137.428 200.519 138.304 201.899 138.304C202.667 138.304 203.351 138.028 203.831 137.476L204.311 138.028C203.747 138.7 202.871 139.06 201.875 139.06C199.907 139.06 198.563 137.716 198.563 135.844C198.563 133.972 199.871 132.64 201.647 132.64C203.423 132.64 204.707 133.948 204.707 135.844ZM201.647 133.372C200.423 133.372 199.523 134.236 199.415 135.472H203.891C203.783 134.236 202.883 133.372 201.647 133.372ZM206.537 137.752C206.909 137.752 207.173 138.04 207.173 138.4C207.173 138.604 207.125 138.76 207.005 139.096L206.501 140.752H205.925L206.333 139.012C206.081 138.94 205.901 138.712 205.901 138.4C205.901 138.028 206.177 137.752 206.537 137.752ZM214.333 132.64C215.965 132.64 216.889 133.456 216.889 135.088V139H216.073V138.016C215.689 138.664 214.945 139.06 213.901 139.06C212.473 139.06 211.597 138.316 211.597 137.224C211.597 136.252 212.221 135.436 214.033 135.436H216.037V135.052C216.037 133.972 215.425 133.384 214.249 133.384C213.433 133.384 212.665 133.672 212.149 134.128L211.765 133.492C212.401 132.952 213.337 132.64 214.333 132.64ZM214.033 138.388C214.993 138.388 215.701 137.932 216.037 137.104V136.072H214.057C212.833 136.072 212.437 136.552 212.437 137.2C212.437 137.932 213.025 138.388 214.033 138.388ZM222.419 132.64C223.955 132.64 225.011 133.528 225.011 135.34V139H224.159V135.424C224.159 134.092 223.463 133.408 222.263 133.408C220.907 133.408 220.055 134.248 220.055 135.688V139H219.203V132.688H220.019V133.852C220.475 133.084 221.327 132.64 222.419 132.64ZM232.255 130.096H233.107V139H232.291V137.752C231.775 138.604 230.899 139.06 229.855 139.06C228.055 139.06 226.711 137.752 226.711 135.844C226.711 133.936 228.055 132.64 229.855 132.64C230.863 132.64 231.727 133.072 232.255 133.888V130.096ZM229.927 138.304C231.259 138.304 232.267 137.32 232.267 135.844C232.267 134.368 231.259 133.384 229.927 133.384C228.583 133.384 227.575 134.368 227.575 135.844C227.575 137.32 228.583 138.304 229.927 138.304ZM240.313 139.06C239.269 139.06 238.261 138.724 237.745 138.28L238.129 137.608C238.633 138.004 239.485 138.316 240.373 138.316C241.573 138.316 242.065 137.908 242.065 137.284C242.065 135.64 237.973 136.936 237.973 134.44C237.973 133.408 238.861 132.64 240.469 132.64C241.285 132.64 242.173 132.868 242.701 133.228L242.329 133.912C241.777 133.528 241.117 133.372 240.469 133.372C239.329 133.372 238.825 133.816 238.825 134.416C238.825 136.12 242.917 134.836 242.917 137.26C242.917 138.352 241.957 139.06 240.313 139.06ZM247.108 139.06C245.224 139.06 243.856 137.728 243.856 135.844C243.856 133.96 245.224 132.64 247.108 132.64C248.176 132.64 249.076 133.06 249.58 133.888L248.944 134.32C248.512 133.684 247.84 133.384 247.108 133.384C245.728 133.384 244.72 134.368 244.72 135.844C244.72 137.332 245.728 138.304 247.108 138.304C247.84 138.304 248.512 138.016 248.944 137.38L249.58 137.812C249.076 138.628 248.176 139.06 247.108 139.06ZM253.461 132.64C255.093 132.64 256.017 133.456 256.017 135.088V139H255.201V138.016C254.817 138.664 254.073 139.06 253.029 139.06C251.601 139.06 250.725 138.316 250.725 137.224C250.725 136.252 251.349 135.436 253.161 135.436H255.165V135.052C255.165 133.972 254.553 133.384 253.377 133.384C252.561 133.384 251.793 133.672 251.277 134.128L250.893 133.492C251.529 132.952 252.465 132.64 253.461 132.64ZM253.161 138.388C254.121 138.388 254.829 137.932 255.165 137.104V136.072H253.185C251.961 136.072 251.565 136.552 251.565 137.2C251.565 137.932 252.153 138.388 253.161 138.388ZM258.332 139V130.096H259.184V139H258.332ZM261.986 131.308C261.638 131.308 261.362 131.032 261.362 130.696C261.362 130.372 261.638 130.096 261.986 130.096C262.334 130.096 262.61 130.36 262.61 130.684C262.61 131.032 262.346 131.308 261.986 131.308ZM261.554 139V132.688H262.406V139H261.554ZM267.993 132.64C269.529 132.64 270.585 133.528 270.585 135.34V139H269.733V135.424C269.733 134.092 269.037 133.408 267.837 133.408C266.481 133.408 265.629 134.248 265.629 135.688V139H264.777V132.688H265.593V133.852C266.049 133.084 266.901 132.64 267.993 132.64ZM277.949 132.688H278.765V138.232C278.765 140.404 277.697 141.388 275.609 141.388C274.457 141.388 273.329 141.04 272.669 140.416L273.101 139.768C273.701 140.308 274.613 140.632 275.585 140.632C277.181 140.632 277.913 139.9 277.913 138.34V137.536C277.385 138.34 276.485 138.76 275.453 138.76C273.653 138.76 272.285 137.5 272.285 135.688C272.285 133.876 273.653 132.64 275.453 132.64C276.509 132.64 277.421 133.072 277.949 133.9V132.688ZM275.537 138.004C276.929 138.004 277.937 137.056 277.937 135.688C277.937 134.32 276.929 133.384 275.537 133.384C274.145 133.384 273.149 134.32 273.149 135.688C273.149 137.056 274.145 138.004 275.537 138.004ZM165.711 150.64C167.343 150.64 168.267 151.456 168.267 153.088V157H167.451V156.016C167.067 156.664 166.323 157.06 165.279 157.06C163.851 157.06 162.975 156.316 162.975 155.224C162.975 154.252 163.599 153.436 165.411 153.436H167.415V153.052C167.415 151.972 166.803 151.384 165.627 151.384C164.811 151.384 164.043 151.672 163.527 152.128L163.143 151.492C163.779 150.952 164.715 150.64 165.711 150.64ZM165.411 156.388C166.371 156.388 167.079 155.932 167.415 155.104V154.072H165.435C164.211 154.072 163.815 154.552 163.815 155.2C163.815 155.932 164.403 156.388 165.411 156.388ZM172.274 157.06C171.23 157.06 170.222 156.724 169.706 156.28L170.09 155.608C170.594 156.004 171.446 156.316 172.334 156.316C173.534 156.316 174.026 155.908 174.026 155.284C174.026 153.64 169.934 154.936 169.934 152.44C169.934 151.408 170.822 150.64 172.43 150.64C173.246 150.64 174.134 150.868 174.662 151.228L174.29 151.912C173.738 151.528 173.078 151.372 172.43 151.372C171.29 151.372 170.786 151.816 170.786 152.416C170.786 154.12 174.878 152.836 174.878 155.26C174.878 156.352 173.918 157.06 172.274 157.06ZM179.705 150.64C181.505 150.64 182.849 151.936 182.849 153.844C182.849 155.764 181.505 157.06 179.705 157.06C178.697 157.06 177.833 156.628 177.305 155.812V159.328H176.453V150.688H177.269V151.936C177.785 151.096 178.661 150.64 179.705 150.64ZM179.645 156.304C180.977 156.304 181.997 155.32 181.997 153.844C181.997 152.38 180.977 151.384 179.645 151.384C178.301 151.384 177.293 152.38 177.293 153.844C177.293 155.32 178.301 156.304 179.645 156.304ZM185.017 149.308C184.669 149.308 184.393 149.032 184.393 148.696C184.393 148.372 184.669 148.096 185.017 148.096C185.365 148.096 185.641 148.36 185.641 148.684C185.641 149.032 185.377 149.308 185.017 149.308ZM184.585 157V150.688H185.437V157H184.585ZM188.624 151.924C189.02 151.084 189.824 150.64 190.988 150.64V151.468C190.916 151.468 190.844 151.456 190.784 151.456C189.464 151.456 188.66 152.296 188.66 153.784V157H187.808V150.688H188.624V151.924ZM194.727 150.64C196.359 150.64 197.283 151.456 197.283 153.088V157H196.467V156.016C196.083 156.664 195.339 157.06 194.295 157.06C192.867 157.06 191.991 156.316 191.991 155.224C191.991 154.252 192.615 153.436 194.427 153.436H196.431V153.052C196.431 151.972 195.819 151.384 194.643 151.384C193.827 151.384 193.059 151.672 192.543 152.128L192.159 151.492C192.795 150.952 193.731 150.64 194.727 150.64ZM194.427 156.388C195.387 156.388 196.095 155.932 196.431 155.104V154.072H194.451C193.227 154.072 192.831 154.552 192.831 155.2C192.831 155.932 193.419 156.388 194.427 156.388ZM202.621 156.004L202.921 156.616C202.585 156.916 202.081 157.06 201.589 157.06C200.401 157.06 199.741 156.388 199.741 155.224V151.408H198.613V150.688H199.741V149.308H200.593V150.688H202.513V151.408H200.593V155.176C200.593 155.92 200.977 156.328 201.685 156.328C202.033 156.328 202.381 156.22 202.621 156.004ZM204.904 149.308C204.556 149.308 204.28 149.032 204.28 148.696C204.28 148.372 204.556 148.096 204.904 148.096C205.252 148.096 205.528 148.36 205.528 148.684C205.528 149.032 205.264 149.308 204.904 149.308ZM204.472 157V150.688H205.324V157H204.472ZM210.275 157.06C208.427 157.06 207.059 155.716 207.059 153.844C207.059 151.972 208.427 150.64 210.275 150.64C212.123 150.64 213.479 151.972 213.479 153.844C213.479 155.716 212.123 157.06 210.275 157.06ZM210.275 156.304C211.619 156.304 212.615 155.32 212.615 153.844C212.615 152.368 211.619 151.384 210.275 151.384C208.931 151.384 207.923 152.368 207.923 153.844C207.923 155.32 208.931 156.304 210.275 156.304ZM218.434 150.64C219.97 150.64 221.026 151.528 221.026 153.34V157H220.174V153.424C220.174 152.092 219.478 151.408 218.278 151.408C216.922 151.408 216.07 152.248 216.07 153.688V157H215.218V150.688H216.034V151.852C216.49 151.084 217.342 150.64 218.434 150.64ZM225.031 157.06C223.987 157.06 222.979 156.724 222.463 156.28L222.847 155.608C223.351 156.004 224.203 156.316 225.091 156.316C226.291 156.316 226.783 155.908 226.783 155.284C226.783 153.64 222.691 154.936 222.691 152.44C222.691 151.408 223.579 150.64 225.187 150.64C226.003 150.64 226.891 150.868 227.419 151.228L227.047 151.912C226.495 151.528 225.835 151.372 225.187 151.372C224.047 151.372 223.543 151.816 223.543 152.416C223.543 154.12 227.635 152.836 227.635 155.26C227.635 156.352 226.675 157.06 225.031 157.06ZM229.294 157.06C228.946 157.06 228.658 156.772 228.658 156.4C228.658 156.028 228.946 155.752 229.294 155.752C229.642 155.752 229.942 156.028 229.942 156.4C229.942 156.772 229.642 157.06 229.294 157.06Z" fill="white"/>
<defs>
<linearGradient id="paint0_linear_937_62" x1="0" y1="21" x2="133.437" y2="35.0002" gradientUnits="userSpaceOnUse">
<stop stop-color="#70C0B2"/>
<stop offset="0.293999" stop-color="#0198B6"/>
<stop offset="0.817393" stop-color="#007289"/>
</linearGradient>
</defs>
</svg>
