<svg width="35" height="35" viewBox="0 0 35 35" fill="none" xmlns="http://www.w3.org/2000/svg">
<path opacity="0.7" fill-rule="evenodd" clip-rule="evenodd" d="M6.99997 0C3.13399 0 0 3.13399 0 6.99998V27.9999C0 31.8658 3.13399 34.9999 6.99997 34.9999H27.9999C31.8658 34.9999 34.9999 31.8658 34.9999 27.9999V6.99998C34.9999 3.13399 31.8658 0 27.9999 0H6.99997ZM3.49999 6.99998C3.49999 5.06698 5.06698 3.49999 6.99997 3.49999H27.9999C29.9329 3.49999 31.4999 5.06698 31.4999 6.99998V27.9999C31.4999 29.9329 29.9329 31.4999 27.9999 31.4999H6.99997C5.06698 31.4999 3.49999 29.9329 3.49999 27.9999V6.99998ZM12.25 15.7499C12.25 14.7834 11.4664 14 10.5 14C9.53348 14 8.74997 14.7834 8.74997 15.7499V26.2499C8.74997 27.2164 9.53348 27.9999 10.5 27.9999C11.4664 27.9999 12.25 27.2164 12.25 26.2499V15.7499ZM13.125 9.62497C13.125 11.0747 11.9497 12.25 10.5 12.25C9.05021 12.25 7.87497 11.0747 7.87497 9.62497C7.87497 8.17522 9.05021 6.99998 10.5 6.99998C11.9497 6.99998 13.125 8.17522 13.125 9.62497ZM17.4999 14C18.0941 14 18.6191 14.2961 18.9355 14.7488C19.8325 14.2628 20.8312 14 21.8749 14C25.6539 14 27.9999 17.3701 27.9999 20.2499V20.2632V20.2763V20.2896V20.3029V20.3162V20.3297V20.343V20.3565V20.3699V20.3834V20.3971V20.4105V20.4242V20.4378V20.4515V20.4651V20.4788V20.4926V20.5064V20.5201V20.5341V20.5479V20.5617V20.5757V20.5896V20.6036V20.6176V20.6317V20.6457V20.6599V20.6739V20.6881V20.7023V20.7164V20.7308V20.745V20.7593V20.7735V20.7878V20.8022V20.8167V20.8311V20.8454V20.8599V20.8745V20.8888V20.9033V20.918V20.9326V20.9471V20.9618V20.9765V20.991V21.0057V21.0204V21.0351V21.05V21.0647V21.0796V21.0943V21.1091V21.124V21.1389V21.1538V21.1686V21.1835V21.1986V21.2134V21.2285V21.2435V21.2586V21.2735V21.2887V21.3037V21.3188V21.3338V21.3491V21.3641V21.3793V21.3944V21.4096V21.4248V21.4401V21.4553V21.4705V21.4857V21.5011V21.5163V21.5317V21.547V21.5624V21.5776V21.593V21.6084V21.6238V21.6392V21.6546V21.67V21.6854V21.7008V21.7162V21.7318V21.7472V21.7627V21.7782V21.7937V21.8091V21.8247V21.8403V21.8559V21.8712V21.8868V21.9024V21.918V21.9335V21.9491V21.9647V21.9803V21.996V22.0116V22.0272V22.0427V22.0585V22.0741V22.0896V22.1054V22.121V22.1367V22.1523V22.1679V22.1836V22.1994V22.2149V22.2307V22.2463V22.262V22.2778V22.2933V22.3091V22.3247V22.3404V22.3562V22.3717V22.3875V22.4032V22.4188V22.4346V22.4503V22.4661V22.4816V22.4974V22.5131V22.5287V22.5445V22.5602V22.5758V22.5915V22.6071V22.6229V22.6384V22.6542V22.6699V22.6855V22.7013V22.7168V22.7324V22.7482V22.7637V22.7795V22.7951V22.8106V22.8262V22.842V22.8575V22.8731V22.8887V22.9043V22.9198V22.9354V22.951V22.9666V22.9821V22.9977V23.0131V23.0287V23.0443V23.0597V23.0752V23.0906V23.1062V23.1216V23.1372V23.1526V23.168V23.1834V23.1988V23.2142V23.2296V23.245V23.2604V23.2758V23.291V23.3064V23.3216V23.337V23.3523V23.3675V23.3827V23.3979V23.4132V23.4284V23.4436V23.4588V23.4741V23.4891V23.5043V23.5194V23.5344V23.5497V23.5647V23.5798V23.5946V23.6097V23.6247V23.6398V23.6547V23.6695V23.6846V23.6995V23.7143V23.7292V23.7441V23.7588V23.7737V23.7884V23.8032V23.8179V23.8326V23.8473V23.862V23.8767V23.8913V23.906V23.9205V23.935V23.9495V23.9641V23.9786V23.9931V24.0075V24.022V24.0363V24.0507V24.065V24.0794V24.0937V24.1079V24.1223V24.1364V24.1506V24.1648V24.179V24.193V24.2071V24.2211V24.2351V24.2491V24.2631V24.2771V24.291V24.3048V24.3188V24.3326V24.3463V24.3601V24.3739V24.3876V24.4012V24.4149V24.4285V24.442V24.4556V24.4691V24.4826V24.4961V24.5095V24.5228V24.5363V24.5496V24.5629V24.576V24.5893V24.6025V24.6156V24.6287V24.6418V24.655V24.6679V24.6809V24.6938V24.7068V24.7195V24.7325V24.7453V24.758V24.7706V24.7834V24.796V24.8086V24.8212V24.8338V24.8462V24.8587V24.8711V24.8835V24.8958V24.908V24.9203V24.9325V24.9448V24.9568V24.9689V24.981V24.9931V25.005V25.0169V25.0288V25.0407V25.0524V25.0641V25.0758V25.0876V25.0993V25.1108V25.1224V25.1338V25.1453V25.1567V25.1681V25.1793V25.1906V25.2018V25.213V25.2241V25.2353V25.2463V25.2573V25.2682V25.279V25.2899V25.3007V25.3116V25.3222V25.3329V25.3434V25.3541V25.3646V25.3749V25.3854V25.3957V25.4061V25.4164V25.4265V25.4367V25.4468V25.4568V25.4668V25.4768V25.4867V25.4965V25.5063V25.5161V25.5258V25.5354V25.545V25.5545V25.5641V25.5734V25.5828V25.5921V25.6014V25.6106V25.6197V25.6288V25.6379V25.6469V25.6558V25.6647V25.6735V25.6822V25.691V25.6995V25.7081V25.7167V25.7251V25.7335V25.7419V25.7501V25.7583V25.7666V25.7746V25.7827V25.7907V25.7986V25.8065V25.8143V25.822V25.8297V25.8374V25.845V25.8525V25.8598V25.8672V25.8745V25.8819V25.8891V25.8961V25.9032V25.9102V25.9171V25.9241V25.9309V25.9375V25.9442V25.9508V25.9573V25.9638V25.9703V25.9766V25.9829V25.9892V25.9953V26.0014V26.0074V26.0133V26.0193V26.025V26.0308V26.0364V26.042V26.0476V26.053V26.0585V26.0637V26.069V26.0742V26.0793V26.0844V26.0894V26.0943V26.0991V26.1038V26.1085V26.1132V26.1178V26.1222V26.1265V26.1309V26.1351V26.1393V26.1435V26.1475V26.1516V26.1554V26.1591V26.1629V26.1666V26.1701V26.1736V26.1771V26.1804V26.1838V26.1869V26.1901V26.1932V26.1962V26.199V26.2018V26.2046V26.2072V26.2098V26.2123V26.2147V26.2172V26.2195V26.2216V26.2237V26.2258V26.2277V26.2296V26.2314V26.2347V26.2377V26.2405V26.2427V26.2448V26.2471V26.2492C27.9999 27.2157 27.2164 27.9999 26.2499 27.9999C25.2834 27.9999 24.4999 27.2164 24.4999 26.2499V26.2478V26.2457V26.2438V26.2417V26.2391V26.2363V26.2331V26.2296V26.2277V26.2258V26.2237V26.2216V26.2195V26.2172V26.2147V26.2123V26.2098V26.2072V26.2046V26.2018V26.199V26.1962V26.1932V26.1901V26.1869V26.1838V26.1804V26.1771V26.1736V26.1701V26.1666V26.1629V26.1591V26.1554V26.1516V26.1475V26.1435V26.1393V26.1351V26.1309V26.1265V26.1222V26.1178V26.1132V26.1085V26.1038V26.0991V26.0943V26.0894V26.0844V26.0793V26.0742V26.069V26.0637V26.0585V26.053V26.0476V26.042V26.0364V26.0308V26.025V26.0193V26.0133V26.0074V26.0014V25.9953V25.9892V25.9829V25.9766V25.9703V25.9638V25.9573V25.9508V25.9442V25.9375V25.9309V25.9241V25.9171V25.9102V25.9032V25.8961V25.8891V25.8819V25.8745V25.8672V25.8598V25.8525V25.845V25.8374V25.8297V25.822V25.8143V25.8065V25.7986V25.7907V25.7827V25.7746V25.7666V25.7583V25.7501V25.7419V25.7335V25.7251V25.7167V25.7081V25.6995V25.691V25.6822V25.6735V25.6647V25.6558V25.6469V25.6379V25.6288V25.6197V25.6106V25.6014V25.5921V25.5828V25.5734V25.5641V25.5545V25.545V25.5354V25.5258V25.5161V25.5063V25.4965V25.4867V25.4768V25.4668V25.4568V25.4468V25.4367V25.4265V25.4164V25.4061V25.3957V25.3854V25.3749V25.3646V25.3541V25.3434V25.3329V25.3222V25.3116V25.3007V25.2899V25.279V25.2682V25.2573V25.2463V25.2353V25.2241V25.213V25.2018V25.1906V25.1793V25.1681V25.1567V25.1453V25.1338V25.1224V25.1108V25.0993V25.0876V25.0758V25.0641V25.0524V25.0407V25.0288V25.0169V25.005V24.9931V24.981V24.9689V24.9568V24.9448V24.9325V24.9203V24.908V24.8958V24.8835V24.8711V24.8587V24.8462V24.8338V24.8212V24.8086V24.796V24.7834V24.7706V24.758V24.7453V24.7325V24.7195V24.7068V24.6938V24.6809V24.6679V24.655V24.6418V24.6287V24.6156V24.6025V24.5893V24.576V24.5629V24.5496V24.5363V24.5228V24.5095V24.4961V24.4826V24.4691V24.4556V24.442V24.4285V24.4149V24.4012V24.3876V24.3739V24.3601V24.3463V24.3326V24.3188V24.3048V24.291V24.2771V24.2631V24.2491V24.2351V24.2211V24.2071V24.193V24.179V24.1648V24.1506V24.1364V24.1223V24.1079V24.0937V24.0794V24.065V24.0507V24.0363V24.022V24.0075V23.9931V23.9786V23.9641V23.9495V23.935V23.9205V23.906V23.8913V23.8767V23.862V23.8473V23.8326V23.8179V23.8032V23.7884V23.7737V23.7588V23.7441V23.7292V23.7143V23.6995V23.6846V23.6695V23.6547V23.6398V23.6247V23.6097V23.5946V23.5798V23.5647V23.5497V23.5344V23.5194V23.5043V23.4891V23.4741V23.4588V23.4436V23.4284V23.4132V23.3979V23.3827V23.3675V23.3523V23.337V23.3216V23.3064V23.291V23.2758V23.2604V23.245V23.2296V23.2142V23.1988V23.1834V23.168V23.1526V23.1372V23.1216V23.1062V23.0906V23.0752V23.0597V23.0443V23.0287V23.0131V22.9977V22.9821V22.9666V22.951V22.9354V22.9198V22.9043V22.8887V22.8731V22.8575V22.842V22.8262V22.8106V22.7951V22.7795V22.7637V22.7482V22.7324V22.7168V22.7013V22.6855V22.6699V22.6542V22.6384V22.6229V22.6071V22.5915V22.5758V22.5602V22.5445V22.5287V22.5131V22.4974V22.4816V22.4661V22.4503V22.4346V22.4188V22.4032V22.3875V22.3717V22.3562V22.3404V22.3247V22.3091V22.2933V22.2778V22.262V22.2463V22.2307V22.2149V22.1994V22.1836V22.1679V22.1523V22.1367V22.121V22.1054V22.0896V22.0741V22.0585V22.0427V22.0272V22.0116V21.996V21.9803V21.9647V21.9491V21.9335V21.918V21.9024V21.8868V21.8712V21.8559V21.8403V21.8247V21.8091V21.7937V21.7782V21.7627V21.7472V21.7318V21.7162V21.7008V21.6854V21.67V21.6546V21.6392V21.6238V21.6084V21.593V21.5776V21.5624V21.547V21.5317V21.5163V21.5011V21.4857V21.4705V21.4553V21.4401V21.4248V21.4096V21.3944V21.3793V21.3641V21.3491V21.3338V21.3188V21.3037V21.2887V21.2735V21.2586V21.2435V21.2285V21.2134V21.1986V21.1835V21.1686V21.1538V21.1389V21.124V21.1091V21.0943V21.0796V21.0647V21.05V21.0351V21.0204V21.0057V20.991V20.9765V20.9618V20.9471V20.9326V20.918V20.9033V20.8888V20.8745V20.8599V20.8454V20.8311V20.8167V20.8022V20.7878V20.7735V20.7593V20.745V20.7308V20.7164V20.7023V20.6881V20.6739V20.6599V20.6457V20.6317V20.6176V20.6036V20.5896V20.5757V20.5617V20.5479V20.5341V20.5201V20.5064V20.4926V20.4788V20.4651V20.4515V20.4378V20.4242V20.4105V20.3971V20.3834V20.3699V20.3565V20.343V20.3297V20.3162V20.3029V20.2896V20.2763V20.2632V20.2499C24.4999 18.9055 23.346 17.4999 21.8749 17.4999C20.9577 17.4999 19.9454 17.9985 19.2499 19.1854V19.1901V19.2081V19.2261V19.2442V19.2624V19.2804V19.2986V19.3168V19.3352V19.3534V19.3716V19.3899V19.4083V19.4267V19.4451V19.4634V19.482V19.5005V19.5189V19.5375V19.556V19.5746V19.5933V19.6118V19.6306V19.6493V19.6678V19.6867V19.7055V19.7242V19.7429V19.7618V19.7807V19.7994V19.8183V19.8372V19.8561V19.8752V19.8941V19.9132V19.9321V19.9512V19.9702V19.9893V20.0084V20.0275V20.0465V20.0658V20.0849V20.1041V20.1232V20.1424V20.1617V20.1809V20.2002V20.2194V20.2387V20.2581V20.2774V20.2966V20.316V20.3355V20.3547V20.3741V20.3936V20.413V20.4324V20.4518V20.4713V20.4907V20.5103V20.5297V20.5491V20.5687V20.5882V20.6078V20.6274V20.6468V20.6664V20.686V20.7056V20.725V20.7446V20.7642V20.7838V20.8036V20.8232V20.8428V20.8624V20.882V20.9016V20.9214V20.941V20.9606V20.9803V20.9999V21.0197V21.0393V21.0591V21.0787V21.0983V21.1181V21.1378V21.1574V21.1772V21.1968V21.2166V21.2362V21.256V21.2757V21.2953V21.3151V21.3347V21.3545V21.3743V21.3939V21.4136V21.4332V21.453V21.4726V21.4924V21.512V21.5317V21.5513V21.5711V21.5907V21.6105V21.6301V21.6499V21.6695V21.6891V21.7087V21.7284V21.748V21.7676V21.7872V21.8068V21.8264V21.846V21.8657V21.8853V21.9049V21.9244V21.944V21.9635V21.9831V22.0027V22.0221V22.0417V22.0611V22.0807V22.1001V22.1196V22.139V22.1584V22.178V22.1974V22.2167V22.2361V22.2555V22.275V22.2942V22.3136V22.3329V22.3523V22.3716V22.3908V22.4101V22.4293V22.4486V22.4678V22.4871V22.5061V22.5254V22.5445V22.5637V22.5828V22.6019V22.6209V22.64V22.6591V22.678V22.6971V22.716V22.735V22.7539V22.7728V22.7917V22.8106V22.8295V22.8483V22.8672V22.8859V22.9046V22.9233V22.9421V22.9608V22.9795V22.9982V23.0168V23.0353V23.0539V23.0724V23.091V23.1095V23.1281V23.1465V23.1648V23.1832V23.2016V23.22V23.2383V23.2565V23.2747V23.2931V23.3113V23.3293V23.3475V23.3657V23.3838V23.4018V23.4198V23.4378V23.4557V23.4737V23.4916V23.5094V23.5273V23.5451V23.5628V23.5806V23.5983V23.616V23.6335V23.6512V23.6687V23.6862V23.7037V23.7212V23.7387V23.756V23.7733V23.7906V23.808V23.8251V23.8424V23.8596V23.8767V23.8937V23.9109V23.9278V23.9448V23.9618V23.9786V23.9956V24.0124V24.0292V24.0458V24.0626V24.0792V24.0958V24.1125V24.1289V24.1454V24.1618V24.1783V24.1947V24.211V24.2273V24.2434V24.2596V24.2757V24.2918V24.3079V24.3239V24.34V24.3559V24.3716V24.3876V24.4033V24.4191V24.4346V24.4504V24.466V24.4815V24.4969V24.5123V24.5277V24.5431V24.5584V24.5736V24.5888V24.604V24.6191V24.6341V24.6492V24.6641V24.6789V24.6938V24.7087V24.7234V24.7381V24.7526V24.7671V24.7817V24.7962V24.8107V24.8251V24.8392V24.8536V24.8678V24.8819V24.8959V24.9099V24.9239V24.9379V24.9518V24.9656V24.9792V24.9929V25.0065V25.0202V25.0337V25.0471V25.0604V25.0739V25.0872V25.1003V25.1135V25.1266V25.1397V25.1527V25.1654V25.1784V25.1912V25.2039V25.2165V25.2291V25.2417V25.2542V25.2666V25.2788V25.2913V25.3033V25.3156V25.3277V25.3397V25.3516V25.3635V25.3753V25.3872V25.3989V25.4104V25.422V25.4335V25.4449V25.4563V25.4675V25.4787V25.4899V25.5011V25.5119V25.523V25.5338V25.5447V25.5553V25.566V25.5767V25.5872V25.5975V25.608V25.6183V25.6285V25.6386V25.6488V25.6588V25.6687V25.6785V25.6883V25.6981V25.7078V25.7172V25.7268V25.7361V25.7456V25.7548V25.7639V25.773V25.7821V25.7911V25.8V25.8087V25.8175V25.8261V25.8346V25.8432V25.8516V25.86V25.8682V25.8763V25.8845V25.8924V25.9004V25.9083V25.916V25.9237V25.9312V25.9388V25.9463V25.9536V25.9608V25.9682V25.9752V25.9822V25.9892V25.996V26.0028V26.0095V26.0161V26.0226V26.0291V26.0354V26.0417V26.0478V26.0539V26.0599V26.0658V26.0716V26.0774V26.083V26.0886V26.094V26.0994V26.1047V26.1099V26.115V26.1201V26.125V26.1297V26.1346V26.1391V26.1437V26.1482V26.1526V26.1568V26.161V26.1652V26.1692V26.1731V26.1769V26.1806V26.1843V26.1878V26.1913V26.1946V26.1979V26.2011V26.2041V26.207V26.2098V26.2126V26.2154V26.2179V26.2203V26.2228V26.2251V26.2273V26.2294V26.2314V26.2333V26.235V26.2384V26.2412V26.2436V26.2457V26.248V26.2497C19.2499 27.2163 18.4665 27.9999 17.4999 27.9999C16.5334 27.9999 15.7499 27.2164 15.7499 26.2499V26.248V26.2457V26.2436V26.2412V26.2384V26.235V26.2333V26.2314V26.2294V26.2273V26.2251V26.2228V26.2203V26.2179V26.2154V26.2126V26.2098V26.207V26.2041V26.2011V26.1979V26.1946V26.1913V26.1878V26.1843V26.1806V26.1769V26.1731V26.1692V26.1652V26.161V26.1568V26.1526V26.1482V26.1437V26.1391V26.1346V26.1297V26.125V26.1201V26.115V26.1099V26.1047V26.0994V26.094V26.0886V26.083V26.0774V26.0716V26.0658V26.0599V26.0539V26.0478V26.0417V26.0354V26.0291V26.0226V26.0161V26.0095V26.0028V25.996V25.9892V25.9822V25.9752V25.9682V25.9608V25.9536V25.9463V25.9388V25.9312V25.9237V25.916V25.9083V25.9004V25.8924V25.8845V25.8763V25.8682V25.86V25.8516V25.8432V25.8346V25.8261V25.8175V25.8087V25.8V25.7911V25.7821V25.773V25.7639V25.7548V25.7456V25.7361V25.7268V25.7172V25.7078V25.6981V25.6883V25.6785V25.6687V25.6588V25.6488V25.6386V25.6285V25.6183V25.608V25.5975V25.5872V25.5767V25.566V25.5553V25.5447V25.5338V25.523V25.5119V25.5011V25.4899V25.4787V25.4675V25.4563V25.4449V25.4335V25.422V25.4104V25.3989V25.3872V25.3753V25.3635V25.3516V25.3397V25.3277V25.3156V25.3033V25.2913V25.2788V25.2666V25.2542V25.2417V25.2291V25.2165V25.2039V25.1912V25.1784V25.1654V25.1527V25.1397V25.1266V25.1135V25.1003V25.0872V25.0739V25.0604V25.0471V25.0337V25.0202V25.0065V24.9929V24.9792V24.9656V24.9518V24.9379V24.9239V24.9099V24.8959V24.8819V24.8678V24.8536V24.8392V24.8251V24.8107V24.7962V24.7817V24.7671V24.7526V24.7381V24.7234V24.7087V24.6938V24.6789V24.6641V24.6492V24.6341V24.6191V24.604V24.5888V24.5736V24.5584V24.5431V24.5277V24.5123V24.4969V24.4815V24.466V24.4504V24.4346V24.4191V24.4033V24.3876V24.3716V24.3559V24.34V24.3239V24.3079V24.2918V24.2757V24.2596V24.2434V24.2273V24.211V24.1947V24.1783V24.1618V24.1454V24.1289V24.1125V24.0958V24.0792V24.0626V24.0458V24.0292V24.0124V23.9956V23.9786V23.9618V23.9448V23.9278V23.9109V23.8937V23.8767V23.8596V23.8424V23.8251V23.808V23.7906V23.7733V23.756V23.7387V23.7212V23.7037V23.6862V23.6687V23.6512V23.6335V23.616V23.5983V23.5806V23.5628V23.5451V23.5273V23.5094V23.4916V23.4737V23.4557V23.4378V23.4198V23.4018V23.3838V23.3657V23.3475V23.3293V23.3113V23.2931V23.2747V23.2565V23.2383V23.22V23.2016V23.1832V23.1648V23.1465V23.1281V23.1095V23.091V23.0724V23.0539V23.0353V23.0168V22.9982V22.9795V22.9608V22.9421V22.9233V22.9046V22.8859V22.8672V22.8483V22.8295V22.8106V22.7917V22.7728V22.7539V22.735V22.716V22.6971V22.678V22.6591V22.64V22.6209V22.6019V22.5828V22.5637V22.5445V22.5254V22.5061V22.4871V22.4678V22.4486V22.4293V22.4101V22.3908V22.3716V22.3523V22.3329V22.3136V22.2942V22.275V22.2555V22.2361V22.2167V22.1974V22.178V22.1584V22.139V22.1196V22.1001V22.0807V22.0611V22.0417V22.0221V22.0027V21.9831V21.9635V21.944V21.9244V21.9049V21.8853V21.8657V21.846V21.8264V21.8068V21.7872V21.7676V21.748V21.7284V21.7087V21.6891V21.6695V21.6499V21.6301V21.6105V21.5907V21.5711V21.5513V21.5317V21.512V21.4924V21.4726V21.453V21.4332V21.4136V21.3939V21.3743V21.3545V21.3347V21.3151V21.2953V21.2757V21.256V21.2362V21.2166V21.1968V21.1772V21.1574V21.1378V21.1181V21.0983V21.0787V21.0591V21.0393V21.0197V20.9999V20.9803V20.9606V20.941V20.9214V20.9016V20.882V20.8624V20.8428V20.8232V20.8036V20.7838V20.7642V20.7446V20.725V20.7056V20.686V20.6664V20.6468V20.6274V20.6078V20.5882V20.5687V20.5491V20.5297V20.5103V20.4907V20.4713V20.4518V20.4324V20.413V20.3936V20.3741V20.3547V20.3355V20.316V20.2966V20.2774V20.2581V20.2387V20.2194V20.2002V20.1809V20.1617V20.1424V20.1232V20.1041V20.0849V20.0658V20.0465V20.0275V20.0084V19.9893V19.9702V19.9512V19.9321V19.9132V19.8941V19.8752V19.8561V19.8372V19.8183V19.7994V19.7807V19.7618V19.7429V19.7242V19.7055V19.6867V19.6678V19.6493V19.6306V19.6118V19.5933V19.5746V19.556V19.5375V19.5189V19.5005V19.482V19.4634V19.4451V19.4267V19.4083V19.3899V19.3716V19.3534V19.3352V19.3168V19.2986V19.2804V19.2624V19.2442V19.2261V19.2081V19.1901V19.1721V19.154V19.136V19.1182V19.1003V19.0825V19.0646V19.0469V19.0291V19.0114V18.9937V18.9761V18.9586V18.9409V18.9234V18.9059V18.8884V18.8709V18.8536V18.8362V18.8189V18.8016V18.7843V18.7671V18.75V18.7431V18.7361V18.7293V18.7223V18.7155V18.7085V18.7015V18.6945V18.6875V18.6805V18.6735V18.6665V18.6595V18.6525V18.6453V18.6383V18.6311V18.624V18.617V18.6098V18.6026V18.5954V18.5883V18.5811V18.5739V18.5667V18.5596V18.5522V18.545V18.5377V18.5305V18.5232V18.5158V18.5086V18.5013V18.4939V18.4866V18.4792V18.4719V18.4645V18.4572V18.4497V18.4423V18.435V18.4274V18.4201V18.4126V18.4052V18.3977V18.3902V18.3828V18.3753V18.3678V18.3602V18.3527V18.3452V18.3377V18.3301V18.3226V18.3149V18.3074V18.2999V18.2923V18.2846V18.2771V18.2694V18.2619V18.2542V18.2465V18.239V18.2313V18.2236V18.216V18.2083V18.2006V18.1929V18.1852V18.1775V18.1698V18.1621V18.1544V18.1467V18.139V18.1312V18.1235V18.1158V18.1081V18.1002V18.0925V18.0848V18.0769V18.0692V18.0613V18.0536V18.0458V18.0381V18.0302V18.0225V18.0146V18.0067V17.999V17.9912V17.9833V17.9756V17.9677V17.9598V17.952V17.9443V17.9364V17.9285V17.9206V17.9128V17.9049V17.8972V17.8893V17.8814V17.8736V17.8657V17.8578V17.8499V17.8421V17.8342V17.8263V17.8184V17.8106V17.8027V17.7948V17.7869V17.7791V17.7712V17.7633V17.7554V17.7476V17.7397V17.7318V17.7239V17.7161V17.7082V17.7003V17.6924V17.6846V17.6765V17.6686V17.6608V17.6529V17.645V17.6371V17.6293V17.6214V17.6135V17.6056V17.5979V17.5901V17.5822V17.5743V17.5664V17.5586V17.5507V17.5428V17.5349V17.5271V17.5194V17.5115V17.5036V17.4957V17.488V17.4802V17.4723V17.4644V17.4567V17.4488V17.441V17.4333V17.4254V17.4177V17.4098V17.4021V17.3942V17.3865V17.3787V17.371V17.3633V17.3554V17.3477V17.34V17.3321V17.3244V17.3167V17.309V17.3013V17.2936V17.2859V17.2782V17.2705V17.2628V17.2551V17.2474V17.2397V17.2322V17.2245V17.2168V17.2091V17.2016V17.1939V17.1863V17.1786V17.1711V17.1634V17.1559V17.1484V17.1408V17.1331V17.1256V17.1181V17.1106V17.103V17.0955V17.088V17.0805V17.0731V17.0656V17.0581V17.0507V17.0432V17.0357V17.0283V17.021V17.0134V17.0061V16.9987V16.9914V16.984V16.9765V16.9692V16.962V16.9546V16.9473V16.9399V16.9328V16.9254V16.9181V16.9109V16.9037V16.8964V16.8892V16.882V16.8748V16.8677V16.8605V16.8533V16.8461V16.839V16.832V16.8248V16.8176V16.8106V16.8036V16.7964V16.7894V16.7824V16.7754V16.7684V16.7614V16.7544V16.7474V16.7406V16.7336V16.7268V16.7198V16.713V16.7061V16.6991V16.6923V16.6855V16.6788V16.672V16.6652V16.6584V16.6517V16.6449V16.6382V16.6316V16.6249V16.6183V16.6116V16.605V16.5983V16.5917V16.5852V16.5786V16.5721V16.5656V16.559V16.5525V16.546V16.5395V16.5332V16.5268V16.5203V16.514V16.5075V16.5012V16.4949V16.4886V16.4823V16.476V16.4697V16.4636V16.4573V16.4512V16.4449V16.4387V16.4326V16.4265V16.4204V16.4144V16.4083V16.4023V16.3962V16.3903V16.3843V16.3784V16.3724V16.3665V16.3605V16.3547V16.3488V16.343V16.3372V16.3315V16.3257V16.3199V16.3141V16.3085V16.3028V16.2972V16.2916V16.286V16.2804V16.2748V16.2692V16.2637V16.2581V16.2527V16.2473V16.2419V16.2364V16.231V16.2258V16.2203V16.2151V16.2098V16.2046V16.1993V16.1941V16.1888V16.1838V16.1785V16.1734V16.1684V16.1633V16.1582V16.1533V16.1482V16.1433V16.1383V16.1334V16.1285V16.1237V16.1188V16.1141V16.1092V16.1045V16.0998V16.095V16.0903V16.0858V16.081V16.0765V16.0719V16.0674V16.0628V16.0585V16.0539V16.0495V16.0452V16.0408V16.0364V16.032V16.0278V16.0235V16.0193V16.0151V16.0109V16.0067V16.0026V15.9984V15.9944V15.9904V15.9864V15.9825V15.9785V15.9746V15.9706V15.9668V15.9629V15.9592V15.9554V15.9517V15.948V15.9444V15.9407V15.937V15.9335V15.9298V15.9263V15.9228V15.9195V15.916V15.9127V15.9092V15.9059V15.9027V15.8994V15.8961V15.8929V15.8898V15.8866V15.8835V15.8805V15.8773V15.8744V15.8714V15.8684V15.8656V15.8626V15.8598V15.857V15.8542V15.8514V15.8488V15.8462V15.8436V15.8409V15.8383V15.8357V15.8332V15.8308V15.8283V15.8259V15.8236V15.8213V15.8189V15.8168V15.8145V15.8122V15.8101V15.808V15.8059V15.8038V15.8019V15.8V15.7981V15.7961V15.7942V15.7925V15.7905V15.7888V15.7855V15.7823V15.7792V15.7762V15.7734V15.7708V15.7683V15.7659V15.7638V15.7617V15.759V15.7573V15.7552V15.7534V15.7513C15.7499 14.7848 16.5334 14 17.4999 14Z" fill="white"/>
</svg>
