<svg width="33" height="33" viewBox="0 0 33 33" fill="none" xmlns="http://www.w3.org/2000/svg">
<g clip-path="url(#clip0_317_140)">
<path d="M29.6001 0.274902H2.6001C1.21885 0.274902 0.100098 1.39365 0.100098 2.7749V29.7749C0.100098 31.1562 1.21885 32.2749 2.6001 32.2749H29.6001C30.9813 32.2749 32.1001 31.1562 32.1001 29.7749V2.7749C32.1001 1.39365 30.9813 0.274902 29.6001 0.274902ZM11.6251 22.9687H8.50635V12.9874H11.6251V22.9687ZM9.98135 11.7374H9.95635C8.8251 11.7374 8.09385 10.9749 8.09385 10.0062C8.09385 9.01865 8.8501 8.2749 10.0001 8.2749C11.1501 8.2749 11.8563 9.01865 11.8813 10.0062C11.8876 10.9687 11.1563 11.7374 9.98135 11.7374ZM24.1001 22.9687H20.5626V17.8062C20.5626 16.4562 20.0126 15.5312 18.7938 15.5312C17.8626 15.5312 17.3438 16.1562 17.1063 16.7562C17.0188 16.9687 17.0313 17.2687 17.0313 17.5749V22.9687H13.5251C13.5251 22.9687 13.5688 13.8187 13.5251 12.9874H17.0313V14.5562C17.2376 13.8687 18.3563 12.8937 20.1438 12.8937C22.3626 12.8937 24.1001 14.3312 24.1001 17.4187V22.9687Z" fill="white"/>
</g>
<defs>
<clipPath id="clip0_317_140">
<rect width="32" height="32" fill="white" transform="translate(0.100098 0.274902)"/>
</clipPath>
</defs>
</svg>
