<svg width="193" height="47" viewBox="0 0 193 47" fill="none" xmlns="http://www.w3.org/2000/svg">
<path d="M184.06 21.4199C183.8 21.4199 183.59 21.3399 183.42 21.1899C183.25 21.0199 183.16 20.8099 183.16 20.5699C183.16 20.3099 183.25 20.1099 183.42 19.9499C183.59 19.7799 183.81 19.6899 184.06 19.6899H190.63C190.89 19.6899 191.1 19.7799 191.27 19.9499C191.44 20.0999 191.53 20.3099 191.53 20.5699C191.53 20.8099 191.44 21.0199 191.27 21.1899C191.1 21.3399 190.88 21.4199 190.63 21.4199H184.06ZM190.47 33.2699C189.56 33.2699 188.74 33.0599 188.02 32.6299C187.32 32.1999 186.76 31.6199 186.35 30.8799C185.94 30.1199 185.73 29.2699 185.73 28.2999V15.7099C185.73 15.4199 185.82 15.1799 185.99 14.9899C186.18 14.7999 186.42 14.7099 186.71 14.7099C187 14.7099 187.24 14.7999 187.43 14.9899C187.62 15.1799 187.71 15.4199 187.71 15.7099V28.2999C187.71 29.1799 187.97 29.8999 188.48 30.4599C189 31.0099 189.66 31.2799 190.46 31.2799H191.16C191.43 31.2799 191.66 31.3699 191.83 31.5599C192 31.7499 192.09 31.9899 192.09 32.2799C192.09 32.5699 191.99 32.8099 191.78 32.9999C191.57 33.1699 191.32 33.2599 191.01 33.2599H190.47V33.2699ZM168.53 33.2699C168.22 33.2699 167.97 33.1799 167.78 33.0099C167.61 32.8199 167.52 32.5799 167.52 32.2899V20.1799C167.52 19.8699 167.61 19.6299 167.78 19.4599C167.97 19.2699 168.22 19.1799 168.53 19.1799C168.82 19.1799 169.05 19.2699 169.23 19.4599C169.42 19.6299 169.51 19.8699 169.51 20.1799V32.2899C169.51 32.5799 169.42 32.8199 169.23 33.0099C169.06 33.1799 168.83 33.2699 168.53 33.2699ZM179.61 33.2699C179.32 33.2699 179.08 33.1799 178.89 32.9899C178.7 32.7999 178.61 32.5699 178.61 32.2899V25.5899C178.61 24.5299 178.4 23.6499 177.99 22.9599C177.6 22.2699 177.05 21.7599 176.34 21.4099C175.65 21.0699 174.87 20.8899 174 20.8899C173.13 20.8899 172.39 21.0499 171.71 21.3799C171.04 21.7099 170.51 22.1499 170.11 22.7199C169.72 23.2899 169.52 23.9299 169.52 24.6499H168.1C168.13 23.5699 168.43 22.6099 168.98 21.7699C169.53 20.9099 170.26 20.2399 171.17 19.7599C172.08 19.2599 173.09 19.0099 174.21 19.0099C175.43 19.0099 176.52 19.2699 177.48 19.7799C178.44 20.2799 179.2 21.0199 179.75 21.9999C180.32 22.9799 180.6 24.1699 180.6 25.5799V32.2799C180.6 32.5499 180.51 32.7899 180.32 32.9799C180.13 33.1699 179.9 33.2599 179.62 33.2599L179.61 33.2699ZM158.1 33.3999C156.71 33.3999 155.47 33.0999 154.39 32.4999C153.33 31.8799 152.48 31.0299 151.87 29.9499C151.27 28.8699 150.97 27.6299 150.97 26.2399C150.97 24.8499 151.25 23.5999 151.82 22.5299C152.4 21.4499 153.2 20.5999 154.22 19.9799C155.24 19.3599 156.4 19.0499 157.72 19.0499C159.04 19.0499 160.16 19.3499 161.12 19.9499C162.1 20.5299 162.85 21.3499 163.39 22.3999C163.92 23.4499 164.19 24.6399 164.19 25.9799C164.19 26.2499 164.1 26.4799 163.93 26.6499C163.76 26.7999 163.54 26.8799 163.26 26.8799H152.31V25.2299H163.46L162.35 26.0299C162.37 25.0299 162.19 24.1399 161.81 23.3499C161.43 22.5599 160.89 21.9399 160.19 21.4999C159.5 21.0499 158.68 20.8299 157.72 20.8299C156.76 20.8299 155.88 21.0599 155.14 21.5299C154.4 21.9899 153.83 22.6399 153.41 23.4599C153.02 24.2699 152.82 25.1899 152.82 26.2399C152.82 27.2899 153.04 28.2099 153.49 29.0199C153.95 29.8299 154.58 30.4599 155.37 30.9299C156.16 31.3899 157.07 31.6299 158.1 31.6299C158.72 31.6299 159.34 31.5299 159.95 31.3199C160.59 31.0999 161.09 30.8199 161.47 30.4999C161.66 30.3499 161.87 30.2699 162.11 30.2699C162.35 30.2499 162.56 30.3099 162.73 30.4499C162.95 30.6599 163.06 30.8799 163.06 31.1199C163.08 31.3599 162.98 31.5699 162.78 31.7399C162.21 32.2199 161.49 32.6199 160.62 32.9499C159.74 33.2599 158.9 33.4099 158.1 33.4099V33.3999ZM148.26 33.2699C147.57 33.2699 146.96 33.0799 146.41 32.6999C145.88 32.3199 145.46 31.7999 145.15 31.1299C144.86 30.4599 144.71 29.6899 144.71 28.8099V14.1299C144.71 13.8399 144.8 13.6099 144.97 13.4299C145.16 13.2399 145.4 13.1499 145.69 13.1499C145.98 13.1499 146.21 13.2399 146.39 13.4299C146.58 13.5999 146.67 13.8299 146.67 14.1299V28.8099C146.67 29.5499 146.82 30.1499 147.11 30.6099C147.42 31.0699 147.81 31.3099 148.27 31.3099H148.91C149.17 31.3099 149.37 31.3999 149.53 31.5899C149.68 31.7599 149.76 31.9899 149.76 32.2899C149.76 32.5899 149.65 32.8199 149.43 33.0099C149.22 33.1799 148.95 33.2699 148.61 33.2699H148.28H148.26ZM140.36 33.2699C140.07 33.2699 139.83 33.1799 139.64 33.0099C139.45 32.8199 139.36 32.5799 139.36 32.2899V27.8899L139.85 25.8599L141.37 26.2499V32.2999C141.37 32.5899 141.28 32.8299 141.09 33.0199C140.9 33.1899 140.66 33.2799 140.37 33.2799L140.36 33.2699ZM134.2 31.5999C135.2 31.5999 136.08 31.3699 136.85 30.8999C137.64 30.4399 138.26 29.7999 138.7 28.9899C139.16 28.1699 139.4 27.2499 139.4 26.2299C139.4 25.2099 139.17 24.2799 138.7 23.4699C138.25 22.6599 137.64 22.0299 136.85 21.5599C136.08 21.0799 135.19 20.8399 134.2 20.8399C133.21 20.8399 132.34 21.0799 131.55 21.5599C130.76 22.0199 130.13 22.6599 129.67 23.4699C129.21 24.2799 128.97 25.1999 128.97 26.2299C128.97 27.2599 129.2 28.1599 129.67 28.9899C130.13 29.7999 130.76 30.4299 131.55 30.8999C132.34 31.3599 133.22 31.5999 134.2 31.5999ZM133.99 33.3999C132.67 33.3999 131.48 33.0899 130.44 32.4699C129.39 31.8299 128.56 30.9799 127.94 29.8899C127.34 28.8099 127.04 27.5899 127.04 26.2299C127.04 24.8699 127.35 23.6299 127.97 22.5499C128.61 21.4699 129.46 20.6199 130.55 19.9999C131.63 19.3599 132.85 19.0499 134.21 19.0499C135.57 19.0499 136.78 19.3699 137.84 19.9999C138.92 20.6199 139.77 21.4699 140.39 22.5499C141.03 23.6299 141.35 24.8599 141.37 26.2299L140.57 26.8499C140.57 28.0899 140.28 29.1999 139.69 30.1999C139.12 31.1799 138.34 31.9599 137.35 32.5399C136.37 33.1099 135.26 33.3899 134 33.3899L133.99 33.3999ZM116.52 21.4199C116.26 21.4199 116.05 21.3399 115.88 21.1899C115.71 21.0199 115.62 20.8099 115.62 20.5699C115.62 20.3099 115.71 20.1099 115.88 19.9499C116.05 19.7799 116.27 19.6899 116.52 19.6899H123.09C123.35 19.6899 123.56 19.7799 123.73 19.9499C123.9 20.0999 123.99 20.3099 123.99 20.5699C123.99 20.8099 123.9 21.0199 123.73 21.1899C123.56 21.3399 123.34 21.4199 123.09 21.4199H116.52ZM122.93 33.2699C122.02 33.2699 121.2 33.0599 120.48 32.6299C119.78 32.1999 119.22 31.6199 118.81 30.8799C118.4 30.1199 118.19 29.2699 118.19 28.2999V15.7099C118.19 15.4199 118.28 15.1799 118.45 14.9899C118.64 14.7999 118.88 14.7099 119.17 14.7099C119.46 14.7099 119.7 14.7999 119.89 14.9899C120.08 15.1799 120.17 15.4199 120.17 15.7099V28.2999C120.17 29.1799 120.43 29.8999 120.94 30.4599C121.46 31.0099 122.12 31.2799 122.92 31.2799H123.62C123.89 31.2799 124.12 31.3699 124.29 31.5599C124.46 31.7499 124.55 31.9899 124.55 32.2799C124.55 32.5699 124.45 32.8099 124.24 32.9999C124.03 33.1699 123.78 33.2599 123.47 33.2599H122.93V33.2699ZM106.15 21.4199C105.89 21.4199 105.68 21.3399 105.51 21.1899C105.34 21.0199 105.25 20.8099 105.25 20.5699C105.25 20.3099 105.34 20.1099 105.51 19.9499C105.68 19.7799 105.9 19.6899 106.15 19.6899H112.72C112.98 19.6899 113.19 19.7799 113.36 19.9499C113.53 20.0999 113.62 20.3099 113.62 20.5699C113.62 20.8099 113.53 21.0199 113.36 21.1899C113.19 21.3399 112.97 21.4199 112.72 21.4199H106.15ZM112.56 33.2699C111.65 33.2699 110.83 33.0599 110.11 32.6299C109.41 32.1999 108.85 31.6199 108.44 30.8799C108.03 30.1199 107.82 29.2699 107.82 28.2999V15.7099C107.82 15.4199 107.91 15.1799 108.08 14.9899C108.27 14.7999 108.51 14.7099 108.8 14.7099C109.09 14.7099 109.33 14.7999 109.52 14.9899C109.71 15.1799 109.8 15.4199 109.8 15.7099V28.2999C109.8 29.1799 110.06 29.8999 110.57 30.4599C111.09 31.0099 111.75 31.2799 112.55 31.2799H113.25C113.52 31.2799 113.75 31.3699 113.92 31.5599C114.09 31.7499 114.18 31.9899 114.18 32.2799C114.18 32.5699 114.08 32.8099 113.87 32.9999C113.66 33.1699 113.41 33.2599 113.1 33.2599H112.56V33.2699ZM98.0801 33.3999C97.0701 33.3999 96.0601 33.2299 95.0701 32.8799C94.0701 32.5399 93.2701 32.0199 92.6501 31.3299C92.4601 31.1199 92.3801 30.8899 92.4201 30.6299C92.4501 30.3699 92.5801 30.1499 92.8101 29.9599C93.0501 29.7899 93.3001 29.7199 93.5601 29.7499C93.8201 29.7799 94.0301 29.8999 94.2001 30.0799C94.6101 30.5599 95.1501 30.9299 95.8201 31.1899C96.5101 31.4499 97.2601 31.5799 98.0901 31.5799C99.3601 31.5799 100.28 31.3699 100.85 30.9399C101.42 30.4899 101.71 29.9599 101.73 29.3399C101.73 28.7199 101.44 28.2199 100.85 27.8199C100.27 27.4099 99.3001 27.0899 97.9701 26.8699C96.2401 26.5999 94.9701 26.1099 94.1601 25.4299C93.3501 24.7399 92.9501 23.9299 92.9501 22.9799C92.9501 22.0999 93.1801 21.3699 93.6501 20.7899C94.1101 20.2099 94.7301 19.7699 95.5001 19.4799C96.2701 19.1899 97.1201 19.0399 98.0501 19.0399C99.2001 19.0399 100.19 19.2399 101.01 19.6299C101.85 20.0199 102.53 20.5599 103.04 21.2299C103.21 21.4499 103.28 21.6899 103.25 21.9299C103.22 22.1699 103.08 22.3699 102.84 22.5199C102.63 22.6399 102.39 22.6799 102.12 22.6499C101.86 22.5999 101.64 22.4699 101.45 22.2599C101.02 21.7599 100.52 21.3999 99.9601 21.1799C99.3901 20.9399 98.7401 20.8199 98.0001 20.8199C97.0601 20.8199 96.3001 21.0199 95.7301 21.4099C95.1601 21.7899 94.8801 22.2699 94.8801 22.8499C94.8801 23.2399 94.9801 23.5899 95.1901 23.8799C95.4101 24.1699 95.7801 24.4299 96.3001 24.6499C96.8301 24.8699 97.5701 25.0599 98.5201 25.2199C99.8101 25.4299 100.82 25.7399 101.56 26.1499C102.32 26.5399 102.85 27.0199 103.16 27.5699C103.49 28.0999 103.65 28.6899 103.65 29.3199C103.65 30.1299 103.41 30.8399 102.93 31.4599C102.47 32.0599 101.81 32.5299 100.97 32.8799C100.15 33.2199 99.1901 33.3999 98.1101 33.3999H98.0801ZM82.1401 31.5999C83.1401 31.5999 84.0301 31.3699 84.8201 30.8999C85.6101 30.4399 86.2301 29.7999 86.6701 28.9899C87.1201 28.1799 87.3401 27.2599 87.3401 26.2299C87.3401 25.1999 87.1201 24.2799 86.6701 23.4699C86.2201 22.6499 85.6101 21.9999 84.8201 21.5399C84.0301 21.0799 83.1401 20.8399 82.1401 20.8399C81.1401 20.8399 80.2501 21.0699 79.4601 21.5399C78.6701 21.9999 78.0401 22.6499 77.5801 23.4699C77.1301 24.2799 76.9101 25.1999 76.9101 26.2299C76.9101 27.2599 77.1301 28.1799 77.5801 28.9899C78.0401 29.7999 78.6701 30.4299 79.4601 30.8999C80.2501 31.3599 81.1401 31.5999 82.1401 31.5999ZM82.1401 33.3999C80.7701 33.3999 79.5401 33.0899 78.4601 32.4699C77.3801 31.8499 76.5301 30.9999 75.9101 29.9199C75.2901 28.8399 74.9801 27.6099 74.9801 26.2399C74.9801 24.8699 75.2901 23.6099 75.9101 22.5299C76.5301 21.4499 77.3801 20.5999 78.4601 19.9799C79.5401 19.3599 80.7701 19.0499 82.1401 19.0499C83.5101 19.0499 84.7301 19.3599 85.8001 19.9799C86.8801 20.5999 87.7301 21.4499 88.3501 22.5299C88.9701 23.6099 89.2901 24.8499 89.3001 26.2399C89.3001 27.6099 88.9801 28.8399 88.3501 29.9199C87.7301 30.9999 86.8801 31.8499 85.8001 32.4699C84.7401 33.0899 83.5201 33.3999 82.1401 33.3999ZM64.7101 31.5999C65.7101 31.5999 66.6001 31.3699 67.3901 30.8999C68.1801 30.4399 68.8001 29.7999 69.2401 28.9899C69.6901 28.1799 69.9101 27.2599 69.9101 26.2299C69.9101 25.1999 69.6901 24.2799 69.2401 23.4699C68.7901 22.6499 68.1801 21.9999 67.3901 21.5399C66.6001 21.0799 65.7101 20.8399 64.7101 20.8399C63.7101 20.8399 62.8201 21.0699 62.0301 21.5399C61.2401 21.9999 60.6101 22.6499 60.1501 23.4699C59.7001 24.2799 59.4801 25.1999 59.4801 26.2299C59.4801 27.2599 59.7001 28.1799 60.1501 28.9899C60.6101 29.7999 61.2401 30.4299 62.0301 30.8999C62.8201 31.3599 63.7101 31.5999 64.7101 31.5999ZM64.7101 33.3999C63.3401 33.3999 62.1101 33.0899 61.0301 32.4699C59.9501 31.8499 59.1001 30.9999 58.4801 29.9199C57.8601 28.8399 57.5501 27.6099 57.5501 26.2399C57.5501 24.8699 57.8601 23.6099 58.4801 22.5299C59.1001 21.4499 59.9501 20.5999 61.0301 19.9799C62.1101 19.3599 63.3401 19.0499 64.7101 19.0499C66.0801 19.0499 67.3001 19.3599 68.3701 19.9799C69.4501 20.5999 70.3001 21.4499 70.9201 22.5299C71.5401 23.6099 71.8601 24.8499 71.8701 26.2399C71.8701 27.6099 71.5501 28.8399 70.9201 29.9199C70.3001 30.9999 69.4501 31.8499 68.3701 32.4699C67.3101 33.0899 66.0901 33.3999 64.7101 33.3999ZM47.2201 31.5999C48.2201 31.5999 49.1101 31.3699 49.9001 30.8999C50.6901 30.4199 51.3101 29.7799 51.7501 28.9699C52.2101 28.1599 52.4501 27.2399 52.4501 26.2099C52.4501 25.1799 52.2201 24.2899 51.7501 23.4799C51.3001 22.6599 50.6901 22.0099 49.9001 21.5499C49.1101 21.0899 48.2201 20.8499 47.2201 20.8499C46.2201 20.8499 45.3601 21.0799 44.5701 21.5499C43.7801 22.0099 43.1601 22.6599 42.7201 23.4799C42.2701 24.2899 42.0501 25.1999 42.0501 26.2099C42.0501 27.2199 42.2701 28.1599 42.7201 28.9699C43.1701 29.7799 43.7801 30.4199 44.5701 30.8999C45.3601 31.3599 46.2401 31.5999 47.2201 31.5999ZM47.2201 33.3999C45.8801 33.3999 44.6701 33.0899 43.5901 32.4699C42.5301 31.8499 41.6801 31.0099 41.0401 29.9499C40.4201 28.8699 40.1001 27.6599 40.0901 26.3199V14.1599C40.0901 13.8499 40.1801 13.6099 40.3501 13.4399C40.5401 13.2499 40.7901 13.1599 41.1001 13.1599C41.3901 13.1599 41.6201 13.2499 41.8001 13.4399C41.9901 13.6099 42.0801 13.8499 42.0801 14.1599V21.7299C42.6501 20.9199 43.3901 20.2799 44.3201 19.7999C45.2601 19.2999 46.3101 19.0499 47.4601 19.0499C48.7801 19.0499 49.9701 19.3699 51.0101 19.9999C52.0601 20.6199 52.8801 21.4699 53.4801 22.5499C54.1001 23.6299 54.4101 24.8499 54.4101 26.2099C54.4101 27.5699 54.0901 28.8099 53.4601 29.8899C52.8401 30.9699 51.9901 31.8299 50.9101 32.4699C49.8301 33.0899 48.6001 33.3999 47.2301 33.3999H47.2201Z" fill="white"/>
<path d="M21.28 29.6601C21.7333 29.2934 21.96 29.1101 21.96 29.1101C21.96 29.1101 21.95 29.1001 21.94 29.0901C21.92 29.0701 21.9 29.0501 21.88 29.0201C21.83 28.9601 21.75 28.8801 21.65 28.7801C21.45 28.5901 21.17 28.3401 20.79 28.0801C20.04 27.5601 18.94 27.0001 17.52 26.8801L17.36 28.6301C18.4 28.7201 19.22 29.1301 19.79 29.5301C20.07 29.7301 20.29 29.9201 20.43 30.0501C20.5 30.1201 20.55 30.1701 20.58 30.2101C20.6 30.2301 20.61 30.2401 20.61 30.2501C20.61 30.2501 20.8366 30.0668 21.29 29.7001L21.28 29.6601ZM15.67 41.4701C18.49 41.4201 21.15 39.6701 22.57 37.3201C24.02 34.9201 24.22 31.7901 21.95 29.1001L20.61 30.2301C22.33 32.2601 22.2 34.5601 21.07 36.4201C19.92 38.3301 17.77 39.6801 15.64 39.7201L15.67 41.4701ZM7.69995 34.1901C7.69995 37.0401 9.14995 38.9001 10.86 40.0101C12.53 41.0901 14.47 41.4901 15.67 41.4701L15.64 39.7201C14.76 39.7401 13.17 39.4301 11.82 38.5501C10.51 37.7001 9.45995 36.3401 9.45995 34.2001H7.70995L7.69995 34.1901ZM17.51 26.8501C17.03 26.8101 16.6 27.1601 16.56 27.6401C16.52 28.1201 16.87 28.5501 17.35 28.5901L17.51 26.8401V26.8501ZM21.29 29.6601L20.61 30.2101C20.61 30.2101 20.61 30.2101 20.62 30.2201L21.29 29.6501V29.6601ZM9.45995 34.1901C9.45995 33.7101 9.06995 33.3101 8.57995 33.3101C8.08995 33.3101 7.69995 33.7001 7.69995 34.1901H9.44995H9.45995Z" fill="white"/>
<path d="M9.44994 34.4199V7.30994H7.69994V34.4099H9.44994V34.4199ZM9.44994 7.31994C9.44994 6.83994 9.05994 6.43994 8.56994 6.43994C8.07994 6.43994 7.68994 6.82994 7.68994 7.31994H9.43994H9.44994ZM7.69994 34.4199C7.69994 34.8999 8.08994 35.2999 8.57994 35.2999C9.06994 35.2999 9.45994 34.9099 9.45994 34.4199H7.70994H7.69994Z" fill="white"/>
<path d="M25.9899 27.39C26.4899 27.0833 26.7399 26.93 26.7399 26.93C26.7399 26.93 26.7399 26.92 26.7299 26.91C26.7299 26.89 26.7099 26.87 26.6899 26.85C26.6599 26.8 26.6099 26.73 26.5499 26.64C26.4199 26.47 26.2399 26.23 25.9899 25.95C25.4999 25.39 24.7499 24.66 23.7399 23.98C21.6899 22.59 18.5699 21.38 14.2399 21.95L14.4699 23.69C18.3199 23.18 21.0199 24.26 22.7499 25.43C23.6199 26.02 24.2599 26.64 24.6699 27.11C24.8799 27.34 25.0299 27.54 25.1199 27.67C25.1699 27.74 25.1999 27.79 25.2199 27.82C25.2299 27.84 25.2399 27.85 25.2399 27.85C25.2399 27.85 25.4899 27.6966 25.9899 27.39ZM15.5599 46.54C20.3299 46.36 24.5199 43.79 26.8199 40.09C29.1399 36.37 29.5399 31.53 26.7399 26.93L25.2399 27.84C27.6799 31.85 27.3199 35.98 25.3299 39.16C23.3299 42.37 19.6699 44.63 15.4899 44.78L15.5599 46.53V46.54ZM2.77992 34.24C2.58992 41.82 8.39992 46.81 15.5599 46.54L15.4999 44.79C9.24992 45.02 4.37992 40.75 4.53992 34.28L2.78992 34.24H2.77992ZM14.2199 21.94C13.7399 22 13.3999 22.44 13.4699 22.92C13.5299 23.4 13.9699 23.74 14.4499 23.67L14.2199 21.93V21.94ZM4.52992 34.29C4.53992 33.81 4.15992 33.4 3.67992 33.39C3.19992 33.38 2.78992 33.76 2.77992 34.24L4.52992 34.28V34.29Z" fill="white"/>
<path d="M3.20998 0.12L0.439977 1.72L1.31998 3.24L4.09998 1.64L3.20998 0.12ZM4.51998 34.42V0.88H2.76998V34.42H4.51998ZM0.439977 1.72C0.0199774 1.96 -0.120023 2.5 0.119977 2.92C0.359977 3.34 0.899977 3.48 1.31998 3.24L0.439977 1.72ZM3.64998 0.88H4.52998C4.52998 0.57 4.35998 0.28 4.08998 0.12C3.81998 -0.04 3.47998 -0.04 3.20998 0.12L3.64998 0.88ZM2.76998 34.42C2.76998 34.9 3.15998 35.3 3.64998 35.3C4.13998 35.3 4.52998 34.91 4.52998 34.42H2.77998H2.76998Z" fill="white"/>
<path d="M3.15992 1.5999L6.00992 3.5199L6.98992 2.0699L4.13992 0.149904L3.15992 1.5999ZM6.00992 3.5199C6.40992 3.7899 6.95992 3.6799 7.22992 3.2799C7.49992 2.8799 7.38992 2.3299 6.98992 2.0599L6.00992 3.5099V3.5199ZM4.13992 0.149904C3.73992 -0.120096 3.18992 -0.0100955 2.91992 0.389904C2.64992 0.789904 2.75992 1.3399 3.15992 1.6099L4.13992 0.159904V0.149904Z" fill="white"/>
<path d="M15.6099 35.5599C16.5488 35.5599 17.3099 34.7988 17.3099 33.8599C17.3099 32.921 16.5488 32.1599 15.6099 32.1599C14.671 32.1599 13.9099 32.921 13.9099 33.8599C13.9099 34.7988 14.671 35.5599 15.6099 35.5599Z" fill="#F07F61"/>
</svg>
