<svg width="35" height="35" viewBox="0 0 35 35" fill="none" xmlns="http://www.w3.org/2000/svg">
<g clip-path="url(#clip0_311_17)">
<path d="M4.375 24.7917C4.375 25.5971 5.02792 26.25 5.83333 26.25H29.1667C29.9721 26.25 30.625 25.5971 30.625 24.7917C30.625 23.9863 29.9721 23.3333 29.1667 23.3333H5.83333C5.02792 23.3333 4.375 23.9863 4.375 24.7917ZM4.375 17.5C4.375 18.3054 5.02792 18.9583 5.83333 18.9583H29.1667C29.9721 18.9583 30.625 18.3054 30.625 17.5C30.625 16.6946 29.9721 16.0417 29.1667 16.0417H5.83333C5.02792 16.0417 4.375 16.6946 4.375 17.5ZM5.83333 8.75C5.02792 8.75 4.375 9.40292 4.375 10.2083C4.375 11.0137 5.02792 11.6667 5.83333 11.6667H29.1667C29.9721 11.6667 30.625 11.0137 30.625 10.2083C30.625 9.40292 29.9721 8.75 29.1667 8.75H5.83333Z" fill="white"/>
</g>
<defs>
<clipPath id="clip0_311_17">
<rect width="35" height="35" fill="white"/>
</clipPath>
</defs>
</svg>
