<svg width="50" height="80" viewBox="0 0 50 80" fill="none" xmlns="http://www.w3.org/2000/svg">
<g clip-path="url(#clip0_292_311)">
<path d="M36.456 50.3542C37.222 49.7379 37.605 49.4297 37.605 49.4297C37.605 49.4297 37.5881 49.4129 37.5712 49.3961C37.5374 49.3625 37.5036 49.3289 37.4698 49.2785C37.3853 49.1776 37.2502 49.0431 37.0812 48.875C36.7433 48.5557 36.2702 48.1355 35.6281 47.6985C34.3608 46.8244 32.5022 45.8831 30.1029 45.6814L29.8326 48.6229C31.5898 48.7742 32.9753 49.4633 33.9384 50.1357C34.4115 50.4719 34.7833 50.7912 35.0198 51.0097C35.1381 51.1274 35.2226 51.2114 35.2733 51.2787C35.3071 51.3123 35.3239 51.3291 35.3239 51.3459C35.3239 51.3459 35.7069 51.0377 36.4729 50.4214L36.456 50.3542ZM26.9771 70.205C31.7419 70.121 36.2364 67.1795 38.6357 63.2295C41.0857 59.1955 41.4236 53.9344 37.5881 49.4129L35.3239 51.3123C38.2302 54.7244 38.0105 58.5904 36.1012 61.7167C34.1581 64.9272 30.5253 67.1963 26.9264 67.2636L26.9771 70.205ZM13.5105 57.9684C13.5105 62.7589 15.9605 65.8853 18.8498 67.751C21.6715 69.5663 24.9495 70.2387 26.9771 70.205L26.9264 67.2636C25.4395 67.2972 22.7529 66.7761 20.4719 65.297C18.2584 63.8682 16.4843 61.5823 16.4843 57.9853H13.5274L13.5105 57.9684ZM30.086 45.631C29.275 45.5638 28.5484 46.1521 28.4808 46.9589C28.4133 47.7657 29.0046 48.4885 29.8157 48.5557L30.086 45.6142V45.631ZM36.4729 50.3542L35.3239 51.2787C35.3239 51.2787 35.3239 51.2787 35.3408 51.2955L36.4729 50.3374V50.3542ZM16.4843 57.9684C16.4843 57.1616 15.8253 56.4893 14.9974 56.4893C14.1695 56.4893 13.5105 57.1448 13.5105 57.9684H16.4674H16.4843Z" fill="white"/>
<path d="M16.4672 58.3548V12.7869H13.5103V58.338H16.4672V58.3548ZM16.4672 12.8037C16.4672 11.9969 15.8082 11.3246 14.9803 11.3246C14.1524 11.3246 13.4934 11.9801 13.4934 12.8037H16.4503H16.4672ZM13.5103 58.3548C13.5103 59.1616 14.1693 59.8339 14.9972 59.8339C15.8251 59.8339 16.4841 59.1784 16.4841 58.3548H13.5272H13.5103Z" fill="white"/>
<path d="M44.4142 46.5385C45.2591 46.023 45.6815 45.7653 45.6815 45.7653C45.6815 45.7653 45.6815 45.7485 45.6646 45.7317C45.6646 45.698 45.6308 45.6644 45.597 45.6308C45.5463 45.5468 45.4618 45.4291 45.3605 45.2778C45.1408 44.9921 44.8367 44.5887 44.4142 44.118C43.5863 43.1768 42.3191 41.9497 40.6125 40.8068C37.1487 38.4704 31.877 36.4366 24.5608 37.3946L24.9494 40.3193C31.4546 39.4621 36.0167 41.2774 38.9398 43.244C40.4098 44.2357 41.4911 45.2778 42.1839 46.0678C42.5387 46.4544 42.7922 46.7906 42.9443 47.0091C43.0287 47.1268 43.0794 47.2108 43.1132 47.2612C43.1301 47.2949 43.147 47.3117 43.147 47.3117C43.147 47.3117 43.5694 47.0539 44.4142 46.5385ZM26.7911 78.7268C34.8508 78.4242 41.9305 74.1044 45.8167 67.8853C49.7367 61.6325 50.4125 53.4972 45.6815 45.7653L43.147 47.2949C47.2698 54.0351 46.6615 60.977 43.2991 66.3221C39.9198 71.7176 33.7356 75.5163 26.6729 75.7685L26.7911 78.71V78.7268ZM5.19735 58.0523C4.87632 70.7932 14.6932 79.1806 26.7911 78.7268L26.6898 75.7853C16.1294 76.1719 7.9008 68.9946 8.17115 58.1195L5.21425 58.0523H5.19735ZM24.527 37.3778C23.716 37.4787 23.1415 38.2183 23.2598 39.0251C23.3611 39.8319 24.1046 40.4034 24.9156 40.2857L24.527 37.361V37.3778ZM8.15425 58.1363C8.17115 57.3295 7.52908 56.6404 6.71804 56.6236C5.90701 56.6068 5.21425 57.2455 5.19735 58.0523L8.15425 58.1195V58.1363Z" fill="white"/>
<path d="M5.92393 0.701702L1.24359 3.39106L2.73048 5.94596L7.42773 3.2566L5.92393 0.701702ZM8.13738 58.3549V1.97915H5.18048V58.3549H8.13738ZM1.24359 3.39106C0.533932 3.79447 0.29738 4.70213 0.702897 5.40809C1.10841 6.11404 2.02083 6.34936 2.73048 5.94596L1.24359 3.39106ZM6.66738 1.97915H8.15428C8.15428 1.45809 7.86704 0.970638 7.41083 0.701702C6.95462 0.432766 6.38014 0.432766 5.92393 0.701702L6.66738 1.97915ZM5.18048 58.3549C5.18048 59.1617 5.83945 59.834 6.66738 59.834C7.49531 59.834 8.15428 59.1785 8.15428 58.3549H5.19738H5.18048Z" fill="white"/>
<path d="M5.83927 3.1892L10.6548 6.41643L12.3106 3.9792L7.49513 0.751963L5.83927 3.1892ZM10.6548 6.41643C11.3306 6.87026 12.26 6.68537 12.7162 6.01303C13.1724 5.34069 12.9865 4.41622 12.3106 3.96239L10.6548 6.39962V6.41643ZM7.49513 0.751963C6.81927 0.298133 5.88996 0.483027 5.43375 1.15537C4.97754 1.82771 5.1634 2.75218 5.83927 3.20601L7.49513 0.768772V0.751963Z" fill="white"/>
<path d="M26.8756 60.2709C28.462 60.2709 29.748 58.9916 29.748 57.4135C29.748 55.8354 28.462 54.556 26.8756 54.556C25.2892 54.556 24.0032 55.8354 24.0032 57.4135C24.0032 58.9916 25.2892 60.2709 26.8756 60.2709Z" fill="#F07F61"/>
</g>
<defs>
<clipPath id="clip0_292_311">
<rect width="49" height="79" fill="white" transform="translate(0.500244 0.5)"/>
</clipPath>
</defs>
</svg>
