<svg width="153" height="21" viewBox="0 0 153 21" fill="none" xmlns="http://www.w3.org/2000/svg">
<path d="M144.06 8.4199C143.8 8.4199 143.59 8.3399 143.42 8.1899C143.25 8.0199 143.16 7.8099 143.16 7.5699C143.16 7.3099 143.25 7.1099 143.42 6.9499C143.59 6.7799 143.81 6.6899 144.06 6.6899H150.63C150.89 6.6899 151.1 6.7799 151.27 6.9499C151.44 7.0999 151.53 7.3099 151.53 7.5699C151.53 7.8099 151.44 8.0199 151.27 8.1899C151.1 8.3399 150.88 8.4199 150.63 8.4199H144.06ZM150.47 20.2699C149.56 20.2699 148.74 20.0599 148.02 19.6299C147.32 19.1999 146.76 18.6199 146.35 17.8799C145.94 17.1199 145.73 16.2699 145.73 15.2999V2.7099C145.73 2.4199 145.82 2.1799 145.99 1.9899C146.18 1.7999 146.42 1.7099 146.71 1.7099C147 1.7099 147.24 1.7999 147.43 1.9899C147.62 2.1799 147.71 2.4199 147.71 2.7099V15.2999C147.71 16.1799 147.97 16.8999 148.48 17.4599C149 18.0099 149.66 18.2799 150.46 18.2799H151.16C151.43 18.2799 151.66 18.3699 151.83 18.5599C152 18.7499 152.09 18.9899 152.09 19.2799C152.09 19.5699 151.99 19.8099 151.78 19.9999C151.57 20.1699 151.32 20.2599 151.01 20.2599H150.47V20.2699ZM128.53 20.2699C128.22 20.2699 127.97 20.1799 127.78 20.0099C127.61 19.8199 127.52 19.5799 127.52 19.2899V7.1799C127.52 6.8699 127.61 6.6299 127.78 6.4599C127.97 6.2699 128.22 6.1799 128.53 6.1799C128.82 6.1799 129.05 6.2699 129.23 6.4599C129.42 6.6299 129.51 6.8699 129.51 7.1799V19.2899C129.51 19.5799 129.42 19.8199 129.23 20.0099C129.06 20.1799 128.83 20.2699 128.53 20.2699ZM139.61 20.2699C139.32 20.2699 139.08 20.1799 138.89 19.9899C138.7 19.7999 138.61 19.5699 138.61 19.2899V12.5899C138.61 11.5299 138.4 10.6499 137.99 9.9599C137.6 9.2699 137.05 8.7599 136.34 8.4099C135.65 8.0699 134.87 7.8899 134 7.8899C133.13 7.8899 132.39 8.0499 131.71 8.3799C131.04 8.7099 130.51 9.1499 130.11 9.7199C129.72 10.2899 129.52 10.9299 129.52 11.6499H128.1C128.13 10.5699 128.43 9.6099 128.98 8.7699C129.53 7.9099 130.26 7.2399 131.17 6.7599C132.08 6.2599 133.09 6.0099 134.21 6.0099C135.43 6.0099 136.52 6.2699 137.48 6.7799C138.44 7.2799 139.2 8.0199 139.75 8.9999C140.32 9.9799 140.6 11.1699 140.6 12.5799V19.2799C140.6 19.5499 140.51 19.7899 140.32 19.9799C140.13 20.1699 139.9 20.2599 139.62 20.2599L139.61 20.2699ZM118.1 20.3999C116.71 20.3999 115.47 20.0999 114.39 19.4999C113.33 18.8799 112.48 18.0299 111.87 16.9499C111.27 15.8699 110.97 14.6299 110.97 13.2399C110.97 11.8499 111.25 10.5999 111.82 9.5299C112.4 8.4499 113.2 7.5999 114.22 6.9799C115.24 6.3599 116.4 6.0499 117.72 6.0499C119.04 6.0499 120.16 6.3499 121.12 6.9499C122.1 7.5299 122.85 8.3499 123.39 9.3999C123.92 10.4499 124.19 11.6399 124.19 12.9799C124.19 13.2499 124.1 13.4799 123.93 13.6499C123.76 13.7999 123.54 13.8799 123.26 13.8799H112.31V12.2299H123.46L122.35 13.0299C122.37 12.0299 122.19 11.1399 121.81 10.3499C121.43 9.5599 120.89 8.9399 120.19 8.4999C119.5 8.0499 118.68 7.8299 117.72 7.8299C116.76 7.8299 115.88 8.0599 115.14 8.5299C114.4 8.9899 113.83 9.6399 113.41 10.4599C113.02 11.2699 112.82 12.1899 112.82 13.2399C112.82 14.2899 113.04 15.2099 113.49 16.0199C113.95 16.8299 114.58 17.4599 115.37 17.9299C116.16 18.3899 117.07 18.6299 118.1 18.6299C118.72 18.6299 119.34 18.5299 119.95 18.3199C120.59 18.0999 121.09 17.8199 121.47 17.4999C121.66 17.3499 121.87 17.2699 122.11 17.2699C122.35 17.2499 122.56 17.3099 122.73 17.4499C122.95 17.6599 123.06 17.8799 123.06 18.1199C123.08 18.3599 122.98 18.5699 122.78 18.7399C122.21 19.2199 121.49 19.6199 120.62 19.9499C119.74 20.2599 118.9 20.4099 118.1 20.4099V20.3999ZM108.26 20.2699C107.57 20.2699 106.96 20.0799 106.41 19.6999C105.88 19.3199 105.46 18.7999 105.15 18.1299C104.86 17.4599 104.71 16.6899 104.71 15.8099V1.1299C104.71 0.839903 104.8 0.609903 104.97 0.429903C105.16 0.239903 105.4 0.149902 105.69 0.149902C105.98 0.149902 106.21 0.239903 106.39 0.429903C106.58 0.599903 106.67 0.829903 106.67 1.1299V15.8099C106.67 16.5499 106.82 17.1499 107.11 17.6099C107.42 18.0699 107.81 18.3099 108.27 18.3099H108.91C109.17 18.3099 109.37 18.3999 109.53 18.5899C109.68 18.7599 109.76 18.9899 109.76 19.2899C109.76 19.5899 109.65 19.8199 109.43 20.0099C109.22 20.1799 108.95 20.2699 108.61 20.2699H108.28H108.26ZM100.36 20.2699C100.07 20.2699 99.8301 20.1799 99.6401 20.0099C99.4501 19.8199 99.3601 19.5799 99.3601 19.2899V14.8899L99.8501 12.8599L101.37 13.2499V19.2999C101.37 19.5899 101.28 19.8299 101.09 20.0199C100.9 20.1899 100.66 20.2799 100.37 20.2799L100.36 20.2699ZM94.2001 18.5999C95.2001 18.5999 96.0801 18.3699 96.8501 17.8999C97.6401 17.4399 98.2601 16.7999 98.7001 15.9899C99.1601 15.1699 99.4001 14.2499 99.4001 13.2299C99.4001 12.2099 99.1701 11.2799 98.7001 10.4699C98.2501 9.6599 97.6401 9.0299 96.8501 8.5599C96.0801 8.0799 95.1901 7.8399 94.2001 7.8399C93.2101 7.8399 92.3401 8.0799 91.5501 8.5599C90.7601 9.0199 90.1301 9.6599 89.6701 10.4699C89.2101 11.2799 88.9701 12.1999 88.9701 13.2299C88.9701 14.2599 89.2001 15.1599 89.6701 15.9899C90.1301 16.7999 90.7601 17.4299 91.5501 17.8999C92.3401 18.3599 93.2201 18.5999 94.2001 18.5999ZM93.9901 20.3999C92.6701 20.3999 91.4801 20.0899 90.4401 19.4699C89.3901 18.8299 88.5601 17.9799 87.9401 16.8899C87.3401 15.8099 87.0401 14.5899 87.0401 13.2299C87.0401 11.8699 87.3501 10.6299 87.9701 9.5499C88.6101 8.4699 89.4601 7.6199 90.5501 6.9999C91.6301 6.3599 92.8501 6.0499 94.2101 6.0499C95.5701 6.0499 96.7801 6.3699 97.8401 6.9999C98.9201 7.6199 99.7701 8.4699 100.39 9.5499C101.03 10.6299 101.35 11.8599 101.37 13.2299L100.57 13.8499C100.57 15.0899 100.28 16.1999 99.6901 17.1999C99.1201 18.1799 98.3401 18.9599 97.3501 19.5399C96.3701 20.1099 95.2601 20.3899 94.0001 20.3899L93.9901 20.3999ZM76.5201 8.4199C76.2601 8.4199 76.0501 8.3399 75.8801 8.1899C75.7101 8.0199 75.6201 7.8099 75.6201 7.5699C75.6201 7.3099 75.7101 7.1099 75.8801 6.9499C76.0501 6.7799 76.2701 6.6899 76.5201 6.6899H83.0901C83.3501 6.6899 83.5601 6.7799 83.7301 6.9499C83.9001 7.0999 83.9901 7.3099 83.9901 7.5699C83.9901 7.8099 83.9001 8.0199 83.7301 8.1899C83.5601 8.3399 83.3401 8.4199 83.0901 8.4199H76.5201ZM82.9301 20.2699C82.0201 20.2699 81.2001 20.0599 80.4801 19.6299C79.7801 19.1999 79.2201 18.6199 78.8101 17.8799C78.4001 17.1199 78.1901 16.2699 78.1901 15.2999V2.7099C78.1901 2.4199 78.2801 2.1799 78.4501 1.9899C78.6401 1.7999 78.8801 1.7099 79.1701 1.7099C79.4601 1.7099 79.7001 1.7999 79.8901 1.9899C80.0801 2.1799 80.1701 2.4199 80.1701 2.7099V15.2999C80.1701 16.1799 80.4301 16.8999 80.9401 17.4599C81.4601 18.0099 82.1201 18.2799 82.9201 18.2799H83.6201C83.8901 18.2799 84.1201 18.3699 84.2901 18.5599C84.4601 18.7499 84.5501 18.9899 84.5501 19.2799C84.5501 19.5699 84.4501 19.8099 84.2401 19.9999C84.0301 20.1699 83.7801 20.2599 83.4701 20.2599H82.9301V20.2699ZM66.1501 8.4199C65.8901 8.4199 65.6801 8.3399 65.5101 8.1899C65.3401 8.0199 65.2501 7.8099 65.2501 7.5699C65.2501 7.3099 65.3401 7.1099 65.5101 6.9499C65.6801 6.7799 65.9001 6.6899 66.1501 6.6899H72.7201C72.9801 6.6899 73.1901 6.7799 73.3601 6.9499C73.5301 7.0999 73.6201 7.3099 73.6201 7.5699C73.6201 7.8099 73.5301 8.0199 73.3601 8.1899C73.1901 8.3399 72.9701 8.4199 72.7201 8.4199H66.1501ZM72.5601 20.2699C71.6501 20.2699 70.8301 20.0599 70.1101 19.6299C69.4101 19.1999 68.8501 18.6199 68.4401 17.8799C68.0301 17.1199 67.8201 16.2699 67.8201 15.2999V2.7099C67.8201 2.4199 67.9101 2.1799 68.0801 1.9899C68.2701 1.7999 68.5101 1.7099 68.8001 1.7099C69.0901 1.7099 69.3301 1.7999 69.5201 1.9899C69.7101 2.1799 69.8001 2.4199 69.8001 2.7099V15.2999C69.8001 16.1799 70.0601 16.8999 70.5701 17.4599C71.0901 18.0099 71.7501 18.2799 72.5501 18.2799H73.2501C73.5201 18.2799 73.7501 18.3699 73.9201 18.5599C74.0901 18.7499 74.1801 18.9899 74.1801 19.2799C74.1801 19.5699 74.0801 19.8099 73.8701 19.9999C73.6601 20.1699 73.4101 20.2599 73.1001 20.2599H72.5601V20.2699ZM58.0801 20.3999C57.0701 20.3999 56.0601 20.2299 55.0701 19.8799C54.0701 19.5399 53.2701 19.0199 52.6501 18.3299C52.4601 18.1199 52.3801 17.8899 52.4201 17.6299C52.4501 17.3699 52.5801 17.1499 52.8101 16.9599C53.0501 16.7899 53.3001 16.7199 53.5601 16.7499C53.8201 16.7799 54.0301 16.8999 54.2001 17.0799C54.6101 17.5599 55.1501 17.9299 55.8201 18.1899C56.5101 18.4499 57.2601 18.5799 58.0901 18.5799C59.3601 18.5799 60.2801 18.3699 60.8501 17.9399C61.4201 17.4899 61.7101 16.9599 61.7301 16.3399C61.7301 15.7199 61.4401 15.2199 60.8501 14.8199C60.2701 14.4099 59.3001 14.0899 57.9701 13.8699C56.2401 13.5999 54.9701 13.1099 54.1601 12.4299C53.3501 11.7399 52.9501 10.9299 52.9501 9.9799C52.9501 9.0999 53.1801 8.3699 53.6501 7.7899C54.1101 7.2099 54.7301 6.7699 55.5001 6.4799C56.2701 6.1899 57.1201 6.0399 58.0501 6.0399C59.2001 6.0399 60.1901 6.2399 61.0101 6.6299C61.8501 7.0199 62.5301 7.5599 63.0401 8.2299C63.2101 8.4499 63.2801 8.6899 63.2501 8.9299C63.2201 9.1699 63.0801 9.3699 62.8401 9.5199C62.6301 9.6399 62.3901 9.6799 62.1201 9.6499C61.8601 9.5999 61.6401 9.4699 61.4501 9.2599C61.0201 8.7599 60.5201 8.3999 59.9601 8.1799C59.3901 7.9399 58.7401 7.8199 58.0001 7.8199C57.0601 7.8199 56.3001 8.0199 55.7301 8.4099C55.1601 8.7899 54.8801 9.2699 54.8801 9.8499C54.8801 10.2399 54.9801 10.5899 55.1901 10.8799C55.4101 11.1699 55.7801 11.4299 56.3001 11.6499C56.8301 11.8699 57.5701 12.0599 58.5201 12.2199C59.8101 12.4299 60.8201 12.7399 61.5601 13.1499C62.3201 13.5399 62.8501 14.0199 63.1601 14.5699C63.4901 15.0999 63.6501 15.6899 63.6501 16.3199C63.6501 17.1299 63.4101 17.8399 62.9301 18.4599C62.4701 19.0599 61.8101 19.5299 60.9701 19.8799C60.1501 20.2199 59.1901 20.3999 58.1101 20.3999H58.0801ZM42.1401 18.5999C43.1401 18.5999 44.0301 18.3699 44.8201 17.8999C45.6101 17.4399 46.2301 16.7999 46.6701 15.9899C47.1201 15.1799 47.3401 14.2599 47.3401 13.2299C47.3401 12.1999 47.1201 11.2799 46.6701 10.4699C46.2201 9.6499 45.6101 8.9999 44.8201 8.5399C44.0301 8.0799 43.1401 7.8399 42.1401 7.8399C41.1401 7.8399 40.2501 8.0699 39.4601 8.5399C38.6701 8.9999 38.0401 9.6499 37.5801 10.4699C37.1301 11.2799 36.9101 12.1999 36.9101 13.2299C36.9101 14.2599 37.1301 15.1799 37.5801 15.9899C38.0401 16.7999 38.6701 17.4299 39.4601 17.8999C40.2501 18.3599 41.1401 18.5999 42.1401 18.5999ZM42.1401 20.3999C40.7701 20.3999 39.5401 20.0899 38.4601 19.4699C37.3801 18.8499 36.5301 17.9999 35.9101 16.9199C35.2901 15.8399 34.9801 14.6099 34.9801 13.2399C34.9801 11.8699 35.2901 10.6099 35.9101 9.5299C36.5301 8.4499 37.3801 7.5999 38.4601 6.9799C39.5401 6.3599 40.7701 6.0499 42.1401 6.0499C43.5101 6.0499 44.7301 6.3599 45.8001 6.9799C46.8801 7.5999 47.7301 8.4499 48.3501 9.5299C48.9701 10.6099 49.2901 11.8499 49.3001 13.2399C49.3001 14.6099 48.9801 15.8399 48.3501 16.9199C47.7301 17.9999 46.8801 18.8499 45.8001 19.4699C44.7401 20.0899 43.5201 20.3999 42.1401 20.3999ZM24.7101 18.5999C25.7101 18.5999 26.6001 18.3699 27.3901 17.8999C28.1801 17.4399 28.8001 16.7999 29.2401 15.9899C29.6901 15.1799 29.9101 14.2599 29.9101 13.2299C29.9101 12.1999 29.6901 11.2799 29.2401 10.4699C28.7901 9.6499 28.1801 8.9999 27.3901 8.5399C26.6001 8.0799 25.7101 7.8399 24.7101 7.8399C23.7101 7.8399 22.8201 8.0699 22.0301 8.5399C21.2401 8.9999 20.6101 9.6499 20.1501 10.4699C19.7001 11.2799 19.4801 12.1999 19.4801 13.2299C19.4801 14.2599 19.7001 15.1799 20.1501 15.9899C20.6101 16.7999 21.2401 17.4299 22.0301 17.8999C22.8201 18.3599 23.7101 18.5999 24.7101 18.5999ZM24.7101 20.3999C23.3401 20.3999 22.1101 20.0899 21.0301 19.4699C19.9501 18.8499 19.1001 17.9999 18.4801 16.9199C17.8601 15.8399 17.5501 14.6099 17.5501 13.2399C17.5501 11.8699 17.8601 10.6099 18.4801 9.5299C19.1001 8.4499 19.9501 7.5999 21.0301 6.9799C22.1101 6.3599 23.3401 6.0499 24.7101 6.0499C26.0801 6.0499 27.3001 6.3599 28.3701 6.9799C29.4501 7.5999 30.3001 8.4499 30.9201 9.5299C31.5401 10.6099 31.8601 11.8499 31.8701 13.2399C31.8701 14.6099 31.5501 15.8399 30.9201 16.9199C30.3001 17.9999 29.4501 18.8499 28.3701 19.4699C27.3101 20.0899 26.0901 20.3999 24.7101 20.3999ZM7.22009 18.5999C8.22009 18.5999 9.11009 18.3699 9.90009 17.8999C10.6901 17.4199 11.3101 16.7799 11.7501 15.9699C12.2101 15.1599 12.4501 14.2399 12.4501 13.2099C12.4501 12.1799 12.2201 11.2899 11.7501 10.4799C11.3001 9.6599 10.6901 9.0099 9.90009 8.5499C9.11009 8.0899 8.22009 7.8499 7.22009 7.8499C6.22009 7.8499 5.36009 8.0799 4.57009 8.5499C3.78009 9.0099 3.16009 9.6599 2.72009 10.4799C2.27009 11.2899 2.05009 12.1999 2.05009 13.2099C2.05009 14.2199 2.27009 15.1599 2.72009 15.9699C3.17009 16.7799 3.78009 17.4199 4.57009 17.8999C5.36009 18.3599 6.24009 18.5999 7.22009 18.5999ZM7.22009 20.3999C5.88009 20.3999 4.67009 20.0899 3.59009 19.4699C2.53009 18.8499 1.68009 18.0099 1.04009 16.9499C0.420089 15.8699 0.100088 14.6599 0.0900879 13.3199V1.1599C0.0900879 0.849903 0.180086 0.609902 0.350086 0.439902C0.540086 0.249902 0.790086 0.159903 1.10009 0.159903C1.39009 0.159903 1.62009 0.249902 1.80009 0.439902C1.99009 0.609902 2.08009 0.849903 2.08009 1.1599V8.7299C2.65009 7.9199 3.39009 7.2799 4.32009 6.7999C5.26009 6.2999 6.31009 6.0499 7.46009 6.0499C8.78009 6.0499 9.97009 6.3699 11.0101 6.9999C12.0601 7.6199 12.8801 8.4699 13.4801 9.5499C14.1001 10.6299 14.4101 11.8499 14.4101 13.2099C14.4101 14.5699 14.0901 15.8099 13.4601 16.8899C12.8401 17.9699 11.9901 18.8299 10.9101 19.4699C9.83009 20.0899 8.60009 20.3999 7.23009 20.3999H7.22009Z" fill="white"/>
</svg>
