<svg width="33" height="33" viewBox="0 0 33 33" fill="none" xmlns="http://www.w3.org/2000/svg">
<path d="M16.1001 0.274902C7.2641 0.274902 0.100098 7.4389 0.100098 16.2749C0.100098 19.2765 0.94322 22.075 2.38135 24.4754L0.243327 32.2749L8.20947 30.1838C10.5392 31.5083 13.2288 32.2749 16.1001 32.2749C24.9361 32.2749 32.1001 25.1109 32.1001 16.2749C32.1001 7.4389 24.9361 0.274902 16.1001 0.274902ZM10.6235 8.81136C10.8835 8.81136 11.1507 8.80978 11.3813 8.82178C11.6667 8.82844 11.9772 8.84934 12.2746 9.50667C12.6279 10.288 13.3973 12.2481 13.4959 12.4468C13.5946 12.6454 13.6645 12.8795 13.5272 13.1395C13.3965 13.4062 13.3286 13.5675 13.1366 13.8035C12.9379 14.0329 12.7202 14.3177 12.5402 14.491C12.3415 14.6897 12.1364 14.9075 12.3657 15.3035C12.5951 15.6995 13.3915 16.9977 14.5688 18.0457C16.0822 19.3977 17.359 19.8132 17.7563 20.0119C18.1537 20.2105 18.3838 20.1796 18.6131 19.9129C18.8491 19.6529 19.6043 18.7608 19.8709 18.3634C20.1309 17.9661 20.3963 18.0349 20.7563 18.1655C21.1217 18.2962 23.07 19.2559 23.4673 19.4546C23.8646 19.6533 24.1251 19.7516 24.2251 19.9129C24.3278 20.0796 24.3279 20.873 23.9985 21.7983C23.6692 22.7223 22.052 23.6159 21.3267 23.6785C20.5947 23.7465 19.9115 24.0076 16.5688 22.6916C12.5368 21.1036 9.99408 16.9739 9.79541 16.7072C9.59674 16.4472 8.18083 14.5601 8.18083 12.6134C8.18083 10.6601 9.20497 9.70349 9.56364 9.30615C9.92897 8.90882 10.3569 8.81136 10.6235 8.81136Z" fill="white"/>
</svg>
